<svg version="1.1" id="el_7eWr9C11s" width='170px' height='170px' xmlns="http://www.w3.org/2000/svg" xmlns:xlink="http://www.w3.org/1999/xlink" x="0px" y="0px" viewBox="0 0 1176 1120" style="enable-background:new 0 0 1176 1120;" xml:space="preserve"><style>@-webkit-keyframes kf_el_PNQfwfjgmcR_an_5_sP460iBA{0%{-webkit-transform: translate(660.8773498535156px, 580.0630340576172px) scale(1, 1) translate(-660.8773498535156px, -580.0630340576172px);transform: translate(660.8773498535156px, 580.0630340576172px) scale(1, 1) translate(-660.8773498535156px, -580.0630340576172px);}50%{-webkit-transform: translate(660.8773498535156px, 580.0630340576172px) scale(1.05, 1.05) translate(-660.8773498535156px, -580.0630340576172px);transform: translate(660.8773498535156px, 580.0630340576172px) scale(1.05, 1.05) translate(-660.8773498535156px, -580.0630340576172px);}100%{-webkit-transform: translate(660.8773498535156px, 580.0630340576172px) scale(1, 1) translate(-660.8773498535156px, -580.0630340576172px);transform: translate(660.8773498535156px, 580.0630340576172px) scale(1, 1) translate(-660.8773498535156px, -580.0630340576172px);}}@keyframes kf_el_PNQfwfjgmcR_an_5_sP460iBA{0%{-webkit-transform: translate(660.8773498535156px, 580.0630340576172px) scale(1, 1) translate(-660.8773498535156px, -580.0630340576172px);transform: translate(660.8773498535156px, 580.0630340576172px) scale(1, 1) translate(-660.8773498535156px, -580.0630340576172px);}50%{-webkit-transform: translate(660.8773498535156px, 580.0630340576172px) scale(1.05, 1.05) translate(-660.8773498535156px, -580.0630340576172px);transform: translate(660.8773498535156px, 580.0630340576172px) scale(1.05, 1.05) translate(-660.8773498535156px, -580.0630340576172px);}100%{-webkit-transform: translate(660.8773498535156px, 580.0630340576172px) scale(1, 1) translate(-660.8773498535156px, -580.0630340576172px);transform: translate(660.8773498535156px, 580.0630340576172px) scale(1, 1) translate(-660.8773498535156px, -580.0630340576172px);}}@-webkit-keyframes kf_el_PNQfwfjgmcR_an_wDkvoeGDQ{0%{-webkit-transform: translate(660.8773498535156px, 580.0630340576172px) rotate(0deg) translate(-660.8773498535156px, -580.0630340576172px);transform: translate(660.8773498535156px, 580.0630340576172px) rotate(0deg) translate(-660.8773498535156px, -580.0630340576172px);}50%{-webkit-transform: translate(660.8773498535156px, 580.0630340576172px) rotate(-10deg) translate(-660.8773498535156px, -580.0630340576172px);transform: translate(660.8773498535156px, 580.0630340576172px) rotate(-10deg) translate(-660.8773498535156px, -580.0630340576172px);}100%{-webkit-transform: translate(660.8773498535156px, 580.0630340576172px) rotate(0deg) translate(-660.8773498535156px, -580.0630340576172px);transform: translate(660.8773498535156px, 580.0630340576172px) rotate(0deg) translate(-660.8773498535156px, -580.0630340576172px);}}@keyframes kf_el_PNQfwfjgmcR_an_wDkvoeGDQ{0%{-webkit-transform: translate(660.8773498535156px, 580.0630340576172px) rotate(0deg) translate(-660.8773498535156px, -580.0630340576172px);transform: translate(660.8773498535156px, 580.0630340576172px) rotate(0deg) translate(-660.8773498535156px, -580.0630340576172px);}50%{-webkit-transform: translate(660.8773498535156px, 580.0630340576172px) rotate(-10deg) translate(-660.8773498535156px, -580.0630340576172px);transform: translate(660.8773498535156px, 580.0630340576172px) rotate(-10deg) translate(-660.8773498535156px, -580.0630340576172px);}100%{-webkit-transform: translate(660.8773498535156px, 580.0630340576172px) rotate(0deg) translate(-660.8773498535156px, -580.0630340576172px);transform: translate(660.8773498535156px, 580.0630340576172px) rotate(0deg) translate(-660.8773498535156px, -580.0630340576172px);}}@-webkit-keyframes kf_el_fO74LeizBh_an_uQO6uGFaK{0%{-webkit-transform: translate(599.75px, 578.0160827636719px) rotate(0deg) translate(-599.75px, -578.0160827636719px);transform: translate(599.75px, 578.0160827636719px) rotate(0deg) translate(-599.75px, -578.0160827636719px);}50%{-webkit-transform: translate(599.75px, 578.0160827636719px) rotate(15deg) translate(-599.75px, -578.0160827636719px);transform: translate(599.75px, 578.0160827636719px) rotate(15deg) translate(-599.75px, -578.0160827636719px);}100%{-webkit-transform: translate(599.75px, 578.0160827636719px) rotate(0deg) translate(-599.75px, -578.0160827636719px);transform: translate(599.75px, 578.0160827636719px) rotate(0deg) translate(-599.75px, -578.0160827636719px);}}@keyframes kf_el_fO74LeizBh_an_uQO6uGFaK{0%{-webkit-transform: translate(599.75px, 578.0160827636719px) rotate(0deg) translate(-599.75px, -578.0160827636719px);transform: translate(599.75px, 578.0160827636719px) rotate(0deg) translate(-599.75px, -578.0160827636719px);}50%{-webkit-transform: translate(599.75px, 578.0160827636719px) rotate(15deg) translate(-599.75px, -578.0160827636719px);transform: translate(599.75px, 578.0160827636719px) rotate(15deg) translate(-599.75px, -578.0160827636719px);}100%{-webkit-transform: translate(599.75px, 578.0160827636719px) rotate(0deg) translate(-599.75px, -578.0160827636719px);transform: translate(599.75px, 578.0160827636719px) rotate(0deg) translate(-599.75px, -578.0160827636719px);}}#el_7eWr9C11s *{-webkit-animation-duration: 2s;animation-duration: 2s;-webkit-animation-iteration-count: 1;animation-iteration-count: 1;-webkit-animation-play-state: running;animation-play-state: running;-webkit-animation-timing-function: cubic-bezier(0, 0, 1, 1);animation-timing-function: cubic-bezier(0, 0, 1, 1);}#el_ONIvpf-gAo{opacity: 0.5;fill: #DAE6EA;}#el_LTdm2VqAzf{fill: #5ABCEA;}#el_tfmyDvq3sd{fill: #222221;}#el_41L9j-k8nu{fill: #222221;}#el_ICsCj3iW5k{fill: #222221;}#el_dc6I9pXtVZL{fill: #222221;}#el_0v7F0why8bw{fill: #222221;}#el_fzqKCPD9QOT{fill: #222221;}#el_AFSsKBTmvph{fill: #222221;}#el_MVwEL6-nOXj{fill: #222221;}#el_RgL6hwQZO65{fill: #222221;}#el_3vWD8W6u3uK{fill: #222221;}#el_Gu74VVypTWM{fill: #222221;}#el_dYGLe0qEJMz{fill: #FFD16A;}#el_o0S82naPtrv{fill: #222221;}#el_fO74LeizBh_an_uQO6uGFaK{-webkit-animation-fill-mode: backwards;animation-fill-mode: backwards;-webkit-transform: translate(599.75px, 578.0160827636719px) rotate(0deg) translate(-599.75px, -578.0160827636719px);transform: translate(599.75px, 578.0160827636719px) rotate(0deg) translate(-599.75px, -578.0160827636719px);-webkit-animation-timing-function: cubic-bezier(0.42, 0, 0.58, 1);animation-timing-function: cubic-bezier(0.42, 0, 0.58, 1);}#el_7eWr9C11s:hover #el_fO74LeizBh_an_uQO6uGFaK{-webkit-animation-name: kf_el_fO74LeizBh_an_uQO6uGFaK;animation-name: kf_el_fO74LeizBh_an_uQO6uGFaK;}#el_PNQfwfjgmcR_an_wDkvoeGDQ{-webkit-animation-fill-mode: backwards;animation-fill-mode: backwards;-webkit-transform: translate(660.8773498535156px, 580.0630340576172px) rotate(0deg) translate(-660.8773498535156px, -580.0630340576172px);transform: translate(660.8773498535156px, 580.0630340576172px) rotate(0deg) translate(-660.8773498535156px, -580.0630340576172px);-webkit-animation-timing-function: cubic-bezier(0.42, 0, 0.58, 1);animation-timing-function: cubic-bezier(0.42, 0, 0.58, 1);}#el_7eWr9C11s:hover #el_PNQfwfjgmcR_an_wDkvoeGDQ{-webkit-animation-name: kf_el_PNQfwfjgmcR_an_wDkvoeGDQ;animation-name: kf_el_PNQfwfjgmcR_an_wDkvoeGDQ;}#el_PNQfwfjgmcR_an_5_sP460iBA{-webkit-animation-fill-mode: backwards;animation-fill-mode: backwards;-webkit-transform: translate(660.8773498535156px, 580.0630340576172px) scale(1, 1) translate(-660.8773498535156px, -580.0630340576172px);transform: translate(660.8773498535156px, 580.0630340576172px) scale(1, 1) translate(-660.8773498535156px, -580.0630340576172px);-webkit-animation-timing-function: cubic-bezier(0, 0, 1, 1);animation-timing-function: cubic-bezier(0, 0, 1, 1);}#el_7eWr9C11s:hover #el_PNQfwfjgmcR_an_5_sP460iBA{-webkit-animation-name: kf_el_PNQfwfjgmcR_an_5_sP460iBA;animation-name: kf_el_PNQfwfjgmcR_an_5_sP460iBA;}</style>

<path d="M1112.1,311.3C1025.3,26.9,763.9-32.5,451.4,62.8S-44,465.8,42.8,750.2S369,1151.3,837,1070.8&#10;&#9;C1136.7,1019.3,1198.8,595.7,1112.1,311.3z" id="el_ONIvpf-gAo"/>
<g id="el_fO74LeizBh_an_uQO6uGFaK" data-animator-group="true" data-animator-type="1"><g id="el_fO74LeizBh">
	<g id="el_d3ZG0hrEGQ">
		<path d="M966.9,575.1c0,189.4-201.3,379.9-427.7,348.2c-201.3-28.2-329.7-176.2-329.7-365.6s164.8-311,368-311&#10;&#9;&#9;&#9;S966.9,385.7,966.9,575.1z" id="el_LTdm2VqAzf"/>
		<g id="el_sTxYzYMbZc">
			<g id="el_vNuAU24Yqq">
				<path d="M975,570.4c-0.1,70.2-20.7,139.5-59.5,198.1c-37,55.9-90.8,101.3-153.5,125.8&#10;&#9;&#9;&#9;&#9;&#9;c-65.7,25.7-139.1,28.8-206.2,6.3c-67.2-22.6-125.4-69-167.1-125.8c-42.6-57.9-70.1-127.6-75.5-199.5&#10;&#9;&#9;&#9;&#9;&#9;c-5.1-67.4,9.6-135.4,47.5-191.9c35.4-52.8,88.9-91.9,148.1-114.1c64.6-24.1,137.5-31.2,205.3-18.1&#10;&#9;&#9;&#9;&#9;&#9;c65.2,12.6,125.9,44.5,172,92.5s75.4,110,85.3,175.7C973.9,536.3,974.9,553.4,975,570.4c0,9.7,15,9.7,15,0&#10;&#9;&#9;&#9;&#9;&#9;c-0.1-70.9-20.7-141.4-61.9-199.4c-39.9-56.1-96.6-98.4-161.5-121.2c-68.5-24.1-144.3-25.4-214.8-9.1&#10;&#9;&#9;&#9;&#9;&#9;c-65.8,15.2-128.2,48-174.5,97.7c-46.8,50.3-73.9,115.4-79.2,183.7c-5.8,74.9,13.3,151,49.5,216.5&#10;&#9;&#9;&#9;&#9;&#9;c35.9,64.6,89.4,120.5,154.8,155.2c66.3,35.1,142.3,45.4,215.6,29.4c69-15,131.8-53.2,178.6-105.9&#10;&#9;&#9;&#9;&#9;&#9;c47.6-53.6,78.9-121.1,89.2-192c2.6-18.2,4-36.5,4.1-54.9C990,560.8,975,560.8,975,570.4z" id="el_tfmyDvq3sd"/>
			</g>
		</g>
		<g id="el_CoY1bIoZYv">
			<g id="el_CuyV2Yua4X">
				<path d="M691,230.2c-18-4.3-37.2-4.8-55.6-4.7c-28.3,0.1-56.7,2.9-84.6,7.5c-33.1,5.5-65.8,14-97.2,25.9&#10;&#9;&#9;&#9;&#9;&#9;c-34.3,13-67.2,29.9-96.7,51.7c-31.4,23.2-58.6,51.6-79.5,84.6c-23.4,37-38.2,79.1-45.2,122.2c-6.4,39.4-6.3,79.5,1.1,118.7&#10;&#9;&#9;&#9;&#9;&#9;c7.5,39.5,22.7,77.6,44.5,111.4c24.1,37.3,55.9,69,92.3,94.4c43.6,30.4,93.4,51.3,144.5,65.1c14.4,3.9,28.9,7.2,43.6,10&#10;&#9;&#9;&#9;&#9;&#9;c9.4,1.8,13.5-12.6,4-14.5c-53.6-10.4-106.3-27.3-153.9-54.3c-38.7-22-73.6-50.5-101.2-85.4c-24.2-30.5-42.1-65.9-52.8-103.3&#10;&#9;&#9;&#9;&#9;&#9;c-10.3-36.2-13.8-74.1-10.8-111.7c3.3-42,14.3-84,33.6-121.6c17.3-33.9,41.2-63.9,70-88.7c27-23.3,57.9-41.7,90.4-56&#10;&#9;&#9;&#9;&#9;&#9;c30.3-13.3,62.6-23.1,95.1-29.9c28.7-6,55.8-9.5,85.3-10.7c11.6-0.5,23.3-0.6,34.9-0.1c4.8,0.2,9.6,0.5,14.4,0.9&#10;&#9;&#9;&#9;&#9;&#9;c2.1,0.2,4.2,0.4,6.2,0.6c1,0.1,2,0.2,3,0.4c-2.4-0.3,0.4,0.1,1.3,0.2c3.2,0.5,6.3,1,9.4,1.8C696.4,246.9,700.4,232.5,691,230.2&#10;&#9;&#9;&#9;&#9;&#9;L691,230.2z" id="el_41L9j-k8nu"/>
			</g>
		</g>
		<g id="el_nOdmo9Tmxr">
			<g id="el_eFtFWqDSjn">
				<path d="M919.9,569.4c-0.2,54.8-19.8,107.6-52.2,151.4c-32.2,43.5-77.4,78.4-128.1,97.5&#10;&#9;&#9;&#9;&#9;&#9;c-51.1,19.3-107.3,22.7-159.4,5.2c-50.9-17.1-95-52.4-126.6-95.4c-32.3-44-53.3-97-57.5-151.7c-3.8-51.1,7.2-102.7,35.9-145.6&#10;&#9;&#9;&#9;&#9;&#9;c26.9-40.1,67.5-69.9,112.5-86.7c49.6-18.5,105-23.4,157-13.9c51.7,9.4,101.1,32.6,140.2,68c38.4,34.8,65.6,80.7,74.8,131.9&#10;&#9;&#9;&#9;&#9;&#9;C918.8,543.1,919.8,556.2,919.9,569.4c0,9.7,15,9.7,15,0c-0.2-56-20.2-109.7-55.5-153c-34.6-42.6-82.6-73.6-134.6-90.5&#10;&#9;&#9;&#9;&#9;&#9;c-54.2-17.7-113.2-19.6-168.7-6.8c-50.5,11.7-98.5,36.9-134,75.1c-36,38.7-56.8,88.6-61,141.2c-4.6,57.7,10,116.3,37.9,166.7&#10;&#9;&#9;&#9;&#9;&#9;c27.5,49.7,68.7,92.9,119.1,119.6c51.4,27.3,109.9,34.8,166.7,22.6c56.1-12,107.9-42.2,147.9-83c39.8-40.7,68.9-93,78.5-149.4&#10;&#9;&#9;&#9;&#9;&#9;c2.4-14,3.7-28.2,3.7-42.4C934.9,559.7,919.9,559.7,919.9,569.4z" id="el_ICsCj3iW5k"/>
			</g>
		</g>
		<g id="el_xBsygJwyPo">
			<g id="el_8QhGvwPRfv">
				<path d="M256.6,477.6c15.6,5.3,32.1,7.8,48.7,7.3c9.6-0.3,9.7-15.3,0-15c-15.4,0.5-30.3-1.8-44.7-6.8&#10;&#9;&#9;&#9;&#9;&#9;C251.4,460,247.5,474.5,256.6,477.6L256.6,477.6z" id="el_dc6I9pXtVZL"/>
			</g>
		</g>
		<g id="el_TLHC-QYbuqJ">
			<g id="el_-wCTfEqMWtU">
				<path d="M283.1,418.9c12.7,6,25.9,10.5,39.7,13.1c9.4,1.8,13.5-12.7,4-14.5c-12.5-2.3-24.7-6.1-36.2-11.6&#10;&#9;&#9;&#9;&#9;&#9;C282,401.9,274.3,414.8,283.1,418.9L283.1,418.9z" id="el_0v7F0why8bw"/>
			</g>
		</g>
		<g id="el_GfkUAmsVItm">
			<g id="el_kRAtmF_hgpZ">
				<path d="M413.8,287.9c9.7,1.7,19.3,3.3,29,5c9.4,1.6,13.5-12.8,4-14.5c-9.7-1.7-19.3-3.3-29-5&#10;&#9;&#9;&#9;&#9;&#9;C408.3,271.8,404.3,286.3,413.8,287.9L413.8,287.9z" id="el_fzqKCPD9QOT"/>
			</g>
		</g>
		<g id="el_3U5EMldlAWe">
			<g id="el_7FarTeRR6GW">
				<path d="M252.7,681.2c22.5,1.6,45.3-1.3,66.7-8.6c9.1-3.1,5.2-17.6-4-14.5c-20.3,6.9-41.3,9.6-62.7,8&#10;&#9;&#9;&#9;&#9;&#9;C243.1,665.5,243.1,680.5,252.7,681.2L252.7,681.2z" id="el_AFSsKBTmvph"/>
			</g>
		</g>
		<g id="el_aalQik5r2e0">
			<g id="el_DANMsy7FsRz">
				<path d="M266.2,711.2c21.4,1.3,42.8-0.6,63.6-5.4c9.4-2.2,5.4-16.6-4-14.5c-19.6,4.5-39.6,6.1-59.6,4.8&#10;&#9;&#9;&#9;&#9;&#9;C256.5,695.6,256.6,710.6,266.2,711.2L266.2,711.2z" id="el_MVwEL6-nOXj"/>
			</g>
		</g>
		<g id="el_Q77t8LDN32-">
			<g id="el_rFAvwdGzHS3">
				<path d="M791.4,727.8c18.2-19.3,31.2-43,37.5-68.8c2.3-9.4-12.2-13.4-14.5-4c-5.7,23.3-17.1,44.7-33.6,62.2&#10;&#9;&#9;&#9;&#9;&#9;C774.1,724.2,784.7,734.8,791.4,727.8L791.4,727.8z" id="el_RgL6hwQZO65"/>
			</g>
		</g>
		<g id="el_eb2-qekrhU3">
			<g id="el_gxAt2NAWPMg">
				<path d="M842.9,695.5c3.5-12.2,6.9-24.3,10.4-36.5c2.7-9.3-11.8-13.3-14.5-4c-3.5,12.2-6.9,24.3-10.4,36.5&#10;&#9;&#9;&#9;&#9;&#9;C825.7,700.8,840.2,704.8,842.9,695.5L842.9,695.5z" id="el_3vWD8W6u3uK"/>
			</g>
		</g>
		<g id="el_HvVEMTjoclX">
			<g id="el_7ZrXoQP-V2W">
				<path d="M468.2,475.3c1.1-14.7,8.4-27.8,19.6-37.2c7.4-6.2-3.3-16.8-10.6-10.6c-14.3,12-22.6,29.3-24,47.8&#10;&#9;&#9;&#9;&#9;&#9;C452.5,485,467.5,484.9,468.2,475.3L468.2,475.3z" id="el_Gu74VVypTWM"/>
			</g>
		</g>
	</g>
	<g id="el_PNQfwfjgmcR_an_wDkvoeGDQ" data-animator-group="true" data-animator-type="1"><g id="el_PNQfwfjgmcR_an_5_sP460iBA" data-animator-group="true" data-animator-type="2"><g id="el_PNQfwfjgmcR">
		<g id="el_jgfFa4Z6ZHR">
			<g id="el_HdFrwZPjGRS">
				<g id="el_5_qeSFfGTFz">
					<path d="M730.2,717.6c-16.2,12.5-36.2,18.7-60.1,18.6l-4.2,25.4c-1,6.2-3.6,10.9-7.7,14.2c-4.1,3.3-9,4.5-14.7,3.6&#10;&#9;&#9;&#9;&#9;&#9;&#9;c-5.7-0.9-9.9-3.6-12.8-8.1c-2.8-4.5-3.7-9.8-2.7-15.9l4-24.6c-13.9-3.7-27.1-9.1-39.6-16.4c-12.5-7.3-22.9-15.9-31.2-25.8&#10;&#9;&#9;&#9;&#9;&#9;&#9;c-2.8-2.9-4.6-6-5.4-9.1c-0.8-3.2-0.8-6.9-0.1-11.2c0.9-5.6,3.3-10.3,7.1-14.1c3.8-3.8,7.7-5.4,11.6-4.7&#10;&#9;&#9;&#9;&#9;&#9;&#9;c2.5,0.4,4.7,1.3,6.6,2.5c1.9,1.3,4.5,3.3,7.6,6c10.1,9.9,20.3,17.7,30.7,23.2c10.4,5.6,21.7,9.3,33.8,11.3&#10;&#9;&#9;&#9;&#9;&#9;&#9;c16.6,2.7,30,1.3,40.2-4.1c10.2-5.5,16.4-14.8,18.5-28c1.3-7.8-0.2-14.5-4.3-20.1c-4.2-5.6-9.7-10.5-16.7-14.5s-16.8-9-29.6-15&#10;&#9;&#9;&#9;&#9;&#9;&#9;c-17.7-8.1-32-15.8-42.7-22.9c-10.8-7.1-19.5-16.8-26.1-28.9c-6.7-12.1-8.5-27.3-5.5-45.5c3.6-21.7,13.8-39.1,30.7-52&#10;&#9;&#9;&#9;&#9;&#9;&#9;s37.2-19.4,61.1-19.3l4.2-25.4c1-6.2,3.6-10.9,7.7-14.2c4.1-3.3,9-4.5,14.7-3.6c5.7,0.9,9.9,3.6,12.8,8.1&#10;&#9;&#9;&#9;&#9;&#9;&#9;c2.8,4.5,3.7,9.8,2.7,15.9l-4.1,25c24.4,7.6,44.4,20.9,59.8,40c5.1,5.8,7.1,12.6,5.8,20.4c-0.9,5.6-3.3,10.4-7.1,14.1&#10;&#9;&#9;&#9;&#9;&#9;&#9;c-3.8,3.8-7.8,5.3-12,4.6c-2.2-0.4-4.3-1.1-6.3-2.3c-2-1.1-4.5-3.2-7.6-6.2c-8.9-9.4-17.5-16.9-25.9-22.2&#10;&#9;&#9;&#9;&#9;&#9;&#9;c-8.4-5.4-18.8-9.1-31.2-11.1c-15.3-2.5-28.2-0.8-38.6,5c-10.4,5.9-16.6,15.3-18.7,28.1c-1.5,8.9,0,16.5,4.3,22.8&#10;&#9;&#9;&#9;&#9;&#9;&#9;c4.3,6.4,10.2,11.7,17.6,15.9c7.4,4.3,17.6,9.4,30.6,15.4c17.3,7.8,31.2,15.2,41.7,22.2s19,16.3,25.3,27.9&#10;&#9;&#9;&#9;&#9;&#9;&#9;c6.3,11.7,8.1,26.3,5.2,44C756.2,688.1,746.4,705.1,730.2,717.6z" id="el_dYGLe0qEJMz"/>
				</g>
			</g>
		</g>
		<path d="M655.1,478.4c11.8-2.8,27-0.3,37.9,3.7c19.2,7,28.5,24.5,45.4,33.6c8.2,4.4,15.2,4.2,22.8-0.8&#10;&#9;&#9;&#9;c24.3-16.2,8.1-43.2-7.4-57.4c-5.8-5.3-12-10.1-18.7-14.2c-6.2-3.9-25.5-11.5-25.5-11.5s0-4,0.2-5.6c-0.1-4.9,2.1-9.9,2.4-14.9&#10;&#9;&#9;&#9;c0.9-20.8-18.3-40.2-38.8-26c-11.5,8-12.6,25.1-14.2,38.7c-31.9,2.5-62.3,15.2-79.4,44.1c-15.7,26.5-17.5,62.3,0.3,88&#10;&#9;&#9;&#9;c10.5,15.2,25.3,24.7,41.3,33.3c17.5,9.4,45.3,15.8,59.1,30.2c29.1,30.3-2.1,52.5-29.5,51.2c-16.7-0.7-33.1-6.6-47.2-15.4&#10;&#9;&#9;&#9;c-11.1-6.9-24.8-26.6-39.7-27.6c-22.2-1.5-30.4,28.3-21.5,44.5c8.4,15.1,28.2,27.1,42.9,34.7c6.7,3.4,28.1,11,28.1,11&#10;&#9;&#9;&#9;c-0.5,3.3-1,6.6-1.6,9.8c-2.5,19.4,3.2,47.7,30.6,38.9c17.4-5.6,18.8-26.1,20.8-42.1c20.7-1.5,38.6-6.8,56-18.9&#10;&#9;&#9;&#9;c0.5-0.2,0.9-0.5,1.4-0.9c0.5-0.3,0.8-0.7,1.2-1c22.2-19.7,34.7-48.9,30.4-79c-4.2-29.7-26.9-47.9-51.8-61.1&#10;&#9;&#9;&#9;c-17.2-9.1-37.2-15.1-53.2-26C621.4,519.9,624.7,485.7,655.1,478.4z M672.1,563.7c23.1,10.8,50.1,21.7,62.6,45.6&#10;&#9;&#9;&#9;c15.2,29,1.4,66-21.8,85.9c-16.5,11.8-34.2,16.4-54.3,17.2c-3.6,0.1-6.2,2.1-6.7,5.8c-0.7,4.2-1.3,8.3-2,12.5&#10;&#9;&#9;&#9;c-1.9,12.2-1.2,27.4-14.4,25.6c-16.3-2.2-10.2-15.7-10.7-27.6c-0.2-4.6,1.6-10.1,2.3-14.6c0.4-2.5-1.6-5.7-4.1-6.4&#10;&#9;&#9;&#9;c-14.5-4.2-28.2-9.5-41.1-17.4c-6.4-3.9-16.8-9.7-20.9-16.2c-1.7-1.9-4.3-4-5.2-5.7c-2.4-4.4-7.5-11-2.3-20&#10;&#9;&#9;&#9;c6.1-10.6,9.5-7.7,16.6-4.4c3,1.4,26.1,21.2,30.6,23.9c9.3,5.4,19.2,9.6,29.7,12.2c31.2,7.7,73.8,0.8,74.7-39.2&#10;&#9;&#9;&#9;c1-39.2-60.3-51.9-86.2-67.4c-29.8-17.8-44.8-44.7-35.8-79.4c9.9-38,43.9-56.6,81.3-58c3.6-0.1,6.2-2.1,6.7-5.8&#10;&#9;&#9;&#9;c0.7-4.2,1.3-8.3,2-12.5c1.9-12.2,0.4-24.9,16-22.5c19.1,3,7.5,34.8,6.8,39.5c-0.4,2.6,1.7,5.6,4.1,6.4c12.2,4.1,24,9.2,34.5,16.7&#10;&#9;&#9;&#9;c5.3,3.7,34.2,23.6,24,41.2c-12.3,21.3-35.7-14.5-42.8-19.3c-7.1-4.7-14.3-8.2-22.5-10.7c-29.3-8.9-67.4-4.2-76,30.1&#10;&#9;&#9;&#9;C608.1,536,644.8,551,672.1,563.7z" id="el_o0S82naPtrv"/>
	</g></g></g>
</g></g>
</svg>