<svg version="1.1" id="el_O1OxEUlg2" width='170px' height='170px' xmlns="http://www.w3.org/2000/svg" xmlns:xlink="http://www.w3.org/1999/xlink" x="0px" y="0px" viewBox="0 0 1176 1120" style="enable-background:new 0 0 1176 1120;" xml:space="preserve"><style>@-webkit-keyframes kf_el_3rO0YukI8rJ_an_Mtoj2x6iW{0%{opacity: 1;}5%{opacity: 0.8;}50%{opacity: 0.2;}93.33%{opacity: 0.8;}100%{opacity: 1;}}@keyframes kf_el_3rO0YukI8rJ_an_Mtoj2x6iW{0%{opacity: 1;}5%{opacity: 0.8;}50%{opacity: 0.2;}93.33%{opacity: 0.8;}100%{opacity: 1;}}@-webkit-keyframes kf_el_x91Uteovvy_an_XsHoxFbog{0%{-webkit-transform: translate(555.1164398193359px, 574.3901672363281px) rotate(0deg) translate(-555.1164398193359px, -574.3901672363281px);transform: translate(555.1164398193359px, 574.3901672363281px) rotate(0deg) translate(-555.1164398193359px, -574.3901672363281px);}50%{-webkit-transform: translate(555.1164398193359px, 574.3901672363281px) rotate(15deg) translate(-555.1164398193359px, -574.3901672363281px);transform: translate(555.1164398193359px, 574.3901672363281px) rotate(15deg) translate(-555.1164398193359px, -574.3901672363281px);}100%{-webkit-transform: translate(555.1164398193359px, 574.3901672363281px) rotate(0deg) translate(-555.1164398193359px, -574.3901672363281px);transform: translate(555.1164398193359px, 574.3901672363281px) rotate(0deg) translate(-555.1164398193359px, -574.3901672363281px);}}@keyframes kf_el_x91Uteovvy_an_XsHoxFbog{0%{-webkit-transform: translate(555.1164398193359px, 574.3901672363281px) rotate(0deg) translate(-555.1164398193359px, -574.3901672363281px);transform: translate(555.1164398193359px, 574.3901672363281px) rotate(0deg) translate(-555.1164398193359px, -574.3901672363281px);}50%{-webkit-transform: translate(555.1164398193359px, 574.3901672363281px) rotate(15deg) translate(-555.1164398193359px, -574.3901672363281px);transform: translate(555.1164398193359px, 574.3901672363281px) rotate(15deg) translate(-555.1164398193359px, -574.3901672363281px);}100%{-webkit-transform: translate(555.1164398193359px, 574.3901672363281px) rotate(0deg) translate(-555.1164398193359px, -574.3901672363281px);transform: translate(555.1164398193359px, 574.3901672363281px) rotate(0deg) translate(-555.1164398193359px, -574.3901672363281px);}}#el_O1OxEUlg2 *{-webkit-animation-duration: 2s;animation-duration: 2s;-webkit-animation-iteration-count: 1;animation-iteration-count: 1;-webkit-animation-play-state: running;animation-play-state: running;-webkit-animation-timing-function: cubic-bezier(0, 0, 1, 1);animation-timing-function: cubic-bezier(0, 0, 1, 1);}#el_o3ujhiuurF{opacity: 0.5;fill: #DAE6EA;}#el_QI7DGJCHLB{fill: #F3D16A;}#el_I1Tt78N0E_{fill: #5ABCEA;}#el_EvMibXNA3G{fill: #222221;}#el_per6NyG3Hl{fill: #222221;}#el_ft-BofEQJJ{fill: #222221;}#el_vaIN4KdgNq_{fill: #222221;}#el_6P73fdNi1gJ{fill: #222221;}#el_kGBVTh1_wSZ{fill: #222221;}#el_-LT-MO_pp3m{fill: #222221;}#el_6oICb9PtDoq{fill: #222221;}#el_-zpFjR2PBo1{fill: #222221;}#el_bH7joF7jJwe{fill: #222221;}#el_BiJr9VYn9ax{fill: #F3D16A;}#el_x91Uteovvy_an_XsHoxFbog{-webkit-animation-fill-mode: backwards;animation-fill-mode: backwards;-webkit-transform: translate(555.1164398193359px, 574.3901672363281px) rotate(0deg) translate(-555.1164398193359px, -574.3901672363281px);transform: translate(555.1164398193359px, 574.3901672363281px) rotate(0deg) translate(-555.1164398193359px, -574.3901672363281px);-webkit-animation-timing-function: cubic-bezier(0.42, 0, 0.58, 1);animation-timing-function: cubic-bezier(0.42, 0, 0.58, 1);}#el_O1OxEUlg2:hover #el_x91Uteovvy_an_XsHoxFbog{-webkit-animation-name: kf_el_x91Uteovvy_an_XsHoxFbog;animation-name: kf_el_x91Uteovvy_an_XsHoxFbog;}#el_3rO0YukI8rJ{-webkit-animation-fill-mode: backwards;animation-fill-mode: backwards;opacity: 1;-webkit-animation-timing-function: cubic-bezier(0, 0, 0.58, 1);animation-timing-function: cubic-bezier(0, 0, 0.58, 1);}#el_O1OxEUlg2:hover #el_3rO0YukI8rJ{-webkit-animation-name: kf_el_3rO0YukI8rJ_an_Mtoj2x6iW;animation-name: kf_el_3rO0YukI8rJ_an_Mtoj2x6iW;}</style>

<path d="M1112.1,311.3C1025.3,26.9,763.9-32.5,451.4,62.8S-44,465.8,42.8,750.2S369,1151.3,837,1070.8&#10;&#9;C1136.7,1019.3,1198.8,595.7,1112.1,311.3z" id="el_o3ujhiuurF"/>
<g id="el_x91Uteovvy_an_XsHoxFbog" data-animator-group="true" data-animator-type="1"><g id="el_x91Uteovvy">
	<g id="el_9gU0TbOVYp">
		<g id="el_TOzWZfgv36">
			<path d="M825.9,899.3c6.9-23.1-7.6-45.1-7.6-45.1l0,0C827.9,840.8,830,831,830,831l-22-56l-208.7,70.6l8.5,44.8&#10;&#9;&#9;&#9;&#9;c0,0,5.5,8.3,18.9,15.8l0,0l17,43.3c0,0,28.7,12.2,58.3,14.9l-7.3,1.9c5,3.3,9,7.9,13.9,11.3c15.2,10.3,35.4,7.3,53.1,2.5&#10;&#9;&#9;&#9;&#9;c10.3-2.8,20.7-6.1,29-12.8c8.2-6.8,13.8-17.7,11.3-28.1l-26.6,6.8C806.8,931,820.7,916.6,825.9,899.3z" id="el_QI7DGJCHLB"/>
		</g>
		<path d="M597,838.6c-33.9-7.9-8.3-67.4-77.2-115.4S346,663.7,307.8,554.7s-62.1-205.6,51.8-308.9&#10;&#9;&#9;&#9;C636-4.6,838.6,283.4,858.4,380.3s-81,210.5-77.1,266.7s29.5,110,29.5,110S768.5,878.2,597,838.6z" id="el_I1Tt78N0E_"/>
		<g id="el_7OcvO2L0xZ">
			<g id="el_BIh90P-93R">
				<path d="M580,848.6c-4-1-5.8-1.9-8.4-5c-0.8-0.9,0.1,0.3-0.9-1.3c-0.6-0.9-1-1.7-1.5-2.5c-1.3-2.4-1.3-2.7-2.2-5.2&#10;&#9;&#9;&#9;&#9;&#9;c-3.9-10.6-6.1-21.7-9.7-32.3c-11.4-32.6-33.6-56.9-62.7-75c-49-30.4-107-45.8-150.4-85.1c-11.5-10.5-21.7-22.4-30.1-35.5&#10;&#9;&#9;&#9;&#9;&#9;c-9.3-14.7-15.6-30.7-21.2-47c-10.8-31.6-21.1-64.1-25.5-97.4c-4.2-31.6-2.3-63.7,8.2-94c12.6-36.3,37-67.3,64.6-93.4&#10;&#9;&#9;&#9;&#9;&#9;c51.8-49.2,116.5-91.6,188.6-101.4c52-7.1,104,5,149.2,31.1c41.2,23.8,76.5,57.8,104.4,96.1c12.2,16.6,23.1,34.2,32.3,52.7&#10;&#9;&#9;&#9;&#9;&#9;c7,13.9,12.6,26.9,16.4,42.8c7.1,29.5,1.4,60.5-7.6,89c-10.3,32-25.5,62.1-40.1,92.3c-11.5,23.9-25.1,49.1-28.4,75.9&#10;&#9;&#9;&#9;&#9;&#9;c-2.1,16.9,1.9,35.1,5.4,51.6c3.9,17.6,9.2,35,15.6,51.9c2.8,7.4,5.8,14.7,9.1,21.8c-0.2-2-0.6-4-0.8-6.1&#10;&#9;&#9;&#9;&#9;&#9;c-0.1,0.2-0.1,0.7-0.3,0.8l-0.3,0.9c0,0-0.2,0.6-0.2,0.7c-0.1,0.2,1-2.2,0.4-1c-1.3,2.9-2.7,5.8-4.1,8.5&#10;&#9;&#9;&#9;&#9;&#9;c-2.2,4.1-4.6,8.1-7.3,12c-3.9,5.6-5.6,8-10.4,13.3c-23.1,26-54.8,41.5-89.6,46.8C641.7,858.9,610.1,855.4,580,848.6&#10;&#9;&#9;&#9;&#9;&#9;c-9.8-2.2-14.1,12.9-4.2,15.2c65.6,14.9,139.8,11.4,190.3-38.1c11.7-11.5,22-25.1,29.2-39.9c1.4-2.9,3.2-6,4-9.2&#10;&#9;&#9;&#9;&#9;&#9;c0.9-3.8-1.3-7.3-2.9-10.6c-2.3-5.3-5.2-12.7-7.5-19.1c-8.2-22.7-14.7-46.4-17.7-70.3c-2-16.4-0.4-28.8,5-44.3&#10;&#9;&#9;&#9;&#9;&#9;c12.6-36.3,32.8-69.7,47.8-105c16.2-37.7,30-79.2,24.7-120.8c-2.8-21.5-11-41.7-20.6-61c-24.7-49.6-61.3-94.7-104.8-128.8&#10;&#9;&#9;&#9;&#9;&#9;c-51.5-40.4-114.5-65-180.6-60.3c-39.6,2.9-77.7,15.3-112.8,33.6c-21.1,11.1-41.1,24.2-60,38.7c-21.7,16.6-42.5,34.6-60.8,55&#10;&#9;&#9;&#9;&#9;&#9;c-29.7,33.1-51.7,72.6-57.9,117.1c-5.5,40.3,1.3,80.8,12.3,119.5c11.6,41.1,24.6,83,52.8,116.1c24.3,28.6,57.1,47.9,90.4,64.3&#10;&#9;&#9;&#9;&#9;&#9;c31.9,15.6,66.2,28.8,94.6,50.5c16.5,12.5,29.7,28.8,37.6,47.9c5.5,13.3,7.9,27.6,12.9,40.9c4.3,11.4,11.3,20.8,23.7,23.8&#10;&#9;&#9;&#9;&#9;&#9;C585.7,866.2,589.9,851,580,848.6z" id="el_EvMibXNA3G"/>
			</g>
		</g>
		<g id="el_CXHOEjMO3b">
			<g id="el_0Heaqv6yqZ">
				<path d="M597.9,918.8c5.4,13.8,10.8,27.7,16.3,41.4c1.3,3.4,2.8,5.8,6.3,7.4c1.8,0.8,3.7,1.4,5.4,2.1&#10;&#9;&#9;&#9;&#9;&#9;c9.5,3.5,19.4,6.5,29.2,8.9c13.3,3.1,27.1,5.2,40.7,4.6c16-0.7,30.4-6.5,45.1-12.5c22.7-9.4,47.4-20.6,62.3-40.8&#10;&#9;&#9;&#9;&#9;&#9;c14.8-20,13.9-48.5,0.4-69.2c-5.5-8.4-19.1-0.6-13.6,8c8,12.3,10.8,28.4,5.8,42.3c-3.8,10.2-13.1,19.4-23,26&#10;&#9;&#9;&#9;&#9;&#9;c-17.8,12.1-38.5,20.4-58.9,27.3c-17.2,5.9-36.2,3.4-53.6-0.4c-8.5-1.9-16.9-4.3-25.2-7.2c-2.5-0.9-5-1.8-7.4-2.8&#10;&#9;&#9;&#9;&#9;&#9;c-0.9-0.3-5.6-2.3-1.5-0.6c1.2,1.5,2.4,3.1,3.7,4.6c-5.6-14.4-11.3-28.9-17-43.3C609.3,905.3,594.1,909.4,597.9,918.8&#10;&#9;&#9;&#9;&#9;&#9;L597.9,918.8z" id="el_per6NyG3Hl"/>
			</g>
		</g>
		<g id="el_OAJBlDARrh">
			<g id="el_KvkKxPbLQo">
				<path d="M670.3,822.9c-16.7-53.9-36.6-106.7-60.1-158c-5.9-12.9-12-25.7-18.3-38.5c-6.3-12.9-11.7-27.6-20.9-38.7&#10;&#9;&#9;&#9;&#9;&#9;c-9.1-11.1-22.5-13.5-35.4-17.4c-11.2-3.3-21.6-8.6-31.1-15.5c-20.8-14.9-36.2-38.3-36.4-64.4c-0.1-10.1-15.8-10.2-15.7,0&#10;&#9;&#9;&#9;&#9;&#9;c0.2,24.3,11.2,46.9,28,64.2c8.5,8.6,18.5,16,29.1,21.7c11.4,6,23.2,9,35.4,12.7c6.2,2,11.5,4.8,15.4,10.2&#10;&#9;&#9;&#9;&#9;&#9;c4.1,5.6,7,12.4,10.1,18.6c6.8,13.6,13.4,27.3,19.9,41.1c11.5,24.6,22.5,49.5,32.4,74.7c12.1,30.7,22.8,61.9,32.5,93.3&#10;&#9;&#9;&#9;&#9;&#9;C658.2,836.7,673.3,832.6,670.3,822.9L670.3,822.9z" id="el_ft-BofEQJJ"/>
			</g>
		</g>
		<g id="el_kwaerHRaTal">
			<g id="el_OJxLIcVbBqw">
				<path d="M327.1,450.2c-11.5-27.2-6.3-60.9,12.6-83.4c6.4-7.7-4.6-18.9-11.1-11.1c-23.9,28.6-29.7,68.3-15,102.5&#10;&#9;&#9;&#9;&#9;&#9;c1.7,4,7.4,4.8,10.7,2.8C328.4,458.6,328.7,454.1,327.1,450.2L327.1,450.2z" id="el_vaIN4KdgNq_"/>
			</g>
		</g>
		<g id="el_Mk7_N6VE2ea">
			<g id="el_mcjDgrmPtw4">
				<path d="M350.4,429.5c-1.4-12.4,2.8-23.8,12.2-32c7.6-6.6-3.5-17.7-11.1-11.1c-12.2,10.5-18.7,27-16.8,43&#10;&#9;&#9;&#9;&#9;&#9;c0.6,4.2,3.2,7.9,7.9,7.9C346.4,437.4,350.9,433.7,350.4,429.5L350.4,429.5z" id="el_6P73fdNi1gJ"/>
			</g>
		</g>
		<g id="el_9VB0ejXZnzw">
			<g id="el_R5zefQR5Qxr">
				<path d="M570.4,858.2c2.2,11.6,4.4,23.2,6.6,34.7c1.3,6.8,1.8,11.4,6.3,16.5c17.2,19.3,45,26.3,69.8,26.8&#10;&#9;&#9;&#9;&#9;&#9;c24.6,0.3,49.4-5.3,72.4-13.6c19.9-7.2,38.8-16.8,55.4-30.1c14.8-11.8,30.3-28.9,35.2-47.9c0.7-2.7,0.3-5-0.7-7.5&#10;&#9;&#9;&#9;&#9;&#9;c-2.4-6.2-4.9-12.4-7.3-18.6c-4.6-11.7-9.2-23.3-13.8-35.1c-3.7-9.3-18.8-5.2-15.2,4.2c7.3,18.7,14.6,37.3,22,56&#10;&#9;&#9;&#9;&#9;&#9;c0-1.4,0-2.8,0-4.2c-0.1,0.7-0.3,1.3-0.6,1.9c-0.2,0.7-0.4,1.3-0.7,2c-0.3,1-1.4,3.5-0.6,1.7c-1.2,2.8-2.5,5.4-4.1,8.1&#10;&#9;&#9;&#9;&#9;&#9;c-0.9,1.4-1.8,2.9-2.8,4.3c-0.6,0.9-1.1,1.7-1.7,2.4c-0.2,0.3-1.9,2.5-1.4,2c-16.2,21-40.3,35.2-64.7,44.4&#10;&#9;&#9;&#9;&#9;&#9;c-30.5,11.5-66.2,19.7-98.5,10.6c-8.9-2.4-16.2-6-23.9-11.3c-0.4-0.3-2-1.4-0.7-0.4c-0.6-0.4-1.2-1-1.8-1.4&#10;&#9;&#9;&#9;&#9;&#9;c-1.1-0.9-2.1-1.9-3.2-2.9c-1.3-1.3-2.4-2.8-3.8-4.1c-0.1-0.1,1.2,1.9,0.4,0.6c0.9,1.7,0.7,2.2,0.4,0.2&#10;&#9;&#9;&#9;&#9;&#9;c-0.6-4.9-1.9-9.6-2.8-14.4c-1.8-9.6-3.7-19.3-5.4-28.9C583.7,844.2,568.5,848.4,570.4,858.2L570.4,858.2z" id="el_kGBVTh1_wSZ"/>
			</g>
		</g>
		<g id="el_JyR_UrGsL1l">
			<g id="el_-OMy1wQCY_i">
				<path d="M707.4,812.1c-13.7-51.3-24.7-103.4-37-155.1c-3.1-13.2-6.3-26.3-9.6-39.5c-3.4-13.6-8.7-27.8-9.8-41.8&#10;&#9;&#9;&#9;&#9;&#9;c-1.1-14.5,6.6-24.5,13.4-36.4c6.2-11,9.6-23,10.3-35.6c1.4-30.3-12.3-59.6-25.5-86.1c-4.5-9.1-18-1.1-13.6,8&#10;&#9;&#9;&#9;&#9;&#9;c11.5,23,23.5,48.2,23.3,74.5c0,13.4-4.2,24.9-11.1,36.2c-6.8,11.2-12.7,22-12.8,35.5c-0.1,14.3,4.9,28.3,8.4,41.9&#10;&#9;&#9;&#9;&#9;&#9;c3.4,13.4,6.8,26.8,10,40.2c5.9,24.7,11.4,49.4,17,74.1c6.8,29.7,13.8,59.1,21.7,88.5C694.9,826,710,821.8,707.4,812.1&#10;&#9;&#9;&#9;&#9;&#9;L707.4,812.1z" id="el_-LT-MO_pp3m"/>
			</g>
		</g>
		<g id="el_XBHs_Z8CNxP">
			<g id="el_9cjZn7ifwMb">
				<path d="M788.5,468.2c17-35.5,14.5-78.9-7.9-111.7c-5.6-8.3-19.3-0.4-13.6,8c19,27.9,22.6,65.2,7.9,95.8&#10;&#9;&#9;&#9;&#9;&#9;C770.6,469.3,784.1,477.3,788.5,468.2L788.5,468.2z" id="el_6oICb9PtDoq"/>
			</g>
		</g>
		<g id="el_6XC2T9sCfCb">
			<g id="el_fWoMzTlRxuO">
				<path d="M669.5,983.6c5.4,3.8,9.8,8.7,15.4,12.2c5.2,3.2,11.2,5.2,17.3,6.2c12.9,2,26.1-0.1,38.7-3.3&#10;&#9;&#9;&#9;&#9;&#9;c12.6-3.2,25.6-7.4,35.4-16.4c9.7-8.9,14.6-21.7,12.1-34.6c-2-10-17-5.8-15.2,4.2c1.8,9.2-4.9,17.8-12.3,22.5&#10;&#9;&#9;&#9;&#9;&#9;c-8.9,5.5-19.4,8.2-29.4,10.5c-9.2,2.1-19.1,3.5-28.6,1.4c-10.6-2.3-16.9-10.2-25.6-16.2C669,964.2,661.2,977.8,669.5,983.6&#10;&#9;&#9;&#9;&#9;&#9;L669.5,983.6z" id="el_-zpFjR2PBo1"/>
			</g>
		</g>
		<g id="el_iFzrl-vWapD">
			<g id="el_pDBgODORLFi">
				<path d="M593.1,837.7c5.5-12.1,15.9-19.9,27.1-26.6c12.4-7.4,25.6-13.5,39.3-18.1c27.8-9.4,57.1-12.9,86.3-10.6&#10;&#9;&#9;&#9;&#9;&#9;c10.1,0.8,10.1-14.9,0-15.7c-31.8-2.5-64.2,1.7-94.2,12.5c-14.7,5.3-29,12-42.3,20.3c-12.2,7.6-23.7,17.2-29.9,30.4&#10;&#9;&#9;&#9;&#9;&#9;C575.4,839,588.9,846.9,593.1,837.7L593.1,837.7z" id="el_bH7joF7jJwe"/>
			</g>
		</g>
	</g>
	<g id="el_3rO0YukI8rJ">
		<g id="el_66WB4cPvkn7">
			<path d="M513.7,562.6c8-10.8,10.8-26.8,13.3-39.8c-3.2,1.9-6.4,3.7-9.6,5.5c16.6,6.5,33.3,13.2,49.9,19.7&#10;&#9;&#9;&#9;&#9;c5.3,2.1,9.4-3.1,10-7.5c2.1-16.2,4.2-32.2,6.3-48.4c-4,2.2-7.9,4.5-11.8,6.8c11.6,9,23.2,17.8,34.9,26.8&#10;&#9;&#9;&#9;&#9;c4.2,3.2,10.3-0.3,11.5-4.6c5.1-17.2,10.2-34.3,15.3-51.5c-4.4,1.1-8.7,2.3-13.2,3.4c10.6,9.1,21.6,19.8,33.9,26.4&#10;&#9;&#9;&#9;&#9;c9,4.8,16.8-8.9,8-13.6c-11.2-6-21.1-15.7-30.8-23.9c-4.4-3.9-11.4-2.5-13.2,3.4c-5.1,17.2-10.2,34.3-15.3,51.5&#10;&#9;&#9;&#9;&#9;c3.9-1.5,7.7-3.1,11.5-4.6c-11.6-9-23.2-17.8-34.9-26.8c-5.3-4.1-11.2,1.8-11.8,6.8c-2.1,16.2-4.2,32.2-6.3,48.4&#10;&#9;&#9;&#9;&#9;c3.3-2.5,6.6-5.1,10-7.5c-16.6-6.5-33.3-13.2-49.9-19.7c-3.8-1.4-9,1.7-9.6,5.5c-2.2,11.8-4.5,26.2-11.7,36.1&#10;&#9;&#9;&#9;&#9;C494.1,562.9,507.7,570.7,513.7,562.6L513.7,562.6z" id="el_BiJr9VYn9ax"/>
		</g>
	</g>
</g></g>
</svg>