<?xml version="1.0" encoding="utf-8"?>
<!-- Generator: Adobe Illustrator 22.1.0, SVG Export Plug-In . SVG Version: 6.00 Build 0)  -->
<svg version="1.1" id="Capa_3" xmlns="http://www.w3.org/2000/svg" xmlns:xlink="http://www.w3.org/1999/xlink" x="0px" y="0px"
	 viewBox="0 0 800 800" style="enable-background:new 0 0 800 800;" xml:space="preserve">
<style type="text/css">
	.st0{fill:#5ABBE9;}
	.st1{fill:#F3D16A;}
	.st2{fill:#222221;}
</style>
<polygon class="st0" points="105.2,55.3 5.8,448.4 187.4,769.7 769.8,728 758.1,672.1 577.9,400.4 733.7,72.3 691,17.9 "/>
<g>
	<polygon class="st1" points="368.8,644.4 410.3,702.9 568.7,677.8 513.5,611.6 	"/>
</g>
<g>
	<polygon class="st1" points="177.4,112.9 74.1,423.5 577.9,365.4 712.8,89.2 	"/>
</g>
<g>
	<g>
		<path class="st2" d="M127.8,69.2c-4,12.6-8,25.2-12,37.7c-9.6,30.2-19.3,60.4-28.9,90.5C75.3,233.7,63.7,270,52.2,306.3
			c-10,31.4-20.1,62.9-30.1,94.3c-4.8,15-10.6,30-14.5,45.3c-1.1,4.5,1.4,7.3,3.6,10.8c4.3,6.8,8.7,13.6,13,20.4
			c16.1,25.2,32.2,50.3,48.2,75.5c20.5,32.1,41,64.2,61.6,96.3c18.5,28.9,36.9,57.8,55.4,86.7c10.2,15.9,20.3,31.8,30.5,47.7
			c0.5,0.7,1,1.5,1.4,2.2c1.9,3,4.7,3.7,8,3.3c18.5-2.6,37.1-5.2,55.6-7.7c44.2-6.1,88.3-12.3,132.5-18.4
			c53.4-7.4,106.8-14.8,160.1-22.2c46.3-6.4,92.6-12.9,138.9-19.3c15.3-2.1,30.6-4.2,45.8-6.4c7.1-1,14.5-1.5,21.6-3
			c0.3-0.1,0.6-0.1,0.9-0.1c3-0.4,5.2-4,5.2-6.9c0-6.2,0-12.5,0-18.7c0-6,0.9-12.7-0.1-18.6c-0.7-4.1-4.5-8.1-6.8-11.4
			c-13.5-20.1-27-40.1-40.5-60.2c-19.9-29.6-39.8-59.2-59.8-88.8c-18.5-27.5-37-55-55.5-82.6c-6.3-9.4-12.6-18.7-18.9-28.1
			c-2.9-4.3-5.6-9.5-9-13.4c-0.2-0.2-0.3-0.4-0.4-0.6c0,2.4,0,4.8,0,7.2c5.4-11,10.8-21.9,16.2-32.9c12.9-26.3,25.9-52.7,38.8-79
			c15.7-31.9,31.3-63.7,47-95.6c13.5-27.4,27-54.9,40.4-82.3c6.6-13.4,13.5-26.8,19.8-40.3c0.1-0.2,0.2-0.4,0.3-0.6
			c1.4-2.9,1.2-6.2-1.1-8.6c-7.8-8.1-15.4-16.4-23.4-24.4c-2.9-2.9-5.4-3.3-9-3.1c-10.4,0.7-20.7,1.4-31.1,2.2
			c-45.3,3.1-90.6,6.3-135.9,9.4C500.5,38.6,440,42.8,379.6,47c-54.3,3.8-108.7,7.5-163,11.3c-26.9,1.9-53.9,3.3-80.9,5.6
			c-0.4,0-0.8,0.1-1.2,0.1c-9.1,0.6-9.2,14.9,0,14.2c19.7-1.4,39.5-2.7,59.2-4.1c47.4-3.3,94.8-6.6,142.2-9.8
			c57.5-4,115.1-8,172.6-12c49.6-3.4,99.2-6.9,148.8-10.3c16.3-1.1,32.7-2.3,49-3.4c7.6-0.5,15.8-0.2,23.3-1.6c0.3-0.1,0.7,0,1-0.1
			c-1.7-0.7-3.4-1.4-5-2.1c8.2,8.5,16.4,17,24.6,25.6c-0.4-2.9-0.7-5.8-1.1-8.6c-5.4,11-10.8,21.9-16.2,32.9
			c-12.9,26.3-25.9,52.7-38.8,79c-15.7,31.9-31.3,63.7-47,95.6c-13.5,27.4-27,54.9-40.4,82.3c-6.6,13.4-13.5,26.8-19.8,40.3
			c-0.1,0.2-0.2,0.4-0.3,0.6c-1.1,2.2-1.5,5,0,7.2c7.6,11.3,15.2,22.6,22.8,33.9c17.6,26.2,35.2,52.3,52.8,78.5
			c20.1,29.9,40.2,59.7,60.3,89.6c14.8,22,29.6,44,44.4,66c2.9,4.2,5.6,10.1,9.2,13.7c0.2,0.2,0.3,0.6,0.5,0.7
			c-1.2-0.7-0.7-5.4-1-2.2c-0.1,1.3,0,2.7,0,4.1c0,8.3,0,16.7,0,25c0,2,0,3.9,0,5.9c1.7-2.3,3.5-4.6,5.2-6.9
			c-18.5,2.6-37.1,5.2-55.6,7.7c-44.2,6.1-88.3,12.3-132.5,18.4c-53.4,7.4-106.8,14.8-160.1,22.2c-46.3,6.4-92.6,12.9-138.9,19.3
			c-15.3,2.1-30.6,4.2-45.8,6.4c-7.1,1-14.6,1.4-21.6,3c-0.3,0.1-0.6,0.1-0.9,0.1c2.7,1.1,5.4,2.2,8,3.3
			c-7.1-11.1-14.1-22.1-21.2-33.2c-17-26.6-34-53.2-50.9-79.7c-20.5-32.1-41.1-64.3-61.6-96.4c-17.7-27.7-35.4-55.4-53.1-83
			c-5.9-9.2-11.7-18.4-17.6-27.5c-2.7-4.2-5.1-9.3-8.4-13.1c-0.1-0.2-0.3-0.4-0.4-0.6c0.2,1.8,0.5,3.7,0.7,5.5
			c4-12.5,8-25,11.9-37.4c9.6-30,19.1-60,28.7-89.9c11.6-36.4,23.2-72.9,34.9-109.3c10-31.4,20-62.8,30-94.1
			c4.8-15.2,10.6-30.4,14.6-45.8c0.1-0.2,0.1-0.4,0.2-0.7C144.3,64.2,130.5,60.5,127.8,69.2z"/>
	</g>
</g>
<g>
	<g>
		<path class="st2" d="M14.3,455.6c9.2,0,18.5,0,27.7,0c3.3,0,5.9-2.2,6.9-5.2c4-11.9,8.1-23.8,12.1-35.7
			c9.7-28.6,19.3-57.1,29-85.7c11.7-34.6,23.4-69.1,35.1-103.7c10.1-29.9,20.3-59.8,30.4-89.7c4.9-14.5,10.8-29,14.8-43.8
			c0.1-0.2,0.1-0.4,0.2-0.6c2.9-8.7-10.8-12.4-13.7-3.8c-4,11.9-8.1,23.8-12.1,35.7c-9.7,28.6-19.3,57.1-29,85.7
			c-11.7,34.6-23.4,69.1-35.1,103.7c-10.1,29.9-20.3,59.8-30.4,89.7c-3.3,9.9-6.7,19.7-10,29.6c-1.5,4.6-3.8,9.4-4.8,14.1
			c0,0.2-0.1,0.4-0.2,0.6c2.3-1.7,4.6-3.5,6.9-5.2c-9.2,0-18.5,0-27.7,0C5.1,441.3,5.1,455.6,14.3,455.6L14.3,455.6z"/>
	</g>
</g>
<g>
	<g>
		<path class="st2" d="M755.4,48.2c-21.8,1.2-43.6,2.5-65.4,3.7c-51.5,2.9-102.9,5.9-154.4,8.8c-59.9,3.4-119.8,6.9-179.7,10.3
			c-48.2,2.8-96.4,5.5-144.6,8.3c-13,0.7-26.1,1.5-39.1,2.2c-2.5,0.1-5.4-0.1-7.8,0.4c-2.4,0.5,4.7,2.5,1.7,0.2
			c-5-3.8-10.9-6.8-16.2-10.1c-3.9-2.4-7.7-4.8-11.6-7.3c-7.8-4.9-14.9,7.4-7.2,12.3c9.3,5.8,18.5,12.1,28.1,17.6
			c2.9,1.6,4.8,1.5,7.7,1.4c10.5-0.6,21-1.2,31.5-1.8c45.1-2.6,90.1-5.2,135.2-7.7c59.8-3.4,119.7-6.9,179.5-10.3
			c53.7-3.1,107.4-6.1,161.1-9.2c26.6-1.5,53.4-2.6,80-4.6c0.4,0,0.8,0,1.2-0.1C764.5,61.9,764.5,47.7,755.4,48.2L755.4,48.2z"/>
	</g>
</g>
<g>
	<g>
		<path class="st2" d="M234.3,784c1.5-6.5,2.9-13.1,4.4-19.6c1.2-5.4,5.2-14.9,2.6-20.3c-1.8-3.6-4.5-6.9-6.6-10.3
			c-13.9-21.5-27.7-43-41.6-64.5c-20.2-31.2-40.3-62.5-60.5-93.7c-18.6-28.9-37.3-57.8-55.9-86.7c-6.3-9.8-12.6-19.5-18.9-29.3
			c-3-4.6-5.6-9.9-9.1-14.2c-0.2-0.2-0.3-0.4-0.4-0.6c-2,3.6-4.1,7.1-6.1,10.7c18.4-2.1,36.8-4.2,55.1-6.2
			c43.8-5,87.6-9.9,131.3-14.9c52.9-6,105.8-12,158.8-18c46-5.2,92-10.4,138.1-15.6c22.2-2.5,44.4-4.9,66.6-7.5
			c0.3,0,0.6-0.1,0.9-0.1c3.9-0.4,7.1-3,7.1-7.1c0-3.5-3.3-7.6-7.1-7.1c-18.4,2.1-36.8,4.2-55.1,6.2c-43.8,5-87.6,9.9-131.3,14.9
			c-52.9,6-105.8,12-158.8,18c-46,5.2-92,10.4-138.1,15.6c-22.2,2.5-44.4,4.9-66.6,7.5c-0.3,0-0.6,0.1-0.9,0.1
			c-5,0.6-9.4,5.7-6.1,10.7c6.4,9.9,12.8,19.9,19.2,29.8c15.4,23.8,30.8,47.7,46.2,71.5c18.5,28.7,37.1,57.4,55.6,86.1
			c16.1,25,32.2,49.9,48.3,74.9c5.3,8.3,10.7,16.5,16,24.8c2.4,3.7,4.6,8.3,7.5,11.7c0.1,0.2,0.2,0.4,0.3,0.5
			c-0.2-1.8-0.5-3.7-0.7-5.5c-2.6,11.5-5.1,22.9-7.7,34.4C218.6,789.1,232.3,792.9,234.3,784L234.3,784z"/>
	</g>
</g>
<g>
	<g>
		<path class="st2" d="M237,754.5c18.2-2.6,36.4-5.3,54.6-7.9c43.7-6.3,87.4-12.6,131.2-18.9c52.7-7.6,105.4-15.2,158.1-22.8
			c45.5-6.6,91-13.1,136.6-19.7c15-2.2,30-4.3,45-6.5c7-1,14.5-1.4,21.4-3.1c0.3-0.1,0.6-0.1,0.9-0.1c-3-2.3-6-4.6-9-6.9
			c0,12.1,0,24.2,0,36.4c0,9.2,14.2,9.2,14.2,0c0-12.1,0-24.2,0-36.4c0-5.1-4.5-7.5-9-6.9c-18.2,2.6-36.4,5.3-54.6,7.9
			c-43.7,6.3-87.4,12.6-131.2,18.9c-52.7,7.6-105.4,15.2-158.1,22.8c-45.5,6.6-91,13.1-136.6,19.7c-15,2.2-30,4.3-45,6.5
			c-7.1,1-14.4,1.6-21.4,3.1c-0.3,0.1-0.6,0.1-0.9,0.1c-3.8,0.6-5.9,5.4-5,8.8C229.4,753.7,233.3,755.1,237,754.5L237,754.5z"/>
	</g>
</g>
<g>
	<g>
		<path class="st2" d="M91,482.6c16.4-1.9,32.7-3.9,49.1-5.8c39.3-4.7,78.6-9.3,117.9-14c47.4-5.6,94.7-11.2,142.1-16.8
			c41.2-4.9,82.4-9.8,123.7-14.6c13.5-1.6,27-3.2,40.4-4.8c6.2-0.7,13.2-0.7,19.2-2.3c0.3-0.1,0.6-0.1,0.8-0.1
			c-2-1.2-4.1-2.4-6.1-3.5c11.2,17.5,22.4,34.9,33.6,52.4c17.9,27.9,35.8,55.7,53.7,83.6c4.1,6.4,8.2,12.8,12.4,19.3
			c1.4-3.5,2.8-7,4.3-10.5c-15.4,2.2-30.7,4.5-46.1,6.7c-36.7,5.3-73.4,10.7-110.1,16c-44.4,6.4-88.8,12.9-133.2,19.3
			c-38.4,5.6-76.7,11.1-115.1,16.7c-12.7,1.8-25.4,3.7-38.1,5.5c-5.9,0.9-12.1,1.2-18,2.6c-0.3,0.1-0.5,0.1-0.8,0.1
			c2.3,0.6,4.6,1.2,6.9,1.8c-14.9-18.5-29.7-37-44.6-55.5c-23.6-29.3-47.1-58.7-70.7-88c-5.4-6.8-10.9-13.5-16.3-20.3
			c-2.4-3-7.5-2.5-10.1,0c-3,2.9-2.4,7.1,0,10.1c30.5,37.9,60.9,75.8,91.4,113.7c13,16.2,25.5,32.9,39.1,48.6
			c2.8,3.2,6.4,3.4,10.3,2.9c4.7-0.7,9.3-1.4,14-2c48.1-7,96.1-13.9,144.2-20.9c63.4-9.2,126.8-18.4,190.2-27.6
			c24.1-3.5,48.2-7,72.3-10.5c12.2-1.8,24.6-3.1,36.7-5.3c0.5-0.1,1.1-0.2,1.6-0.2c4.5-0.7,6.5-6.9,4.3-10.5
			c-11.2-17.5-22.4-34.9-33.6-52.4c-17.9-27.9-35.8-55.7-53.7-83.6c-4.1-6.4-8.2-12.8-12.4-19.3c-1.2-1.9-3.7-3.8-6.1-3.5
			c-16.4,1.9-32.7,3.9-49.1,5.8c-39.3,4.7-78.6,9.3-117.9,14c-47.4,5.6-94.7,11.2-142.1,16.8c-41.2,4.9-82.4,9.8-123.7,14.6
			c-19.9,2.4-39.8,4.6-59.6,7.1c-0.3,0-0.6,0.1-0.8,0.1c-3.8,0.5-7.1,2.9-7.1,7.1C83.8,479,87.2,483,91,482.6z"/>
	</g>
</g>
<g>
	<g>
		<path class="st2" d="M389.3,646.1c44.4-7.1,88.9-14.1,133.3-21.2c6.3-1,12.6-2,18.8-3c-2.7-1.1-5.4-2.2-8-3.3
			c13,17.9,25.9,35.7,38.9,53.6c1.4-3.5,2.8-7,4.3-10.5c-44,8.9-88.1,17.8-132.1,26.6c-6.3,1.3-12.5,2.5-18.8,3.8
			c2.7,1.1,5.4,2.2,8,3.3c-13.4-19.9-26.8-39.9-40.1-59.8c-5.1-7.6-17.4-0.4-12.3,7.2c13.4,19.9,26.8,39.9,40.1,59.8
			c1.9,2.8,4.8,3.9,8,3.3c44-8.9,88.1-17.8,132.1-26.6c6.3-1.3,12.5-2.5,18.8-3.8c4.2-0.9,6.9-6.9,4.3-10.5
			c-13-17.9-25.9-35.7-38.9-53.6c-2.1-2.8-4.6-3.8-8-3.3c-44.4,7.1-88.9,14.1-133.3,21.2c-6.3,1-12.6,2-18.8,3
			c-3.8,0.6-5.9,5.3-5,8.8C381.6,645.2,385.5,646.7,389.3,646.1z"/>
	</g>
</g>
<g>
	<g>
		<path class="st2" d="M96,400.9c0.8,0.9,2.8,5,1.8,6.4c0.1-0.1,0.1-0.4,0.1-0.5c0.3-0.6,0.4-1.4,0.6-2.1c0.6-2.1,1.4-4.3,2.1-6.4
			c2.5-7.4,5.2-14.8,7.9-22.2c8.4-23.1,17-46.2,25.6-69.2c19.1-51.2,38.5-102.3,57.9-153.4c4.4-11.6,8.8-23.3,13.3-34.9
			c-2.3,1.7-4.6,3.5-6.9,5.2c16.7-1.1,33.4-2.3,50.1-3.4c40.1-2.7,80.3-5.4,120.4-8.2c48.6-3.3,97.1-6.6,145.7-9.9
			c42-2.8,83.9-5.7,125.9-8.5c13.8-0.9,27.6-1.9,41.5-2.8c6.4-0.4,13.3-0.2,19.6-1.3c0.3,0,0.6,0,0.8-0.1c-2-3.6-4.1-7.1-6.1-10.7
			c-15.8,30.7-31.6,61.3-47.5,92c-25,48.4-50,96.9-75,145.3c-5.7,11.1-11.4,22.1-17.1,33.2c2-1.2,4.1-2.4,6.1-3.5
			c-15.6,1.7-31.2,3.5-46.8,5.2c-37.6,4.2-75.3,8.4-112.9,12.7c-45.4,5.1-90.8,10.2-136.2,15.3c-39.4,4.4-78.7,8.8-118.1,13.2
			c-19,2.1-38.1,4.1-57.1,6.4c-0.3,0-0.5,0.1-0.8,0.1c-3.9,0.4-7.1,3-7.1,7.1c0,3.5,3.3,7.5,7.1,7.1c10.9-1.2,21.7-2.4,32.6-3.7
			c27.4-3.1,54.8-6.1,82.2-9.2c36.3-4.1,72.5-8.1,108.8-12.2c37-4.1,73.9-8.3,110.9-12.4c30-3.4,60-6.7,90-10.1
			c15.2-1.7,30.4-3.4,45.7-5.1c2.4-0.3,4.9-0.4,6.8-2.3c1.2-1.2,1.9-2.9,2.6-4.4c3.7-7.2,7.5-14.4,11.2-21.7
			c14.7-28.5,29.4-57,44.1-85.5c16.8-32.6,33.7-65.3,50.5-97.9c10.2-19.9,20.5-39.7,30.7-59.6c0.5-1,1-1.9,1.5-2.9
			c2.3-4.5-0.4-11.1-6.1-10.7c-16.7,1.1-33.4,2.3-50.1,3.4c-40.1,2.7-80.3,5.4-120.4,8.2c-48.6,3.3-97.1,6.6-145.7,9.9
			c-42,2.8-83.9,5.7-125.9,8.5c-20.4,1.4-40.8,2.4-61.1,4.1c-0.3,0-0.6,0-0.8,0.1c-3.4,0.2-5.7,2.1-6.9,5.2
			c-12.6,32.9-25,65.9-37.5,98.8c-19.7,52-39.4,104-58.3,156.3c-3.1,8.4-6.1,16.9-9,25.4c-1.7,4.9-4.8,11.2-0.7,15.7
			C92.1,417.8,102.1,407.7,96,400.9z"/>
	</g>
</g>
<g>
	<g>
		<path class="st2" d="M123.2,519.4c15.9-1.8,31.8-3.6,47.7-5.4c38-4.3,75.9-8.6,113.9-12.8c45.9-5.2,91.8-10.3,137.8-15.5
			c39.8-4.5,79.7-9,119.5-13.5c19.3-2.2,38.6-4.2,57.9-6.5c0.3,0,0.6-0.1,0.8-0.1c3.9-0.4,7.1-3,7.1-7.1c0-3.5-3.3-7.5-7.1-7.1
			c-15.9,1.8-31.8,3.6-47.7,5.4c-38,4.3-75.9,8.6-113.9,12.8c-45.9,5.2-91.8,10.3-137.8,15.5c-39.8,4.5-79.7,9-119.5,13.5
			c-19.3,2.2-38.6,4.2-57.9,6.5c-0.3,0-0.6,0.1-0.8,0.1c-3.9,0.4-7.1,3-7.1,7.1C116.1,515.8,119.4,519.8,123.2,519.4L123.2,519.4z"
			/>
	</g>
</g>
<g>
	<g>
		<path class="st2" d="M167.1,579.8c15.7-2.1,31.5-4.1,47.2-6.2c37.6-4.9,75.2-9.8,112.8-14.7c45.5-5.9,90.9-11.9,136.4-17.8
			c39.5-5.2,78.9-10.3,118.4-15.5c19.2-2.5,38.3-5,57.5-7.5c0.3,0,0.5-0.1,0.8-0.1c3.8-0.5,7.1-2.9,7.1-7.1c0-3.5-3.3-7.6-7.1-7.1
			c-15.7,2.1-31.5,4.1-47.2,6.2c-37.6,4.9-75.2,9.8-112.8,14.7c-45.5,5.9-90.9,11.9-136.4,17.8c-39.5,5.2-78.9,10.3-118.4,15.5
			c-19.2,2.5-38.3,5-57.5,7.5c-0.3,0-0.5,0.1-0.8,0.1c-3.8,0.5-7.1,2.9-7.1,7.1C159.9,576.2,163.3,580.3,167.1,579.8L167.1,579.8z"
			/>
	</g>
</g>
<g>
	<g>
		<path class="st2" d="M145.7,481c13,17.5,26,35,39,52.5c20.7,27.9,41.5,55.8,62.2,83.6c4.8,6.4,9.5,12.8,14.3,19.2
			c2.3,3.1,6.1,4.6,9.7,2.6c3.1-1.7,4.8-6.7,2.6-9.7c-13-17.5-26-35-39-52.5c-20.7-27.9-41.5-55.8-62.2-83.6
			c-4.8-6.4-9.5-12.8-14.3-19.2c-2.3-3.1-6.1-4.6-9.7-2.6C145.2,473,143.4,477.9,145.7,481L145.7,481z"/>
	</g>
</g>
<g>
	<g>
		<path class="st2" d="M203.5,468.4c12.9,17.9,25.8,35.9,38.7,53.8c20.6,28.6,41.2,57.2,61.8,85.8c4.8,6.6,9.5,13.2,14.3,19.8
			c5.3,7.4,17.7,0.3,12.3-7.2c-12.9-17.9-25.8-35.9-38.7-53.8c-20.6-28.6-41.2-57.2-61.8-85.8c-4.8-6.6-9.5-13.2-14.3-19.8
			C210.5,453.9,198.1,461,203.5,468.4L203.5,468.4z"/>
	</g>
</g>
<g>
	<g>
		<path class="st2" d="M270,463.2c11.3,17.1,22.5,34.2,33.8,51.4c17.9,27.3,35.9,54.6,53.8,81.9c4.1,6.3,8.2,12.5,12.4,18.8
			c5,7.6,17.3,0.5,12.3-7.2c-11.3-17.1-22.5-34.2-33.8-51.4c-17.9-27.3-35.9-54.6-53.8-81.9c-4.1-6.3-8.2-12.5-12.4-18.8
			C277.3,448.4,265,455.5,270,463.2L270,463.2z"/>
	</g>
</g>
<g>
	<g>
		<path class="st2" d="M334.4,449.5c12.1,18,24.2,36.1,36.3,54.1c19.3,28.8,38.6,57.6,58,86.4c4.5,6.7,8.9,13.3,13.4,20
			c5.1,7.6,17.4,0.5,12.3-7.2c-12.1-18-24.2-36.1-36.3-54.1c-19.3-28.8-38.6-57.6-58-86.4c-4.5-6.7-8.9-13.3-13.4-20
			C341.7,434.8,329.3,441.9,334.4,449.5L334.4,449.5z"/>
	</g>
</g>
<g>
	<g>
		<path class="st2" d="M404.2,449.5c17.9,25.4,35.8,50.8,53.8,76.2c2.6,3.7,5.2,7.3,7.7,11c5.2,7.4,17.6,0.3,12.3-7.2
			c-17.9-25.4-35.8-50.8-53.8-76.2c-2.6-3.7-5.2-7.3-7.7-11C411.2,434.9,398.9,442,404.2,449.5L404.2,449.5z"/>
	</g>
</g>
<g>
	<g>
		<path class="st2" d="M476.8,432.7c15.3,27.9,30.6,55.8,46,83.8c2.2,3.9,4.3,7.9,6.5,11.8c4.4,8,16.7,0.9,12.3-7.2
			c-15.3-27.9-30.6-55.8-46-83.8c-2.2-3.9-4.3-7.9-6.5-11.8C484.7,417.4,472.4,424.6,476.8,432.7L476.8,432.7z"/>
	</g>
</g>
<g>
	<g>
		<path class="st2" d="M524.1,427.1c10.7,17.7,21.4,35.3,32.1,53c17.1,28.2,34.2,56.4,51.2,84.6c4,6.6,7.9,13.1,11.9,19.7
			c4.7,7.8,17.1,0.7,12.3-7.2c-10.7-17.7-21.4-35.3-32.1-53c-17.1-28.2-34.2-56.4-51.2-84.6c-4-6.6-7.9-13.1-11.9-19.7
			C531.7,412,519.3,419.2,524.1,427.1L524.1,427.1z"/>
	</g>
</g>
<g>
	<g>
		<path class="st2" d="M545.7,147.1c11.6,12.1,15.9,29.6,11.4,45.8c-2.4,8.8,11.3,12.6,13.7,3.8c5.8-21.1,0-43.9-15.1-59.6
			C549.4,130.4,539.3,140.5,545.7,147.1L545.7,147.1z"/>
	</g>
</g>
<g>
	<g>
		<path class="st2" d="M582.5,152.7c2.9,10,4.1,20,3.6,30.4c-0.5,9.2,13.8,9.1,14.2,0c0.6-11.5-0.8-23.1-4.1-34.2
			C593.7,140.2,579.9,143.9,582.5,152.7L582.5,152.7z"/>
	</g>
</g>
<g>
	<g>
		<path class="st2" d="M185.4,319.8c1.8,14.6,10.6,26.1,24.3,31.6c3.6,1.4,7.8-1.6,8.8-5c1.2-4-1.4-7.3-5-8.8
			c-7.2-2.9-12.9-10.2-13.8-17.8c-0.5-3.8-2.9-7.1-7.1-7.1C189.1,312.6,185,316,185.4,319.8L185.4,319.8z"/>
	</g>
</g>
</svg>
