<?xml version="1.0" encoding="utf-8"?>
<!-- Generator: Adobe Illustrator 22.1.0, SVG Export Plug-In . SVG Version: 6.00 Build 0)  -->
<svg version="1.1" id="Capa_3" xmlns="http://www.w3.org/2000/svg" xmlns:xlink="http://www.w3.org/1999/xlink" x="0px" y="0px"
	 viewBox="0 0 800 800" style="enable-background:new 0 0 800 800;" xml:space="preserve">
<style type="text/css">
	.st0{fill:#5ABBE9;}
	.st1{fill:#F3D16A;}
	.st2{fill:#FFFFFF;}
	.st3{fill:#222221;}
</style>
<path class="st0" d="M23.2,345.4v144.2c0,0-14.9,36.6,61.3,26.4c76.2-10.2,107.1,20.6,135.3,56.3c28.2,35.7,69,177.2,239.4,188.4
	c170.4,11.3,234.2-47.5,234.2-47.5l69.1-60.1L778,439.8c0,0-193.1-200.2-513.1-185.7C39.6,264.4,67.6,288.1,23.2,345.4z"/>
<g>
	<ellipse class="st1" cx="555.3" cy="495" rx="58.1" ry="33.7"/>
</g>
<path class="st2" d="M549.3,331.4c-86-30.7-176.3-53.7-266.7-66c-73.1-9.9-163.6-16.5-226.5,30.2c-1,0.7-1.9,1.5-2.8,2.3
	c-1.1,0.7-2.1,1.4-3.1,2.3c-35.7,29.1-35.1,73.2,8.3,93.8c41.2,19.5,90.3,21.8,134.7,28.7c9.7,1.5,19.5,3,29.1,5.2
	c3.8,0.9,7.7,1.7,11.4,2.8c6.8,2,2.2,0.4,4.5,1.6c0.2,0.1,0.2,0.1,0.3,0.1c0.2,0.2,0.3,0.3,0.5,0.5c2.1,2.1,4.5,4.1,6.6,6.2
	c6.3,6,12.2,12.4,18.2,18.7c35.3,36.9,71.7,72.4,113.5,101.9c49.7,35.1,108.4,60.3,170,61c63.5,0.7,138.4-26.3,180.5-75.4
	C821,436.9,623.5,357.8,549.3,331.4z M81.9,350c0.1,0,0.3-0.1,0.6-0.3C82.9,352.9,76.1,350,81.9,350z M700.9,487.7
	c-5.8,19.9-19.3,44.6-35.7,53.4c-26.8,14.5-86.9,45.6-117.5,46.2c-49.8,1-90-44.3-130.9-71.3c-36.3-24.1-68-54.4-98.3-85.6
	c-18.3-18.9-39.6-28.1-64.9-37.9c-35.9-13.9-77.9-12.8-115.6-19.3c-16.9-2.9-33.3-23.6-48.7-29.4c46.4-31.9,108.8-54.9,162.4-49.6
	c73.5,7.3,161.4,39.5,232.1,60.5c52.3,15.5,97.3,26.8,145.6,52.4C650.1,417.9,709.9,457.1,700.9,487.7z"/>
<g>
	<g>
		<path class="st3" d="M51.4,324.3c22.4-18.8,50-30.6,78.1-38.1c35.2-9.4,71.8-12.3,108.2-12.1c91.2,0.6,182.4,20.4,269.2,47.5
			c34.9,10.9,69.5,23.4,102.9,38.3c31.7,14.1,62.9,30.3,90.7,51.1c20.6,15.4,42,35.4,50.2,60.4c8,24.1-0.1,48.3-16.1,68
			c-11.8,14.5-26.4,26.7-41.7,37.5c-16.8,11.8-34.5,22.3-53,31c-29.2,13.8-61.1,22.7-93.5,23.8c-55.1,1.9-106.5-19.6-150.3-51.7
			c-38.4-28.2-70.6-63.7-101-100.1c-10.4-12.4-20.4-25.2-31.7-36.8c-3.7-3.8-7.6-7.5-12-10.4c-6-3.8-13.1-6.1-19.8-8.2
			c-20-6.1-40.7-9.8-61.2-13.8c-24.1-4.8-48.3-9.4-72.1-15.8c-19.6-5.2-38.9-10.5-55.4-21.9c-0.8-0.5-1.6-1.1-2.4-1.7
			c1.3,1-0.8-0.7-1.2-1c-1.5-1.3-2.8-2.6-4.1-4c-0.3-0.3-1.6-2-1-1.2c0.6,0.8-0.8-1.1-1-1.4c-0.4-0.6-0.7-1.2-1.1-1.8
			c-0.2-0.4-0.4-0.8-0.6-1.2c-0.6-1.2,0.5,1.4,0,0c-0.5-1.4-0.9-2.8-1.2-4.3c0.3,1.7,0,0.3,0-0.6c0-0.8,0-1.7,0-2.5
			c0-2-0.3,1,0.1-0.9c0.2-0.8,0.3-1.6,0.6-2.4c0.2-0.8,0.5-1.7,0.8-2.5c0.4-1.2,0,0-0.1,0.2c0.3-0.6,0.5-1.2,0.9-1.8
			C37,337.3,43.6,330.9,51.4,324.3c6.9-5.9-3.1-15.8-10-10c-13.5,11.5-29.9,29-24.2,48.4c4.8,16.5,22.4,26,37.1,32.3
			c22.1,9.5,45.7,15.2,69.1,20.3c24.1,5.3,48.3,9.6,72.4,14.7c9.9,2.1,19.8,4.3,29.5,7.2c3.8,1.1,7.6,2.4,11.4,3.8
			c0.4,0.1,3,1.3,1.1,0.4c0.7,0.3,1.4,0.6,2.1,0.9c1.4,0.7,2.7,1.3,4,2.1c0.9,0.6,1.7,1.2,2.6,1.8c-2.2-1.6,1.1,1,1.7,1.5
			c2.1,1.9,4.2,4,6.2,6c5.1,5.3,9.8,10.9,14.5,16.5c29.5,34.9,58.5,70.1,93.1,100.1c42,36.4,91.7,65.6,147.5,73.2
			c71.8,9.7,143.1-18.4,199.7-61.4c25.5-19.4,52.2-45.2,57.8-78.3c4.5-26.7-6.3-51.4-23.1-71.8c-20.6-25-48.8-43.7-76.7-59.5
			c-32.8-18.5-67.7-33.4-102.9-46.5c-85.2-31.7-175.3-54.2-265.9-63c-41.1-4-82.8-4.9-123.9,0.2c-33.6,4.2-66.9,12.1-97.2,27.4
			c-12.8,6.4-24.7,14.3-35.7,23.5C34.5,320.1,44.5,330,51.4,324.3z"/>
	</g>
</g>
<g>
	<g>
		<path class="st3" d="M16.1,362.5c0,26.8,0,53.6,0,80.4c0,6.4,0,12.8,0,19.2c0,3.4-0.4,7.1,1,10.3c3.4,7.8,11.2,14.2,18.1,18.7
			c41.4,27.6,95.4,9.9,140.7,24.8c16.6,5.4,28.2,16.5,38.1,30c10.4,14.2,20.7,28.5,31.3,42.6c29.6,39.3,60.5,79.1,97.8,111.3
			c42.3,36.6,95.5,54.3,151.1,54.9c55.8,0.6,112.9-13.5,163.3-37c38.4-17.9,74.7-43,103.9-73.8c2-2.1,4.1-4.3,5.9-6.5
			c2.3-2.8,2.2-5.2,2.2-8.4c0-12.1,0-24.2,0-36.3c0-30.8,0-61.6,0-92.4c0-2.1,0-4.1,0-6.2c0-9.1-14.1-9.1-14.1,0
			c0,40.3,0,80.6,0,120.9c0,5.8,0,11.5,0,17.3c0.7-1.7,1.4-3.3,2.1-5c-12.2,14.7-27.2,27.5-42.3,39c-34.6,26.4-73.5,45.5-115.1,58.1
			c-41.9,12.7-86,19.3-129.7,15c-43.1-4.2-84-20.8-116.9-49.1c-51.8-44.6-90.3-102.3-131.1-156.5c-9.7-12.9-21.6-23-36.7-29.2
			c-16.4-6.7-34.5-8.4-52-9.5c-22-1.4-44.8-0.1-66.4-5.5c-12.5-3.1-24.7-8.5-33.1-17.4c-0.6-0.6-1.2-1.3-1.8-2
			c-0.3-0.4-0.6-0.7-0.9-1.1c0.1,0.1,1,1.3,0.3,0.4c-0.7-1-1.3-2.1-2-3.1c-0.2-0.3-0.3-1-0.6-1.2c1,0.8,0.6,5.2,0.9,2.3
			c0.9-8.5,0-17.6,0-26.1c0-24.7,0-49.4,0-74.1c0-1.7,0-3.3,0-5C30.2,353.4,16.1,353.4,16.1,362.5L16.1,362.5z"/>
	</g>
</g>
<g>
	<g>
		<path class="st3" d="M346.3,226.1c-10-14.2-14.1-32-10.1-49.1c4.2-17.8,15.4-32.8,24.7-48.3c9.5-15.8,18.1-34.1,16.7-53
			c-1.3-17-10-31.9-23.6-42c-3.1-2.3-7.8-0.5-9.6,2.5c-2.1,3.6-0.5,7.4,2.5,9.6c13,9.6,18.8,26,16.1,41.8
			c-3.1,18-13.9,33.4-23.3,48.6c-9.2,15-17.4,30.8-18.9,48.7c-1.4,17,3.6,34.4,13.3,48.3C339.3,240.6,351.5,233.5,346.3,226.1
			L346.3,226.1z"/>
	</g>
</g>
<g>
	<g>
		<path class="st3" d="M431.3,245.1c-4.6-15.4-10.2-33.1-4.2-48.8c5.2-13.7,18-23.1,25.9-35.1c16.4-24.9,17.3-58.2,3.6-84.4
			c-4.2-8-16.4-0.9-12.2,7.1c13.5,25.9,8.5,56.9-10.1,78.7c-9.9,11.5-20.3,22.6-22.9,38.2c-2.7,16.3,1.6,32.6,6.3,48.1
			C420.4,257.6,434,253.9,431.3,245.1L431.3,245.1z"/>
	</g>
</g>
<g>
	<g>
		<path class="st3" d="M530.6,239.5c-1.6-14.4-3.4-29.7,1-43.8c4.4-14,17.1-23.9,25.1-35.8c16-23.6,26.7-54.9,23.5-83.6
			c-1.7-15.3-7.6-29.2-20.2-38.6c-3.1-2.3-7.8-0.5-9.6,2.5c-2.1,3.6-0.5,7.4,2.5,9.6c20.5,15.3,14.3,49.7,7.7,70.2
			c-4.3,13.5-11,26.2-19.4,37.6c-8.5,11.4-18.8,20.3-23.2,34.4c-4.8,15.4-3.2,31.9-1.5,47.6c0.4,3.8,2.9,7,7,7
			C527,246.6,531,243.3,530.6,239.5L530.6,239.5z"/>
	</g>
</g>
<g>
	<g>
		<path class="st3" d="M115.3,325.9c19.1-15.9,43.5-23.7,67.7-27.6c31.4-5.1,63.9-3.6,95.4-0.2c39.5,4.3,78.5,12.5,117,22.1
			c33.5,8.4,66.8,17.8,99.6,28.6c53,17.5,106.6,37.9,153.7,68.3c18.1,11.7,36.7,25.7,48.4,43.9c9.4,14.7,12.4,30.9,5.1,46.5
			c-11.1,23.5-35.5,39.7-57.4,52C620.7,572.9,594,582,566.3,584c-49.6,3.5-96.7-15.6-137.2-43c-37.4-25.3-69.6-57.3-99.7-90.7
			c-10.7-11.8-21-24-31.8-35.6c-7.2-7.8-14.2-14.4-24.3-18.1c-15.1-5.5-31.7-7.6-47.5-10.1c-20.6-3.3-41.2-6.3-61.7-10.3
			c-9.7-1.9-19.4-4.1-28.9-6.8c-4.1-1.2-8.2-2.5-12.2-3.9c-4-1.5-5.4-2-9.3-4c-1.5-0.8-3-1.6-4.4-2.5c-0.7-0.4-1.4-0.9-2.1-1.4
			c-1-0.6-1.5-1.1-0.9-0.6c-1.1-0.9-2.1-1.8-3.1-2.8c-0.4-0.4-0.8-0.9-1.2-1.4c1.3,1.6-0.2-0.2-0.4-0.7c-0.3-0.5-0.5-1-0.8-1.5
			c-0.4-0.8,0.4,1.4-0.1-0.2c-0.1-0.5-0.3-1.1-0.4-1.6c-0.5-1.8-0.1,1.2-0.1-0.6c0-0.6,0-1.1,0-1.7c0-1.9-0.4,1,0.1-0.5
			c0.2-0.6,0.3-1.2,0.5-1.8c0.1-0.3,0.2-0.6,0.3-0.9c0.5-1.5-0.2,0.4,0-0.2C104,335.9,108.9,331.3,115.3,325.9
			c6.9-5.9-3.1-15.8-10-10C94.2,325.5,81,340.3,87.7,356c5.9,13.9,23,20.3,36.2,24.7C163,393.6,204.8,396.3,245,404
			c7.5,1.4,15,3,22.2,5.4c1.3,0.4,2.7,0.9,4,1.4c0.8,0.3-1.2-0.6,0.6,0.3c0.6,0.3,1.2,0.6,1.8,0.9c0.8,0.5,1.6,1,2.4,1.5
			c1,0.6,0.5,0.4-0.3-0.2c0.4,0.3,0.8,0.7,1.2,1c9.6,8.3,17.8,18.3,26.1,27.8c29.2,33,59.2,65.4,93.8,92.8
			c40.3,31.8,86.8,57.4,138.6,62.7c27.3,2.8,55.1-0.8,81-9.9c29-10.2,58.1-26.6,79.9-48.6c15.1-15.2,26.4-35.2,23.5-57.2
			c-2.7-20.7-16.4-38.2-31.4-52c-19.4-17.9-42.4-31.7-65.7-43.9c-26.7-13.9-54.5-25.6-82.6-36.1c-67-25.1-136.9-44.8-207.3-57.7
			c-36.3-6.7-73.3-11.5-110.3-11c-29.2,0.4-58.9,4.1-85.9,15.6c-11.4,4.9-21.9,11.3-31.4,19.2C98.4,321.8,108.4,331.7,115.3,325.9z"
			/>
	</g>
</g>
<g>
	<g>
		<path class="st3" d="M613.9,507.4c-0.4,15.7-21.4,23.1-33.9,25.7c-18.9,3.9-41.5,2.1-58-8.6c-5.2-3.4-10.6-8.5-11.6-14.9
			c-1-6.2,2.7-11.7,7.1-15.7c14-12.8,36.7-15.2,54.7-13.3C586.3,482,613.4,489.1,613.9,507.4c0.2,8.1,12.9,8.2,12.6,0
			c-0.6-22.1-24.4-33.9-43.2-37.8c-23.2-4.8-51.3-2.6-70.8,12c-7.5,5.6-13.6,13.3-14.7,22.9c-1,9,2.8,17.5,9,23.9
			c16.4,17,44.6,21,66.9,18.4c21.3-2.5,52.1-13.5,52.8-39.4C626.7,499.3,614.1,499.3,613.9,507.4z"/>
	</g>
</g>
<g>
	<g>
		<path class="st3" d="M390.2,458.9c52.4-13.5,103.5-31.2,155.6-45.9c7.8-2.2,4.5-14.4-3.4-12.2c-52,14.7-103.2,32.3-155.6,45.9
			C378.9,448.8,382.3,461,390.2,458.9L390.2,458.9z"/>
	</g>
</g>
<g>
	<g>
		<path class="st3" d="M370.8,426.7c43.7-13.4,86.8-31.3,132.5-37c3.4-0.4,6.3-2.6,6.3-6.3c0-3.1-2.9-6.7-6.3-6.3
			c-47,5.8-90.9,23.7-135.8,37.4C359.7,416.9,363,429.1,370.8,426.7L370.8,426.7z"/>
	</g>
</g>
<g>
	<g>
		<path class="st3" d="M189,363.5c30.1-9.6,60.7-17.6,91.6-24c8-1.6,4.6-13.8-3.4-12.2c-31,6.4-61.5,14.4-91.6,24
			C177.9,353.7,181.2,366,189,363.5L189,363.5z"/>
	</g>
</g>
<g>
	<g>
		<path class="st3" d="M248.8,373c27.2-5.7,53-16.7,80.6-20.7c3.4-0.5,5.2-4.8,4.4-7.8c-1-3.6-4.4-4.9-7.8-4.4
			c-27.6,4.1-53.4,15.1-80.6,20.7C237.4,362.5,240.8,374.7,248.8,373L248.8,373z"/>
	</g>
</g>
<g>
	<g>
		<path class="st3" d="M304.3,385.1c29.1-8.1,58.1-16.1,87.2-24.2c7.8-2.2,4.5-14.4-3.4-12.2c-29.1,8.1-58.1,16.1-87.2,24.2
			C293.1,375.1,296.4,387.3,304.3,385.1L304.3,385.1z"/>
	</g>
</g>
</svg>
