<?xml version="1.0" encoding="utf-8"?>
<!-- Generator: Adobe Illustrator 22.1.0, SVG Export Plug-In . SVG Version: 6.00 Build 0)  -->
<svg width='64px' version="1.1" id="Layer_1" xmlns="http://www.w3.org/2000/svg" xmlns:xlink="http://www.w3.org/1999/xlink" x="0px" y="0px"
	 viewBox="0 0 67.4 16" style="enable-background:new 0 0 67.4 16;" xml:space="preserve">
<style type="text/css">
	.st0{fill:#2E416D;}
</style>
<path class="st0" d="M8.4,7.2c1.7-0.2,3.2-1.1,3.2-3c0-2.2-1.6-3.3-4.3-3.3H0.8v0v0.8v0.3c0.6,0,0.9,0.1,1.2,0.4C2,2.6,2,2.8,2,3V12
	c0,0.3,0,0.5,0,0.6C1.7,12.9,1.4,13,0.8,13v0.2v0.8l0,0h6.7c3.3,0,5-1.1,5-3.6C12.4,8.4,10.7,7.3,8.4,7.2z M5.8,1.9H6
	c1.3,0,2.1,0.7,2.1,2.4c0,1.7-0.7,2.5-2.1,2.5H5.8V1.9z M7,13.1H6.9c-0.8,0-1.1-0.3-1.1-1.3v-4h0.6c1.7,0,2.5,0.9,2.5,2.6
	C8.8,12.3,8,13.1,7,13.1z"/>
<path class="st0" d="M12.8,13c1,0,1.3-0.4,1.3-1.4V8.1c0-0.5-0.4-0.9-1-0.9h-0.4V6.1l3.4-1h1v1.4c0,0.7-0.1,1.8-0.1,2.2h0.1
	C17.3,6,18.6,4.8,20,4.8c0.3,0,0.4,0,0.6,0.1V8c-1.2-0.2-3.3-0.1-3.3,2v1.6c0,1,0.6,1.4,1.5,1.4v1.1h-6.1L12.8,13L12.8,13z"/>
<path class="st0" d="M51,11.2l-2.1-2.8c1.1-0.5,2-1,3.1-2.2v-1h-4.7v1.1c0.7,0,1.2,0.3,1.2,1c0,0.5-0.1,0.8-0.9,1.2L46,9.1h-0.1V0.8
	h-0.7l-3.9,1V3h0.4c0.5,0,1,0.3,1,0.8v7.9c0,0.9-0.3,1.4-1.1,1.4c-0.8,0-1.1-0.5-1.1-1.4V7.9c0-2-1.2-2.9-2.9-2.9
	c-1.3,0-2.3,0.6-2.7,1.9V5h-0.7l-3.9,1v1.2h0.4c0.5,0,1,0.3,1,0.8v3.7c0,1-0.3,1.4-1.3,1.4h-0.1v0.9l5.4,0v-1
	c-0.7,0-0.8-0.5-0.8-1.4v-4c0.1-0.6,0.6-1,1.2-1c0.7,0,1.2,0.4,1.2,1.2v3.8c0,0.9,0,1.4-0.8,1.4v1h5h0.4h5V13
	c-0.7,0-0.8-0.3-0.8-1.1V9.7H46l2.8,4.5h4V13C52.1,13,51.7,12.1,51,11.2z"/>
<path class="st0" d="M52.2,9.5c0-2.8,2.4-4.7,5.1-4.7c2.8,0,5.2,2,5.2,4.8c0,2.8-2.3,4.7-5.1,4.7C54.6,14.3,52.2,12.3,52.2,9.5z
	 M59.1,11c0-1.5-0.8-5.3-2.3-5.3c-0.9,0-1.2,0.8-1.2,2.4s0.8,5.3,2.3,5.3C58.7,13.3,59.1,12.4,59.1,11z"/>
<g>
	<path class="st0" d="M64.6,14.1c-0.9,0-1.6-0.8-1.6-1.6s0.8-1.6,1.6-1.6c0.9,0,1.6,0.8,1.6,1.6S65.5,14.1,64.6,14.1z"/>
</g>
<path class="st0" d="M30.3,13.2C30.3,13.2,30.3,13.2,30.3,13.2c-0.7,0-1.1-0.4-1.2-1.1V7.8c0-2-0.9-3-4-3c-1.6,0-3.5,0.4-3.8,2.1
	c-0.1,0.5,0,1,0.5,1.3c0.5,0.3,1.2,0.3,1.8,0C24,7.9,24.2,7.4,24.1,7c-0.1-0.4-0.2-0.7-0.7-1.2c0.3-0.1,0.8-0.1,1.2-0.1
	c1.3,0,1.5,1.5,1.5,3C26.1,9,26,9,25.6,9c-1.7,0.1-5.1,0.3-5.1,2.9c0,2.6,4.5,3.3,5.9,0.9c0.5,1.7,2.8,1.6,3.9,0.8
	C30.3,13.4,30.3,13.5,30.3,13.2z M23.2,11.6c0-1.9,2.5-1.6,2.8-2c0,0.6,0,1.2,0,1.7C26.1,13.1,23.2,13.5,23.2,11.6z"/>
</svg>
