<?xml version="1.0" encoding="utf-8"?>
<!-- Generator: Adobe Illustrator 22.1.0, SVG Export Plug-In . SVG Version: 6.00 Build 0)  -->
<svg version="1.1" id="Capa_1" xmlns="http://www.w3.org/2000/svg" xmlns:xlink="http://www.w3.org/1999/xlink" x="0px" y="0px"
	 viewBox="0 0 500 320" style="enable-background:new 0 0 500 320;" xml:space="preserve">
<style type="text/css">
	.st0{opacity:0.5;fill:#DAE6EA;}
	.st1{clip-path:url(#SVGID_2_);}
	.st2{fill:#FFFFFF;}
	.st3{clip-path:url(#SVGID_4_);}
	.st4{clip-path:url(#SVGID_6_);}
	.st5{clip-path:url(#SVGID_8_);}
	.st6{clip-path:url(#SVGID_10_);}
</style>
<path class="st0" d="M51,281.8c41.1,42,95.6,16.9,116.6-17.1c58.4-94.4,167.7,6,201.8,25.8s74.3-9.9,95.2-49.6
	c20.9-39.6,46.2-182.7-58.7-202.7c-58.7-11.2-104.3,61.3-129.3,22S209,0.1,172.2,24.4s3.9,89.9-47.3,97.2
	C17.4,137-15.7,213.6,51,281.8z"/>
<g>
	<g>
		<defs>
			<path id="SVGID_1_" d="M51,281.8c41.1,42,95.6,16.9,116.6-17.1c58.4-94.4,167.7,6,201.8,25.8s74.3-9.9,95.2-49.6
				c20.9-39.6,46.2-182.7-58.7-202.7c-58.7-11.2-104.3,61.3-129.3,22S209,0.1,172.2,24.4s3.9,89.9-47.3,97.2
				C17.4,137-15.7,213.6,51,281.8z"/>
		</defs>
		<clipPath id="SVGID_2_">
			<use xlink:href="#SVGID_1_"  style="overflow:visible;"/>
		</clipPath>
		<g class="st1">
			<g>
				<g>
					<path class="st2" d="M441.8,150.6c0.3,0,0.6-0.2,0.8-0.4c1.3-1.7,3.5-2.7,6.1-2.7l0,0c1.6,0,3.1,0.4,4.5,1l0,0
						c0.5,0.2,1.1,0,1.4-0.5c0.1-0.2,0.1-0.5,0-0.8s-0.3-0.5-0.5-0.6c-1.7-0.8-3.5-1.3-5.4-1.3c-2.6,0-4.9,0.8-6.6,2.3
						c-1.7-3.3-5-5-9.8-5c-0.5,0-1,0-1.5,0.1c-0.3,0-0.5,0.1-0.7,0.3s-0.3,0.5-0.3,0.7c0,0.6,0.5,1,1.1,1c0.5,0,1,0,1.4,0
						c4.8,0.1,7.3,1.5,8.5,5.1c0.1,0.4,0.4,0.6,0.8,0.7C441.7,150.6,441.7,150.6,441.8,150.6z"/>
				</g>
				<g>
					<path class="st2" d="M435.3,77.5c0.3,0,0.6-0.2,0.8-0.4c1-1.4,2.7-2.1,4.8-2.1c1.2,0,2.5,0.3,3.6,0.8l0,0
						c0.5,0.2,1.1,0,1.4-0.5c0.1-0.2,0.1-0.5,0.1-0.8c-0.1-0.3-0.3-0.5-0.5-0.6c-1.4-0.7-2.9-1-4.5-1c-2,0-3.9,0.6-5.3,1.7
						c-0.7-1.2-1.7-2.2-2.9-2.9c-1.4-0.7-3.1-1.1-5.1-1.1c-0.4,0-0.8,0-1.3,0c-0.3,0-0.5,0.1-0.7,0.3c-0.2,0.2-0.3,0.5-0.3,0.7
						c0,0.6,0.5,1,1.1,1c0.4,0,0.8,0,1.1,0c4.4,0.1,5.9,1.7,6.7,4c0.1,0.4,0.4,0.6,0.8,0.7C435.1,77.5,435.2,77.5,435.3,77.5z"/>
				</g>
				<g>
					<path class="st2" d="M449.8,67.8c0.3,0,0.6-0.2,0.8-0.4c1-1.4,2.7-2.1,4.8-2.1c1.2,0,2.5,0.3,3.6,0.8l0,0
						c0.5,0.2,1.1,0,1.4-0.5c0.1-0.2,0.1-0.5,0.1-0.8c-0.1-0.3-0.3-0.5-0.5-0.6c-1.4-0.7-2.9-1-4.5-1c-2,0-3.9,0.6-5.3,1.7
						c-0.7-1.2-1.7-2.2-2.9-2.9c-1.4-0.7-3.1-1.1-5.1-1.1c-0.4,0-0.8,0-1.3,0c-0.3,0-0.5,0.1-0.7,0.3s-0.3,0.5-0.3,0.7
						c0,0.6,0.5,1,1.1,1c0.4,0,0.8,0,1.1,0c4.4,0.1,5.9,1.7,6.7,4c0.1,0.4,0.4,0.6,0.8,0.7C449.7,67.8,449.8,67.8,449.8,67.8z"/>
				</g>
				<g>
					<path class="st2" d="M89.1,148.2c0.3,0,0.6-0.2,0.8-0.4c2-2.7,5.6-4.3,9.7-4.3c2.4,0,4.9,0.6,7,1.6c0.5,0.2,1.1,0,1.4-0.5
						c0.1-0.2,0.1-0.5,0-0.8s-0.3-0.5-0.5-0.6c-2.4-1.2-5.2-1.9-7.9-1.9c-4,0-7.6,1.3-10.1,3.8c-1.1-2.5-2.9-4.4-5.2-5.7
						c-2.5-1.4-5.7-2.1-9.5-2.1c-0.8,0-1.5,0-2.3,0.1c-0.3,0-0.5,0.1-0.7,0.3s-0.3,0.5-0.3,0.7c0,0.6,0.5,1,1.1,1
						c0.7,0,1.5-0.1,2.2-0.1c7.5,0.1,11.5,2.5,13.3,8.1c0.1,0.4,0.4,0.6,0.8,0.7C89,148.2,89.1,148.2,89.1,148.2z"/>
				</g>
				<g>
					<path class="st2" d="M472.4,116.9c0.3,0,0.6-0.2,0.8-0.4c1.3-1.7,3.5-2.7,6.1-2.7c1.6,0,3.1,0.4,4.5,1.1c0.5,0.2,1.1,0,1.4-0.5
						s0-1.1-0.5-1.4c-1.7-0.8-3.5-1.3-5.4-1.3c-2.5,0-4.9,0.8-6.6,2.3c-1.7-3.3-5-5-9.8-5c-0.5,0-1,0-1.5,0.1c-0.6,0-1,0.5-1,1.1
						s0.5,1,1.1,0.9c0.5,0,1,0,1.4,0c4.8,0.1,7.3,1.5,8.5,5.1c0.1,0.4,0.4,0.6,0.8,0.7C472.3,116.9,472.3,116.9,472.4,116.9z"/>
				</g>
				<g>
					<path class="st2" d="M292.2,112c0.3,0,0.6-0.2,0.8-0.4c0.8-1.1,2.2-1.7,3.9-1.7c1,0,2,0.2,2.9,0.7l0,0c0.5,0.2,1.1,0,1.4-0.5
						c0.1-0.2,0.1-0.5,0-0.8s-0.3-0.5-0.5-0.6c-1.2-0.6-2.5-0.9-3.8-0.9c-1.6,0-3.2,0.5-4.4,1.4c-1.3-2.1-3.6-3.3-6.8-3.2
						c-0.3,0-0.7,0-1,0s-0.5,0.1-0.7,0.3c-0.2,0.2-0.3,0.5-0.3,0.7c0,0.6,0.5,1,1.1,1c0.3,0,0.6,0,0.9,0c3.6,0.1,4.8,1.3,5.5,3.2
						c0.1,0.4,0.4,0.6,0.8,0.7C292.1,112,292.2,112,292.2,112z"/>
				</g>
				<path class="st2" d="M116.9,219.5h3.4c0.6,0,1-0.5,1-1c0-0.6-0.5-1-1-1h-2.2l12.4-67.2c0.1,0,0.2,0.1,0.4,0.1h18.3
					c0.6,0,1-0.5,1-1c0-0.6-0.5-1-1-1h-17.8l-0.6-1.1c-0.2-0.4-0.7-0.5-1.1-0.5c-0.4,0.1-0.7,0.4-0.8,0.8l-13,70.8
					c-0.1,0.3,0,0.6,0.2,0.8C116.4,219.4,116.6,219.5,116.9,219.5z M127.2,219.5c0.6,0,1-0.5,1-1c0-0.6-0.5-1-1-1c-0.6,0-1,0.5-1,1
					C126.1,219,126.6,219.5,127.2,219.5z M134,219.5h26.3c0.3,0,0.5-0.1,0.7-0.3s0.3-0.5,0.3-0.7v-69.2l0,0c0-0.6-0.5-1-1-1
					c-0.6,0-1,0.5-1,1v68.2H134c-0.6,0-1,0.5-1,1C132.9,219,133.4,219.5,134,219.5z M156,150.3c0.6,0,1-0.5,1-1c0-0.6-0.5-1-1-1
					c-0.6,0-1,0.5-1,1S155.5,150.3,156,150.3z"/>
				<path class="st2" d="M246.3,219.5c0.6,0,1-0.5,1-1c0-0.6-0.5-1-1-1H221v-68.2l0,0c0-0.6-0.5-1-1-1c-0.6,0-1,0.5-1,1v69.2
					c0,0.3,0.1,0.5,0.3,0.7s0.4,0.3,0.7,0.3H246.3z M253.1,219.5c0.6,0,1-0.5,1-1c0-0.6-0.5-1-1-1c-0.6,0-1,0.5-1,1
					S252.6,219.5,253.1,219.5z M259.9,219.5h3.4c0.3,0,0.6-0.1,0.8-0.4c0.2-0.2,0.3-0.5,0.2-0.8l-13-70.8c-0.1-0.4-0.4-0.8-0.8-0.8
					c-0.4-0.1-0.9,0.1-1.1,0.5l-0.6,1H231c-0.6,0-1,0.5-1,1c0,0.6,0.5,1,1,1h18.4c0.1,0,0.2,0,0.3,0l12.4,67.2h-2.2
					c-0.6,0-1,0.5-1,1C258.9,219,259.4,219.5,259.9,219.5z M224.3,150.3c0.6,0,1-0.5,1-1c0-0.6-0.5-1-1-1c-0.6,0-1,0.5-1,1
					S223.7,150.3,224.3,150.3z"/>
				<path class="st2" d="M220,153.7h31.2c0.3,0,0.6-0.1,0.8-0.4c0.2-0.2,0.3-0.5,0.2-0.8l-0.6-3.4c-0.1-0.5-0.5-0.8-1-0.8H220
					c-0.3,0-0.5,0.1-0.7,0.3s-0.3,0.5-0.3,0.7v3.4c0,0.3,0.1,0.5,0.3,0.7C219.5,153.6,219.8,153.7,220,153.7z M250,151.6h-29v-1.3
					h28.7L250,151.6z"/>
				<path class="st2" d="M160.2,219.5H220c0.3,0,0.5-0.1,0.7-0.3s0.3-0.5,0.3-0.7V193c0-0.6-0.5-1-1-1c-0.6,0-1,0.5-1,1v24.5h-57.8
					v-9c0-0.6-0.5-1-1-1s-1,0.5-1,1v10c0,0.3,0.1,0.5,0.3,0.7S160,219.5,160.2,219.5z M160.2,202.6c0.6,0,1-0.5,1-1c0-0.6-0.5-1-1-1
					s-1,0.5-1,1C159.2,202.2,159.7,202.6,160.2,202.6z M160.2,195.8c0.6,0,1-0.5,1-1v-57.3c0-0.3-0.1-0.5-0.3-0.7s-0.5-0.3-0.7-0.3
					h-19.8v-6.2h8c0.6,0,1-0.5,1-1c0-0.6-0.5-1-1-1h-9c-0.3,0-0.5,0.1-0.7,0.3s-0.3,0.5-0.3,0.7v8.3c0,0.3,0.1,0.5,0.3,0.7
					s0.4,0.3,0.7,0.3h19.8v56.3C159.2,195.4,159.7,195.8,160.2,195.8z M220,187.2c0.6,0,1-0.5,1-1c0-0.6-0.5-1-1-1c-0.6,0-1,0.5-1,1
					S219.5,187.2,220,187.2z M220,180.4c0.6,0,1-0.5,1-1v-40.9h19.8c0.3,0,0.5-0.1,0.7-0.3s0.3-0.5,0.3-0.7v-8.3
					c0-0.3-0.1-0.5-0.3-0.7s-0.4-0.3-0.7-0.3h-43.5c-0.3,0-0.5,0.1-0.7,0.3s-0.3,0.5-0.3,0.7v7.3H184v-7.3c0-0.3-0.1-0.5-0.3-0.7
					s-0.5-0.3-0.7-0.3h-20.9c-0.6,0-1,0.5-1,1c0,0.6,0.5,1,1,1H182v7.3c0,0.3,0.1,0.5,0.3,0.7s0.4,0.3,0.7,0.3h14.3
					c0.3,0,0.5-0.1,0.7-0.3s0.3-0.5,0.3-0.7v-7.3h41.5v6.2H220c-0.3,0-0.5,0.1-0.7,0.3s-0.3,0.5-0.3,0.7v41.9
					C219,179.9,219.5,180.4,220,180.4z M155.3,130.2c0.6,0,1-0.5,1-1c0-0.6-0.5-1-1-1c-0.6,0-1,0.5-1,1S154.7,130.2,155.3,130.2z"/>
				<path class="st2" d="M220,150.3h29.4c0.4,0,0.7-0.2,0.9-0.5l7-11.8c0.2-0.3,0.2-0.7,0-1s-0.5-0.5-0.9-0.5H220
					c-0.3,0-0.5,0.1-0.7,0.3s-0.3,0.5-0.3,0.7v11.8c0,0.3,0.1,0.5,0.3,0.7S219.8,150.3,220,150.3z M248.9,148.3h-27.8v-9.8h33.6
					L248.9,148.3z"/>
				<path class="st2" d="M130.9,150.3h29.3c0.3,0,0.5-0.1,0.7-0.3s0.3-0.5,0.3-0.7v-11.8c0-0.3-0.1-0.5-0.3-0.7s-0.4-0.3-0.7-0.3
					h-36.4c-0.4,0-0.7,0.2-0.9,0.5c-0.2,0.3-0.2,0.7,0,1l7.1,11.8C130.2,150.1,130.6,150.3,130.9,150.3z M159.2,148.3h-27.7
					l-5.8-9.8h33.6L159.2,148.3L159.2,148.3z"/>
				<path class="st2" d="M131.1,130.2H183c0.3,0,0.5-0.1,0.7-0.3s0.3-0.5,0.3-0.7v-8.7c0-0.3-0.1-0.5-0.3-0.7s-0.5-0.3-0.7-0.3
					h-14.5c-0.6,0-1,0.5-1,1c0,0.6,0.5,1,1,1H182v6.7h-50.9c-5.4,0-10.2-3.2-12.3-8.1c1.6,0.9,3.5,1.4,5.4,1.4h30.7c0.6,0,1-0.5,1-1
					c0-0.6-0.5-1-1-1h-30.7c-2.5,0-4.8-1-6.5-2.9c-0.3-0.3-0.8-0.4-1.2-0.2c-0.4,0.2-0.6,0.6-0.6,1.1c0.6,3.5,2.4,6.8,5.1,9.1
					C123.9,128.9,127.4,130.2,131.1,130.2z M161.6,121.4c0.6,0,1-0.5,1-1c0-0.6-0.5-1-1-1c-0.6,0-1,0.5-1,1
					C160.6,121,161.1,121.4,161.6,121.4z"/>
				<path class="st2" d="M197.3,130.2h51.9c3.7,0,7.2-1.3,10-3.7c2.8-2.3,4.6-5.6,5.2-9.1c0.1-0.4-0.2-0.9-0.6-1.1s-0.9-0.1-1.2,0.2
					c-1.8,1.9-4.1,2.9-6.6,2.9h-15c-0.6,0-1,0.5-1,1c0,0.6,0.5,1,1,1h15c1.9,0,3.8-0.5,5.5-1.5c-2.1,4.9-6.9,8.1-12.4,8.1h-50.9
					v-6.7h29.2c0.6,0,1-0.5,1-1c0-0.6-0.5-1-1-1h-30.2c-0.3,0-0.5,0.1-0.7,0.3c-0.2,0.2-0.3,0.5-0.3,0.7v8.7c0,0.3,0.1,0.5,0.3,0.7
					C196.8,130.1,197,130.2,197.3,130.2z M234.3,121.4c0.6,0,1-0.5,1-1c0-0.6-0.5-1-1-1c-0.6,0-1,0.5-1,1
					C233.3,121,233.8,121.4,234.3,121.4z"/>
				<path class="st2" d="M126.7,121.4H183c0.3,0,0.5-0.1,0.7-0.3c0.2-0.2,0.3-0.5,0.3-0.7v-6.1h12.3v5.5c0,0.6,0.5,1,1,1
					c0.6,0,1-0.5,1-1v-6.5c0-0.3-0.1-0.5-0.3-0.7s-0.4-0.3-0.7-0.3H183c-0.3,0-0.5,0.1-0.7,0.3c-0.2,0.2-0.3,0.5-0.3,0.7v6.1h-51.2
					c2-1.2,3.9-2.8,5.7-4.5c0.2-0.2,0.3-0.4,0.3-0.7c0-0.3-0.1-0.5-0.3-0.7c-0.4-0.4-1-0.4-1.4,0c-2.6,2.6-5.6,4.6-8.7,6
					c-0.4,0.2-0.7,0.7-0.6,1.1C125.8,121.1,126.2,121.4,126.7,121.4z M203.5,121.4c0.6,0,1-0.5,1-1c0-0.6-0.5-1-1-1
					c-0.6,0-1,0.5-1,1C202.5,121,203,121.4,203.5,121.4z M210.3,121.4h42.9c0.5,0,0.9-0.3,1-0.8s-0.2-1-0.6-1.1
					c-11.6-4.8-15.5-13.8-19.4-25.1c-0.1-0.4-0.5-0.7-1-0.7h-86.1c-0.4,0-0.8,0.3-1,0.7c-1,3-9.9,16.8-11.2,19.3
					c-0.3,0.5-0.1,1.1,0.4,1.4s1.1,0,1.4-0.4c1.2-2.4,10.1-16,11.1-18.9h84.6c1.5,4.4,3.4,9.5,6.2,13.8c2.7,4.3,6,7.5,10.1,9.9
					h-38.4c-0.6,0-1,0.5-1,1C209.3,121,209.8,121.4,210.3,121.4z"/>
				<path class="st2" d="M162.9,130.2H183c0.3,0,0.5-0.1,0.7-0.3s0.3-0.5,0.3-0.7v-4c0-0.6-0.5-1-1-1c-0.6,0-1,0.5-1,1v3h-17
					c4-5.6,6.7-15.9,8.5-32.4h33.1c0.9,8,1.7,14.4,3,19.8c1.3,5.6,3,9.6,5.4,12.6h-16.7v-14.8c0-0.3-0.1-0.5-0.3-0.7
					s-0.4-0.3-0.7-0.3h-12.5c-0.6,0-1,0.5-1,1c0,0.6,0.5,1,1,1h11.5v14.8c0,0.3,0.1,0.5,0.3,0.7s0.4,0.3,0.7,0.3h20
					c0.4,0,0.8-0.2,0.9-0.6c0.2-0.4,0.1-0.8-0.2-1.1c-2.7-2.6-4.6-6.5-6.1-12.2c-1.3-5-2.2-11.2-3.3-21.6c-0.1-0.5-0.5-0.9-1-0.9
					h-34.9c-0.5,0-1,0.4-1,0.9c-0.9,8.6-2.1,15.9-3.7,21.5c-1.6,5.9-3.6,10.1-5.9,12.4c-0.3,0.3-0.4,0.7-0.2,1.1
					C162.1,129.9,162.5,130.2,162.9,130.2z M183,119.4c0.6,0,1-0.5,1-1c0-0.6-0.5-1-1-1c-0.6,0-1,0.5-1,1S182.4,119.4,183,119.4z"/>
				<path class="st2" d="M143.2,95.7L143.2,95.7h78.7c0.6,0,1-0.5,1-1c0-0.6-0.5-1-1-1h-78.7c-4.1,0-7.7-2.5-9.4-6.5
					c1.2,0.6,2.6,1,4,1h20.8c0.6,0,1-0.5,1-1c0-0.6-0.5-1-1-1h-20.8c-1.9,0-3.7-0.8-5-2.3c-0.3-0.3-0.8-0.4-1.2-0.3
					c-0.4,0.2-0.6,0.6-0.6,1.1c0.4,3.1,1.9,5.9,4.1,7.9C137.3,94.6,140.2,95.7,143.2,95.7z M228.7,95.7c0.6,0,1-0.5,1-1
					c0-0.6-0.5-1-1-1c-0.6,0-1,0.5-1,1S228.1,95.7,228.7,95.7z M235.5,95.7h1.6c6.1,0,11.3-4.7,12.3-11.1c0.1-0.4-0.2-0.9-0.6-1.1
					c-0.4-0.2-0.9-0.1-1.2,0.2c-1.3,1.5-3.2,2.3-5.1,2.3h-70.4c-0.6,0-1,0.5-1,1c0,0.6,0.5,1,1,1h70.4c1.4,0,2.8-0.3,4-1
					c-1.7,3.9-5.4,6.5-9.5,6.5h-1.6c-0.6,0-1,0.5-1,1C234.5,95.2,234.9,95.7,235.5,95.7z M165.4,88.2c0.6,0,1-0.5,1-1
					c0-0.6-0.5-1-1-1c-0.6,0-1,0.5-1,1C164.3,87.7,164.8,88.2,165.4,88.2z"/>
				<path class="st2" d="M140.4,88.2H179c0.6,0,1-0.5,1-1c0-0.6-0.5-1-1-1h-34c6.5-3.1,14.3-7.4,21.2-11.6
					c11.3-6.9,18.8-12.7,22.3-17.2l0,0c0.2-0.2,0.2-0.5,0.2-0.7c0-0.3-0.2-0.5-0.4-0.7c-0.4-0.3-1.1-0.2-1.4,0.2
					c-4.4,5.7-15.5,12.9-21.7,16.7c-9.8,6-19.8,11.1-25.2,13.4c-0.4,0.2-0.7,0.7-0.6,1.1C139.5,87.8,139.9,88.2,140.4,88.2z
					 M185.9,88.2c0.6,0,1-0.5,1-1c0-0.6-0.5-1-1-1c-0.6,0-1,0.5-1,1C184.8,87.7,185.3,88.2,185.9,88.2z M192.7,88.2h47
					c0.5,0,0.9-0.3,1-0.8s-0.1-1-0.6-1.1c-14.7-4.5-36.4-20.8-47.3-30.2c-0.4-0.4-1.1-0.3-1.4,0.1c-0.4,0.4-0.3,1.1,0.1,1.4
					c9.6,8.3,28.7,24.9,43.3,28.5h-42.1c-0.6,0-1,0.5-1,1C191.6,87.7,192.1,88.2,192.7,88.2z M193.4,58.7c0.2,0,0.5-0.1,0.6-0.2
					c0.4-0.4,0.5-1,0.1-1.4l0,0c-0.3-0.4-1-0.5-1.4-0.1s-0.5,1-0.1,1.4C192.8,58.6,193.1,58.7,193.4,58.7z"/>
				<path class="st2" d="M168.5,95.7h43.2c0.4,0,0.8-0.2,0.9-0.6c0.2-0.4,0.1-0.8-0.2-1.1c-2.1-2-3.9-3.9-5.6-5.8
					c-0.4-0.4-1-0.5-1.4-0.1s-0.5,1-0.1,1.4c1.2,1.4,2.5,2.7,3.9,4.2H171c9-9.1,15.1-20.3,18.8-34.3c1.6,7,11.5,23.3,14.8,29.1
					c0.3,0.5,0.9,0.6,1.4,0.4c0.3-0.2,0.5-0.5,0.5-0.9c0-0.2,0-0.4-0.1-0.5c-3.6-6.2-13.6-23.2-15.1-31c-0.1-0.5-0.5-0.8-1-0.8h-0.9
					c-0.5,0-0.9,0.3-1,0.8C184.6,72.3,178,84.2,167.7,94c-0.3,0.3-0.4,0.7-0.3,1.1C167.7,95.4,168.1,95.7,168.5,95.7z"/>
				<path class="st2" d="M186.4,51.1h7.4c0.4,0,0.8-0.2,0.9-0.6l2.6-6c0.2-0.5,0.3-1.1,0.3-1.6c0-1.5-0.9-3-2.4-4.2
					c-1.4-1-3.1-1.6-4.7-1.6l0,0l0,0h-0.8c-1.6,0-3.3,0.6-4.7,1.6c-1.5,1.1-2.4,2.6-2.4,4.2c0,0.5,0.1,1.1,0.3,1.6l2.5,6
					C185.6,50.9,186,51.1,186.4,51.1z M193.1,49.1H187l-2.2-5.3c-0.1-0.3-0.2-0.5-0.2-0.8c0-0.8,0.6-1.8,1.6-2.5
					c1-0.8,2.3-1.2,3.4-1.2h0.8l0,0l0,0l0,0c1.1,0,2.5,0.5,3.5,1.2s1.6,1.7,1.6,2.5c0,0.3-0.1,0.5-0.2,0.8L193.1,49.1z"/>
				<path class="st2" d="M184.7,57.7h10.8c0.3,0,0.5-0.1,0.7-0.3s0.3-0.5,0.3-0.7V54c0-0.3-0.1-0.5-0.3-0.7s-0.4-0.3-0.7-0.3h-10.8
					c-0.3,0-0.5,0.1-0.7,0.3s-0.3,0.5-0.3,0.7v2.7c0,0.3,0.1,0.5,0.3,0.7C184.2,57.6,184.4,57.7,184.7,57.7z M194.5,55.6h-8.8V55
					h8.8V55.6z"/>
				<path class="st2" d="M186.4,55.1h7.4c0.3,0,0.5-0.1,0.7-0.3s0.3-0.5,0.3-0.7v-4c0-0.3-0.1-0.5-0.3-0.7s-0.5-0.3-0.7-0.3h-7.4
					c-0.3,0-0.5,0.1-0.7,0.3s-0.3,0.5-0.3,0.7v4c0,0.3,0.1,0.5,0.3,0.7S186.1,55.1,186.4,55.1z M192.8,53h-5.4v-1.9h5.4V53z"/>
				<path class="st2" d="M174.4,219.5h23.8c0.3,0,0.5-0.1,0.7-0.3s0.3-0.5,0.3-0.7v-6.6h6.7c0.3,0,0.5-0.1,0.7-0.3s0.3-0.5,0.3-0.7
					v-36.8c0-9.4-7.5-17-16.8-17c-13.4,0-16.4,9.2-16.8,15.5c0,0.6,0.2,1.1,0.7,1.4c0.5,0.2,1.3,0,1.3-0.5
					c0.7-6.8,2.7-14.2,14.7-14.3c8.1-0.1,14.7,6.7,14.8,15V210h-6.7c-0.3,0-0.5,0.1-0.7,0.3s-0.3,0.5-0.3,0.7v6.6h-13.6V211
					c0-0.3-0.1-0.5-0.3-0.7s-0.5-0.3-0.7-0.3h-7.1v-36.7c0-0.6-0.5-1-1-1c-0.6,0-1,0.5-1,1V211c0,0.3,0.1,0.5,0.3,0.7
					s0.4,0.3,0.7,0.3h7.1v5.6h-7.1c-0.3,0-0.5,0.1-0.7,0.3s-0.3,0.5-0.3,0.7c0,0.3,0.1,0.5,0.3,0.7
					C173.9,219.4,174.1,219.5,174.4,219.5z M174.4,175.3c0.6,0,1-0.5,1-1c0-0.6-0.5-1-1-1c-0.6,0-1,0.5-1,1
					C173.4,174.9,173.8,175.3,174.4,175.3z"/>
				<path class="st2" d="M171.5,219.5h11c0.3,0,0.5-0.1,0.7-0.3s0.3-0.5,0.3-0.7v-7.6c0-0.3-0.1-0.5-0.3-0.7s-0.5-0.3-0.7-0.3h-11
					c-0.3,0-0.5,0.1-0.7,0.3s-0.3,0.5-0.3,0.7v7.6c0,0.3,0.1,0.5,0.3,0.7S171.2,219.5,171.5,219.5z M181.5,217.5h-9v-5.6h9V217.5z"
					/>
				<path class="st2" d="M198.1,219.5h11c0.3,0,0.5-0.1,0.7-0.3s0.3-0.5,0.3-0.7v-7.6c0-0.3-0.1-0.5-0.3-0.7s-0.5-0.3-0.7-0.3h-11
					c-0.3,0-0.5,0.1-0.7,0.3s-0.3,0.5-0.3,0.7v7.6c0,0.3,0.1,0.5,0.3,0.7S197.9,219.5,198.1,219.5z M208.1,217.5h-9v-5.6h9V217.5z"
					/>
				<path class="st2" d="M183,138.5h14.3c0.3,0,0.5-0.1,0.7-0.3s0.3-0.5,0.3-0.7v-24.1c0-0.3-0.1-0.5-0.3-0.7s-0.4-0.3-0.7-0.3H183
					c-0.3,0-0.5,0.1-0.7,0.3c-0.2,0.2-0.3,0.5-0.3,0.7v24.1c0,0.3,0.1,0.5,0.3,0.7S182.7,138.5,183,138.5z M196.3,114.4v22.1H184
					v-22.1H196.3z"/>
				<path class="st2" d="M186.4,138.5h7.6c0.3,0,0.5-0.1,0.7-0.3s0.3-0.5,0.3-0.7v-24.1c0-0.3-0.1-0.5-0.3-0.7s-0.5-0.3-0.7-0.3
					h-7.6c-0.3,0-0.5,0.1-0.7,0.3c-0.2,0.2-0.3,0.5-0.3,0.7v24.1c0,0.3,0.1,0.5,0.3,0.7S186.1,138.5,186.4,138.5z M193,136.4h-5.5
					v-22.1h5.5V136.4z"/>
				<path class="st2" d="M52.9,267.4c0.6,0,1-0.5,1-1c0-0.6-0.5-1-1-1h-8.8l3.7-13.8h67.9l0,0c0.6,0,1-0.5,1-1c0-0.6-0.5-1-1-1H47
					c-0.5,0-0.9,0.3-1,0.8l-4.3,15.9c-0.1,0.3,0,0.6,0.2,0.9c0.2,0.2,0.5,0.4,0.8,0.4L52.9,267.4z M59.7,267.4c0.6,0,1-0.5,1-1
					c0-0.6-0.5-1-1-1c-0.6,0-1,0.5-1,1S59.1,267.4,59.7,267.4z M66.5,267.4h95.2c0.6,0,1-0.5,1-1c0-0.6-0.5-1-1-1H66.5
					c-0.6,0-1,0.5-1,1S65.9,267.4,66.5,267.4z M168.5,267.4c0.6,0,1-0.5,1-1c0-0.6-0.5-1-1-1c-0.6,0-1,0.5-1,1
					S167.9,267.4,168.5,267.4z M175.3,267.4h95.2c0.6,0,1-0.5,1-1c0-0.6-0.5-1-1-1h-95.2c-0.6,0-1,0.5-1,1S174.8,267.4,175.3,267.4z
					 M277.3,267.4c0.6,0,1-0.5,1-1c0-0.6-0.5-1-1-1c-0.6,0-1,0.5-1,1S276.8,267.4,277.3,267.4z M284.1,267.4h53.5
					c0.3,0,0.6-0.2,0.8-0.4c0.2-0.3,0.3-0.6,0.2-0.9l-4.3-15.9c-0.1-0.4-0.5-0.8-1-0.8h-95.2c-0.6,0-1,0.5-1,1c0,0.6,0.5,1,1,1h94.4
					l3.8,13.9h-52.2c-0.6,0-1,0.5-1,1C283.1,266.9,283.6,267.4,284.1,267.4z M122.5,251.5c0.6,0,1-0.5,1-1c0-0.6-0.5-1-1-1
					c-0.6,0-1,0.5-1,1C121.4,251,121.9,251.5,122.5,251.5z M129.3,251.5h95.2c0.6,0,1-0.5,1-1c0-0.6-0.5-1-1-1h-95.2
					c-0.6,0-1,0.5-1,1C128.2,251,128.7,251.5,129.3,251.5z M231.3,251.5c0.6,0,1-0.5,1-1c0-0.6-0.5-1-1-1c-0.6,0-1,0.5-1,1
					S230.7,251.5,231.3,251.5z"/>
				<path class="st2" d="M32.6,283.2c0.6,0,1-0.5,1-1c0-0.6-0.5-1-1-1c-0.6,0-1,0.5-1,1C31.6,282.7,32.1,283.2,32.6,283.2z
					 M39.4,283.2h95.2c0.6,0,1-0.5,1-1c0-0.6-0.5-1-1-1H39.4c-0.6,0-1,0.5-1,1S38.9,283.2,39.4,283.2z M141.5,283.2c0.6,0,1-0.5,1-1
					c0-0.6-0.5-1-1-1c-0.6,0-1,0.5-1,1C140.4,282.7,140.9,283.2,141.5,283.2z M148.3,283.2h95.2c0.6,0,1-0.5,1-1c0-0.6-0.5-1-1-1
					h-95.2c-0.6,0-1,0.5-1,1C147.2,282.7,147.7,283.2,148.3,283.2z M250.3,283.2c0.6,0,1-0.5,1-1c0-0.6-0.5-1-1-1c-0.6,0-1,0.5-1,1
					S249.7,283.2,250.3,283.2z M257.1,283.2h95.2c0.3,0,0.6-0.2,0.8-0.4c0.2-0.3,0.3-0.6,0.2-0.9l-4.3-15.8c-0.1-0.4-0.5-0.8-1-0.8
					h-3.3c-0.6,0-1,0.5-1,1c0,0.6,0.5,1,1,1h2.6l3.8,13.8h-93.9c-0.6,0-1,0.5-1,1C256.1,282.7,256.5,283.2,257.1,283.2z M28.6,281.1
					c0.2,0,0.3,0,0.5-0.1c0.3-0.1,0.4-0.4,0.5-0.6l3.6-13h80.3c0.6,0,1-0.5,1-1c0-0.6-0.5-1-1-1h-81c-0.5,0-0.9,0.3-1,0.8l-3.8,13.7
					l0,0c-0.1,0.2,0,0.4,0,0.7c0.1,0.1,0.2,0.3,0.3,0.4c0.1,0.1,0.3,0.2,0.4,0.2C28.4,281.1,28.5,281.1,28.6,281.1z M120.2,267.4
					c0.6,0,1-0.5,1-1c0-0.6-0.5-1-1-1c-0.6,0-1,0.5-1,1S119.6,267.4,120.2,267.4z M127,267.4h95.2c0.6,0,1-0.5,1-1c0-0.6-0.5-1-1-1
					H127c-0.6,0-1,0.5-1,1S126.4,267.4,127,267.4z M229,267.4c0.6,0,1-0.5,1-1c0-0.6-0.5-1-1-1c-0.6,0-1,0.5-1,1
					S228.4,267.4,229,267.4z M235.8,267.4H331c0.6,0,1-0.5,1-1c0-0.6-0.5-1-1-1h-95.2c-0.6,0-1,0.5-1,1S235.2,267.4,235.8,267.4z
					 M337.8,267.4c0.6,0,1-0.5,1-1c0-0.6-0.5-1-1-1c-0.6,0-1,0.5-1,1S337.3,267.4,337.8,267.4z"/>
				<path class="st2" d="M146.2,258.8h88.2c0.3,0,0.5-0.1,0.7-0.3c0.2-0.2,0.3-0.5,0.3-0.7v-7.3c0-0.3-0.1-0.5-0.3-0.7
					s-0.4-0.3-0.7-0.3h-74.9c-0.6,0-1,0.5-1,1c0,0.6,0.5,1,1,1h73.9v5.3h-86.2v-6c0-0.6-0.5-1-1-1c-0.6,0-1,0.5-1,1v7.1
					c0,0.3,0.1,0.5,0.3,0.7C145.6,258.7,145.9,258.8,146.2,258.8z M152.7,251.5c0.6,0,1-0.5,1-1c0-0.6-0.5-1-1-1s-1,0.5-1,1
					S152.1,251.5,152.7,251.5z"/>
				<path class="st2" d="M146.2,267.4h88.2c0.3,0,0.5-0.1,0.7-0.3c0.2-0.2,0.3-0.5,0.3-0.7v-8.6c0-0.3-0.1-0.5-0.3-0.7
					s-0.4-0.3-0.7-0.3h-76.1c-0.6,0-1,0.5-1,1c0,0.6,0.5,1,1,1h75.1v6.5h-86.2v-6c0-0.6-0.5-1-1-1c-0.6,0-1,0.5-1,1v7.1
					c0,0.3,0.1,0.5,0.3,0.7C145.6,267.3,145.9,267.4,146.2,267.4z M151.5,258.8c0.6,0,1-0.5,1-1c0-0.6-0.5-1-1-1c-0.6,0-1,0.5-1,1
					C150.5,258.4,150.9,258.8,151.5,258.8z"/>
				<path class="st2" d="M139.6,275c0.6,0,1-0.5,1-1c0-0.6-0.5-1-1-1c-0.6,0-1,0.5-1,1S139,275,139.6,275z M146.4,275h95.2
					c0.3,0,0.5-0.1,0.7-0.3c0.2-0.2,0.3-0.5,0.3-0.7v-3.2c0-0.6-0.5-1-1-1c-0.6,0-1,0.5-1,1v2.2h-94.2c-0.6,0-1,0.5-1,1
					S145.8,275,146.4,275z M138.8,269c0.6,0,1-0.5,1-1v-0.6h92.6c0.6,0,1-0.5,1-1c0-0.6-0.5-1-1-1h-93.6c-0.3,0-0.5,0.1-0.7,0.3
					c-0.2,0.2-0.3,0.4-0.3,0.7v1.6l0,0C137.7,268.5,138.2,269,138.8,269z M239.2,267.4c0.6,0,1-0.5,1-1c0-0.6-0.5-1-1-1
					c-0.6,0-1,0.5-1,1S238.6,267.4,239.2,267.4z"/>
				<path class="st2" d="M139.6,283.2c0.6,0,1-0.5,1-1c0-0.6-0.5-1-1-1c-0.6,0-1,0.5-1,1S139,283.2,139.6,283.2z M146.4,283.2h95.2
					c0.3,0,0.5-0.1,0.7-0.3c0.2-0.2,0.3-0.5,0.3-0.7v-4.4c0-0.6-0.5-1-1-1c-0.6,0-1,0.5-1,1v3.4h-94.2c-0.6,0-1,0.5-1,1
					S145.8,283.2,146.4,283.2z M138.8,277.2c0.6,0,1-0.5,1-1V275h92c0.6,0,1-0.5,1-1c0-0.6-0.5-1-1-1h-93c-0.3,0-0.5,0.1-0.7,0.3
					c-0.2,0.2-0.3,0.5-0.3,0.7v2.2C137.7,276.7,138.2,277.2,138.8,277.2z M238.6,275c0.6,0,1-0.5,1-1c0-0.6-0.5-1-1-1
					c-0.6,0-1,0.5-1,1S238,275,238.6,275z"/>
				<path class="st2" d="M142,267.4h4.2c0.3,0,0.5-0.1,0.7-0.3c0.2-0.2,0.3-0.5,0.3-0.7v-15.9c0-0.3-0.1-0.5-0.3-0.7
					s-0.4-0.3-0.7-0.3H142c-0.3,0-0.5,0.1-0.7,0.3s-0.3,0.5-0.3,0.7v15.9c0,0.3,0.1,0.5,0.3,0.7C141.5,267.3,141.7,267.4,142,267.4z
					 M145.2,265.3H143v-13.9h2.1L145.2,265.3L145.2,265.3z"/>
				<path class="st2" d="M234.4,267.4h4.3c0.3,0,0.5-0.1,0.7-0.3c0.2-0.2,0.3-0.5,0.3-0.7v-15.9c0-0.3-0.1-0.5-0.3-0.7
					s-0.5-0.3-0.7-0.3h-4.3c-0.3,0-0.5,0.1-0.7,0.3s-0.3,0.5-0.3,0.7v15.9c0,0.3,0.1,0.5,0.3,0.7
					C233.8,267.3,234.1,267.4,234.4,267.4z M237.6,265.3h-2.2v-13.9h2.2V265.3z"/>
				<path class="st2" d="M134.5,283.2h4.3c0.3,0,0.5-0.1,0.7-0.3c0.2-0.2,0.3-0.5,0.3-0.7v-15.8c0-0.3-0.1-0.5-0.3-0.7
					s-0.5-0.3-0.7-0.3h-4.3c-0.3,0-0.5,0.1-0.7,0.3c-0.2,0.2-0.3,0.5-0.3,0.7v15.8c0,0.3,0.1,0.5,0.3,0.7
					C134,283.1,134.2,283.2,134.5,283.2z M137.7,281.1h-2.2v-13.8h2.2V281.1z"/>
				<path class="st2" d="M241.6,283.2h4.2c0.3,0,0.5-0.1,0.7-0.3c0.2-0.2,0.3-0.5,0.3-0.7v-15.8c0-0.3-0.1-0.5-0.3-0.7
					s-0.5-0.3-0.7-0.3h-4.2c-0.3,0-0.5,0.1-0.7,0.3c-0.2,0.2-0.3,0.5-0.3,0.7v15.8c0,0.3,0.1,0.5,0.3,0.7
					C241.1,283.1,241.3,283.2,241.6,283.2z M244.8,281.1h-2.1v-13.8h2.1V281.1z"/>
				<path class="st2" d="M149,235.4c0.6,0,1-0.5,1-1c0-0.6-0.5-1-1-1H76.5l3-13.8H84l0,0c0.6,0,1-0.5,1-1c0-0.6-0.5-1-1-1h-5.4
					c-0.5,0-0.9,0.3-1,0.8l-3.4,15.9c-0.1,0.3,0,0.6,0.2,0.9c0.2,0.2,0.5,0.4,0.8,0.4H149V235.4z M155.8,235.4c0.6,0,1-0.5,1-1
					c0-0.6-0.5-1-1-1c-0.6,0-1,0.5-1,1C154.7,234.9,155.2,235.4,155.8,235.4z M162.6,235.4h95.2c0.6,0,1-0.5,1-1c0-0.6-0.5-1-1-1
					h-95.2c-0.6,0-1,0.5-1,1C161.5,234.9,162,235.4,162.6,235.4z M264.6,235.4c0.6,0,1-0.5,1-1c0-0.6-0.5-1-1-1c-0.6,0-1,0.5-1,1
					S264,235.4,264.6,235.4z M271.4,235.4H305c0.3,0,0.6-0.1,0.8-0.4c0.2-0.2,0.3-0.6,0.2-0.9l-3.3-15.9c-0.1-0.5-0.5-0.8-1-0.8
					h-95.2c-0.6,0-1,0.5-1,1c0,0.6,0.5,1,1,1h94.4l2.9,13.8h-32.4c-0.6,0-1,0.5-1,1C270.4,234.9,270.8,235.4,271.4,235.4z
					 M90.8,219.5c0.6,0,1-0.5,1-1c0-0.6-0.5-1-1-1c-0.6,0-1,0.5-1,1S90.3,219.5,90.8,219.5z M82.7,219.5h110.2c0.6,0,1-0.5,1-1
					c0-0.6-0.5-1-1-1H82.7c-0.6,0-1,0.5-1,1S82.1,219.5,82.7,219.5z M199.7,219.5c0.6,0,1-0.5,1-1c0-0.6-0.5-1-1-1c-0.6,0-1,0.5-1,1
					C198.6,219,199.1,219.5,199.7,219.5z"/>
				<path class="st2" d="M63.9,251.5h34.9c0.6,0,1-0.5,1-1c0-0.6-0.5-1-1-1H65.1l2.9-14h43.1c0.6,0,1-0.5,1-1c0-0.6-0.5-1-1-1h-44
					c-0.5,0-0.9,0.3-1,0.8l-3.3,16.1c-0.1,0.3,0,0.6,0.2,0.9C63.3,251.3,63.6,251.5,63.9,251.5z M105.6,251.5c0.6,0,1-0.5,1-1
					c0-0.6-0.5-1-1-1c-0.6,0-1,0.5-1,1S105,251.5,105.6,251.5z M112.4,251.5h95.2c0.6,0,1-0.5,1-1c0-0.6-0.5-1-1-1h-95.2
					c-0.6,0-1,0.5-1,1C111.4,251,111.8,251.5,112.4,251.5z M214.4,251.5c0.6,0,1-0.5,1-1c0-0.6-0.5-1-1-1c-0.6,0-1,0.5-1,1
					S213.8,251.5,214.4,251.5z M221.2,251.5h95.2c0.6,0,1-0.5,1-1c0-0.2,0-0.4-0.1-0.5c0-0.1,0-0.2,0-0.3l-3.2-15.4
					c-0.1-0.5-0.5-0.8-1-0.8h-79.6c-0.6,0-1,0.5-1,1c0,0.6,0.5,1,1,1h78.7l2.9,14h-94c-0.6,0-1,0.5-1,1
					C220.2,251,220.6,251.5,221.2,251.5z M117.9,235.4c0.6,0,1-0.5,1-1c0-0.6-0.5-1-1-1c-0.6,0-1,0.5-1,1S117.4,235.4,117.9,235.4z
					 M124.7,235.4H220c0.6,0,1-0.5,1-1c0-0.6-0.5-1-1-1h-95.2c-0.6,0-1,0.5-1,1C123.7,234.9,124.2,235.4,124.7,235.4z M226.8,235.4
					c0.6,0,1-0.5,1-1c0-0.6-0.5-1-1-1c-0.6,0-1,0.5-1,1C225.7,234.9,226.2,235.4,226.8,235.4z"/>
				<path class="st2" d="M155.9,226.9h68.8c0.3,0,0.5-0.1,0.7-0.3s0.3-0.5,0.3-0.7v-7.4c0-0.3-0.1-0.5-0.3-0.7s-0.4-0.3-0.7-0.3
					h-36.1c-0.6,0-1,0.5-1,1c0,0.6,0.4,1,1,1l0,0h35.1v5.4H157v-5.4h18c0.6,0,1-0.5,1-1c0-0.6-0.5-1-1-1h-19.1
					c-0.3,0-0.5,0.1-0.7,0.3s-0.3,0.5-0.3,0.7v7.4c0,0.3,0.1,0.5,0.3,0.7C155.4,226.8,155.6,226.9,155.9,226.9z M181.7,219.5
					c0.6,0,1-0.5,1-1c0-0.6-0.5-1-1-1c-0.6,0-1,0.5-1,1S181.2,219.5,181.7,219.5z"/>
				<path class="st2" d="M155.9,235.4h68.8c0.3,0,0.5-0.1,0.7-0.3s0.3-0.5,0.3-0.7v-8.5c0-0.3-0.1-0.5-0.3-0.7s-0.4-0.3-0.7-0.3
					h-37.1c-0.6,0-1,0.5-1,1l0,0c0,0.6,0.5,1,1,1h36.1v6.4H157v-6.4h17c0.6,0,1-0.5,1-1c0-0.6-0.5-1-1-1h-18c-0.3,0-0.5,0.1-0.7,0.3
					s-0.3,0.5-0.3,0.7v8.5c0,0.3,0.1,0.5,0.3,0.7C155.4,235.3,155.6,235.4,155.9,235.4z M180.7,226.9c0.6,0,1-0.5,1-1
					c0-0.6-0.5-1-1-1c-0.6,0-1,0.5-1,1C179.7,226.5,180.2,226.9,180.7,226.9z"/>
				<path class="st2" d="M150.1,243.1h80.1c0.3,0,0.5-0.1,0.7-0.3s0.3-0.5,0.3-0.7v-7.7c0-0.3-0.1-0.5-0.3-0.7s-0.5-0.3-0.7-0.3h-59
					c-0.6,0-1,0.5-1,1l0,0c0,0.6,0.5,1,1,1h58v5.6h-78.1v-5.6h6.4c0.6,0,1-0.5,1-1c0-0.6-0.5-1-1-1H150c-0.3,0-0.5,0.1-0.7,0.3
					s-0.3,0.5-0.3,0.7v7.7c0,0.3,0.1,0.5,0.3,0.7C149.6,243,149.8,243.1,150.1,243.1z M164.4,235.4c0.6,0,1-0.5,1-1c0-0.6-0.5-1-1-1
					c-0.6,0-1,0.5-1,1C163.3,234.9,163.8,235.4,164.4,235.4z"/>
				<path class="st2" d="M150.1,251.5h80.1c0.3,0,0.5-0.1,0.7-0.3s0.3-0.5,0.3-0.7v-8.4c0-0.3-0.1-0.5-0.3-0.7s-0.5-0.3-0.7-0.3
					h-59.7c-0.6,0-1,0.5-1,1c0,0.6,0.5,1,1,1h58.7v6.3h-78.1v-6.3h5.7c0.6,0,1-0.5,1-1c0-0.6-0.5-1-1-1H150c-0.3,0-0.5,0.1-0.7,0.3
					s-0.3,0.5-0.3,0.7v8.4c0,0.3,0.1,0.5,0.3,0.7C149.6,251.4,149.8,251.5,150.1,251.5z M163.7,243.1c0.6,0,1-0.5,1-1
					c0-0.6-0.5-1-1-1c-0.6,0-1,0.5-1,1S163.1,243.1,163.7,243.1z"/>
				<path class="st2" d="M152.6,235.4h3.2c0.3,0,0.5-0.1,0.7-0.3s0.3-0.5,0.3-0.7v-15.9c0-0.3-0.1-0.5-0.3-0.7s-0.5-0.3-0.7-0.3
					h-3.2c-0.3,0-0.5,0.1-0.7,0.3s-0.3,0.5-0.3,0.7v15.9c0,0.3,0.1,0.5,0.3,0.7C152.1,235.3,152.4,235.4,152.6,235.4z M154.9,219.5
					v13.8h-1.2v-13.8H154.9z"/>
				<path class="st2" d="M224.7,235.4h3.2c0.3,0,0.5-0.1,0.7-0.3s0.3-0.5,0.3-0.7v-15.9c0-0.3-0.1-0.5-0.3-0.7s-0.5-0.3-0.7-0.3
					h-3.2c-0.3,0-0.5,0.1-0.7,0.3s-0.3,0.5-0.3,0.7v15.9c0,0.3,0.1,0.5,0.3,0.7C224.1,235.3,224.4,235.4,224.7,235.4z M226.9,233.3
					h-1.2v-13.8h1.2V233.3z"/>
				<path class="st2" d="M146.9,251.3h3.2c0.3,0,0.5-0.1,0.7-0.3s0.3-0.5,0.3-0.7v-15.9c0-0.3-0.1-0.5-0.3-0.7s-0.5-0.3-0.7-0.3
					h-3.2c-0.3,0-0.5,0.1-0.7,0.3s-0.3,0.5-0.3,0.7v15.9c0,0.3,0.1,0.5,0.3,0.7C146.3,251.2,146.6,251.3,146.9,251.3z M149.1,249.3
					h-1.2v-13.9h1.2V249.3z"/>
				<path class="st2" d="M230.2,251.3h3.3c0.3,0,0.5-0.1,0.7-0.3s0.3-0.5,0.3-0.7v-15.9c0-0.3-0.1-0.5-0.3-0.7s-0.5-0.3-0.7-0.3
					h-3.3c-0.3,0-0.5,0.1-0.7,0.3s-0.3,0.5-0.3,0.7v15.9c0,0.3,0.1,0.5,0.3,0.7S229.9,251.3,230.2,251.3z M232.5,249.3h-1.3v-13.9
					h1.3V249.3z"/>
				<path class="st2" d="M243,254.5c0.6,0,1-0.5,1-1c0-0.6-0.5-1-1-1c-0.6,0-1,0.5-1,1S242.4,254.5,243,254.5z M249.7,254.5h84.4
					c0.3,0,0.6-0.2,0.8-0.4c0.2-0.3,0.3-0.6,0.2-0.9l-0.9-3c-0.1-0.4-0.5-0.7-1-0.7h-94.7c-0.3,0-0.5,0.1-0.7,0.3s-0.3,0.5-0.3,0.7
					v0.6c0,0.6,0.5,1,1,1c0.4,0,0.7-0.2,0.9-0.6h93l0.3,1h-83c-0.6,0-1,0.5-1,1C248.8,254,249.2,254.5,249.7,254.5L249.7,254.5z"/>
				<path class="st2" d="M56.9,254.5H142c0.3,0,0.5-0.1,0.7-0.3s0.3-0.5,0.3-0.7v-3c0-0.3-0.1-0.5-0.3-0.7s-0.5-0.3-0.7-0.3H47
					c-0.5,0-0.9,0.3-1,0.8v0.2c-0.1,0.3,0,0.5,0.1,0.8c0.1,0.2,0.4,0.4,0.6,0.5c0.3,0.1,0.6,0,0.9-0.2H141v1H56.9c-0.6,0-1,0.5-1,1
					C55.9,254,56.4,254.5,56.9,254.5z"/>
				<path class="st2" d="M170.7,283.2L170.7,283.2c0.6,0,1-0.5,1-1c0-0.6-0.5-1-1-1h-5.4l14.1-61.6h22.3c-0.3,0.2-0.4,0.6-0.3,1
					l13.6,60.7h-30.7c-0.6,0-1,0.5-1,1c0,0.6,0.5,1,1,1h32c0.3,0,0.6-0.1,0.8-0.4c0.2-0.2,0.3-0.6,0.2-0.9l-13.9-62
					c-0.1-0.4-0.4-0.7-0.7-0.8c0.2-0.2,0.4-0.5,0.4-0.8c0-0.6-0.5-1-1-1h-23.4c-0.5,0-0.9,0.3-1,0.8L163,281.9
					c-0.1,0.3,0,0.6,0.2,0.9c0.2,0.2,0.5,0.4,0.8,0.4L170.7,283.2L170.7,283.2z M177.5,283.2c0.6,0,1-0.5,1-1c0-0.6-0.5-1-1-1
					s-1,0.5-1,1S176.9,283.2,177.5,283.2z"/>
				<path class="st2" d="M129.1,153.7h31.1c0.3,0,0.5-0.1,0.7-0.3s0.3-0.5,0.3-0.7v-3.4c0-0.3-0.1-0.5-0.3-0.7s-0.5-0.3-0.7-0.3
					h-30.6c-0.5,0-0.9,0.4-1,0.9l-0.5,3.4l0,0c0,0.3,0,0.6,0.2,0.8C128.6,153.5,128.8,153.7,129.1,153.7z M159.2,151.6h-28.9
					l0.2-1.3h28.7V151.6z"/>
				<g>
					<path class="st2" d="M124.2,121.4L124.2,121.4H183c0.6,0,1-0.5,1-1c0-0.6-0.5-1-1-1h-58.8c-2.5,0-4.8-1-6.5-2.9
						c-0.4-0.4-1-0.4-1.4-0.1c-0.4,0.4-0.4,1-0.1,1.4C118.2,120.1,121.1,121.4,124.2,121.4z"/>
				</g>
				<g>
					<path class="st2" d="M256.1,121.4c3.1,0,5.9-1.2,8.1-3.5c0.2-0.2,0.3-0.5,0.3-0.7c0-0.3-0.1-0.5-0.3-0.7
						c-0.4-0.4-1.1-0.4-1.4,0c-1.8,1.9-4.1,2.9-6.6,2.9h-58.8c-0.6,0-1,0.5-1,1c0,0.6,0.5,1,1,1
						C197.4,121.4,256.1,121.4,256.1,121.4z"/>
				</g>
				<g>
					<path class="st2" d="M137.7,88.2h88.7c0.6,0,1-0.5,1-1c0-0.6-0.5-1-1-1h-88.6c-1.9,0-3.7-0.8-5-2.3l0,0c-0.4-0.4-1-0.4-1.4-0.1
						c-0.4,0.4-0.5,1-0.1,1.4C132.9,87.1,135.3,88.2,137.7,88.2z M233.2,88.2c0.6,0,1-0.5,1-1c0-0.6-0.5-1-1-1c-0.6,0-1,0.5-1,1
						S232.6,88.2,233.2,88.2z M240,88.2h2.6c2.5,0,5-1.1,6.6-3c0.4-0.4,0.3-1.1-0.1-1.4c-0.4-0.4-1.1-0.3-1.4,0.1
						c-1.3,1.5-3.2,2.3-5.1,2.3H240c-0.6,0-1,0.5-1,1S239.4,88.2,240,88.2z"/>
				</g>
				<g>
					<path class="st2" d="M182.5,219.5L182.5,219.5h15.7c0.3,0,0.5-0.1,0.7-0.3s0.3-0.5,0.3-0.7v-6.6h2c0.3,0,0.5-0.1,0.7-0.3
						s0.3-0.5,0.3-0.7v-10.1c0-0.6-0.5-1-1-1c-0.6,0-1,0.5-1,1v9.1h-2c-0.3,0-0.5,0.1-0.7,0.3s-0.3,0.5-0.3,0.7v6.6h-13.6v-6.6
						c0-0.3-0.1-0.5-0.3-0.7s-0.5-0.3-0.7-0.3h-2.3v-35.8c0-5.6,4.5-10.1,10-10.1s10,4.5,10,10.1v28c0,0.6,0.5,1,1,1
						c0.6,0,1-0.5,1-1v-28c0-6.7-5.4-12.2-12-12.2s-12,5.5-12,12.2v36.8c0,0.3,0.1,0.5,0.3,0.7s0.4,0.3,0.7,0.3h2.3v6.6
						C181.5,219,181.9,219.5,182.5,219.5z"/>
				</g>
				<g>
					<path class="st2" d="M32.3,267.5c0.6,0,1-0.5,1-1v-8.9c0-0.6-0.5-1-1-1c-0.6,0-1,0.5-1,1v8.9C31.3,267,31.8,267.5,32.3,267.5z"
						/>
				</g>
				<g>
					<path class="st2" d="M348,267.5c0.6,0,1-0.5,1-1v-8.9c0-0.6-0.5-1-1-1c-0.6,0-1,0.5-1,1v8.9C346.9,267,347.4,267.5,348,267.5z"
						/>
				</g>
				<g>
					<path class="st2" d="M46.9,251.9c0.6,0,1-0.5,1-1V242c0-0.6-0.5-1-1-1s-1,0.5-1,1v8.9C45.9,251.4,46.3,251.9,46.9,251.9z"/>
				</g>
				<g>
					<path class="st2" d="M333.3,251.9c0.6,0,1-0.5,1-1V242c0-0.6-0.5-1-1-1c-0.6,0-1,0.5-1,1v8.9
						C332.3,251.4,332.7,251.9,333.3,251.9z"/>
				</g>
				<g>
					<path class="st2" d="M67.2,235.6c0.6,0,1-0.5,1-1v-9c0-0.6-0.5-1-1-1c-0.6,0-1,0.5-1,1v9C66.2,235.1,66.6,235.6,67.2,235.6z"/>
				</g>
				<g>
					<path class="st2" d="M313,235.6c0.6,0,1-0.5,1-1v-9c0-0.6-0.5-1-1-1c-0.6,0-1,0.5-1,1v9C312,235.1,312.5,235.6,313,235.6z"/>
				</g>
				<g>
					<path class="st2" d="M78.6,220c0.6,0,1-0.5,1-1v-8.9c0-0.6-0.5-1-1-1c-0.6,0-1,0.5-1,1v8.9C77.6,219.6,78,220,78.6,220z"/>
				</g>
				<g>
					<path class="st2" d="M301.7,220c0.6,0,1-0.5,1-1v-8.9c0-0.6-0.5-1-1-1c-0.6,0-1,0.5-1,1v8.9C300.7,219.6,301.1,220,301.7,220z"
						/>
				</g>
				<g>
					<path class="st2" d="M293.7,235.4c0.6,0,1-0.5,1-1v-9.2c0-0.6-0.5-1-1-1c-0.6,0-1,0.5-1,1v9.2
						C292.7,234.9,293.1,235.4,293.7,235.4z"/>
				</g>
				<g>
					<path class="st2" d="M278.9,235.4c0.6,0,1-0.5,1-1v-9.2c0-0.6-0.5-1-1-1c-0.6,0-1,0.5-1,1v9.2
						C277.9,234.9,278.4,235.4,278.9,235.4z"/>
				</g>
				<g>
					<path class="st2" d="M264.3,235.4c0.6,0,1-0.5,1-1v-9.2c0-0.6-0.5-1-1-1c-0.6,0-1,0.5-1,1v9.2
						C263.3,234.9,263.7,235.4,264.3,235.4z"/>
				</g>
				<g>
					<path class="st2" d="M249.5,235.4c0.6,0,1-0.5,1-1v-9.2c0-0.6-0.5-1-1-1c-0.6,0-1,0.5-1,1v9.2
						C248.5,234.9,249,235.4,249.5,235.4z"/>
				</g>
				<g>
					<path class="st2" d="M234.8,235.4c0.6,0,1-0.5,1-1v-9.2c0-0.6-0.5-1-1-1c-0.6,0-1,0.5-1,1v9.2
						C233.8,234.9,234.2,235.4,234.8,235.4z"/>
				</g>
				<g>
					<path class="st2" d="M145.7,235.4c0.6,0,1-0.5,1-1v-9.2c0-0.6-0.5-1-1-1c-0.6,0-1,0.5-1,1v9.2
						C144.7,234.9,145.2,235.4,145.7,235.4z"/>
				</g>
				<g>
					<path class="st2" d="M131,235.4c0.6,0,1-0.5,1-1v-9.2c0-0.6-0.5-1-1-1c-0.6,0-1,0.5-1,1v9.2C130,234.9,130.4,235.4,131,235.4z"
						/>
				</g>
				<g>
					<path class="st2" d="M116.3,235.4c0.6,0,1-0.5,1-1v-9.2c0-0.6-0.5-1-1-1c-0.6,0-1,0.5-1,1v9.2
						C115.2,234.9,115.7,235.4,116.3,235.4z"/>
				</g>
				<g>
					<path class="st2" d="M101.6,235.4c0.6,0,1-0.5,1-1v-9.2c0-0.6-0.5-1-1-1c-0.6,0-1,0.5-1,1v9.2
						C100.6,234.9,101,235.4,101.6,235.4z"/>
				</g>
				<g>
					<path class="st2" d="M86.9,235.4c0.6,0,1-0.5,1-1v-9.2c0-0.6-0.5-1-1-1c-0.6,0-1,0.5-1,1v9.2C85.8,234.9,86.3,235.4,86.9,235.4
						z"/>
				</g>
				<g>
					<path class="st2" d="M323,267.4c0.6,0,1-0.5,1-1v-9.5c0-0.6-0.5-1-1-1c-0.6,0-1,0.5-1,1v9.5C322,266.9,322.4,267.4,323,267.4z"
						/>
				</g>
				<g>
					<path class="st2" d="M308.3,267.4c0.6,0,1-0.5,1-1v-9.5c0-0.6-0.5-1-1-1c-0.6,0-1,0.5-1,1v9.5
						C307.3,266.9,307.8,267.4,308.3,267.4z"/>
				</g>
				<g>
					<path class="st2" d="M293.6,267.4c0.6,0,1-0.5,1-1v-9.5c0-0.6-0.5-1-1-1c-0.6,0-1,0.5-1,1v9.5
						C292.6,266.9,293,267.4,293.6,267.4z"/>
				</g>
				<g>
					<path class="st2" d="M278.9,267.4c0.6,0,1-0.5,1-1v-9.5c0-0.6-0.5-1-1-1c-0.6,0-1,0.5-1,1v9.5
						C277.9,266.9,278.4,267.4,278.9,267.4z"/>
				</g>
				<g>
					<path class="st2" d="M264.2,267.4c0.6,0,1-0.5,1-1v-9.5c0-0.6-0.5-1-1-1c-0.6,0-1,0.5-1,1v9.5
						C263.2,266.9,263.6,267.4,264.2,267.4z"/>
				</g>
				<g>
					<path class="st2" d="M131.2,267.4c0.6,0,1-0.5,1-1v-9.5c0-0.6-0.5-1-1-1c-0.6,0-1,0.5-1,1v9.5
						C130.2,266.9,130.6,267.4,131.2,267.4z"/>
				</g>
				<g>
					<path class="st2" d="M116.5,267.4c0.6,0,1-0.5,1-1v-9.5c0-0.6-0.5-1-1-1c-0.6,0-1,0.5-1,1v9.5
						C115.5,266.9,116,267.4,116.5,267.4z"/>
				</g>
				<g>
					<path class="st2" d="M101.8,267.4c0.6,0,1-0.5,1-1v-9.5c0-0.6-0.5-1-1-1c-0.6,0-1,0.5-1,1v9.5
						C100.8,266.9,101.2,267.4,101.8,267.4z"/>
				</g>
				<g>
					<path class="st2" d="M87,267.4c0.6,0,1-0.5,1-1v-9.5c0-0.6-0.5-1-1-1c-0.6,0-1,0.5-1,1v9.5C86,266.9,86.5,267.4,87,267.4z"/>
				</g>
				<g>
					<path class="st2" d="M72.4,267.4c0.6,0,1-0.5,1-1v-9.5c0-0.6-0.5-1-1-1c-0.6,0-1,0.5-1,1v9.5C71.4,266.9,71.8,267.4,72.4,267.4
						z"/>
				</g>
				<g>
					<path class="st2" d="M57.4,267.4c0.6,0,1-0.5,1-1v-9.5c0-0.6-0.5-1-1-1c-0.6,0-1,0.5-1,1v9.5C56.4,266.9,56.8,267.4,57.4,267.4
						z"/>
				</g>
				<g>
					<path class="st2" d="M249.5,267.4c0.6,0,1-0.5,1-1v-9.5c0-0.6-0.5-1-1-1c-0.6,0-1,0.5-1,1v9.5
						C248.5,266.9,249,267.4,249.5,267.4z"/>
				</g>
				<g>
					<path class="st2" d="M127.7,159.5h11.2c0.6,0,1-0.5,1-1c0-0.6-0.5-1-1-1h-11.2c-0.6,0-1,0.5-1,1S127.1,159.5,127.7,159.5z"/>
				</g>
				<g>
					<path class="st2" d="M148.8,167H160c0.6,0,1-0.5,1-1c0-0.6-0.5-1-1-1h-11.2c-0.6,0-1,0.5-1,1S148.3,167,148.8,167z"/>
				</g>
				<g>
					<path class="st2" d="M122.7,189.3H134c0.6,0,1-0.5,1-1c0-0.6-0.5-1-1-1h-11.2c-0.6,0-1,0.5-1,1
						C121.7,188.9,122.2,189.3,122.7,189.3z"/>
				</g>
				<g>
					<path class="st2" d="M121.3,197h20c0.6,0,1-0.5,1-1c0-0.6-0.5-1-1-1h-20c-0.6,0-1,0.5-1,1C120.3,196.6,120.7,197,121.3,197z"/>
				</g>
				<g>
					<path class="st2" d="M240.9,159.5h11.2c0.6,0,1-0.5,1-1c0-0.6-0.5-1-1-1h-11.2c-0.6,0-1,0.5-1,1S240.4,159.5,240.9,159.5z"/>
				</g>
				<g>
					<path class="st2" d="M219.8,167H231c0.6,0,1-0.5,1-1c0-0.6-0.5-1-1-1h-11.2c-0.6,0-1,0.5-1,1S219.2,167,219.8,167z"/>
				</g>
				<g>
					<path class="st2" d="M245.9,189.3h11.3c0.6,0,1-0.5,1-1c0-0.6-0.5-1-1-1h-11.3c-0.6,0-1,0.5-1,1
						C244.8,188.9,245.3,189.3,245.9,189.3z"/>
				</g>
				<g>
					<path class="st2" d="M238.6,197h19.9c0.6,0,1-0.5,1-1c0-0.6-0.5-1-1-1h-19.9c-0.6,0-1,0.5-1,1C237.6,196.6,238.1,197,238.6,197
						z"/>
				</g>
			</g>
			<g>
				<g>
					<path class="st2" d="M440.4,206.2L440.4,206.2c0.2-0.4,0-0.9-0.3-1.2c-1.5-1.6-7.1-0.8-8.9-0.8c-8.4-0.2-16.9-0.3-25.3-0.4
						c-28.4-0.3-56.8-0.4-85.2-0.5c-19.5,0-39.1,0-58.6,0c-1.6,0-1.6,2.5,0,2.5c54.2,0,108.5-0.3,162.8,0.8c3.2,0.1,6.5,0.1,9.7,0.3
						c0.9,0,2,0.3,2.8,0.1c0.3,0,0.8,0.2,1,0.1h0.2c0.7-0.5-4.2,7.6-0.6-1.4C437.4,207.1,439.9,207.7,440.4,206.2L440.4,206.2z"/>
				</g>
			</g>
			<g>
				<g>
					<path class="st2" d="M506.6,155.1c-12.2-2-19,9.2-20.8,19.7c-0.3,1.6,2.1,2.2,2.4,0.7c1-5.3-7.6-3.1-10-2
						c-5.7,2.6-9.3,8-9.8,14.2c0.6-0.4,1.3-0.7,1.9-1.1c-6.8-3-14.5-0.5-18,6c-0.8,1.4,1.4,2.7,2.2,1.3c2.8-5.3,9.1-7.6,14.6-5.1
						c0.9,0.4,1.8-0.1,1.9-1.1c0.3-3.9,2.1-7.3,5.1-9.8c1.3-1.1,2.6-2,4.3-2.6c0.8-0.3,5.7-1.1,5.6-0.5c0.8,0.2,1.6,0.4,2.4,0.7
						c1.5-8.9,6.8-19.7,17.7-18C507.5,157.7,508.2,155.3,506.6,155.1L506.6,155.1z"/>
				</g>
			</g>
			<g>
				<g>
					<path class="st2" d="M523.6,186.5c-11.5-1-20.8,7.1-21.8,18.6c0.8-0.1,1.6-0.2,2.5-0.3c-0.9-6-12.9-5.3-17-4.3
						c-7.7,1.9-11.2,9.3-12.9,16.4c-0.4,1.6,2,2.2,2.4,0.7c1.2-5,3.2-10.6,7.9-13.4c2.8-1.7,16.4-3.8,17.2,1.2
						c0.2,1.5,2.3,1,2.5-0.3c0.8-10.2,9.2-17,19.3-16.1C525.2,189.1,525.2,186.6,523.6,186.5L523.6,186.5z"/>
				</g>
			</g>
			<g>
				<g>
					<path class="st2" d="M520.9,231.2c-11-0.9-19.8,6.6-21.1,17.4c0.6-0.4,1.3-0.7,1.9-1.1c-6.8-4-15.2-2.7-20.5,3.1
						c-1.1,1.2,0.7,2.9,1.8,1.8c4.6-5,11.7-6.1,17.5-2.7c0.9,0.5,1.8-0.2,1.9-1.1c1.1-9.5,9.1-15.7,18.6-14.9
						C522.5,233.8,522.5,231.3,520.9,231.2L520.9,231.2z"/>
				</g>
			</g>
			<g>
				<g>
					<path class="st2" d="M492.2,244.5c-3.2-7.2-13.3-4.1-18.3-0.9c0.6,0.2,1.2,0.5,1.8,0.7c-0.8-5.8-7.9-7-12.6-6.1
						c-1.6,0.3-0.9,2.7,0.7,2.4c3.2-0.6,8.9-0.3,9.6,4.3c0.1,0.8,1.2,1.1,1.8,0.7c3.7-2.4,12.3-5.8,14.8,0
						C490.7,247.3,492.8,246,492.2,244.5L492.2,244.5z"/>
				</g>
			</g>
			<g>
				<g>
					<path class="st2" d="M448.9,275.4c-15.7,0-31.4,0-47.1,0c-1.6,0-1.6,2.5,0,2.5c15.7,0,31.4,0,47.1,0
						C450.5,277.8,450.5,275.4,448.9,275.4L448.9,275.4z"/>
				</g>
			</g>
			<g>
				<g>
					<path class="st2" d="M419.5,267.6c-6.8,0-13.6,0-20.4,0c-1.6,0-1.6,2.5,0,2.5c6.8,0,13.6,0,20.4,0
						C421.1,270.1,421.1,267.6,419.5,267.6L419.5,267.6z"/>
				</g>
			</g>
			<g>
				<g>
					<path class="st2" d="M404.8,238.9c-14.8,0-29.6,0-44.3,0c-1.6,0-1.6,2.5,0,2.5c14.8,0,29.6,0,44.3,0
						C406.4,241.3,406.4,238.9,404.8,238.9L404.8,238.9z"/>
				</g>
			</g>
			<g>
				<g>
					<path class="st2" d="M452.4,191.4c-63.8,0-127.5,0-191.3,0c-1.6,0-1.6,2.5,0,2.5c63.8,0,127.5,0,191.3,0
						C454,193.8,454,191.4,452.4,191.4L452.4,191.4z"/>
				</g>
			</g>
			<g>
				<g>
					<path class="st2" d="M300.7,193.6c1.6,0,1.6-2.5,0-2.5S299.1,193.6,300.7,193.6L300.7,193.6z"/>
				</g>
			</g>
			<g>
				<g>
					<path class="st2" d="M298.6,192.6c0.1,3.9,0.3,7.8,0.7,11.7c0.1,1.6,2.6,1.6,2.5,0c-0.3-3.9-0.6-7.8-0.7-11.7
						C301.1,191,298.6,191,298.6,192.6L298.6,192.6z"/>
				</g>
			</g>
			<g>
				<g>
					<path class="st2" d="M369.2,193.6c0,3.3,0,6.7,0,10c0,1.6,2.5,1.6,2.5,0c0-3.3,0-6.7,0-10C371.7,192,369.2,192,369.2,193.6
						L369.2,193.6z"/>
				</g>
			</g>
			<g>
				<g>
					<path class="st2" d="M451.4,194.3c0,3.7,0,7.3,0,11c0,1.6,2.5,1.6,2.5,0c0-3.7,0-7.3,0-11C453.8,192.7,451.4,192.7,451.4,194.3
						L451.4,194.3z"/>
				</g>
			</g>
			<g>
				<g>
					<path class="st2" d="M452.1,204.1c-5.8,0-11.6,0-17.4,0c-1.6,0-1.6,2.5,0,2.5c5.8,0,11.6,0,17.4,0
						C453.7,206.6,453.7,204.1,452.1,204.1L452.1,204.1z"/>
				</g>
			</g>
			<g>
				<g>
					<path class="st2" d="M451.6,205.6c0,32.8,0,65.5,0,98.3c0,1.6,2.5,1.6,2.5,0c0-32.8,0-65.5,0-98.3
						C454.1,204,451.6,204,451.6,205.6L451.6,205.6z"/>
				</g>
			</g>
			<g>
				<g>
					<path class="st2" d="M438.2,185.1c0,2,0,4,0,6c0,1.6,2.5,1.6,2.5,0c0-2,0-4,0-6C440.6,183.5,438.2,183.5,438.2,185.1
						L438.2,185.1z"/>
				</g>
			</g>
			<g>
				<g>
					<path class="st2" d="M422.7,185.1c0,2,0,4,0,6c0,1.6,2.5,1.6,2.5,0c0-2,0-4,0-6C425.2,183.5,422.7,183.5,422.7,185.1
						L422.7,185.1z"/>
				</g>
			</g>
			<g>
				<g>
					<path class="st2" d="M407.3,185.1c0,2,0,4,0,6c0,1.6,2.5,1.6,2.5,0c0-2,0-4,0-6C409.8,183.5,407.3,183.5,407.3,185.1
						L407.3,185.1z"/>
				</g>
			</g>
			<g>
				<g>
					<path class="st2" d="M391.8,185.1c0,2,0,4,0,6c0,1.6,2.5,1.6,2.5,0c0-2,0-4,0-6C394.3,183.5,391.8,183.5,391.8,185.1
						L391.8,185.1z"/>
				</g>
			</g>
			<g>
				<g>
					<path class="st2" d="M376.4,185.1c0,2,0,4,0,6c0,1.6,2.5,1.6,2.5,0c0-2,0-4,0-6C378.9,183.5,376.4,183.5,376.4,185.1
						L376.4,185.1z"/>
				</g>
			</g>
			<g>
				<g>
					<path class="st2" d="M361,185.1c0,2,0,4,0,6c0,1.6,2.5,1.6,2.5,0c0-2,0-4,0-6C363.4,183.5,361,183.5,361,185.1L361,185.1z"/>
				</g>
			</g>
			<g>
				<g>
					<path class="st2" d="M345.5,185.1c0,2,0,4,0,6c0,1.6,2.5,1.6,2.5,0c0-2,0-4,0-6C348,183.5,345.5,183.5,345.5,185.1L345.5,185.1
						z"/>
				</g>
			</g>
			<g>
				<g>
					<path class="st2" d="M330.1,185.1c0,2,0,4,0,6c0,1.6,2.5,1.6,2.5,0c0-2,0-4,0-6C332.6,183.5,330.1,183.5,330.1,185.1
						L330.1,185.1z"/>
				</g>
			</g>
			<g>
				<g>
					<path class="st2" d="M314.6,185.1c0,2,0,4,0,6c0,1.6,2.5,1.6,2.5,0c0-2,0-4,0-6C317.1,183.5,314.6,183.5,314.6,185.1
						L314.6,185.1z"/>
				</g>
			</g>
			<g>
				<g>
					<path class="st2" d="M299.2,185.1c0,2,0,4,0,6c0,1.6,2.5,1.6,2.5,0c0-2,0-4,0-6C301.7,183.5,299.2,183.5,299.2,185.1
						L299.2,185.1z"/>
				</g>
			</g>
			<g>
				<g>
					<path class="st2" d="M283.8,185.1c0,2,0,4,0,6c0,1.6,2.5,1.6,2.5,0c0-2,0-4,0-6C286.2,183.5,283.8,183.5,283.8,185.1
						L283.8,185.1z"/>
				</g>
			</g>
			<g>
				<g>
					<path class="st2" d="M268.3,185.1c0,2,0,4,0,6c0,1.6,2.5,1.6,2.5,0c0-2,0-4,0-6C270.8,183.5,268.3,183.5,268.3,185.1
						L268.3,185.1z"/>
				</g>
			</g>
			<g>
				<g>
					<path class="st2" d="M384.5,158.5c-0.9-3.8-2-7.8-5.6-9.8c-3.7-2.1-8.4-2.5-12.5-1.6c0.5,0.4,1.1,0.8,1.6,1.2
						c0.5-8.2-6.2-13.8-14.2-12.3c-1.6,0.3-0.9,2.7,0.7,2.4c6.4-1.2,11.4,3.5,11,9.9c0,0.9,0.8,1.4,1.6,1.2
						c3.4-0.7,7.6-0.4,10.5,1.5s3.7,4.9,4.4,8.1C382.5,160.7,384.9,160,384.5,158.5L384.5,158.5z"/>
				</g>
			</g>
			<g>
				<g>
					<path class="st2" d="M356.4,140.3c-3.7-4.6-13.4-5.7-18.6-3.6c-5.3,2.2-7.6,8.1-6.3,13.4c0.7-0.4,1.4-0.8,2.1-1.2
						c-8.1-6.5-17.2-0.3-20.7,7.9c-0.6,1.5,1.8,2.1,2.4,0.7c2.7-6.4,10-12,16.5-6.8c0.9,0.7,2.4,0.1,2.1-1.2
						c-1.4-5.6,2.1-10.4,7.8-11c3.9-0.4,10.3,0.3,12.9,3.6C355.7,143.3,357.4,141.5,356.4,140.3L356.4,140.3z"/>
				</g>
			</g>
			<g>
				<g>
					<path class="st2" d="M339.7,165.1c-5.6-4.5-13.5-4-18.4,1.4c0.7,0.2,1.4,0.4,2.1,0.6c-3.9-12.2-20.5-11.9-23.8,0.5
						c0.6-0.2,1.2-0.5,1.8-0.7c-9.9-5.8-22.5-4.2-30.7,3.8c-1.1,1.1,0.6,2.9,1.8,1.8c7.4-7.3,18.7-8.7,27.7-3.4
						c0.7,0.4,1.6,0,1.8-0.7c2.7-9.9,15.9-10.3,19-0.5c0.3,0.8,1.4,1.3,2.1,0.6c3.9-4.3,10.3-5.1,14.9-1.4
						C339.2,167.9,341,166.1,339.7,165.1L339.7,165.1z"/>
				</g>
			</g>
			<g>
				<g>
					<path class="st2" d="M317,151c-6.3-13.3-19.3-21.6-33.5-23.5c-11.6-1.6-25.8,0.1-35.1,8.1c-1.2,1.1,0.6,2.8,1.8,1.8
						c8.9-7.7,23.2-9,34.3-7.2c13,2.1,24.7,10.1,30.4,22.2C315.5,153.7,317.6,152.4,317,151L317,151z"/>
				</g>
			</g>
			<g>
				<g>
					<path class="st2" d="M447.8,190.8c-0.3-8.1-5.2-13.6-12.7-16.3c-4.4-1.6-11.9-3.8-15.6,0.2c-1.1,1.2,0.7,3,1.8,1.8
						c2.8-3.1,9.2-0.9,12.3,0.2c6.7,2.2,11.4,6.9,11.6,14.2C445.4,192.4,447.9,192.5,447.8,190.8L447.8,190.8z"/>
				</g>
			</g>
			<g>
				<g>
					<path class="st2" d="M376.6,166.7c2.9-4.8,8-6.5,13.4-6.1c2.9,0.3,14.5,2.5,14.4,6.7c0,1,1.4,1.7,2.1,0.9
						c6.6-7.4,15.1-0.1,18.2,6.5c0.7,1.4,2.8,0.2,2.2-1.3c-3.9-8.1-14.5-15.5-22.1-7c0.7,0.3,1.4,0.6,2.1,0.9
						c0.2-6-11.9-8.7-16.4-9.1c-6.4-0.7-12.7,1.7-16.1,7.3C373.7,166.8,375.8,168.1,376.6,166.7L376.6,166.7z"/>
				</g>
			</g>
			<g>
				<g>
					<path class="st2" d="M123.7,175.5c-6.9,1.8-12.6,6.6-15.6,13.1c-0.7,1.4,1.5,2.7,2.2,1.3c2.7-5.9,7.7-10.2,14.1-11.9
						C126,177.5,125.3,175.1,123.7,175.5L123.7,175.5z"/>
				</g>
			</g>
			<g>
				<g>
					<path class="st2" d="M113.5,182.4c-3-7.3-9.5-10.7-17.2-10.5c-3.9,0.1-12.3,0.9-14.5,4.9c0.8,0.3,1.5,0.6,2.3,1
						c3.8-16.5-26.9-25.8-35.7-13.5c-0.9,1.3,1.2,2.6,2.2,1.3c7.2-10,34.2-1.9,31.2,11.6c-0.3,1.3,1.6,2.2,2.3,1
						c1.5-2.8,8.8-3.4,11.4-3.6c6.8-0.4,13.1,2,15.7,8.6C111.7,184.5,114.1,183.9,113.5,182.4L113.5,182.4z"/>
				</g>
			</g>
			<g>
				<g>
					<path class="st2" d="M68.7,160.4c-0.8-12.3-15.5-18.5-25.5-22.1c-1.5-0.6-2.2,1.9-0.7,2.4c8.7,3.2,22.9,8.9,23.7,19.7
						C66.4,161.9,68.8,162,68.7,160.4L68.7,160.4z"/>
				</g>
			</g>
			<g>
				<g>
					<path class="st2" d="M451.4,228.1c-8.8,0-17.6,0-26.4,0c-1.6,0-1.6,2.5,0,2.5c8.8,0,17.6,0,26.4,0
						C453,230.6,453,228.1,451.4,228.1L451.4,228.1z"/>
				</g>
			</g>
			<g>
				<g>
					<path class="st2" d="M427.9,218.1c-3.2,0-6.3,0-9.5,0c-1.6,0-1.6,2.5,0,2.5c3.2,0,6.3,0,9.5,0
						C429.6,220.6,429.6,218.1,427.9,218.1L427.9,218.1z"/>
				</g>
			</g>
			<g>
				<g>
					<path class="st2" d="M401.1,220.6c-2.5,0-5,0-7.5,0c-1.6,0-1.6,2.5,0,2.5c2.5,0,5,0,7.5,0C402.7,223.1,402.7,220.6,401.1,220.6
						L401.1,220.6z"/>
				</g>
			</g>
			<g>
				<g>
					<path class="st2" d="M351.2,219.6c-7.8,0-15.6,0-23.4,0c-1.6,0-1.6,2.5,0,2.5c7.8,0,15.6,0,23.4,0
						C352.8,222.1,352.9,219.6,351.2,219.6L351.2,219.6z"/>
				</g>
			</g>
			<g>
				<g>
					<path class="st2" d="M331.3,214.6c-2.2,0-4.3,0-6.5,0c-1.6,0-1.6,2.5,0,2.5c2.2,0,4.3,0,6.5,0
						C332.9,217.1,332.9,214.6,331.3,214.6L331.3,214.6z"/>
				</g>
			</g>
			<g>
				<g>
					<path class="st2" d="M451.4,253.6c-2.2,0-4.3,0-6.5,0c-1.6,0-1.6,2.5,0,2.5c2.2,0,4.3,0,6.5,0C453,256.1,453,253.6,451.4,253.6
						L451.4,253.6z"/>
				</g>
			</g>
			<g>
				<g>
					<path class="st2" d="M389.6,254.6c-2,0-4,0-6,0c-1.6,0-1.6,2.5,0,2.5c2,0,4,0,6,0C391.2,257.1,391.2,254.6,389.6,254.6
						L389.6,254.6z"/>
				</g>
			</g>
			<g>
				<g>
					<path class="st2" d="M372.2,224.6c1.6,0,1.6-2.5,0-2.5S370.6,224.6,372.2,224.6L372.2,224.6z"/>
				</g>
			</g>
		</g>
	</g>
	<g>
		<defs>
			<path id="SVGID_3_" d="M51,281.8c41.1,42,95.6,16.9,116.6-17.1c58.4-94.4,167.7,6,201.8,25.8s74.3-9.9,95.2-49.6
				c20.9-39.6,46.2-182.7-58.7-202.7c-58.7-11.2-104.3,61.3-129.3,22S209,0.1,172.2,24.4s3.9,89.9-47.3,97.2
				C17.4,137-15.7,213.6,51,281.8z"/>
		</defs>
		<clipPath id="SVGID_4_">
			<use xlink:href="#SVGID_3_"  style="overflow:visible;"/>
		</clipPath>
		<g class="st3">
			<g>
				<path class="st2" d="M14.5,200.4c4.3-0.2,7.7,0.9,10.7,4.1c3.3,3.5,2.6,8.5-0.4,11.9c-1,1.2,0.7,3,1.8,1.8
					c3.2-3.7,4.6-9.2,1.8-13.7c-3.1-4.9-8.4-7-13.9-6.6C12.9,198,12.8,200.5,14.5,200.4L14.5,200.4z"/>
			</g>
		</g>
	</g>
	<g>
		<defs>
			<path id="SVGID_5_" d="M51,281.8c41.1,42,95.6,16.9,116.6-17.1c58.4-94.4,167.7,6,201.8,25.8s74.3-9.9,95.2-49.6
				c20.9-39.6,46.2-182.7-58.7-202.7c-58.7-11.2-104.3,61.3-129.3,22S209,0.1,172.2,24.4s3.9,89.9-47.3,97.2
				C17.4,137-15.7,213.6,51,281.8z"/>
		</defs>
		<clipPath id="SVGID_6_">
			<use xlink:href="#SVGID_5_"  style="overflow:visible;"/>
		</clipPath>
		<g class="st4">
			<g>
				<path class="st2" d="M29.1,211.6c1.9-0.9,4.1-0.1,5.3,1.6c1.3,1.8,1.3,4.3,0.8,6.4c-0.4,1.6,2,2.2,2.4,0.7
					c0.8-3.2,0.6-6.8-1.8-9.3c-2.1-2.2-5.2-2.8-7.9-1.5C26.4,210.2,27.7,212.3,29.1,211.6L29.1,211.6z"/>
			</g>
		</g>
	</g>
	<g>
		<defs>
			<path id="SVGID_7_" d="M51,281.8c41.1,42,95.6,16.9,116.6-17.1c58.4-94.4,167.7,6,201.8,25.8s74.3-9.9,95.2-49.6
				c20.9-39.6,46.2-182.7-58.7-202.7c-58.7-11.2-104.3,61.3-129.3,22S209,0.1,172.2,24.4s3.9,89.9-47.3,97.2
				C17.4,137-15.7,213.6,51,281.8z"/>
		</defs>
		<clipPath id="SVGID_8_">
			<use xlink:href="#SVGID_7_"  style="overflow:visible;"/>
		</clipPath>
		<g class="st5">
			<g>
				<path class="st2" d="M36.8,215c6.9-1.6,21.8,1.9,17,11.9c-0.7,1.4,1.5,2.7,2.2,1.3c5.8-12.1-10.3-17.8-19.8-15.6
					C34.5,213,35.2,215.4,36.8,215L36.8,215z"/>
			</g>
		</g>
	</g>
	<g>
		<defs>
			<path id="SVGID_9_" d="M51,281.8c41.1,42,95.6,16.9,116.6-17.1c58.4-94.4,167.7,6,201.8,25.8s74.3-9.9,95.2-49.6
				c20.9-39.6,46.2-182.7-58.7-202.7c-58.7-11.2-104.3,61.3-129.3,22S209,0.1,172.2,24.4s3.9,89.9-47.3,97.2
				C17.4,137-15.7,213.6,51,281.8z"/>
		</defs>
		<clipPath id="SVGID_10_">
			<use xlink:href="#SVGID_9_"  style="overflow:visible;"/>
		</clipPath>
		<g class="st6">
			<g>
				<path class="st2" d="M214.1,39.5c3.7,1.7,6.1,4.5,7,8.4c0.2,0.8,1.2,1.1,1.8,0.7c3.8-2.2,7.6-3.1,12-2.4
					c1.6,0.2,2.2-2.2,0.7-2.4c-5-0.7-9.6,0.1-13.9,2.7c0.6,0.2,1.2,0.5,1.8,0.7c-1.1-4.5-3.9-8-8.1-9.9
					C213.9,36.7,212.6,38.8,214.1,39.5L214.1,39.5z"/>
			</g>
		</g>
	</g>
</g>
</svg>
