<?xml version="1.0" encoding="utf-8"?>
<!-- Generator: Adobe Illustrator 22.1.0, SVG Export Plug-In . SVG Version: 6.00 Build 0)  -->
<svg version="1.1" id="Capa_2_1_" xmlns="http://www.w3.org/2000/svg" xmlns:xlink="http://www.w3.org/1999/xlink" x="0px" y="0px"
	 viewBox="0 0 500 320" style="enable-background:new 0 0 500 320;" xml:space="preserve">
<style type="text/css">
	.st0{fill:#FFD16A;}
	.st1{fill:#FFFFFF;}
	.st2{fill:#0B1C30;}
	.st3{fill:none;stroke:#0B1C30;stroke-width:2;stroke-miterlimit:10;}
	.st4{fill:#5ABCEA;}
	.st5{fill:#4A8093;}
</style>
<circle class="st0" cx="177.3" cy="206.8" r="18.3"/>
<path class="st1" d="M166.8,213.2l17.3-1c0,0-0.7,8.3-8,8.7C168.8,221.2,166.8,213.2,166.8,213.2z"/>
<path class="st0" d="M163.4,61.7c-7.1-11.6-23.7-14.3-37.2-6S107.7,80,114.8,91.6s23.7,14.3,37.2,6
	C165.4,89.3,170.5,73.2,163.4,61.7z M137.8,82c-6.5,1.6-11.7-1.7-11.7-1.7s1.2-5.7,8.6-7.5c7.3-1.8,14,0.9,14,0.9
	S144.3,80.5,137.8,82z"/>
<g>
	<g>
		<path class="st2" d="M148.4,132.2c30.9-8.6,44.4-36.8,58-63c4.2-8.1,10.6-22.4,21.7-22c7.1,0.3,7.8,9.2,3.2,13.2
			s-12.3,1.4-17.2-0.6c-12.6-5.1-23.4-13.9-35.2-20.4c-12.4-6.9-26.2-11.9-40.6-10.7c-24.4,2-49.7,17.5-54,42.9
			c-3.8,22.4,6.7,44.8,26.6,56.1c1.1,0.6,2.1-1.1,1-1.7C92.3,114.8,82,92.3,86.6,70.2c6.1-29.2,41.8-44.6,69.1-38.1
			c14.8,3.5,27.6,12.2,40.4,20.2c8.6,5.4,20,13.4,30.9,12c7.6-0.9,13.1-12,6.2-17.4c-7.2-5.7-16.4,2.2-20.6,7.8
			c-8.7,11.7-13.7,25.9-21.1,38.4c-10.2,17.1-23.9,31.7-43.7,37.1C146.6,130.6,147.1,132.5,148.4,132.2L148.4,132.2z"/>
	</g>
</g>
<g>
	<g>
		<path class="st2" d="M139.4,196.5c-5.3,15.2-4.3,32.6,9.5,42.9c11.4,8.5,27.5,9.7,40.2,3.4c13.6-6.7,19.3-20.9,21.7-35
			c1.1-6.6,1.5-13.2,2.6-19.8c0.3-2.1,0.7-4.4,1.5-6.4c1-2.4,4.2-6.1,7.1-3.1c2.6,2.7-0.3,6.3-3.1,6.9c-2.6,0.6-5.6-0.1-8.2-0.7
			c-5.2-1.1-10.2-2.9-15.3-4.4c-11.9-3.5-24.1-5.3-36-0.8c-1.2,0.5-0.7,2.4,0.5,1.9c12.6-4.8,25.2-2.2,37.6,1.6
			c6.4,1.9,17,7,23.7,3.8c3.9-1.9,5.1-8.5,0.8-10.7c-3.8-1.8-7.4,0.9-8.8,4.2c-2.1,4.9-2.2,10.9-2.8,16.2c-0.8,7.5-1.8,15-4.2,22.2
			c-5.5,16.9-20.4,27.8-38.5,25.8c-9.4-1.1-18.7-5.6-24.2-13.6c-7.1-10.2-6-22.8-2.1-33.9C141.8,195.8,139.9,195.3,139.4,196.5
			L139.4,196.5z"/>
	</g>
</g>
<g>
	<g>
		<path class="st2" d="M161,144.6c-12.4-22.6-40.2-27.8-60.4-12c-9.3,7.3-15.2,17.7-19.8,28.4c-3.9,9-6.4,19.2-11.9,27.3
			c-2.2,3.3-7.9,8.5-11.9,4.8c-1.8-1.7-1.6-4.9-0.5-6.9c1.6-2.7,4.6-3.1,7.5-3c10.9,0.7,21.1,8.1,30.8,12.5
			c10.3,4.7,21.5,8.1,32.9,6.2c11.3-1.9,23.2-8.2,30.3-17.3C166.7,173.6,167.4,157.1,161,144.6c-0.6-1.1-2.3-0.1-1.7,1
			c6.6,12.7,5.1,29.5-4.8,40.1c-9.3,9.9-24.2,15.9-37.7,14.7c-12.8-1.2-24-7.8-35.3-13.3c-6.3-3-17-8.8-24-4.6
			c-4.7,2.8-5.6,11.4,0.3,13.5c7,2.5,12.6-5.5,15.2-10.7c4.8-9.5,7.7-19.8,12.4-29.4c6.8-13.8,17.5-26.1,33-29.8
			c16.8-3.9,32.9,4.9,40.9,19.6C159.9,146.8,161.6,145.8,161,144.6z"/>
	</g>
</g>
<g>
	<g>
		<path class="st2" d="M147.6,100.9c-12.7,4.6-29.9,1.9-35-12.4c-4.8-13.5,5.6-26.9,17.8-31.6c12.4-4.8,29.4-1.8,34.8,11.8
			C170.6,82.5,159.9,95.9,147.6,100.9c-1.1,0.5-0.6,2.3,0.5,1.9c10.3-4.2,19.2-13,20.3-24.6c1.1-11.4-6.8-21.1-17.5-24.2
			c-11.8-3.5-25.4,0.6-33.8,9.6c-7.4,8-10.4,20.1-4.4,29.8c7.4,11.9,23.1,13.9,35.3,9.4C149.3,102.4,148.8,100.5,147.6,100.9z"/>
	</g>
</g>
<g>
	<g>
		<path class="st2" d="M148.4,67.9c3,8.2-10.2,14.3-16.4,14.2c-5.1,0-8.7-3.5-5.9-8.5c1.8-3.2,5.1-5.4,8.3-6.9
			c1.2-0.5,0.2-2.3-1-1.7c-4.5,2.1-9.9,6.1-10.5,11.4c-0.4,3.9,2.4,6.6,6.1,7.4c8.1,1.8,25.1-6,21.3-16.5
			C149.9,66.1,147.9,66.6,148.4,67.9L148.4,67.9z"/>
	</g>
</g>
<g>
	<g>
		<path class="st2" d="M128.5,82.2c4.4-6.4,11.9-7.4,19.2-6.2c1.3,0.2,1.8-1.7,0.5-1.9c-8.3-1.4-16.5-0.2-21.4,7.1
			C126,82.2,127.8,83.2,128.5,82.2L128.5,82.2z"/>
	</g>
</g>
<g>
	<path class="st3" d="M117.7,97.5c0.8,0.3,2.5-0.7,3.1-1.4c1.6-2,4.7-1.2,6.8,0.3c9.2,6.6,9.2-8.3,18.7-4.3c1.5,0.6,3.2,0.8,4.8,0.3
		c1.5-0.5,2.8-1.6,3.1-3.1s-0.7-3.1-0.2-4.6c0.2-0.8,0.9-1.5,1.7-1.8s1.7-0.1,2.5-0.1c1.3,0.1,2.7-0.1,3.9-0.8s2-1.9,1.9-3.3
		c-0.1-1.8-1.8-3.3-1.9-5.1c-0.1-1.8,2.7-4.2,4.5-4"/>
</g>
<g>
	<g>
		<path class="st2" d="M154.7,63.5c0,1.2,0,2.4,0,3.6c0,1.3,2,1.3,2,0c0-1.2,0-2.4,0-3.6C156.7,62.2,154.7,62.2,154.7,63.5
			L154.7,63.5z"/>
	</g>
</g>
<g>
	<g>
		<path class="st2" d="M155.8,73.5c-0.9,1-1.6,2.1-2.1,3.4c-0.2,0.5,0.2,1.1,0.7,1.2c0.6,0.2,1-0.2,1.2-0.7c0.4-0.9,0.9-1.8,1.6-2.5
			C158.1,74,156.7,72.6,155.8,73.5L155.8,73.5z"/>
	</g>
</g>
<g>
	<g>
		<path class="st2" d="M133,86.5c0.8,0.5,1.5,1.1,2.3,1.6c0.4,0.3,1.1,0.1,1.4-0.4c0.3-0.5,0.1-1.1-0.4-1.4
			c-0.8-0.5-1.5-1.1-2.3-1.6c-0.4-0.3-1.1-0.1-1.4,0.4C132.4,85.7,132.6,86.2,133,86.5L133,86.5z"/>
	</g>
</g>
<g>
	<g>
		<path class="st2" d="M144,85.4c0.6,0.8,1.3,1.5,2,2.1c0.4,0.4,1,0.4,1.4,0s0.4-1.1,0-1.4c-0.7-0.6-1.4-1.3-2-2.1
			c-0.3-0.4-1.1-0.4-1.4,0C143.5,84.4,143.6,84.9,144,85.4L144,85.4z"/>
	</g>
</g>
<g>
	<g>
		<path class="st2" d="M118.6,86.6c0.8-0.4,1.6-1,2.3-1.6c0.4-0.4,0.4-1.1,0-1.4c-0.4-0.4-1-0.4-1.4,0c-0.6,0.5-1.2,0.9-1.9,1.2
			C116.4,85.4,117.4,87.1,118.6,86.6L118.6,86.6z"/>
	</g>
</g>
<g>
	<g>
		<path class="st2" d="M115.9,75.4c0.6,1.2,1.2,2.3,1.9,3.4c0.7,1.1,2.4,0.1,1.7-1c-0.7-1.1-1.3-2.2-1.9-3.4
			C117.1,73.2,115.4,74.3,115.9,75.4L115.9,75.4z"/>
	</g>
</g>
<g>
	<g>
		<path class="st2" d="M127.6,62.1c-0.7,1-1.4,2.1-2,3.1c-0.7,1.1,1,2.1,1.7,1c0.7-1,1.4-2.1,2-3.1C130,62,128.3,61,127.6,62.1
			L127.6,62.1z"/>
	</g>
</g>
<g>
	<g>
		<path class="st2" d="M139.3,61.6c0.6,1,1.3,2,2,2.8c0.4,0.4,1.1,0.4,1.4,0c0.4-0.4,0.4-1,0-1.4c-0.6-0.8-1.2-1.6-1.7-2.4
			C140.4,59.5,138.7,60.5,139.3,61.6L139.3,61.6z"/>
	</g>
</g>
<g>
	<g>
		<path class="st2" d="M150.6,55c-0.9,0.8-1.7,1.7-2.3,2.7c-0.7,1.1,1,2.1,1.7,1c0.5-0.9,1.2-1.6,2-2.3c0.4-0.4,0.4-1.1,0-1.4
			C151.6,54.6,151,54.6,150.6,55L150.6,55z"/>
	</g>
</g>
<g>
	<g>
		<path class="st2" d="M124.5,87.9c-0.4,1-0.7,2.1-1,3.1c-0.4,1.2,1.6,1.8,1.9,0.5c0.3-1.1,0.7-2.1,1-3.1c0.2-0.5-0.2-1.1-0.7-1.2
			C125.1,87,124.6,87.4,124.5,87.9L124.5,87.9z"/>
	</g>
</g>
<path class="st0" d="M137.8,176.4c-1.6,2.4-3.9,4.1-7.1,5.1l0.6,3.5c0.1,0.9,0,1.6-0.4,2.2c-0.4,0.6-1,1-1.8,1.1s-1.5,0-2-0.5
	c-0.6-0.5-0.9-1.1-1.1-2l-0.6-3.4c-2,0.1-4,0-6-0.4s-3.7-1.1-5.3-2c-0.5-0.3-0.9-0.6-1.1-1s-0.4-0.9-0.5-1.5c-0.1-0.8,0-1.5,0.3-2.2
	s0.8-1,1.3-1.1c0.3-0.1,0.7,0,1,0c0.3,0.1,0.7,0.2,1.3,0.5c1.8,0.9,3.5,1.4,5.1,1.7s3.3,0.3,5,0c2.3-0.4,4-1.2,5.1-2.3
	c1.1-1.2,1.5-2.7,1.2-4.5c-0.2-1.1-0.7-1.9-1.5-2.5s-1.7-0.9-2.8-1.2c-1.1-0.2-2.6-0.4-4.6-0.6c-2.7-0.3-4.9-0.6-6.7-1.1
	c-1.7-0.5-3.3-1.3-4.7-2.6c-1.4-1.3-2.3-3.2-2.8-5.8c-0.5-3,0.1-5.8,1.7-8.2c1.6-2.5,4-4.2,7.2-5.3l-0.6-3.5c-0.1-0.9,0-1.6,0.4-2.2
	c0.4-0.6,1-1,1.8-1.1s1.5,0,2,0.5c0.6,0.5,0.9,1.1,1.1,2l0.6,3.5c3.6-0.1,6.8,0.8,9.7,2.6c0.9,0.5,1.5,1.3,1.7,2.4
	c0.1,0.8,0,1.5-0.3,2.2s-0.8,1.1-1.4,1.1c-0.3,0.1-0.6,0-0.9,0c-0.3-0.1-0.7-0.2-1.3-0.5c-1.6-0.8-3.1-1.4-4.4-1.8
	c-1.3-0.3-2.9-0.4-4.6-0.1c-2.1,0.4-3.8,1.2-4.9,2.4s-1.5,2.8-1.2,4.5c0.2,1.2,0.7,2.2,1.6,2.8c0.8,0.6,1.9,1.1,3,1.3
	c1.2,0.2,2.7,0.4,4.7,0.7c2.6,0.3,4.8,0.6,6.5,1s3.2,1.3,4.6,2.5c1.4,1.3,2.2,3.1,2.7,5.6C139.9,171.3,139.3,174,137.8,176.4z"/>
<path class="st2" d="M116.3,150.2c1.5-0.9,3.6-1.2,5.3-1.2c2.9,0.1,4.9,2,7.6,2.5c1.3,0.2,2.2-0.1,3-1.1c2.5-3.3-0.8-6.2-3.6-7.4
	c-1-0.5-2.1-0.8-3.1-1.1c-1-0.2-3.9-0.4-3.9-0.4s-0.2-0.5-0.2-0.8c-0.2-0.7-0.2-1.4-0.4-2.1c-0.8-2.8-4.3-4.6-6.4-1.8
	c-1.2,1.6-0.6,3.9-0.2,5.8c-4.2,1.8-7.7,4.8-8.7,9.5c-0.9,4.3,0.4,9.2,4,11.8c2.1,1.6,4.5,2.2,7,2.6c2.8,0.5,6.8,0.1,9.3,1.4
	c5.3,2.8,2.1,7.1-1.7,8.2c-2.3,0.6-4.7,0.6-7,0.1c-1.8-0.4-4.5-2.5-6.6-1.9c-3.1,0.8-2.8,5.2-0.9,6.9c1.8,1.7,5,2.4,7.3,2.7
	c1.1,0.2,4.3,0.2,4.3,0.2c0.1,0.5,0.2,0.9,0.2,1.4c0.5,2.7,2.6,6.3,5.9,3.9c2.1-1.5,1.4-4.3,0.9-6.6c2.7-1.1,4.9-2.6,6.7-5
	c0.1-0.1,0.1-0.1,0.1-0.2c0-0.1,0.1-0.1,0.1-0.2c2.1-3.6,2.5-8.1,0.5-12c-1.9-3.8-5.8-5.2-9.7-5.9c-2.7-0.5-5.7-0.4-8.3-1.1
	C113.6,157.3,112.5,152.5,116.3,150.2z M122.4,160.9c3.6,0.4,7.7,0.7,10.5,3.3c3.3,3.2,3.1,8.8,0.9,12.5c-1.7,2.3-3.9,3.7-6.5,4.7
	c-0.5,0.2-0.7,0.6-0.6,1.1c0.1,0.6,0.2,1.2,0.3,1.8c0.3,1.7,1.1,3.7-0.8,4.1c-2.3,0.4-2.1-1.7-2.7-3.2c-0.2-0.6-0.2-1.4-0.3-2.1
	c-0.1-0.4-0.5-0.7-0.8-0.7c-2.1,0.1-4.2,0-6.3-0.5c-1-0.2-2.7-0.6-3.5-1.2c-0.3-0.2-0.8-0.3-0.9-0.5c-0.5-0.5-1.5-1.2-1.2-2.6
	c0.3-1.7,0.9-1.5,2-1.3c0.5,0.1,4.5,1.7,5.2,1.8c1.5,0.3,3,0.4,4.5,0.3c4.5-0.4,10-3.2,8.3-8.6c-1.6-5.3-10.4-4.3-14.6-5.2
	c-4.8-1.1-8-4-8.4-9.1c-0.4-5.5,3.4-9.6,8.3-11.4c0.5-0.2,0.7-0.6,0.6-1.1c-0.1-0.6-0.2-1.2-0.3-1.8c-0.3-1.7-1.1-3.4,1.1-3.7
	c2.7-0.5,2.6,4.3,2.7,5c0.1,0.4,0.5,0.7,0.8,0.7c1.8,0,3.6,0.2,5.4,0.7c0.9,0.3,5.7,1.6,5.1,4.5c-0.7,3.4-5.4-0.3-6.6-0.7
	c-1.2-0.3-2.3-0.5-3.5-0.4c-4.3,0.1-9.2,2.5-8.9,7.5C112.5,160,118.1,160.4,122.4,160.9z"/>
<path class="st2" d="M177.2,189.5c-10.6-1-19.6,7.8-20.5,18.1s6.4,20.4,17,21.4c10.9,1,19.2-7.8,20.5-18.1
	C194.8,200.5,188,190.5,177.2,189.5z M173.7,227c-9.5-0.9-15.9-10.1-15-19.4c0.9-9.2,9-17,18.5-16.1c9.8,1,15.5,10.1,15,19.4
	C191,220.1,183.4,227.9,173.7,227z"/>
<g>
	<g>
		<path class="st2" d="M166.6,205.2c-0.1-1-0.1-3.8,1.2-4.1c1.6-0.3,2,2.7,2,3.8c0,1.3,2,1.3,2,0c0-2.4-1.1-6-4.1-5.8
			c-2.8,0.2-3.3,3.9-3.1,6.1C164.7,206.5,166.7,206.5,166.6,205.2L166.6,205.2z"/>
	</g>
</g>
<g>
	<g>
		<path class="st2" d="M180.9,205.5c0.1-1,0.6-3.8,1.9-3.9c1-0.1,1.3,1.3,1.4,2.1c0,0.5,0,1,0,1.4c0,0.2,0,0.3,0,0.5c0-0.2,0,0,0,0
			c-0.2,1.3,1.7,1.8,1.9,0.5c0.4-2.4,0.2-6.1-2.8-6.5c-2.8-0.4-4,3.1-4.3,5.3C178.8,206.2,180.7,206.8,180.9,205.5L180.9,205.5z"/>
	</g>
</g>
<g>
	<g>
		<path class="st2" d="M174.1,199.1c0,3.1,0,6.2,0.1,9.3c0,1.3,2,1.3,2,0c0-3.1,0-6.2-0.1-9.3C176.1,197.8,174.1,197.8,174.1,199.1
			L174.1,199.1z"/>
	</g>
</g>
<path class="st2" d="M185,211.3c-0.1-0.4-0.4-0.6-0.9-0.6c-5.9,0.4-11.8,0.8-17.7,1.2c-0.6,0-1.2,0.6-1,1.3c1.5,4.3,4.9,9.1,10,8.8
	c5.3-0.3,9.3-5.1,9.7-10.2C185.1,211.6,185.1,211.4,185,211.3z M167.9,213.8c1.2-0.1,2.4-0.2,3.5-0.2c0,1.7,0,3.4,0,5.1
	C169.8,217.5,168.7,215.6,167.9,213.8z M174.5,219.9c-0.4,0-0.7-0.1-1.1-0.2c0-2.1,0-4.2,0-6.3c1.1-0.1,2.3-0.2,3.4-0.2
	c0.4,2,0.9,4,1.3,6C177,219.7,175.8,220,174.5,219.9z M179.9,218c-0.4-1.6-0.7-3.3-1.1-4.9c1.4-0.1,2.8-0.2,4.2-0.3
	C182.5,214.7,181.4,216.6,179.9,218z"/>
<g>
	<path class="st4" d="M388.4,49l3.8,25.1c0,0,19.9,0,17.7,13.5c-1.6,9.5-14.8,10-14.8,10s-3.4,11.4-6.9,15.8
		c-3.4,4.4-6.8,1.7-6.4,6.9c0.7,10.3,4,13.8,19.6,17.5c15.7,3.7,48.1,10.4,50,47.3c1.7,32.9-12.8,48-12.8,48c-6.9,3-8.2-6.5-8.2-6.5
		l-4,2l3.9,46.7c0,0-8.3,14.9-52.8,22.5c-44.5,7.6-75.1-24.5-75.1-24.5s9.2-24.8,3.3-30c-5.9-5.1-3.3-24.6-3.3-24.6
		s-13.3-7.1-18.4-10.5c-5.1-3.4-2.1-15-2.1-15s-16.4-2.2-39.6-23.8s-19.3-71.9-19.3-71.9c-4.7-0.2-5.6-16-1.5-19.3
		c5.3-4,10.2-0.3,10.2-0.3s-3.2-0.1,4-5.9c4-3.2,9.1-1.1,9.1-1.1s7-15.1,14.9-7.7c7.9,7.4-3.5,49.5,7.5,68.3s22.8,17.6,22.8,17.6
		s14.2-7,26.5-7.6c8.1-0.4,15.3,5.8,17.5,4.8c5.6-2.5,10.4-11.7,10.4-11.7c-2.3-1-3.6-1.8-7.3-3.5c-25.8-11.5-18-72.6-18-72.6
		l3-14.1L388.4,49z"/>
	<path class="st5" d="M386.3,114.1c-0.4,2.9,2,11.8,6.5,9.5s7-15.3,7-15.3s-0.7,10.8,5,10.6c5.6-0.2,3.4-22.4,3.4-22.4
		s-0.2,4.2,5.2,2.6c5.4-1.6,0.5-28.6,0.5-28.6s-0.4,6,5.7,2.8c6-3.3,1.3-48.4-13.2-55c-25.8-11.8-35.3,8.1-35.3,8.1
		s-58.7,0.3-60.9,16c-1.1,7.7,3.6,7,3.6,7s-8.5,1.1-8.1,9.8c0.5,8.7,8,14.6,8,14.6l3.2-15.4c0,0-1.2,11.3,4.2,11.1
		c3.3-0.2,2.7-13,2.7-13s1,10.8,5.9,9.5c5-1.3,1.2-15.5,1.2-15.5s3.5,11,11.3,10.8c7.8-0.2,2.5-10.3,2.5-10.3s0.3,12.4,9.9,10.2
		c3.8-0.9,0.2-8.7,0.2-8.7s3.3,18.3,11.3,17.9c8-0.3,6.9-6.7,6.9-6.7l5.2,7.6c0,0-5.7,28.8-0.5,31.8c5.2,3,7.1-7.4,7.1-7.4
		s-5,13,1,17.2c1.9,1.4,4.5-0.2,5.7-3c3.9-8.8,4.2-32.3,4.2-32.3s14.7-2.9,14.6,7.8C410.5,96,395.2,97,395.2,97s-2.5,7.3-4.3,12.4
		C388.5,115.5,386.6,112.2,386.3,114.1z"/>
	<path class="st0" d="M398.8,43.5c0,0,4.3-6.2-1-11.6s-9.8-1.1-9.8-1.1S394.4,33,398.8,43.5z"/>
	<path class="st0" d="M394.1,136.4c0,0,0.3,18.3-2.9,24.1s-4.1,6.4-4.1,6.4l17.1-2c0,0-4.4-2.9-3.2-12.8c1.2-10,3.3-14.9,3.3-14.9
		L394.1,136.4z"/>
	<path class="st0" d="M324.9,241.4c-0.4-0.1-0.7-0.3-1-0.4c-2.3-0.1-4.4-1.2-4.9-3.7c-0.4-2.2,1.1-5.4,3.7-5.6
		c2.5-0.2,4.8-0.9,7.3-1.5c-2.7-0.4-5.3-0.9-7.7-1.8c-5.6,0.1-6.3-8.8-0.4-9.3c3.5-0.4,7.1-0.6,10.6-1c-3.2-0.1-6.3-0.4-9.5-1
		c-6-0.9-4.5-10.2,1.5-9.3c6.6,1.1,13.2,1.1,19.8,1l0.9-22.5c0.2-4.6-3.5-8.4-8-8.6l-21.9-0.8c-4.6-0.2-8.4,3.5-8.6,8l-2,52
		c-0.2,4.6,3.5,8.4,8,8.6l21.8,0.8c2,0.1,3.8-0.6,5.3-1.6C334.7,244.2,329.7,243.2,324.9,241.4z"/>
	<g>
		<g>
			<path class="st1" d="M373.7,78.8c0,0-3.6-5.2-9.8-3.1c-7.9,2.8-8.5,7.7-8.5,7.7s2.7,5,10.7,2.1C374.1,82.7,373.7,78.8,373.7,78.8
				z"/>
			<g>
				<path class="st2" d="M372.8,79.3c-2.3-3.3-6.3-3.6-9.7-2.3c-2.4,1-6.4,3.3-6.6,6.4c0-1.1-0.4-0.6,0.2-0.2
					c0.4,0.3,0.7,0.7,1.1,0.9c1.8,1.2,4.1,1.3,6,0.8c2.3-0.4,9-2.8,8.7-6.1c0-1.4,2.1-1.6,2.1-0.2c0.3,4.5-6,7.3-9.4,8.2
					c-3,0.9-9.7,1-11-3.1c-1-3.6,4.9-7.3,7.3-8.4c4.5-2,9.8-1.5,12.7,2.8C375.4,79.2,373.5,80.6,372.8,79.3z"/>
			</g>
		</g>
	</g>
	<g>
		<g>
			<path class="st2" d="M361.2,76.6c0,0,3.7,1.2,4.2,4.9c0.4,2.8-2.3,4.7-2.3,4.7s-3,0.4-4.7-0.4c-2.4-1.2-3.1-2.4-3.1-2.4
				s0.1-1.7,2-4C359.3,77.2,361.2,76.6,361.2,76.6z"/>
		</g>
		<g>
			<g>
				<path class="st2" d="M360.9,77.5c1.6,0.6,3,1.9,3.5,3.6s-0.5,2.7-1.5,3.9c-0.3,0.4-0.7,0.3-0.1,0.2c-0.4,0.1-0.8,0.1-1.2,0.1
					c-1.6,0-3-0.3-4.3-1.3c-0.4-0.3-0.9-0.6-1.2-1c0,0,0,0.6,0.1,0.2c0.6-2.5,2.9-4.9,5.1-5.6c1.1-0.4,0.7-2.3-0.4-1.8
					c-1.6,0.5-3.2,1.7-4.3,2.9c-0.9,1.1-2.3,3-2.3,4.5c0.1,0.9,0.8,1.5,1.5,2.2c1.6,1.4,3.4,1.9,5.6,1.9c1.1-0.1,1.8,0,2.6-0.7
					c1.2-1.2,2.1-2.7,2.2-4.4c0-2.9-2.3-5.4-4.9-6.3C360.3,75.4,359.7,77.1,360.9,77.5z"/>
			</g>
		</g>
	</g>
	<g>
		<path class="st1" d="M338.7,83.6c0,0-0.8-6.2-7.2-7.3c-8.4-1.2-11,2.8-11,2.8s0.1,5.7,8.4,6.9C337.2,87.4,338.7,83.6,338.7,83.6z"
			/>
		<g>
			<path class="st2" d="M337.6,83.7c-0.6-4.3-4.5-6.4-8.5-6.4c-2.1-0.1-4.3,0.1-6.3,1.3c-0.5,0.4-0.9,0.6-1.3,1
				c-0.5,0.5,0,0.1,0-0.3c0,3.4,4.4,5.2,7,5.7c2.2,0.4,8,1.1,9.2-1.8c0.6-1.4,2.5-0.2,2,1c-1.8,4.1-8.8,3.6-12.1,2.7
				c-3-0.7-8.9-3.6-8.2-7.7c0.6-3.9,8-4.4,10.9-4.1c4.9,0.4,9,3.4,9.6,8.5C339.9,85,337.8,85.1,337.6,83.7z"/>
		</g>
	</g>
	<g>
		<g>
			<path class="st2" d="M328.6,76.1c0,0,2.6,2.9,1.4,6.2c-0.9,2.6-4.2,3.1-4.2,3.1s-2.9-1-3.9-2.6c-1.5-2.2-1.6-3.7-1.6-3.7
				s0.8-1.5,3.6-2.6C326.6,75.6,328.6,76.1,328.6,76.1z"/>
		</g>
		<g>
			<g>
				<path class="st2" d="M327.9,76.7c1.6,1.8,2.2,5,0.1,6.7c-0.7,0.6-1.4,0.7-2.2,1c-0.5,0.2,0.4,0.1,0,0c-0.5-0.2-0.9-0.4-1.4-0.7
					c-1.5-0.9-2.5-2.1-3.1-3.6c-0.1-0.3-0.2-0.6-0.3-0.9c0,0.2-0.3,0.5,0,0.2c1.6-1.8,4.8-2.9,7.1-2.4c1.2,0.2,1.8-1.5,0.6-1.8
					c-2.9-0.6-7.6,0.5-9.2,3.3c-1.4,2.3,2,5.9,3.8,7c0.9,0.4,1.8,1,2.8,0.9c1.3-0.2,2.8-1.1,3.7-2.1c2.2-2.5,1.3-6.4-0.7-8.7
					C328.5,74.6,327.2,75.8,327.9,76.7z"/>
			</g>
		</g>
	</g>
	<path class="st5" d="M347,83.2c0,0,1.5,18-0.5,18.7c-2,0.7-8.5-1.4-8.9-3.6c-0.4-2.2,5-2.3,6-15.1C343.7,82.2,347,83.2,347,83.2z"
		/>
	<g>
		<g>
			<path class="st2" d="M357.3,101c-1,5.7-7.4,9.1-12.8,6.9c-1.1-0.4-1.7,1.3-0.6,1.8c6.3,2.6,14-1.5,15.1-8.1
				C359.3,100.3,357.5,99.8,357.3,101L357.3,101z"/>
		</g>
	</g>
	<g>
		<g>
			<path class="st2" d="M321.5,77.1c-1.3-1-2.6-2.1-3.9-3.1c-1-0.7-1.9,0.8-1,1.6c1.3,1,2.6,2.1,3.9,3.1
				C321.4,79.4,322.5,77.8,321.5,77.1L321.5,77.1z"/>
		</g>
	</g>
	<g>
		<g>
			<path class="st2" d="M374.6,74.9c-0.6,1.2-1.3,2.4-1.9,3.5c-0.5,1.1,1,2,1.6,1c0.6-1.2,1.3-2.4,1.9-3.5
				C376.8,74.9,375.3,73.8,374.6,74.9L374.6,74.9z"/>
		</g>
	</g>
	<g>
		<g>
			<path class="st2" d="M373.6,67.8c-4.5-2.8-10.4-3.7-15.2-1.3c-1.1,0.6-0.2,2.2,0.8,1.6c4.3-2,9.4-1.2,13.3,1.2
				C373.6,70,374.6,68.4,373.6,67.8L373.6,67.8z"/>
		</g>
	</g>
	<g>
		<g>
			<path class="st2" d="M336.5,66.1c-4.3-2-9.5-1.2-13.5,1.2c-1,0.6-0.2,2.3,0.8,1.6c3.6-2.1,8.1-2.8,12-1
				C337,68.5,337.6,66.7,336.5,66.1L336.5,66.1z"/>
		</g>
	</g>
	<g>
		<g>
			<path class="st2" d="M405,89.3c-2.8-1.9-5.8-3.9-8-6.4c-0.8-0.9-2.2,0.4-1.3,1.2c2.4,2.6,5.4,4.7,8.4,6.7
				C405,91.6,406,90,405,89.3L405,89.3z"/>
		</g>
	</g>
	<g>
		<g>
			<path class="st2" d="M402.4,82.6c-3.1,1.9-5.6,5-7.1,8.1c-0.5,1.1,1,2,1.6,1c1.5-2.9,3.6-5.9,6.5-7.6
				C404.3,83.6,403.4,82,402.4,82.6L402.4,82.6z"/>
		</g>
	</g>
	<g>
		<g>
			<path class="st2" d="M380.5,70c-1.9,9.3-3.9,19.1-3.9,28.6c0,2.3-0.2,6.7,3,6.8c3.9,0.1,5.2-5.7,5.6-8.6c-0.6,0-1.2,0-1.9-0.1
				c-0.5,4.5-1.6,12.1,1.5,16.1c2.4,3.1,5.2,1,6.5-1.8c2.8-6,3.2-13.7,3.8-20.2c0.7-7.5,1.1-15.1,1.5-22.6c0-1.2-1.9-1.3-1.9-0.1
				c-0.6,11.5-0.9,23.2-3,34.5c-0.4,2-2.6,13.2-5.7,8.3c-2.3-3.5-1.2-10.3-0.9-14.2c0.1-1.2-1.7-1.3-1.9-0.1c-0.3,1.5-0.6,3.8-1.6,5
				c-2.3,3.1-3.1,1.2-3.4-1.3c-0.3-3.7,0.3-7.5,0.7-11.2c0.7-6.3,1.8-12.5,3.1-18.7C382.5,69.5,380.8,68.9,380.5,70L380.5,70z"/>
		</g>
	</g>
	<g>
		<g>
			<path class="st2" d="M375.8,50c1.5,1.8,3.1,3.5,4.5,5.4c2.2,2.9,6,7.2,6.5,11c0.6,5.2-7.8,1.6-9.8,0.4c-5.3-3-9.1-8-10.6-13.8
				c-0.4-1.2-2.2-0.8-1.8,0.4c1.7,6.5,6,11.9,11.8,15.2c2.8,1.6,8.8,4.1,11.7,0.9c2.5-2.9-1.3-8.3-2.9-10.7c-2.4-3.6-5-7-7.9-10.1
				C376.4,47.9,375,49.2,375.8,50L375.8,50z"/>
		</g>
	</g>
	<g>
		<g>
			<path class="st2" d="M353.3,52.8c1.3,5.8,3.9,13.9,9.5,16.8c2.3,1.2,5.9,1.5,7.1-1.2c0.9-2,0-4.6-0.9-6.5
				c-0.5-1.1-2.1-0.2-1.6,0.8c0.6,1.2,1.4,3.4,0.8,4.6c-1.5,3.9-7-1.2-8.1-2.9c-2.5-3.6-4-8-4.9-12.1
				C354.8,51.1,353,51.6,353.3,52.8L353.3,52.8z"/>
		</g>
	</g>
	<g>
		<g>
			<path class="st2" d="M343.5,49.3c0,3.3,0.9,7.1,3.2,9.6c2.4,2.5,6.3,4.1,9.7,2.8c1.1-0.5,0.2-2.1-0.8-1.6
				c-2.6,1.1-6.8-1.1-8.4-3.6c-1.2-2-1.8-4.7-1.8-7C345.3,48.2,343.4,48.1,343.5,49.3L343.5,49.3z"/>
		</g>
	</g>
	<g>
		<g>
			<path class="st2" d="M333.7,48.9c0,3.5,0.9,7.4,3.2,10.1c2.9,3.3,7.7,4.3,11.3,1.4c0.9-0.8-0.3-2.1-1.2-1.3
				c-6.5,5.4-11.5-4.7-11.3-10.1C335.5,47.8,333.7,47.7,333.7,48.9L333.7,48.9z"/>
		</g>
	</g>
	<g>
		<g>
			<path class="st2" d="M312.8,71.6c-1.8-2.4-3.4-5.2-4.3-8.1c-0.8-2.7-0.8-5.2,0.4-7.8c0.2-0.6,3-5.4,3.6-5.1
				c1.1,0.6,1.9-0.8,1-1.6c-7.2-5.9,1.7-12.3,7.4-14.4c5.2-1.8,10.7-2.8,16.1-3.6c5.7-0.9,11.5-1.3,17.3-1.4
				c5.5-0.1,11.1,0,16.6,0.4c5.5,0.4,11.8,0.7,16.8,3.4c14.1,7.6,12.4,29.8,9.3,42.6c-0.2,1.2,1.5,1.8,1.8,0.6
				c3-12.4,4.1-27.7-3.6-38.8c-5.8-8.3-16-9.2-25.3-9.8c-16-1-33.5-0.6-48.8,4.5c-7.4,2.5-17.3,10.6-8.4,18c0.3-0.5,0.6-1.1,1-1.6
				c-3.3-2-7,6.5-7.3,8.4c-1.1,5.4,2.1,11.3,5.2,15.3C312.2,73.7,313.6,72.5,312.8,71.6L312.8,71.6z"/>
		</g>
	</g>
	<g>
		<g>
			<path class="st2" d="M387.9,33c3.2-2.9,7.9-0.6,9.8,2.7c1.6,2.8,1.3,6.3-0.5,8.8c-0.6,1,0.9,2,1.6,1c2.4-3.7,2.4-8.7-0.4-12.1
				c-2.9-3.4-8-5-11.7-1.7C385.8,32.4,387,33.7,387.9,33L387.9,33z"/>
		</g>
	</g>
	<g>
		<g>
			<path class="st2" d="M369.1,29.2c2.3-5,7.1-9.3,12.3-11.1c10.7-3.5,21.9,2.5,27.8,11.4c5,7.7,7.6,17,8.8,26.1
				c0.5,3.7,0.8,7.5,0.6,11.3c-0.1,1.8-1.9,9.4-4.5,3.9c-0.5-0.9-2-0.4-1.7,0.6c1,3.8,1.8,7.7,2.5,11.6c0.5,3,1,6.1,0.9,9.2
				c0,1.1,0.1,2.6-0.4,3.6c-0.8,1.5-4.2,3-4.6,0.1c-0.6,0.2-1.2,0.3-1.8,0.4c0.6,3.8,0.9,7.6,0.9,11.5c0,2.5,0.1,5.5-0.8,7.8
				c-1.5,3.6-4.7,1.2-5.2-1.8c-0.2-1.2-2-0.8-1.8,0.4c0.8,5.7,7,7.8,8.9,1.6c1.9-6.1,0.8-13.7-0.1-19.9c-0.2-1.2-2-0.8-1.8,0.4
				c0.3,2.5,2.7,3.5,4.9,3c3.1-0.7,3.6-3.5,3.7-6.3c0.4-7.3-1.5-15.1-3.4-22.1c-0.6,0.2-1.1,0.5-1.7,0.6c3,6.1,7.3,1.8,7.9-3
				c0.9-7.6-0.5-15.8-2.3-23.1c-2.3-8.8-6.1-18-13.2-24c-6.7-5.7-17-8.1-25.3-4.7c-5.2,2.1-9.8,6.6-12.2,11.7
				C366.8,29.7,368.6,30.2,369.1,29.2L369.1,29.2z"/>
		</g>
	</g>
	<g>
		<g>
			<path class="st2" d="M319,89.4c1.4,14.5,7,31,18.6,40.3c9.2,7.6,19.4,8.9,29.6,2.6c7.6-4.6,15-11.4,20.1-18.8c0.6-1-0.9-2-1.6-1
				c-4.6,6.7-11.4,12.9-18.2,17.3c-4.8,3.2-10.4,5.7-16.3,4.6c-6-1.1-11.4-4.7-15.6-9c-9-9.1-13.7-23.8-14.8-36.1
				C320.8,88.3,318.9,88.2,319,89.4L319,89.4z"/>
		</g>
	</g>
	<g>
		<g>
			<path class="st2" d="M343.8,133.3c-0.4,5-9.1,10-13.6,11.2c-1.3,0.4,0.6,0.1-0.4,0.1c-0.7,0-1.6-0.4-2.3-0.5
				c-3.5-0.6-7-0.9-10.5-0.8c-6.6,0.1-12.3,2.2-18.6,3.5c-9.5,1.7-18.8-0.9-24.7-8.8c-9.3-12.7-10.2-31.4-11.1-46.5
				c-0.5-8.1,0.2-16.6-1-24.6c-0.6-3.7-3.1-6.9-7.2-6.8c-9.4,0.4-7,20-6.7,25.8c0.1,1.2,2,1.3,1.9,0.1c-0.1-4.1-0.2-8.3,0-12.4
				c0.1-2.5,0.1-5.2,1-7.5c1.3-3.5,5.1-5.4,8.1-2.3c1.2,1.3,1.3,3.7,1.4,5.4c1.2,17,0.5,33.8,4.4,50.6c2.7,11.5,7.7,24.1,19.9,28.3
				c6.4,2.1,13.1,1.2,19.4-0.6c7.4-2,14.6-2.8,22.3-1.8c1.3,0.2,3.1,1,4.5,0.8c1.8-0.3,4.1-2,5.7-2.9c4.2-2.2,9.3-4.9,9.7-10.2
				C345.8,132.2,343.9,132.1,343.8,133.3L343.8,133.3z"/>
		</g>
	</g>
	<g>
		<g>
			<path class="st2" d="M418,176.9c-2.8,5.2-6.6,9.9-10.7,14c-9.4,9.3-20,13.1-32.9,14.8c-13.7,1.7-27.4,1.6-41.1,1.5
				c-4.6-0.1-15.2-1.5-16,5.5c-0.7,5.9,12.9,5.5,16.5,5.8c0-0.6,0-1.2,0.1-1.9c-4.6,0.1-17.7,0.7-17.4,7.6c0.4,6.5,13,6.1,17.3,6
				c0-0.6,0-1.2,0.1-1.9c-3.6,0.3-20.2,3-14.9,10.4c2.4,3.2,9.4,3.9,12.9,4.6c6,1.1,12.1,1.8,18.2,2.1c26.7,1.3,57.6-1.3,79.3-18.6
				c4.7-3.8,10.6-9.4,11.6-15.8c0.2-1.2-1.7-1.3-1.9-0.1c-1,5.8-7.7,11.9-12.5,15.5c-12.3,9.1-27.1,13.5-42.1,15.5
				c-14.5,2.1-29.5,2.3-44.1,0.6c-5.2-0.6-12.1-1-16.8-3.4c-10.1-5.3,6.1-8.8,10.2-9.1c1.2-0.1,1.3-2,0.1-1.9
				c-3.7,0.2-13.7,0.7-15.2-3.6c-1.9-5.3,11.9-6.3,15.2-6.3c1.2-0.1,1.3-1.8,0.1-1.9c-3.6-0.3-8.8-0.1-12.1-1.7
				c-4.1-1.9-0.5-5.4,2.7-5.8c1.8-0.2,3.8-0.2,5.6-0.2c14.1-0.1,28.2,0.3,42.3-1.3c13.5-1.5,25-4.9,35-14.3
				c4.8-4.4,9.2-9.8,12.2-15.5C420.2,176.8,418.6,175.9,418,176.9L418,176.9z"/>
		</g>
	</g>
	<g>
		<g>
			<path class="st2" d="M402.2,180.1c18.1,10.9,32.1,30.6,36.1,51.2c0.2,0.7,1.1,0.9,1.6,0.5c15.1-13.3,17.4-41.2,11.2-58.9
				c-6.9-19.9-26.1-28.8-45.4-32.9c-3.4-0.7-6.9-1.2-10.2-2.1c-8.4-2.2-12-9.6-12.6-17.7c-0.1-1.2-2-1.3-1.9-0.1
				c0.7,9.7,5.3,17.6,15.3,19.8c7.3,1.7,14.8,2.9,21.9,5.2c10,3.5,19.5,8.9,25.7,17.7c8.8,12.2,9.9,29.1,6.9,43.5
				c-1.8,8.4-5.5,18.1-12.1,24c0.5,0.1,1,0.3,1.6,0.5c-4.2-21-18.4-41.1-36.9-52.2C402.2,177.9,401.3,179.5,402.2,180.1L402.2,180.1
				z"/>
		</g>
	</g>
	<g>
		<g>
			<path class="st2" d="M430.1,225.7c1.4,4.1,4.7,9,9.6,6.3c1-0.6,0.2-2.3-0.8-1.6c-3.6,2.1-5.8-2.1-6.8-5.1
				C431.6,224.2,429.8,224.6,430.1,225.7L430.1,225.7z"/>
		</g>
	</g>
	<g>
		<g>
			<path class="st2" d="M341.3,243.5c-2.6,2.7-7.5,2-10.9,1.8c-3.7-0.1-7.5-0.3-11.2-0.4c-5.4-0.2-13.4,1.1-14-6.4
				c-0.6-9.2,0.7-19.1,1.1-28.4c0.2-5.8,0.4-11.6,0.7-17.4c0.1-3-0.2-6.3,0.4-9.3c1.2-7.2,8.7-5.4,13.8-5.2c5.4,0.2,11,0.1,16.4,0.6
				c8.1,0.7,6.6,7.9,6.4,13.7c-0.2,5.2-0.4,10.4-0.6,15.6c0,1.2,1.9,1.3,1.9,0.1c0.2-5.8,0.4-11.6,0.7-17.4
				c0.2-4.8,1.3-10.7-4.1-13.1c-4.5-2-11.4-0.9-16.2-1.1c-4.4-0.2-11.1-1.6-15.4,0c-4.8,1.9-4.7,6.5-4.8,10.7
				c-0.2,6.3-0.5,12.5-0.7,18.8c-0.4,10.8-1.7,21.9-1.2,32.8c0.4,8.2,8,7.7,14.1,7.9c4.9,0.2,9.8,0.4,14.7,0.6
				c3.4,0.1,7.9,0.2,10.5-2.4C343.4,243.9,342.1,242.6,341.3,243.5L341.3,243.5z"/>
		</g>
	</g>
	<g>
		<g>
			<path class="st2" d="M254.1,96.6c-1.3-4.5-5.8-19.1-12.7-15c-8.5,5-1.9,18.7,2,24.7c0.7,1,2.3,0.1,1.6-0.8
				c-3.3-5-8.4-14.7-4.3-20.5c5.3-7.3,10.5,8.3,11.6,12.2C252.6,98.3,254.5,97.9,254.1,96.6L254.1,96.6z"/>
		</g>
	</g>
	<g>
		<g>
			<path class="st2" d="M249,73.4c-5.4-2.9-12.8-3.4-16.4,2.4c-3.3,5.3-2.5,22.4,6.8,21.1c1.2-0.2,0.8-2-0.4-1.8
				c-2,0.2-4.2-2.6-4.9-4.3c-0.8-2-1.3-4.4-1.5-6.5c-0.3-3.9,0.8-8.4,4.6-10.3c3.3-1.7,7.7-0.6,10.8,1.1C249,75.5,250.1,74,249,73.4
				L249,73.4z"/>
		</g>
	</g>
	<g>
		<g>
			<path class="st2" d="M228,76.6c-8.8-0.2-8.4,11.8-6.2,17.4c1,2.5,2.8,5.4,5.8,5.4c3.4,0,5.9-3.2,6.7-6.1c0.3-1.2-1.4-1.8-1.8-0.6
				c-0.6,2.2-2.7,5.6-5.5,4.9c-2.7-0.7-3.8-4.8-4.2-7.2c-0.8-4.1-0.8-12,5.2-11.9C229.1,78.6,229.2,76.7,228,76.6L228,76.6z"/>
		</g>
	</g>
	<g>
		<g>
			<path class="st2" d="M224,97.3c0.4,17,2.1,34.9,7,51.3c6.6,22.3,27.5,40.7,50.3,44.9c5.4,1,11.2,1.5,16.6,0.3
				c1.2-0.3,0.8-2.1-0.4-1.8c-14.7,3.2-31.6-4-42.7-13c-10.3-8.2-18.2-18.2-21.9-30.9c-2.9-10-4.5-20.5-5.5-30.9
				c-0.6-6.6-1.2-13.3-1.3-19.9C225.8,96.2,223.9,96.1,224,97.3L224,97.3z"/>
		</g>
	</g>
	<g>
		<g>
			<path class="st2" d="M284.5,193.5c0.2,3.9,0.2,13,4.9,14.6c8,2.7,10.6-15.8,11.1-20.1c1.3-10.5,1.5-22.7-2.5-32.7
				c-1-2.4-2.4-5.8-4.8-7.2c-1.1-0.6-2,0.9-1,1.6c1.5,0.9,2.5,2.8,3.2,4.2c3.1,6.2,3.7,13.7,3.8,20.5c0.1,5.1-0.1,10.2-0.8,15.2
				c-0.7,4.5-1.6,11.3-4.9,14.8c-5.8,6.3-7-7.1-7.2-10.8C286.3,192.4,284.4,192.3,284.5,193.5L284.5,193.5z"/>
		</g>
	</g>
	<g>
		<g>
			<path class="st2" d="M289.4,208.1c5.2,3,10.3,5.9,15.5,8.9c1.1,0.6,2-1,1-1.6c-5.2-3-10.3-5.9-15.5-8.9
				C289.4,206,288.4,207.5,289.4,208.1L289.4,208.1z"/>
		</g>
	</g>
	<g>
		<g>
			<path class="st2" d="M323.5,164.2c-0.9,4.3-1.8,8.4-2.7,12.7c-0.2,1.2,1.5,1.8,1.8,0.6c0.9-4.3,1.8-8.4,2.7-12.7
				C325.5,163.6,323.7,163,323.5,164.2L323.5,164.2z"/>
		</g>
	</g>
	<g>
		<circle class="st1" cx="323.5" cy="187.9" r="3.1"/>
		<g>
			<path class="st2" d="M325.6,188c-0.3,2.8-4.5,2.6-4.4-0.2C321.4,185,325.6,185.2,325.6,188c0.1,1.2,1.9,1.3,1.9,0.1
				c0-2.2-1.6-4.2-3.9-4.3c-2.2-0.1-4.2,1.7-4.3,3.9c-0.1,2.1,1.6,4.1,3.7,4.2c2.4,0.2,4.2-1.6,4.4-3.9
				C327.6,186.9,325.7,186.8,325.6,188z"/>
		</g>
	</g>
	<g>
		<g>
			<path class="st2" d="M344.3,201.4c3.3,0.8,6.2,3.4,7.3,6.7c0.4,1.1,2.2,0.7,1.8-0.4c-1.2-3.8-4.5-7-8.5-8
				C343.7,199.4,343.1,201.2,344.3,201.4L344.3,201.4z"/>
		</g>
	</g>
	<g>
		<g>
			<path class="st2" d="M329.1,145.8c2,9.4,13.2,15.2,21.4,17.8c13.1,4.3,27.6,4.2,41.3,3.4c11.3-0.7,22.8-2.3,33.7-5.7
				c4.3-1.3,8.7-2.8,12.6-5.1c1-0.7,0.2-2.3-0.8-1.6c-10.2,6.3-23.9,8.4-35.6,9.8c-14.3,1.7-29.4,2.4-43.5-0.6
				c-7.9-1.6-16.1-4.6-22-10.4c-2.1-2.1-4.4-4.9-5.1-7.9C330.7,144.3,328.8,144.7,329.1,145.8L329.1,145.8z"/>
		</g>
	</g>
	<g>
		<g>
			<path class="st2" d="M389.9,167c5.9-6.7,6.1-19.3,6.7-27.8c0-1.2-1.9-1.3-1.9-0.1c-0.2,3.3-0.6,6.7-1,10
				c-0.7,5.2-1.5,12.4-5,16.5C387.9,166.5,389.2,167.8,389.9,167L389.9,167z"/>
		</g>
	</g>
	<g>
		<g>
			<path class="st2" d="M401.6,139.9c-1.6,7.8-2.6,16.4-0.9,24.4c0.3,1.2,2.1,0.8,1.8-0.4c-1.6-7.6-0.7-15.8,0.9-23.4
				C403.6,139.4,401.8,138.8,401.6,139.9L401.6,139.9z"/>
		</g>
	</g>
	<g>
		<g>
			<path class="st2" d="M423.2,230.6c0.4,7.9,0.8,15.8,2,23.6c0.6,4.1,1.5,8.2,2.3,12.3c0.6,3,0.8,6.9,2.1,9.8
				c0.5,0.9-0.2,1.6,0.5,0.4c-0.1,0.2-0.4,0.4-0.6,0.5c-1.1,1-2.4,1.9-3.5,2.8c-5.2,3.9-10.9,7.1-16.7,9.9
				c-31.9,14.9-74.1,14-101.1-10.6c-0.6-0.5-1.8-1.4-2.2-2.2c0.7,1.2,0.2,0.6,0.6-0.5c0.4-1.2,0.7-2.6,0.9-3.9
				c1.9-8.8,3.4-18.1,3.8-27.2c0-1.2-1.9-1.3-1.9-0.1c-0.3,5.8-1,11.5-2,17.1c-0.8,4.9-1.4,10.2-3.2,14.7c-0.1,0.3,0,0.7,0.2,0.9
				c9.8,10.8,25,17.6,39,20.8c24.9,5.8,52,1.1,74.2-11.6c4.8-2.7,9.6-5.8,13.7-9.6c0.2-0.2,0.3-0.6,0.2-0.9
				c-3.5-15.4-5.8-30.6-6.6-46.4C425.1,229.4,423.2,229.4,423.2,230.6L423.2,230.6z"/>
		</g>
	</g>
	<g>
		<g>
			<path class="st2" d="M396.5,79c6.8-1.5,13.8,2,12.4,10c-1.2,6.7-9.6,7.7-15.3,7.2c-1.2-0.1-1.3,1.8-0.1,1.9
				c7.1,0.7,16.9-1.5,17.3-10c0.4-8.7-7.1-12.6-14.8-10.9C394.8,77.5,395.3,79.3,396.5,79L396.5,79z"/>
		</g>
	</g>
	<g>
		<g>
			<path class="st2" d="M315.3,55.6c-0.2,3.4-1.2,13.1,2.9,14.6c5.4,2,6.5-9.6,6.6-12.7c-0.6,0-1.2,0-1.9-0.1
				c0.3,2.8,2.2,10.9,6.6,7.8c3.5-2.5,2.8-10.2,2.6-13.9c-0.1-1.2-2-1.3-1.9-0.1c0.2,2.9,0.2,6-0.4,8.9c-0.1,0.8-0.3,2.1-0.8,2.8
				c-1.5,1.7-2.6,0.3-3.3-1.1c-0.6-1.3-0.9-2.8-0.9-4.2c-0.1-1.2-1.9-1.3-1.9-0.1c-0.1,1.8-0.2,3.6-0.6,5.4c-0.4,1.8-2.5,8-4.4,4.2
				c-1.6-3.2-1.1-8-0.9-11.5C317.3,54.5,315.4,54.4,315.3,55.6L315.3,55.6z"/>
		</g>
	</g>
</g>
</svg>
