<?xml version="1.0" encoding="utf-8"?>
<!-- Generator: Adobe Illustrator 22.1.0, SVG Export Plug-In . SVG Version: 6.00 Build 0)  -->
<svg version="1.1" id="Capa_1" xmlns="http://www.w3.org/2000/svg" xmlns:xlink="http://www.w3.org/1999/xlink" x="0px" y="0px"
	 viewBox="0 0 80 80" style="enable-background:new 0 0 80 80;" xml:space="preserve">
<style type="text/css">
	.st0{fill:#5ABFED;}
	.st1{fill:#FFD16A;}
	.st2{fill:#222221;}
</style>
<path class="st0" d="M72.5,24.5C69.4,5.3,53.8,1.9,53.8,1.9L7.7,42l-4.4,1.8c-2.1,10.8,5.5,9.8,5.5,9.8l4.3-2l54.6,2
	C67.7,53.6,75.6,43.6,72.5,24.5z"/>
<polygon class="st1" points="23.5,51.9 18.4,74.2 22.1,78.1 33.1,78.1 40.2,55.6 35.7,51.9 "/>
<g>
	<g>
		<path class="st2" d="M74.7,26.3c1.5,6.6,4.3,26.6-6.5,27.8C58.5,55.2,52.8,39,51.1,32C49.5,25.4,47,6.7,56.9,4.3
			C66.9,1.9,73,19.7,74.7,26.3c0.3,1.2,2.3,0.7,1.9-0.5c-2-7.8-8.8-26.3-20.3-23.4c-11.3,2.8-9,22.3-7.1,30.2
			c2,8.1,8.4,25,19.4,23.6c12.3-1.6,9.8-22.6,8-30.3C76.3,24.6,74.4,25.1,74.7,26.3z"/>
	</g>
</g>
<g>
	<g>
		<path class="st2" d="M41.8,55.7c9.1,0.1,18.2,0.2,27.4,0.3c1.3,0,1.3-2,0-2c-9.1-0.1-18.2-0.2-27.4-0.3
			C40.6,53.7,40.6,55.7,41.8,55.7L41.8,55.7z"/>
	</g>
</g>
<g>
	<g>
		<path class="st2" d="M52.9,4.2C41.3,14.3,29.7,24.4,18.2,34.5c-3.5,3-8.8,6.2-9.6,11.2c-1.6,9.7,9.7,9.7,16,9.8c1.3,0,1.3-2,0-2
			c-2.5,0-5.2,0.2-7.7-0.2c-5.9-1-8-7.3-4-11.6c3.7-3.9,8.4-7.3,12.5-10.9C35,22.4,44.7,14,54.3,5.7C55.3,4.8,53.9,3.4,52.9,4.2
			L52.9,4.2z"/>
	</g>
</g>
<g>
	<g>
		<path class="st2" d="M49.7,25.9c4-0.3,8-0.6,12-0.9c1.7-0.1,3.3-0.2,5-0.4c-1,0.1-0.6-1.3-0.3,0.5c0.2,1.2,0.9,2.4,1.3,3.5
			c0.1,0.4,0.3,0.8,0.5,1.2c0.3,0.6,0.2-0.5,0.3-0.6c-0.3,0.3-0.8,0.6-1.1,0.9c-1.9,1.2-3.6,2.8-5.3,4.1c-3,2.3-6,4.6-8.9,7
			c-1,0.8,0.4,2.2,1.4,1.4c5.2-4,10.3-8,15.5-12c0.3-0.2,0.4-0.7,0.3-1c-0.8-2.1-1.6-4.2-2.4-6.4c-0.1-0.4-0.5-0.8-1-0.7
			c-5.7,0.4-11.4,0.8-17.1,1.2C48.4,23.9,48.4,25.9,49.7,25.9L49.7,25.9z"/>
	</g>
</g>
<g>
	<g>
		<path class="st2" d="M63.2,28.5c1.3,2.2,3.8,3.4,6.3,2.5c1.2-0.5,0.7-2.4-0.5-1.9c-1.6,0.6-3.1-0.1-4-1.5
			C64.3,26.4,62.5,27.4,63.2,28.5L63.2,28.5z"/>
	</g>
</g>
<g>
	<g>
		<path class="st2" d="M20.6,75.2c3.9,0,7.9,0,11.8,0c0.4,0,0.9-0.3,1-0.7c1.8-7.8,3.6-15.6,5.5-23.4c0.2-0.7-0.3-1.2-1-1.3
			c-4.1-0.2-8.3-0.4-12.4-0.6c-0.4,0-0.9,0.3-1,0.7c-1.6,8-3.3,16-4.9,24c-0.3,1.3,1.7,1.8,1.9,0.5c1.4-6.7,2.7-13.4,4.1-20.1
			c0.2-1.1,0.7-2.4,0.7-3.5c0-0.9-1.2,0.3-0.5,0.3c0.5,0,1.1,0,1.6,0.1c3.3,0.6,7.1,0.3,10.4,0.5c-0.3-0.4-0.6-0.8-1-1.3
			c-1.5,6.5-3,12.9-4.5,19.4c-0.3,1.2-0.6,2.4-0.8,3.6c-0.2,0.8-0.1-0.2,0.8-0.3c-0.6,0.1-1.3,0-1.9,0c-3.3,0-6.5,0-9.8,0
			C19.3,73.2,19.3,75.2,20.6,75.2z"/>
	</g>
</g>
<g>
	<g>
		<path class="st2" d="M31.7,74.9c0.8,0.9,1.7,1.8,2.5,2.7c0.5,0.6,1.4,0.2,1.7-0.4c2.4-7.3,4.8-14.6,7.3-21.9c0.1-0.3,0-0.7-0.3-1
			c-1.3-1.4-2.7-2.8-4-4.3c-0.9-0.9-2.3,0.5-1.4,1.4c0.9,0.9,1.7,2,2.6,2.8c0.4,0.3,1,0.8,1.2,1.3c-0.1-0.2-0.2-1.3-0.3-0.4
			c-0.2,2.2-1.6,4.7-2.3,6.8c-1.6,4.9-3.2,9.8-4.9,14.6c0.6-0.1,1.1-0.3,1.7-0.4c-0.8-0.9-1.7-1.8-2.5-2.7S30.8,74,31.7,74.9
			L31.7,74.9z"/>
	</g>
</g>
<g>
	<g>
		<path class="st2" d="M8.9,44.2c-1.3,0.7-3.1,1.2-4.2,2.1c-1.6,1.3-1.4,4.4-0.6,6.1C4.9,54,7,56.1,9,55.8c1.5-0.2,3-1.1,4.4-1.6
			c1.2-0.4,0.7-2.4-0.5-1.9c-1.1,0.4-2.3,0.8-3.4,1.2c-0.3,0.1-0.5,0.2-0.8,0.3c-0.6,0.2,0.2,0.1-0.1,0.1c-1.4-0.2-2.5-1.4-3-2.7
			C5.2,50.1,5.4,49,5.8,48c0.2-0.5-0.5,0.3-0.1,0.1C6,48,6.2,47.8,6.5,47.7c1.1-0.5,2.2-1.1,3.2-1.6C11.1,45.4,10.1,43.7,8.9,44.2
			L8.9,44.2z"/>
	</g>
</g>
<g>
	<g>
		<path class="st2" d="M65.7,12.8c-1.8-3.3-5.2-5.5-9-5.7c-1.3,0-1.3,2,0,2c3.1,0.1,5.8,2,7.2,4.7C64.6,15,66.3,13.9,65.7,12.8
			L65.7,12.8z"/>
	</g>
</g>
<g>
	<g>
		<path class="st2" d="M62.2,13.1c-1.1-2.3-4.1-3.5-6.5-3.5c-1.3,0-1.3,2,0,2c1.8,0,4,0.9,4.8,2.5C61,15.2,62.7,14.2,62.2,13.1
			L62.2,13.1z"/>
	</g>
</g>
<g>
	<g>
		<path class="st2" d="M19.9,74.9c0.7,0.8,1.6,2.4,2.6,2.9c0.8,0.4,2.2,0.1,3,0.1c3.1,0,6.3,0,9.4,0c1.3,0,1.3-2,0-2
			c-2.8,0-5.6,0-8.4,0c-1.1,0-2.4,0.2-3.4,0c0.1,0,0.7,0.5,0.4,0c-0.2-0.3-0.5-0.6-0.8-0.9c-0.5-0.5-0.9-1-1.4-1.6
			C20.4,72.5,19,73.9,19.9,74.9L19.9,74.9z"/>
	</g>
</g>
</svg>
