<?xml version="1.0" encoding="utf-8"?>
<!-- Generator: Adobe Illustrator 22.1.0, SVG Export Plug-In . SVG Version: 6.00 Build 0)  -->
<svg version="1.1" id="Capa_3" xmlns="http://www.w3.org/2000/svg" xmlns:xlink="http://www.w3.org/1999/xlink" x="0px" y="0px"
	 viewBox="0 0 800 800" style="enable-background:new 0 0 800 800;" xml:space="preserve">
<style type="text/css">
	.st0{fill:#5ABCEA;}
	.st1{fill:#FFD16A;}
	.st2{fill:#222221;}
</style>
<path class="st0" d="M653.8,129.5V91c0,0-136.9-46.2-241.3-49.9C308,37.3,228.1,56.7,197.7,69.6c-30.4,13-36.5,50.5-36.5,50.5
	L49.7,133.8c0,0,9.9,134.6,47,189.7c32.3,47.8,145.5,113.3,154.8,141c9.3,27.7,85.8,66.3,85.8,66.3L324.1,600
	c22.1,39,69.5,49.5,112.1,47.8c20.7-0.8,42.6-2.4,62.2-9.7c25.7-9.6,24.4-28,29.3-52.6c0.1-0.3,0.2-0.6,0.2-1h-28.1
	c0,0-13.2-42.8,1.9-42.8c15.1,0,61.5-69.6,61.5-69.6c38.3-2.3,107.1-69.6,137.1-137.7C744.9,233,748.2,127,748.2,127L653.8,129.5z
	 M160.5,323.4c-39.5-49.4-50.8-144-50.8-144h98.1c0,0,2.8,37.1,15.5,94.6c12.7,57.4,40.9,117.1,40.9,117.1S187.1,356.7,160.5,323.4z
	 M669.3,323.4c-26.7,33.3-81.9,67.6-81.9,67.6s26.8-54.5,39.5-111.9s11.3-99.8,11.3-99.8h81.9C720.1,179.4,708.8,274,669.3,323.4z"
	/>
<path class="st1" d="M256.2,563.7L176,670.5L233.7,790h397.1l-43.3-145.8l-60.6-80.5l-45.7,4.2l-1.9,55.5c0,0-20.2,0.9-67.5,6.6
	s-74.3-26.3-74.3-26.3l-4.2-40H256.2z"/>
<polygon class="st1" points="439.1,211.3 463.1,285.2 540.8,285.2 477.9,330.9 501.9,404.8 439.1,359.1 376.2,404.8 400.2,330.9 
	337.4,285.2 415.1,285.2 "/>
<g>
	<path class="st2" d="M763.9,132.1c-36.2,2.7-72.5,5.3-108.7,8c-2.9,0.2-5.8,0.4-8.8,0.6c-0.4-8.8-0.7-17.5-1.1-26.3
		c-0.1-2-0.9-3.7-2.1-4.9c2.6-2.5,3.5-6.6,0-9.7c-8.5-7.6-21.1-11.5-31.7-15C571.3,71.4,528,66.2,485.9,62.2
		C422.2,56.1,357,53,293.2,59.6c-30.4,3.2-62.7,8-90.2,22.4c-8.2,4.3-18,10.4-22.4,19.1c-0.2,0.4-0.3,0.7-0.5,1.1l0,0
		c-0.1,0.3-0.2,0.6-0.3,0.8c-0.6,1.6-0.6,3-0.3,4.2c0,8.3,0,16.6,0,24.9c-34.7,0-69.5,0-104.2,0c-5.3,0-10.5,0-15.8,0
		c-5.1,0-7.4,4.5-6.8,8.9c3.1,22.9,7.5,45.7,12.4,68.3c8.7,40,18.9,81,37.7,117.6c19.3,37.6,55.6,63.7,89.8,86.8
		c17.2,11.6,34.8,22.5,52.7,32.9c6,3.5,12.1,6.9,18.3,10.3c2,1.1,4.9,3.4,7.4,4.2c1.6,2.3,3.3,4.5,4.9,6.7
		c6.1,8.2,12.5,16.3,19.3,23.9c6.8,7.7,14.1,15.2,22.6,21c10.5,7.1,23.2,11.9,35,16.4c0.6,0.2,1.2,0.5,1.8,0.7c0,4.2,0,8.4,0,12.6
		c-4.2,0-8.5,0-12.7,0c-3.8,0-7.1,3.2-7.1,7.1c0,7.1,0,14.1,0,21.2c-0.4,0-0.9-0.1-1.4,0c-27.3,2.2-54.6,4.4-81.9,6.7
		c-0.3,0-0.7,0.1-1,0.2c-1.9,0.2-3.8,1.2-5.1,3.3c-16.5,27.2-32.9,54.3-49.4,81.5c-2.4,3.9-4.7,7.8-7.1,11.7c-1.3,2.1-1.3,5,0,7.1
		c16.5,27.2,32.9,54.3,49.4,81.5c2.2,3.6,4.4,7.3,6.6,10.9c0.2,0.3,0.4,0.7,0.6,1c1.1,1.6,2.5,2.5,4,2.9c0.6,0.2,1.3,0.3,1.9,0.3
		c39.4,0,78.7,0,118.1,0c62.2,0,124.4,0,186.6,0c14.2,0,28.4,0,42.6,0c4.7,0,7.9-4.5,6.8-8.9c-8.6-35.1-17.3-70.2-25.9-105.3
		c-1.1-4.5-2.2-9-3.3-13.6c0-1-0.3-1.9-0.8-2.8c-0.4-1-1-1.8-1.7-2.4c-10-13.5-20-27.1-30-40.6c-6.1-8.3-12.2-16.6-18.4-24.8
		c-1.2-1.7-2.4-3.5-3.7-5.1c-3.1-3.7-6-3.7-10.3-3.7c-8.1,0-16.1,0-24.2,0c0-4.4,0-8.7,0-13.1c0-3.4-2.3-5.6-5.2-6.8
		c-5-2.1-10.1-4.1-15.1-6.2c-0.2-1.9-0.4-3.7-0.6-5.6c15.1-10.5,30.2-21,45.4-31.2c16.7-11.2,28.2-28.8,36.9-46.8
		c38.2-13.1,75-34.2,106.6-59.1c28.6-22.6,51.3-49.8,67.6-82.4c18.8-37.5,32.6-77.6,40.6-118.7c3.9-20.1,7.3-41,7.3-61.6
		C770.9,135.6,767.7,131.9,763.9,132.1z M218.3,90.4C218.6,90.2,218.7,90.2,218.3,90.4L218.3,90.4z M199.8,100.7
		c0.6-0.4,1.1-0.8,1.7-1.2c1.4-1,2.9-2,4.5-2.9c3.8-2.3,7.7-4.2,11.7-6c0.1-0.1,0.3-0.1,0.4-0.2c0.6-0.2,1.1-0.5,1.7-0.7
		c1.4-0.5,2.8-1.1,4.1-1.6c2.9-1,5.8-2,8.7-2.9c15.8-4.9,32.2-8,48.6-10.1c59.6-7.8,120.7-5.4,180.5-0.9
		c45.8,3.5,92.4,8.4,136.6,21.3c5.6,1.6,11.2,3.4,16.7,5.5c1,0.4,2,0.8,3,1.2c0.5,0.2,2.5,1,2.5,1c1.4,0.6,2.8,1.2,4.2,1.9
		c2.3,1.1,4.5,2.2,6.6,3.6c0.4,0.2,1,0.7,1.5,1c-0.1,0.1-0.3,0.2-0.6,0.5c0.1,0,0.1-0.1,0.2-0.1c0.1-0.1,0.3-0.2,0.4-0.3l0,0
		c-0.1,0.1-0.2,0.2-0.4,0.3c-0.2,0.1-0.3,0.3-0.5,0.4c0.1-0.1,0.2-0.2,0.3-0.3c-0.2,0.1-0.3,0.3-0.5,0.4c-0.8,0.5-1.5,1.1-2.3,1.6
		c-5.2,3.4-10.7,6.4-16.3,9c-5.3,2.5-7.5,3.4-12.7,5.4c-5.6,2.2-11.3,4.1-17,5.9c-15.2,4.7-30.7,8.3-46.3,11.2
		c-49.1,9-100.2,11.9-150.1,10c-47-1.8-93.8-10.9-138-27c-17.7-6.4-35.7-13.8-52-23.5c0.7-0.7,1.4-1.3,2.2-2
		C199.4,101,199.6,100.8,199.8,100.7z M269.9,459.7C269.7,459.3,269.6,459.2,269.9,459.7L269.9,459.7z M208.3,685.7
		c-1.6-2.7-3.3-5.4-4.9-8.1c15.7-26,31.5-51.9,47.2-77.9c0.5-0.9,1.1-1.8,1.6-2.7c13,17.3,26,34.6,39,52c0.6,0.8,1.2,1.6,1.7,2.4
		c-14,34.1-28,68.2-41.9,102.3c-0.2,0.5-0.4,1-0.6,1.5C236.3,732,222.3,708.8,208.3,685.7z M588.2,757.4c0.5,2.1,1,4.2,1.5,6.3
		c-36.3,0-72.7,0-109,0c-62.2,0-124.4,0-186.6,0c-10.7,0-21.4,0-32.1,0c13.2-32.1,26.3-64.2,39.5-96.3c1.4-3.3,2.7-6.7,4.1-10
		c7.4,0,14.8,0,22.2,0c62.4,0,124.8,0,187.2,0c16.2,0,32.4,0,48.6,0C571.8,690.7,580,724,588.2,757.4z M511.9,584.8
		c14.4,19.5,28.8,38.9,43.2,58.4c-25.6,0-51.2,0-76.8,0c-48.2,0-96.3,0-144.5,0c-9.8,0-19.7,0-29.5,0
		c-13.2-17.6-26.4-35.2-39.6-52.8c22.9-1.9,45.7-3.7,68.6-5.6c0.5,0,1-0.1,1.4-0.2c0,3.3,0,6.7,0,10c0,5-0.5,10.4,0,15.4
		c0.7,6.6,10,10.2,15.2,12.8c27.4,13.5,58.3,17.8,88.2,11c13.5-3.1,26.6-8.1,39-14.2c2.2-1.1,4.6-2,6.6-3.4c3.2-2.2,3.5-5.1,3.5-8.6
		c0-7.6,0-15.1,0-22.7C495.5,584.8,503.7,584.8,511.9,584.8z M719.2,294.6c-10.4,23.2-22.3,45.5-39.1,64.6
		c-26.2,29.8-59.6,52.6-94.8,70.5c-11.5,5.9-22.6,10.9-33.9,15.3c-5.4,2.1-11.9,3.1-14.8,8.6c-4.3,8.2-8.7,16.3-14.1,23.9
		c-6.5,9.3-14,15.5-23.2,21.7c-14.7,10-29.4,20.2-44,30.4c-1.9,1.3-3.8,3.5-3.5,6.1c0.5,4.6,0.9,9.2,1.4,13.9c0.4,3.5,2,5.5,5.2,6.8
		c4.9,2,9.7,4,14.6,6c0,14.5,0,29,0,43.6c-37.8,20.5-87.1,24.2-124.2,0.4c0-14.9,0-29.7,0-44.6c6.9,7.5,15.6,13.5,24.6,17.4
		c12.6,5.4,25.5,6.4,39,5.3c10.8-0.9,22.1-2,32.5-5.2c3.7-1.1,8-2.5,10.9-5.3c6.3-6.1-2.8-15.6-9.3-10.6c-0.6,0.2-1.2,0.7-1.7,0.9
		c0,0-0.1,0-0.1,0.1c-0.6,0.2-1.1,0.4-1.7,0.6c-1.8,0.6-3.7,1.2-5.6,1.6c-13.3,3.3-28.7,5.4-42.4,3.9c-11.2-1.2-22-6.1-30.5-13.4
		c-0.3-0.3-0.6-0.6-0.9-0.8c2.8-0.9,4.9-3.6,4.9-6.7c0-8.2,0-16.4,0-24.7c0-3.2-2.2-5.9-5.2-6.8c-18.2-5.8-36.4-13.8-50.1-27.4
		c-11.7-11.7-21.7-24.9-31.4-38.3c-1.8-2.5-3.5-3.4-6-4.7c-4.6-2.4-9.1-5-13.7-7.5c-16.3-9.1-32.3-18.7-48-28.8
		c-19.1-12.3-37.8-25.3-55.2-39.8c-14.6-12.2-28.9-25.4-38.7-41.7c-9.7-16.1-16.5-33.8-22.4-51.5c-6.5-19.7-11.9-39.8-16.5-60
		c-4-17.2-7.4-34.5-10.5-51.8c-1.2-6.6-1.9-13.4-3.1-20.1c34.3,0,68.6,0,102.8,0c5.3,0,10.5,0,15.8,0c3.8,0,7.1-3.2,7.1-7.1
		c0-7.3,0-14.5,0-21.8c12.5,7,26,12.7,39.2,18c42.3,17,87.3,27.1,132.6,31c29.5,2.5,59.3,2,88.9,0.5c23.9-1.2,47.8-3.5,71.5-7.1
		c30-4.6,60-11.5,88-23.5c5.9-2.5,12-5.3,17.8-8.6c0.3,6.9,0.6,13.8,0.9,20.7c0,0.9,0.2,1.8,0.5,2.5c0.7,2.7,2.9,4.8,6.5,4.6
		c36.2-2.7,72.5-5.3,108.7-8c2.8-0.2,5.5-0.4,8.3-0.6c-0.9,23.4-5.4,47-10.9,69.6C739.3,243.2,730.5,269.5,719.2,294.6z
		 M444.7,564.4C444.3,564.6,443.9,564.8,444.7,564.4L444.7,564.4z"/>
	<path class="st2" d="M199.2,202.9c-0.5-7.8-0.8-15.7-0.6-23.6c0.1-3.8-3.3-7.1-7.1-7.1c-27.3,0-54.6,0-81.9,0
		c-3.5,0-7.5,3.3-7.1,7.1c4.5,37.6,14.3,75.7,29.8,110.3c6.2,13.8,13.7,26.9,23.1,38.8c14.7,18.2,33.2,33.1,51.8,47
		c10.2,7.6,20.7,15,31.5,21.7c6.4,4,12.6-3.7,9.7-9.7C220.3,330.2,202.9,266.7,199.2,202.9z M165.5,318.4
		c-15.7-19.8-25.4-44.3-32.9-68.2c-6.1-19.6-10.8-39.7-14.2-60c-0.2-1.3-0.4-2.6-0.6-3.8c22.2,0,44.4,0,66.6,0
		c-0.1,20.9,2.5,42,5.7,62.5c6.3,40.9,18.3,80.4,34.2,118.6c0.6,1.5,1.3,3.1,1.9,4.6C203.8,356.8,182.2,339.2,165.5,318.4z"/>
	<path class="st2" d="M720.1,172.3c-27.3,0-54.6,0-81.9,0c-3.7,0-7.2,3.2-7.1,7.1c0.7,22.5-1.8,45.4-5.3,67.6
		c-6.3,39.8-18,78.3-33.4,115.6c-3.5,8.4-7.1,16.8-11.1,25c-2.9,6,3.3,13.6,9.7,9.7c10.8-6.7,21.3-14.1,31.5-21.7
		c18.6-13.9,37.1-28.9,51.8-47c16.7-21.2,27.5-46.3,35.7-71.8c6.6-20.7,11.6-41.9,15.1-63.3c0.8-4.6,1.5-9.3,2-13.9
		C727.6,175.6,723.6,172.3,720.1,172.3z M713,180L713,180c0,0.1,0,0.2,0,0.2c0,0.1,0,0.2,0,0.3C712.9,180.4,712.9,180.2,713,180z
		 M707.2,212.3c-5.1,23.5-11.7,47-21.4,69c-5.8,13-12.6,25.9-21.5,37.2c-16.7,20.6-38,38.1-60.2,53.4c22.9-53,37.1-110.1,40.6-167.7
		c0.4-5.9,0.7-11.8,0.7-17.7c22.2,0,44.4,0,66.6,0c-0.1,0.4-0.1,0.7-0.2,1.1C710.5,195.8,708.9,204.1,707.2,212.3z"/>
	<path class="st2" d="M340.9,441.8c-11.4-7.3-21.6-16.1-30.5-26.4c-6-6.9-15.9,3.2-10,10c9.7,11.1,20.9,20.7,33.3,28.6
		C341.5,458.9,348.6,446.7,340.9,441.8z"/>
	<path class="st2" d="M358.2,427.1c-7.8-4.4-14.4-10-20-16.9c-2.4-3-7.5-2.5-10,0c-2.9,2.9-2.4,7,0,10c6.3,7.8,14.1,14.2,22.9,19.1
		C359,443.8,366.1,431.6,358.2,427.1z"/>
	<path class="st2" d="M557.2,212.6c3.4,6.9,4.3,14.2,3.3,21.8c-0.5,3.8,3.6,7,7.1,7.1c4.2,0,6.6-3.3,7.1-7.1
		c1.3-10.1-0.8-19.8-5.2-28.9C565.4,197.4,553.2,204.5,557.2,212.6z"/>
	<path class="st2" d="M526.8,278.2c-24.2,0-48.4,0-72.6,0c-7.3-22.5-14.6-45.1-22-67.6c-0.2-2.5-1.8-4.4-3.9-5.3
		c-0.9-0.4-1.9-0.7-3-0.7c-0.1,0-0.2,0-0.3,0h-0.1c-1,0-2.1,0.2-3,0.7c-2.1,0.9-3.8,2.8-3.9,5.3c-7.3,22.5-14.6,45.1-22,67.6
		c-24.2,0-48.4,0-72.6,0c-7.5,0-8.9,9.2-3.6,13.1c19.4,14.1,38.8,28.2,58.1,42.2c-7.5,23.1-15,46.2-22.5,69.4
		c-1.8,5.5,5.3,11.6,10.4,8c19.8-14.4,39.5-28.7,59.3-43.1c19.8,14.4,39.5,28.7,59.3,43.1c5,3.6,12.2-2.4,10.4-8
		c-7.5-23.1-15-46.2-22.5-69.4c19.4-14.1,38.8-28.2,58.1-42.2C535.8,287.4,534.3,278.2,526.8,278.2z M421.6,353
		c-15.3,11.1-30.6,22.2-45.9,33.3c5.8-17.9,11.6-35.7,17.4-53.6c1-3.2-0.8-6.2-3.2-8c-14.9-10.8-29.8-21.7-44.8-32.5
		c18.7,0,37.4,0,56,0c3.2,0,5.8-2.2,6.8-5.2c5.7-17.6,11.5-35.3,17.2-52.9c5.7,17.6,11.5,35.3,17.2,52.9c1,3,3.6,5.2,6.8,5.2
		c18.7,0,37.4,0,56,0c-14.9,10.8-29.8,21.7-44.8,32.5c-2.5,1.8-4.3,4.8-3.2,8c5.8,17.9,11.6,35.7,17.4,53.6
		c-15.3-11.1-30.6-22.2-45.9-33.3C426.8,351.7,423.4,351.7,421.6,353z"/>
	<path class="st2" d="M531.2,705.5c6-6.8-4-16.8-10-10c-8.7,9.9-19.3,17.9-31.5,22.9c-3.6,1.5-6,4.7-4.9,8.7
		c0.9,3.3,5.2,6.4,8.7,4.9C508,726.2,520.8,717.4,531.2,705.5z"/>
	<path class="st2" d="M542.5,719.2c-11.3,8-23.6,14.2-36.9,18.4c-8.6,2.7-4.9,16.4,3.8,13.6c14.4-4.5,27.9-11.1,40.2-19.8
		C557,726.2,550,714,542.5,719.2z"/>
	<path class="st2" d="M317.3,126.8c8.1-11.1,20.2-18.1,33.5-20.8c8.9-1.8,5.1-15.4-3.8-13.6c-17.1,3.4-31.7,13.3-41.9,27.3
		C299.8,127,312,134,317.3,126.8z"/>
	<path class="st2" d="M345.6,136.5c4.4-4.5,9.8-6.8,16.1-6.7c9.1,0.1,9.1-14,0-14.1c-9.8-0.1-19.2,3.7-26,10.8
		C329.3,133,339.2,143,345.6,136.5z"/>
</g>
</svg>
