<svg height='180px' version="1.1" id="el_oPhi7OmV3" xmlns="http://www.w3.org/2000/svg" xmlns:xlink="http://www.w3.org/1999/xlink" x="0px" y="0px" viewBox="0 0 800 800" style="enable-background:new 0 0 800 800;" xml:space="preserve"><style>@-webkit-keyframes kf_el_F1Dr9nBFbxP_an_2buwTcQmK{0%{-webkit-transform: translate(355.1009826660156px, 213.84762573242188px) translate(-355.1009826660156px, -213.84762573242188px) translate(0px, 0px);transform: translate(355.1009826660156px, 213.84762573242188px) translate(-355.1009826660156px, -213.84762573242188px) translate(0px, 0px);}50%{-webkit-transform: translate(355.1009826660156px, 213.84762573242188px) translate(-355.1009826660156px, -213.84762573242188px) translate(0px, -3px);transform: translate(355.1009826660156px, 213.84762573242188px) translate(-355.1009826660156px, -213.84762573242188px) translate(0px, -3px);}100%{-webkit-transform: translate(355.1009826660156px, 213.84762573242188px) translate(-355.1009826660156px, -213.84762573242188px) translate(0px, 0px);transform: translate(355.1009826660156px, 213.84762573242188px) translate(-355.1009826660156px, -213.84762573242188px) translate(0px, 0px);}}@keyframes kf_el_F1Dr9nBFbxP_an_2buwTcQmK{0%{-webkit-transform: translate(355.1009826660156px, 213.84762573242188px) translate(-355.1009826660156px, -213.84762573242188px) translate(0px, 0px);transform: translate(355.1009826660156px, 213.84762573242188px) translate(-355.1009826660156px, -213.84762573242188px) translate(0px, 0px);}50%{-webkit-transform: translate(355.1009826660156px, 213.84762573242188px) translate(-355.1009826660156px, -213.84762573242188px) translate(0px, -3px);transform: translate(355.1009826660156px, 213.84762573242188px) translate(-355.1009826660156px, -213.84762573242188px) translate(0px, -3px);}100%{-webkit-transform: translate(355.1009826660156px, 213.84762573242188px) translate(-355.1009826660156px, -213.84762573242188px) translate(0px, 0px);transform: translate(355.1009826660156px, 213.84762573242188px) translate(-355.1009826660156px, -213.84762573242188px) translate(0px, 0px);}}@-webkit-keyframes kf_el_M-8Jc0jr1s-_an_5e33cCs1V{0%{-webkit-transform: translate(509.00099182128906px, 202.82279205322266px) rotate(0deg) translate(-509.00099182128906px, -202.82279205322266px);transform: translate(509.00099182128906px, 202.82279205322266px) rotate(0deg) translate(-509.00099182128906px, -202.82279205322266px);}50%{-webkit-transform: translate(509.00099182128906px, 202.82279205322266px) rotate(-3deg) translate(-509.00099182128906px, -202.82279205322266px);transform: translate(509.00099182128906px, 202.82279205322266px) rotate(-3deg) translate(-509.00099182128906px, -202.82279205322266px);}100%{-webkit-transform: translate(509.00099182128906px, 202.82279205322266px) rotate(0deg) translate(-509.00099182128906px, -202.82279205322266px);transform: translate(509.00099182128906px, 202.82279205322266px) rotate(0deg) translate(-509.00099182128906px, -202.82279205322266px);}}@keyframes kf_el_M-8Jc0jr1s-_an_5e33cCs1V{0%{-webkit-transform: translate(509.00099182128906px, 202.82279205322266px) rotate(0deg) translate(-509.00099182128906px, -202.82279205322266px);transform: translate(509.00099182128906px, 202.82279205322266px) rotate(0deg) translate(-509.00099182128906px, -202.82279205322266px);}50%{-webkit-transform: translate(509.00099182128906px, 202.82279205322266px) rotate(-3deg) translate(-509.00099182128906px, -202.82279205322266px);transform: translate(509.00099182128906px, 202.82279205322266px) rotate(-3deg) translate(-509.00099182128906px, -202.82279205322266px);}100%{-webkit-transform: translate(509.00099182128906px, 202.82279205322266px) rotate(0deg) translate(-509.00099182128906px, -202.82279205322266px);transform: translate(509.00099182128906px, 202.82279205322266px) rotate(0deg) translate(-509.00099182128906px, -202.82279205322266px);}}@-webkit-keyframes kf_el_rqdbV1_e1nc_an_tDvC3gbNT{0%{-webkit-transform: translate(447.35435485839844px, 399.37750244140625px) rotate(0deg) translate(-447.35435485839844px, -399.37750244140625px);transform: translate(447.35435485839844px, 399.37750244140625px) rotate(0deg) translate(-447.35435485839844px, -399.37750244140625px);}50%{-webkit-transform: translate(447.35435485839844px, 399.37750244140625px) rotate(3deg) translate(-447.35435485839844px, -399.37750244140625px);transform: translate(447.35435485839844px, 399.37750244140625px) rotate(3deg) translate(-447.35435485839844px, -399.37750244140625px);}100%{-webkit-transform: translate(447.35435485839844px, 399.37750244140625px) rotate(0deg) translate(-447.35435485839844px, -399.37750244140625px);transform: translate(447.35435485839844px, 399.37750244140625px) rotate(0deg) translate(-447.35435485839844px, -399.37750244140625px);}}@keyframes kf_el_rqdbV1_e1nc_an_tDvC3gbNT{0%{-webkit-transform: translate(447.35435485839844px, 399.37750244140625px) rotate(0deg) translate(-447.35435485839844px, -399.37750244140625px);transform: translate(447.35435485839844px, 399.37750244140625px) rotate(0deg) translate(-447.35435485839844px, -399.37750244140625px);}50%{-webkit-transform: translate(447.35435485839844px, 399.37750244140625px) rotate(3deg) translate(-447.35435485839844px, -399.37750244140625px);transform: translate(447.35435485839844px, 399.37750244140625px) rotate(3deg) translate(-447.35435485839844px, -399.37750244140625px);}100%{-webkit-transform: translate(447.35435485839844px, 399.37750244140625px) rotate(0deg) translate(-447.35435485839844px, -399.37750244140625px);transform: translate(447.35435485839844px, 399.37750244140625px) rotate(0deg) translate(-447.35435485839844px, -399.37750244140625px);}}@-webkit-keyframes kf_el_1VkGBhaYk9q_an_LxkVwPAIG{0%{-webkit-transform: translate(450.58436584472656px, 236.0767822265625px) rotate(0deg) translate(-450.58436584472656px, -236.0767822265625px);transform: translate(450.58436584472656px, 236.0767822265625px) rotate(0deg) translate(-450.58436584472656px, -236.0767822265625px);}50%{-webkit-transform: translate(450.58436584472656px, 236.0767822265625px) rotate(-1deg) translate(-450.58436584472656px, -236.0767822265625px);transform: translate(450.58436584472656px, 236.0767822265625px) rotate(-1deg) translate(-450.58436584472656px, -236.0767822265625px);}100%{-webkit-transform: translate(450.58436584472656px, 236.0767822265625px) rotate(0deg) translate(-450.58436584472656px, -236.0767822265625px);transform: translate(450.58436584472656px, 236.0767822265625px) rotate(0deg) translate(-450.58436584472656px, -236.0767822265625px);}}@keyframes kf_el_1VkGBhaYk9q_an_LxkVwPAIG{0%{-webkit-transform: translate(450.58436584472656px, 236.0767822265625px) rotate(0deg) translate(-450.58436584472656px, -236.0767822265625px);transform: translate(450.58436584472656px, 236.0767822265625px) rotate(0deg) translate(-450.58436584472656px, -236.0767822265625px);}50%{-webkit-transform: translate(450.58436584472656px, 236.0767822265625px) rotate(-1deg) translate(-450.58436584472656px, -236.0767822265625px);transform: translate(450.58436584472656px, 236.0767822265625px) rotate(-1deg) translate(-450.58436584472656px, -236.0767822265625px);}100%{-webkit-transform: translate(450.58436584472656px, 236.0767822265625px) rotate(0deg) translate(-450.58436584472656px, -236.0767822265625px);transform: translate(450.58436584472656px, 236.0767822265625px) rotate(0deg) translate(-450.58436584472656px, -236.0767822265625px);}}@-webkit-keyframes kf_el_ludQ1E63jM_an_q--TLZbKo{0%{-webkit-transform: translate(398.7971725463867px, 397.91323471069336px) rotate(0deg) translate(-398.7971725463867px, -397.91323471069336px);transform: translate(398.7971725463867px, 397.91323471069336px) rotate(0deg) translate(-398.7971725463867px, -397.91323471069336px);}50%{-webkit-transform: translate(398.7971725463867px, 397.91323471069336px) rotate(3deg) translate(-398.7971725463867px, -397.91323471069336px);transform: translate(398.7971725463867px, 397.91323471069336px) rotate(3deg) translate(-398.7971725463867px, -397.91323471069336px);}100%{-webkit-transform: translate(398.7971725463867px, 397.91323471069336px) rotate(0deg) translate(-398.7971725463867px, -397.91323471069336px);transform: translate(398.7971725463867px, 397.91323471069336px) rotate(0deg) translate(-398.7971725463867px, -397.91323471069336px);}}@keyframes kf_el_ludQ1E63jM_an_q--TLZbKo{0%{-webkit-transform: translate(398.7971725463867px, 397.91323471069336px) rotate(0deg) translate(-398.7971725463867px, -397.91323471069336px);transform: translate(398.7971725463867px, 397.91323471069336px) rotate(0deg) translate(-398.7971725463867px, -397.91323471069336px);}50%{-webkit-transform: translate(398.7971725463867px, 397.91323471069336px) rotate(3deg) translate(-398.7971725463867px, -397.91323471069336px);transform: translate(398.7971725463867px, 397.91323471069336px) rotate(3deg) translate(-398.7971725463867px, -397.91323471069336px);}100%{-webkit-transform: translate(398.7971725463867px, 397.91323471069336px) rotate(0deg) translate(-398.7971725463867px, -397.91323471069336px);transform: translate(398.7971725463867px, 397.91323471069336px) rotate(0deg) translate(-398.7971725463867px, -397.91323471069336px);}}#el_oPhi7OmV3 *{-webkit-animation-duration: 1s;animation-duration: 1s;-webkit-animation-iteration-count: 1;animation-iteration-count: 1;-webkit-animation-play-state: running;animation-play-state: running;-webkit-animation-timing-function: cubic-bezier(0, 0, 1, 1);animation-timing-function: cubic-bezier(0, 0, 1, 1);}#el_-Q-zhq_Tav{fill-rule: evenodd;clip-rule: evenodd;fill: #69BAE8;}#el_nlR4D763eb{fill: #0e8195;}#el_X-HMND9bbH{fill: #0e8195;}#el_c70y_Xr95V{fill: #FFFFFF;}#el_z3512ciHzL{fill: #37436B;}#el_8QyPMEAPx-{fill: #37436B;}#el_8w1V1jyMcS{fill: #FFFFFF;}#el_Yovk05yyXrz{fill: #37436B;}#el_zSfo_15fBVL{fill: #37436B;}#el_uViuUNOrTMJ{fill: #0e8195;}#el_-3lOgSPm08y{fill: #37436B;}#el_78H0z-3H-Uq{fill: #FFFFFF;}#el_8GUX0rrMB8c{fill: #37436B;}#el__KkLkP9kSgf{fill: #37436B;}#el__rIzIQpIYHX{fill: #37436B;}#el_zmQSmefviyE{fill: #37436B;}#el_VSD3wyB_QYl{fill: #37436B;}#el_cLz6knL2oMx{fill: #37436B;}#el_SPJZTfxs5VB{fill: #37436B;}#el_nhlhJvIECcn{fill: #37436B;}#el_ZLQIIhQNnX_{fill: #37436B;}#el_3byTsyiaA9j{fill: #37436B;}#el_vz9vVCJ1srU{fill: #37436B;}#el_FjpYfu4JaQ5{fill: #37436B;}#el_CfiU9hifhz2{fill: #37436B;}#el__Jc7ZHu4Zj2{fill: #37436B;}#el_ocI6_NEzy6_{fill-rule: evenodd;clip-rule: evenodd;fill: #69BAE8;}#el_ludQ1E63jM_an_q--TLZbKo{-webkit-animation-fill-mode: backwards;animation-fill-mode: backwards;-webkit-transform: translate(398.7971725463867px, 397.91323471069336px) rotate(0deg) translate(-398.7971725463867px, -397.91323471069336px);transform: translate(398.7971725463867px, 397.91323471069336px) rotate(0deg) translate(-398.7971725463867px, -397.91323471069336px);-webkit-animation-timing-function: cubic-bezier(0.42, 0, 0.58, 1);animation-timing-function: cubic-bezier(0.42, 0, 0.58, 1);}#el_oPhi7OmV3:hover #el_ludQ1E63jM_an_q--TLZbKo{-webkit-animation-name: kf_el_ludQ1E63jM_an_q--TLZbKo;animation-name: kf_el_ludQ1E63jM_an_q--TLZbKo;}#el_1VkGBhaYk9q_an_LxkVwPAIG{-webkit-animation-fill-mode: backwards;animation-fill-mode: backwards;-webkit-transform: translate(450.58436584472656px, 236.0767822265625px) rotate(0deg) translate(-450.58436584472656px, -236.0767822265625px);transform: translate(450.58436584472656px, 236.0767822265625px) rotate(0deg) translate(-450.58436584472656px, -236.0767822265625px);-webkit-animation-timing-function: cubic-bezier(0, 0, 1, 1);animation-timing-function: cubic-bezier(0, 0, 1, 1);}#el_oPhi7OmV3:hover #el_1VkGBhaYk9q_an_LxkVwPAIG{-webkit-animation-name: kf_el_1VkGBhaYk9q_an_LxkVwPAIG;animation-name: kf_el_1VkGBhaYk9q_an_LxkVwPAIG;}#el_rqdbV1_e1nc_an_tDvC3gbNT{-webkit-animation-fill-mode: backwards;animation-fill-mode: backwards;-webkit-transform: translate(447.35435485839844px, 399.37750244140625px) rotate(0deg) translate(-447.35435485839844px, -399.37750244140625px);transform: translate(447.35435485839844px, 399.37750244140625px) rotate(0deg) translate(-447.35435485839844px, -399.37750244140625px);-webkit-animation-timing-function: cubic-bezier(0, 0, 1, 1);animation-timing-function: cubic-bezier(0, 0, 1, 1);}#el_oPhi7OmV3:hover #el_rqdbV1_e1nc_an_tDvC3gbNT{-webkit-animation-name: kf_el_rqdbV1_e1nc_an_tDvC3gbNT;animation-name: kf_el_rqdbV1_e1nc_an_tDvC3gbNT;}#el_M-8Jc0jr1s-_an_5e33cCs1V{-webkit-animation-fill-mode: backwards;animation-fill-mode: backwards;-webkit-transform: translate(509.00099182128906px, 202.82279205322266px) rotate(0deg) translate(-509.00099182128906px, -202.82279205322266px);transform: translate(509.00099182128906px, 202.82279205322266px) rotate(0deg) translate(-509.00099182128906px, -202.82279205322266px);-webkit-animation-timing-function: cubic-bezier(0, 0, 1, 1);animation-timing-function: cubic-bezier(0, 0, 1, 1);}#el_oPhi7OmV3:hover #el_M-8Jc0jr1s-_an_5e33cCs1V{-webkit-animation-name: kf_el_M-8Jc0jr1s-_an_5e33cCs1V;animation-name: kf_el_M-8Jc0jr1s-_an_5e33cCs1V;}#el_F1Dr9nBFbxP_an_2buwTcQmK{-webkit-animation-fill-mode: backwards;animation-fill-mode: backwards;-webkit-transform: translate(355.1009826660156px, 213.84762573242188px) translate(-355.1009826660156px, -213.84762573242188px) translate(0px, 0px);transform: translate(355.1009826660156px, 213.84762573242188px) translate(-355.1009826660156px, -213.84762573242188px) translate(0px, 0px);-webkit-animation-timing-function: cubic-bezier(0, 0, 1, 1);animation-timing-function: cubic-bezier(0, 0, 1, 1);}#el_oPhi7OmV3:hover #el_F1Dr9nBFbxP_an_2buwTcQmK{-webkit-animation-name: kf_el_F1Dr9nBFbxP_an_2buwTcQmK;animation-name: kf_el_F1Dr9nBFbxP_an_2buwTcQmK;}</style>

<g id="el_ludQ1E63jM_an_q--TLZbKo" data-animator-group="true" data-animator-type="1"><g id="el_ludQ1E63jM">
	<path d="M572.4,584.9c-75.7-12.6-89.8-50.8-66.9-60.4c23-9.6,48.6-88.9,66-124c17.4-35.1,0.9-144.2,0.9-144.2&#10;&#9;&#9;s-13.8-153.6-20.7-184.8c-6.9-31.2-75.2-37-140-47.2c-64.7-10.2-88.3,14-156.3,37c-68,23-37.8,195.6-37.8,195.6&#10;&#9;&#9;s-42.1,0.7-47.5,59.5c-5.5,58.8,67.1,52.1,67.1,52.1s6,19.1,13.6,43.4c6.1,19.2,42.6,51.3,57.4,63.7c5.5,2.2,9.8,7.2,9.8,15&#10;&#9;&#9;c-0.2,39.5-17.3,78.1-49.6,101.5c-28.1,20.4-62.6,26.8-95.7,35.9c0,0,0,0,0,0l-68.1,30c34.4,66.4,105.6,96.2,184.1,109.7&#10;&#9;&#9;c0.8-61.4,245.9-30.8,247.3-13.4c88.2-47,158.2-144.6,158.2-144.6S646,597.2,572.4,584.9z" id="el_-Q-zhq_Tav"/>
	<g id="el_yyS7-yIBak">
		<path d="M534,584.9c-49.4,29.5-86.9,126.6-236-4.7c-18.9,34.2,3.2,120.8,2.7,180c42.1,4.9,107.1,18.6,146.5,19&#10;&#9;&#9;&#9;c19,0.2,70.5-18.1,88.9-24.7C534.5,735.5,547.1,612.5,534,584.9z" id="el_nlR4D763eb"/>
	</g>
	<g id="el_6BrBp-HBQc">
		<path d="M229.3,257l21.5,10.3c0,0-5.1,28.3,7.7,28.3c12.8,0,0.9-82.7,20.4-100.6s35.3-18,42.5-35.7s0-41.9,0-41.9&#10;&#9;&#9;&#9;s47.2,41.3,66.5,25.6c19.3-15.8-5.8-31.9-5.8-31.9s64,33.8,90.6,15.6c26.5-18.2,26.6-13,26.6-13s49.3,50.2,59.4,40&#10;&#9;&#9;&#9;c10.1-10.2,10.1-86.7-6-94.4s-75-48.6-136.9-42.5s-150.9,26.8-173,50.2c-14.7,15.6-30.6,36.8-31.6,97.8s6.5,92.3,6.5,92.3H229.3z" id="el_X-HMND9bbH"/>
	</g>
	<g id="el_7Raf8tKFGV">
		<g id="el_xv5QawVIS4">
			<path d="M311.2,274.1c0,0,8.4-31.9,42.7-32c43.7-0.1,54.4,22.6,54.4,22.6s-4.3,28.9-48.4,29.2&#10;&#9;&#9;&#9;&#9;C315.8,294.2,311.2,274.1,311.2,274.1z" id="el_c70y_Xr95V"/>
			<g id="el_8I8ELrztS_">
				<path d="M316.2,275.5c5.6-20.1,24.2-29,44-28.1c11.9,0.5,24.8,3.3,34.7,10.4c2.5,1.8,9.2,10.5,8.7,7.5&#10;&#9;&#9;&#9;&#9;&#9;c-0.5-2.9-3.6,6.6-5.6,9.2c-7.6,9.5-20.3,13-32,14c-12,1-45.3,0.9-49.8-15.8c-1.7-6.4-11.7-3.7-9.9,2.7&#10;&#9;&#9;&#9;&#9;&#9;c6,22.4,42,24.7,59.7,23.3c15.9-1.2,48.3-11.8,47.4-33.4c-0.8-19.4-36.7-27-50.3-28.1c-25.3-2-49.6,9.6-56.9,35.4&#10;&#9;&#9;&#9;&#9;&#9;C304.5,279.2,314.4,281.9,316.2,275.5z" id="el_z3512ciHzL"/>
			</g>
		</g>
		<path d="M368.3,242.3c0,0-15.8,12.8-11.9,30.9c3,14.3,19.1,19.2,19.1,19.2s15.3-3.2,22-10.2&#10;&#9;&#9;&#9;c9.7-10.1,10.7-17.5,10.7-17.5s-3.1-8.4-16.6-15.9C379,241.8,368.3,242.3,368.3,242.3z" id="el_8QyPMEAPx-"/>
	</g>
	<g id="el_o59Ambkoei">
		<g id="el_C3oD0zBxD7">
			<path d="M472.7,260.5c0,0,10.4-32.2,45.4-30.3c44.7,2.4,54.3,26.2,54.3,26.2s-6,29.3-51.1,27.1&#10;&#9;&#9;&#9;&#9;C476.2,281.3,472.7,260.5,472.7,260.5z" id="el_8w1V1jyMcS"/>
			<g id="el_2Xl7DLs_oB4">
				<path d="M477.8,261.9c8.3-24.2,34.1-29.5,56.8-24.3c10.1,2.3,20.6,6.3,27.9,13.9c4.3,4.5,3.9,8.9,4.9,3.6&#10;&#9;&#9;&#9;&#9;&#9;c-3.1,17.1-25.5,22.7-39.8,23.1c-12.4,0.4-46.1-1.6-49.8-19.2c-1.4-6.6-11.6-3.8-10.2,2.8c4.9,23.2,41.8,27.3,59.9,27&#10;&#9;&#9;&#9;&#9;&#9;c16-0.3,49.6-9.3,50-31.1c0.4-20.8-37.1-30.6-51.6-32.2c-25.4-2.8-49.7,8.2-58.3,33.5C465.4,265.5,475.6,268.3,477.8,261.9z" id="el_Yovk05yyXrz"/>
			</g>
		</g>
		<path d="M532.8,231.2c0,0-16.8,12.2-13.9,30.9c2.3,14.7,18.5,20.7,18.5,20.7s15.9-2.4,23.1-9.1&#10;&#9;&#9;&#9;c10.5-9.8,12-17.3,12-17.3s-2.7-8.7-16-17.1C543.7,231.3,532.8,231.2,532.8,231.2z" id="el_zSfo_15fBVL"/>
	</g>
	<g id="el_1VkGBhaYk9q_an_LxkVwPAIG" data-animator-group="true" data-animator-type="1"><g id="el_1VkGBhaYk9q">
		<path d="M452.9,241c0,0-37.6,90.6-24.9,98.3c12.8,7.7,44.8,10.2,47.6,0C478.4,329.1,452.9,241,452.9,241z" id="el_uViuUNOrTMJ"/>
		<g id="el_EVzz8l2uewr">
			<path d="M447.8,239.6c-9.2,22.2-17.9,45-23.8,68.3c-2.1,8.4-6.5,21.6-2.9,30.3c4,9.7,18.3,11.5,27.5,12.6&#10;&#9;&#9;&#9;&#9;c9.6,1.2,26.8,2.2,31.6-8.7c3.4-7.6-1.1-20.5-2.8-28c-5.4-25-12.3-49.8-19.4-74.3c-1.9-6.5-12.1-3.8-10.2,2.8&#10;&#9;&#9;&#9;&#9;c4.5,15.7,8.9,31.5,12.9,47.3c2.9,11.2,5.7,22.4,7.9,33.8c0.6,3,3,9.7,1.9,12.5c-2.9,7.1-19.6,4.7-25.2,3.6&#10;&#9;&#9;&#9;&#9;c-14.6-2.7-15.7-7.2-13-20.6c2.2-10.9,5.6-21.6,9.1-32.2c5-15,10.6-29.8,16.6-44.4C460.6,236.2,450.4,233.4,447.8,239.6z" id="el_-3lOgSPm08y"/>
		</g>
	</g></g>
	<g id="el_rqdbV1_e1nc_an_tDvC3gbNT" data-animator-group="true" data-animator-type="1"><g id="el_rqdbV1_e1nc">
		<path d="M406.3,382.5c-15.1,24,32.8,45.4,45.1,42.8c16.8-3.4,52.4-41.4,34.5-49.5c-17.8-8.2-38.9,24.7-38.9,24.7&#10;&#9;&#9;&#9;S415.9,367.3,406.3,382.5z" id="el_78H0z-3H-Uq"/>
		<g id="el_ys8mwYpMAQW">
			<path d="M401.8,379.8c-11.2,21.1,9.1,37.8,26.9,45.6c21,9.2,35.3,3.2,51-12.9c9-9.2,27.3-33.3,7.7-41.8&#10;&#9;&#9;&#9;&#9;c-18.1-7.9-36.3,14-44.9,27.1c2.8-0.4,5.5-0.7,8.3-1.1c-9.6-10.1-34.8-34.7-48.2-18c-4.2,5.3,3.2,12.8,7.5,7.5&#10;&#9;&#9;&#9;&#9;c7.3-9.1,27.8,12.3,33.2,18c2.5,2.6,6.5,1.7,8.3-1.1c5.4-8.2,12.9-17.7,22.1-21.6c11.6-4.9,12.7,3.7,8.1,11.6&#10;&#9;&#9;&#9;&#9;c-3.7,6.3-9.1,11.9-14.6,16.7c-10.1,8.8-17.4,12.3-30.1,7.7c-12.1-4.4-34.6-16.5-26.2-32.3C414.1,379.2,405,373.8,401.8,379.8z" id="el_8GUX0rrMB8c"/>
		</g>
	</g></g>
	<g id="el_CHH-HJRmc5d">
		<path d="M279,380.6c0,4.8,0,9.6,0,14.5c0,6.4,9.9,6.4,9.9,0c0-4.8,0-9.6,0-14.5C289,374.2,279,374.2,279,380.6&#10;&#9;&#9;&#9;L279,380.6z" id="el__KkLkP9kSgf"/>
	</g>
	<g id="el_IAjDNJ2fAhI">
		<path d="M292.5,389.1c0.9,7.6,1.2,15.3,1,22.9c-0.2,6.4,9.8,6.4,9.9,0c0.2-7.7-0.1-15.3-1-22.9&#10;&#9;&#9;&#9;C301.7,382.8,291.8,382.7,292.5,389.1L292.5,389.1z" id="el__rIzIQpIYHX"/>
	</g>
	<g id="el_fJxclgYvLBO">
		<path d="M354,445.6c0.8,5.5,0.9,11,0.6,16.5c-0.4,6.4,9.6,6.4,9.9,0c0.4-6.5,0-12.8-1-19.2c-0.4-2.7-3.8-4.1-6.1-3.5&#10;&#9;&#9;&#9;C354.6,440.3,353.7,443,354,445.6L354,445.6z" id="el_zmQSmefviyE"/>
	</g>
	<g id="el_Tu2QsqlDHh4">
		<path d="M368.6,432c2.1,5.6,3.8,11.2,5,17.1c1.3,6.3,10.9,3.6,9.6-2.6c-1.2-5.8-2.9-11.5-5-17.1&#10;&#9;&#9;&#9;C375.9,423.4,366.3,426,368.6,432L368.6,432z" id="el_VSD3wyB_QYl"/>
	</g>
	<g id="el_KtePr35lYyg">
		<path d="M452.4,481.7c-0.4,4.5,0.3,9,1.9,13.2c1,2.5,3.4,4.2,6.1,3.5c2.4-0.7,4.4-3.6,3.5-6.1&#10;&#9;&#9;&#9;c-1.3-3.5-1.8-6.9-1.5-10.6c0.2-2.7-2.4-5-5-5C454.5,476.8,452.6,479,452.4,481.7L452.4,481.7z" id="el_cLz6knL2oMx"/>
	</g>
	<g id="el_aSmYMwzGBRY">
		<path d="M509.9,420.9c1,4.8,2,9.7,3,14.5c1.3,6.3,10.9,3.6,9.6-2.6c-1-4.8-2-9.7-3-14.5&#10;&#9;&#9;&#9;C518.2,412,508.7,414.7,509.9,420.9L509.9,420.9z" id="el_SPJZTfxs5VB"/>
	</g>
	<g id="el_Cmhf3B9SamE">
		<path d="M526.7,405.7c1.7,5.1,3.4,10.2,5.1,15.3c2,6,11.6,3.5,9.6-2.6c-1.7-5.1-3.4-10.2-5.1-15.3&#10;&#9;&#9;&#9;C534.3,397,524.7,399.6,526.7,405.7L526.7,405.7z" id="el_nhlhJvIECcn"/>
	</g>
	<g id="el_M-8Jc0jr1s-_an_5e33cCs1V" data-animator-group="true" data-animator-type="1"><g id="el_M-8Jc0jr1s-">
		<path d="M488.8,214.3c10.4-9.4,30.1-14.3,44.2-14.4c6.4,0,6.4-10,0-9.9c-16.7,0.1-38.8,6.1-51.2,17.3&#10;&#9;&#9;&#9;C477,211.6,484.1,218.6,488.8,214.3L488.8,214.3z" id="el_ZLQIIhQNnX_"/>
	</g></g>
	<g id="el_F1Dr9nBFbxP_an_2buwTcQmK" data-animator-group="true" data-animator-type="0"><g id="el_F1Dr9nBFbxP">
		<path d="M324.6,223.9c20.2-9.3,41.8-10.4,62.9-3.8c7.8,2.5,11.2-9.8,3.4-12.3c-24.6-7.7-49.5-5.7-72.8,5&#10;&#9;&#9;&#9;C310.8,216.3,317.2,227.3,324.6,223.9L324.6,223.9z" id="el_3byTsyiaA9j"/>
	</g></g>
	<g id="el_vMmUVLbycdt">
		<path d="M500.6,118.5c6.5-9.6,3.3-20.7-5.3-27.7c-4.9-4-12,3-7,7c14.2,11.6-1.8,21-14.1,23&#10;&#9;&#9;&#9;c-23.6,3.9-52-2.2-73.3-12.5c-17.6-8.5-36.5-24.4-40.5-44.7c-1.2-6.3-10.8-3.6-9.6,2.6c2.7,14,10.4,25.3,20.6,34.4&#10;&#9;&#9;&#9;c-4.8-2.6-10.8,3.7-6.1,7.5c6.2,5.1,12.3,10.7,17.2,17c3.4,4.3,8.1,9.1,2.8,12.4c-6.7,4.1-20.8-2.4-26.6-5.6&#10;&#9;&#9;&#9;c-21.2-11.7-37.8-34.3-49.2-55.3c-3-5.6-11.6-0.6-8.6,5c14.9,27.5,41.7,63.8,75.6,66.1c12.7,0.8,26.1-4.4,20-19.1&#10;&#9;&#9;&#9;c-3.5-8.5-10.8-15.9-18.1-22.3c18.6,13.4,43.1,20.9,63.4,23.6C458.6,132.3,489,135.7,500.6,118.5z" id="el_vz9vVCJ1srU"/>
		<path d="M548.3,143.8c-12.1-5.5-22.9-15.2-32.6-24.1c-4.7-4.3-11.8,2.7-7,7c11.3,10.4,25.9,24.8,41.3,28.3&#10;&#9;&#9;&#9;c7.9,1.8,13.4-2.6,13.6-10.7c0.3-12.8-1.9-29.1-0.2-40.2c0.9-6.3-8.6-9-9.6-2.6c-1.2,7.9-1.4,16-1.2,24.1c0.1,4.7,0.3,9.3,0.7,14&#10;&#9;&#9;&#9;c0,0.7,1.1,5.9,0.2,6.6C554.2,145.5,549.3,144.3,548.3,143.8z" id="el_FjpYfu4JaQ5"/>
		<path d="M207.8,326.7c3.2-5.6,6.9-12.1,11.1-17.9c5.2,4,10,8.5,13.8,13.6c4,5.4,13.2,0.1,9.1-5.3&#10;&#9;&#9;&#9;c-4.5-6.1-10.1-11.5-16.2-16.3c2.1-2.1,4.3-4,6.6-5.5c5.7-3.6,0.4-12.8-5.3-9.1c-3.6,2.3-6.9,5.3-9.9,8.5&#10;&#9;&#9;&#9;c-5.2-3.3-10.7-6.1-16.2-8.5c-6.2-2.7-11.6,6.4-5.3,9.1c4.9,2.1,10,4.7,14.8,7.6c-4.4,6-8.2,12.5-11.6,18.5&#10;&#9;&#9;&#9;C195.3,327.3,204.4,332.6,207.8,326.7z" id="el_CfiU9hifhz2"/>
		<path d="M695.9,618.1c-30.5-6.8-60.9-13.6-91.4-20.5c-18.8-4.2-51.9-8.2-78.7-18.2c-1.1-2-3.6-2.9-5.8-2.3&#10;&#9;&#9;&#9;c-20.9-8.8-36.8-21.8-36.6-42.4c0-0.8-0.1-1.4-0.4-2c11-4.5,18.8-11.8,27.8-23.6c17.7-23.1,34.4-47.2,48.9-72.4&#10;&#9;&#9;&#9;c11.4-19.9,20.2-38,20.5-61c0.1-9.9,0.1-19.9,0.1-29.8c0.3-0.2,0.6-0.4,0.9-0.6c4.1-2.7,2.5-8.2-0.9-9.6c0-12.3-0.2-24.7-0.3-37&#10;&#9;&#9;&#9;c-0.1-6.8-10.7-6.8-10.6,0c0.1,13.4,1,27.1,1.3,40.9c-15.4,10.2-27.6,20.6-36.6,36.8c-19-20.1-38.1-40.2-57.1-60.2&#10;&#9;&#9;&#9;c-4.7-5-12.2,2.5-7.5,7.5c20.7,21.8,41.4,43.7,62.1,65.5c2.2,2.3,6.9,2,8.3-1.1c7.3-15.9,17.8-26.3,30.9-35.7&#10;&#9;&#9;&#9;c-0.1,23.2-2.7,46.1-13.5,66.8c-10.9,20.9-24.1,40.7-37.7,60c-10.3,14.7-21.7,36.7-38.9,43.8c-24,9.9-70.5,11.6-95.7,4.5&#10;&#9;&#9;&#9;c-22.7-6.4-41.4-29.3-56.4-46.2c-15.8-17.9-30.3-37-45-55.8c-15.5-19.8-30.7-40.9-28.2-67.2c33.7,12.7,67.4,25.3,101.1,38&#10;&#9;&#9;&#9;c1.7,0.6,4-0.1,5.1-1.4c23.2-24.8,46.3-49.6,69.5-74.5c4.6-5-2.8-12.5-7.5-7.5c-12.7,13.6-25.5,27.3-38.2,40.9&#10;&#9;&#9;&#9;c-7.2,7.7-14.5,15.5-21.7,23.2c-2.5,2.6-4.8,5.7-7.5,8.1c-16.6-3.3-34.8-13.4-50.5-19.3c-16.3-6.1-32.6-12.3-48.9-18.4&#10;&#9;&#9;&#9;c-2.2-0.8-4-0.1-5.1,1.2c-0.8-0.2-1.6-0.2-2.6,0c-24,6.3-52.2,1.4-62.9-23.3c-19.6-45.4,23.1-58.4,58.8-53.8c1,0.1,1.7,0,2.4-0.3&#10;&#9;&#9;&#9;c2.5,19.4,7.9,33.6,18.7,27.5c9.7-5.4,11.9-23,13.3-32.3c3.3-21.9-2.2-44.6,1-66.1c2.8-18.7,22-16.9,35.4-27.9&#10;&#9;&#9;&#9;c12.7-10.5,18.6-24.3,17.8-40.7c-0.3-6.4-10.3-6.4-9.9,0c1.4,26.7-16.2,35-36.5,43c-6.2,2.5-9.8,2.7-13.6,8.9&#10;&#9;&#9;&#9;c-4.2,6.8-3.1,17.8-2.9,25.1c0.3,18.5,1.8,36.9-0.9,55.3c-0.4,3-3.8,27-8.8,26.4c-0.7-0.1-1.8-8.4-1.8-8.6&#10;&#9;&#9;&#9;c-2.8-10.8-2.1-23.8-2.6-34.9c-0.6-15.4-0.8-30.9-0.7-46.3c0-6.4-9.9-6.4-9.9,0c0,6.7-1.4,35.8,0.6,60.8c-0.4-0.2-0.9-0.4-1.4-0.5&#10;&#9;&#9;&#9;c-3.5-0.5-7.1-0.7-10.6-0.9c-0.3-24.4-0.3-48.9,0.1-73.3c0.5-33.4-5.7-77.7,18.9-103.4c12.5-13.1,27.1-30.9,43.6-38.6&#10;&#9;&#9;&#9;C323.8,32.5,355,26.2,384,23.2c48.3-5.1,100.1,5.1,142.3,29.7c5.5,3.2,10.6-5.4,5-8.6C487.6,18.9,434,8.1,384,13.3&#10;&#9;&#9;&#9;c-28.3,2.9-57.2,9-83.7,19.5c-20.2,8-27.4,18.8-43.1,33.5c-13.3,12.5-25.2,22.6-28.3,41c-3.2,19.1-3.2,39.1-3.8,58.5&#10;&#9;&#9;&#9;c-0.9,31.4-0.9,62.9-0.5,94.3c-34.1,1.7-61.9,19.9-50.7,61.5c8.7,32.5,40.6,44.1,71,38.8c-1.3,40.5,31.1,76.3,57.7,106.6&#10;&#9;&#9;&#9;c0,0.3-0.1,0.5,0,0.7c0.2,1,4.6,26.1,3.8,27.6c3.3,31.3,1.5,62.1-19.1,87.1c-9.4,10-7.4,12.6-14.2,13.4c1.2,3.2,3.2,5.7,6.4,7.1&#10;&#9;&#9;&#9;c7.1,51.2,10.9,102.7,11.2,154.4c-66.1-19.5-129-54.5-178.1-98.5c40.3-13.1,131.3-43.2,171-58c5.9-2.2,3.4-11.8-2.6-9.6&#10;&#9;&#9;&#9;c-11.7,4.3-95.9,32.5-95.8,32.6c-27.7,9.7-55.6,19.1-83.6,28.1c-3.4,1.1-5,5.6-2.2,8.3c52.5,49,121.4,86.1,191.3,106.4&#10;&#9;&#9;&#9;c0,4.1,0,8.3,0,12.4c-0.1,6.4,9.9,6.4,9.9,0c0-3.2,0-6.5,0-9.7c7.3,2,14.7,3.8,22,5.4c116.9,25.4,225.8-9.9,315.4-86.7&#10;&#9;&#9;&#9;c22-18.9,43.3-39.7,60.9-62.9C700.8,622.8,698.7,618.7,695.9,618.1z M314.5,480.9c17.1,20.3,37.4,44.9,62.6,54.8&#10;&#9;&#9;&#9;c24.9,9.7,60.9,5.7,86.8,1.9c3.4-0.5,6.5-1.2,9.5-1.9c0.3,26.9,18.4,41.3,41.2,50.2c-16.2,42.7-71,57.1-112.6,51.2&#10;&#9;&#9;&#9;c-39.2-5.5-71.8-27.8-96.3-58.1c-0.8-1-1.7-1.4-2.7-1.5C320.4,548.9,319.3,515.2,314.5,480.9z M538.1,743.2&#10;&#9;&#9;&#9;c-36,16.8-74.2,27.8-112.5,30.4c-41,2.8-83.5-2.2-125-13.4c-0.3-48.8-3.5-97.4-9.7-145.8c38.1,41.1,91.2,72.2,148.8,66.5&#10;&#9;&#9;&#9;c40.3-4,77.4-25.4,98.6-58.9c-0.1,39.9-0.3,79.8-0.4,119.8C537.8,742.4,538,742.8,538.1,743.2z M538.3,600.5&#10;&#9;&#9;&#9;c-18.2,44.4-64.9,71.6-112.6,71.2c-54.8-0.5-102.6-33.6-136.6-74.2c-0.2-0.3-0.5-0.4-0.7-0.5c-0.1-0.1-0.1-0.2-0.2-0.3&#10;&#9;&#9;&#9;c0-0.1,0-0.2-0.1-0.2c3.7-3.7,7-7.5,9.9-11.4c0.2,0.4,0.3,0.8,0.6,1.2c30.5,37.6,74.5,63.1,123.8,62.4&#10;&#9;&#9;&#9;c40.7-0.6,86.4-19.5,101.5-59.3c4.7,1.5,9.5,2.8,14.3,4C538.3,595.6,538.3,598,538.3,600.5z M547.8,738.5&#10;&#9;&#9;&#9;c0.2-45.4,0.3-90.8,0.5-136.2c0.8-2.1,1.6-4.2,2.3-6.3c9.4,2,18.5,3.7,26.5,5.5c36.3,8.2,72.6,16.4,108.9,24.5&#10;&#9;&#9;&#9;C650.3,671.1,601.8,711.3,547.8,738.5z" id="el__Jc7ZHu4Zj2"/>
	</g>
	<path d="M301.1,562.1" id="el_ocI6_NEzy6_"/>
</g></g>
</svg>