<svg height="180px" version="1.1" id="el_MGA19Wj8Z" xmlns="http://www.w3.org/2000/svg" xmlns:xlink="http://www.w3.org/1999/xlink" x="0px" y="0px" viewBox="0 0 800 800" style="enable-background:new 0 0 800 800;" xml:space="preserve"><style>@-webkit-keyframes kf_el_fgmA65YjNx1_an_vx6zVCywd{0%{-webkit-transform: translate(449.9041442871094px, 402.9178009033203px) rotate(0deg) translate(-449.9041442871094px, -402.9178009033203px);transform: translate(449.9041442871094px, 402.9178009033203px) rotate(0deg) translate(-449.9041442871094px, -402.9178009033203px);}50%{-webkit-transform: translate(449.9041442871094px, 402.9178009033203px) rotate(-8deg) translate(-449.9041442871094px, -402.9178009033203px);transform: translate(449.9041442871094px, 402.9178009033203px) rotate(-8deg) translate(-449.9041442871094px, -402.9178009033203px);}100%{-webkit-transform: translate(449.9041442871094px, 402.9178009033203px) rotate(0deg) translate(-449.9041442871094px, -402.9178009033203px);transform: translate(449.9041442871094px, 402.9178009033203px) rotate(0deg) translate(-449.9041442871094px, -402.9178009033203px);}}@keyframes kf_el_fgmA65YjNx1_an_vx6zVCywd{0%{-webkit-transform: translate(449.9041442871094px, 402.9178009033203px) rotate(0deg) translate(-449.9041442871094px, -402.9178009033203px);transform: translate(449.9041442871094px, 402.9178009033203px) rotate(0deg) translate(-449.9041442871094px, -402.9178009033203px);}50%{-webkit-transform: translate(449.9041442871094px, 402.9178009033203px) rotate(-8deg) translate(-449.9041442871094px, -402.9178009033203px);transform: translate(449.9041442871094px, 402.9178009033203px) rotate(-8deg) translate(-449.9041442871094px, -402.9178009033203px);}100%{-webkit-transform: translate(449.9041442871094px, 402.9178009033203px) rotate(0deg) translate(-449.9041442871094px, -402.9178009033203px);transform: translate(449.9041442871094px, 402.9178009033203px) rotate(0deg) translate(-449.9041442871094px, -402.9178009033203px);}}@-webkit-keyframes kf_el_yBtQH6SsC1__an_lToCjPpHW{0%{-webkit-transform: translate(318.2213134765625px, 187.35101318359375px) translate(-318.2213134765625px, -187.35101318359375px) translate(0px, 0px);transform: translate(318.2213134765625px, 187.35101318359375px) translate(-318.2213134765625px, -187.35101318359375px) translate(0px, 0px);}50%{-webkit-transform: translate(318.2213134765625px, 187.35101318359375px) translate(-318.2213134765625px, -187.35101318359375px) translate(0px, 8px);transform: translate(318.2213134765625px, 187.35101318359375px) translate(-318.2213134765625px, -187.35101318359375px) translate(0px, 8px);}100%{-webkit-transform: translate(318.2213134765625px, 187.35101318359375px) translate(-318.2213134765625px, -187.35101318359375px) translate(0px, 0px);transform: translate(318.2213134765625px, 187.35101318359375px) translate(-318.2213134765625px, -187.35101318359375px) translate(0px, 0px);}}@keyframes kf_el_yBtQH6SsC1__an_lToCjPpHW{0%{-webkit-transform: translate(318.2213134765625px, 187.35101318359375px) translate(-318.2213134765625px, -187.35101318359375px) translate(0px, 0px);transform: translate(318.2213134765625px, 187.35101318359375px) translate(-318.2213134765625px, -187.35101318359375px) translate(0px, 0px);}50%{-webkit-transform: translate(318.2213134765625px, 187.35101318359375px) translate(-318.2213134765625px, -187.35101318359375px) translate(0px, 8px);transform: translate(318.2213134765625px, 187.35101318359375px) translate(-318.2213134765625px, -187.35101318359375px) translate(0px, 8px);}100%{-webkit-transform: translate(318.2213134765625px, 187.35101318359375px) translate(-318.2213134765625px, -187.35101318359375px) translate(0px, 0px);transform: translate(318.2213134765625px, 187.35101318359375px) translate(-318.2213134765625px, -187.35101318359375px) translate(0px, 0px);}}@-webkit-keyframes kf_el_UJfFsEvWIN_an_S2wGPhyjG{0%{-webkit-transform: translate(403.7090759277344px, 400.35168838500977px) rotate(0deg) translate(-403.7090759277344px, -400.35168838500977px);transform: translate(403.7090759277344px, 400.35168838500977px) rotate(0deg) translate(-403.7090759277344px, -400.35168838500977px);}50%{-webkit-transform: translate(403.7090759277344px, 400.35168838500977px) rotate(6deg) translate(-403.7090759277344px, -400.35168838500977px);transform: translate(403.7090759277344px, 400.35168838500977px) rotate(6deg) translate(-403.7090759277344px, -400.35168838500977px);}100%{-webkit-transform: translate(403.7090759277344px, 400.35168838500977px) rotate(0deg) translate(-403.7090759277344px, -400.35168838500977px);transform: translate(403.7090759277344px, 400.35168838500977px) rotate(0deg) translate(-403.7090759277344px, -400.35168838500977px);}}@keyframes kf_el_UJfFsEvWIN_an_S2wGPhyjG{0%{-webkit-transform: translate(403.7090759277344px, 400.35168838500977px) rotate(0deg) translate(-403.7090759277344px, -400.35168838500977px);transform: translate(403.7090759277344px, 400.35168838500977px) rotate(0deg) translate(-403.7090759277344px, -400.35168838500977px);}50%{-webkit-transform: translate(403.7090759277344px, 400.35168838500977px) rotate(6deg) translate(-403.7090759277344px, -400.35168838500977px);transform: translate(403.7090759277344px, 400.35168838500977px) rotate(6deg) translate(-403.7090759277344px, -400.35168838500977px);}100%{-webkit-transform: translate(403.7090759277344px, 400.35168838500977px) rotate(0deg) translate(-403.7090759277344px, -400.35168838500977px);transform: translate(403.7090759277344px, 400.35168838500977px) rotate(0deg) translate(-403.7090759277344px, -400.35168838500977px);}}#el_MGA19Wj8Z *{-webkit-animation-duration: 2s;animation-duration: 2s;-webkit-animation-iteration-count: 1;animation-iteration-count: 1;-webkit-animation-play-state: running;animation-play-state: running;-webkit-animation-timing-function: cubic-bezier(0, 0, 1, 1);animation-timing-function: cubic-bezier(0, 0, 1, 1);}#el_FhywJxNnkL{fill: #118295;}#el_wJACkY1iWj{fill-rule: evenodd;clip-rule: evenodd;fill: #6AB9E7;}#el_4j6eNHleZm{fill: #118295;}#el_-rO-4Vnot6{fill: #FFFFFF;}#el_AzLGyyh8Tw{fill: #2E416C;}#el_SiMmR9W8m_{fill: #2E416C;}#el_cORg9SqoBz{fill: #FFFFFF;}#el_Zpwyt0AeVul{fill: #2E416C;}#el_UpJaxRZWnB4{fill: #2E416C;}#el_Gq607w4U62B{fill: #2E416C;}#el_yy4m8VqUUHC{fill: #2E416C;}#el_S1QFjsHx8xH{fill: #2E416C;}#el_0ATQ38kk5CE{fill: #2E416C;}#el_kr-TmtMMr7a{fill: #2E416C;}#el_n2xEO2TYYRP{fill: #2E416C;}#el_Rk-AgA1PCOb{fill: #2E416C;}#el_SkdobXc9u3c{fill: #2E416C;}#el_91JB1Pz9avi{fill: #2E416C;}#el_zFkcxk-Sv7d{fill: #2E416C;}#el_PXMB6wyzgCz{fill: #2E416C;}#el_s2moVRUBFOF{fill: #2E416C;}#el_Bd9mjFnvgzP{fill: #2E416C;}#el_20mO7UNx3TF{fill: #2E416C;}#el_bhnMFToQUXQ{fill: #2E416C;}#el_BjgCo2bYaeG{fill: #118295;}#el_FkUFDc8Spzh{fill: #2E416C;}#el_Eh_tBKcast3{fill: #2E416C;}#el_S9lwSqwfjm_{fill: #118295;}#el_NQ5Q7cmDp4b{fill: #2E416C;}#el_G5PLSNxUDm0{fill: #2E416C;}#el_QoQt6KAWqdk{fill: #2E416C;}#el_LwxNXXhPFUm{fill: #2E416C;}#el_6IeK9w4U35e{fill: #2E416C;}#el_UJfFsEvWIN_an_S2wGPhyjG{-webkit-animation-fill-mode: backwards;animation-fill-mode: backwards;-webkit-transform: translate(403.7090759277344px, 400.35168838500977px) rotate(0deg) translate(-403.7090759277344px, -400.35168838500977px);transform: translate(403.7090759277344px, 400.35168838500977px) rotate(0deg) translate(-403.7090759277344px, -400.35168838500977px);-webkit-animation-timing-function: cubic-bezier(0.42, 0, 0.58, 1);animation-timing-function: cubic-bezier(0.42, 0, 0.58, 1);}#el_MGA19Wj8Z:hover #el_UJfFsEvWIN_an_S2wGPhyjG{-webkit-animation-name: kf_el_UJfFsEvWIN_an_S2wGPhyjG;animation-name: kf_el_UJfFsEvWIN_an_S2wGPhyjG;}#el_yBtQH6SsC1__an_lToCjPpHW{-webkit-animation-fill-mode: backwards;animation-fill-mode: backwards;-webkit-transform: translate(318.2213134765625px, 187.35101318359375px) translate(-318.2213134765625px, -187.35101318359375px) translate(0px, 0px);transform: translate(318.2213134765625px, 187.35101318359375px) translate(-318.2213134765625px, -187.35101318359375px) translate(0px, 0px);-webkit-animation-timing-function: cubic-bezier(0, 0, 1, 1);animation-timing-function: cubic-bezier(0, 0, 1, 1);}#el_MGA19Wj8Z:hover #el_yBtQH6SsC1__an_lToCjPpHW{-webkit-animation-name: kf_el_yBtQH6SsC1__an_lToCjPpHW;animation-name: kf_el_yBtQH6SsC1__an_lToCjPpHW;}#el_fgmA65YjNx1_an_vx6zVCywd{-webkit-animation-fill-mode: backwards;animation-fill-mode: backwards;-webkit-transform: translate(449.9041442871094px, 402.9178009033203px) rotate(0deg) translate(-449.9041442871094px, -402.9178009033203px);transform: translate(449.9041442871094px, 402.9178009033203px) rotate(0deg) translate(-449.9041442871094px, -402.9178009033203px);-webkit-animation-timing-function: cubic-bezier(0, 0, 1, 1);animation-timing-function: cubic-bezier(0, 0, 1, 1);}#el_MGA19Wj8Z:hover #el_fgmA65YjNx1_an_vx6zVCywd{-webkit-animation-name: kf_el_fgmA65YjNx1_an_vx6zVCywd;animation-name: kf_el_fgmA65YjNx1_an_vx6zVCywd;}</style>

<g id="el_UJfFsEvWIN_an_S2wGPhyjG" data-animator-group="true" data-animator-type="1"><g id="el_UJfFsEvWIN">
	<g id="el_ZQb_9-hMBl">
		<path d="M521.9,557.4c0,0-18.9-22.5-24.3-35c-13,8.9-73.2,89.5-81.7,105.4c-17.2,32-101.5-110.8-101.5-111.6&#10;&#9;&#9;&#9;c-3.1,1-35.2,11.9-37.8,12.7c-32.6,10.6-24.5,36.4-24.5,36.4l-142.1,66c57.2,110.5,198.4,142.9,322.8,144.1&#10;&#9;&#9;&#9;c124.4,1.3,255-141.8,255-141.8L521.9,557.4z" id="el_FhywJxNnkL"/>
	</g>
	<path d="M250.4,363c0,0,14.1,48.5,21.7,72.6c7.6,24.1,38.9,66.8,38.9,66.8l1.9,7.6c2.6,2,4.5,5.1,5.1,9.6&#10;&#9;&#9;c1.2,8.5-4.5,24.3,4.3,38.9c21.5,35.7,71,75.7,93.6,69.3c8.1-2.3,45.5-33.8,63.7-65.4c14.6-25.3,9.4-51.3,22.2-57.4&#10;&#9;&#9;c1.4-0.7,2.8-1.1,4.2-1.4c5.3-14.4,21.5-36.2,35.8-81.2c13-40.9,13.5-144.6,13.5-144.6S523.8,88.2,522.8,85.1&#10;&#9;&#9;C519.9,76.2,502,66,489,60.7c-17.5-7.1-48.4-5.1-63.5-12.1c-18.2-8.5-19.4-24.5-21.2-24.6c-33.9-2.8-71.8,6.7-103.5,32.7&#10;&#9;&#9;c-18.6,15.2-28.4,47.8-51.5,55.6C181.6,135.1,213,282,213,282s-17.1,10.5-22,38.8C180.9,378.8,250.4,363,250.4,363z" id="el_wJACkY1iWj"/>
	<g id="el_41H6Egb9WU">
		<path d="M506.1,97.1l22.9,35.4c0,0,25.1-73.4-43.4-74.7c-68.5-1.3-52.7-20.2-52.7-20.2L404.3,24&#10;&#9;&#9;&#9;c0,0-37.3,8.9-56.9,18.7c-19.5,9.8-46.6,13.9-46.6,13.9s-10,14.3-18.5,23.6c-8.5,9.3-12.9,1.4-19.4,11.9s-9.1,20.9-22.2,25.2&#10;&#9;&#9;&#9;c-13,4.3-18.6,5.7-20.8,13.4c-9.7,34-6.9,151.4-6.9,151.4l34.4,5.9c0,0,35.4,180.4,55.2,167.4c5.7-3.7,31.4-28.5,28.8-52.4&#10;&#9;&#9;&#9;c-2.6-23.4-33.7-45.8-44-71c-15.8-38.7-12.3-76.8-12.3-76.8s13-45.2,16.2-52.1c3.2-6.9,2.5-15.9,5.2-28.9s-13.2-29.1-3.2-40.9&#10;&#9;&#9;&#9;c10.1-11.8,18.8-25.8,41.7-29s40.5-7,40.5-7s0.8,12.4,18.6,8.3" id="el_4j6eNHleZm"/>
	</g>
	<g id="el_XMS8ZrW2Oc">
		<g id="el_Qcl4RF7_sX">
			<path d="M315.9,273.7c0,0,7.3-25.4,37.2-25.5c38.2-0.1,47.5,18,47.5,18s-3.7,23-42.2,23.2&#10;&#9;&#9;&#9;&#9;C319.9,289.7,315.9,273.7,315.9,273.7z" id="el_-rO-4Vnot6"/>
			<g id="el_3ypNnFJErD">
				<path d="M320.2,274.8c4.9-15.9,21.1-23,38.4-22.3c10.4,0.4,21.7,2.6,30.3,8.3c2.1,1.4,8,8.4,7.6,6&#10;&#9;&#9;&#9;&#9;&#9;c-0.4-2.3-3.1,5.3-4.9,7.3c-6.7,7.6-17.7,10.3-27.9,11.1c-10.5,0.8-39.6,0.7-43.5-12.5c-1.5-5.1-10.2-2.9-8.7,2.2&#10;&#9;&#9;&#9;&#9;&#9;c5.3,17.8,36.7,19.6,52.1,18.5c13.9-1,42.2-9.4,41.4-26.6c-0.7-15.4-32-21.5-43.9-22.3c-22.1-1.6-43.3,7.7-49.6,28.2&#10;&#9;&#9;&#9;&#9;&#9;C310,277.7,318.7,279.9,320.2,274.8z" id="el_AzLGyyh8Tw"/>
			</g>
		</g>
		<path d="M365.8,248.4c0,0-13.8,10.2-10.4,24.6c2.6,11.3,16.7,15.2,16.7,15.2s13.4-2.5,19.2-8.1&#10;&#9;&#9;&#9;c8.4-8,9.4-13.9,9.4-13.9s-2.7-6.7-14.5-12.6C375,248,365.8,248.4,365.8,248.4z" id="el_SiMmR9W8m_"/>
	</g>
	<g id="el_Isv_HbeQQN">
		<g id="el_0c61HRIX8m">
			<path d="M467.6,258.5c0,0,7.3-25.4,37.2-25.5c38.2-0.1,47.5,18,47.5,18s-3.7,23-42.2,23.2&#10;&#9;&#9;&#9;&#9;C471.6,274.4,467.6,258.5,467.6,258.5z" id="el_cORg9SqoBz"/>
			<g id="el_5hBO-JqvA3g">
				<path d="M471.9,259.6c4.9-15.9,21.1-23,38.4-22.3c10.4,0.4,21.7,2.6,30.3,8.3c2.1,1.4,8,8.4,7.6,6&#10;&#9;&#9;&#9;&#9;&#9;c-0.4-2.3-3.1,5.3-4.9,7.3c-6.7,7.6-17.7,10.3-27.9,11.1c-10.5,0.8-39.6,0.7-43.5-12.5c-1.5-5.1-10.2-2.9-8.7,2.2&#10;&#9;&#9;&#9;&#9;&#9;c5.3,17.8,36.7,19.6,52.1,18.5c13.9-1,42.2-9.4,41.4-26.6c-0.7-15.4-32-21.5-43.9-22.3c-22.1-1.6-43.3,7.7-49.6,28.2&#10;&#9;&#9;&#9;&#9;&#9;C461.7,262.5,470.3,264.6,471.9,259.6z" id="el_Zpwyt0AeVul"/>
			</g>
		</g>
		<path d="M517.4,233.2c0,0-13.8,10.2-10.4,24.6c2.6,11.3,16.7,15.2,16.7,15.2s13.4-2.5,19.2-8.1&#10;&#9;&#9;&#9;c8.4-8,9.4-13.9,9.4-13.9s-2.7-6.7-14.5-12.6C526.7,232.8,517.4,233.2,517.4,233.2z" id="el_UpJaxRZWnB4"/>
	</g>
	<g id="el_2LkD84dT-Vu">
		<g id="el_-NHTU64v18X">
			<path d="M236,246.3c3.7,24.6,6.6,49.4,12.1,73.7c8.8,39,17.6,78.5,30.2,116.5c2.3,6.9,4.7,14,8,20.5&#10;&#9;&#9;&#9;&#9;c2.2,4.2,5.4,9.2,10.9,8.2c8-1.4,13.6-11.4,17.4-17.6c5.9-9.5,10.8-19.6,15.5-29.7c1.9-4.2,7.8-12.8,5.5-17.6&#10;&#9;&#9;&#9;&#9;c-2.2-4.5-5.8-8.8-8.5-13c-11.2-17.1-22.5-34.2-33.7-51.4c-1.9-2.8-3.7-5.7-5.6-8.5c-0.5-0.7-0.9-1.6-1.5-2.3&#10;&#9;&#9;&#9;&#9;c-1.7-1.9,1,0.7,0.1,1.6c0.4-0.3-0.4-4.3-0.4-4.8c-0.3-3.9-0.7-7.7-1-11.6c-1.7-19.3-3.5-38.6-5.2-57.9c-0.1-1.5-0.3-2.9-0.4-4.4&#10;&#9;&#9;&#9;&#9;c-0.5,1.2-1,2.4-1.5,3.5c8.6-9.9,9.2-26.8,9.4-39c0.1-8.4,1.8-15.1,7.3-21.5c4.1-4.8,7.4-9.5,7.2-16.1c-0.2-4.9-2-9.7-3-14.5&#10;&#9;&#9;&#9;&#9;c-1.1-5.6-1.8-11.3-2.1-17c-0.1-1.5,0.8-6.2-0.1-7.5c0.2,0.3-1.6,2.8-0.4,1.9c0.5-0.4,0.9-1.4,1.2-1.9&#10;&#9;&#9;&#9;&#9;c8.6-12.7,21.9-23.2,37-26.7c11-2.5,22.5-3,33.7-5.2c2.9-0.6,6.1-1.1,8.9-2.2c-1.6-0.4-3.2-0.9-4.9-1.3&#10;&#9;&#9;&#9;&#9;c4.7,6,12.4,10.7,20.2,10.1c8.5-0.6,17.3-6.7,22.9-12.9c4.3-4.8-2.7-11.8-7.1-7.1c-3.9,4.4-10,9-15.9,9.9&#10;&#9;&#9;&#9;&#9;c-5.2,0.8-10.1-3.3-13.1-7.2c-1-1.2-3.4-1.9-4.9-1.3c-2.5,1.1-5.4,1.5-8.1,2.1c-10.5,2.2-21.1,3-31.7,4.8&#10;&#9;&#9;&#9;&#9;c-18,3.2-33.4,15.1-44,29.5c-2.2,2.9-3.8,5.2-3.9,8.9c-0.3,11,1.5,22.2,4.3,32.8c0.7,2.8,1.6,5.8,0.4,8.6&#10;&#9;&#9;&#9;&#9;c-1.1,2.6-3.4,4.6-5.2,6.8c-5.8,7.1-8.4,15.1-8.7,24.3c-0.4,10.3-0.4,21-4.5,30.7c-0.6,1.5-1.5,2.9-2.4,4.3&#10;&#9;&#9;&#9;&#9;c-0.5,0.7,0.7-1.1,0.4-0.5c-0.8,1.4-1.3,2.1-1.4,3.8c-0.2,3.5,0.7,7.3,1,10.8c0.7,7.3,1.3,14.6,2,21.9&#10;&#9;&#9;&#9;&#9;c1.2,13.6,2.4,27.3,3.7,40.9c0.2,2.5,0.1,5.3,1.2,7.6c1.4,2.8,3.6,5.4,5.3,8c14.8,22.6,29.7,45.2,44.5,67.9&#10;&#9;&#9;&#9;&#9;c-0.2-1.3-0.3-2.6-0.5-3.8c0.5-1.1,0-0.1-0.4,1c-0.8,1.9-1.6,3.7-2.5,5.6c-2.5,5.7-5.2,11.3-8,16.8c-3.1,6.1-6.3,12.2-9.9,18&#10;&#9;&#9;&#9;&#9;c-2.5,4-5.6,8.9-9,11.6c-0.7,0.6-1.4,0.8-1.4,0.8c-0.1-0.3,1.3,0.4,2.1,0.5c-0.6-0.1,0.1,0.1,0.1,0.1c-0.1,0.1-1.5-1.9-0.4-0.4&#10;&#9;&#9;&#9;&#9;c-1.7-2.3-3-5.1-4.1-7.8c-3.7-8.6-6.8-19.1-9.6-28.6c-7.4-24.9-13.6-50.1-19.5-75.4c-3.1-13.1-6.5-26.2-9-39.4&#10;&#9;&#9;&#9;&#9;c-3.7-20.1-6.2-40.6-9.2-60.9C244.6,237.3,235,240,236,246.3L236,246.3z" id="el_Gq607w4U62B"/>
		</g>
	</g>
	<g id="el_sEWlCJZTlqh">
		<g id="el_xJx64EI6fS7">
			<path d="M411.6,99.3c29.6,2.1,59.2,4.3,88.8,6.4c4.6,0.3,9.2,0.7,13.9,1c-1.4-0.8-2.9-1.6-4.3-2.5&#10;&#9;&#9;&#9;&#9;c8,13.6,15.9,27.2,23.9,40.8c2.1,3.6,8.1,3,9.1-1.2c3.5-14.9,3.8-31.1,1-46.1c-3.3-18.1-12.4-38.1-30.7-44.9&#10;&#9;&#9;&#9;&#9;c-6.3-2.4-13.9-5.1-20.6-5.8c-8.2-0.8-16.5,2-24.3,4.1c-5.6,1.5-15.3,5.1-20.6,1.1c-2.3-1.8-3.4-5.3-4.9-7.8&#10;&#9;&#9;&#9;&#9;c-1.8-3.2-3.8-6.2-6.1-9c-13.2-16.4-33.9-17-53.2-13.6c-6.3,1.1-3.6,10.7,2.7,9.6c15.6-2.7,32.6-2.7,43.3,10.7&#10;&#9;&#9;&#9;&#9;c3.9,4.9,5.9,11.2,10,15.9c4.9,5.5,12.2,6.4,19.1,5.5c7.8-1,15.2-3.6,22.8-5.4c3.4-0.8,6.9-1.5,10.4-1.2c3.1,0.3,6.2,1.7,9.2,2.5&#10;&#9;&#9;&#9;&#9;c5.9,1.7,12.1,3.1,17,7.1c7.1,5.9,11.5,15.6,14.1,24.2c4.9,15.8,5.1,34.2,1.3,50.4c3-0.4,6.1-0.8,9.1-1.2&#10;&#9;&#9;&#9;&#9;c-5.5-9.5-11.1-18.9-16.6-28.4c-2.3-4-4.4-8.4-7.1-12.1c-2-2.8-4.4-2.8-7.5-3c-24.9-1.8-49.8-3.6-74.7-5.4&#10;&#9;&#9;&#9;&#9;c-8.3-0.6-16.6-1.2-24.9-1.8C405.2,88.9,405.2,98.8,411.6,99.3L411.6,99.3z" id="el_yy4m8VqUUHC"/>
		</g>
	</g>
	<g id="el_7qFImK_hDOG">
		<g id="el_dGtq4CH-Jd1">
			<path d="M216.2,284.3c-1.9-17.2-2.9-34.6-3.4-51.9c-0.4-13.8-0.4-27.7,0.6-41.5c1-14,4.3-27.7,7-41.5&#10;&#9;&#9;&#9;&#9;c1.4-7.2,2.2-18.1,8.5-22.7c3.6-2.6,8.3-3,12.4-4.4c6-1.9,11.2-5.4,15.1-10.4c6.1-7.8,8.2-18.2,18.5-21.7&#10;&#9;&#9;&#9;&#9;c3.6-1.2,6.6-2.3,9.5-4.9c5.4-4.9,8.9-11.7,13.2-17.5c3-4.1,6.4-8.6,11.7-9.6c6.2-1.2,12.8,0.1,19.1-0.7&#10;&#9;&#9;&#9;&#9;c12.1-1.5,24.1-8.4,32.4-17.3c4.4-4.7-2.7-11.8-7.1-7.1c-7.1,7.7-17.7,14.1-28.2,14.7c-10.9,0.6-21.2-1.4-29.8,6.9&#10;&#9;&#9;&#9;&#9;c-5.5,5.3-9.2,12.1-13.6,18.2c-2.6,3.5-5,6.3-8.4,7.3c-4.5,1.4-8.7,3.4-12.3,6.6c-4,3.6-6.4,8.5-9,13.2&#10;&#9;&#9;&#9;&#9;c-2.9,5.2-6.1,9.7-11.8,12.1c-4.9,2.1-10.2,2.5-15,5c-7.9,4.2-10.9,12.3-12.9,20.6c-3.2,13.6-6.2,27.6-8,41.4&#10;&#9;&#9;&#9;&#9;c-1.8,13.8-2.2,27.7-2,41.6c0.2,21.2,1.4,42.5,3.7,63.6C206.9,290.6,216.9,290.7,216.2,284.3L216.2,284.3z" id="el_S1QFjsHx8xH"/>
		</g>
	</g>
	<g id="el_yBtQH6SsC1__an_lToCjPpHW" data-animator-group="true" data-animator-type="0"><g id="el_yBtQH6SsC1_">
		<g id="el_ZLjYzd4iVGz">
			<g id="el_W4-K0r0ylI8">
				<path d="M325.8,218c1.5-0.7,3.3-1.4,5.8-2.3c5.7-2.1,11.6-3.9,17.5-5.3c16.9-4,34.7-5.2,51.7-0.9&#10;&#9;&#9;&#9;&#9;&#9;c6.2,1.6,8.9-8.1,2.7-9.6c-26.9-6.8-57.6-2.1-82.7,9.5C315,212,320,220.6,325.8,218L325.8,218z" id="el_0ATQ38kk5CE"/>
			</g>
		</g>
		<g id="el_ySMmXj7h6ZQ">
			<g id="el_wSxq0do_on4">
				<path d="M474,201.7c19-4.4,42-7.1,60.6,0c6,2.3,8.6-7.3,2.7-9.6c-20.2-7.7-45.3-4.8-65.9,0&#10;&#9;&#9;&#9;&#9;&#9;C465.1,193.5,467.7,203.1,474,201.7L474,201.7z" id="el_kr-TmtMMr7a"/>
			</g>
		</g>
	</g></g>
	<g id="el_CAk6bPrbpyJ">
		<g id="el_CGz_kp1bs55">
			<path d="M312.9,489.4c0,12.9,0,25.8,0,38.7c0,8.1,0,16.3,0,24.4c0,3.4-1,9.1,1.5,11.9c2,2.2,5.1,3.9,7.4,5.7&#10;&#9;&#9;&#9;&#9;c5.5,4.2,10.9,8.5,16.4,12.7c14.5,11.2,29,22.4,43.4,33.6c9.1,7.1,18.3,14.1,27.4,21.2c2,1.6,5.1,2.2,7.1,0&#10;&#9;&#9;&#9;&#9;c13.5-14.9,27-29.9,40.5-44.8c7.7-8.5,15.3-17,23-25.5c1.4-1.5,2.9-3,4.1-4.6c2-2.7,2.4-6.4,3.3-9.6c3.1-11.6,6.2-23.3,9.3-34.9&#10;&#9;&#9;&#9;&#9;c1.7-6.2-8-8.9-9.6-2.7c-2.7,10-5.3,20-8,30c-0.7,2.7-1.4,5.3-2.1,8c-0.2,0.6-1.4,3.5-1.1,4.2c-0.6-1.2,2.3-2.9,0.6-1.3&#10;&#9;&#9;&#9;&#9;c-0.9,0.8-1.7,1.9-2.5,2.8c-16.2,17.9-32.3,35.8-48.5,53.7c-5.3,5.9-10.7,11.8-16,17.7c2.4,0,4.7,0,7.1,0&#10;&#9;&#9;&#9;&#9;c-27.6-21.3-55.2-42.7-82.7-64c-4-3.1-8-6.2-11.9-9.2c0.5,1.2,1,2.4,1.5,3.5c0-23.8,0-47.6,0-71.4&#10;&#9;&#9;&#9;&#9;C322.9,483,312.9,483,312.9,489.4L312.9,489.4z" id="el_n2xEO2TYYRP"/>
		</g>
	</g>
	<g id="el_rAdiqVMYqsp">
		<g id="el_nbfTDWUfRIW">
			<path d="M311.9,512c-8.4,3.9-16.4,8.5-24.1,13.7c-11.1,7.4-24.4,17.1-28.5,30.4c-2.2,7-0.3,12.8,2.6,19.2&#10;&#9;&#9;&#9;&#9;c4.1,9.3,9.2,18.1,14.5,26.7c4.5,7.3,9.2,14.5,14,21.5c2.2,3.2,4.6,8.3,8.8,8.8c5.3,0.6,11,0,16.3,0c5.5,0,10.9,0,16.4,0&#10;&#9;&#9;&#9;&#9;c-1.4-0.8-2.9-1.6-4.3-2.5c5.6,10,11.3,19.9,16.9,29.9c1,1.8,3.6,3,5.6,2.3c20.3-7.5,40.6-15,60.9-22.6c6-2.2,3.4-11.9-2.7-9.6&#10;&#9;&#9;&#9;&#9;c-20.3,7.5-40.6,15-60.9,22.6c1.9,0.8,3.8,1.5,5.6,2.3c-5.6-10-11.3-19.9-16.9-29.9c-0.9-1.5-2.6-2.5-4.3-2.5&#10;&#9;&#9;&#9;&#9;c-10.9,0-21.8,0-32.7,0c1.4,0.8,2.9,1.6,4.3,2.5c-12.5-17.2-24.7-35.6-33.3-55.2c-1.7-3.9-2.7-7.2-1.2-11.3&#10;&#9;&#9;&#9;&#9;c1.4-4,4.3-7.5,7.2-10.5c7-7.3,15.4-13.1,24-18.2c5.4-3.2,11-6.3,16.7-9C322.8,517.9,317.7,509.3,311.9,512L311.9,512z" id="el_Rk-AgA1PCOb"/>
		</g>
	</g>
	<g id="el_yIIxIHO7vjx">
		<g id="el_B5yN8RjTPwp">
			<path d="M411.8,637.2c18.2,3,36.5,6,54.7,9c2.6,0.4,5.4-0.7,6.1-3.5c3.7-14.1,7.4-28.2,11.1-42.3&#10;&#9;&#9;&#9;&#9;c-1.2,1.2-2.3,2.3-3.5,3.5c11.3-3,22.7-6,34-9c1.6-0.4,3.2-1.8,3.5-3.5c2.3-12,4.2-24.2,5.2-36.4c0.5-6.1,1.4-13.2-0.6-19.2&#10;&#9;&#9;&#9;&#9;c-2.3-7-8.2-13.7-14.3-17.7c-5.4-3.5-10.4,5.1-5,8.6c4.4,2.9,9.2,8.3,10.2,13.6c1,5.6,0,12.2-0.5,17.9c-1,10.2-2.7,20.4-4.6,30.5&#10;&#9;&#9;&#9;&#9;c1.2-1.2,2.3-2.3,3.5-3.5c-11.3,3-22.7,6-34,9c-1.7,0.4-3,1.8-3.5,3.5c-3.7,14.1-7.4,28.2-11.1,42.3c2-1.2,4.1-2.3,6.1-3.5&#10;&#9;&#9;&#9;&#9;c-18.2-3-36.5-6-54.7-9C408.2,626.6,405.5,636.2,411.8,637.2L411.8,637.2z" id="el_SkdobXc9u3c"/>
		</g>
	</g>
	<g id="el_aCrV9lnEHHa">
		<g id="el_bV9V8yT6dqw">
			<path d="M263.2,567.4c-18.9,9.1-38,18-57.1,26.7c-15.2,6.9-30.5,13.7-46,20c-11.5,4.7-23.2,9.7-35.3,12.6&#10;&#9;&#9;&#9;&#9;c-0.9,0.2-1.9,0.4-2.8,0.6c-1.4,0.3-0.8,0.1-1,0.2c-1.7,0.2-3.2,0.2-4.7,1c-2.1,1.1-3.4,3.1-3.9,5.4c-1.2,5.6,2.1,12,4.7,16.7&#10;&#9;&#9;&#9;&#9;c10.1,18.8,26.1,35.1,42.1,49.1c58.1,51.1,134.4,78.6,211.4,80.7c84.1,2.3,171.7-19.4,241.9-66.7c21.7-14.6,41.9-31.6,59.5-51&#10;&#9;&#9;&#9;&#9;c8.6-9.5,17.3-19.6,23.8-30.7c0.3-0.5,0.6-0.9,0.9-1.4c1.8-3.1,0-6.1-3-7.3c-19.6-7.9-39.1-15.9-58.7-23.8&#10;&#9;&#9;&#9;&#9;c-31.2-12.7-62.4-25.3-93.5-38c-7.2-2.9-14.3-5.8-21.5-8.7c-5.9-2.4-8.5,7.2-2.7,9.6c19.6,7.9,39.1,15.9,58.7,23.8&#10;&#9;&#9;&#9;&#9;c31.2,12.7,62.4,25.3,93.5,38c7.2,2.9,14.3,5.8,21.5,8.7c-1-2.4-2-4.9-3-7.3c-4.2,7.3-9.4,13.9-14.2,19.7&#10;&#9;&#9;&#9;&#9;c-14,17.1-30.2,32.5-47.6,46.2c-61.1,47.9-137.5,72.2-214.3,77.9c-45,3.3-90-0.5-133.2-14.1c-33.6-10.5-65.4-26.6-93.8-47.5&#10;&#9;&#9;&#9;&#9;c-19.4-14.3-38.1-31.3-52.1-51c-2.3-3.3-4.6-6.7-6.5-10.2c-0.8-1.4-1.5-2.8-2.2-4.3c-0.2-0.3-0.9-2.1-0.4-0.8&#10;&#9;&#9;&#9;&#9;c-0.3-0.7-0.6-1.4-0.8-2.2c-0.3-1-0.6-1.9-0.8-2.9c-0.1-0.4,0.4,1.2,0-0.1c-0.4-1.4,0.1,0.2-0.1-0.1c-0.3-0.5,0.7-1-0.2,0.2&#10;&#9;&#9;&#9;&#9;c0.6-0.8-1,1-0.3,0.4c-1.3,1.2-0.1-0.2-1.2,0.7c0.5-0.4-1.5,0.2-0.1,0c9.9-1.2,19.4-4.8,28.7-8.3c14.4-5.5,28.6-11.5,42.7-17.7&#10;&#9;&#9;&#9;&#9;c24.3-10.7,48.4-21.8,72.4-33.3c1.4-0.7,2.8-1.4,4.3-2C274,573.2,269,564.6,263.2,567.4L263.2,567.4z" id="el_91JB1Pz9avi"/>
		</g>
	</g>
	<g id="el_JTWPMJ1oA0z">
		<g id="el_Tz5egORazbs">
			<path d="M408.1,632.4c1,40.9,2,81.8,2.9,122.6c0.1,5.7,0.3,11.5,0.4,17.2c0.2,6.4,10.1,6.4,10,0&#10;&#9;&#9;&#9;&#9;c-1-40.9-2-81.8-2.9-122.6c-0.1-5.7-0.3-11.5-0.4-17.2C418,626,408,626,408.1,632.4L408.1,632.4z" id="el_zFkcxk-Sv7d"/>
		</g>
	</g>
	<g id="el_PJNWyOH5bzf">
		<g id="el_74jvLD5hyG3">
			<path d="M445.3,722.4c-0.3,4.8-7.5,4.9-7.5,0C437.8,717.5,445.1,717.5,445.3,722.4c0.3,6.4,10.3,6.4,10,0&#10;&#9;&#9;&#9;&#9;c-0.4-7.4-6-13.7-13.7-13.7c-7.5,0-13.7,6.3-13.7,13.7c-0.1,7.3,6,13.4,13.2,13.7c7.9,0.3,13.8-6.1,14.2-13.7&#10;&#9;&#9;&#9;&#9;C455.6,715.9,445.7,716,445.3,722.4z" id="el_PXMB6wyzgCz"/>
		</g>
	</g>
	<g id="el_sCNfZVee69a">
		<g id="el_4e_17spizqe">
			<path d="M208.9,310.6c11.5,11.1,22.9,22.2,34.4,33.3c4.6,4.5,11.7-2.6,7.1-7.1c-11.5-11.1-22.9-22.2-34.4-33.3&#10;&#9;&#9;&#9;&#9;C211.3,299.1,204.2,306.2,208.9,310.6L208.9,310.6z" id="el_s2moVRUBFOF"/>
		</g>
	</g>
	<g id="el_hDsUV0hX-Ms">
		<g id="el_ra8IQTP-ZIf">
			<path d="M229,305.8c-1.5,3.9-3,7.8-4.7,11.6c-2.2,5.2-4.5,11.6-8.2,16c-4.1,4.9,2.9,12,7.1,7.1&#10;&#9;&#9;&#9;&#9;c7.5-8.8,11.4-21.4,15.4-32.1C240.9,302.4,231.2,299.8,229,305.8L229,305.8z" id="el_Bd9mjFnvgzP"/>
		</g>
	</g>
	<g id="el_FIpxTUrlmex">
		<g id="el_mXJoMAO4SN5">
			<path d="M214.6,289.3c9.9,1.3,19.9,2.6,29.8,3.9c5.7,0.7,6.6-8.4,1.3-9.8c-11.6-3.1-26.8-4-37.7,1.5&#10;&#9;&#9;&#9;&#9;c-9.9,5-16.5,16.1-18.5,26.7c-3.1,16,2.7,31.6,12.6,44.2c8.9,11.3,21.7,17,36,17.4c8.5,0.2,17.7-1.2,25.7-4.3&#10;&#9;&#9;&#9;&#9;c-2-1.2-4.1-2.3-6.1-3.5c4.5,15.7,9.4,31.3,14.5,46.7c4.3,12.9,8.8,25.7,13.8,38.3c4,10,7.8,21.3,14.6,29.8&#10;&#9;&#9;&#9;&#9;c12.7,15.9,34.7,23.7,53.6,29.3c16.8,5.1,34.2,8.6,51.6,11c9.8,1.3,19.7,2,29.5,2.4c11.3,0.4,22.6,0.5,33.8-0.5&#10;&#9;&#9;&#9;&#9;c10.2-0.8,20.8-2.2,30.1-6.5c16.7-7.8,22.8-29,29.9-44.4c3.6-7.7,7.3-15.2,11.2-22.7c1.5-2.9,3-5.7,3.9-8.9&#10;&#9;&#9;&#9;&#9;c1.9-6.8,3-13.8,4.1-20.7c5.7-35.7,9.2-71.9,12.5-107.9c0.1-0.8,0.2-1.7,0.2-2.5c0.6-6.4-9.4-6.3-10,0&#10;&#9;&#9;&#9;&#9;c-2.8,30.6-5.9,61.1-10,91.5c-1.2,8.7-2.4,17.4-4,26c-0.6,3.1-1.2,6.2-2,9.2c-0.3,1.1-0.6,2.1-0.9,3.1c-0.1,0.4-0.3,0.8-0.4,1.3&#10;&#9;&#9;&#9;&#9;c-0.4,1.2,0.4-0.8-0.2,0.3c-6.6,13.3-13.2,26.4-19.4,39.9c-3.2,7.1-6.4,14.9-11.7,20.8c-5.4,5.9-12.4,8.2-20.1,9.7&#10;&#9;&#9;&#9;&#9;c-10.6,2.1-21.6,2.5-32.4,2.5c-13,0-26-0.5-38.9-1.9c-0.5-0.1-1-0.1-1.5-0.2c-1.4-0.2-1.3-0.2-1.8-0.2c-2.9-0.4-5.8-0.8-8.6-1.3&#10;&#9;&#9;&#9;&#9;c-8.7-1.4-17.3-3.1-25.8-5.2c-19.6-4.7-40.8-10.6-57.1-22.8c-7.4-5.5-11.3-12.2-15.1-20.5c-5.2-11.6-9.7-23.5-13.9-35.4&#10;&#9;&#9;&#9;&#9;c-6.9-19.6-13.2-39.4-19.1-59.4c-0.3-1.2-0.7-2.4-1-3.5c-0.7-2.4-3.6-4.5-6.1-3.5c-13.7,5.4-31.8,6.4-44.2-2.6&#10;&#9;&#9;&#9;&#9;c-17.7-12.8-27.3-46-7.1-61.2c8.6-6.5,23.3-5.1,33.2-2.4c0.4-3.3,0.9-6.5,1.3-9.8c-9.9-1.3-19.9-2.6-29.8-3.9&#10;&#9;&#9;&#9;&#9;C208.3,278.5,208.4,288.5,214.6,289.3L214.6,289.3z" id="el_20mO7UNx3TF"/>
		</g>
	</g>
	<g id="el_fgmA65YjNx1_an_vx6zVCywd" data-animator-group="true" data-animator-type="1"><g id="el_fgmA65YjNx1">
		<g id="el_5TsQNYnJoF8">
			<path d="M404.5,399.1c10.7,12.9,30.6,17.4,46.4,16.2c12-0.9,24.9-3.3,35.6-9.2c3.4-1.9,7.3-4.4,9.3-7.9&#10;&#9;&#9;&#9;&#9;c3.2-5.6-5.4-10.6-8.6-5c-0.1,0.1-0.2,0.3-0.3,0.4c1.4-1.5-0.3,0.2-0.6,0.5c-1.5,1.3-2.9,2.3-5.2,3.5c-9.4,5.1-21.3,7.2-31.8,7.8&#10;&#9;&#9;&#9;&#9;c-13,0.7-29-2.8-37.7-13.4C407.5,387.1,400.5,394.2,404.5,399.1L404.5,399.1z" id="el_bhnMFToQUXQ"/>
		</g>
	</g></g>
	<g id="el_mHCh8vBE1Rn">
		<path d="M492.9,355.6l-66.8-1.7l-62.6,24.5l-7.3,100.1c0,0,53.8,45.4,97.8,38.6c44-6.8,60-32.4,60-32.4l24.2-115.6&#10;&#9;&#9;&#9;L492.9,355.6z M501.6,452.6c0,0-3.7,36.6-65.4,29c-11.2-1.4-44-10.1-44-10.1l-2.8-88.2l60.9-10.1l63.7,6.2L501.6,452.6z" id="el_BjgCo2bYaeG"/>
		<g id="el_WAS8ldLiXuV">
			<path d="M492.9,350.6c-19.6-0.5-39.1-1-58.7-1.5c-5.6-0.1-9.1-0.2-14.2,1.8c-10.6,4.1-21.1,8.3-31.7,12.4&#10;&#9;&#9;&#9;&#9;c-8.7,3.4-17.5,6.8-26.2,10.3c-2.2,0.9-3.5,2.4-3.7,4.8c-1.8,25.1-3.7,50.2-5.5,75.3c-0.4,6.1-0.9,12.2-1.3,18.3&#10;&#9;&#9;&#9;&#9;c-0.2,2.6-1.2,6.6,0.2,9c1.8,3.1,6.3,5.4,9,7.4c6.7,5,13.7,9.6,21,13.8c18.7,10.9,40,20.3,62,20.5c21.5,0.3,44.5-8.4,61.2-21.7&#10;&#9;&#9;&#9;&#9;c5.1-4.1,12.4-9.8,14-16.5c2.5-10.5,4.4-21.1,6.6-31.7c5.6-26.9,11.5-53.7,16.9-80.6c0.1-0.6,0.2-1.2,0.4-1.8&#10;&#9;&#9;&#9;&#9;c0.6-2.7-0.8-5.3-3.5-6.1c-15.1-4.5-30.3-9-45.4-13.5c-6.2-1.8-8.8,7.8-2.7,9.6c15.1,4.5,30.3,9,45.4,13.5&#10;&#9;&#9;&#9;&#9;c-1.2-2-2.3-4.1-3.5-6.1c-7,33.6-14.1,67.1-21.1,100.7c-1,4.8-2.4,9.7-3,14.5c-0.2,1.2,0.7-1.3,0.3-0.6c-0.4,0.6-1.2,1.7-0.7,1&#10;&#9;&#9;&#9;&#9;c-2,2.6-4.3,5-6.8,7.2c-21.3,19.5-53.2,26.7-80.7,18.6c-22.2-6.5-44.5-19.6-61.8-34.2c0.5,1.2,1,2.4,1.5,3.5&#10;&#9;&#9;&#9;&#9;c2.1-29.2,4.3-58.3,6.4-87.5c0.3-4.2,0.6-8.4,0.9-12.6c-1.2,1.6-2.4,3.2-3.7,4.8c18.2-7.1,36.4-14.3,54.6-21.4&#10;&#9;&#9;&#9;&#9;c2.6-1,5.2-1.9,7.8-3c-0.5,0.2-1.7-0.1-0.1,0.1c1.4,0.2,2.9,0.1,4.3,0.1c11.5,0.3,23,0.6,34.5,0.9c9,0.2,18,0.5,27,0.7&#10;&#9;&#9;&#9;&#9;C499.3,360.7,499.3,350.8,492.9,350.6z" id="el_FkUFDc8Spzh"/>
			<path d="M496.7,452.6c0.2-2.1,0-0.1-0.2,0.8c-0.2,0.7-0.4,1.4-0.6,2.1c-0.1,0.4-0.3,0.8-0.4,1.2&#10;&#9;&#9;&#9;&#9;c-0.4,1,0.2-0.3-0.3,0.7c-2.4,5-5.7,9.1-10.5,12.2c-18.5,12.3-43.7,8.5-64,3.8c-9-2.1-18.1-4.4-27-6.8c1.2,1.6,2.4,3.2,3.7,4.8&#10;&#9;&#9;&#9;&#9;c-0.8-25.7-1.6-51.4-2.5-77.1c-0.1-3.7-0.2-7.4-0.4-11.1c-1.2,1.6-2.4,3.2-3.7,4.8c18.1-3,36.2-6,54.3-9.1c2.1-0.4,4.4-1,6.6-1.1&#10;&#9;&#9;&#9;&#9;c-2.8,0.2-0.4,0.2,0.2,0.3c1.5,0.2,3,0.3,4.5,0.4c10.7,1,21.4,2.1,32.1,3.1c8.5,0.8,17,1.7,25.5,2.5c-1.6-2.1-3.2-4.2-4.8-6.3&#10;&#9;&#9;&#9;&#9;c-4.1,24.4-8.3,48.9-12.4,73.3c-1.1,6.3,8.5,9,9.6,2.7c4.1-24.4,8.3-48.9,12.4-73.3c0.6-3.4-1.4-6-4.8-6.3&#10;&#9;&#9;&#9;&#9;c-18.3-1.8-36.7-3.6-55-5.4c-4.9-0.5-8.9-0.9-13.7,0c-10.4,1.7-20.8,3.5-31.1,5.2c-8.7,1.4-17.4,2.9-26,4.3&#10;&#9;&#9;&#9;&#9;c-2.1,0.3-3.7,2.8-3.7,4.8c0.8,25.7,1.6,51.4,2.5,77.1c0.1,3.7,0.2,7.4,0.4,11.1c0.1,2.2,1.5,4.2,3.7,4.8&#10;&#9;&#9;&#9;&#9;c21.2,5.7,43,12.1,65.2,11.3c18-0.7,38.1-6.8,46.9-23.9c1.8-3.5,3.2-7.2,3.6-11.1C507.3,446.2,497.3,446.2,496.7,452.6z" id="el_Eh_tBKcast3"/>
		</g>
	</g>
	<g id="el_pWSBgMofTAV">
		<path d="M434.2,237.9c0,11.3-5.8,101.9-5.8,101.9s70.7,12.4,74.4-7.9C506.5,311.6,434.2,206,434.2,237.9z" id="el_S9lwSqwfjm_"/>
		<g id="el_s45fdevzTaM">
			<path d="M429.2,237.9c0,13.1-1.2,26.3-2,39.4c-1,17-2,33.9-3.1,50.9c-0.2,3.9-0.5,7.7-0.7,11.6&#10;&#9;&#9;&#9;&#9;c-0.1,2,1.6,4.5,3.7,4.8c14.3,2.5,29,4,43.5,3.9c12.5-0.1,38.3-1.2,37.3-19.4c-0.4-6.7-3.3-13.3-6-19.4&#10;&#9;&#9;&#9;&#9;c-3.8-8.5-8.3-16.6-13.1-24.5c-9.7-16.2-20.5-32.3-33.4-46.2c-4.2-4.5-9.3-10.2-15.5-11.7C432.7,225.5,429.3,231.8,429.2,237.9&#10;&#9;&#9;&#9;&#9;c-0.1,6.4,9.9,6.4,10,0c0-0.5,0-1.1,0.1-1.6c0-0.4,0.1,0.8,0.1-0.2c0-0.7-0.1-0.1,0-0.1c0,0-0.2,0.4-0.8,0.7&#10;&#9;&#9;&#9;&#9;c-1.2,0.5-1.4-0.1-0.2,0.6c4,2.2,7.7,6.2,11.2,10.1c11.2,12.4,20.7,26.5,29.4,40.8c7.3,12,15.4,25,18.6,38.9&#10;&#9;&#9;&#9;&#9;c0.4,1.7,0.3,1.4,0.4,2.3c0,0.4,0,0.8,0,1.2c0,1.3,0.3-0.4-0.1,0.6c-0.6,1.7-1.8,2.9-4.1,4c-6.5,3.2-14.7,3.3-21.8,3.5&#10;&#9;&#9;&#9;&#9;c-14.1,0.2-28.5-1.1-42.3-3.6c1.2,1.6,2.4,3.2,3.7,4.8c1.8-28.1,3.6-56.2,5.1-84.4c0.3-5.8,0.7-11.6,0.7-17.5&#10;&#9;&#9;&#9;&#9;C439.2,231.5,429.2,231.5,429.2,237.9z" id="el_NQ5Q7cmDp4b"/>
		</g>
	</g>
	<g id="el_qEOtoNScDkJ">
		<g id="el_msMqBAdaNid">
			<g id="el_pcEPtKQtnwI">
				<path d="M419.4,249c-0.2,21.4-12.2,43.6-27.9,57.7c-7.5,6.8-17,12.2-27.3,12.6c-11.9,0.4-23.8-3.2-33.7-9.8&#10;&#9;&#9;&#9;&#9;&#9;c-18.9-12.7-27.6-37.2-18.4-58.5c4.4-10.1,12.3-18.5,21.8-24c10.9-6.3,22.5-7.9,34.9-7.6c11.7,0.2,24.4,0.7,35.3,5.5&#10;&#9;&#9;&#9;&#9;&#9;C414.4,229.4,419.3,237.9,419.4,249c0.1,6.4,10.1,6.4,10,0c-0.2-11.7-4.3-22.3-14-29.2c-9.7-7-22.4-8.9-34.1-9.8&#10;&#9;&#9;&#9;&#9;&#9;c-14.1-1.1-28.7-1.4-42.1,3.6c-12.5,4.7-23.4,12.9-31,24c-15.2,22.4-11.8,52.6,6.9,71.8c18.2,18.8,49.2,26.4,72.4,12.6&#10;&#9;&#9;&#9;&#9;&#9;c24-14.3,41.6-45.1,41.9-73.1C429.5,242.6,419.5,242.6,419.4,249z" id="el_G5PLSNxUDm0"/>
			</g>
		</g>
		<g id="el_haCTWS-WCf0">
			<g id="el_ea-wvMgh0Lw">
				<path d="M460.9,240.9c0.3,25.4,14.9,52.1,34.7,67.7c10,7.9,21.8,13,34.7,12.6c14-0.5,27.8-5,39-13.4&#10;&#9;&#9;&#9;&#9;&#9;c21.6-16.2,30.4-44.9,19-69.9c-5.5-12-15.3-22-26.8-28.2c-13-7-26.9-8.7-41.4-8.3c-13.9,0.4-29,1.4-41.5,8.2&#10;&#9;&#9;&#9;&#9;&#9;C466.6,215.9,461,227.6,460.9,240.9c-0.1,6.5,9.9,6.5,10,0c0.1-9.6,3.7-17.7,12.2-22.5c8.9-5,19.8-6.2,29.8-6.8&#10;&#9;&#9;&#9;&#9;&#9;c12.2-0.7,24.3-0.9,35.9,3.3c10.7,3.8,20.5,11.2,26.7,20.7c12.8,19.5,9,44.7-8,60.4c-16.5,15.4-42.6,20.4-62,7.6&#10;&#9;&#9;&#9;&#9;&#9;c-19.6-13-34.5-39.1-34.8-62.8C470.8,234.4,460.8,234.4,460.9,240.9z" id="el_QoQt6KAWqdk"/>
			</g>
		</g>
		<g id="el_7XVRMoAo3N1">
			<g id="el_sPB2kYVYHrh">
				<path d="M302.1,264.5c-21.7,4.5-43.4,9-65.1,13.5c-6.3,1.3-3.6,10.9,2.7,9.6c21.7-4.5,43.4-9,65.1-13.5&#10;&#9;&#9;&#9;&#9;&#9;C311.1,272.8,308.4,263.2,302.1,264.5L302.1,264.5z" id="el_LwxNXXhPFUm"/>
			</g>
		</g>
		<g id="el_To-FfM5xvUN">
			<g id="el_fGb59bVhph3">
				<path d="M429.6,246.9c0.3-0.3,1.2-0.9,0.1-0.2c0.8-0.5,1.4-0.8,2.1-1.1c4.7-1.7,10.4-1.2,15.2-0.6&#10;&#9;&#9;&#9;&#9;&#9;c5.2,0.6,11.5,1.5,15.8,4.7c0.4,0.3,2.2,1.7,1.3,1.1c0.6,0.4,0.6,1.8,0.1,0c1.7,6.2,11.4,3.6,9.7-2.7&#10;&#9;&#9;&#9;&#9;&#9;c-2.5-9.1-16.2-11.7-23.8-12.8c-7.5-1.1-22-2.8-27.7,4.4C418.6,244.9,425.6,252,429.6,246.9L429.6,246.9z" id="el_6IeK9w4U35e"/>
			</g>
		</g>
	</g>
</g></g>
</svg>