<?xml version="1.0" encoding="utf-8"?>
<!-- Generator: Adobe Illustrator 22.1.0, SVG Export Plug-In . SVG Version: 6.00 Build 0)  -->
<svg version="1.1" id="Capa_3" xmlns="http://www.w3.org/2000/svg" xmlns:xlink="http://www.w3.org/1999/xlink" x="0px" y="0px"
	 viewBox="0 0 1604.5 1604.5" style="enable-background:new 0 0 1604.5 1604.5;" xml:space="preserve">
<style type="text/css">
	.st0{opacity:0.5;fill:#D9EAEF;}
	.st1{clip-path:url(#SVGID_2_);}
	.st2{fill:#FFFFFF;}
</style>
<path class="st0" d="M1314,360.5c-232.1-95.4-321.8,246.1-696.9,87.9C368.4,343.7,132.3,351.5,76.4,658
	c-22.8,124.7,24.1,336.9,186,435.8c129.7,79.3,308.8-19.2,465.8,5.6c131.4,20.7,164.3,110.5,308.8,138.2
	c124,23.8,251.3-60.5,221.2-161.3c-56.5-189.2,211.5-209.3,227.5-418.8C1500,470,1367.8,382.7,1314,360.5z"/>
<g>
	<defs>
		<path id="SVGID_1_" d="M1314,360.5c-232.1-95.4-321.8,246.1-696.9,87.9C368.4,343.7,132.3,351.5,76.4,658
			c-22.8,124.7,24.1,336.9,186,435.8c129.7,79.3,308.8-19.2,465.8,5.6c131.4,20.7,164.3,110.5,308.8,138.2
			c124,23.8,251.3-60.5,221.2-161.3c-56.5-189.2,211.5-209.3,227.5-418.8C1500,470,1367.8,382.7,1314,360.5z"/>
	</defs>
	<clipPath id="SVGID_2_">
		<use xlink:href="#SVGID_1_"  style="overflow:visible;"/>
	</clipPath>
	<g class="st1">
		<g>
			<g>
				<path class="st2" d="M95.7,1047.7c175.5,0,351,0,526.5,0s351,0,526.5,0c99,0,198,0,297,0c6.4,0,6.4-10,0-10
					c-175.5,0-351,0-526.5,0s-351,0-526.5,0c-99,0-198,0-297,0C89.3,1037.7,89.2,1047.7,95.7,1047.7L95.7,1047.7z"/>
			</g>
		</g>
		<g>
			<g>
				<path class="st2" d="M1027.8,1088.3c22.5,0,45,0,67.5,0c6.4,0,6.4-10,0-10c-22.5,0-45,0-67.5,0
					C1021.3,1078.3,1021.3,1088.3,1027.8,1088.3L1027.8,1088.3z"/>
			</g>
		</g>
		<g>
			<g>
				<path class="st2" d="M1149.3,1118.3c30.5,0,61,0,91.5,0c6.4,0,6.4-10,0-10c-30.5,0-61,0-91.5,0
					C1142.8,1108.3,1142.8,1118.3,1149.3,1118.3L1149.3,1118.3z"/>
			</g>
		</g>
		<g>
			<g>
				<path class="st2" d="M1171.8,1091.3c10.5,0,21,0,31.5,0c6.4,0,6.4-10,0-10c-10.5,0-21,0-31.5,0
					C1165.3,1081.3,1165.3,1091.3,1171.8,1091.3L1171.8,1091.3z"/>
			</g>
		</g>
		<g>
			<g>
				<path class="st2" d="M888.3,1179.8c79,0,158,0,237,0c6.4,0,6.4-10,0-10c-79,0-158,0-237,0
					C881.8,1169.8,881.8,1179.8,888.3,1179.8L888.3,1179.8z"/>
			</g>
		</g>
		<g>
			<g>
				<path class="st2" d="M1066.8,1217.3c26.5,0,53,0,79.5,0c6.4,0,6.4-10,0-10c-26.5,0-53,0-79.5,0
					C1060.3,1207.3,1060.3,1217.3,1066.8,1217.3L1066.8,1217.3z"/>
			</g>
		</g>
		<g>
			<g>
				<path class="st2" d="M1186.8,1178.3c30.5,0,61,0,91.5,0c6.4,0,6.4-10,0-10c-30.5,0-61,0-91.5,0
					C1180.3,1168.3,1180.3,1178.3,1186.8,1178.3L1186.8,1178.3z"/>
			</g>
		</g>
		<g>
			<g>
				<path class="st2" d="M252.3,1092.8c21,0,42,0,63,0c6.4,0,6.4-10,0-10c-21,0-42,0-63,0C245.9,1082.8,245.9,1092.8,252.3,1092.8
					L252.3,1092.8z"/>
			</g>
		</g>
		<g>
			<g>
				<path class="st2" d="M328.8,1110.8c7.5,0,15,0,22.5,0c6.4,0,6.4-10,0-10c-7.5,0-15,0-22.5,0
					C322.4,1100.8,322.4,1110.8,328.8,1110.8L328.8,1110.8z"/>
			</g>
		</g>
		<g>
			<g>
				<path class="st2" d="M327.3,1076.3c6.5,0,13,0,19.5,0c6.4,0,6.4-10,0-10c-6.5,0-13,0-19.5,0
					C320.9,1066.3,320.9,1076.3,327.3,1076.3L327.3,1076.3z"/>
			</g>
		</g>
		<g>
			<g>
				<path class="st2" d="M1006.8,1127.3c21,0,42,0,63,0c6.4,0,6.4-10,0-10c-21,0-42,0-63,0
					C1000.3,1117.3,1000.3,1127.3,1006.8,1127.3L1006.8,1127.3z"/>
			</g>
		</g>
		<g>
			<g>
				<path class="st2" d="M1054.8,1145.3c8.5,0,17,0,25.5,0c6.4,0,6.4-10,0-10c-8.5,0-17,0-25.5,0
					C1048.3,1135.3,1048.3,1145.3,1054.8,1145.3L1054.8,1145.3z"/>
			</g>
		</g>
		<g>
			<g>
				<path class="st2" d="M1245.3,1076.3c26,0,52,0,78,0c6.4,0,6.4-10,0-10c-26,0-52,0-78,0
					C1238.8,1066.3,1238.8,1076.3,1245.3,1076.3L1245.3,1076.3z"/>
			</g>
		</g>
		<g>
			<g>
				<path class="st2" d="M61.8,862.6c10.3-75.3,31-164,102.9-204.5c3.6-2,8.6-4.9,12.7-2.4c3.6,2.2,5.9,7.9,7.6,11.5
					c4.2,9.1,6.1,19.1,6.7,29c1.2,18.5-1.4,37.3-5,55.4c-7.2,35.6-20.5,69.8-39.1,101c-20.9,35-48.5,66.1-81.1,90.7
					c-5.1,3.8-0.1,12.5,5,8.6c62.8-47.2,107.6-117,124.1-193.8c4.1-19.1,7.1-39,6.4-58.6c-0.4-10.2-1.8-20.5-5.3-30.2
					c-2.9-8-7.2-18.9-15.3-23c-9.2-4.6-19.2,1.4-26.9,6.3c-8,5.1-15.6,10.9-22.7,17.3C117.1,683,105,698.6,95,715.4
					C68.9,759.2,58.9,810,52.1,859.9C51.2,866.2,60.9,868.9,61.8,862.6L61.8,862.6z"/>
			</g>
		</g>
		<g>
			<g>
				<path class="st2" d="M155.9,847.7c23.2-35.3,58.5-60.6,96.4-78.1c21.6-10,44.3-17.5,67.2-23.9c12.1-3.4,24.2-6.5,36.4-9.4
					c10.6-2.6,22-6.6,32.9-7.2c25.8-1.3,10.4,43.7,6,56.7c-6.6,19.5-15.8,38.1-26.9,55.5c-22.8,35.7-53.8,65.8-89.2,88.9
					c-42.2,27.5-89.9,45.2-139,55.4c-6.3,1.3-3.6,10.9,2.7,9.6c91.2-18.8,178.5-65.3,231.1-144.1c12.2-18.3,22.3-38.1,29.7-58.8
					c3.9-11,7.4-22.3,9.1-33.9c1.5-10.4,2.1-24.3-5.4-32.7c-7.2-8.1-18.7-7.1-28.3-5c-12.7,2.8-25.4,6-38,9.2
					c-24.9,6.3-49.6,13.4-73.5,22.8c-47.1,18.6-91.5,47.1-119.7,90.1C143.8,848.1,152.4,853.1,155.9,847.7L155.9,847.7z"/>
			</g>
		</g>
		<g>
			<g>
				<path class="st2" d="M258.4,955.6c19.1-1.3,38.3-2.6,57.4-3.8c7.9-0.5,17.7-2.4,25.1,1.5c8.6,4.6,5.6,13,2.3,20.2
					c-12.3,26.5-34.8,48-61.9,58.9c-5.9,2.4-3.3,12,2.7,9.6c24.9-10,46.2-27.5,60.6-50.2c6.5-10.2,16.6-26.1,10.4-38.3
					c-7-13.8-24.1-12.9-37.2-12c-19.8,1.3-39.6,2.6-59.4,4C252,946,251.9,956,258.4,955.6L258.4,955.6z"/>
			</g>
		</g>
		<g>
			<g>
				<path class="st2" d="M123.7,965.5c64.5-70.3,155.4-106.8,227.9-167.3c20.3-17,38.8-35.9,54.5-57.2c3.8-5.2-4.9-10.2-8.6-5
					c-56.4,76.7-147.5,115.2-222.1,170.6c-21,15.6-41,32.6-58.7,51.9C112.3,963.2,119.4,970.3,123.7,965.5L123.7,965.5z"/>
			</g>
		</g>
		<g>
			<g>
				<path class="st2" d="M94.1,863.6c34.9-66.7,65.6-135.5,92.1-206c2.3-6-7.4-8.6-9.6-2.7c-26.2,69.7-56.7,137.7-91.1,203.6
					C82.5,864.2,91.2,869.3,94.1,863.6L94.1,863.6z"/>
			</g>
		</g>
		<g>
			<g>
				<path class="st2" d="M171.2,1018.8c54.8-16.3,113.5-16.7,166.8-38.4c5.9-2.4,3.3-12.1-2.7-9.6c-53.3,21.7-112,22.1-166.8,38.4
					C162.4,1010.9,165,1020.6,171.2,1018.8L171.2,1018.8z"/>
			</g>
		</g>
		<g>
			<g>
				<path class="st2" d="M189.4,911.6c30.9,6.5,61.9,12.5,93,18.3c6.3,1.2,9-8.5,2.7-9.6c-31.1-5.7-62-11.8-93-18.3
					C185.8,900.6,183.1,910.3,189.4,911.6L189.4,911.6z"/>
			</g>
		</g>
		<g>
			<g>
				<path class="st2" d="M256.8,869.4c30.5-0.8,61-0.5,91.5,0.8c6.4,0.3,6.4-9.7,0-10c-30.5-1.4-61-1.6-91.5-0.8
					C250.4,859.6,250.4,869.6,256.8,869.4L256.8,869.4z"/>
			</g>
		</g>
		<g>
			<g>
				<path class="st2" d="M310.4,816.6c-4.1-19.9-5.1-40.1-3.3-60.3c0.6-6.4-9.4-6.4-10,0c-1.9,21.1-0.6,42.2,3.6,62.9
					C302.1,825.6,311.7,822.9,310.4,816.6L310.4,816.6z"/>
			</g>
		</g>
		<g>
			<g>
				<path class="st2" d="M227.6,876c4.7-31.4,9.4-62.8,14-94.2c0.9-6.3-8.7-9-9.6-2.7c-4.7,31.4-9.4,62.8-14,94.2
					C217,879.6,226.6,882.3,227.6,876L227.6,876z"/>
			</g>
		</g>
		<g>
			<g>
				<path class="st2" d="M147.2,744c15.6-1.9,31.1-3.8,46.7-5.8c6.3-0.8,6.4-10.8,0-10c-15.6,1.9-31.1,3.8-46.7,5.8
					C140.9,734.8,140.8,744.8,147.2,744L147.2,744z"/>
			</g>
		</g>
		<g>
			<g>
				<path class="st2" d="M126.3,803.4c16.5,0.3,33-1,49.3-3.7c6.3-1,3.6-10.7-2.7-9.6c-15.4,2.6-31,3.6-46.6,3.4
					C119.9,793.3,119.9,803.3,126.3,803.4L126.3,803.4z"/>
			</g>
		</g>
		<g>
			<g>
				<path class="st2" d="M102.3,849.1c16.5,0.3,33-1,49.3-3.7c6.3-1,3.6-10.7-2.7-9.6c-15.4,2.6-31,3.6-46.6,3.4
					C95.9,839,95.9,849,102.3,849.1L102.3,849.1z"/>
			</g>
		</g>
		<g>
			<g>
				<path class="st2" d="M210.3,1003.4c6.2-10.6,12.5-21.3,18.7-31.9c3.3-5.6-5.4-10.6-8.6-5c-6.2,10.6-12.5,21.3-18.7,31.9
					C198.4,1003.9,207,1008.9,210.3,1003.4L210.3,1003.4z"/>
			</g>
		</g>
		<g>
			<g>
				<path class="st2" d="M278.3,994.6c6-14.2,12.1-28.4,18.1-42.6c2.5-5.9-6.1-11-8.6-5c-6,14.2-12.1,28.4-18.1,42.6
					C267.1,995.4,275.7,1000.5,278.3,994.6L278.3,994.6z"/>
			</g>
		</g>
		<g>
			<g>
				<path class="st2" d="M227.1,1003.6c10.1,12.3,21.3,23.6,33.5,33.9c4.9,4.1,12-2.9,7.1-7.1c-12.2-10.3-23.3-21.6-33.5-33.9
					C230.1,991.6,223,998.7,227.1,1003.6L227.1,1003.6z"/>
			</g>
		</g>
		<g>
			<path class="st2" d="M1460.4,856c-6.1-46.3-14.3-92.9-34.4-135.4c-8.7-18.4-19.7-35.9-33.1-51.3c-6.5-7.5-13.6-14.5-21.3-20.8
				c-7.8-6.3-16.5-13.4-26-16.8c-21.8-7.9-30.7,22.3-33.5,38.2c-3.6,21.1-1.5,42.7,1.9,63.6c6.3,39.8,19.8,78.5,39.3,113.8
				c21.7,39.4,51.1,74.7,86.5,102.4c5.1,4,12.4-3.2,7.2-7.2c-58.9-46.2-100.3-112.8-117.9-185.4c-4.5-18.5-7.6-37.5-8.5-56.5
				c-0.8-18.4,0.2-41.8,12.2-57c6.5-8.2,19,2.8,25.1,7.2c7.7,5.5,14.8,11.9,21.4,18.7c13.1,13.7,23.9,29.4,32.8,46.2
				c22.9,43.2,31.8,92.3,38,140.3C1451,862.4,1461.2,862.5,1460.4,856L1460.4,856z"/>
		</g>
		<g>
			<path class="st2" d="M1365,836.6c-24.2-38.6-61.4-67-102.3-86.3c-23.6-11.2-48.5-19.6-73.6-26.7c-12.8-3.6-25.7-7-38.7-10.2
				c-10.5-2.6-22.5-7.2-33.5-5.4c-25.8,4.4-17.8,42-13.2,59.1c6,22.2,15,43.7,26.2,63.7c22.4,39.8,53.9,74,90.9,100.6
				c44.2,31.9,95.8,52.6,148.9,64c6.4,1.4,9.1-8.5,2.7-9.8c-86.8-18.6-169.2-63.6-220.1-138.1c-12.1-17.8-22.5-36.9-30.2-57
				c-3.8-9.9-7.1-20-9.7-30.3c-2.7-10.8-5.7-24.4-1.6-35.2c4.3-11.3,18.3-6.2,26.9-4.1c12,3,24.1,6,36.1,9.2
				c23.9,6.4,47.7,13.7,70.6,23.3c44.3,18.7,85.8,47.2,111.7,88.5C1359.6,847.3,1368.5,842.2,1365,836.6L1365,836.6z"/>
		</g>
		<g>
			<path class="st2" d="M1253.8,944.1c-17.8-1.2-35.6-2.5-53.4-3.7c-14-1-31.7-3.9-41.4,9.1c-8.7,11.8-0.1,27.3,6,38.3
				c6.5,11.8,15,22.7,24.9,32c11.2,10.6,24.2,18.8,38.4,24.8c6.1,2.5,8.7-7.3,2.7-9.8c-27.4-11.5-49.4-34-61.6-60.9
				c-3.2-7-6.9-15.6,0.8-21.1c7-5,17.3-3,25.3-2.4c19.5,1.4,38.9,2.7,58.4,4.1C1260.4,954.7,1260.4,944.5,1253.8,944.1L1253.8,944.1
				z"/>
		</g>
		<g>
			<path class="st2" d="M1395.6,957.5c-63.7-72.5-154.5-111-226.6-173.4c-20.2-17.5-38.8-36.8-54.2-58.7c-3.8-5.3-12.6-0.2-8.8,5.2
				c56.1,79.6,146.5,121.2,222,178.8c21.7,16.6,42.3,34.8,60.4,55.4C1392.7,969.6,1399.9,962.4,1395.6,957.5L1395.6,957.5z"/>
		</g>
		<g>
			<path class="st2" d="M1426.8,853.2c-34.5-68.9-65-139.9-91.1-212.4c-2.2-6.1-12.1-3.5-9.8,2.7c26.5,73.4,57.2,145.1,92.1,214.9
				C1420.9,864.2,1429.7,859,1426.8,853.2L1426.8,853.2z"/>
		</g>
		<g>
			<path class="st2" d="M1343.6,1010.3c-54.3-16.8-112.9-17.2-165.6-39.5c-6-2.5-11.2,6.3-5.2,8.8c53.6,22.7,112.8,23.4,168,40.6
				C1347.2,1022.1,1349.9,1012.3,1343.6,1010.3L1343.6,1010.3z"/>
		</g>
		<g>
			<path class="st2" d="M1320.1,898.5c-30.9,6.7-61.9,13.1-93,19.1c-6.4,1.2-3.7,11.1,2.7,9.8c31.1-6,62.1-12.3,93-19.1
				C1329.3,907,1326.5,897.1,1320.1,898.5L1320.1,898.5z"/>
		</g>
		<g>
			<path class="st2" d="M1255.4,854.2c-30.5-0.8-61-0.5-91.5,0.9c-6.5,0.3-6.6,10.5,0,10.2c30.5-1.4,61-1.7,91.5-0.9
				C1262,864.6,1261.9,854.4,1255.4,854.2L1255.4,854.2z"/>
		</g>
		<g>
			<path class="st2" d="M1211.5,812.1c4.3-21.6,5.5-43.7,3.6-65.6c-0.6-6.5-10.8-6.6-10.2,0c1.8,21.1,0.8,42.2-3.3,62.9
				C1200.4,815.9,1210.3,818.6,1211.5,812.1L1211.5,812.1z"/>
		</g>
		<g>
			<path class="st2" d="M1294.3,868.6c-4.7-32.8-9.4-65.5-14-98.3c-0.9-6.5-10.8-3.7-9.8,2.7c4.7,32.8,9.4,65.5,14,98.3
				C1285.4,877.8,1295.3,875,1294.3,868.6L1294.3,868.6z"/>
		</g>
		<g>
			<path class="st2" d="M1358,920.2c0-24.5,0-49,0-73.5c0-6.6-10.2-6.6-10.2,0c0,24.5,0,49,0,73.5
				C1347.8,926.7,1358,926.7,1358,920.2L1358,920.2z"/>
		</g>
		<g>
			<path class="st2" d="M1365,723.3c-15.6-2-31.1-4-46.7-6c-6.5-0.8-6.4,9.4,0,10.2c15.6,2,31.1,4,46.7,6
				C1371.5,734.4,1371.4,724.2,1365,723.3L1365,723.3z"/>
		</g>
		<g>
			<path class="st2" d="M1385.9,785.3c-15.6,0.3-31.2-0.9-46.6-3.5c-6.4-1.1-9.2,8.7-2.7,9.8c16.3,2.8,32.7,4.2,49.3,3.9
				C1392.4,795.4,1392.5,785.2,1385.9,785.3L1385.9,785.3z"/>
		</g>
		<g>
			<path class="st2" d="M1407.2,832.9c-14.8,4-29.9,5.7-45.3,5.2c-6.6-0.2-6.6,10,0,10.2c16.2,0.5,32.3-1.4,48-5.6
				C1416.2,841.1,1413.5,831.2,1407.2,832.9L1407.2,832.9z"/>
		</g>
		<g>
			<path class="st2" d="M1405.9,810.5c10.4-19.1,21.3-37.9,32.9-56.3c3.5-5.6-5.3-10.7-8.8-5.2c-11.6,18.4-22.6,37.2-32.9,56.3
				C1394,811.1,1402.8,816.2,1405.9,810.5L1405.9,810.5z"/>
		</g>
		<g>
			<path class="st2" d="M1377.8,753.5c13.7-16.6,23.8-35.5,30.2-56c1.9-6.3-7.9-9-9.8-2.7c-5.8,18.8-15.1,36.3-27.6,51.5
				C1366.4,751.3,1373.6,758.6,1377.8,753.5L1377.8,753.5z"/>
		</g>
		<g>
			<path class="st2" d="M1310.7,999c-6.2-11.1-12.5-22.2-18.7-33.3c-3.2-5.7-12-0.6-8.8,5.2c6.2,11.1,12.5,22.2,18.7,33.3
				C1305.1,1009.9,1313.9,1004.8,1310.7,999L1310.7,999z"/>
		</g>
		<g>
			<path class="st2" d="M1243.2,991.1c-6-14.8-12.1-29.6-18.1-44.4c-2.5-6-12.3-3.4-9.8,2.7c6,14.8,12.1,29.6,18.1,44.4
				C1235.8,999.8,1245.7,997.2,1243.2,991.1L1243.2,991.1z"/>
		</g>
		<g>
			<path class="st2" d="M1277.9,997.2c-10.1,12.8-21.2,24.6-33.5,35.4c-4.9,4.4,2.3,11.6,7.2,7.2c12.2-10.8,23.4-22.6,33.5-35.4
				C1289.2,999.3,1282,992,1277.9,997.2L1277.9,997.2z"/>
		</g>
		<g>
			<path class="st2" d="M54.3,617.4c113.6,0,227.2,0,340.8,0c31.9,0,63.8,0,95.7,0c6.6,0,6.6-10.2,0-10.2c-9.5,0-19,0-28.5,0
				c-6.6,0-6.6,10.2,0,10.2c9.5,0,19,0,28.5,0c6.6,0,6.6-10.2,0-10.2c-113.6,0-227.2,0-340.8,0c-31.9,0-63.8,0-95.7,0
				C47.7,607.2,47.7,617.4,54.3,617.4L54.3,617.4z"/>
		</g>
		<g>
			<path class="st2" d="M497.4,612.5c0-77.1,0-154.2,0-231.3c0-6.5-10.2-6.5-10.2,0c0,77.1,0,154.2,0,231.3
				C487.2,619,497.4,619,497.4,612.5L497.4,612.5z"/>
		</g>
		<g>
			<path class="st2" d="M442.2,393.1c0,54,0,108,0,162.1c0,6.2,10.2,6.2,10.2,0c0-54,0-108,0-162.1
				C452.4,386.8,442.2,386.8,442.2,393.1L442.2,393.1z"/>
		</g>
		<g>
			<path class="st2" d="M438.7,564.3c15,13.2,29.9,26.3,44.9,39.5c5.8,5.1,14.8-2.8,9-7.9c-15-13.2-29.9-26.3-44.9-39.5
				C441.9,551.2,432.9,559.2,438.7,564.3L438.7,564.3z"/>
		</g>
		<g>
			<path class="st2" d="M96.3,564.9c88.3,0,176.5,0,264.8,0c25.2,0,50.4,0,75.7,0c6.6,0,6.6-10.2,0-10.2c-88.3,0-176.5,0-264.8,0
				c-25.2,0-50.4,0-75.7,0C89.7,554.7,89.7,564.9,96.3,564.9L96.3,564.9z"/>
		</g>
		<g>
			<path class="st2" d="M194.2,499.7c15.7-35.3,53.2-53.5,75.5-83.9c3.9-5.3-5-10.4-8.8-5.2c-22.3,30.5-59.6,48.3-75.5,83.9
				C182.7,500.5,191.5,505.7,194.2,499.7L194.2,499.7z"/>
		</g>
		<g>
			<path class="st2" d="M240.5,481.6c11.5-16.6,25.2-31.5,40.6-44.5c5-4.2-2.2-11.4-7.2-7.2c-16.1,13.6-30.2,29.3-42.2,46.6
				C227.9,481.8,236.8,487,240.5,481.6L240.5,481.6z"/>
		</g>
		<g>
			<path class="st2" d="M364.3,493.1c5.7-9.3,11.5-18.7,17.2-28c3.5-5.6-5.4-10.8-8.8-5.2c-5.7,9.3-11.5,18.7-17.2,28
				C352,493.6,360.9,498.7,364.3,493.1L364.3,493.1z"/>
		</g>
		<g>
			<path class="st2" d="M409.8,1092.9c34.5,0,69,0,103.5,0c6.6,0,6.6-10.2,0-10.2c-34.5,0-69,0-103.5,0
				C403.2,1082.7,403.2,1092.9,409.8,1092.9L409.8,1092.9z"/>
		</g>
		<g>
			<path class="st2" d="M559.6,1083.4c10.5-1.8,21.1-3.5,31.6-5.3c6.5-1.1,3.7-10.9-2.7-9.8c-10.5,1.8-21.1,3.5-31.6,5.3
				C550.4,1074.6,553.2,1084.5,559.6,1083.4L559.6,1083.4z"/>
		</g>
		<g>
			<path class="st2" d="M790.8,1128.9c41,0,82,0,123,0c6.6,0,6.6-10.2,0-10.2c-41,0-82,0-123,0
				C784.2,1118.7,784.2,1128.9,790.8,1128.9L790.8,1128.9z"/>
		</g>
		<g>
			<path class="st2" d="M945.3,1145.4c6.5,0,13,0,19.5,0c6.6,0,6.6-10.2,0-10.2c-6.5,0-13,0-19.5,0
				C938.7,1135.2,938.7,1145.4,945.3,1145.4L945.3,1145.4z"/>
		</g>
		<g>
			<path class="st2" d="M907.8,1098.9c12.5,0,25,0,37.5,0c6.6,0,6.6-10.2,0-10.2c-12.5,0-25,0-37.5,0
				C901.2,1088.7,901.2,1098.9,907.8,1098.9L907.8,1098.9z"/>
		</g>
		<g>
			<path class="st2" d="M805.8,1091.4c10,0,20,0,30,0c6.6,0,6.6-10.2,0-10.2c-10,0-20,0-30,0
				C799.2,1081.2,799.2,1091.4,805.8,1091.4L805.8,1091.4z"/>
		</g>
		<g>
			<path class="st2" d="M483.6,1041.7c7.8-25.6,5.5-53.5,5.3-79.9c-0.2-28.1-0.3-56.2-0.5-84.2c-0.2-26.2-1-52.5-0.3-78.8
				c0.6-21.5,3.2-44.6,16.5-62.3c10.1-13.4,24.5-22.1,39.8-28.8c29-12.8,61.6-17.7,92.9-20.3c29-2.4,58.4-2.8,87.5-2.2
				c26.1,0.6,53.1,2.7,77.8,11.8c10.7,3.9,21.5,9.6,28.8,18.6c7.5,9.3,8,19.7,8,31.2c0.1,32,0.9,64.1,1.8,96.1
				c1.7,62.4,4.3,124.8,5.7,187.2c0.1,3.4,0.1,6.9,0.2,10.3c0.1,6.6,10.3,6.6,10.2,0c-0.5-58.9-3.6-117.7-5.3-176.6
				c-1-34.6-2-69.1-2.3-103.7c-0.1-12.5,1.5-26.1-3-38c-4.4-11.5-13.2-20.4-23.7-26.7c-23.3-14.1-52.5-17.7-79.2-19.5
				c-24.9-1.7-50.3-1.2-75.3-0.4c-37.4,1.2-75.8,4.8-111.6,16.6c-18.8,6.2-37.5,15-52,28.8c-29,27.7-27.3,70.1-27.1,107.1
				c0.4,57.2,1.7,114.5,1,171.7c-0.2,13.3-1.2,26.5-5.1,39.3C471.8,1045.3,481.7,1048,483.6,1041.7L483.6,1041.7z"/>
		</g>
		<g>
			<path class="st2" d="M532.8,779.1c69.7,6.2,140.1,5.4,209.6-2.4c19.8-2.2,39.5-5,59.1-8.3c6.5-1.1,3.7-10.9-2.7-9.8
				c-68.3,11.5-137.6,16.2-206.8,14c-19.8-0.6-39.5-1.9-59.2-3.6C526.3,768.3,526.3,778.5,532.8,779.1L532.8,779.1z"/>
		</g>
		<g>
			<path class="st2" d="M531.4,839.9c66.8,4.7,134,2.7,200.4-6.1c18.7-2.5,37.4-5.5,56-9c6.5-1.2,3.7-11.1-2.7-9.8
				c-65,12.3-131.3,18-197.4,17.1c-18.8-0.3-37.5-1.1-56.2-2.4C524.8,829.2,524.8,839.5,531.4,839.9L531.4,839.9z"/>
		</g>
		<g>
			<path class="st2" d="M528.4,893.5c65,7.1,130.7,7.6,195.7,1.4c18.3-1.7,36.5-4,54.6-6.8c6.5-1,3.7-10.8-2.7-9.8
				c-81.9,12.4-165.3,14-247.6,5C521.9,882.6,522,892.8,528.4,893.5L528.4,893.5z"/>
		</g>
		<g>
			<path class="st2" d="M541.8,974.4c65.6,8.2,132.4,5.5,197.2-7.6c18.4-3.7,36.6-8.4,54.5-13.8c6.3-1.9,3.6-11.8-2.7-9.8
				c-62.8,18.9-128.4,27.6-193.9,25.4c-18.4-0.6-36.8-2.1-55.1-4.4C535.3,963.4,535.3,973.6,541.8,974.4L541.8,974.4z"/>
		</g>
		<g>
			<path class="st2" d="M913.2,478.8c0,53,0,106,0,159c0,6.6,10.2,6.6,10.2,0c0-53,0-106,0-159C923.4,472.2,913.2,472.2,913.2,478.8
				L913.2,478.8z"/>
		</g>
		<g>
			<path class="st2" d="M924.3,644.4c77.5,0,155,0,232.5,0c6.6,0,6.6-10.2,0-10.2c-77.5,0-155,0-232.5,0
				C917.7,634.2,917.7,644.4,924.3,644.4L924.3,644.4z"/>
		</g>
		<g>
			<path class="st2" d="M1166.4,640.8c0-78.2,0-156.4,0-234.6c0-22.3,0-44.6,0-66.9c0-6.6-10.2-6.6-10.2,0c0,78.2,0,156.4,0,234.6
				c0,22.3,0,44.6,0,66.9C1156.2,647.4,1166.4,647.4,1166.4,640.8L1166.4,640.8z"/>
		</g>
		<g>
			<path class="st2" d="M919.8,432.9c79,0,158,0,237,0c6.6,0,6.6-10.2,0-10.2c-79,0-158,0-237,0
				C913.2,422.7,913.2,432.9,919.8,432.9L919.8,432.9z"/>
		</g>
		<g>
			<path class="st2" d="M921.3,483.9c62.6,0,125.2,1.8,187.8,2.6c17.1,0.2,34.2,0.4,51.2,0.4c6.6,0,6.6-10.2,0-10.2
				c-62.6,0-125.2-1.8-187.8-2.6c-17.1-0.2-34.2-0.4-51.2-0.4C914.7,473.7,914.7,483.9,921.3,483.9L921.3,483.9z"/>
		</g>
		<g>
			<path class="st2" d="M922.8,539.4c75.5,0,151,0,226.5,0c6.6,0,6.6-10.2,0-10.2c-75.5,0-151,0-226.5,0
				C916.2,529.2,916.2,539.4,922.8,539.4L922.8,539.4z"/>
		</g>
		<g>
			<path class="st2" d="M922.8,590.4c78,0,156,0,234,0c6.6,0,6.6-10.2,0-10.2c-78,0-156,0-234,0
				C916.2,580.2,916.2,590.4,922.8,590.4L922.8,590.4z"/>
		</g>
		<g>
			<path class="st2" d="M1093.2,430.8c0,69,0,138,0,207c0,6.6,10.2,6.6,10.2,0c0-69,0-138,0-207
				C1103.4,424.2,1093.2,424.2,1093.2,430.8L1093.2,430.8z"/>
		</g>
		<g>
			<path class="st2" d="M1032.7,430.8c0,68,0,136,0,204c0,6.6,10.2,6.6,10.2,0c0-68,0-136,0-204
				C1042.9,424.2,1032.7,424.2,1032.7,430.8L1032.7,430.8z"/>
		</g>
		<g>
			<path class="st2" d="M978.2,453.3c0,60,0,120,0,180c0,6.6,10.2,6.6,10.2,0c0-60,0-120,0-180C988.4,446.7,978.2,446.7,978.2,453.3
				L978.2,453.3z"/>
		</g>
		<g>
			<path class="st2" d="M1100.1,486.2c17.7,13.7,35.4,27.5,53.1,41.2c5.1,4,12.4-3.2,7.2-7.2c-17.7-13.7-35.4-27.5-53.1-41.2
				C1102.2,475,1094.9,482.2,1100.1,486.2L1100.1,486.2z"/>
		</g>
		<g>
			<path class="st2" d="M1104.7,533.2c14.5-13,29.7-25.2,45.7-36.4c5.3-3.7,0.2-12.6-5.2-8.8c-16.7,11.7-32.6,24.4-47.8,38
				C1092.6,530.4,1099.8,537.6,1104.7,533.2L1104.7,533.2z"/>
		</g>
	</g>
</g>
<g>
	<path class="st2" d="M113.4,816.9c-10.4-18.4-21.4-36.4-32.9-54c-3.5-5.4-12.2-0.4-8.6,5c11.6,17.6,22.5,35.6,32.9,54
		C108,827.6,116.6,822.5,113.4,816.9L113.4,816.9z"/>
</g>
<g>
	<path class="st2" d="M134.7,761.2c-12.4-14.5-21.7-31.2-27.6-49.3c-2-6.1-11.6-3.5-9.6,2.7c6.4,19.8,16.6,37.9,30.2,53.7
		C131.8,773.2,138.9,766.1,134.7,761.2L134.7,761.2z"/>
</g>
</svg>
