<svg width='24px' xmlns="http://www.w3.org/2000/svg" fill="none" viewBox="0 0 16 15">
  <path fill="#20B3FF" fill-rule="evenodd" d="M5.279 1.336c.136.003.273.013.409.03a4.072 4.072 0 0 1 2.048.915 4.126 4.126 0 0 1 .544.547c.024.028.045.057.07.084a.416.416 0 0 0 .144.105.382.382 0 0 0 .444-.105l.05-.062.055-.067a4.192 4.192 0 0 1 1.725-1.208 3.626 3.626 0 0 1 3.492.498c.319.242.601.539.834.875.264.381.463.813.586 1.269.071.26.117.53.14.8a4.883 4.883 0 0 1-.116 1.51 5.304 5.304 0 0 1-.094.35c-.23.756-.621 1.445-1.068 2.077-.077.108-.155.215-.235.32a20.112 20.112 0 0 1-1.45 1.681 57.532 57.532 0 0 1-1.807 1.808c-.41.396-.822.788-1.234 1.18-.128.123-.258.243-.385.367l-.011.011-.728.66-.018.012a.07.07 0 0 1-.061 0c-.007-.003-.012-.008-.018-.012l-.728-.66-.011-.011c-.127-.124-.257-.244-.385-.367l-.545-.518a98.503 98.503 0 0 1-1.792-1.745 30.957 30.957 0 0 1-1.515-1.618c-.405-.47-.792-.96-1.131-1.489a7.082 7.082 0 0 1-.74-1.475 5.077 5.077 0 0 1-.293-1.547 4.664 4.664 0 0 1 .048-.84 4.365 4.365 0 0 1 .356-1.184c.116-.246.256-.479.416-.694.188-.251.404-.478.643-.674a3.597 3.597 0 0 1 2.36-.823z" clip-rule="evenodd"/>
  <path fill="#fff" fill-rule="evenodd" d="M10.869 0a4.293 4.293 0 0 0-.607.049 4.512 4.512 0 0 0-1.642.6c-.331.2-.639.443-.917.721l-.02.02-.015.012a.067.067 0 0 1-.07 0l-.014-.011a4.852 4.852 0 0 0-.47-.42c-.3-.234-.624-.43-.966-.582A4.405 4.405 0 0 0 4.785.02a4.21 4.21 0 0 0-3.003.867c-.338.263-.64.579-.893.935-.3.422-.53.9-.68 1.405-.097.327-.16.667-.19 1.01A5.506 5.506 0 0 0 .102 5.76c.026.139.058.277.094.413.227.854.636 1.642 1.117 2.362a13.003 13.003 0 0 0 .737.993c.2.246.41.484.624.717.251.273.51.538.771.8.337.335.679.664 1.023.99.504.478 1.011.952 1.516 1.429l.183.173.186.176 1.007.965.031.03a.364.364 0 0 0 .486 0l.031-.03 1.008-.965c.574-.545 1.152-1.086 1.728-1.63l.311-.295c.361-.345.72-.69 1.07-1.047.255-.258.505-.521.748-.793a13.115 13.115 0 0 0 1.207-1.55c.49-.739.902-1.549 1.12-2.429a5.892 5.892 0 0 0 .163-1.134 5.434 5.434 0 0 0-.03-.848 5.042 5.042 0 0 0-.236-1.051 4.737 4.737 0 0 0-.65-1.258A4.392 4.392 0 0 0 13.043.586 4.177 4.177 0 0 0 10.869 0zM4.423.83c.13.003.26.013.39.03a3.885 3.885 0 0 1 1.954.873 3.935 3.935 0 0 1 .52.521c.022.027.043.055.066.081a.397.397 0 0 0 .137.1.364.364 0 0 0 .424-.1l.048-.06.053-.063A4.003 4.003 0 0 1 9.66 1.059a3.46 3.46 0 0 1 3.332.475c.305.231.574.514.797.835.251.364.44.776.559 1.21.067.25.112.506.132.765a4.66 4.66 0 0 1-.11 1.44 5.119 5.119 0 0 1-.089.334c-.22.721-.593 1.379-1.02 1.981-.073.104-.147.206-.224.306-.428.566-.899 1.093-1.383 1.604-.56.592-1.14 1.161-1.724 1.725-.391.378-.784.752-1.178 1.126-.122.117-.246.232-.367.35l-.01.011-.695.63-.017.011c-.007.002-.013.005-.02.006a.067.067 0 0 1-.039-.006l-.017-.011-.694-.63-.01-.011c-.122-.119-.246-.233-.368-.35l-.52-.494a94.02 94.02 0 0 1-1.71-1.665A29.542 29.542 0 0 1 2.84 9.157a12.754 12.754 0 0 1-1.08-1.42 6.757 6.757 0 0 1-.704-1.408 4.844 4.844 0 0 1-.28-1.476 4.45 4.45 0 0 1 .045-.802 4.165 4.165 0 0 1 .34-1.13c.11-.234.244-.456.397-.662.18-.24.386-.456.614-.642A3.432 3.432 0 0 1 4.423.83z" clip-rule="evenodd"/>
</svg>
