<?xml version="1.0" encoding="utf-8"?>
<!-- Generator: Adobe Illustrator 22.1.0, SVG Export Plug-In . SVG Version: 6.00 Build 0)  -->
<svg version="1.1" id="Capa_1" xmlns="http://www.w3.org/2000/svg" xmlns:xlink="http://www.w3.org/1999/xlink" x="0px" y="0px"
	 viewBox="0 0 140 140" style="enable-background:new 0 0 140 140;" xml:space="preserve">
<style type="text/css">
	.st0{opacity:0.5;fill:#DAE6EA;}
	.st1{display:none;}
	
		.st2{display:inline;opacity:0.63;fill:#A21C26;stroke:#222221;stroke-width:0.5452;stroke-miterlimit:10;enable-background:new    ;}
	.st3{fill:#FFD16A;}
	.st4{fill:#0B1C30;}
	.st5{fill-rule:evenodd;clip-rule:evenodd;fill:#5ABEEC;}
	.st6{fill:#5ABFED;}
</style>
<path class="st0" d="M132.5,104.5c-3.8,30.9-26.1,23.8-60.2,23.8s-27.2,0.1-58.5-26.5C-21.8,71.6,35.5,18,101,18
	C135.1,18,136,76.4,132.5,104.5z"/>
<g id="Capa_2_1_" class="st1">
	<rect x="23.1" class="st2" width="94.7" height="137.6"/>
</g>
<g id="Capa_1_1_">
	<path class="st3" d="M46.5,115v16.5l18.7,6.2l28.4-4.5l-1.9-16.5l-14.3-4.9l-4.5-1.4c0,0-2.4,1.2-4,1.4c-1.3,0.1-3.9-0.9-3.9-0.9
		l-3,2L46.5,115z"/>
	<path class="st4" d="M93.5,116.1c-0.2-0.3-6.4-1.9-9.1-2.7c-2.4-0.7-6.1-1.3-7.7-2.6c-0.8-0.9-2.7-1.2-3.6-1.4
		c-1.2-0.2-1.7,1.7-0.4,1.9c0.6,0.1,1.1,0.2,1.7,0.4c0.3,0.1,0.5,0.1,0.6,0c0,0,0,0,0,0c-0.1,0-0.2,0.1-0.5,0.2
		c-1.4,0.8-3.5,1-5,1.1c-1.5,0.1-3.1-0.1-4.6-0.4c-0.5-0.1-1.4-0.2-1.7-0.7c-0.2-0.5,1.1-0.5,1.5-0.6c1.3-0.3,0.7-2.2-0.5-1.9
		c-1.4,0.3-3.7,0.9-3.5,2.5c0,0.6,0,1.2,0,1.8c-4,0.6-8.1,1.3-12.1,2c-0.1,0-0.2,0-0.2-0.1c-0.4-0.1-0.8,0.1-1,0.3
		c-0.3,0.2-0.4,0.5-0.3,0.9c0,5,0,9.9,0,14.9c0,0.5,0.3,0.8,0.7,1c6.2,2,12.5,4,18.8,5.8c0.1,0,0.2,0.1,0.3,0.1
		c0.2,0.1,0.5,0,0.7-0.1c8.9-2,17.8-4.1,26.7-6c0.4-0.1,0.8-0.5,0.7-1C94.5,126.8,93.9,116.3,93.5,116.1z M69.4,115.1
		c1.3-0.1,4-0.2,5.8-1c0,0.4,0,0.9,0,1.3c0,0.2,0,0.5-0.1,0.7c-0.3,0.1-0.7,0.3-0.8,0.3c-3.7,1.1-8.1,0.9-11.7-0.4
		c0-0.4,0-0.7,0-1.1c0-0.1,0-0.2,0-0.4c0-0.1,0-0.3,0-0.4C64.6,115.2,67.7,115.2,69.4,115.1z M60.7,115.8c0,0.3,0,0.7,0,1
		c0,0.5,0.3,0.8,0.7,1c4.4,1.8,10.9,2.2,15.3-0.1c0.3-0.2,0.5-0.5,0.5-0.9c0-1.2,0-2.3,0-3.5c1.8,0.8,4,1.1,5.8,1.7
		c1.8,0.5,3.6,1,5.3,1.5c-7.2,1.5-14.3,2.9-21.5,4.4c-4.6-1.3-9.2-2.6-13.8-3.9C55.6,116.6,58.2,116.2,60.7,115.8z M49.1,130.9
		 M49.2,130.8c0,0,0-3.5,0-4.6c0-2.7,0-5.5,0-8.2c2.2,0.6,4.3,1.3,6.6,1.8c1,0.3,10.4,2.9,10.4,2.9s0,12.3,0,13.5
		c-2.2-0.7-4.4-1.4-6.6-2.1C56.6,133.2,49.3,130.9,49.2,130.8z M68.1,136.5c-0.1-4.5-0.1-9-0.2-13.5c8.1-1.7,16.1-3.3,24.2-4.9
		c0.3,3.5,0.5,6.9,0.7,10.4c0.1,0.8-0.1,1.9,0.2,2.6c0,0,0,0,0,0c-1,0.3-2.2,0.4-3.1,0.6C82.7,133.2,75.4,134.9,68.1,136.5z"/>
	<g>
		<g>
			<g>
				<path class="st5" d="M113.2,6.6l-2.5,28.7c0,0,4.4,25.5-2.6,33.5c-5.4,6.2-12.6,4.8-12.6,4.8s-1.3,5.6-6.1,8.7
					c-8.4,5.6-10.1,4.3-10.1,4.3s1.9,23.8-10,23.7c-12.9-0.2-15.8-44.7-15.8-44.7S40.7,84.9,31.8,78.8c-10.1-7,5.2-34.6,5.2-34.6
					L31.2,9c0,0,19.8-6.1,36.2-5.8C85.7,3.5,113.2,6.6,113.2,6.6z"/>
			</g>
			<g>
				<path class="st6" d="M113.2,6.6l-2.5,28.7c0,0,4.4,25.5-2.6,33.5c-5.4,6.2-12.6,4.8-12.6,4.8s-1.3,5.6-6.1,8.7
					c-8.4,5.6-10.1,4.3-10.1,4.3s1.9,23.8-10,23.7c-12.9-0.2-15.8-44.7-15.8-44.7S40.7,84.9,31.8,78.8c-10.1-7,5.2-34.6,5.2-34.6
					L31.2,9c0,0,19.8-6.1,36.2-5.8C85.7,3.5,113.2,6.6,113.2,6.6z"/>
			</g>
		</g>
		<path class="st4" d="M111.8,29.9c0.4-8.9,1.3-17.8,2.4-26.7c0.1-1.3-1.9-1.3-2,0c-1.3,10.8-3.1,22.2-2.4,33.1
			c0.7,11.9,8,39.7-12.6,38.2c-0.1-3.5-0.8-6.9-1.6-10.3c-0.3-1.3-2.2-0.8-1.9,0.5c0.8,3.5,1.4,7.1,1.5,10.7c0,0,0,0,0,0.1
			c-0.8,3.6-2.8,7-6.1,8.6c-1.7,0.8-6.1,2.6-8.6,2.5c-0.4-6.1-1.3-12.2-3-18c-0.4-1.3-2.3-0.7-1.9,0.5c1.7,5.9,2.5,12,3,18.1
			c0,0.1-0.1,0.2-0.1,0.3c0.2,5.5-0.3,11.5-2.3,16.6c-1.5,3.8-5.1,8.1-9.6,6c-2.8-1.3-4.5-4.7-5.7-7.3c-5.3-11.2-7.2-24.7-8.4-37
			c-0.1-0.7-1.1-1.5-1.7-0.7c-3.9,5-9.8,11.6-16.3,12.7c-13,2.2-6.7-17-4.2-22.7c1.4-3.2,4.6-6.8,4.4-10.4
			c-0.4-6.4-2.1-12.9-3.1-19.2c-1-6.1-1.9-12.1-2.9-18.2c-0.2-1.3-2.1-0.7-1.9,0.5c1,6.1,1.9,12.1,2.9,18.2
			c0.7,4.4,1.4,8.8,2.1,13.2c0.3,1.9,1.1,4.3,1.1,6.3c0-0.1-0.2,0.6-0.6,1.1c-0.9,1.4-1.7,3-2.4,4.5c-2,4-3.8,8.2-4.8,12.6
			c-1.5,6.2-1,15.7,7.4,16.1c7,0.4,13.8-6.2,18.2-11.6c0.6,5,1.4,10,2.3,15c1.6,8.4,3.5,18.6,9.1,25.5c4.3,5.4,11.1,4.7,14.7-1.2
			c3.2-5.4,3.9-12.6,3.8-18.9c3,0,7.1-1.6,9.2-2.5c3.2-1.5,6.7-5.4,7.1-9.1c0-0.3,0.1-0.5,0.1-0.7c0.6,0,1.2,0.2,1.7,0.2
			c2-0.1,4-0.5,5.8-1.2c5.3-2.2,8-7,8.9-12.4C115.2,51.9,111.3,41,111.8,29.9z M97.2,76.1C97.2,76,97.2,76,97.2,76.1L97.2,76.1z"/>
	</g>
</g>
</svg>
