<svg height='180px' version="1.1" id="el_8UBvxhsLx" xmlns="http://www.w3.org/2000/svg" xmlns:xlink="http://www.w3.org/1999/xlink" x="0px" y="0px" viewBox="0 0 800 800" style="enable-background:new 0 0 800 800;" xml:space="preserve"><style>@-webkit-keyframes kf_el_ti0_kFg8evY_an_NBn9kh9j-{0%{-webkit-transform: translate(435.97523498535156px, 393.45018005371094px) rotate(0deg) translate(-435.97523498535156px, -393.45018005371094px);transform: translate(435.97523498535156px, 393.45018005371094px) rotate(0deg) translate(-435.97523498535156px, -393.45018005371094px);}50%{-webkit-transform: translate(435.97523498535156px, 393.45018005371094px) rotate(-3deg) translate(-435.97523498535156px, -393.45018005371094px);transform: translate(435.97523498535156px, 393.45018005371094px) rotate(-3deg) translate(-435.97523498535156px, -393.45018005371094px);}100%{-webkit-transform: translate(435.97523498535156px, 393.45018005371094px) rotate(0deg) translate(-435.97523498535156px, -393.45018005371094px);transform: translate(435.97523498535156px, 393.45018005371094px) rotate(0deg) translate(-435.97523498535156px, -393.45018005371094px);}}@keyframes kf_el_ti0_kFg8evY_an_NBn9kh9j-{0%{-webkit-transform: translate(435.97523498535156px, 393.45018005371094px) rotate(0deg) translate(-435.97523498535156px, -393.45018005371094px);transform: translate(435.97523498535156px, 393.45018005371094px) rotate(0deg) translate(-435.97523498535156px, -393.45018005371094px);}50%{-webkit-transform: translate(435.97523498535156px, 393.45018005371094px) rotate(-3deg) translate(-435.97523498535156px, -393.45018005371094px);transform: translate(435.97523498535156px, 393.45018005371094px) rotate(-3deg) translate(-435.97523498535156px, -393.45018005371094px);}100%{-webkit-transform: translate(435.97523498535156px, 393.45018005371094px) rotate(0deg) translate(-435.97523498535156px, -393.45018005371094px);transform: translate(435.97523498535156px, 393.45018005371094px) rotate(0deg) translate(-435.97523498535156px, -393.45018005371094px);}}@-webkit-keyframes kf_el_-MQKz1RTaMf_an_9IRxfv2Qa{0%{-webkit-transform: translate(441.1630859375px, 216.204345703125px) rotate(0deg) translate(-441.1630859375px, -216.204345703125px);transform: translate(441.1630859375px, 216.204345703125px) rotate(0deg) translate(-441.1630859375px, -216.204345703125px);}50%{-webkit-transform: translate(441.1630859375px, 216.204345703125px) rotate(-1deg) translate(-441.1630859375px, -216.204345703125px);transform: translate(441.1630859375px, 216.204345703125px) rotate(-1deg) translate(-441.1630859375px, -216.204345703125px);}100%{-webkit-transform: translate(441.1630859375px, 216.204345703125px) rotate(0deg) translate(-441.1630859375px, -216.204345703125px);transform: translate(441.1630859375px, 216.204345703125px) rotate(0deg) translate(-441.1630859375px, -216.204345703125px);}}@keyframes kf_el_-MQKz1RTaMf_an_9IRxfv2Qa{0%{-webkit-transform: translate(441.1630859375px, 216.204345703125px) rotate(0deg) translate(-441.1630859375px, -216.204345703125px);transform: translate(441.1630859375px, 216.204345703125px) rotate(0deg) translate(-441.1630859375px, -216.204345703125px);}50%{-webkit-transform: translate(441.1630859375px, 216.204345703125px) rotate(-1deg) translate(-441.1630859375px, -216.204345703125px);transform: translate(441.1630859375px, 216.204345703125px) rotate(-1deg) translate(-441.1630859375px, -216.204345703125px);}100%{-webkit-transform: translate(441.1630859375px, 216.204345703125px) rotate(0deg) translate(-441.1630859375px, -216.204345703125px);transform: translate(441.1630859375px, 216.204345703125px) rotate(0deg) translate(-441.1630859375px, -216.204345703125px);}}@-webkit-keyframes kf_el_QLdRXC9vI3q_an_uM9Ck1g_D{0%{-webkit-transform: translate(459.5575256347656px, 199.1310577392578px) translate(-459.5575256347656px, -199.1310577392578px) translate(0px, 0px);transform: translate(459.5575256347656px, 199.1310577392578px) translate(-459.5575256347656px, -199.1310577392578px) translate(0px, 0px);}50%{-webkit-transform: translate(459.5575256347656px, 199.1310577392578px) translate(-459.5575256347656px, -199.1310577392578px) translate(0px, 3px);transform: translate(459.5575256347656px, 199.1310577392578px) translate(-459.5575256347656px, -199.1310577392578px) translate(0px, 3px);}100%{-webkit-transform: translate(459.5575256347656px, 199.1310577392578px) translate(-459.5575256347656px, -199.1310577392578px) translate(0px, 0px);transform: translate(459.5575256347656px, 199.1310577392578px) translate(-459.5575256347656px, -199.1310577392578px) translate(0px, 0px);}}@keyframes kf_el_QLdRXC9vI3q_an_uM9Ck1g_D{0%{-webkit-transform: translate(459.5575256347656px, 199.1310577392578px) translate(-459.5575256347656px, -199.1310577392578px) translate(0px, 0px);transform: translate(459.5575256347656px, 199.1310577392578px) translate(-459.5575256347656px, -199.1310577392578px) translate(0px, 0px);}50%{-webkit-transform: translate(459.5575256347656px, 199.1310577392578px) translate(-459.5575256347656px, -199.1310577392578px) translate(0px, 3px);transform: translate(459.5575256347656px, 199.1310577392578px) translate(-459.5575256347656px, -199.1310577392578px) translate(0px, 3px);}100%{-webkit-transform: translate(459.5575256347656px, 199.1310577392578px) translate(-459.5575256347656px, -199.1310577392578px) translate(0px, 0px);transform: translate(459.5575256347656px, 199.1310577392578px) translate(-459.5575256347656px, -199.1310577392578px) translate(0px, 0px);}}@-webkit-keyframes kf_el_bLVMn7mjpQK_an_Y3yOoGg7V{0%{-webkit-transform: translate(358.35691833496094px, 214.42154693603516px) translate(-358.35691833496094px, -214.42154693603516px) translate(0px, 0px);transform: translate(358.35691833496094px, 214.42154693603516px) translate(-358.35691833496094px, -214.42154693603516px) translate(0px, 0px);}50%{-webkit-transform: translate(358.35691833496094px, 214.42154693603516px) translate(-358.35691833496094px, -214.42154693603516px) translate(0px, 5px);transform: translate(358.35691833496094px, 214.42154693603516px) translate(-358.35691833496094px, -214.42154693603516px) translate(0px, 5px);}100%{-webkit-transform: translate(358.35691833496094px, 214.42154693603516px) translate(-358.35691833496094px, -214.42154693603516px) translate(0px, 0px);transform: translate(358.35691833496094px, 214.42154693603516px) translate(-358.35691833496094px, -214.42154693603516px) translate(0px, 0px);}}@keyframes kf_el_bLVMn7mjpQK_an_Y3yOoGg7V{0%{-webkit-transform: translate(358.35691833496094px, 214.42154693603516px) translate(-358.35691833496094px, -214.42154693603516px) translate(0px, 0px);transform: translate(358.35691833496094px, 214.42154693603516px) translate(-358.35691833496094px, -214.42154693603516px) translate(0px, 0px);}50%{-webkit-transform: translate(358.35691833496094px, 214.42154693603516px) translate(-358.35691833496094px, -214.42154693603516px) translate(0px, 5px);transform: translate(358.35691833496094px, 214.42154693603516px) translate(-358.35691833496094px, -214.42154693603516px) translate(0px, 5px);}100%{-webkit-transform: translate(358.35691833496094px, 214.42154693603516px) translate(-358.35691833496094px, -214.42154693603516px) translate(0px, 0px);transform: translate(358.35691833496094px, 214.42154693603516px) translate(-358.35691833496094px, -214.42154693603516px) translate(0px, 0px);}}@-webkit-keyframes kf_el_iR-JzdWyUV_an_pk8B2nBy2{0%{-webkit-transform: translate(402.6091003417969px, 400.0175495147705px) rotate(0deg) translate(-402.6091003417969px, -400.0175495147705px);transform: translate(402.6091003417969px, 400.0175495147705px) rotate(0deg) translate(-402.6091003417969px, -400.0175495147705px);}50%{-webkit-transform: translate(402.6091003417969px, 400.0175495147705px) rotate(3deg) translate(-402.6091003417969px, -400.0175495147705px);transform: translate(402.6091003417969px, 400.0175495147705px) rotate(3deg) translate(-402.6091003417969px, -400.0175495147705px);}100%{-webkit-transform: translate(402.6091003417969px, 400.0175495147705px) rotate(0deg) translate(-402.6091003417969px, -400.0175495147705px);transform: translate(402.6091003417969px, 400.0175495147705px) rotate(0deg) translate(-402.6091003417969px, -400.0175495147705px);}}@keyframes kf_el_iR-JzdWyUV_an_pk8B2nBy2{0%{-webkit-transform: translate(402.6091003417969px, 400.0175495147705px) rotate(0deg) translate(-402.6091003417969px, -400.0175495147705px);transform: translate(402.6091003417969px, 400.0175495147705px) rotate(0deg) translate(-402.6091003417969px, -400.0175495147705px);}50%{-webkit-transform: translate(402.6091003417969px, 400.0175495147705px) rotate(3deg) translate(-402.6091003417969px, -400.0175495147705px);transform: translate(402.6091003417969px, 400.0175495147705px) rotate(3deg) translate(-402.6091003417969px, -400.0175495147705px);}100%{-webkit-transform: translate(402.6091003417969px, 400.0175495147705px) rotate(0deg) translate(-402.6091003417969px, -400.0175495147705px);transform: translate(402.6091003417969px, 400.0175495147705px) rotate(0deg) translate(-402.6091003417969px, -400.0175495147705px);}}#el_8UBvxhsLx *{-webkit-animation-duration: 1s;animation-duration: 1s;-webkit-animation-iteration-count: 1;animation-iteration-count: 1;-webkit-animation-play-state: running;animation-play-state: running;-webkit-animation-timing-function: cubic-bezier(0, 0, 1, 1);animation-timing-function: cubic-bezier(0, 0, 1, 1);}#el__AVZcjgDvA{fill: #6AB9E7;}#el_-RAVYe-Ls-{fill: #0e8195;}#el_Ra4WeILr_Y{fill: #6AB9E7;}#el_kq-Adyd7oF{fill: #0e8195;}#el_pVESBY_NzX{fill: #FFFFFF;}#el_MWTCrjK41g{fill: #2E416C;}#el_35fCJ0760G{fill: #2E416C;}#el_HZu-VtRGoU9{fill: #FFFFFF;}#el_ufuSmEt7-xa{fill: #2E416C;}#el_0l3z8FmSD4r{fill: #2E416C;}#el_p1S-IJdJMu3{fill: #2E416C;}#el_1QhXbcdeLqK{fill: #2E416C;}#el_SRDVEe9LDnm{fill: #2E416C;}#el__tCBIl615qr{fill: #2E416C;}#el_5DQ9JlBI214{fill: #2E416C;}#el_SBmWPlW08jh{fill: #2E416C;}#el_QzmMYJ0-30E{fill: #2E416C;}#el_Rr9PEYUaL7C{fill: #2E416C;}#el_qsGclyyrYd-{fill: #2E416C;}#el_rYf0XYYiqaG{fill: #0e8195;}#el_gI5fr385cut{fill: #2E416C;}#el_SQBRA3A4yTv{fill: #2E416C;}#el_awAkjNkTwXp{fill: #2E416C;}#el_MEjNwEhtijX{fill: #2E416C;}#el_N8umd5ffw0Y{fill: #2E416C;}#el_ad4LraInlhR{fill: #2E416C;}#el_iR-JzdWyUV_an_pk8B2nBy2{-webkit-animation-fill-mode: backwards;animation-fill-mode: backwards;-webkit-transform: translate(402.6091003417969px, 400.0175495147705px) rotate(0deg) translate(-402.6091003417969px, -400.0175495147705px);transform: translate(402.6091003417969px, 400.0175495147705px) rotate(0deg) translate(-402.6091003417969px, -400.0175495147705px);-webkit-animation-timing-function: cubic-bezier(0.42, 0, 0.58, 1);animation-timing-function: cubic-bezier(0.42, 0, 0.58, 1);}#el_8UBvxhsLx:hover #el_iR-JzdWyUV_an_pk8B2nBy2{-webkit-animation-name: kf_el_iR-JzdWyUV_an_pk8B2nBy2;animation-name: kf_el_iR-JzdWyUV_an_pk8B2nBy2;}#el_bLVMn7mjpQK_an_Y3yOoGg7V{-webkit-animation-fill-mode: backwards;animation-fill-mode: backwards;-webkit-transform: translate(358.35691833496094px, 214.42154693603516px) translate(-358.35691833496094px, -214.42154693603516px) translate(0px, 0px);transform: translate(358.35691833496094px, 214.42154693603516px) translate(-358.35691833496094px, -214.42154693603516px) translate(0px, 0px);-webkit-animation-timing-function: cubic-bezier(0, 0, 0.58, 1);animation-timing-function: cubic-bezier(0, 0, 0.58, 1);}#el_8UBvxhsLx:hover #el_bLVMn7mjpQK_an_Y3yOoGg7V{-webkit-animation-name: kf_el_bLVMn7mjpQK_an_Y3yOoGg7V;animation-name: kf_el_bLVMn7mjpQK_an_Y3yOoGg7V;}#el_QLdRXC9vI3q_an_uM9Ck1g_D{-webkit-animation-fill-mode: backwards;animation-fill-mode: backwards;-webkit-transform: translate(459.5575256347656px, 199.1310577392578px) translate(-459.5575256347656px, -199.1310577392578px) translate(0px, 0px);transform: translate(459.5575256347656px, 199.1310577392578px) translate(-459.5575256347656px, -199.1310577392578px) translate(0px, 0px);-webkit-animation-timing-function: cubic-bezier(0, 0, 0.58, 1);animation-timing-function: cubic-bezier(0, 0, 0.58, 1);}#el_8UBvxhsLx:hover #el_QLdRXC9vI3q_an_uM9Ck1g_D{-webkit-animation-name: kf_el_QLdRXC9vI3q_an_uM9Ck1g_D;animation-name: kf_el_QLdRXC9vI3q_an_uM9Ck1g_D;}#el_-MQKz1RTaMf_an_9IRxfv2Qa{-webkit-animation-fill-mode: backwards;animation-fill-mode: backwards;-webkit-transform: translate(441.1630859375px, 216.204345703125px) rotate(0deg) translate(-441.1630859375px, -216.204345703125px);transform: translate(441.1630859375px, 216.204345703125px) rotate(0deg) translate(-441.1630859375px, -216.204345703125px);-webkit-animation-timing-function: cubic-bezier(0, 0, 1, 1);animation-timing-function: cubic-bezier(0, 0, 1, 1);}#el_8UBvxhsLx:hover #el_-MQKz1RTaMf_an_9IRxfv2Qa{-webkit-animation-name: kf_el_-MQKz1RTaMf_an_9IRxfv2Qa;animation-name: kf_el_-MQKz1RTaMf_an_9IRxfv2Qa;}#el_ti0_kFg8evY_an_NBn9kh9j-{-webkit-animation-fill-mode: backwards;animation-fill-mode: backwards;-webkit-transform: translate(435.97523498535156px, 393.45018005371094px) rotate(0deg) translate(-435.97523498535156px, -393.45018005371094px);transform: translate(435.97523498535156px, 393.45018005371094px) rotate(0deg) translate(-435.97523498535156px, -393.45018005371094px);-webkit-animation-timing-function: cubic-bezier(0.42, 0, 1, 1);animation-timing-function: cubic-bezier(0.42, 0, 1, 1);}#el_8UBvxhsLx:hover #el_ti0_kFg8evY_an_NBn9kh9j-{-webkit-animation-name: kf_el_ti0_kFg8evY_an_NBn9kh9j-;animation-name: kf_el_ti0_kFg8evY_an_NBn9kh9j-;}</style>

<g id="el_iR-JzdWyUV_an_pk8B2nBy2" data-animator-group="true" data-animator-type="1"><g id="el_iR-JzdWyUV">
	<path d="M523,78.6c-2.5-7.6-15.8-16.1-27.8-21.8c-1.6,0.6-3.3,0.9-5.3,1c-62.7,3-125.3-6.4-188-3.4&#10;&#9;&#9;c-2.7,0.1-5-0.3-7.1-1.1c-16.4,16.4-26.5,45.3-48.2,52.6c-68.5,23.1-36.7,171.6-36.7,171.6s-34.1,3.7-39.1,32.4&#10;&#9;&#9;c-10.2,58.6,76.9,49.5,76.9,49.5s14.3,49,22,73.4s39.3,67.5,39.3,67.5l1.9,7.7c2.6,2,4.6,5.2,5.2,9.7&#10;&#9;&#9;c4.1,29.6,32.6,185.5,105.5,166c27.1-7.2,48-57.2,57.3-104c6.5-32.9,1.7-66.7,13.7-72.4c1.4-0.7,2.5-35.6,3.9-35.9&#10;&#9;&#9;c5.3-14.5,31.3-6.5,45.8-51.9c13.2-41.3-10.3-146.4-10.3-146.4S524,81.7,523,78.6z" id="el__AVZcjgDvA"/>
	<g id="el_c38X_jDuiq">
		<path d="M279.4,567.3c17.3,55.4,8.7,106.2,57.5,144.4c31,24.3,60.2,45.3,100,37.7c29.4-5.6,37.6-25.8,54.7-49.7&#10;&#9;&#9;&#9;c28.2-39.3,35.4-83.1,46.2-130.8l-15.7-13c0,0-29.6,1.1-35-11.5c-13.1,8.9-8.3,123.6-71.5,145.4c-34.7,11.9-99.7-151.1-99.7-151.1&#10;&#9;&#9;&#9;l-38,25C278.5,564.8,279,566,279.4,567.3z" id="el_-RAVYe-Ls-"/>
	</g>
	<path d="M694.2,627.3L537.8,569c-5.7,23.5-19.5,77.1-28.2,99.7c-12.7,32.8-34.7,58.5-60.4,80.7&#10;&#9;&#9;c-46.3-0.5-113.6-37.9-122.2-46.5c-42.2-41.9-32.2-93.4-49-147.6l-172.1,75.4c69.6,164.6,231.9,168.2,327.7,134.9&#10;&#9;&#9;c-0.2-0.1-0.4-0.3-0.4-0.5C662.7,734.6,694.2,627.3,694.2,627.3z" id="el_Ra4WeILr_Y"/>
	<g id="el_cOtZFENSCm">
		<path d="M492.2,90.7l23.1,35.8c0,0,28.9-83.7-40.3-85s-87.3-7.9-87.3-7.9s-20-11.2-56.1-15.6&#10;&#9;&#9;&#9;c-21.9-2.7-73.5,20.2-73.5,20.2s-2.4,15.8-11,25.2s5.9,11.6-0.7,22.2s-9.2,21.1-22.4,25.4s-18.8,5.8-21,13.5&#10;&#9;&#9;&#9;c-9.8,34.4-7,153.1-7,153.1l34.8,6c0,0,1,41.6,21,28.5c19.9-13.1,7-61.7,7-61.7s13.1-45.7,16.4-52.7s14.7-18.9,17.4-32&#10;&#9;&#9;&#9;S267,139,277.2,127.1s19-26,42.2-29.3c23.1-3.3,41-7.1,41-7.1s0.8,12.5,18.8,8.4" id="el_kq-Adyd7oF"/>
	</g>
	<g id="el__oxYphCnTa">
		<g id="el_GuYjGdAJCA">
			<path d="M451.7,254.9c0,0,7.6-24.7,39.2-25.5c40.3-1,50.2,16.2,50.2,16.2s-3.9,22.3-44.5,23.4&#10;&#9;&#9;&#9;&#9;S451.7,254.9,451.7,254.9z" id="el_pVESBY_NzX"/>
			<g id="el_iflW6w6WnJ">
				<path d="M456.4,255.6c6.2-18.6,29.1-24.1,49.7-21.7c9.2,1.1,18.9,3.4,25.8,8.7c4.1,3.1,4,6.4,4.6,2.4&#10;&#9;&#9;&#9;&#9;&#9;c-1.9,13-21.7,18.5-34.5,19.8c-11.1,1.1-41.5,1.6-45.7-11.3c-1.6-4.9-10.6-2.1-9,2.7c5.6,17,39,17.8,55.2,16.4&#10;&#9;&#9;&#9;&#9;&#9;c14.3-1.2,44-10,43.3-26.3c-0.7-15.6-34.9-20.5-48-20.9c-23-0.5-44.2,9.2-50.7,28.7C445.4,259.1,454.7,260.6,456.4,255.6z" id="el_MWTCrjK41g"/>
			</g>
		</g>
		<path d="M503.8,228c0,0-14.4,10.1-10.7,24.1c2.9,11,17.8,14.6,17.8,14.6s14.1-2.7,20.2-8.2c8.8-8,9.7-13.7,9.7-13.7&#10;&#9;&#9;&#9;s-2.9-6.4-15.4-12C513.6,227.5,503.8,228,503.8,228z" id="el_35fCJ0760G"/>
	</g>
	<g id="el_CAnPQplFZe">
		<g id="el_5nnJGOq-zG">
			<path d="M307,258.8c0,0,7.6-24.7,39.2-25.5c40.3-1,50.2,16.2,50.2,16.2s-3.9,22.3-44.5,23.4&#10;&#9;&#9;&#9;&#9;C311.3,274.1,307,258.8,307,258.8z" id="el_HZu-VtRGoU9"/>
			<g id="el_E_SiTgVn6fj">
				<path d="M311.7,259.5c6.2-18.6,29.1-24.1,49.7-21.7c9.2,1.1,18.9,3.4,25.8,8.7c4.1,3.1,4,6.4,4.6,2.4&#10;&#9;&#9;&#9;&#9;&#9;c-1.9,13-21.7,18.5-34.5,19.8c-11.1,1.1-41.5,1.6-45.7-11.3c-1.6-4.9-10.6-2.1-9,2.7c5.6,17,39,17.8,55.2,16.4&#10;&#9;&#9;&#9;&#9;&#9;c14.3-1.2,44-10,43.3-26.3c-0.7-15.6-34.9-20.5-48-20.9c-23-0.5-44.2,9.2-50.7,28.7C300.8,263,310,264.4,311.7,259.5z" id="el_ufuSmEt7-xa"/>
			</g>
		</g>
		<path d="M359.1,231.9c0,0-14.4,10.1-10.7,24.1c2.9,11,17.8,14.6,17.8,14.6s14.1-2.7,20.2-8.2c8.8-8,9.7-13.7,9.7-13.7&#10;&#9;&#9;&#9;s-2.9-6.4-15.4-12C368.9,231.4,359.1,231.9,359.1,231.9z" id="el_0l3z8FmSD4r"/>
	</g>
	<g id="el_7OlPiBM5Nu5">
		<g id="el_yXJmpa5lLmd">
			<path d="M219.4,234.7c1.9,12.2,3.7,24.4,5.6,36.7c1.1,7,2.1,14,3.2,21c0.2,1.3,0.4,2.6,0.6,3.9&#10;&#9;&#9;&#9;&#9;c-0.4-2.5,0,0.2,0.2,1.1c0.3,1.4,0.7,2.8,1.1,4.2c2.9,8.1,10.3,15.6,19.7,13c7.2-1.9,9.9-10.5,11.4-16.9&#10;&#9;&#9;&#9;&#9;c2.4-10.9,3.7-23.4,2-34.6c-2.2-14.4-4.3-28.8-6.5-43.2c-2.1,2.1-4.1,4.1-6.2,6.2c4.4,1.8,10,0.5,13.5-2.6&#10;&#9;&#9;&#9;&#9;c3.6-3.1,5.5-7.8,6.4-12.4c1.2-6.2-0.1-13.2,2.3-19.1c3.3-8.1,12.2-10.9,19-15.3c8.8-5.7,10.4-13.3,7.1-23&#10;&#9;&#9;&#9;&#9;c-4.2-12.3-11.1-24.1-19.5-34.1c0.3,2,0.5,4.1,0.8,6.1c7.5-12.8,20.8-23.9,35-28.3c11.9-3.7,24.9-3.8,37.1-6.2&#10;&#9;&#9;&#9;&#9;c3.2-0.6,6.8-1.1,9.8-2.4c-1.6-0.4-3.3-0.9-4.9-1.3c4.9,6.2,13,11.1,21,10.2c9-1.1,18.3-6.8,25.6-11.9c5.3-3.7,0.3-12.4-5.1-8.7&#10;&#9;&#9;&#9;&#9;c-5.8,4-12.4,7.9-19.2,10c-6.1,1.9-11.6-2-15.3-6.7c-1-1.2-3.4-1.9-4.9-1.3c-3.6,1.5-7.8,2.1-11.6,2.8&#10;&#9;&#9;&#9;&#9;c-12.9,2.4-26.8,2.4-39.1,7.2c-15.1,5.8-29,17.6-37.2,31.6c-1.2,2.1-0.7,4.4,0.8,6.1c5.8,6.9,10.7,15.1,14.4,23.4&#10;&#9;&#9;&#9;&#9;c1.7,3.7,5.2,10,3.9,14.1c-0.6,1.9-3.2,3.5-5.1,4.7c-6.8,4.1-14.1,7.3-18.9,14c-2.7,3.8-4.2,8.1-4.8,12.7&#10;&#9;&#9;&#9;&#9;c-0.7,5.7,0.1,11.7-2.1,17.1c-0.5,1.3-1.3,2.7-2.2,3.5c-0.3,0.3-1.9,0.9-1.4,0.8c-0.5,0.1-1.1,0.1-1.6,0c-0.9-0.1,1,0.2-0.2,0&#10;&#9;&#9;&#9;&#9;c-0.4-0.1-0.7-0.2-1.1-0.3c-4-1.6-6.7,2.9-6.2,6.2c1.8,12,3.6,24.1,5.4,36.1c0.4,2.4,0.7,4.7,1.1,7.1c0.1,0.6,0.2,1.2,0.3,1.9&#10;&#9;&#9;&#9;&#9;c0.1,0.7,0.1-2-0.1-0.4c-0.6,5.4-0.1,11.2-0.6,16.7c-0.5,6.1-0.9,14.7-4.7,19.8c-1.1,1.4-2.6,1.8-4.9,0.4&#10;&#9;&#9;&#9;&#9;c-2.4-1.5-3.6-4.7-4.3-7.3c-0.3-0.9-0.4-1.9-0.6-2.9c0.1,0.6,0.2,1.5-0.1-0.6c-0.2-1.3-0.4-2.7-0.6-4c-0.9-6.3-1.9-12.5-2.8-18.8&#10;&#9;&#9;&#9;&#9;c-1.9-12.9-3.9-25.7-5.8-38.6C228.2,225.6,218.5,228.4,219.4,234.7L219.4,234.7z" id="el_p1S-IJdJMu3"/>
		</g>
	</g>
	<g id="el_Nw__hjOgZYS">
		<g id="el_zPXXc1LpnTE">
			<path d="M199.5,273.1c-1.7-15.9-2.7-31.9-3.3-47.9c-0.5-13.3-0.6-26.6,0-39.8c0.7-13.3,3-26,5.6-39&#10;&#9;&#9;&#9;&#9;c1.8-9.2,2.3-20.9,7.3-29.1c3.4-5.6,9.7-5.3,15.2-8c6.2-3.1,9.6-10.4,12.7-16.2c4.7-8.8,9.7-18.2,15.6-25.7&#10;&#9;&#9;&#9;&#9;c8.4-10.8,19.1-19.4,31.3-25.5c18.1-9,38.7-12.2,58.7-12.7c14.2-0.4,28.5,0.6,42.6,2.3c16,2,32.2,4.6,47.9,7.8&#10;&#9;&#9;&#9;&#9;c11,2.3,21.3,6.2,32.4,8c11.3,1.8,23.1,3.5,33.6,8.3c12.1,5.6,19.3,15.3,20.5,28.7c1.1,12.7-2.6,25.7-8,37.1c-1,2-2,4-3.1,5.9&#10;&#9;&#9;&#9;&#9;c2.6-0.3,5.3-0.7,7.9-1c-5.7-7.3-11.5-14.5-17.2-21.8c-3.6-4.5-7.2-9-10.7-13.6c-2.1-2.6-3-4.4-6.5-5.1c-7.9-1.4-16.1-2-24-2.9&#10;&#9;&#9;&#9;&#9;c-12.5-1.5-25-3-37.4-4.5c-7.8-0.9-15.5-1.8-23.4-2.3c-6.5-0.5-6.4,9.6,0,10.1c24.5,1.8,48.8,5.4,73.2,8.4&#10;&#9;&#9;&#9;&#9;c3.9,0.5,7.9,1,11.8,1.4c-1.2-0.5-2.4-1-3.6-1.5c10.3,13,20.5,25.9,30.8,38.9c2.1,2.6,6.4,1.5,7.9-1&#10;&#9;&#9;&#9;&#9;c11.5-19.2,18.2-46.9,7.2-67.6c-12-22.4-40.8-24.3-62.8-28.4c-5.5-1-10.6-2.9-16-4.4c-6.8-2-13.8-3.2-20.8-4.3&#10;&#9;&#9;&#9;&#9;c-17-2.7-33.8-5.9-51-7.4c-25.1-2.2-51.3-1.8-75.6,5.4C269.2,34.2,247.5,53,233,79.1c-2.3,4.1-4.3,8.3-6.6,12.3&#10;&#9;&#9;&#9;&#9;c-0.9,1.6-1.8,3.2-2.8,4.8c-0.3,0.4-1.4,2-1,1.5s-0.9,1-1.2,1.3c-0.4,0.5-1.7,1.5-0.5,0.6c-0.6,0.4-2.2,1.1-0.6,0.5&#10;&#9;&#9;&#9;&#9;c-3.3,1.2-6.8,1.8-10.1,3.3c-7.6,3.5-11.4,10.4-13.6,18.2c-3.6,12.9-6,26.6-8.1,39.8c-2.1,13.1-2.7,26.4-2.8,39.6&#10;&#9;&#9;&#9;&#9;c-0.2,22.7,1.1,45.4,3.3,68c0.1,1.3,0.3,2.7,0.4,4C190.1,279.5,200.2,279.6,199.5,273.1L199.5,273.1z" id="el_1QhXbcdeLqK"/>
		</g>
	</g>
	<g id="el_bLVMn7mjpQK_an_Y3yOoGg7V" data-animator-group="true" data-animator-type="0"><g id="el_bLVMn7mjpQK">
		<g id="el_UCLQIzARdIs">
			<path d="M321.4,216.3c0.5,0.1-1.4-0.4-1.9-0.5c-0.4-0.1,0.1-0.4,0.6,0.6c1,1.7,0.5,2.5,0.3,3.6c-0.1,0.5,0.3-0.2,0,0&#10;&#9;&#9;&#9;&#9;c4.3-2.4,8.6-3.9,13.7-4.9c21.4-4.4,44.4-2.1,65.6,2c6.3,1.2,9.1-8.5,2.7-9.7c-24.9-4.8-53.5-8.2-78.2-0.2&#10;&#9;&#9;&#9;&#9;c-4.7,1.5-11.7,4-13.2,9.4c-1.9,6.7,5.2,9.2,10.3,9.8C327.8,227.1,327.7,217,321.4,216.3L321.4,216.3z" id="el_SRDVEe9LDnm"/>
		</g>
	</g></g>
	<g id="el_QLdRXC9vI3q_an_uM9Ck1g_D" data-animator-group="true" data-animator-type="0"><g id="el_QLdRXC9vI3q">
		<g id="el_6qfP77yyBCs">
			<path d="M465.8,216.2c9.1-2.3,18.3-4.2,27.6-5.5c6.8-0.9,13.7-1.6,20.6-1.2c2.4,0.1,4.9,0.4,7.1,1.3&#10;&#9;&#9;&#9;&#9;c1.7,0.7,2.2,1.3,2.4,1.9c1.7,6.2,11.5,3.6,9.7-2.7c-3.8-13.8-25.8-11-36.2-9.8c-11.4,1.3-22.8,3.4-33.9,6.3&#10;&#9;&#9;&#9;&#9;C456.9,208.1,459.5,217.9,465.8,216.2L465.8,216.2z" id="el__tCBIl615qr"/>
		</g>
	</g></g>
	<g id="el_MWoNE3gO3q9">
		<g id="el_Vgp_LGDFLUH">
			<path d="M311,488.6c4.3,26.8,8.7,53.5,13,80.3c0.9,5.9,2.7,11.6,4.4,17.3c4.6,15.4,10.1,30.6,17,45.1&#10;&#9;&#9;&#9;&#9;c7.6,16,17.2,32.3,30.8,44c11.4,9.8,28.8,17.8,43.9,12.1c15.6-5.9,26.1-23.7,34-37.3c9.4-16,17.3-33,24.5-50.1&#10;&#9;&#9;&#9;&#9;c1.6-3.9,3.7-7.9,4.8-12c0.9-3.1,0.4-6.8,0.4-10c0-16.4,0-32.9,0-49.3c0-1.3,0-2.6,0-3.8c0-6.5-10.1-6.5-10.1,0c0,13,0,26,0,39&#10;&#9;&#9;&#9;&#9;c0,6.7-0.1,13.5,0,20.2c0,0.6,0,1.2,0,1.8c0,0.9,0.5-1.7,0.1-0.8c-0.6,1.2-0.9,2.4-1.4,3.6c-5.5,13.9-11.6,27.5-18.4,40.8&#10;&#9;&#9;&#9;&#9;c-7.9,15.4-16.8,32.5-30.2,44c-10.7,9.1-25.3,5.5-36.1-1.9c-13.7-9.4-23.1-24.7-30.6-39.2c-10.2-19.8-18.7-42-23.1-63.9&#10;&#9;&#9;&#9;&#9;c-5.2-26.4-8.6-53.2-12.9-79.8c-0.1-0.9-0.3-1.8-0.4-2.6C319.7,479.5,310,482.2,311,488.6L311,488.6z" id="el_5DQ9JlBI214"/>
		</g>
	</g>
	<g id="el_CfFJ8uSoP0D">
		<g id="el_NHvNwzvorIj">
			<path d="M318.2,540.1c-17.3,8.2-34.6,16.2-51.9,24.2c-32.3,14.9-64.7,29.6-97.5,43.3c-12.8,5.4-25.6,10.7-38.7,15.2&#10;&#9;&#9;&#9;&#9;c-4,1.4-8,2.7-12.1,3.6c-0.6,0.1-2.6,0.4-0.9,0.2c-0.5,0.1-1,0.1-1.5,0.1c-1.5,0.2-2.7,0.4-4,1.3c-5.4,3.6-3.5,11-1.5,15.9&#10;&#9;&#9;&#9;&#9;c3.5,8.7,9.1,16.4,14.8,23.8c18.7,24,42.8,43.9,68.3,60.3c36.1,23.2,76.8,39.2,118.9,47.1c52.7,9.9,107.4,7.3,159.7-3.3&#10;&#9;&#9;&#9;&#9;c43.3-8.8,85.5-24.1,123.7-46.6c26.7-15.7,51.5-34.9,72.9-57.3c10.7-11.2,20.9-23.2,29.1-36.3c0.4-0.6,0.7-1.2,1.1-1.8&#10;&#9;&#9;&#9;&#9;c1.8-3.1,0-6.2-3-7.4c-23.8-9.3-47.6-18.6-71.5-28c-38-14.9-76-29.7-113.9-44.6c-8.7-3.4-17.5-6.8-26.2-10.3&#10;&#9;&#9;&#9;&#9;c-6-2.4-8.7,7.4-2.7,9.7c23.8,9.3,47.6,18.6,71.5,28c38,14.9,76,29.7,113.9,44.6c8.7,3.4,17.5,6.8,26.2,10.3c-1-2.5-2-4.9-3-7.4&#10;&#9;&#9;&#9;&#9;c-5.2,9.1-11.1,16.2-17.6,23.9c-17.1,20-36.9,37.7-58.4,52.8c-32.5,22.8-68.7,39.8-106.7,51.2c-49.5,14.8-102.6,21.5-154.2,17.7&#10;&#9;&#9;&#9;&#9;c-44.7-3.2-88.8-15.3-128.6-35.9c-29.3-15.2-56.5-34.7-79.2-58.7c-7.5-8-14.6-16.3-20.4-25.6c-2-3.1-3.8-6.4-5.3-9.8&#10;&#9;&#9;&#9;&#9;c0.5,1.2-0.3-0.8-0.4-1.2c-0.2-0.6-0.4-1.2-0.6-1.9c-0.2-0.5-0.2-1-0.3-1.5c0.1,0.3,0.1,0.8,0-0.4c-0.1-0.9,0,0-0.2,0.1&#10;&#9;&#9;&#9;&#9;c-0.3,0.3-1.7,1.7-1.8,1.3c0-0.1-0.8,0.1,0,0c0.2,0,0.5,0,0.7-0.1c1-0.1,1.9-0.2,2.9-0.4c1.6-0.3,3.2-0.7,4.8-1.2&#10;&#9;&#9;&#9;&#9;c10.9-3.1,21.6-7.5,32.1-11.7c32-12.9,63.5-27.1,94.9-41.4c22.8-10.4,45.5-20.9,68.1-31.5c1.2-0.6,2.4-1.1,3.6-1.7&#10;&#9;&#9;&#9;&#9;C329.1,546,324,537.3,318.2,540.1L318.2,540.1z" id="el_SBmWPlW08jh"/>
		</g>
	</g>
	<g id="el_b5x47tZJLFe">
		<g id="el_G1vA__SfD9K">
			<path d="M192,299.7c11.6,11.2,23.2,22.4,34.8,33.6c4.7,4.5,11.8-2.6,7.1-7.1c-11.6-11.2-23.2-22.4-34.8-33.6&#10;&#9;&#9;&#9;&#9;C194.5,288.1,187.4,295.2,192,299.7L192,299.7z" id="el_QzmMYJ0-30E"/>
		</g>
	</g>
	<g id="el_Hooit_LNroh">
		<g id="el_4b_aFJsVHij">
			<path d="M212.4,294.8c-1.5,4-3,7.9-4.7,11.8c-2.3,5.3-4.5,11.8-8.3,16.2c-4.2,4.9,2.9,12.1,7.1,7.1&#10;&#9;&#9;&#9;&#9;c7.5-8.9,11.5-21.6,15.6-32.4C224.4,291.4,214.6,288.8,212.4,294.8L212.4,294.8z" id="el_Rr9PEYUaL7C"/>
		</g>
	</g>
	<g id="el__vaZYwh5Mdd">
		<g id="el_sB0PbWQPK_A">
			<path d="M197.9,278.2c10.1,1.3,20.1,2.6,30.2,4c5.7,0.7,6.7-8.4,1.3-9.9c-12-3.2-28.1-4.2-39.2,2.1&#10;&#9;&#9;&#9;&#9;c-10.8,6.1-17,18.8-18.3,30.8c-1.8,16.5,6.2,35.2,18.7,46.1c10.6,9.2,24.8,10.8,38.3,9c9-1.2,18-3.7,26.2-7.6c-2.5-1-4.9-2-7.4-3&#10;&#9;&#9;&#9;&#9;c5,26.8,11.2,53.5,19.3,79.6c2.7,8.6,5.6,17.1,9,25.4c2.8,6.6,5.6,13,10.4,18.4c9.8,11,24.2,17.6,37.8,22.8&#10;&#9;&#9;&#9;&#9;c22.9,8.7,47.5,13.8,71.8,16.7c1.7,0.2,0,0-0.2,0c1.5,0.3,2.9,0.5,4.4,0.8c5.9,1.1,11.9,2.2,17.8,3.3c10.7,2,21.3,4.3,32,5.9&#10;&#9;&#9;&#9;&#9;c15.3,2.4,31.6-4.4,42.6-14.7c9.8-9.3,22.5-30.5,6.4-40.6c0.3,2.6,0.7,5.3,1,7.9c5.6-4.3,10.2-10.2,14.3-15.9&#10;&#9;&#9;&#9;&#9;c9.8-13.6,16.3-29.7,19.3-46.1c5.5-30.1,3.8-61.7,1.9-92.1c-0.5-8.3-1.1-16.5-1.9-24.8c-0.6-6.4-10.7-6.5-10.1,0&#10;&#9;&#9;&#9;&#9;c2,20.4,3.1,41,3.3,61.5c0.4,31.4-0.5,64.1-17.9,91.5c-4.4,6.8-9.6,13.8-16.1,18.8c-2.7,2.1-1.4,6.4,1,7.9c0.6,0.4,0,0.1-0.3-0.2&#10;&#9;&#9;&#9;&#9;c0.5,0.4,1,0.8,1.4,1.4c0.7,0.9,1.6,2.9,1.6,4.8c0.2,9.5-10.1,19-17.3,23.7c-6.4,4.2-14,6.8-21.7,7.2c-1.8,0.1-3.6,0-5.4-0.1&#10;&#9;&#9;&#9;&#9;c-1.4,0,1.8,0.4-0.5-0.1c-10.9-2.4-22-4.1-32.9-6.1c-7.4-1.4-14.8-3.1-22.3-4c-0.8-0.1-1.7-0.2-2.5-0.3c-1.2-0.2,0.8,0.1,0,0&#10;&#9;&#9;&#9;&#9;c-0.4-0.1-0.7-0.1-1.1-0.2c-1.1-0.1-2.1-0.3-3.2-0.5c-5.1-0.8-10.2-1.6-15.3-2.6c-14-2.7-27.9-6.1-41.4-10.7&#10;&#9;&#9;&#9;&#9;c-12.8-4.4-26.4-10-36.4-19.3c-10.1-9.5-14.2-24.8-18.3-37.6c-8.9-27.5-15.5-56-20.8-84.4c-0.6-3.5-4.7-4.3-7.4-3&#10;&#9;&#9;&#9;&#9;c-0.4,0.2-0.7,0.3-1.1,0.5c1.1-0.4-0.2,0.1-0.6,0.2c-0.7,0.3-1.5,0.6-2.2,0.8c-3.8,1.4-7.7,2.6-11.7,3.5c-9.8,2.3-21,3.2-30.4-1&#10;&#9;&#9;&#9;&#9;c-12.5-5.6-21.2-21.8-22.2-35.1c-0.7-10.2,2.6-21.5,10.9-28.1c8.7-6.9,23.8-5.5,34-2.8c0.4-3.3,0.9-6.6,1.3-9.9&#10;&#9;&#9;&#9;&#9;c-10.1-1.3-20.1-2.6-30.2-4C191.5,267.2,191.5,277.3,197.9,278.2L197.9,278.2z" id="el_qsGclyyrYd-"/>
		</g>
	</g>
	<g id="el_-MQKz1RTaMf_an_9IRxfv2Qa" data-animator-group="true" data-animator-type="1"><g id="el_-MQKz1RTaMf">
		<path d="M419.7,226.3c0,11.4-12.5,114.3-12.5,114.3s72,28.5,67.9,8C471.4,329.8,419.7,194,419.7,226.3z" id="el_rYf0XYYiqaG"/>
		<g id="el_TOUZE-tsvzD">
			<path d="M414.7,226.3c-0.1,14.5-2.6,29.3-4.2,43.7c-2.2,19.2-4.4,38.4-6.7,57.5c-0.5,4.3-1,8.7-1.6,13&#10;&#9;&#9;&#9;&#9;c-0.3,2.3,1.8,4.1,3.7,4.9c14.5,5.7,29.5,10.8,44.8,13.8c7.4,1.5,17.8,3.8,24.8-0.5c6.1-3.7,5-10.3,3.4-16.1&#10;&#9;&#9;&#9;&#9;c-5-17.3-11.6-34.3-18.1-51.1c-7.5-19.4-15.2-39-24.6-57.6c-2.7-5.3-5.8-13-11-16.4C418.4,213.2,414.7,220.5,414.7,226.3&#10;&#9;&#9;&#9;&#9;c0,6.5,10,6.5,10.1,0c0-0.5,0-1.1,0.1-1.6c0.1-1.1,0-0.2,0-0.1c0-0.1,0.1-0.7,0.2-0.8c-0.6,0.9-0.6,1.6-2.1,2.3&#10;&#9;&#9;&#9;&#9;c-1.5,0.6-3.5,0.3-3.7-0.4c0.1,0.4,1.3,1.3,1.6,1.7c-0.7-0.9,0.7,1.1,1.1,1.6c0.8,1.2,1.5,2.5,2.2,3.7c1.6,2.9,3.2,5.9,4.6,8.9&#10;&#9;&#9;&#9;&#9;c8.1,16.7,15.1,34,21.8,51.3c6.2,15.9,12.2,31.8,17.3,48.1c0.7,2.3,1.4,4.6,2,7c0.1,0.4,0.6,2.3,0.4,1.6c0.2,0.8,0.1,0.8,0,0.6&#10;&#9;&#9;&#9;&#9;c0-0.1,0.4-0.2,0-0.1c0.6-0.2-0.9,0.3-1.3,0.5c-1.2,0.3-2.2,0.4-3.9,0.4c-3.8,0-7.6-0.6-11.4-1.3c-15.4-3-30.6-8.1-45.2-13.9&#10;&#9;&#9;&#9;&#9;c1.2,1.6,2.5,3.2,3.7,4.9c3.9-31.8,7.7-63.5,11-95.4c0.6-6.3,1.5-12.6,1.6-18.9C424.8,219.8,414.7,219.8,414.7,226.3z" id="el_gI5fr385cut"/>
		</g>
	</g></g>
	<g id="el_ti0_kFg8evY_an_NBn9kh9j-" data-animator-group="true" data-animator-type="1"><g id="el_ti0_kFg8evY">
		<g id="el_QB7FrmkOk6b">
			<path d="M375.6,382.5c9.7,11.3,22.7,20.9,36.5,26.5c22.7,9.2,47.7,1.9,68-10.1c5.6-3.3,11.2-7,15.9-11.5&#10;&#9;&#9;&#9;&#9;c4.8-4.4-2.4-11.5-7.1-7.1c-4.9,4.5-10.7,8.1-16.5,11.4c-12.3,6.9-27.4,12.6-41.8,11.6c-18.4-1.2-36.3-14.2-48-27.9&#10;&#9;&#9;&#9;&#9;C378.6,370.5,371.5,377.6,375.6,382.5L375.6,382.5z" id="el_SQBRA3A4yTv"/>
		</g>
	</g></g>
	<g id="el_Rmg3yNEQ9ed">
		<g id="el_Na7YNTqmMfS">
			<path d="M274.6,568.7c6.5,29.5,14.1,59,26.9,86.4c13.2,28.2,32.5,52,58.3,69.5c13.6,9.2,28.3,16.7,43.2,23.8&#10;&#9;&#9;&#9;&#9;c6.8,3.2,13.8,7.2,21.6,5.1c7-1.8,13.7-6.6,19.6-10.5c24.6-16.6,43.9-40.3,57.6-66.4c18.1-34.6,26.8-73,32.9-111.3&#10;&#9;&#9;&#9;&#9;c1-6.3-8.7-9.1-9.7-2.7c-9.5,59.5-26.4,122.7-74.5,163.1c-5.4,4.6-11.3,8.7-17.4,12.4c-2.7,1.6-5.4,3.2-8.2,4.5&#10;&#9;&#9;&#9;&#9;c-4.5,2.1-7.8,1.3-12.2-0.7c-13.9-6.3-27.7-13.3-40.6-21.3c-25.4-15.7-44.8-37-58.4-63.5c-14.6-28.5-22.5-59.9-29.4-91&#10;&#9;&#9;&#9;&#9;C282.9,559.7,273.2,562.3,274.6,568.7L274.6,568.7z" id="el_awAkjNkTwXp"/>
		</g>
	</g>
	<g id="el_3oAa6FNul6K">
		<g id="el_hXiKHE1y7Us">
			<path d="M246.2,582.4c8.5,16.9,11.3,35.7,15.5,54c3.8,16.3,9.4,32,17.7,46.5c15.7,27.6,39.3,50.4,66,67.3&#10;&#9;&#9;&#9;&#9;c29.2,18.4,65.4,34,99.9,22.6c33.8-11.1,56.9-40,73.4-70.2c10.2-18.7,19.5-38.2,27.8-57.8c8.4-20,14.9-40.8,15.8-62.6&#10;&#9;&#9;&#9;&#9;c0.3-6.5-9.8-6.5-10.1,0c-1.4,36.6-19.5,70.8-35.6,102.9c-15.1,30-34.1,60.2-65.7,74.9c-32.4,15-66.5,1.9-95.3-15.1&#10;&#9;&#9;&#9;&#9;c-26-15.4-49-36.5-64.9-62.3c-9.3-15.1-15.3-31.4-19.3-48.6c-4.4-19.2-7.6-38.6-16.6-56.4C252,571.5,243.3,576.6,246.2,582.4&#10;&#9;&#9;&#9;&#9;L246.2,582.4z" id="el_MEjNwEhtijX"/>
		</g>
	</g>
	<g id="el_fEUa501p_T_">
		<g id="el_vkH1xODuKes">
			<path d="M369.3,305.4c11.6-2.5,21.5-9.7,27.6-19.8c3.4-5.6-5.4-10.6-8.7-5.1c-4.9,8-12.4,13.3-21.6,15.2&#10;&#9;&#9;&#9;&#9;C360.3,297,363,306.7,369.3,305.4L369.3,305.4z" id="el_N8umd5ffw0Y"/>
		</g>
	</g>
	<g id="el_jTmcvfEr4rw">
		<g id="el_n7Pu47ZRpY1">
			<path d="M462.6,285.2c5.4,7,12.3,12,20.8,14.6c6.2,1.9,8.9-7.9,2.7-9.7c-5.8-1.7-11.1-5.1-14.8-10&#10;&#9;&#9;&#9;&#9;c-1.7-2.2-4.3-3.3-6.9-1.8C462.3,279.5,461,283,462.6,285.2L462.6,285.2z" id="el_ad4LraInlhR"/>
		</g>
	</g>
</g></g>
</svg>