<?xml version="1.0" encoding="utf-8"?>
<!-- Generator: Adobe Illustrator 22.1.0, SVG Export Plug-In . SVG Version: 6.00 Build 0)  -->
<svg height="80" version="1.1" id="Layer_1" xmlns="http://www.w3.org/2000/svg" xmlns:xlink="http://www.w3.org/1999/xlink" x="0px" y="0px"
	 viewBox="0 0 132.5 50" style="enable-background:new 0 0 132.5 50;" xml:space="preserve">
<style type="text/css">
	.st0{fill:#FFFFFF;}
</style>
<path class="st0" d="M45.5,32.2c0-0.1,0-0.2,0-0.3c-0.2-0.3-0.4-0.5-0.6-0.7c-1.6-1.6-3.1-3.1-4.7-4.7c-0.3-0.3-0.6-0.6-0.9-0.9
	c-0.4-0.5-0.4-1.1,0-1.6c0.2-0.2,0.4-0.5,0.7-0.7c2.3-2.3,4.5-4.6,6.8-6.8c0.3-0.3,0.6-0.6,0.9-0.8c0.4-0.3,0.9-0.3,1.3,0.1
	c0.4,0.4,0.9,0.8,1.3,1.3c0.3,0.3,0.3,0.8,0.1,1.1c-0.2,0.3-0.5,0.6-0.8,0.9c-1.4,1.4-2.7,2.7-4.1,4.1c-0.5,0.5-0.9,0.9-1.4,1.4
	c-0.2,0.2-0.2,0.4,0,0.6c0.2,0.3,0.5,0.5,0.8,0.8c1.6,1.6,3.1,3.1,4.7,4.7c0.3,0.3,0.6,0.6,0.8,0.9c0.3,0.4,0.3,0.8,0,1.1
	c-0.1,0.1-0.2,0.3-0.4,0.4c-1.8,1.8-3.6,3.6-5.4,5.4c-0.2,0.2-0.3,0.3-0.5,0.4c-0.3,0.2-0.7,0.2-1,0c-0.1-0.1-0.2-0.2-0.3-0.2
	c-0.2-0.2-0.5-0.4-0.7-0.7c-3.9-3.9-7.7-7.7-11.6-11.6c-0.2-0.2-0.5-0.5-0.7-0.7c-0.1-0.1-0.2-0.3-0.3-0.4c-0.2-0.3-0.2-0.7,0.1-1
	c0.2-0.3,0.5-0.5,0.8-0.8c1.9-2,3.9-3.9,5.8-5.9c2-2,4-4,5.9-5.9c0.3-0.3,0.6-0.6,0.9-0.8c0.3-0.3,0.8-0.3,1.2,0
	c0.5,0.4,0.9,0.9,1.4,1.4c0.3,0.3,0.3,0.7,0.1,1c-0.1,0.2-0.2,0.4-0.4,0.6c-0.2,0.3-10,9.8-10.8,10.7c-0.2,0.2-0.2,0.5,0,0.6
	c0.2,0.2,0.4,0.4,0.6,0.6c2.5,2.5,5.1,5.1,7.6,7.6c0.2,0.2,0.5,0.4,0.7,0.6c0.2,0.1,0.5,0.2,0.7,0c0.6-0.5,1.2-1,1.7-1.6
	C45.5,32.3,45.5,32.3,45.5,32.2z"/>
<path class="st0" d="M35.8,7.8c0-0.1-0.1-0.2-0.1-0.2C35.2,7,34.6,6.5,34,5.9c-0.2-0.2-0.4-0.1-0.6,0c-0.3,0.2-0.5,0.5-0.8,0.8
	c-1.6,1.6-3.2,3.2-4.8,4.8c-0.3,0.3-0.5,0.5-0.8,0.7c-0.3,0.3-0.8,0.2-1.2,0c-0.2-0.2-0.4-0.4-0.6-0.5c-2.5-2.5-4.9-4.9-7.4-7.4
	c-0.2-0.2-0.4-0.4-0.5-0.6c-0.3-0.3-0.3-0.8,0-1.2c0.4-0.5,0.9-0.9,1.4-1.4c0.3-0.3,0.8-0.3,1.2,0c0.3,0.2,0.6,0.5,0.8,0.7
	c1.6,1.6,3.2,3.2,4.8,4.8c0.3,0.3,0.5,0.5,0.8,0.8c0.2,0.2,0.4,0.2,0.6,0c0.3-0.3,0.6-0.6,0.9-0.8c1.5-1.5,3-3,4.5-4.5
	c0.3-0.3,0.5-0.5,0.8-0.8c0.5-0.4,1-0.4,1.5,0c0.1,0.1,0.3,0.2,0.4,0.4c1.7,1.7,3.4,3.4,5.1,5.1c0.2,0.2,0.4,0.4,0.5,0.6
	c0.2,0.3,0.2,0.8,0,1C40.3,8.7,40,9,39.7,9.3c-4,4-7.9,7.9-11.9,11.9c-0.1,0.1-0.3,0.3-0.4,0.4c-0.6,0.6-1.1,0.8-1.9,0
	c-0.2-0.2-0.4-0.4-0.6-0.6c-3.9-3.9-7.8-7.8-11.7-11.7c-0.3-0.3-0.6-0.6-0.8-0.9c-0.2-0.3-0.2-0.8,0-1c0.4-0.6,0.9-1.1,1.6-1.5
	c0.2-0.2,0.5-0.1,0.8,0c0.2,0.1,0.4,0.3,0.5,0.4c0.4,0.4,10,9.8,10.4,10.2c0.2,0.2,0.4,0.4,0.6,0.5c0.1,0.1,0.4,0.1,0.5,0
	c0.2-0.2,0.4-0.4,0.6-0.6c2.6-2.6,5.2-5.2,7.8-7.8c0.2-0.2,0.4-0.4,0.5-0.6C35.8,8,35.8,7.9,35.8,7.8z"/>
<path class="st0" d="M9.5,10.6c0.2,0.1,0.4,0.1,0.6,0.2c0.2,0.2,0.4,0.4,0.6,0.5c4.1,4.1,8.3,8.3,12.4,12.4c1,1,1,1.2,0,2.1
	C20,29,17,32,13.9,35.1c-1.1,1.1-2.1,2.1-3.2,3.2c-0.2,0.2-0.5,0.4-0.7,0.6c-0.3,0.2-0.8,0.2-1,0c-0.5-0.5-1-1-1.5-1.5
	c-0.2-0.2-0.2-0.6,0-0.9c0.3-0.3,0.5-0.6,0.8-0.9c3.2-3.2,6.3-6.3,9.5-9.5c0.3-0.3,0.6-0.6,0.9-0.9c0.2-0.3,0.2-0.6,0-0.9
	c-0.1-0.1-0.2-0.3-0.4-0.4c-2.6-2.6-5.3-5.3-7.9-7.9c-0.2-0.2-0.3-0.3-0.5-0.5c-0.2-0.2-0.4-0.2-0.6,0C9,15.7,8.9,15.8,8.8,16
	c-0.3,0.3-0.7,0.6-1,1c-0.5,0.6-0.4,0.8,0.1,1.3c1.7,1.7,3.4,3.4,5.2,5.2c0.3,0.3,0.6,0.6,0.9,0.9c0.3,0.3,0.3,0.8,0,1.1
	c-0.1,0.2-0.3,0.3-0.5,0.5c-2.5,2.5-5,5-7.5,7.5c-0.2,0.2-0.5,0.4-0.7,0.6c-0.3,0.2-0.8,0.2-1,0c-0.5-0.4-0.9-0.9-1.4-1.4
	c-0.3-0.3-0.2-0.8,0-1.2C3,31.3,3.2,31,3.5,30.8c1.5-1.5,3-3,4.5-4.5c0.3-0.3,0.5-0.5,0.8-0.8c0.5-0.5,0.5-0.7,0-1.3
	C8.5,24,8.3,23.7,8,23.5c-1.5-1.5-3-3-4.5-4.5c-0.3-0.3-0.5-0.5-0.8-0.8c-0.3-0.4-0.3-0.9,0-1.3c0.1-0.2,0.3-0.4,0.5-0.5
	c1.7-1.7,3.4-3.4,5.2-5.2c0.2-0.2,0.3-0.3,0.5-0.4C9.1,10.7,9.2,10.7,9.5,10.6z"/>
<path class="st0" d="M17.1,41.9c0,0.1,0.1,0.2,0.1,0.2c0.5,0.6,1.1,1.1,1.7,1.7c0.2,0.2,0.4,0.1,0.6,0c0.3-0.2,0.5-0.5,0.8-0.8
	c1.6-1.6,3.2-3.2,4.8-4.8c0.3-0.3,0.5-0.5,0.8-0.7c0.3-0.3,0.8-0.2,1.2,0c0.2,0.2,0.4,0.4,0.6,0.5c2.5,2.5,4.9,4.9,7.4,7.4
	c0.2,0.2,0.4,0.4,0.5,0.6c0.3,0.3,0.3,0.8,0,1.2c-0.4,0.5-0.9,0.9-1.4,1.4c-0.3,0.3-0.8,0.3-1.2,0c-0.3-0.2-0.6-0.5-0.8-0.7
	c-1.6-1.6-3.2-3.2-4.8-4.8c-0.3-0.3-0.5-0.5-0.8-0.8c-0.2-0.2-0.4-0.2-0.6,0c-0.3,0.3-0.6,0.6-0.9,0.8c-1.5,1.5-3,3-4.5,4.5
	c-0.3,0.3-0.5,0.5-0.8,0.8c-0.5,0.4-1,0.4-1.5,0c-0.1-0.1-0.3-0.2-0.4-0.4c-1.7-1.7-3.4-3.4-5.1-5.1c-0.2-0.2-0.4-0.4-0.5-0.6
	c-0.2-0.3-0.2-0.8,0-1c0.3-0.3,0.5-0.6,0.8-0.9c4-4,7.9-7.9,11.9-11.9c0.1-0.1,0.3-0.3,0.4-0.4c0.6-0.6,1.1-0.8,1.9,0
	c0.2,0.2,0.4,0.4,0.6,0.6c3.9,3.9,7.8,7.8,11.7,11.7c0.3,0.3,0.6,0.6,0.8,0.9c0.2,0.3,0.2,0.8,0,1c-0.4,0.6-0.9,1.1-1.6,1.5
	c-0.2,0.2-0.5,0.1-0.8,0c-0.2-0.1-0.4-0.3-0.5-0.4c-0.4-0.4-10.8-10.6-11-10.8c-0.1-0.1-0.4-0.1-0.5,0c-0.2,0.2-0.4,0.4-0.6,0.6
	c-2.6,2.6-5.2,5.2-7.8,7.8c-0.2,0.2-0.4,0.4-0.5,0.6C17.1,41.7,17.1,41.8,17.1,41.9z"/>
<g>
	<path class="st0" d="M59.6,38c-0.2-0.2-0.2-0.4-0.2-0.6l0-25.8c0-0.3,0.1-0.5,0.2-0.6c0.2-0.2,0.4-0.3,0.6-0.3h1.9
		c0.3,0,0.5,0.1,0.6,0.3c0.2,0.2,0.2,0.4,0.2,0.6l0,23.4h10.4c0.3,0,0.5,0.1,0.7,0.3c0.2,0.2,0.3,0.4,0.3,0.6v1.5
		c0,0.3-0.1,0.5-0.3,0.6c-0.2,0.2-0.4,0.3-0.7,0.3H60.3C60,38.3,59.8,38.2,59.6,38z"/>
	<path class="st0" d="M78.1,36.3c-1.3-1.6-2-3.7-2-6.4V18.8c0-0.3,0.1-0.5,0.3-0.6c0.2-0.2,0.4-0.3,0.6-0.3h1.8
		c0.3,0,0.5,0.1,0.6,0.3c0.2,0.2,0.3,0.4,0.3,0.6v10.9c0,4,1.7,6,5.1,6c1.7,0,3-0.5,3.9-1.6c1-1.1,1.5-2.5,1.5-4.4V18.8
		c0-0.3,0.1-0.5,0.3-0.6c0.2-0.2,0.4-0.3,0.6-0.3h1.8c0.3,0,0.5,0.1,0.6,0.3c0.2,0.2,0.3,0.4,0.3,0.6v18.6c0,0.3-0.1,0.5-0.3,0.6
		c-0.2,0.2-0.4,0.3-0.6,0.3h-1.7c-0.3,0-0.5-0.1-0.6-0.3c-0.2-0.2-0.3-0.4-0.3-0.6v-1.8c-0.8,1-1.6,1.8-2.6,2.3
		c-1,0.5-2.3,0.8-3.8,0.8C81.3,38.7,79.4,37.9,78.1,36.3z"/>
	<path class="st0" d="M97.4,38c-0.2-0.2-0.3-0.4-0.3-0.6l0-25.9c0-0.3,0.1-0.5,0.3-0.7c0.2-0.2,0.4-0.2,0.6-0.2h1.7
		c0.3,0,0.5,0.1,0.6,0.3c0.2,0.2,0.3,0.4,0.3,0.6l0,13.5l7.8-6.5c0.4-0.3,0.7-0.5,0.8-0.5c0.2-0.1,0.4-0.1,0.7-0.1h1.9
		c0.2,0,0.4,0.1,0.6,0.2c0.1,0.1,0.2,0.3,0.2,0.6c0,0.2-0.1,0.5-0.4,0.7l-9.1,7.5l10.1,9.7c0.3,0.3,0.4,0.5,0.4,0.7
		c0,0.2-0.1,0.4-0.2,0.6c-0.1,0.2-0.3,0.2-0.6,0.2h-1.9c-0.4,0-0.7,0-0.8-0.1c-0.2-0.1-0.4-0.3-0.7-0.5l-8.8-8.4v8.2
		c0,0.3-0.1,0.5-0.3,0.6c-0.2,0.2-0.4,0.3-0.6,0.3H98C97.8,38.3,97.6,38.2,97.4,38z"/>
	<path class="st0" d="M116.9,37.9c-1.1-0.5-1.9-1.2-2.6-2.1c-0.6-0.9-1-1.9-1-3c0-1.7,0.7-3.1,2.1-4.2c1.4-1.1,3.3-1.8,5.7-2.2
		l5.8-0.8v-1.1c0-2.7-1.5-4-4.6-4c-1.2,0-2.1,0.2-2.9,0.7c-0.7,0.5-1.3,1.1-1.6,1.7c-0.1,0.3-0.2,0.4-0.3,0.5
		c-0.1,0.1-0.3,0.1-0.5,0.1h-1.5c-0.2,0-0.4-0.1-0.6-0.3c-0.2-0.2-0.3-0.4-0.3-0.6c0-0.6,0.3-1.3,0.8-2.1c0.6-0.8,1.4-1.5,2.6-2.1
		c1.2-0.6,2.6-0.9,4.3-0.9c2.9,0,5,0.7,6.2,2c1.3,1.4,1.9,3.1,1.9,5.1v12.7c0,0.3-0.1,0.5-0.3,0.6c-0.2,0.2-0.4,0.3-0.6,0.3h-1.7
		c-0.3,0-0.5-0.1-0.6-0.3c-0.2-0.2-0.2-0.4-0.2-0.6v-1.7c-0.6,0.9-1.4,1.6-2.5,2.2c-1.1,0.6-2.5,0.9-4.2,0.9
		C119.1,38.7,118,38.4,116.9,37.9z M125.4,34.1c1.1-1.1,1.6-2.8,1.6-4.9v-1.1l-4.5,0.7c-1.9,0.3-3.3,0.7-4.2,1.3
		c-1,0.6-1.4,1.4-1.4,2.4c0,1.1,0.4,1.9,1.3,2.5c0.9,0.6,1.9,0.9,3.1,0.9C122.9,35.8,124.3,35.2,125.4,34.1z"/>
</g>
</svg>
