<?xml version="1.0" encoding="utf-8"?>
<!-- Generator: Adobe Illustrator 22.1.0, SVG Export Plug-In . SVG Version: 6.00 Build 0)  -->
<svg version="1.1" id="Capa_1" xmlns="http://www.w3.org/2000/svg" xmlns:xlink="http://www.w3.org/1999/xlink" x="0px" y="0px"
	 viewBox="0 0 262 50" style="enable-background:new 0 0 262 50;" xml:space="preserve">
<style type="text/css">
	.st0{opacity:0.9;}
	.st1{fill:#FFFFFF;}
</style>
<g id="JZHbhc.tif" class="st0">
	<g>
		<path class="st1" d="M111.2,36.5c0,3.6,0,7.1,0,10.7c0,0.3-0.1,0.4-0.4,0.4c-1.3,0-2.5,0-3.8,0c-0.3,0-0.4-0.2-0.5-0.4
			c-1-1.5-2.1-3-3.1-4.5c-1.6-2.4-3.3-4.7-4.9-7.1c-1-1.4-1.9-2.8-2.9-4.1c-0.1-0.1-0.2-0.2-0.3-0.2c0,0.1-0.1,0.2-0.1,0.4
			c0,5.1,0,10.3,0,15.4c0,0.4,0,0.5-0.4,0.5c-1,0-2.1,0-3.1,0c-0.3,0-0.4-0.1-0.4-0.4c0-7.1,0-14.1,0-21.2c0-0.6,0-0.7,0.6-0.7
			c1.1,0,2.3,0,3.4,0c0.3,0,0.6,0.1,0.7,0.4c0.8,1.1,1.5,2.2,2.3,3.3c1.3,1.9,2.6,3.8,3.9,5.6c1.5,2.2,3.1,4.5,4.6,6.7
			c0.1,0.1,0.2,0.1,0.2,0.2c0-0.1,0.1-0.2,0.1-0.3c0-2.3,0-4.6,0-6.9c0-2.8,0-5.5,0-8.3c0-0.6,0-0.6,0.6-0.6c1,0,1.9,0,2.9,0
			c0.5,0,0.5,0,0.5,0.5c0,2.9,0,5.9,0,8.8C111.2,35.3,111.2,35.9,111.2,36.5L111.2,36.5z"/>
		<path class="st1" d="M56.9,36.5c0-3.5,0-7.1,0-10.6c0-0.5,0.1-0.6,0.6-0.6c4.4,0,8.8,0,13.2,0c0.5,0,0.6,0,0.6,0.5
			c0,0.9,0,1.7,0,2.6c0,0.4-0.1,0.5-0.5,0.5c-3.1,0-6.2,0-9.3,0c-0.6,0-0.6,0-0.6,0.6c0,1.5,0,3,0,4.5c0,0.4,0.1,0.5,0.5,0.5
			c2.7,0,5.3,0,8,0c0.5,0,0.5,0,0.5,0.5c0,0.9,0,1.9,0,2.8c0,0.4,0,0.5-0.5,0.5c-2.6,0-5.3,0-7.9,0c-0.5,0-0.5,0-0.5,0.5
			c0,2.8,0,5.5,0,8.3c0,0.3-0.1,0.4-0.4,0.4c-1.1,0-2.2,0-3.2,0c-0.3,0-0.4-0.1-0.4-0.4C56.9,43.6,56.9,40.1,56.9,36.5L56.9,36.5z"
			/>
		<path class="st1" d="M204.6,36.5c0,3.6,0,7.1,0,10.7c0,0.3-0.1,0.4-0.3,0.4c-0.6,0-1.1,0-1.7,0c-0.3,0-0.4-0.1-0.4-0.4
			c0-3,0-6,0-9c0-0.6,0-0.6-0.6-0.6c-3.5,0-7.1,0-10.6,0c-0.6,0-0.6,0-0.6,0.6c0,3,0,6,0,9c0,0.3-0.1,0.4-0.4,0.4
			c-0.5,0-1.1,0-1.6,0c-0.3,0-0.4-0.1-0.4-0.4c0-7.1,0-14.1,0-21.2c0-0.6,0-0.6,0.6-0.6c0.4,0,0.9,0,1.3,0c0.4,0,0.5,0,0.5,0.5
			c0,2,0,4.1,0,6.1c0,1,0,2,0,3c0,0.3,0.1,0.4,0.4,0.4c3.7,0,7.4,0,11,0c0.3,0,0.4-0.1,0.4-0.4c0-3,0-6,0-9c0-0.5,0.1-0.5,0.5-0.5
			c0.5,0,1,0,1.5,0c0.3,0,0.4,0.1,0.4,0.4c0,0.2,0,0.4,0,0.6C204.6,29.8,204.6,33.1,204.6,36.5L204.6,36.5z"/>
		<path class="st1" d="M142.1,36.5c0-3.5,0-7.1,0-10.6c0-0.4,0.1-0.5,0.5-0.5c4.3,0,8.6,0,12.9,0c0.5,0,0.6,0.1,0.6,0.6
			c0,0.4,0,0.8,0,1.2c0,0.4-0.1,0.5-0.5,0.5c-0.8,0-1.7,0-2.5,0c-2.7,0-5.4,0-8.1,0c-0.5,0-0.6,0-0.6,0.6c0,2.2,0,4.4,0,6.6
			c0,0.4,0,0.5,0.5,0.5c3.1,0,6.1,0,9.2,0c0.5,0,0.5,0,0.5,0.5c0,0.4,0,0.9,0,1.3c0,0.4,0,0.5-0.5,0.5c-3.1,0-6.1,0-9.2,0
			c-0.6,0-0.6,0-0.6,0.6c0,2.2,0,4.4,0,6.6c0,0.5,0,0.5,0.5,0.5c3.5,0,7,0,10.5,0c0.1,0,0.2,0,0.4,0s0.3,0.1,0.3,0.3
			c0,0.5,0,1.1,0,1.6c0,0.1-0.2,0.2-0.3,0.3s-0.2,0-0.4,0c-4.3,0-8.5,0-12.8,0c-0.6,0-0.6,0-0.6-0.6C142.1,43.5,142.1,40,142.1,36.5
			L142.1,36.5z"/>
		<path class="st1" d="M165.4,36.5c0,1.5,0.1,2.9,0.5,4.3c0.5,1.6,1.4,2.9,2.8,3.7c1.3,0.7,2.7,1,4.1,1c1.8,0.1,3.6-0.1,5.3-0.6
			c0.5-0.1,1-0.3,1.5-0.5c0.3-0.1,0.4,0,0.4,0.3c0,0.5,0,1.1,0,1.6c0,0.3-0.2,0.4-0.4,0.5c-0.6,0.2-1.2,0.4-1.8,0.6
			c-2.1,0.5-4.3,0.7-6.5,0.4c-1.4-0.2-2.7-0.5-3.9-1.2c-1.1-0.6-2-1.5-2.7-2.6c-0.6-1-1.1-2.1-1.3-3.3c-0.2-1-0.3-2-0.4-3
			c-0.1-1.6,0-3.3,0.3-4.9c0.2-1,0.5-2,1-2.9c0.5-1.1,1.2-2,2.2-2.7s2-1.2,3.2-1.5c1.6-0.4,3.3-0.5,5-0.4c1.4,0.1,2.8,0.4,4.2,0.9
			c0.3,0.1,0.6,0.2,0.8,0.3c0.1,0.1,0.2,0.2,0.2,0.3c0,0.5,0,1.1,0,1.7c0,0.3-0.1,0.3-0.5,0.2c-0.8-0.3-1.6-0.6-2.5-0.8
			c-1.6-0.4-3.2-0.6-4.8-0.3c-0.8,0.1-1.5,0.2-2.3,0.4c-1.2,0.4-2.3,1.1-3.1,2.2c-0.7,1-1.1,2.1-1.3,3.3
			C165.6,34.4,165.5,35.4,165.4,36.5L165.4,36.5z"/>
		<path class="st1" d="M125.4,37.7c0-3.2,0-6.3,0-9.5c0-0.5,0-0.5-0.5-0.5c-2.3,0-4.6,0-6.9,0c-0.4,0-0.5-0.1-0.5-0.4
			c0-0.5,0-1,0-1.5c0-0.3,0.1-0.4,0.4-0.4c5.7,0,11.5,0,17.2,0c0.4,0,0.4,0.1,0.4,0.4c0,0.5,0,0.9,0,1.4c0,0.4-0.1,0.5-0.5,0.5
			c-2.3,0-4.5,0-6.8,0c-0.5,0-0.5,0.1-0.5,0.5c0,6.1,0,12.3,0,18.4c0,0.1,0,0.3,0,0.4c0,0.6,0,0.6-0.6,0.6c-0.5,0-0.9,0-1.4,0
			c-0.3,0-0.4-0.1-0.4-0.4C125.4,44,125.4,40.8,125.4,37.7L125.4,37.7z"/>
		<path class="st1" d="M78.4,36.5c0-3.5,0-7.1,0-10.6c0-0.5,0-0.6,0.6-0.6c0.9,0,1.9,0,2.8,0c0.6,0,0.6,0,0.6,0.6
			c0,6.9,0,13.8,0,20.7c0,0.9,0.2,0.9-0.9,0.9c-0.9,0-1.8,0-2.7,0c-0.3,0-0.4-0.1-0.4-0.4C78.4,43.6,78.4,40.1,78.4,36.5L78.4,36.5z
			"/>
		<path class="st1" d="M146.3,6c-0.2,0.4-0.4,0.8-0.5,1.2c-0.5,1.2-1,2.4-1.5,3.5c0,0.1-0.2,0.2-0.3,0.2c-0.2,0-0.4,0-0.6,0
			c-0.6,0.1-0.9-0.1-1.1-0.7C141.9,9.1,141.4,8,141,7c-0.2-0.4-0.3-0.7-0.5-1.1h-0.1c0,0.1-0.1,0.2-0.1,0.3
			c-0.1,1.8-0.2,3.7-0.3,5.5c0,0.2-0.1,0.4-0.3,0.3c-0.5,0-1,0-1.5,0c-0.2,0-0.3-0.1-0.3-0.3c0.1-2.1,0.3-4.2,0.4-6.3
			c0.1-0.9,0.2-1.8,0.3-2.7c0-0.4,0.2-0.5,0.5-0.5c0.4,0,0.9,0,1.3,0c0.3,0,0.5,0.1,0.6,0.3c0.4,0.9,0.9,1.9,1.3,2.8
			c0.4,0.8,0.7,1.6,1,2.4c0.1,0.1,0.2,0.2,0.3,0.1s0.1-0.1,0.1-0.2c0.4-0.8,0.7-1.7,1.1-2.5c0.4-0.9,0.8-1.8,1.3-2.6
			c0.1-0.1,0.3-0.2,0.4-0.3c0.4,0,0.8,0,1.2,0s0.5,0.1,0.6,0.5c0.1,1.2,0.2,2.5,0.3,3.7c0.1,1.8,0.2,3.5,0.4,5.3
			c0,0.2-0.1,0.3-0.3,0.3c-0.5,0-1.1,0-1.6,0c-0.2,0-0.3-0.1-0.3-0.3c-0.1-1.8-0.2-3.7-0.3-5.5c0-0.1,0-0.2-0.1-0.4
			C146.3,6,146.3,6,146.3,6z"/>
		<path class="st1" d="M161.1,7.3c0-1.5,0-2.9,0-4.4c0-0.2,0.1-0.4,0.3-0.4c1.6-0.3,3.3-0.4,4.9,0c1.1,0.3,1.9,1,2.1,2.2
			c0.1,0.8-0.2,1.4-0.8,1.9c-0.3,0.2-0.3,0.3,0,0.4c1,0.5,1.3,1.3,1.2,2.3c0,1.1-0.5,2-1.5,2.4c-0.5,0.2-1.1,0.4-1.7,0.5
			c-1.4,0.2-2.8,0.1-4.1-0.1c-0.3,0-0.4-0.2-0.4-0.5C161.1,10.2,161.1,8.7,161.1,7.3z M163.3,9.2c0,0.3,0,0.6,0,0.9
			c0,0.3,0.1,0.4,0.4,0.4c0.6,0,1.2,0,1.7,0c0.5-0.1,1-0.2,1.2-0.7c0.4-0.9-0.1-1.6-1-1.7C165,8,164.3,8,163.7,8
			c-0.2,0-0.4,0.1-0.3,0.4C163.3,8.6,163.3,8.9,163.3,9.2z M163.3,5.2L163.3,5.2c0,0.3,0,0.5,0,0.8c0,0.1,0.1,0.3,0.2,0.3
			c0.8,0,1.5,0.1,2.2-0.2c0.3-0.2,0.5-0.5,0.5-0.9s-0.2-0.7-0.6-0.8c-0.6-0.4-1.3-0.4-2-0.3c-0.2,0-0.3,0.2-0.3,0.4
			C163.3,4.7,163.3,4.9,163.3,5.2z"/>
		<path class="st1" d="M86.3,7.3c0,1.1-0.2,2.1-0.7,3c-0.6,1-1.5,1.6-2.6,1.9c-1,0.3-2.1,0.3-3.1,0c-1.3-0.4-2.3-1.2-2.8-2.4
			c-0.6-1.3-0.7-2.7-0.3-4.2c0.3-1.2,1-2.1,2-2.8c0.8-0.5,1.7-0.7,2.6-0.7c1.2,0,2.4,0.3,3.3,1.1c0.7,0.6,1.2,1.3,1.4,2.3
			C86.2,6.1,86.3,6.7,86.3,7.3C86.4,7.3,86.4,7.3,86.3,7.3z M81.4,10.5c1.2,0,2.2-0.8,2.5-2c0.3-1.1,0.2-2.1-0.3-3.1
			c-0.3-0.5-0.7-0.9-1.2-1.1c-1.5-0.5-2.8,0.2-3.3,1.6c-0.4,1.1-0.4,2.2,0.2,3.3C79.7,10,80.4,10.5,81.4,10.5z"/>
		<path class="st1" d="M126,7.3c-0.1,1.4-0.4,2.6-1.3,3.7c-0.6,0.6-1.3,1-2.1,1.3c-1,0.3-2.1,0.3-3.1,0c-1.3-0.4-2.3-1.2-2.8-2.4
			c-0.6-1.2-0.7-2.5-0.4-3.7c0.2-1.4,0.9-2.5,2.1-3.3c0.8-0.5,1.7-0.7,2.6-0.7c1.2,0,2.4,0.3,3.3,1.1c0.7,0.6,1.2,1.3,1.4,2.2
			C125.8,6.1,125.9,6.7,126,7.3z M121,10.5c1.1,0,2.1-0.8,2.4-1.9c0.3-0.9,0.3-1.8,0-2.6c-0.2-0.8-0.7-1.4-1.5-1.7
			c-1.6-0.6-2.9,0.2-3.4,1.7c-0.3,0.9-0.3,1.7,0,2.6C118.9,9.7,119.9,10.5,121,10.5z"/>
		<path class="st1" d="M204,12.3c-0.2,0-0.4,0-0.6,0c-0.6,0-0.6,0-0.7-0.5c-0.1-0.4-0.2-0.7-0.3-1.1c-0.1-0.4-0.3-0.5-0.7-0.5
			c-1,0-1.9,0-2.9,0c-0.4,0-0.5,0.1-0.7,0.5c-0.2,0.5-0.3,1-0.5,1.4c0,0.1-0.2,0.2-0.3,0.2c-0.6,0-1.1,0-1.7,0
			c-0.3,0-0.3-0.1-0.3-0.4c0.3-0.8,0.6-1.6,0.9-2.4c0.3-0.8,0.6-1.6,0.9-2.4c0.4-1.1,0.9-2.2,1.4-3.3c0.2-0.4,0.4-0.8,0.6-1.2
			c0.1-0.1,0.3-0.2,0.4-0.3c0.5,0,1,0,1.5,0c0.1,0,0.3,0.1,0.4,0.3c0.3,0.7,0.6,1.3,0.9,2c0.3,0.7,0.6,1.4,0.9,2.1
			c0.4,1,0.8,2,1.1,3c0.2,0.6,0.4,1.2,0.6,1.8c0,0.1,0.1,0.2,0.1,0.3c0.1,0.2,0,0.3-0.2,0.3C204.6,12.3,204.3,12.3,204,12.3
			L204,12.3z M200.2,4.8C200.1,4.9,200,5,200,5.1c-0.4,1-0.7,1.9-1.1,2.9c-0.1,0.2,0,0.3,0.2,0.3c0.7,0,1.5,0,2.2,0
			c0.2,0,0.3-0.1,0.2-0.3c-0.3-0.9-0.7-1.8-1-2.6C200.4,5.2,200.3,5,200.2,4.8z"/>
		<path class="st1" d="M57.2,7.4c0-1.4,0.3-2.7,1.2-3.7c0.7-0.8,1.7-1.3,2.7-1.5c1.1-0.2,2.2-0.1,3.3,0.3c0.2,0.1,0.4,0.2,0.6,0.3
			s0.2,0.3,0.1,0.5c-0.1,0.4-0.3,0.8-0.5,1.2c-0.1,0.2-0.2,0.2-0.4,0.2c-0.6-0.3-1.2-0.4-1.8-0.4c-0.6-0.1-1.2,0-1.8,0.3
			s-0.9,0.8-1.1,1.3c-0.3,0.9-0.3,1.9,0,2.8c0.4,1.2,0.9,1.7,2.3,1.9c0.9,0.1,1.7,0,2.5-0.4c0.2-0.1,0.4,0,0.5,0.2
			c0.1,0.4,0.3,0.8,0.4,1.2c0,0.1,0,0.3-0.1,0.3c-0.3,0.2-0.7,0.3-1.1,0.4c-1.3,0.3-2.6,0.4-3.9,0c-1.2-0.4-2.1-1.1-2.6-2.3
			C57.4,9.1,57.2,8.2,57.2,7.4z"/>
		<path class="st1" d="M98.5,7.4c0-1.5,0-3,0-4.5c0-0.5,0.1-0.5,0.5-0.5s0.8,0,1.2,0c0.4,0,0.5,0.1,0.5,0.5c0,2.3,0,4.6,0,6.9
			c0,0.5,0.1,0.6,0.6,0.6c1.1,0,2.2,0,3.4,0c0.4,0,0.5,0.1,0.5,0.5s0,0.7,0,1.1c0,0.3-0.1,0.4-0.4,0.4c-2,0-3.9,0-5.9,0
			c-0.3,0-0.4-0.1-0.4-0.4C98.5,10.4,98.5,8.9,98.5,7.4L98.5,7.4z"/>
		<path class="st1" d="M181.2,7.4c0-1.5,0-3,0-4.5c0-0.4,0.1-0.5,0.5-0.5s0.8,0,1.2,0c0.5,0,0.5,0.1,0.5,0.5c0,1.4,0,2.8,0,4.2
			c0,1.6,0,3.2,0,4.7c0,0.3-0.1,0.4-0.4,0.4c-0.5,0-1,0-1.5,0c-0.2,0-0.4-0.1-0.4-0.4C181.2,10.4,181.2,8.9,181.2,7.4L181.2,7.4z"/>
	</g>
</g>
</svg>
