<?xml version="1.0" encoding="utf-8"?>
<!-- Generator: Adobe Illustrator 22.1.0, SVG Export Plug-In . SVG Version: 6.00 Build 0)  -->
<svg version="1.1" id="Layer_1" xmlns="http://www.w3.org/2000/svg" xmlns:xlink="http://www.w3.org/1999/xlink" x="0px" y="0px"
	 viewBox="0 0 262 50" style="enable-background:new 0 0 262 50;" xml:space="preserve">
<style type="text/css">
	.st0{opacity:0.8;}
	.st1{opacity:0.4;fill:#FFFFFF;enable-background:new    ;}
	.st2{opacity:0.7;fill:#FFFFFF;enable-background:new    ;}
	.st3{opacity:0.6;fill:#FFFFFF;enable-background:new    ;}
	.st4{opacity:0.5;fill:#FFFFFF;enable-background:new    ;}
	.st5{fill:#FFFFFF;}
</style>
<g class="st0">
	<path class="st1" d="M40,17L40,17L40,17l5.5-5.5v-0.1C41,7.4,34.6,6,28.8,7.7C23,9.5,18.5,14.1,16.9,20c0.1,0,0.2-0.1,0.3-0.1
		c2-1.3,4.4-2.1,6.9-2.1c0.8,0,1.7,0.1,2.5,0.2h0.1C30.2,14.2,36,13.7,40,17L40,17L40,17z"/>
	<path class="st2" d="M50.8,20c-0.9-3.3-2.7-6.3-5.3-8.6L40,16.9c2.3,1.9,3.6,4.7,3.6,7.7v1c6.5,0,6.5,9.8,0,9.8h-9.8l0,0v7.7l0,0
		l0.1,0.1h9.8c5.6,0,10.6-3.6,12.2-8.9C57.5,28.9,55.5,23.1,50.8,20L50.8,20z"/>
	<path class="st3" d="M24.1,43.1h9.8v-7.8h-9.8c-0.7,0-1.4-0.1-2-0.4l-5.6,5.6v0.1C18.6,42.2,21.3,43.1,24.1,43.1L24.1,43.1z"/>
	<path class="st4" d="M24.1,17.8c-5.4,0-10.2,3.5-12,8.6c-1.7,5.1,0,10.8,4.3,14.1l5.7-5.7c-3.1-1.4-3.9-5.5-1.4-7.9
		c2.4-2.4,6.5-1.7,7.9,1.4l5.7-5.7C31.8,19.6,28.1,17.8,24.1,17.8L24.1,17.8z"/>
	<path class="st5" d="M82.4,37.7c-3.4,0-6.7-1.3-9.1-3.7c-2.5-2.3-3.8-5.6-3.8-8.9c0-3.4,1.3-6.6,3.8-8.9c2.4-2.4,5.6-3.8,9.1-3.8
		c3.2,0,6.4,1.2,8.7,3.5l-2.4,2.5c-1.7-1.6-3.9-2.5-6.2-2.5c-2.4,0-4.8,1-6.5,2.7s-2.7,4.1-2.6,6.5c0,2.4,0.9,4.7,2.6,6.4
		c3.5,3.5,9.2,3.6,12.8,0.2c1.1-1.2,1.7-2.7,1.9-4.3h-8.2v-3.5h11.6c0.1,0.7,0.2,1.4,0.1,2.1c0.1,3-0.9,5.9-3,8.1
		C89,36.5,85.7,37.8,82.4,37.7L82.4,37.7z M109.5,35.3c-3.2,3.1-8.4,3.1-11.6,0c-1.6-1.5-2.4-3.6-2.4-5.8c-0.1-2.2,0.8-4.3,2.4-5.8
		c3.2-3.1,8.4-3.1,11.6,0c1.6,1.5,2.4,3.6,2.4,5.8S111.1,33.8,109.5,35.3L109.5,35.3L109.5,35.3z M100.5,33.1c1.8,1.9,4.7,1.9,6.5,0
		c0.9-0.9,1.4-2.2,1.4-3.5S107.9,27,107,26c-1.8-1.9-4.7-1.9-6.5,0c-0.9,0.9-1.4,2.2-1.4,3.6C99,30.8,99.5,32.1,100.5,33.1
		L100.5,33.1L100.5,33.1z M127.4,35.3c-3.2,3.1-8.4,3.1-11.6,0c-1.6-1.5-2.4-3.6-2.4-5.8c-0.1-2.2,0.8-4.3,2.4-5.8
		c3.2-3.1,8.4-3.1,11.6,0c1.6,1.5,2.4,3.6,2.4,5.8S128.9,33.8,127.4,35.3L127.4,35.3z M118.3,33.1c1.8,1.9,4.7,1.9,6.5,0
		c0.9-0.9,1.4-2.2,1.4-3.5s-0.5-2.6-1.4-3.6c-1.8-1.9-4.7-1.9-6.5,0c-0.9,0.9-1.4,2.2-1.4,3.6C116.9,30.8,117.4,32.1,118.3,33.1
		L118.3,33.1L118.3,33.1z M139.1,45c-1.6,0.1-3.3-0.5-4.6-1.4c-1.2-0.9-2.1-2-2.7-3.4l3.1-1.3c0.3,0.8,0.9,1.5,1.6,2
		c0.7,0.6,1.6,0.9,2.6,0.9c1.2,0.1,2.4-0.4,3.2-1.2c0.8-1,1.2-2.3,1.1-3.6v-1.2h-0.1c-1.1,1.3-2.7,1.9-4.3,1.9
		c-2.1,0-4.1-0.9-5.5-2.4c-1.5-1.5-2.4-3.6-2.3-5.7c0-2.2,0.8-4.3,2.3-5.8c1.4-1.5,3.4-2.4,5.5-2.4c0.9,0,1.7,0.2,2.5,0.6
		c0.7,0.3,1.3,0.7,1.8,1.3h0.1V22h3.4v14.6c0.2,2.3-0.6,4.6-2.2,6.4C143.2,44.3,141.2,45.1,139.1,45L139.1,45z M139.3,34.5
		c1.2,0,2.3-0.5,3.1-1.4c0.8-1,1.3-2.2,1.2-3.5c0-1.3-0.4-2.6-1.2-3.6c-0.8-0.9-1.9-1.4-3.1-1.4c-1.2,0-2.4,0.5-3.2,1.4
		c-0.9,1-1.4,2.2-1.4,3.5s0.5,2.6,1.4,3.5C136.9,34,138.1,34.5,139.3,34.5L139.3,34.5z M152.9,37.2h-3.6v-24h3.6V37.2L152.9,37.2z
		 M162.7,37.7c-2.2,0.1-4.3-0.8-5.8-2.3s-2.4-3.6-2.3-5.8c-0.1-2.2,0.7-4.3,2.2-5.9c1.4-1.5,3.4-2.3,5.5-2.3c0.9,0,1.9,0.2,2.7,0.5
		s1.5,0.8,2.1,1.4c0.5,0.5,1,1.1,1.4,1.7c0.3,0.5,0.6,1.1,0.8,1.6l0.4,0.9l-11,4.5c0.7,1.6,2.2,2.5,3.9,2.5c1.6,0,3.2-0.9,4-2.3
		l2.7,1.9c-0.7,1-1.6,1.8-2.6,2.5C165.6,37.3,164.2,37.7,162.7,37.7L162.7,37.7z M158.1,29.3l7.3-3c-0.2-0.5-0.6-1-1.1-1.3
		c-0.6-0.3-1.2-0.5-1.9-0.5c-1.1,0-2.2,0.5-2.9,1.3C158.5,26.7,158,28,158.1,29.3L158.1,29.3z"/>
	<path class="st5" d="M188.5,37.7c-3.1,0-6-1.2-8.2-3.3c-2.2-2.2-3.4-5.2-3.3-8.2c-0.1-3.1,1.1-6,3.3-8.2s5.1-3.4,8.2-3.3
		c3.1-0.1,6.1,1.2,8.1,3.6l-2,1.9c-1.5-1.9-3.8-2.9-6.1-2.8c-2.3,0-4.5,0.8-6.1,2.4c-1.7,1.7-2.6,4-2.5,6.4
		c-0.1,2.4,0.8,4.7,2.5,6.4c1.6,1.6,3.8,2.5,6.1,2.4c2.7,0,5.2-1.1,6.9-3.2l2,2c-1,1.2-2.3,2.2-3.8,2.9
		C192,37.3,190.2,37.7,188.5,37.7L188.5,37.7z"/>
	<polygon class="st5" points="199.8,37.2 202.6,37.2 202.6,15 199.8,15 	"/>
	<path class="st5" d="M207.3,23.9c3.1-3.1,8.1-3.1,11.2,0c1.5,1.6,2.3,3.6,2.2,5.8c0.1,2.1-0.7,4.2-2.2,5.8c-3.1,3.1-8.1,3.1-11.2,0
		c-1.5-1.6-2.3-3.6-2.2-5.8C205,27.5,205.8,25.4,207.3,23.9L207.3,23.9z M209.4,33.6c1.9,2,5.1,2,6.9,0c1-1.1,1.5-2.5,1.5-4
		c0.1-1.5-0.5-2.9-1.5-4c-1.9-2-5.1-2-6.9,0c-1,1.1-1.5,2.5-1.5,4C207.9,31.1,208.4,32.5,209.4,33.6L209.4,33.6L209.4,33.6z"/>
	<path class="st5" d="M236.4,37.2h-2.7v-2.1h-0.1c-0.5,0.8-1.2,1.5-2,1.9c-0.9,0.5-1.8,0.8-2.8,0.8c-1.6,0.1-3.2-0.5-4.3-1.7
		c-1-1.3-1.6-3-1.5-4.6V22h2.8v8.8c0,2.8,1.2,4.2,3.7,4.2c1.1,0,2.2-0.5,2.9-1.4s1.1-2.1,1.1-3.3V22h2.8v15.2H236.4z"/>
	<path class="st5" d="M246,37.7c-1.9,0-3.8-0.8-5.1-2.3c-1.4-1.6-2.2-3.6-2.1-5.7c-0.1-2.1,0.7-4.2,2.1-5.7c1.3-1.5,3.1-2.3,5.1-2.3
		c1.1,0,2.2,0.2,3.1,0.7c0.8,0.4,1.5,1.1,2.1,1.8h0.1l-0.1-2.1v-7h2.8v22.1h-2.7v-2.1h-0.1c-0.5,0.8-1.2,1.4-2.1,1.9
		C248.2,37.4,247.1,37.7,246,37.7L246,37.7z M246.5,35.1c1.3,0,2.5-0.5,3.4-1.5c1-1.1,1.5-2.5,1.4-4c0.1-1.5-0.4-2.9-1.4-4
		c-1.8-2-5-2-6.9,0c-1,1.1-1.5,2.5-1.4,4c-0.1,1.5,0.4,2.9,1.4,4C243.9,34.6,245.2,35.1,246.5,35.1L246.5,35.1z"/>
</g>
</svg>
