<?xml version="1.0" encoding="utf-8"?>
<!-- Generator: Adobe Illustrator 22.1.0, SVG Export Plug-In . SVG Version: 6.00 Build 0)  -->
<svg version="1.1" id="Capa_1" xmlns="http://www.w3.org/2000/svg" xmlns:xlink="http://www.w3.org/1999/xlink" x="0px" y="0px"
	 viewBox="0 0 577.7 225.3" style="enable-background:new 0 0 577.7 225.3;" xml:space="preserve">
<style type="text/css">
	.st0{fill:#FFFFFF;}
	.st1{fill:#868484;}
	.st2{fill:#989896;}
	.st3{fill:#B2B2B2;}
	.st4{fill:#777773;}
	.st5{fill:#A6A6A3;}
	.st6{fill:#C1BFBF;}
</style>
<g id="JZHbhc.tif">
	<g>
		<path class="st0" d="M312.2,141.9c0,8.2,0,16.4,0,24.6c0,0.6-0.2,0.9-0.9,0.9c-2.9,0-5.8,0-8.7,0c-0.7,0-0.9-0.4-1.2-0.8
			c-2.4-3.4-4.7-6.8-7.1-10.3c-3.8-5.4-7.5-10.9-11.3-16.3c-2.2-3.2-4.4-6.3-6.6-9.5c-0.2-0.2-0.4-0.4-0.7-0.5
			c-0.1,0.3-0.2,0.5-0.2,0.8c0,11.8,0,23.7,0,35.5c0,0.9-0.1,1.1-1,1.1c-2.4,0-4.8,0-7.2,0c-0.7,0-1-0.2-1-1c0-16.2,0-32.5,0-48.7
			c0-1.5,0.1-1.5,1.5-1.5c2.6,0,5.2,0,7.8,0c0.8,0,1.3,0.3,1.7,0.9c1.7,2.5,3.5,5,5.2,7.6c3,4.3,6,8.7,9,13
			c3.5,5.1,7.1,10.2,10.6,15.4c0.1,0.2,0.4,0.3,0.6,0.4c0.1-0.2,0.3-0.5,0.3-0.7c0-5.3,0-10.7,0-16c0-6.4,0-12.7,0-19.1
			c0-1.3,0.1-1.4,1.4-1.4c2.2,0,4.5,0,6.7,0c1,0,1.2,0.1,1.2,1.2c0,6.8,0,13.5,0,20.3C312.2,139.2,312.2,140.5,312.2,141.9
			C312.2,141.9,312.2,141.9,312.2,141.9z"/>
		<path class="st0" d="M187.3,141.9c0-8.1,0-16.2,0-24.4c0-1.2,0.2-1.3,1.4-1.3c10.1,0,20.3,0,30.4,0c1.2,0,1.3,0.1,1.3,1.3
			c0,2,0,4,0,5.9c0,1-0.1,1.1-1.1,1.1c-7.1,0-14.3,0-21.4,0c-1.3,0-1.4,0.1-1.4,1.4c0,3.5,0,6.9,0,10.4c0,1,0.1,1.1,1.1,1.1
			c6.1,0,12.2,0,18.3,0c1,0,1.1,0.1,1.1,1.1c0,2.2,0,4.3,0,6.5c0,1-0.1,1.1-1.1,1.1c-6.1,0-12.2,0-18.3,0c-1.1,0-1.3,0.1-1.3,1.3
			c0,6.3,0,12.7,0,19c0,0.7-0.2,1-0.9,1c-2.5,0-5,0-7.5,0c-0.7,0-0.9-0.3-0.9-1C187.3,158.3,187.3,150.1,187.3,141.9
			C187.3,141.9,187.3,141.9,187.3,141.9z"/>
		<path class="st0" d="M527.2,142c0,8.2,0,16.4,0,24.7c0,0.6-0.2,0.8-0.8,0.8c-1.3,0-2.6,0-3.9,0c-0.6,0-0.9-0.2-0.9-0.9
			c0-6.9,0-13.7,0-20.6c0-1.4-0.1-1.4-1.4-1.4c-8.1,0-16.3,0-24.4,0c-1.4,0-1.4,0-1.4,1.4c0,6.9,0,13.7,0,20.6
			c0,0.7-0.2,0.9-0.9,0.9c-1.2,0-2.5,0-3.7,0c-0.7,0-0.9-0.3-0.9-1c0-16.3,0-32.6,0-48.9c0-1.3,0.1-1.4,1.4-1.4c1,0,2,0,3,0
			c1,0,1.1,0.1,1.1,1.1c0,4.7,0,9.3,0,14c0,2.3,0,4.6,0,6.9c0,0.7,0.3,0.9,0.9,0.9c8.5,0,16.9,0,25.4,0c0.7,0,1-0.3,1-1
			c0-6.9,0-13.8,0-20.7c0-1.1,0.2-1.2,1.2-1.2c1.1,0,2.2,0,3.3,0c0.7,0,1,0.3,1,1c0,0.5,0,1,0,1.4
			C527.2,126.4,527.2,134.2,527.2,142C527.2,142,527.2,142,527.2,142z"/>
		<path class="st0" d="M383.4,141.9c0-8.2,0-16.3,0-24.5c0-1,0.2-1.2,1.2-1.2c9.9,0,19.8,0,29.7,0c1.2,0,1.3,0.2,1.3,1.3
			c0,0.9,0,1.9,0,2.8c0,0.9-0.2,1.1-1.1,1.1c-1.9,0-3.8,0-5.7,0c-6.2,0-12.5,0-18.7,0c-1.2,0-1.3,0.1-1.3,1.3c0,5.1,0,10.2,0,15.3
			c0,1,0.1,1.1,1.1,1.1c7.1,0,14.2,0,21.2,0c1.2,0,1.2,0,1.2,1.2c0,1,0,2,0,3c0,0.9-0.1,1-1,1c-7.1,0-14.1,0-21.2,0
			c-1.3,0-1.4,0-1.4,1.4c0,5.1,0,10.1,0,15.2c0,1.1,0.1,1.2,1.2,1.2c8,0,16.1,0,24.1,0c0.3,0,0.6,0,0.8,0c0.4,0,0.7,0.3,0.7,0.7
			c0,1.2,0,2.5,0,3.7c0,0.2-0.4,0.5-0.6,0.7c-0.2,0.1-0.5,0-0.8,0c-9.8,0-19.6,0-29.4,0c-1.4,0-1.4,0-1.4-1.4
			C383.4,158,383.4,150,383.4,141.9C383.4,141.9,383.4,141.9,383.4,141.9z"/>
		<path class="st0" d="M437.2,141.8c0,3.4,0.2,6.7,1.2,9.9c1.1,3.6,3.1,6.7,6.5,8.6c2.9,1.6,6.1,2.2,9.4,2.4
			c4.2,0.2,8.2-0.3,12.2-1.5c1.1-0.3,2.2-0.8,3.4-1.2c0.6-0.2,0.9,0,0.9,0.6c0,1.2,0,2.5,0,3.7c0,0.7-0.5,0.9-0.9,1
			c-1.4,0.5-2.7,0.9-4.1,1.3c-4.9,1.2-9.9,1.6-15,0.9c-3.1-0.4-6.1-1.2-8.9-2.8c-2.6-1.5-4.7-3.5-6.2-6.1c-1.5-2.4-2.6-4.9-3-7.7
			c-0.3-2.3-0.7-4.6-0.9-6.8c-0.3-3.8,0.1-7.5,0.8-11.3c0.4-2.4,1.2-4.6,2.3-6.7c1.2-2.4,2.9-4.5,5.1-6.2c2.2-1.7,4.7-2.8,7.4-3.5
			c3.8-0.9,7.6-1.2,11.5-0.9c3.3,0.3,6.5,0.8,9.7,2c0.6,0.2,1.3,0.4,1.9,0.7c0.3,0.1,0.5,0.5,0.6,0.8c0.1,1.3,0,2.5,0,3.8
			c0,0.7-0.3,0.8-1,0.6c-1.9-0.6-3.8-1.3-5.7-1.7c-3.6-0.9-7.3-1.3-11.1-0.8c-1.8,0.2-3.6,0.4-5.2,1c-2.8,1-5.3,2.5-7.1,5.1
			c-1.6,2.3-2.6,4.9-2.9,7.7c-0.3,2.3-0.5,4.7-0.8,7C437,141.8,437.1,141.8,437.2,141.8z"/>
		<path class="st0" d="M345,144.6c0-7.3,0-14.5,0-21.8c0-1.1-0.1-1.2-1.2-1.2c-5.3,0-10.5,0-15.8,0c-0.8,0-1.1-0.2-1.1-1
			c0-1.1,0-2.3,0-3.4c0-0.7,0.3-1,1-1c13.2,0,26.4,0,39.6,0c0.9,0,1,0.2,1,1c0,1.1,0,2.2,0,3.3c0,1-0.2,1.1-1.2,1.1
			c-5.2,0-10.4,0-15.7,0c-1.1,0-1.2,0.2-1.2,1.2c0,14.1,0,28.2,0,42.3c0,0.3,0,0.6,0,0.9c0,1.3,0,1.3-1.3,1.3c-1.1,0-2.2,0-3.3,0
			c-0.7,0-1-0.2-1-1C345,159.2,345,151.9,345,144.6C345,144.6,345,144.6,345,144.6z"/>
		<path class="st0" d="M236.9,142c0-8.1,0-16.2,0-24.3c0-1.3,0.1-1.4,1.4-1.4c2.1,0,4.3,0,6.4,0c1.3,0,1.4,0.1,1.4,1.4
			c0,15.9,0,31.8,0,47.7c0,2.1,0.4,2.1-2.1,2.1c-2.1,0-4.1,0-6.2,0c-0.7,0-1-0.2-1-1C236.9,158.3,236.9,150.1,236.9,142
			C236.9,142,236.9,142,236.9,142z"/>
		<path class="st0" d="M393,71.8c-0.4,0.9-0.8,1.9-1.2,2.8c-1.2,2.7-2.3,5.4-3.5,8.2c-0.1,0.2-0.5,0.4-0.7,0.5c-0.4,0.1-0.9,0-1.3,0
			c-1.3,0.2-2-0.3-2.4-1.5c-0.9-2.5-2-5-3.1-7.4c-0.4-0.8-0.8-1.7-1.2-2.5c-0.1,0-0.2,0-0.3,0c-0.1,0.2-0.2,0.5-0.2,0.7
			c-0.2,4.3-0.4,8.5-0.6,12.8c0,0.5-0.2,0.8-0.8,0.8c-1.2,0-2.3,0-3.5,0c-0.5,0-0.8-0.2-0.7-0.8c0.3-4.9,0.6-9.7,1-14.6
			c0.2-2.1,0.4-4.2,0.6-6.3c0.1-0.9,0.4-1.1,1.2-1.1c1,0,2,0,3,0c0.6,0,1,0.2,1.3,0.8c1,2.2,2.1,4.3,3,6.5c0.8,1.8,1.5,3.6,2.3,5.4
			c0.1,0.3,0.4,0.4,0.6,0.1c0.1-0.1,0.2-0.3,0.3-0.4c0.8-1.9,1.6-3.9,2.5-5.8c0.9-2,1.9-4,2.9-6c0.2-0.3,0.7-0.6,1-0.6
			c0.9-0.1,1.9,0,2.8,0c1,0,1.2,0.2,1.3,1.2c0.3,2.9,0.6,5.7,0.8,8.6c0.3,4.1,0.6,8.1,0.9,12.2c0,0.5-0.2,0.8-0.7,0.8
			c-1.2,0-2.5,0-3.7,0c-0.5,0-0.6-0.3-0.7-0.7c-0.2-4.2-0.4-8.5-0.6-12.7c0-0.3-0.1-0.6-0.1-0.9C393.2,71.8,393.1,71.8,393,71.8z"/>
		<path class="st0" d="M427.2,74.6c0-3.3,0-6.7,0-10c0-0.6,0.2-0.8,0.7-0.9c3.8-0.6,7.6-0.8,11.3,0.1c2.5,0.6,4.4,2.2,4.8,5.1
			c0.2,1.8-0.4,3.2-1.8,4.4c-0.6,0.5-0.6,0.7,0.1,1c2.2,1.1,2.9,3,2.9,5.3c-0.1,2.5-1.1,4.5-3.5,5.5c-1.2,0.5-2.6,0.9-3.9,1.1
			c-3.2,0.5-6.4,0.2-9.5-0.2c-0.7-0.1-1-0.5-1-1.2C427.2,81.4,427.2,78,427.2,74.6z M432.2,79.2c0,0.7,0,1.4,0,2.1
			c0,0.6,0.2,0.9,0.8,0.9c1.3,0,2.6,0.1,3.9-0.1c1.1-0.1,2.2-0.5,2.7-1.7c0.9-2.1-0.3-3.7-2.4-4c-1.4-0.2-2.9-0.1-4.3-0.2
			c-0.6,0-0.8,0.3-0.8,0.9C432.2,77.8,432.2,78.5,432.2,79.2z M432.2,69.9C432.2,69.9,432.2,69.9,432.2,69.9c0,0.6-0.1,1.2,0,1.7
			c0,0.2,0.3,0.7,0.5,0.7c1.7,0,3.5,0.3,5.2-0.5c0.8-0.4,1.2-1.1,1.2-2.1c0-0.9-0.5-1.6-1.3-1.9c-1.5-0.6-3.1-0.5-4.7-0.4
			c-0.6,0-0.8,0.4-0.8,0.9C432.2,68.7,432.2,69.3,432.2,69.9z"/>
		<path class="st0" d="M255.1,74.8c0.1,2.4-0.4,4.7-1.7,6.8c-1.4,2.3-3.4,3.8-6,4.5c-2.4,0.7-4.8,0.7-7.1,0c-3-0.9-5.2-2.7-6.5-5.5
			c-1.4-3.1-1.6-6.3-0.7-9.6c0.7-2.7,2.2-4.9,4.6-6.4c1.8-1.2,3.9-1.7,6.1-1.7c2.8,0,5.4,0.6,7.6,2.5c1.6,1.4,2.8,3.1,3.3,5.2
			c0.3,1.4,0.5,2.8,0.8,4.2C255.2,74.8,255.1,74.8,255.1,74.8z M243.8,82.1c2.7,0.1,5-1.9,5.6-4.6c0.6-2.5,0.5-4.9-0.7-7.2
			c-0.6-1.2-1.6-2.1-2.8-2.5c-3.5-1.2-6.4,0.3-7.6,3.7c-0.9,2.5-0.8,5.1,0.4,7.5C239.8,81,241.5,82,243.8,82.1z"/>
		<path class="st0" d="M346.4,74.7c-0.1,3.2-0.9,6-3.1,8.4c-1.3,1.5-2.9,2.4-4.8,2.9c-2.4,0.7-4.8,0.7-7.1,0c-3-0.9-5.2-2.7-6.6-5.5
			c-1.3-2.7-1.5-5.6-1-8.5c0.5-3.1,2.1-5.7,4.8-7.5c1.8-1.2,3.9-1.7,6.1-1.7c2.8,0,5.5,0.6,7.7,2.5c1.6,1.4,2.7,3.1,3.2,5.1
			C345.9,72,346.1,73.4,346.4,74.7z M334.9,82.1c2.6,0.1,4.8-1.8,5.6-4.3c0.6-2,0.6-4.1,0-6.1c-0.5-1.8-1.6-3.3-3.3-3.9
			c-3.6-1.3-6.7,0.5-7.8,4c-0.6,2-0.6,4,0,5.9C330.1,80.3,332.3,82.2,334.9,82.1z"/>
		<path class="st0" d="M525.9,86.1c-0.5,0-0.9,0-1.4,0c-1.3,0-1.3,0-1.7-1.2c-0.3-0.8-0.5-1.7-0.8-2.5c-0.3-0.9-0.6-1.2-1.6-1.2
			c-2.2,0-4.4,0-6.6,0c-1,0-1.2,0.2-1.5,1.1c-0.3,1.1-0.7,2.2-1.1,3.3c-0.1,0.2-0.5,0.5-0.7,0.5c-1.3,0-2.6,0-3.9,0
			c-0.6,0-0.8-0.3-0.6-0.8c0.7-1.8,1.3-3.6,2-5.4c0.7-1.8,1.4-3.7,2.1-5.5c1-2.5,2.1-5,3.2-7.5c0.4-1,0.8-1.9,1.3-2.8
			c0.2-0.3,0.6-0.6,0.9-0.6c1.2-0.1,2.3-0.1,3.5,0c0.3,0,0.8,0.3,0.9,0.6c0.8,1.5,1.5,3.1,2.2,4.7c0.7,1.6,1.4,3.3,2,4.9
			c0.9,2.3,1.8,4.6,2.6,6.9c0.5,1.3,1,2.7,1.5,4.1c0.1,0.3,0.2,0.5,0.3,0.8c0.2,0.5,0,0.7-0.5,0.8C527.2,86.2,526.5,86.1,525.9,86.1
			C525.9,86.1,525.9,86.1,525.9,86.1z M517.2,68.9c-0.3,0.4-0.4,0.6-0.5,0.8c-0.9,2.2-1.7,4.4-2.5,6.6c-0.2,0.4,0,0.8,0.5,0.8
			c1.7,0,3.3,0,5,0c0.5,0,0.6-0.3,0.4-0.7c-0.8-2-1.5-4.1-2.3-6.1C517.6,69.9,517.4,69.5,517.2,68.9z"/>
		<path class="st0" d="M188.1,75c0-3.3,0.8-6.1,2.8-8.5c1.7-1.9,3.8-3,6.3-3.4c2.6-0.4,5.1-0.3,7.6,0.6c0.5,0.2,0.9,0.4,1.4,0.6
			c0.5,0.2,0.5,0.6,0.3,1c-0.3,0.9-0.7,1.8-1,2.8c-0.2,0.4-0.4,0.6-0.8,0.4c-1.3-0.6-2.7-0.8-4.1-1c-1.4-0.1-2.8,0-4,0.7
			c-1.3,0.7-2,1.8-2.5,3.1c-0.8,2.1-0.7,4.3-0.1,6.4c0.8,2.7,2.1,4,5.2,4.4c2,0.2,3.9-0.1,5.8-0.9c0.5-0.2,0.9-0.1,1.1,0.5
			c0.3,0.9,0.6,1.8,0.9,2.7c0.1,0.2-0.1,0.7-0.3,0.8c-0.8,0.4-1.6,0.8-2.4,1c-3,0.7-5.9,0.8-8.9,0c-2.8-0.8-4.8-2.6-6-5.3
			C188.4,78.8,188.1,76.9,188.1,75z"/>
		<path class="st0" d="M283,74.9c0-3.4,0-6.8,0-10.3c0-1.1,0.2-1.2,1.2-1.2c0.9,0,1.8,0,2.7,0c1,0,1.2,0.2,1.2,1.2
			c0,5.3,0,10.6,0,15.8c0,1.2,0.1,1.3,1.3,1.3c2.6,0,5.2,0,7.8,0c0.9,0,1.1,0.1,1.1,1.1c0,0.8,0,1.7,0,2.5c0,0.6-0.2,0.9-0.8,0.9
			c-4.5,0-9,0-13.5,0c-0.6,0-0.9-0.3-0.9-0.9C283.1,81.8,283,78.3,283,74.9C283,74.9,283,74.9,283,74.9z"/>
		<path class="st0" d="M473.4,74.9c0-3.4,0-6.9,0-10.3c0-1,0.2-1.2,1.2-1.2c0.9,0,1.8,0,2.7,0c1.1,0,1.2,0.2,1.2,1.2
			c0,3.2,0,6.5,0,9.7c0,3.6,0,7.3,0,10.9c0,0.6-0.2,0.9-0.9,0.9c-1.1,0-2.3,0-3.4,0c-0.5,0-0.8-0.2-0.8-0.8
			C473.4,81.9,473.4,78.4,473.4,74.9C473.4,74.9,473.4,74.9,473.4,74.9z"/>
	</g>
</g>
<g>
	<path class="st1" d="M49.2,112.5c0.2-0.8,0.2-1.6,0.6-2.2c16.3-24.6,32.6-49.1,49-73.6c0.4-0.6,0.9-1,1.4-1.5
		c0.2,2.3,0.5,4.6,0.7,6.9c0.4,4.5,0.7,9.1,1.1,13.6c0.6,6.9,1.3,13.8,2,20.8c0.4,4.7,0.7,9.4,1.2,14.1c0.6,7.1,1.3,14.2,2,21.3
		c-18.1,0-36.1,0-54.2,0c-1,0-2,0.3-3,0.5C49.7,112.5,49.5,112.5,49.2,112.5z"/>
	<path class="st2" d="M49.2,112.5c0.3,0,0.5,0,0.8-0.1c19.6,5.6,39.1,11.1,58.7,16.7c0,0.6,0,1.2-0.1,1.8c-1.2,9-2.4,18-3.6,27
		c-0.8,6.2-1.7,12.4-2.5,18.6c-0.6,4.6-1.1,9.2-1.6,13.8c-0.6-0.5-1.3-0.9-1.7-1.5c-11.2-17-22.4-34.1-33.5-51.1
		C60.1,129.4,54.7,121,49.2,112.5z"/>
	<path class="st3" d="M107.1,112c-0.7-7.1-1.3-14.2-2-21.3c-0.4-4.7-0.7-9.4-1.2-14.1c-0.6-6.9-1.3-13.8-2-20.8
		c-0.4-4.5-0.7-9.1-1.1-13.6c-0.2-2.3-0.5-4.6-0.7-6.9c0,0,0.1,0,0.1,0c0.2,0.1,0.4,0.2,0.6,0.4c5.9,8.9,11.7,17.8,17.6,26.7
		c10.5,15.8,21.1,31.7,31.6,47.5c0.4,0.7,0.7,1.5,1,2.2c-0.5,0.2-1,0.3-1.5,0.5c-1-0.2-2-0.5-3-0.5C133.5,112,120.3,112,107.1,112
		L107.1,112z"/>
	<path class="st4" d="M149.7,112.5c0.5-0.2,1-0.3,1.5-0.5c-10,15.7-20,31.4-30,47.1c-6.7,10.5-13.5,20.9-20.3,31.4
		c0.5-4.6,1-9.2,1.6-13.8c0.8-6.2,1.7-12.4,2.5-18.6c1.2-9,2.4-18,3.6-27c0.1-0.6,0.1-1.2,0.1-1.8l0,0c1.4-0.5,2.7-1,4.1-1.5
		C125.1,122.6,137.4,117.5,149.7,112.5z"/>
	<path class="st1" d="M100.9,35.6c-0.2-0.1-0.4-0.2-0.6-0.4C100.5,35.3,100.7,35.5,100.9,35.6z"/>
	<path class="st5" d="M108.7,129.2C89.1,123.6,69.6,118,50,112.5c1-0.2,2-0.5,3-0.5c18.1,0,36.1,0,54.2,0c0,0,0,0,0,0
		C107.6,117.7,108.2,123.4,108.7,129.2L108.7,129.2z"/>
	<path class="st6" d="M108.7,129.1c-0.5-5.7-1-11.4-1.5-17.2c13.2,0,26.4,0,39.6,0c1,0,2,0.3,3,0.5c-12.3,5-24.6,10.1-36.9,15.1
		C111.4,128.1,110,128.6,108.7,129.1z"/>
</g>
</svg>
