<?xml version="1.0" encoding="utf-8"?>
<!-- Generator: Adobe Illustrator 22.1.0, SVG Export Plug-In . SVG Version: 6.00 Build 0)  -->
<svg version="1.1" id="Layer_1" xmlns="http://www.w3.org/2000/svg" xmlns:xlink="http://www.w3.org/1999/xlink" x="0px" y="0px"
	 viewBox="0 0 262 50" style="enable-background:new 0 0 262 50;" xml:space="preserve">
<style type="text/css">
	.st0{opacity:0.8;}
	.st1{fill:#FFFFFF;}
</style>
<g class="st0">
	<path class="st1" d="M66.8,24.2c4.3-0.5,8.2-2.9,8.2-7.6c0-5.6-4-8.5-10.9-8.5H47.5v0.1v2.1V11c1.4,0,2.4,0.3,3,1
		c0.1,0.4,0.1,0.8,0.1,1.4v22.8c0,0.7,0,1.2-0.1,1.6C50,38.6,49,39,47.6,39v0.5v2.2l0,0h17c8.3,0,12.6-2.7,12.6-9.1
		C77.1,27.3,72.7,24.4,66.8,24.2z M60.1,10.5h0.6c3.2,0,5.4,1.9,5.4,6c0,4.3-1.9,6.4-5.3,6.4h-0.6V10.5z M63.2,39.2h-0.3
		c-2.1,0-2.8-0.6-2.8-3.2V25.7h1.4c4.3,0,6.4,2.2,6.4,6.6C67.8,37.1,65.8,39.2,63.2,39.2z"/>
	<path class="st1" d="M78.1,38.9c2.4,0,3.3-1,3.3-3.6v-8.9c0-1.4-1-2.3-2.4-2.3h-1v-2.9l8.6-2.7h2.4v3.6c0,1.9-0.2,4.7-0.2,5.7h0.2
		c0.7-6.9,3.8-9.8,7.4-9.8c0.7,0,1,0,1.6,0.2v8c-3-0.5-8.4-0.3-8.4,5v4c0,2.6,1.5,3.6,3.9,3.6v2.7H78.1V38.9L78.1,38.9z"/>
	<path class="st1" d="M175.6,34.3l-5.4-7.2c2.7-1.4,5.2-2.6,7.8-5.7V19h-12.1v2.7c1.9,0,3.1,0.9,3.1,2.4c0,1.2-0.3,2.1-2.3,3l-4,1.9
		h-0.4V7.8h-1.8l-10.1,2.4v3.1h1c1.4,0,2.4,0.7,2.4,2.1v20c0,2.4-0.7,3.5-2.8,3.6c-2.1-0.1-2.9-1.2-2.9-3.6v-9.6
		c0-5.1-3-7.5-7.3-7.5c-3.3,0-5.7,1.5-7,4.9v-4.8h-1.8l-10,2.4v3.1h1c1.4,0,2.4,0.7,2.4,2.1v9.4c0,2.7-0.9,3.6-3.3,3.6H122v2.3h13.8
		v-2.4c-1.9,0-2.1-1.2-2.1-3.5V25.6c0.3-1.5,1.5-2.7,3.1-2.7c1.9,0,3,1,3,3.1v9.6c0,2.3,0,3.5-2.1,3.5v2.4h12.9h0.9h12.8v-2.7
		c-1.9,0-2.1-0.9-2.1-2.7v-5.7h0.3l7.1,11.4h10.2V39C178.3,39,177.3,36.6,175.6,34.3z"/>
	<path class="st1" d="M178.5,30c0-7.2,6.1-12.1,13-12.1c7.2,0,13.3,5,13.3,12.2c0,7.1-5.9,12.1-12.9,12.1
		C184.6,42.1,178.5,37,178.5,30z M196.1,33.8c0-3.8-2-13.5-5.8-13.5c-2.3,0-3.1,2.1-3.1,6s1.9,13.4,5.9,13.4
		C195.2,39.7,196.1,37.4,196.1,33.8z"/>
	<g>
		<path class="st1" d="M210.3,41.7c-2.3,0-4.2-1.9-4.2-4.2s1.9-4.2,4.2-4.2c2.3,0,4.2,1.9,4.2,4.2C214.5,39.8,212.5,41.7,210.3,41.7
			z"/>
	</g>
	<path class="st1" d="M122.7,39.4c-0.1,0-0.1-0.1-0.2-0.1c-1.8,0.2-2.7-0.9-2.8-2.7v-11c0-5.1-2.3-7.6-10.2-7.6
		c-4.2,0-8.9,1-9.7,5.3c-0.2,1.3,0.1,2.6,1.3,3.3c1.4,0.9,3.1,0.8,4.5-0.1c1.1-0.7,1.5-1.9,1.2-3.1c-0.2-1-0.6-1.8-1.7-3
		c0.7-0.2,2-0.4,3-0.4c3.3,0,3.8,3.7,3.8,7.6c0,1-0.2,1-1.2,1c-4.3,0.2-12.8,0.7-12.8,7.4c0,6.6,11.2,8.5,14.8,2.3
		c1.2,4.3,7.2,4.1,10,2.2C122.7,39.9,122.7,40.1,122.7,39.4z M104.1,35.3c0-4.8,6.9-4,7.7-5.2c0,1.5,0,3,0,4.3
		C111.9,39.2,104.1,40.1,104.1,35.3z"/>
</g>
</svg>
