<?xml version="1.0" encoding="utf-8"?>
<!-- Generator: Adobe Illustrator 22.1.0, SVG Export Plug-In . SVG Version: 6.00 Build 0)  -->
<svg version="1.1" id="Layer_1" xmlns="http://www.w3.org/2000/svg" xmlns:xlink="http://www.w3.org/1999/xlink" x="0px" y="0px"
	 viewBox="0 0 262 50" style="enable-background:new 0 0 262 50;" xml:space="preserve">
<style type="text/css">
	.st0{opacity:0.8;}
	.st1{fill:#FFFFFF;}
	.st2{fill:none;}
</style>
<g class="st0">
	<path class="st1" d="M73.8,19.3h8l3.8,5H69v1.2h20.8l-2.7,5.6h-4.8v1.2H88l3.5-6.8h8.4c0,0,0.7-0.9,1.4-1.2h-14l-4.6-6.2h-8.6
		L73.8,19.3z"/>
	<line class="st2" x1="166.9" y1="5.5" x2="159.8" y2="44.8"/>
	<g>
		<path class="st1" d="M172.8,24.3c-0.4,0-0.7-0.2-0.9-0.4c-0.2-0.3-0.3-0.6-0.2-1l0.4-2.4c0.1-0.4,0.3-0.7,0.6-1s0.7-0.4,1.1-0.4
			h2.2c0.1,0,0.2,0.1,0.2,0.2s-0.1,0.2-0.2,0.2h-2.2c-0.6,0-1.1,0.5-1.2,1l-0.2,1h3c0.1,0,0.2,0.1,0.2,0.2s-0.1,0.2-0.2,0.2h-3
			l-0.2,1c-0.1,0.6,0.3,1,0.8,1h2.2c0.1,0,0.2,0.1,0.2,0.2s-0.1,0.2-0.2,0.2C175.2,24.3,172.8,24.3,172.8,24.3z"/>
		<path class="st1" d="M176,24.1l0.9-4.9c0-0.1,0.1-0.2,0.2-0.2s0.2,0.1,0.1,0.2l-0.9,4.9c0,0.1-0.1,0.2-0.2,0.2
			C176.1,24.3,176,24.2,176,24.1z"/>
		<path class="st1" d="M183.7,24.1l0.7-4.2l-2.4,3c0,0.1-0.1,0.1-0.2,0.1s-0.1,0-0.2-0.1l-1.4-3l-0.7,4.2c0,0.1-0.1,0.2-0.2,0.2
			c-0.1,0-0.2-0.1-0.2-0.2l0.9-4.9c0-0.1,0.1-0.2,0.2-0.2c0.1,0,0.1,0,0.2,0.1l1.5,3.3l2.7-3.3c0-0.1,0.1-0.1,0.2-0.1
			c0.1,0,0.2,0.1,0.2,0.2l-0.9,4.9c0,0.1-0.1,0.2-0.2,0.2C183.7,24.3,183.7,24.2,183.7,24.1z"/>
		<path class="st1" d="M186,24.3c-0.6,0-1-0.5-0.9-1.1l0.3-1.5c0-0.3,0.2-0.6,0.4-0.8c0.2-0.2,0.5-0.3,0.8-0.3h1
			c0.6,0,1,0.5,0.9,1.1l-0.3,1.5c0,0.3-0.2,0.6-0.4,0.8c-0.2,0.2-0.5,0.3-0.8,0.3H186z M186.5,21c-0.4,0-0.8,0.3-0.8,0.7l-0.3,1.5
			c-0.1,0.4,0.2,0.7,0.6,0.7h1c0.4,0,0.8-0.3,0.8-0.7l0.3-1.5c0.1-0.4-0.2-0.7-0.6-0.7H186.5z"/>
		<path class="st1" d="M190.6,24.1c0,0.1-0.1,0.2-0.2,0.2h-0.1c-0.6,0-1-0.5-0.9-1.1l0.4-2.3h-0.6c-0.1,0-0.2-0.1-0.2-0.2
			s0.1-0.2,0.2-0.2h0.6l0.1-0.7c0-0.1,0.1-0.2,0.2-0.2c0.1,0,0.2,0.1,0.1,0.2l-0.1,0.7h0.8c0.1,0,0.2,0.1,0.1,0.2l0,0
			c0,0.1-0.1,0.2-0.2,0.2H190l-0.4,2.3c-0.1,0.4,0.2,0.7,0.6,0.7h0.1C190.5,23.9,190.6,24,190.6,24.1z"/>
		<path class="st1" d="M192.1,24.3c-0.6,0-1-0.5-0.9-1.1l0.3-1.5c0-0.3,0.2-0.6,0.4-0.8c0.2-0.2,0.5-0.3,0.8-0.3h1
			c0.6,0,1,0.5,0.9,1.1l-0.3,1.5c0,0.3-0.2,0.6-0.4,0.8c-0.2,0.2-0.5,0.3-0.8,0.3H192.1z M192.7,21c-0.4,0-0.8,0.3-0.8,0.7l-0.3,1.5
			c-0.1,0.4,0.2,0.7,0.6,0.7h1c0.4,0,0.8-0.3,0.8-0.7l0.3-1.5c0.1-0.4-0.2-0.7-0.6-0.7H192.7z"/>
		<path class="st1" d="M195,24.1l0.4-2.4c0-0.3,0.2-0.6,0.4-0.8c0.2-0.2,0.5-0.3,0.8-0.3h0.8c0.1,0,0.2,0.1,0.2,0.2
			s-0.1,0.2-0.2,0.2h-0.8c-0.4,0-0.8,0.3-0.8,0.7l-0.4,2.4c0,0.1-0.1,0.2-0.2,0.2C195,24.3,194.9,24.2,195,24.1z"/>
		<path class="st1" d="M201,20.6h0.9c0.3,0,0.5,0.1,0.6,0.3l0.3-1.6c0-0.1,0.1-0.2,0.2-0.2c0.1,0,0.2,0.1,0.2,0.2l-0.7,4
			c-0.1,0.6-0.7,1.1-1.2,1.1h-0.9c-0.3,0-0.5-0.1-0.7-0.3c-0.2-0.2-0.2-0.5-0.2-0.8l0.3-1.5C199.8,21.1,200.4,20.6,201,20.6z
			 M199.8,23.2c-0.1,0.4,0.2,0.7,0.6,0.7h0.9c0.4,0,0.7-0.3,0.8-0.7l0.3-1.5c0.1-0.4-0.2-0.7-0.6-0.7h-0.9c-0.4,0-0.7,0.3-0.8,0.7
			L199.8,23.2z"/>
		<path class="st1" d="M204.1,24.3c-0.6,0-1-0.5-0.9-1.1l0.3-1.5c0.1-0.6,0.7-1.1,1.3-1.1h0.9c0.6,0,1,0.5,0.9,1.1l-0.1,0.8
			c0,0.1-0.1,0.2-0.2,0.2h-2.5l-0.1,0.6c-0.1,0.4,0.2,0.7,0.6,0.7h1.7c0.1,0,0.2,0.1,0.1,0.2c0,0.1-0.1,0.2-0.2,0.2L204.1,24.3z
			 M204.7,21c-0.4,0-0.8,0.3-0.8,0.7l-0.1,0.6h2.3l0.1-0.6c0.1-0.4-0.2-0.7-0.6-0.7H204.7z"/>
		<path class="st1" d="M208.5,24.1l0.9-4.9c0-0.1,0.1-0.2,0.2-0.2s0.2,0.1,0.1,0.2l-0.9,4.9c0,0.1-0.1,0.2-0.2,0.2
			C208.6,24.3,208.5,24.2,208.5,24.1z"/>
		<path class="st1" d="M210.7,24.3c-0.6,0-1-0.5-0.9-1.1s0.7-1.1,1.3-1.1h1.5l0.1-0.4c0.1-0.4-0.2-0.7-0.6-0.7h-1.5
			c-0.1,0-0.2-0.1-0.1-0.2c0-0.1,0.1-0.2,0.2-0.2h1.5c0.6,0,1,0.5,0.9,1.1l-0.4,2.4c0,0.1-0.1,0.2-0.2,0.2
			C212.5,24.3,210.7,24.3,210.7,24.3z M211.1,22.5c-0.4,0-0.8,0.3-0.8,0.7c-0.1,0.4,0.2,0.7,0.6,0.7h1.5l0.3-1.4
			C212.7,22.5,211.1,22.5,211.1,22.5z"/>
		<path class="st1" d="M213.5,24.3c-0.1,0-0.2-0.1-0.2-0.2s0.1-0.2,0.2-0.2h1.7c0.4,0,0.7-0.3,0.8-0.7c0.1-0.4-0.2-0.7-0.6-0.7h-1
			c-0.5,0-0.9-0.4-0.8-1c0.1-0.5,0.6-1,1.2-1h1.6c0.1,0,0.2,0.1,0.2,0.2s-0.1,0.2-0.2,0.2h-1.6c-0.3,0-0.7,0.3-0.7,0.6
			c-0.1,0.3,0.2,0.6,0.5,0.6h1c0.3,0,0.5,0.1,0.7,0.3c0.2,0.2,0.2,0.5,0.2,0.7c-0.1,0.6-0.6,1-1.2,1h-1.8V24.3z"/>
		<path class="st1" d="M171.8,32.9l0.8-4.7h-1.7c-0.1,0-0.2-0.1-0.2-0.2s0.1-0.2,0.2-0.2h3.9c0.1,0,0.2,0.1,0.2,0.2
			s-0.1,0.2-0.2,0.2H173l-0.8,4.7c0,0.1-0.1,0.2-0.2,0.2C171.9,33.1,171.8,33,171.8,32.9z"/>
		<path class="st1" d="M174,32.9l0.4-2.4c0-0.3,0.2-0.6,0.4-0.8c0.2-0.2,0.5-0.3,0.8-0.3h0.8c0.1,0,0.2,0.1,0.2,0.2
			s-0.1,0.2-0.2,0.2h-0.8c-0.4,0-0.8,0.3-0.8,0.7l-0.4,2.4c0,0.1-0.1,0.2-0.2,0.2C174.1,33.1,174,33,174,32.9z"/>
		<path class="st1" d="M177.7,33.1c-0.6,0-1-0.5-0.9-1.1s0.7-1.1,1.3-1.1h1.5l0.1-0.4c0.1-0.4-0.2-0.7-0.6-0.7h-1.5
			c-0.1,0-0.2-0.1-0.1-0.2c0-0.1,0.1-0.2,0.2-0.2h1.5c0.6,0,1,0.5,0.9,1.1l-0.4,2.4c0,0.1-0.1,0.2-0.2,0.2H177.7z M178,31.3
			c-0.4,0-0.8,0.3-0.8,0.7c-0.1,0.4,0.2,0.7,0.6,0.7h1.5l0.3-1.4C179.6,31.3,178,31.3,178,31.3z"/>
		<path class="st1" d="M183,32.9l0.4-2.4c0.1-0.4-0.2-0.7-0.6-0.7H182c-0.4,0-0.8,0.3-0.8,0.7l-0.4,2.4c0,0.1-0.1,0.2-0.2,0.2
			c-0.1,0-0.2-0.1-0.2-0.2l0.4-2.4c0-0.3,0.2-0.6,0.4-0.8c0.2-0.2,0.5-0.3,0.8-0.3h0.8c0.3,0,0.5,0.1,0.7,0.3
			c0.2,0.2,0.2,0.5,0.2,0.8l-0.4,2.4c0,0.1-0.1,0.2-0.2,0.2C183,33.1,182.9,33,183,32.9z"/>
		<path class="st1" d="M184.2,33.1c-0.1,0-0.2-0.1-0.2-0.2c0-0.1,0.1-0.2,0.2-0.2h1.7c0.4,0,0.7-0.3,0.8-0.7
			c0.1-0.4-0.2-0.7-0.6-0.7h-1c-0.5,0-0.9-0.4-0.8-1c0.1-0.5,0.6-1,1.2-1h1.6c0.1,0,0.2,0.1,0.2,0.2s-0.1,0.2-0.2,0.2h-1.6
			c-0.3,0-0.7,0.3-0.7,0.6c-0.1,0.3,0.2,0.6,0.5,0.6h1c0.3,0,0.5,0.1,0.7,0.3c0.2,0.2,0.2,0.5,0.2,0.7c-0.1,0.6-0.6,1-1.2,1h-1.8
			V33.1z"/>
		<path class="st1" d="M188.7,33.1c-0.6,0-1-0.5-0.9-1.1s0.7-1.1,1.3-1.1h1.5l0.1-0.4c0.1-0.4-0.2-0.7-0.6-0.7h-1.5
			c-0.1,0-0.2-0.1-0.1-0.2c0-0.1,0.1-0.2,0.2-0.2h1.5c0.6,0,1,0.5,0.9,1.1l-0.4,2.4c0,0.1-0.1,0.2-0.2,0.2H188.7z M189,31.3
			c-0.4,0-0.8,0.3-0.8,0.7c-0.1,0.4,0.2,0.7,0.6,0.7h1.5l0.3-1.4C190.6,31.3,189,31.3,189,31.3z"/>
		<path class="st1" d="M194.3,32.9c0,0.1-0.1,0.2-0.2,0.2h-1.6c-0.3,0-0.5-0.1-0.7-0.3s-0.2-0.5-0.2-0.8l0.3-1.5
			c0-0.3,0.2-0.6,0.4-0.8c0.2-0.2,0.5-0.3,0.8-0.3h1.6c0.1,0,0.2,0.1,0.2,0.2s-0.1,0.2-0.2,0.2H193c-0.4,0-0.8,0.3-0.8,0.7l-0.3,1.5
			c-0.1,0.4,0.2,0.7,0.6,0.7h1.6C194.2,32.8,194.3,32.8,194.3,32.9z"/>
		<path class="st1" d="M197.9,32.9c0,0.1-0.1,0.2-0.2,0.2h-1.6c-0.3,0-0.5-0.1-0.7-0.3s-0.2-0.5-0.2-0.8l0.3-1.5
			c0-0.3,0.2-0.6,0.4-0.8c0.2-0.2,0.5-0.3,0.8-0.3h1.6c0.1,0,0.2,0.1,0.2,0.2s-0.1,0.2-0.2,0.2h-1.6c-0.4,0-0.8,0.3-0.8,0.7
			l-0.3,1.5c-0.1,0.4,0.2,0.7,0.6,0.7h1.6C197.8,32.8,197.9,32.8,197.9,32.9z"/>
		<path class="st1" d="M198.6,32.9l0.6-3.3c0-0.1,0.1-0.2,0.2-0.2c0.1,0,0.2,0.1,0.2,0.2l-0.6,3.3c0,0.1-0.1,0.2-0.2,0.2
			C198.7,33.1,198.6,33,198.6,32.9z M199.4,28.5c0-0.1,0.2-0.2,0.3-0.2s0.2,0.1,0.2,0.2s-0.1,0.2-0.3,0.2S199.3,28.6,199.4,28.5z"/>
		<path class="st1" d="M200.9,33.1c-0.6,0-1-0.5-0.9-1.1l0.3-1.5c0-0.3,0.2-0.6,0.4-0.8c0.2-0.2,0.5-0.3,0.8-0.3h1
			c0.6,0,1,0.5,0.9,1.1l-0.3,1.5c0,0.3-0.2,0.6-0.4,0.8s-0.5,0.3-0.8,0.3H200.9z M201.5,29.8c-0.4,0-0.8,0.3-0.8,0.7l-0.3,1.5
			c-0.1,0.4,0.2,0.7,0.6,0.7h1c0.4,0,0.8-0.3,0.8-0.7l0.3-1.5c0.1-0.4-0.2-0.7-0.6-0.7H201.5z"/>
		<path class="st1" d="M206.3,32.9l0.4-2.4c0.1-0.4-0.2-0.7-0.6-0.7h-0.8c-0.4,0-0.8,0.3-0.8,0.7l-0.4,2.4c0,0.1-0.1,0.2-0.2,0.2
			c-0.1,0-0.2-0.1-0.2-0.2l0.4-2.4c0-0.3,0.2-0.6,0.4-0.8c0.2-0.2,0.5-0.3,0.8-0.3h0.8c0.3,0,0.5,0.1,0.7,0.3
			c0.2,0.2,0.2,0.5,0.2,0.8l-0.4,2.4c0,0.1-0.1,0.2-0.2,0.2C206.4,33.1,206.3,33,206.3,32.9z"/>
		<path class="st1" d="M208.5,33.1c-0.6,0-1-0.5-0.9-1.1l0.3-1.5c0.1-0.6,0.7-1.1,1.3-1.1h0.9c0.6,0,1,0.5,0.9,1.1l-0.1,0.8
			c0,0.1-0.1,0.2-0.2,0.2H208l-0.1,0.6c-0.1,0.4,0.2,0.7,0.6,0.7h1.7c0.1,0,0.2,0.1,0.1,0.2c0,0.1-0.1,0.2-0.2,0.2L208.5,33.1z
			 M209,29.8c-0.4,0-0.8,0.3-0.8,0.7l-0.1,0.6h2.3l0.1-0.6c0.1-0.4-0.2-0.7-0.6-0.7H209z"/>
		<path class="st1" d="M211.3,33.1c-0.1,0-0.2-0.1-0.2-0.2c0-0.1,0.1-0.2,0.2-0.2h1.7c0.4,0,0.7-0.3,0.8-0.7
			c0.1-0.4-0.2-0.7-0.6-0.7h-1c-0.5,0-0.9-0.4-0.8-1c0.1-0.5,0.6-1,1.2-1h1.6c0.1,0,0.2,0.1,0.2,0.2s-0.1,0.2-0.2,0.2h-1.6
			c-0.3,0-0.7,0.3-0.7,0.6c-0.1,0.3,0.2,0.6,0.5,0.6h1c0.3,0,0.5,0.1,0.7,0.3c0.2,0.2,0.2,0.5,0.2,0.7c-0.1,0.6-0.6,1-1.2,1h-1.8
			V33.1z"/>
		<path class="st1" d="M169.8,42c-0.4,0-0.7-0.2-0.9-0.4s-0.3-0.6-0.2-1l0.4-2.4c0.1-0.4,0.3-0.7,0.6-1s0.7-0.4,1.1-0.4h2.2
			c0.1,0,0.2,0.1,0.2,0.2c0,0.1-0.1,0.2-0.2,0.2h-2.2c-0.6,0-1.1,0.5-1.2,1l-0.2,1h3c0.1,0,0.2,0.1,0.2,0.2c0,0.1-0.1,0.2-0.2,0.2
			h-3l-0.2,1c-0.1,0.6,0.3,1,0.8,1h2.2c0.1,0,0.2,0.1,0.2,0.2c0,0.1-0.1,0.2-0.2,0.2H169.8z"/>
		<path class="st1" d="M173,41.8l0.9-4.9c0-0.1,0.1-0.2,0.2-0.2c0.1,0,0.2,0.1,0.1,0.2l-0.9,4.9c0,0.1-0.1,0.2-0.2,0.2
			C173.1,42,173,41.9,173,41.8z"/>
		<path class="st1" d="M175.2,42c-0.6,0-1-0.5-0.9-1.1l0.3-1.5c0.1-0.6,0.7-1.1,1.3-1.1h0.9c0.6,0,1,0.5,0.9,1.1l-0.1,0.8
			c0,0.1-0.1,0.2-0.2,0.2h-2.5l-0.1,0.6c-0.1,0.4,0.2,0.7,0.6,0.7h1.7c0.1,0,0.2,0.1,0.1,0.2c0,0.1-0.1,0.2-0.2,0.2L175.2,42z
			 M175.8,38.6c-0.4,0-0.8,0.3-0.8,0.7l-0.1,0.6h2.3l0.1-0.6c0.1-0.4-0.2-0.7-0.6-0.7H175.8z"/>
		<path class="st1" d="M180.7,41.8c0,0.1-0.1,0.2-0.2,0.2h-1.6c-0.3,0-0.5-0.1-0.7-0.3s-0.2-0.5-0.2-0.8l0.3-1.5
			c0-0.3,0.2-0.6,0.4-0.8s0.5-0.3,0.8-0.3h1.6c0.1,0,0.2,0.1,0.2,0.2c0,0.1-0.1,0.2-0.2,0.2h-1.6c-0.4,0-0.8,0.3-0.8,0.7l-0.3,1.5
			c-0.1,0.4,0.2,0.7,0.6,0.7h1.6C180.7,41.6,180.7,41.7,180.7,41.8z"/>
		<path class="st1" d="M183.3,41.8c0,0.1-0.1,0.2-0.2,0.2H183c-0.6,0-1-0.5-0.9-1.1l0.4-2.3h-0.6c-0.1,0-0.2-0.1-0.2-0.2
			c0-0.1,0.1-0.2,0.2-0.2h0.6l0.1-0.7c0-0.1,0.1-0.2,0.2-0.2c0.1,0,0.2,0.1,0.2,0.2l-0.1,0.7h0.8c0.1,0,0.2,0.1,0.1,0.2l0,0
			c0,0.1-0.1,0.2-0.2,0.2h-0.8l-0.4,2.3c-0.1,0.4,0.2,0.7,0.6,0.7h0.1C183.3,41.6,183.3,41.7,183.3,41.8z"/>
		<path class="st1" d="M183.8,41.8l0.4-2.4c0-0.3,0.2-0.6,0.4-0.8s0.5-0.3,0.8-0.3h0.8c0.1,0,0.2,0.1,0.2,0.2c0,0.1-0.1,0.2-0.2,0.2
			h-0.8c-0.4,0-0.8,0.3-0.8,0.7l-0.4,2.4c0,0.1-0.1,0.2-0.2,0.2C183.9,42,183.8,41.9,183.8,41.8z"/>
		<path class="st1" d="M187.6,42c-0.6,0-1-0.5-0.9-1.1l0.3-1.5c0-0.3,0.2-0.6,0.4-0.8s0.5-0.3,0.8-0.3h1c0.6,0,1,0.5,0.9,1.1
			l-0.3,1.5c0,0.3-0.2,0.6-0.4,0.8s-0.5,0.3-0.8,0.3H187.6z M188.2,38.6c-0.4,0-0.8,0.3-0.8,0.7l-0.3,1.5c-0.1,0.4,0.2,0.7,0.6,0.7
			h1c0.4,0,0.8-0.3,0.8-0.7l0.3-1.5c0.1-0.4-0.2-0.7-0.6-0.7H188.2z M188.4,37.6C188.4,37.6,188.4,37.5,188.4,37.6
			c0-0.1,0-0.1,0-0.2c0,0,0.7-0.7,0.8-0.7h0.1h0.1v0.1c0,0,0,0.1-0.1,0.1l-0.8,0.6C188.5,37.6,188.5,37.6,188.4,37.6L188.4,37.6z"/>
		<path class="st1" d="M193,41.8l0.4-2.4c0.1-0.4-0.2-0.7-0.6-0.7H192c-0.4,0-0.8,0.3-0.8,0.7l-0.4,2.4c0,0.1-0.1,0.2-0.2,0.2
			c-0.1,0-0.2-0.1-0.2-0.2l0.4-2.4c0-0.3,0.2-0.6,0.4-0.8s0.5-0.3,0.8-0.3h0.8c0.3,0,0.5,0.1,0.7,0.3s0.2,0.5,0.2,0.8l-0.4,2.4
			c0,0.1-0.1,0.2-0.2,0.2C193,42,193,41.9,193,41.8z"/>
		<path class="st1" d="M194.2,41.8l0.6-3.3c0-0.1,0.1-0.2,0.2-0.2c0.1,0,0.2,0.1,0.2,0.2l-0.6,3.3c0,0.1-0.1,0.2-0.2,0.2
			S194.2,41.9,194.2,41.8z M194.9,37.3c0-0.1,0.2-0.2,0.3-0.2s0.2,0.1,0.2,0.2c0,0.1-0.1,0.2-0.3,0.2
			C195,37.6,194.9,37.5,194.9,37.3z"/>
		<path class="st1" d="M198.3,41.8c0,0.1-0.1,0.2-0.2,0.2h-1.6c-0.3,0-0.5-0.1-0.7-0.3s-0.2-0.5-0.2-0.8l0.3-1.5
			c0-0.3,0.2-0.6,0.4-0.8s0.5-0.3,0.8-0.3h1.6c0.1,0,0.2,0.1,0.2,0.2c0,0.1-0.1,0.2-0.2,0.2H197c-0.4,0-0.8,0.3-0.8,0.7l-0.3,1.5
			c-0.1,0.4,0.2,0.7,0.6,0.7h1.6C198.3,41.6,198.3,41.7,198.3,41.8z"/>
		<path class="st1" d="M199.9,42c-0.6,0-1-0.5-0.9-1.1s0.7-1.1,1.3-1.1h1.5l0.1-0.4c0.1-0.4-0.2-0.7-0.6-0.7h-1.5
			c-0.1,0-0.2-0.1-0.1-0.2c0-0.1,0.1-0.2,0.2-0.2h1.5c0.6,0,1,0.5,0.9,1.1l-0.4,2.4c0,0.1-0.1,0.2-0.2,0.2H199.9z M200.3,40.2
			c-0.4,0-0.8,0.3-0.8,0.7c-0.1,0.4,0.2,0.7,0.6,0.7h1.5l0.3-1.4H200.3z"/>
		<path class="st1" d="M202.7,42c-0.1,0-0.2-0.1-0.2-0.2c0-0.1,0.1-0.2,0.2-0.2h1.7c0.4,0,0.7-0.3,0.8-0.7s-0.2-0.7-0.6-0.7h-1
			c-0.5,0-0.9-0.4-0.8-1c0.1-0.5,0.6-1,1.2-1h1.6c0.1,0,0.2,0.1,0.2,0.2c0,0.1-0.1,0.2-0.2,0.2H204c-0.3,0-0.7,0.3-0.7,0.6
			c-0.1,0.3,0.2,0.6,0.5,0.6h1c0.3,0,0.5,0.1,0.7,0.3s0.2,0.5,0.2,0.7c-0.1,0.6-0.6,1-1.2,1h-1.8V42z"/>
	</g>
	<g>
		<path class="st1" d="M103.7,36.1c-3.5,0-5.9-2.9-5.3-6.4c0.7-3.6,4-6.4,7.6-6.4h9.1l0.5-2.7c0.4-2.3-1.2-4.2-3.5-4.2h-8.9
			c-0.6,0-1-0.5-0.9-1.1s0.7-1.1,1.2-1.1h8.9c3.5,0,5.9,2.9,5.3,6.4L115.2,35c-0.1,0.6-0.6,1.1-1.2,1.1H103.7z M105.6,25.4
			c-2.4,0-4.6,1.9-5,4.3c-0.4,2.3,1.2,4.2,3.5,4.2h9.1l1.5-8.5C114.7,25.4,105.6,25.4,105.6,25.4z"/>
		<path class="st1" d="M134.5,35c-0.1,0.6-0.7,1.1-1.3,1.1h-9.8c-1.7,0-3.2-0.7-4.1-1.9c-1-1.2-1.4-2.9-1.1-4.5l1.6-9.1
			c0.3-1.7,1.2-3.3,2.6-4.5s3.1-1.9,4.8-1.9h9.8c0.6,0,1,0.4,0.9,1.1c-0.1,0.6-0.7,1.1-1.3,1.1h-9.8c-2.4,0-4.6,1.9-5,4.2l-1.6,9.1
			c-0.4,2.3,1.2,4.2,3.5,4.2h9.8C134.2,33.9,134.6,34.4,134.5,35z"/>
		<path class="st1" d="M156.8,20.5l-2.6,14.4c-0.1,0.6-0.7,1.1-1.3,1.1s-1.1-0.5-1-1.1l2.6-14.4c0.4-2.3-1.1-4.1-3.4-4.1H146
			c-2.3,0-4.4,1.8-4.8,4.1l-2.6,14.4c-0.1,0.6-0.7,1.1-1.3,1.1s-1.1-0.5-1-1.1l5.1-29.1c0.1-0.6,0.7-1.1,1.3-1.1s1.1,0.5,0.9,1.1
			l-1.7,9.8c1.3-0.9,2.8-1.5,4.4-1.5h5.2C155.1,14.1,157.4,17,156.8,20.5z"/>
	</g>
	<g>
		<ellipse class="st1" cx="67.7" cy="25" rx="2.2" ry="2.2"/>
		<ellipse class="st1" cx="72" cy="18.5" rx="2.2" ry="2.2"/>
		<ellipse class="st1" cx="72" cy="5.1" rx="1.8" ry="1.8"/>
		<ellipse class="st1" cx="72" cy="31.8" rx="1.8" ry="1.8"/>
		<ellipse class="st1" cx="72" cy="44.9" rx="1.8" ry="1.8"/>
		<ellipse class="st1" cx="76.4" cy="11.6" rx="2.2" ry="2.2"/>
		<ellipse class="st1" cx="76.4" cy="38.1" rx="1.8" ry="1.8"/>
		<ellipse class="st1" cx="80.7" cy="5.1" rx="2.2" ry="2.2"/>
		<ellipse class="st1" cx="80.7" cy="31.8" rx="2.2" ry="2.2"/>
		<ellipse class="st1" cx="80.7" cy="44.9" rx="2.2" ry="2.2"/>
		<ellipse class="st1" cx="85" cy="11.6" rx="2.2" ry="2.2"/>
		<ellipse class="st1" cx="85" cy="38.1" rx="2.2" ry="2.2"/>
		<ellipse class="st1" cx="63.4" cy="18.5" rx="1.8" ry="1.8"/>
		<ellipse class="st1" cx="63.4" cy="5.1" rx="1.3" ry="1.3"/>
		<ellipse class="st1" cx="63.4" cy="44.6" rx="1.3" ry="1.3"/>
		<ellipse class="st1" cx="63.4" cy="31.8" rx="1.8" ry="1.8"/>
		<ellipse class="st1" cx="67.7" cy="11.6" rx="1.8" ry="1.8"/>
		<ellipse class="st1" cx="54.7" cy="18.5" rx="1.3" ry="1.3"/>
		<ellipse class="st1" cx="59" cy="11.6" rx="1.3" ry="1.3"/>
		<ellipse class="st1" cx="54.7" cy="31.8" rx="1.3" ry="1.3"/>
		<ellipse class="st1" cx="59" cy="38.1" rx="1.1" ry="1.1"/>
		<ellipse class="st1" cx="67.7" cy="38.1" rx="1.3" ry="1.3"/>
		<ellipse class="st1" cx="59" cy="25" rx="1.8" ry="1.8"/>
		<ellipse class="st1" cx="48.2" cy="18.5" rx="0.7" ry="0.7"/>
		<ellipse class="st1" cx="48.2" cy="31.8" rx="0.7" ry="0.7"/>
		<ellipse class="st1" cx="52.5" cy="11.6" rx="0.7" ry="0.7"/>
		<ellipse class="st1" cx="52.5" cy="25" rx="1.3" ry="1.3"/>
		<ellipse class="st1" cx="46" cy="25" rx="0.7" ry="0.7"/>
		<ellipse class="st1" cx="52.5" cy="38.1" rx="0.7" ry="0.7"/>
	</g>
	<g>
		<path class="st1" d="M96.6,45.2c-0.3,0-0.5-0.1-0.7-0.3s-0.2-0.5-0.2-0.8l0.3-1.6c0.1-0.3,0.2-0.6,0.5-0.8
			c0.2-0.2,0.5-0.3,0.8-0.3h1.4c0.2,0,0.3,0.1,0.2,0.3c0,0.2-0.2,0.3-0.3,0.3h-1.4c-0.3,0-0.6,0.2-0.6,0.5l-0.3,1.6
			c0,0.3,0.1,0.5,0.4,0.5h1.4c0.2,0,0.3,0.1,0.2,0.3c0,0.2-0.2,0.3-0.3,0.3H96.6z"/>
		<path class="st1" d="M104.3,45.2c-0.3,0-0.5-0.1-0.7-0.3s-0.2-0.5-0.2-0.8l0.3-1.6c0.1-0.3,0.2-0.6,0.5-0.8
			c0.2-0.2,0.5-0.3,0.8-0.3h0.9c0.3,0,0.5,0.1,0.7,0.3s0.2,0.5,0.2,0.8l-0.3,1.6c0,0.3-0.2,0.6-0.4,0.8c-0.2,0.2-0.5,0.3-0.8,0.3
			H104.3z M104.9,41.9c-0.3,0-0.6,0.2-0.6,0.5L104,44c0,0.3,0.1,0.5,0.4,0.5h0.9c0.3,0,0.6-0.2,0.6-0.5l0.3-1.6
			c0.1-0.3-0.1-0.5-0.4-0.5H104.9z"/>
		<path class="st1" d="M111.7,45.2c-0.2,0-0.3-0.1-0.2-0.3l0.6-3.3c0-0.2,0.2-0.3,0.3-0.3c0.2,0,0.3,0.1,0.2,0.3l-0.5,3h1.8
			c0.2,0,0.3,0.1,0.2,0.3c0,0.2-0.2,0.3-0.3,0.3H111.7z"/>
		<path class="st1" d="M119.9,45.2c-0.3,0-0.5-0.1-0.7-0.3s-0.2-0.5-0.2-0.8l0.3-1.6c0.1-0.3,0.2-0.6,0.5-0.8
			c0.2-0.2,0.5-0.3,0.8-0.3h0.9c0.3,0,0.5,0.1,0.7,0.3s0.2,0.5,0.2,0.8l-0.3,1.6c0,0.3-0.2,0.6-0.4,0.8c-0.2,0.2-0.5,0.3-0.8,0.3
			H119.9z M120.5,41.9c-0.3,0-0.6,0.2-0.6,0.5l-0.3,1.6c0,0.3,0.1,0.5,0.4,0.5h0.9c0.3,0,0.6-0.2,0.6-0.5l0.3-1.6
			c0.1-0.3-0.1-0.5-0.4-0.5H120.5z"/>
		<path class="st1" d="M130.1,44.9l0.4-2.3l-1.3,1.6c-0.1,0.1-0.2,0.1-0.3,0.1s-0.2,0-0.2-0.1l-0.7-1.6l-0.4,2.3
			c0,0.2-0.2,0.3-0.3,0.3c-0.2,0-0.3-0.1-0.2-0.3l0.6-3.3c0-0.2,0.2-0.3,0.3-0.3s0.2,0,0.2,0.1l0.9,2l1.6-2c0.1-0.1,0.2-0.1,0.3-0.1
			c0.2,0,0.3,0.1,0.2,0.3l-0.6,3.3c0,0.2-0.2,0.3-0.3,0.3S130,45,130.1,44.9z"/>
		<path class="st1" d="M135.9,45.2c-0.2,0-0.3-0.1-0.2-0.3l0.6-3.3c0-0.2,0.2-0.3,0.3-0.3h1.6c0.3,0,0.5,0.1,0.7,0.3
			s0.2,0.5,0.2,0.8c0,0.2-0.1,0.3-0.2,0.5c-0.1,0.1-0.2,0.3-0.3,0.4l0,0c0.1,0.1,0.2,0.2,0.2,0.4c0,0.1,0,0.3,0,0.4
			c0,0.3-0.2,0.6-0.4,0.8s-0.5,0.3-0.8,0.3C137.6,45.2,135.9,45.2,135.9,45.2z M137.7,44.6c0.3,0,0.6-0.2,0.6-0.5
			c0.1-0.3-0.1-0.5-0.4-0.5h-1.4l-0.2,1.1L137.7,44.6L137.7,44.6z M137.9,43c0.3,0,0.6-0.2,0.6-0.5c0.1-0.3-0.1-0.5-0.4-0.5h-1.4
			l-0.2,1.1L137.9,43L137.9,43z"/>
		<path class="st1" d="M143.8,44.9l0.6-3.3c0-0.2,0.2-0.3,0.3-0.3c0.2,0,0.3,0.1,0.2,0.3l-0.6,3.3c0,0.2-0.2,0.3-0.3,0.3
			S143.8,45,143.8,44.9z"/>
		<path class="st1" d="M151.8,44.9l0.2-1.2h-1.8l-0.2,1.2c0,0.2-0.2,0.3-0.3,0.3c-0.2,0-0.3-0.1-0.2-0.3l0.4-2.4
			c0.1-0.3,0.2-0.6,0.5-0.8c0.2-0.2,0.5-0.3,0.8-0.3h0.7c0.3,0,0.5,0.1,0.7,0.3s0.2,0.5,0.2,0.8l-0.4,2.4c0,0.2-0.2,0.3-0.3,0.3
			C151.9,45.2,151.8,45,151.8,44.9z M152.1,43.1l0.1-0.7c0.1-0.3-0.1-0.5-0.4-0.5h-0.7c-0.3,0-0.6,0.2-0.6,0.5l-0.1,0.7H152.1z"/>
	</g>
</g>
</svg>
