<?xml version="1.0" encoding="utf-8"?>
<!-- Generator: Adobe Illustrator 22.1.0, SVG Export Plug-In . SVG Version: 6.00 Build 0)  -->
<svg version="1.1" id="Layer_1" xmlns="http://www.w3.org/2000/svg" xmlns:xlink="http://www.w3.org/1999/xlink" x="0px" y="0px"
	 viewBox="0 0 262 50" style="enable-background:new 0 0 262 50;" xml:space="preserve">
<style type="text/css">
	.st0{opacity:0.8;}
	.st1{clip-path:url(#SVGID_2_);}
	.st2{clip-path:url(#SVGID_4_);fill:#FFFFFF;}
	.st3{fill:#FFFFFF;}
</style>
<g class="st0">
	<g>
		<defs>
			<path id="SVGID_1_" d="M90.6,17.5c0.1,0.1,0.2,0.1,0.3,0.1c0.1,0,0.2,0,0.3-0.1c1.4-1.4,7.6-7.6,9-9c0.1-0.1,0.1-0.2,0.1-0.3
				c0-0.1,0-0.2-0.1-0.3c-0.5-0.5-1.3-1.3-1.8-1.8c-0.2-0.2-0.4-0.2-0.6,0c-1.1,1.1-4.8,4.8-6.3,6.3c-0.2,0.2-0.4,0.2-0.6,0.2
				c-0.2,0-0.4-0.1-0.6-0.2c-1.7-1.7-6.7-6.7-8.4-8.4c-0.3-0.3-0.3-0.9,0-1.2c0.4-0.4,0.8-0.8,1.2-1.2c0.3-0.3,0.9-0.3,1.2,0
				c1.5,1.5,5.2,5.2,6.3,6.3c0.2,0.2,0.4,0.2,0.6,0c1.1-1.1,4.8-4.8,6.3-6.3c0.3-0.3,0.9-0.3,1.2,0c1.4,1.4,4.6,4.6,6,6
				c0.3,0.3,0.3,0.9,0,1.2c-2.3,2.3-10.8,10.8-13.2,13.2c-0.3,0.3-0.9,0.3-1.2,0c-2.3-2.3-10.8-10.8-13.2-13.2
				c-0.3-0.3-0.3-0.9,0-1.2c0.4-0.4,0.8-0.8,1.2-1.2c0.2-0.2,0.4-0.2,0.6-0.2c0.2,0,0.4,0.1,0.6,0.2C81.6,8.6,89,15.9,90.6,17.5z
				 M98.4,24.7c-0.1,0.1-0.1,0.2-0.1,0.3c0,0.1,0,0.2,0.1,0.3c1.4,1.4,7.6,7.5,9,9c0.1,0.1,0.2,0.1,0.3,0.1c0.1,0,0.2,0,0.3-0.1
				c0.5-0.5,1.3-1.3,1.8-1.8c0.2-0.2,0.2-0.4,0-0.6c-1.1-1.1-4.8-4.8-6.3-6.3c-0.2-0.2-0.2-0.4-0.2-0.6c0-0.2,0.1-0.4,0.2-0.6
				c1.7-1.7,6.7-6.7,8.4-8.4c0.3-0.3,0.9-0.3,1.2,0c0.4,0.4,0.8,0.8,1.2,1.2c0.3,0.3,0.3,0.9,0,1.2c-1.5,1.5-5.2,5.2-6.3,6.3
				c-0.2,0.2-0.2,0.4,0,0.6c1.1,1.1,4.8,4.8,6.3,6.3c0.3,0.3,0.3,0.9,0,1.2c-1.4,1.4-4.6,4.6-6,6c-0.3,0.3-0.9,0.3-1.2,0L93.9,25.6
				c-0.3-0.3-0.3-0.9,0-1.2c2.3-2.3,10.8-10.8,13.2-13.2c0.3-0.3,0.9-0.3,1.2,0c0.4,0.4,0.8,0.8,1.2,1.2c0.2,0.2,0.2,0.4,0.2,0.6
				s-0.1,0.4-0.2,0.6C107.3,15.8,99.9,23.1,98.4,24.7z M91.2,32.5c-0.1-0.1-0.2-0.1-0.3-0.1c-0.1,0-0.2,0-0.3,0.1
				c-1.4,1.4-7.6,7.6-9,9c-0.1,0.1-0.1,0.2-0.1,0.3c0,0.1,0,0.2,0.1,0.3c0.5,0.5,1.3,1.3,1.8,1.8c0.2,0.2,0.4,0.2,0.6,0
				c1.1-1.1,4.8-4.8,6.3-6.3c0.2-0.2,0.4-0.2,0.6-0.2c0.2,0,0.4,0.1,0.6,0.2c1.7,1.7,6.7,6.7,8.4,8.4c0.3,0.3,0.3,0.9,0,1.2
				c-0.4,0.4-0.8,0.8-1.2,1.2c-0.3,0.3-0.9,0.3-1.2,0c-1.5-1.5-5.2-5.2-6.3-6.3c-0.2-0.2-0.4-0.2-0.6,0c-1.1,1.1-4.8,4.8-6.3,6.3
				c-0.3,0.3-0.9,0.3-1.2,0c-1.4-1.4-4.6-4.6-6-6c-0.3-0.3-0.3-0.9,0-1.2c2.3-2.3,10.8-10.8,13.2-13.2c0.3-0.3,0.9-0.3,1.2,0
				c2.3,2.3,10.8,10.8,13.2,13.2c0.3,0.3,0.3,0.9,0,1.2c-0.4,0.4-0.8,0.8-1.2,1.2c-0.2,0.2-0.4,0.2-0.6,0.2c-0.2,0-0.4-0.1-0.6-0.2
				C100.1,41.4,92.7,34.1,91.2,32.5z M83.4,25.3c0.1-0.1,0.1-0.2,0.1-0.3c0-0.1,0-0.2-0.1-0.3c-1.4-1.4-7.6-7.5-9-9
				c-0.1-0.1-0.2-0.1-0.3-0.1c-0.1,0-0.2,0-0.3,0.1c-0.5,0.5-1.3,1.3-1.8,1.8c-0.2,0.2-0.2,0.4,0,0.6c1.1,1.1,4.8,4.8,6.3,6.3
				c0.2,0.2,0.2,0.4,0.2,0.6c0,0.2-0.1,0.4-0.2,0.6c-1.7,1.7-6.7,6.7-8.4,8.4c-0.3,0.3-0.9,0.3-1.2,0c-0.4-0.4-0.8-0.8-1.2-1.2
				c-0.3-0.3-0.3-0.9,0-1.2c1.5-1.5,5.2-5.2,6.3-6.3c0.2-0.2,0.2-0.4,0-0.6c-1.1-1.1-4.8-4.8-6.3-6.3c-0.3-0.3-0.3-0.9,0-1.2
				c1.4-1.4,4.6-4.6,6-6c0.3-0.3,0.9-0.3,1.2,0c2.3,2.3,10.8,10.8,13.2,13.2c0.3,0.3,0.3,0.9,0,1.2C85.5,27.9,77,36.4,74.7,38.8
				c-0.3,0.3-0.9,0.3-1.2,0c-0.4-0.4-0.8-0.8-1.2-1.2c-0.2-0.2-0.2-0.4-0.2-0.6s0.1-0.4,0.2-0.6C74.5,34.2,81.8,26.9,83.4,25.3z"/>
		</defs>
		<use xlink:href="#SVGID_1_"  style="overflow:visible;fill-rule:evenodd;clip-rule:evenodd;fill:#FFFFFF;"/>
		<clipPath id="SVGID_2_">
			<use xlink:href="#SVGID_1_"  style="overflow:visible;"/>
		</clipPath>
		<g class="st1">
			<defs>
				<rect id="SVGID_3_" x="-152.6" y="-61.8" width="416.5" height="643.6"/>
			</defs>
			<use xlink:href="#SVGID_3_"  style="overflow:visible;fill:#FFFFFF;"/>
			<clipPath id="SVGID_4_">
				<use xlink:href="#SVGID_3_"  style="overflow:visible;"/>
			</clipPath>
			<rect x="64.6" y="-1.2" class="st2" width="52.5" height="52.4"/>
		</g>
	</g>
	<g>
		<path class="st3" d="M123.9,38.4c-0.2-0.2-0.2-0.4-0.2-0.6l0-25.8c0-0.3,0.1-0.5,0.2-0.6c0.2-0.2,0.4-0.3,0.6-0.3h1.9
			c0.3,0,0.5,0.1,0.6,0.3c0.2,0.2,0.2,0.4,0.2,0.6l0,23.4h10.4c0.3,0,0.5,0.1,0.7,0.3c0.2,0.2,0.3,0.4,0.3,0.6v1.5
			c0,0.3-0.1,0.5-0.3,0.6c-0.2,0.2-0.4,0.3-0.7,0.3h-13.2C124.3,38.6,124.1,38.5,123.9,38.4z"/>
		<path class="st3" d="M142.3,36.6c-1.3-1.6-2-3.7-2-6.4v-11c0-0.3,0.1-0.5,0.3-0.6c0.2-0.2,0.4-0.3,0.6-0.3h1.8
			c0.3,0,0.5,0.1,0.6,0.3c0.2,0.2,0.3,0.4,0.3,0.6V30c0,4,1.7,6,5.1,6c1.7,0,3-0.5,3.9-1.6c1-1.1,1.5-2.5,1.5-4.4V19.2
			c0-0.3,0.1-0.5,0.3-0.6c0.2-0.2,0.4-0.3,0.6-0.3h1.8c0.3,0,0.5,0.1,0.6,0.3c0.2,0.2,0.3,0.4,0.3,0.6v18.6c0,0.3-0.1,0.5-0.3,0.6
			c-0.2,0.2-0.4,0.3-0.6,0.3h-1.7c-0.3,0-0.5-0.1-0.6-0.3c-0.2-0.2-0.3-0.4-0.3-0.6V36c-0.7,1-1.6,1.8-2.6,2.3
			c-1,0.5-2.3,0.8-3.8,0.8C145.6,39,143.7,38.2,142.3,36.6z"/>
		<path class="st3" d="M161.6,38.4c-0.2-0.2-0.3-0.4-0.3-0.6l0-25.8c0-0.3,0.1-0.5,0.3-0.7c0.2-0.2,0.4-0.2,0.6-0.2h1.7
			c0.3,0,0.5,0.1,0.6,0.3c0.2,0.2,0.3,0.4,0.3,0.6l0,13.5l7.8-6.5c0.4-0.3,0.7-0.5,0.8-0.5c0.2-0.1,0.4-0.1,0.7-0.1h1.9
			c0.2,0,0.4,0.1,0.6,0.2c0.1,0.1,0.2,0.3,0.2,0.6c0,0.2-0.1,0.5-0.4,0.7l-9.1,7.5l10,9.7c0.3,0.3,0.4,0.5,0.4,0.7
			c0,0.2-0.1,0.4-0.2,0.6c-0.1,0.2-0.3,0.2-0.6,0.2h-1.9c-0.4,0-0.7,0-0.8-0.1c-0.2-0.1-0.4-0.3-0.7-0.5l-8.8-8.4v8.1
			c0,0.3-0.1,0.5-0.3,0.6c-0.2,0.2-0.4,0.3-0.6,0.3h-1.7C162,38.6,161.8,38.5,161.6,38.4z"/>
		<path class="st3" d="M181.1,38.2c-1.1-0.5-1.9-1.2-2.6-2.1c-0.6-0.9-1-1.9-1-3c0-1.7,0.7-3.1,2.1-4.2c1.4-1.1,3.3-1.8,5.7-2.2
			l5.8-0.8v-1.1c0-2.7-1.5-4-4.6-4c-1.2,0-2.1,0.2-2.9,0.7c-0.7,0.5-1.3,1.1-1.6,1.7c-0.1,0.3-0.2,0.4-0.3,0.5
			c-0.1,0.1-0.3,0.1-0.5,0.1h-1.5c-0.2,0-0.4-0.1-0.6-0.3c-0.2-0.2-0.3-0.4-0.3-0.6c0-0.6,0.3-1.3,0.8-2.1c0.6-0.8,1.4-1.5,2.6-2.1
			c1.2-0.6,2.6-0.9,4.3-0.9c2.9,0,5,0.7,6.2,2c1.3,1.4,1.9,3.1,1.9,5.1v12.7c0,0.3-0.1,0.5-0.3,0.6c-0.2,0.2-0.4,0.3-0.6,0.3h-1.7
			c-0.3,0-0.5-0.1-0.6-0.3c-0.2-0.2-0.2-0.4-0.2-0.6V36c-0.6,0.9-1.4,1.6-2.5,2.2c-1.1,0.6-2.5,0.9-4.2,0.9
			C183.4,39,182.2,38.8,181.1,38.2z M189.6,34.5c1.1-1.1,1.6-2.8,1.6-4.9v-1.1l-4.5,0.7c-1.9,0.3-3.3,0.7-4.2,1.3
			c-1,0.6-1.4,1.4-1.4,2.3c0,1.1,0.4,1.9,1.3,2.5c0.9,0.6,1.9,0.9,3.1,0.9C187.1,36.2,188.5,35.6,189.6,34.5z"/>
	</g>
</g>
</svg>
