<?xml version="1.0" encoding="utf-8"?>
<!-- Generator: Adobe Illustrator 22.1.0, SVG Export Plug-In . SVG Version: 6.00 Build 0)  -->
<svg version="1.1" id="Layer_1" xmlns="http://www.w3.org/2000/svg" xmlns:xlink="http://www.w3.org/1999/xlink" x="0px" y="0px"
	 viewBox="0 0 176.3 50" style="enable-background:new 0 0 176.3 50;" xml:space="preserve">
<style type="text/css">
	.st0{opacity:0.8;}
	.st1{fill:#FFFFFF;}
	.st2{fill:none;}
</style>
<g class="st0">
	<path class="st1" d="M30.8,19.3h8l3.8,5H26v1.2h20.8l-2.7,5.6h-4.8v1.2H45l3.5-6.8h8.4c0,0,0.7-0.9,1.4-1.2h-14l-4.6-6.2h-8.6
		L30.8,19.3z"/>
	<line class="st2" x1="123.9" y1="5.5" x2="116.8" y2="44.8"/>
	<g>
		<path class="st1" d="M129.8,24.3c-0.4,0-0.7-0.2-0.9-0.4c-0.2-0.3-0.3-0.6-0.2-1l0.4-2.4c0.1-0.4,0.3-0.7,0.6-1s0.7-0.4,1.1-0.4
			h2.2c0.1,0,0.2,0.1,0.2,0.2s-0.1,0.2-0.2,0.2h-2.2c-0.6,0-1.1,0.5-1.2,1l-0.2,1h3c0.1,0,0.2,0.1,0.2,0.2s-0.1,0.2-0.2,0.2h-3
			l-0.2,1c-0.1,0.6,0.3,1,0.8,1h2.2c0.1,0,0.2,0.1,0.2,0.2s-0.1,0.2-0.2,0.2C132.2,24.3,129.8,24.3,129.8,24.3z"/>
		<path class="st1" d="M133,24.1l0.9-4.9c0-0.1,0.1-0.2,0.2-0.2s0.2,0.1,0.1,0.2l-0.9,4.9c0,0.1-0.1,0.2-0.2,0.2
			C133.1,24.3,133,24.2,133,24.1z"/>
		<path class="st1" d="M140.7,24.1l0.7-4.2l-2.4,3c0,0.1-0.1,0.1-0.2,0.1s-0.1,0-0.2-0.1l-1.4-3l-0.7,4.2c0,0.1-0.1,0.2-0.2,0.2
			c-0.1,0-0.2-0.1-0.2-0.2l0.9-4.9c0-0.1,0.1-0.2,0.2-0.2c0.1,0,0.1,0,0.2,0.1l1.5,3.3l2.7-3.3c0-0.1,0.1-0.1,0.2-0.1
			c0.1,0,0.2,0.1,0.2,0.2l-0.9,4.9c0,0.1-0.1,0.2-0.2,0.2C140.7,24.3,140.7,24.2,140.7,24.1z"/>
		<path class="st1" d="M143,24.3c-0.6,0-1-0.5-0.9-1.1l0.3-1.5c0-0.3,0.2-0.6,0.4-0.8c0.2-0.2,0.5-0.3,0.8-0.3h1
			c0.6,0,1,0.5,0.9,1.1l-0.3,1.5c0,0.3-0.2,0.6-0.4,0.8c-0.2,0.2-0.5,0.3-0.8,0.3H143z M143.5,21c-0.4,0-0.8,0.3-0.8,0.7l-0.3,1.5
			c-0.1,0.4,0.2,0.7,0.6,0.7h1c0.4,0,0.8-0.3,0.8-0.7l0.3-1.5c0.1-0.4-0.2-0.7-0.6-0.7H143.5z"/>
		<path class="st1" d="M147.6,24.1c0,0.1-0.1,0.2-0.2,0.2h-0.1c-0.6,0-1-0.5-0.9-1.1l0.4-2.3h-0.6c-0.1,0-0.2-0.1-0.2-0.2
			s0.1-0.2,0.2-0.2h0.6l0.1-0.7c0-0.1,0.1-0.2,0.2-0.2c0.1,0,0.2,0.1,0.1,0.2l-0.1,0.7h0.8c0.1,0,0.2,0.1,0.1,0.2l0,0
			c0,0.1-0.1,0.2-0.2,0.2H147l-0.4,2.3c-0.1,0.4,0.2,0.7,0.6,0.7h0.1C147.5,23.9,147.6,24,147.6,24.1z"/>
		<path class="st1" d="M149.1,24.3c-0.6,0-1-0.5-0.9-1.1l0.3-1.5c0-0.3,0.2-0.6,0.4-0.8c0.2-0.2,0.5-0.3,0.8-0.3h1
			c0.6,0,1,0.5,0.9,1.1l-0.3,1.5c0,0.3-0.2,0.6-0.4,0.8c-0.2,0.2-0.5,0.3-0.8,0.3H149.1z M149.7,21c-0.4,0-0.8,0.3-0.8,0.7l-0.3,1.5
			c-0.1,0.4,0.2,0.7,0.6,0.7h1c0.4,0,0.8-0.3,0.8-0.7l0.3-1.5c0.1-0.4-0.2-0.7-0.6-0.7H149.7z"/>
		<path class="st1" d="M152,24.1l0.4-2.4c0-0.3,0.2-0.6,0.4-0.8c0.2-0.2,0.5-0.3,0.8-0.3h0.8c0.1,0,0.2,0.1,0.2,0.2
			s-0.1,0.2-0.2,0.2h-0.8c-0.4,0-0.8,0.3-0.8,0.7l-0.4,2.4c0,0.1-0.1,0.2-0.2,0.2C152,24.3,151.9,24.2,152,24.1z"/>
		<path class="st1" d="M158,20.6h0.9c0.3,0,0.5,0.1,0.6,0.3l0.3-1.6c0-0.1,0.1-0.2,0.2-0.2c0.1,0,0.2,0.1,0.2,0.2l-0.7,4
			c-0.1,0.6-0.7,1.1-1.2,1.1h-0.9c-0.3,0-0.5-0.1-0.7-0.3c-0.2-0.2-0.2-0.5-0.2-0.8l0.3-1.5C156.8,21.1,157.4,20.6,158,20.6z
			 M156.8,23.2c-0.1,0.4,0.2,0.7,0.6,0.7h0.9c0.4,0,0.7-0.3,0.8-0.7l0.3-1.5c0.1-0.4-0.2-0.7-0.6-0.7h-0.9c-0.4,0-0.7,0.3-0.8,0.7
			L156.8,23.2z"/>
		<path class="st1" d="M161.1,24.3c-0.6,0-1-0.5-0.9-1.1l0.3-1.5c0.1-0.6,0.7-1.1,1.3-1.1h0.9c0.6,0,1,0.5,0.9,1.1l-0.1,0.8
			c0,0.1-0.1,0.2-0.2,0.2h-2.5l-0.1,0.6c-0.1,0.4,0.2,0.7,0.6,0.7h1.7c0.1,0,0.2,0.1,0.1,0.2c0,0.1-0.1,0.2-0.2,0.2L161.1,24.3z
			 M161.7,21c-0.4,0-0.8,0.3-0.8,0.7l-0.1,0.6h2.3l0.1-0.6c0.1-0.4-0.2-0.7-0.6-0.7H161.7z"/>
		<path class="st1" d="M165.5,24.1l0.9-4.9c0-0.1,0.1-0.2,0.2-0.2s0.2,0.1,0.1,0.2l-0.9,4.9c0,0.1-0.1,0.2-0.2,0.2
			C165.6,24.3,165.5,24.2,165.5,24.1z"/>
		<path class="st1" d="M167.7,24.3c-0.6,0-1-0.5-0.9-1.1s0.7-1.1,1.3-1.1h1.5l0.1-0.4c0.1-0.4-0.2-0.7-0.6-0.7h-1.5
			c-0.1,0-0.2-0.1-0.1-0.2c0-0.1,0.1-0.2,0.2-0.2h1.5c0.6,0,1,0.5,0.9,1.1l-0.4,2.4c0,0.1-0.1,0.2-0.2,0.2
			C169.5,24.3,167.7,24.3,167.7,24.3z M168.1,22.5c-0.4,0-0.8,0.3-0.8,0.7c-0.1,0.4,0.2,0.7,0.6,0.7h1.5l0.3-1.4
			C169.7,22.5,168.1,22.5,168.1,22.5z"/>
		<path class="st1" d="M170.5,24.3c-0.1,0-0.2-0.1-0.2-0.2s0.1-0.2,0.2-0.2h1.7c0.4,0,0.7-0.3,0.8-0.7c0.1-0.4-0.2-0.7-0.6-0.7h-1
			c-0.5,0-0.9-0.4-0.8-1c0.1-0.5,0.6-1,1.2-1h1.6c0.1,0,0.2,0.1,0.2,0.2s-0.1,0.2-0.2,0.2h-1.6c-0.3,0-0.7,0.3-0.7,0.6
			c-0.1,0.3,0.2,0.6,0.5,0.6h1c0.3,0,0.5,0.1,0.7,0.3c0.2,0.2,0.2,0.5,0.2,0.7c-0.1,0.6-0.6,1-1.2,1h-1.8L170.5,24.3L170.5,24.3z"/>
		<path class="st1" d="M128.8,32.9l0.8-4.7h-1.7c-0.1,0-0.2-0.1-0.2-0.2s0.1-0.2,0.2-0.2h3.9c0.1,0,0.2,0.1,0.2,0.2
			s-0.1,0.2-0.2,0.2H130l-0.8,4.7c0,0.1-0.1,0.2-0.2,0.2C128.9,33.1,128.8,33,128.8,32.9z"/>
		<path class="st1" d="M131,32.9l0.4-2.4c0-0.3,0.2-0.6,0.4-0.8c0.2-0.2,0.5-0.3,0.8-0.3h0.8c0.1,0,0.2,0.1,0.2,0.2
			s-0.1,0.2-0.2,0.2h-0.8c-0.4,0-0.8,0.3-0.8,0.7l-0.4,2.4c0,0.1-0.1,0.2-0.2,0.2C131.1,33.1,131,33,131,32.9z"/>
		<path class="st1" d="M134.7,33.1c-0.6,0-1-0.5-0.9-1.1s0.7-1.1,1.3-1.1h1.5l0.1-0.4c0.1-0.4-0.2-0.7-0.6-0.7h-1.5
			c-0.1,0-0.2-0.1-0.1-0.2c0-0.1,0.1-0.2,0.2-0.2h1.5c0.6,0,1,0.5,0.9,1.1l-0.4,2.4c0,0.1-0.1,0.2-0.2,0.2H134.7z M135,31.3
			c-0.4,0-0.8,0.3-0.8,0.7c-0.1,0.4,0.2,0.7,0.6,0.7h1.5l0.3-1.4C136.6,31.3,135,31.3,135,31.3z"/>
		<path class="st1" d="M140,32.9l0.4-2.4c0.1-0.4-0.2-0.7-0.6-0.7H139c-0.4,0-0.8,0.3-0.8,0.7l-0.4,2.4c0,0.1-0.1,0.2-0.2,0.2
			c-0.1,0-0.2-0.1-0.2-0.2l0.4-2.4c0-0.3,0.2-0.6,0.4-0.8c0.2-0.2,0.5-0.3,0.8-0.3h0.8c0.3,0,0.5,0.1,0.7,0.3
			c0.2,0.2,0.2,0.5,0.2,0.8l-0.4,2.4c0,0.1-0.1,0.2-0.2,0.2C140,33.1,139.9,33,140,32.9z"/>
		<path class="st1" d="M141.2,33.1c-0.1,0-0.2-0.1-0.2-0.2c0-0.1,0.1-0.2,0.2-0.2h1.7c0.4,0,0.7-0.3,0.8-0.7
			c0.1-0.4-0.2-0.7-0.6-0.7h-1c-0.5,0-0.9-0.4-0.8-1c0.1-0.5,0.6-1,1.2-1h1.6c0.1,0,0.2,0.1,0.2,0.2s-0.1,0.2-0.2,0.2h-1.6
			c-0.3,0-0.7,0.3-0.7,0.6c-0.1,0.3,0.2,0.6,0.5,0.6h1c0.3,0,0.5,0.1,0.7,0.3c0.2,0.2,0.2,0.5,0.2,0.7c-0.1,0.6-0.6,1-1.2,1h-1.8
			L141.2,33.1L141.2,33.1z"/>
		<path class="st1" d="M145.7,33.1c-0.6,0-1-0.5-0.9-1.1s0.7-1.1,1.3-1.1h1.5l0.1-0.4c0.1-0.4-0.2-0.7-0.6-0.7h-1.5
			c-0.1,0-0.2-0.1-0.1-0.2c0-0.1,0.1-0.2,0.2-0.2h1.5c0.6,0,1,0.5,0.9,1.1l-0.4,2.4c0,0.1-0.1,0.2-0.2,0.2H145.7z M146,31.3
			c-0.4,0-0.8,0.3-0.8,0.7c-0.1,0.4,0.2,0.7,0.6,0.7h1.5l0.3-1.4C147.6,31.3,146,31.3,146,31.3z"/>
		<path class="st1" d="M151.3,32.9c0,0.1-0.1,0.2-0.2,0.2h-1.6c-0.3,0-0.5-0.1-0.7-0.3s-0.2-0.5-0.2-0.8l0.3-1.5
			c0-0.3,0.2-0.6,0.4-0.8c0.2-0.2,0.5-0.3,0.8-0.3h1.6c0.1,0,0.2,0.1,0.2,0.2s-0.1,0.2-0.2,0.2H150c-0.4,0-0.8,0.3-0.8,0.7l-0.3,1.5
			c-0.1,0.4,0.2,0.7,0.6,0.7h1.6C151.2,32.8,151.3,32.8,151.3,32.9z"/>
		<path class="st1" d="M154.9,32.9c0,0.1-0.1,0.2-0.2,0.2h-1.6c-0.3,0-0.5-0.1-0.7-0.3s-0.2-0.5-0.2-0.8l0.3-1.5
			c0-0.3,0.2-0.6,0.4-0.8c0.2-0.2,0.5-0.3,0.8-0.3h1.6c0.1,0,0.2,0.1,0.2,0.2s-0.1,0.2-0.2,0.2h-1.6c-0.4,0-0.8,0.3-0.8,0.7
			l-0.3,1.5c-0.1,0.4,0.2,0.7,0.6,0.7h1.6C154.8,32.8,154.9,32.8,154.9,32.9z"/>
		<path class="st1" d="M155.6,32.9l0.6-3.3c0-0.1,0.1-0.2,0.2-0.2c0.1,0,0.2,0.1,0.2,0.2l-0.6,3.3c0,0.1-0.1,0.2-0.2,0.2
			C155.7,33.1,155.6,33,155.6,32.9z M156.4,28.5c0-0.1,0.2-0.2,0.3-0.2s0.2,0.1,0.2,0.2s-0.1,0.2-0.3,0.2S156.3,28.6,156.4,28.5z"/>
		<path class="st1" d="M157.9,33.1c-0.6,0-1-0.5-0.9-1.1l0.3-1.5c0-0.3,0.2-0.6,0.4-0.8c0.2-0.2,0.5-0.3,0.8-0.3h1
			c0.6,0,1,0.5,0.9,1.1l-0.3,1.5c0,0.3-0.2,0.6-0.4,0.8s-0.5,0.3-0.8,0.3H157.9z M158.5,29.8c-0.4,0-0.8,0.3-0.8,0.7l-0.3,1.5
			c-0.1,0.4,0.2,0.7,0.6,0.7h1c0.4,0,0.8-0.3,0.8-0.7l0.3-1.5c0.1-0.4-0.2-0.7-0.6-0.7H158.5z"/>
		<path class="st1" d="M163.3,32.9l0.4-2.4c0.1-0.4-0.2-0.7-0.6-0.7h-0.8c-0.4,0-0.8,0.3-0.8,0.7l-0.4,2.4c0,0.1-0.1,0.2-0.2,0.2
			c-0.1,0-0.2-0.1-0.2-0.2l0.4-2.4c0-0.3,0.2-0.6,0.4-0.8c0.2-0.2,0.5-0.3,0.8-0.3h0.8c0.3,0,0.5,0.1,0.7,0.3
			c0.2,0.2,0.2,0.5,0.2,0.8l-0.4,2.4c0,0.1-0.1,0.2-0.2,0.2C163.4,33.1,163.3,33,163.3,32.9z"/>
		<path class="st1" d="M165.5,33.1c-0.6,0-1-0.5-0.9-1.1l0.3-1.5c0.1-0.6,0.7-1.1,1.3-1.1h0.9c0.6,0,1,0.5,0.9,1.1l-0.1,0.8
			c0,0.1-0.1,0.2-0.2,0.2H165l-0.1,0.6c-0.1,0.4,0.2,0.7,0.6,0.7h1.7c0.1,0,0.2,0.1,0.1,0.2c0,0.1-0.1,0.2-0.2,0.2L165.5,33.1z
			 M166,29.8c-0.4,0-0.8,0.3-0.8,0.7l-0.1,0.6h2.3l0.1-0.6c0.1-0.4-0.2-0.7-0.6-0.7H166z"/>
		<path class="st1" d="M168.3,33.1c-0.1,0-0.2-0.1-0.2-0.2c0-0.1,0.1-0.2,0.2-0.2h1.7c0.4,0,0.7-0.3,0.8-0.7
			c0.1-0.4-0.2-0.7-0.6-0.7h-1c-0.5,0-0.9-0.4-0.8-1c0.1-0.5,0.6-1,1.2-1h1.6c0.1,0,0.2,0.1,0.2,0.2s-0.1,0.2-0.2,0.2h-1.6
			c-0.3,0-0.7,0.3-0.7,0.6c-0.1,0.3,0.2,0.6,0.5,0.6h1c0.3,0,0.5,0.1,0.7,0.3c0.2,0.2,0.2,0.5,0.2,0.7c-0.1,0.6-0.6,1-1.2,1h-1.8
			L168.3,33.1L168.3,33.1z"/>
		<path class="st1" d="M126.8,42c-0.4,0-0.7-0.2-0.9-0.4s-0.3-0.6-0.2-1l0.4-2.4c0.1-0.4,0.3-0.7,0.6-1s0.7-0.4,1.1-0.4h2.2
			c0.1,0,0.2,0.1,0.2,0.2c0,0.1-0.1,0.2-0.2,0.2h-2.2c-0.6,0-1.1,0.5-1.2,1l-0.2,1h3c0.1,0,0.2,0.1,0.2,0.2c0,0.1-0.1,0.2-0.2,0.2
			h-3l-0.2,1c-0.1,0.6,0.3,1,0.8,1h2.2c0.1,0,0.2,0.1,0.2,0.2c0,0.1-0.1,0.2-0.2,0.2H126.8z"/>
		<path class="st1" d="M130,41.8l0.9-4.9c0-0.1,0.1-0.2,0.2-0.2c0.1,0,0.2,0.1,0.1,0.2l-0.9,4.9c0,0.1-0.1,0.2-0.2,0.2
			C130.1,42,130,41.9,130,41.8z"/>
		<path class="st1" d="M132.2,42c-0.6,0-1-0.5-0.9-1.1l0.3-1.5c0.1-0.6,0.7-1.1,1.3-1.1h0.9c0.6,0,1,0.5,0.9,1.1l-0.1,0.8
			c0,0.1-0.1,0.2-0.2,0.2h-2.5l-0.1,0.6c-0.1,0.4,0.2,0.7,0.6,0.7h1.7c0.1,0,0.2,0.1,0.1,0.2c0,0.1-0.1,0.2-0.2,0.2L132.2,42z
			 M132.8,38.6c-0.4,0-0.8,0.3-0.8,0.7l-0.1,0.6h2.3l0.1-0.6c0.1-0.4-0.2-0.7-0.6-0.7H132.8z"/>
		<path class="st1" d="M137.7,41.8c0,0.1-0.1,0.2-0.2,0.2h-1.6c-0.3,0-0.5-0.1-0.7-0.3s-0.2-0.5-0.2-0.8l0.3-1.5
			c0-0.3,0.2-0.6,0.4-0.8s0.5-0.3,0.8-0.3h1.6c0.1,0,0.2,0.1,0.2,0.2c0,0.1-0.1,0.2-0.2,0.2h-1.6c-0.4,0-0.8,0.3-0.8,0.7l-0.3,1.5
			c-0.1,0.4,0.2,0.7,0.6,0.7h1.6C137.7,41.6,137.7,41.7,137.7,41.8z"/>
		<path class="st1" d="M140.3,41.8c0,0.1-0.1,0.2-0.2,0.2H140c-0.6,0-1-0.5-0.9-1.1l0.4-2.3h-0.6c-0.1,0-0.2-0.1-0.2-0.2
			c0-0.1,0.1-0.2,0.2-0.2h0.6l0.1-0.7c0-0.1,0.1-0.2,0.2-0.2c0.1,0,0.2,0.1,0.2,0.2l-0.1,0.7h0.8c0.1,0,0.2,0.1,0.1,0.2l0,0
			c0,0.1-0.1,0.2-0.2,0.2h-0.8l-0.4,2.3c-0.1,0.4,0.2,0.7,0.6,0.7h0.1C140.3,41.6,140.3,41.7,140.3,41.8z"/>
		<path class="st1" d="M140.8,41.8l0.4-2.4c0-0.3,0.2-0.6,0.4-0.8s0.5-0.3,0.8-0.3h0.8c0.1,0,0.2,0.1,0.2,0.2c0,0.1-0.1,0.2-0.2,0.2
			h-0.8c-0.4,0-0.8,0.3-0.8,0.7l-0.4,2.4c0,0.1-0.1,0.2-0.2,0.2C140.9,42,140.8,41.9,140.8,41.8z"/>
		<path class="st1" d="M144.6,42c-0.6,0-1-0.5-0.9-1.1l0.3-1.5c0-0.3,0.2-0.6,0.4-0.8s0.5-0.3,0.8-0.3h1c0.6,0,1,0.5,0.9,1.1
			l-0.3,1.5c0,0.3-0.2,0.6-0.4,0.8s-0.5,0.3-0.8,0.3H144.6z M145.2,38.6c-0.4,0-0.8,0.3-0.8,0.7l-0.3,1.5c-0.1,0.4,0.2,0.7,0.6,0.7
			h1c0.4,0,0.8-0.3,0.8-0.7l0.3-1.5c0.1-0.4-0.2-0.7-0.6-0.7H145.2z M145.4,37.6C145.4,37.6,145.4,37.5,145.4,37.6
			c0-0.1,0-0.1,0-0.2c0,0,0.7-0.7,0.8-0.7h0.1h0.1v0.1c0,0,0,0.1-0.1,0.1l-0.8,0.6C145.5,37.6,145.5,37.6,145.4,37.6L145.4,37.6z"/>
		<path class="st1" d="M150,41.8l0.4-2.4c0.1-0.4-0.2-0.7-0.6-0.7H149c-0.4,0-0.8,0.3-0.8,0.7l-0.4,2.4c0,0.1-0.1,0.2-0.2,0.2
			c-0.1,0-0.2-0.1-0.2-0.2l0.4-2.4c0-0.3,0.2-0.6,0.4-0.8s0.5-0.3,0.8-0.3h0.8c0.3,0,0.5,0.1,0.7,0.3s0.2,0.5,0.2,0.8l-0.4,2.4
			c0,0.1-0.1,0.2-0.2,0.2C150,42,150,41.9,150,41.8z"/>
		<path class="st1" d="M151.2,41.8l0.6-3.3c0-0.1,0.1-0.2,0.2-0.2c0.1,0,0.2,0.1,0.2,0.2l-0.6,3.3c0,0.1-0.1,0.2-0.2,0.2
			S151.2,41.9,151.2,41.8z M151.9,37.3c0-0.1,0.2-0.2,0.3-0.2s0.2,0.1,0.2,0.2c0,0.1-0.1,0.2-0.3,0.2
			C152,37.6,151.9,37.5,151.9,37.3z"/>
		<path class="st1" d="M155.3,41.8c0,0.1-0.1,0.2-0.2,0.2h-1.6c-0.3,0-0.5-0.1-0.7-0.3s-0.2-0.5-0.2-0.8l0.3-1.5
			c0-0.3,0.2-0.6,0.4-0.8s0.5-0.3,0.8-0.3h1.6c0.1,0,0.2,0.1,0.2,0.2c0,0.1-0.1,0.2-0.2,0.2H154c-0.4,0-0.8,0.3-0.8,0.7l-0.3,1.5
			c-0.1,0.4,0.2,0.7,0.6,0.7h1.6C155.3,41.6,155.3,41.7,155.3,41.8z"/>
		<path class="st1" d="M156.9,42c-0.6,0-1-0.5-0.9-1.1s0.7-1.1,1.3-1.1h1.5l0.1-0.4c0.1-0.4-0.2-0.7-0.6-0.7h-1.5
			c-0.1,0-0.2-0.1-0.1-0.2c0-0.1,0.1-0.2,0.2-0.2h1.5c0.6,0,1,0.5,0.9,1.1l-0.4,2.4c0,0.1-0.1,0.2-0.2,0.2H156.9z M157.3,40.2
			c-0.4,0-0.8,0.3-0.8,0.7c-0.1,0.4,0.2,0.7,0.6,0.7h1.5l0.3-1.4H157.3z"/>
		<path class="st1" d="M159.7,42c-0.1,0-0.2-0.1-0.2-0.2c0-0.1,0.1-0.2,0.2-0.2h1.7c0.4,0,0.7-0.3,0.8-0.7s-0.2-0.7-0.6-0.7h-1
			c-0.5,0-0.9-0.4-0.8-1c0.1-0.5,0.6-1,1.2-1h1.6c0.1,0,0.2,0.1,0.2,0.2c0,0.1-0.1,0.2-0.2,0.2H161c-0.3,0-0.7,0.3-0.7,0.6
			c-0.1,0.3,0.2,0.6,0.5,0.6h1c0.3,0,0.5,0.1,0.7,0.3s0.2,0.5,0.2,0.7c-0.1,0.6-0.6,1-1.2,1h-1.8V42z"/>
	</g>
	<g>
		<path class="st1" d="M60.7,36.1c-3.5,0-5.9-2.9-5.3-6.4c0.7-3.6,4-6.4,7.6-6.4h9.1l0.5-2.7c0.4-2.3-1.2-4.2-3.5-4.2h-8.9
			c-0.6,0-1-0.5-0.9-1.1s0.7-1.1,1.2-1.1h8.9c3.5,0,5.9,2.9,5.3,6.4L72.2,35c-0.1,0.6-0.6,1.1-1.2,1.1H60.7z M62.6,25.4
			c-2.4,0-4.6,1.9-5,4.3c-0.4,2.3,1.2,4.2,3.5,4.2h9.1l1.5-8.5C71.7,25.4,62.6,25.4,62.6,25.4z"/>
		<path class="st1" d="M91.5,35c-0.1,0.6-0.7,1.1-1.3,1.1h-9.8c-1.7,0-3.2-0.7-4.1-1.9c-1-1.2-1.4-2.9-1.1-4.5l1.6-9.1
			c0.3-1.7,1.2-3.3,2.6-4.5s3.1-1.9,4.8-1.9H94c0.6,0,1,0.4,0.9,1.1c-0.1,0.6-0.7,1.1-1.3,1.1h-9.8c-2.4,0-4.6,1.9-5,4.2l-1.6,9.1
			c-0.4,2.3,1.2,4.2,3.5,4.2h9.8C91.2,33.9,91.6,34.4,91.5,35z"/>
		<path class="st1" d="M113.8,20.5l-2.6,14.4c-0.1,0.6-0.7,1.1-1.3,1.1s-1.1-0.5-1-1.1l2.6-14.4c0.4-2.3-1.1-4.1-3.4-4.1H103
			c-2.3,0-4.4,1.8-4.8,4.1l-2.6,14.4c-0.1,0.6-0.7,1.1-1.3,1.1s-1.1-0.5-1-1.1l5.1-29.1c0.1-0.6,0.7-1.1,1.3-1.1s1.1,0.5,0.9,1.1
			l-1.7,9.8c1.3-0.9,2.8-1.5,4.4-1.5h5.2C112.1,14.1,114.4,17,113.8,20.5z"/>
	</g>
	<g>
		<ellipse class="st1" cx="24.7" cy="25" rx="2.2" ry="2.2"/>
		<ellipse class="st1" cx="29" cy="18.5" rx="2.2" ry="2.2"/>
		<ellipse class="st1" cx="29" cy="5.1" rx="1.8" ry="1.8"/>
		<ellipse class="st1" cx="29" cy="31.8" rx="1.8" ry="1.8"/>
		<ellipse class="st1" cx="29" cy="44.9" rx="1.8" ry="1.8"/>
		<ellipse class="st1" cx="33.4" cy="11.6" rx="2.2" ry="2.2"/>
		<ellipse class="st1" cx="33.4" cy="38.1" rx="1.8" ry="1.8"/>
		<ellipse class="st1" cx="37.7" cy="5.1" rx="2.2" ry="2.2"/>
		<ellipse class="st1" cx="37.7" cy="31.8" rx="2.2" ry="2.2"/>
		<ellipse class="st1" cx="37.7" cy="44.9" rx="2.2" ry="2.2"/>
		<ellipse class="st1" cx="42" cy="11.6" rx="2.2" ry="2.2"/>
		<ellipse class="st1" cx="42" cy="38.1" rx="2.2" ry="2.2"/>
		<ellipse class="st1" cx="20.4" cy="18.5" rx="1.8" ry="1.8"/>
		<ellipse class="st1" cx="20.4" cy="5.1" rx="1.3" ry="1.3"/>
		<ellipse class="st1" cx="20.4" cy="44.6" rx="1.3" ry="1.3"/>
		<ellipse class="st1" cx="20.4" cy="31.8" rx="1.8" ry="1.8"/>
		<ellipse class="st1" cx="24.7" cy="11.6" rx="1.8" ry="1.8"/>
		<ellipse class="st1" cx="11.7" cy="18.5" rx="1.3" ry="1.3"/>
		<ellipse class="st1" cx="16" cy="11.6" rx="1.3" ry="1.3"/>
		<ellipse class="st1" cx="11.7" cy="31.8" rx="1.3" ry="1.3"/>
		<ellipse class="st1" cx="16" cy="38.1" rx="1.1" ry="1.1"/>
		<ellipse class="st1" cx="24.7" cy="38.1" rx="1.3" ry="1.3"/>
		<ellipse class="st1" cx="16" cy="25" rx="1.8" ry="1.8"/>
		<ellipse class="st1" cx="5.2" cy="18.5" rx="0.7" ry="0.7"/>
		<ellipse class="st1" cx="5.2" cy="31.8" rx="0.7" ry="0.7"/>
		<ellipse class="st1" cx="9.5" cy="11.6" rx="0.7" ry="0.7"/>
		<ellipse class="st1" cx="9.5" cy="25" rx="1.3" ry="1.3"/>
		<ellipse class="st1" cx="3" cy="25" rx="0.7" ry="0.7"/>
		<ellipse class="st1" cx="9.5" cy="38.1" rx="0.7" ry="0.7"/>
	</g>
	<g>
		<path class="st1" d="M53.6,45.2c-0.3,0-0.5-0.1-0.7-0.3s-0.2-0.5-0.2-0.8l0.3-1.6c0.1-0.3,0.2-0.6,0.5-0.8
			c0.2-0.2,0.5-0.3,0.8-0.3h1.4c0.2,0,0.3,0.1,0.2,0.3c0,0.2-0.2,0.3-0.3,0.3h-1.4c-0.3,0-0.6,0.2-0.6,0.5l-0.3,1.6
			c0,0.3,0.1,0.5,0.4,0.5h1.4c0.2,0,0.3,0.1,0.2,0.3c0,0.2-0.2,0.3-0.3,0.3H53.6z"/>
		<path class="st1" d="M61.3,45.2c-0.3,0-0.5-0.1-0.7-0.3s-0.2-0.5-0.2-0.8l0.3-1.6c0.1-0.3,0.2-0.6,0.5-0.8
			c0.2-0.2,0.5-0.3,0.8-0.3h0.9c0.3,0,0.5,0.1,0.7,0.3s0.2,0.5,0.2,0.8l-0.3,1.6c0,0.3-0.2,0.6-0.4,0.8c-0.2,0.2-0.5,0.3-0.8,0.3
			H61.3z M61.9,41.9c-0.3,0-0.6,0.2-0.6,0.5L61,44c0,0.3,0.1,0.5,0.4,0.5h0.9c0.3,0,0.6-0.2,0.6-0.5l0.3-1.6
			c0.1-0.3-0.1-0.5-0.4-0.5H61.9z"/>
		<path class="st1" d="M68.7,45.2c-0.2,0-0.3-0.1-0.2-0.3l0.6-3.3c0-0.2,0.2-0.3,0.3-0.3c0.2,0,0.3,0.1,0.2,0.3l-0.5,3h1.8
			c0.2,0,0.3,0.1,0.2,0.3c0,0.2-0.2,0.3-0.3,0.3H68.7z"/>
		<path class="st1" d="M76.9,45.2c-0.3,0-0.5-0.1-0.7-0.3S76,44.4,76,44.1l0.3-1.6c0.1-0.3,0.2-0.6,0.5-0.8c0.2-0.2,0.5-0.3,0.8-0.3
			h0.9c0.3,0,0.5,0.1,0.7,0.3s0.2,0.5,0.2,0.8l-0.3,1.6c0,0.3-0.2,0.6-0.4,0.8c-0.2,0.2-0.5,0.3-0.8,0.3H76.9z M77.5,41.9
			c-0.3,0-0.6,0.2-0.6,0.5L76.6,44c0,0.3,0.1,0.5,0.4,0.5h0.9c0.3,0,0.6-0.2,0.6-0.5l0.3-1.6c0.1-0.3-0.1-0.5-0.4-0.5H77.5z"/>
		<path class="st1" d="M87.1,44.9l0.4-2.3l-1.3,1.6c-0.1,0.1-0.2,0.1-0.3,0.1s-0.2,0-0.2-0.1L85,42.6l-0.4,2.3
			c0,0.2-0.2,0.3-0.3,0.3c-0.2,0-0.3-0.1-0.2-0.3l0.6-3.3c0-0.2,0.2-0.3,0.3-0.3s0.2,0,0.2,0.1l0.9,2l1.6-2c0.1-0.1,0.2-0.1,0.3-0.1
			c0.2,0,0.3,0.1,0.2,0.3l-0.6,3.3c0,0.2-0.2,0.3-0.3,0.3S87,45,87.1,44.9z"/>
		<path class="st1" d="M92.9,45.2c-0.2,0-0.3-0.1-0.2-0.3l0.6-3.3c0-0.2,0.2-0.3,0.3-0.3h1.6c0.3,0,0.5,0.1,0.7,0.3s0.2,0.5,0.2,0.8
			c0,0.2-0.1,0.3-0.2,0.5c-0.1,0.1-0.2,0.3-0.3,0.4l0,0c0.1,0.1,0.2,0.2,0.2,0.4c0,0.1,0,0.3,0,0.4c0,0.3-0.2,0.6-0.4,0.8
			s-0.5,0.3-0.8,0.3C94.6,45.2,92.9,45.2,92.9,45.2z M94.7,44.6c0.3,0,0.6-0.2,0.6-0.5c0.1-0.3-0.1-0.5-0.4-0.5h-1.4l-0.2,1.1
			L94.7,44.6L94.7,44.6z M94.9,43c0.3,0,0.6-0.2,0.6-0.5c0.1-0.3-0.1-0.5-0.4-0.5h-1.4l-0.2,1.1L94.9,43L94.9,43z"/>
		<path class="st1" d="M100.8,44.9l0.6-3.3c0-0.2,0.2-0.3,0.3-0.3c0.2,0,0.3,0.1,0.2,0.3l-0.6,3.3c0,0.2-0.2,0.3-0.3,0.3
			S100.8,45,100.8,44.9z"/>
		<path class="st1" d="M108.8,44.9l0.2-1.2h-1.8l-0.2,1.2c0,0.2-0.2,0.3-0.3,0.3c-0.2,0-0.3-0.1-0.2-0.3l0.4-2.4
			c0.1-0.3,0.2-0.6,0.5-0.8c0.2-0.2,0.5-0.3,0.8-0.3h0.7c0.3,0,0.5,0.1,0.7,0.3s0.2,0.5,0.2,0.8l-0.4,2.4c0,0.2-0.2,0.3-0.3,0.3
			C108.9,45.2,108.8,45,108.8,44.9z M109.1,43.1l0.1-0.7c0.1-0.3-0.1-0.5-0.4-0.5h-0.7c-0.3,0-0.6,0.2-0.6,0.5l-0.1,0.7H109.1z"/>
	</g>
</g>
</svg>
