<?xml version="1.0" encoding="utf-8"?>
<!-- Generator: Adobe Illustrator 22.1.0, SVG Export Plug-In . SVG Version: 6.00 Build 0)  -->
<svg version="1.1" id="Capa_1" xmlns="http://www.w3.org/2000/svg" xmlns:xlink="http://www.w3.org/1999/xlink" x="0px" y="0px"
	 viewBox="0 0 316.7 300.7" style="enable-background:new 0 0 316.7 300.7;" xml:space="preserve">
<style type="text/css">
	.st0{fill:#FFFFFF;}
	.st1{fill:#B2B2B2;}
	.st2{fill:#C1BFBF;}
	.st3{fill:#868484;}
	.st4{fill:#767672;}
	.st5{fill:#979795;}
	.st6{fill:#A6A6A4;}
</style>
<g>
	<path class="st0" d="M15.6,217.1c-1.5,0-2.9-0.2-4.1-0.7s-2.2-1.1-3.1-2.1c-0.8-0.9-1.5-2-1.9-3.3c-0.4-1.3-0.7-2.8-0.7-4.5
		c0-1.6,0.2-3.2,0.7-4.5s1.2-2.4,2.1-3.3c0.9-0.9,1.9-1.6,3.1-2.1c1.2-0.4,2.5-0.7,3.9-0.7c0.8,0,1.6,0.1,2.3,0.2
		c0.7,0.1,1.3,0.3,1.8,0.4c0.5,0.1,0.9,0.3,1.3,0.5c0.3,0.1,0.6,0.3,0.7,0.4l-1,3c-0.4-0.3-1.1-0.6-2-0.8s-1.8-0.4-2.8-0.4
		c-0.9,0-1.7,0.1-2.5,0.4s-1.4,0.7-1.9,1.3c-0.5,0.6-1,1.3-1.3,2.3c-0.3,0.9-0.4,1.9-0.4,3.2c0,1,0.1,2.1,0.4,3
		c0.2,0.9,0.6,1.6,1.1,2.3c0.5,0.7,1.1,1.2,1.9,1.5c0.7,0.4,1.7,0.5,2.8,0.5c1.3,0,2.4-0.1,3.2-0.4c0.8-0.3,1.4-0.5,1.9-0.7l1,3
		c-0.2,0.1-0.5,0.3-1,0.4c-0.4,0.1-0.9,0.3-1.4,0.4c-0.5,0.1-1.2,0.3-1.9,0.4C17,217,16.3,217.1,15.6,217.1z"/>
	<path class="st0" d="M65.7,206.4c0,1.7-0.2,3.3-0.7,4.6c-0.5,1.3-1.2,2.5-2.1,3.3c-0.9,0.9-1.9,1.6-3.1,2c-1.2,0.4-2.5,0.7-3.8,0.7
		c-1.3,0-2.6-0.2-3.8-0.7s-2.2-1.1-3.1-2c-0.9-0.9-1.6-2-2.1-3.3c-0.5-1.3-0.8-2.8-0.8-4.6c0-1.7,0.3-3.3,0.8-4.6
		c0.5-1.3,1.3-2.4,2.2-3.3c0.9-0.9,1.9-1.6,3.1-2c1.2-0.4,2.5-0.7,3.8-0.7c1.3,0,2.6,0.2,3.7,0.7c1.2,0.4,2.2,1.1,3.1,2
		c0.9,0.9,1.6,2,2.1,3.3C65.4,203.1,65.7,204.7,65.7,206.4z M49.9,206.4c0,1.1,0.1,2.1,0.4,3.1c0.3,0.9,0.7,1.6,1.2,2.3
		c0.5,0.6,1.1,1.1,1.9,1.5c0.7,0.4,1.6,0.5,2.5,0.5c0.9,0,1.7-0.1,2.5-0.5c0.7-0.4,1.3-0.8,1.9-1.5c0.5-0.6,0.9-1.4,1.2-2.3
		c0.3-0.9,0.4-1.9,0.4-3.1c0-1.1-0.1-2.1-0.4-3.1c-0.3-0.9-0.7-1.6-1.2-2.3c-0.5-0.6-1.1-1.1-1.9-1.5c-0.7-0.4-1.6-0.5-2.5-0.5
		c-1,0-1.8,0.1-2.5,0.5c-0.7,0.4-1.3,0.8-1.9,1.5c-0.5,0.7-0.9,1.4-1.2,2.3C50,204.3,49.9,205.3,49.9,206.4z"/>
	<path class="st0" d="M104.8,213.4v3.2H92v-20.3h3.7v17.2L104.8,213.4L104.8,213.4z"/>
	<path class="st0" d="M147.4,206.4c0,1.7-0.2,3.3-0.7,4.6c-0.5,1.3-1.2,2.5-2.1,3.3c-0.9,0.9-1.9,1.6-3.1,2s-2.5,0.7-3.8,0.7
		c-1.3,0-2.6-0.2-3.8-0.7s-2.2-1.1-3.1-2s-1.6-2-2.1-3.3c-0.5-1.3-0.8-2.8-0.8-4.6c0-1.7,0.3-3.3,0.8-4.6c0.5-1.3,1.3-2.4,2.2-3.3
		c0.9-0.9,1.9-1.6,3.1-2c1.2-0.4,2.5-0.7,3.7-0.7c1.3,0,2.6,0.2,3.7,0.7c1.2,0.4,2.2,1.1,3.1,2s1.6,2,2.1,3.3
		C147.2,203.1,147.4,204.7,147.4,206.4z M131.5,206.4c0,1.1,0.1,2.1,0.4,3.1c0.3,0.9,0.7,1.6,1.2,2.3c0.5,0.6,1.1,1.1,1.9,1.5
		c0.7,0.4,1.6,0.5,2.5,0.5c0.9,0,1.7-0.1,2.5-0.5c0.7-0.4,1.3-0.8,1.9-1.5c0.5-0.6,0.9-1.4,1.2-2.3c0.3-0.9,0.4-1.9,0.4-3.1
		c0-1.1-0.1-2.1-0.4-3.1c-0.3-0.9-0.7-1.6-1.2-2.3c-0.5-0.6-1.1-1.1-1.9-1.5c-0.7-0.4-1.6-0.5-2.5-0.5c-1,0-1.8,0.1-2.5,0.5
		s-1.3,0.8-1.9,1.5c-0.5,0.7-0.9,1.4-1.2,2.3C131.6,204.3,131.5,205.3,131.5,206.4z"/>
	<path class="st0" d="M178,196.3c0.4,0.7,0.9,1.6,1.4,2.7c0.5,1,1,2.2,1.6,3.4c0.5,1.2,1.1,2.4,1.6,3.6c0.5,1.2,1,2.3,1.5,3.4
		c0.4-1,1-2.2,1.5-3.4c0.5-1.2,1-2.4,1.6-3.6c0.5-1.2,1-2.3,1.6-3.4c0.5-1,1-1.9,1.4-2.7h3.3c0.1,1.5,0.4,3.1,0.5,4.7
		c0.1,1.6,0.3,3.4,0.4,5.2c0.1,1.7,0.2,3.5,0.4,5.2c0.1,1.8,0.2,3.5,0.3,5.2h-3.7c-0.1-2.4-0.1-4.8-0.3-7.3
		c-0.1-2.5-0.3-4.9-0.5-7.3c-0.2,0.4-0.4,1-0.7,1.6c-0.3,0.6-0.6,1.3-1,2c-0.3,0.7-0.7,1.5-1,2.2c-0.4,0.7-0.7,1.6-1,2.2
		c-0.3,0.7-0.6,1.4-0.9,2c-0.3,0.6-0.5,1.2-0.7,1.6h-2.8c-0.2-0.4-0.4-1-0.7-1.6c-0.3-0.7-0.6-1.3-0.9-2.1c-0.3-0.7-0.7-1.5-1-2.2
		c-0.4-0.7-0.7-1.5-1-2.2c-0.3-0.7-0.7-1.4-1-2c-0.3-0.6-0.5-1.2-0.7-1.6c-0.2,2.3-0.4,4.8-0.5,7.3c-0.1,2.5-0.2,4.9-0.3,7.3H173
		c0.1-1.6,0.1-3.4,0.3-5.2c0.1-1.8,0.2-3.6,0.4-5.3c0.1-1.8,0.3-3.5,0.4-5.2c0.1-1.6,0.3-3.2,0.5-4.6H178z"/>
	<path class="st0" d="M227.7,216.8c-1,0-2.2,0-3.2-0.1c-1.1-0.1-2-0.2-2.8-0.4v-19.7c0.4-0.1,0.9-0.1,1.3-0.2c0.5-0.1,1-0.1,1.5-0.1
		c0.5-0.1,1-0.1,1.5-0.1c0.5,0,1,0,1.4,0c1.2,0,2.4,0.1,3.4,0.3c1,0.1,1.9,0.5,2.8,0.9c0.7,0.4,1.3,1,1.8,1.7
		c0.4,0.7,0.7,1.6,0.7,2.6c0,1-0.2,1.8-0.7,2.5s-1.1,1.2-1.9,1.6c1.2,0.4,2.2,1,2.7,1.8c0.6,0.8,0.9,1.8,0.9,3.1
		c0,2.1-0.7,3.7-2.3,4.7C233.3,216.3,230.9,216.8,227.7,216.8z M225.3,204.5h2.6c1.4,0,2.5-0.2,3.3-0.6c0.8-0.4,1.2-1.1,1.2-2.2
		c0-1-0.4-1.6-1.3-2.1c-0.8-0.4-1.9-0.6-3.2-0.6c-0.6,0-1,0-1.5,0s-0.8,0.1-1.1,0.1V204.5z M225.3,207.5v6.2
		c0.4,0.1,0.8,0.1,1.3,0.1c0.4,0,0.9,0,1.3,0c0.7,0,1.5-0.1,2.1-0.1c0.7-0.1,1.2-0.3,1.7-0.5c0.4-0.2,0.8-0.6,1.1-1
		c0.3-0.4,0.4-1,0.4-1.6c0-1.1-0.4-1.9-1.3-2.4c-0.8-0.4-2-0.7-3.5-0.7L225.3,207.5L225.3,207.5z"/>
	<path class="st0" d="M263,196.3h3.7v20.3H263V196.3z"/>
	<path class="st0" d="M307.3,216.6c-0.3-0.8-0.5-1.6-0.8-2.4c-0.3-0.7-0.6-1.6-0.8-2.4H297c-0.3,0.8-0.5,1.6-0.8,2.4
		c-0.3,0.8-0.6,1.6-0.8,2.4h-3.8c0.7-2.2,1.5-4.2,2.2-6c0.7-1.9,1.3-3.6,2-5.2c0.7-1.6,1.3-3.2,1.9-4.7s1.3-2.9,2-4.4h3.5
		c0.7,1.4,1.3,2.9,2,4.4s1.3,3.1,1.9,4.7c0.7,1.6,1.3,3.4,2,5.2c0.7,1.9,1.4,3.8,2.2,6H307.3z M301.3,200.2c-0.4,1-1,2.3-1.6,3.8
		c-0.6,1.5-1.2,3.1-1.8,4.9h6.7c-0.6-1.7-1.2-3.4-1.8-4.9C302.2,202.4,301.7,201.2,301.3,200.2z"/>
	<path class="st0" d="M5.4,291.1v-46.6h29.4v7.2h-21v11.9h18.7v7.2H13.8v20.3L5.4,291.1L5.4,291.1z"/>
	<path class="st0" d="M50.7,244.5h8.5v46.6h-8.5V244.5z"/>
	<path class="st0" d="M110,291.1c-1.5-2.5-3.2-5.3-5.1-8.2c-1.9-2.9-3.8-5.9-5.8-8.9c-2-3-4-5.8-6.1-8.7c-2.1-2.8-4-5.3-5.9-7.6
		v33.3h-8.3v-46.6h7c1.8,1.9,3.7,4.1,5.8,6.7c2.1,2.5,4.1,5.2,6.2,8c2.1,2.8,4.1,5.5,6.1,8.4c1.9,2.8,3.7,5.4,5.2,7.9v-30.9h8.4
		v46.6L110,291.1L110,291.1z"/>
	<path class="st0" d="M166.7,244.5v4h-14.9v42.6h-4.6v-42.6h-14.9v-4H166.7z"/>
	<path class="st0" d="M182.3,291.1v-46.6h26.9v4h-22.3v16.2h19.9v3.9h-19.9v18.6H211v4L182.3,291.1L182.3,291.1z"/>
	<path class="st0" d="M246.1,292.1c-3,0-5.8-0.5-8.4-1.6c-2.5-1-4.8-2.6-6.7-4.7c-1.9-2.1-3.4-4.6-4.5-7.6c-1.1-3-1.6-6.5-1.6-10.4
		s0.6-7.3,1.8-10.4c1.2-3,2.8-5.5,4.7-7.6c1.9-2.1,4.3-3.6,6.9-4.6s5.3-1.6,8.2-1.6c1.7,0,3.4,0.1,4.8,0.3c1.4,0.2,2.7,0.5,3.7,0.8
		c1,0.3,2,0.7,2.8,1c0.7,0.3,1.3,0.7,1.7,0.9l-1.5,4c-1.1-0.7-2.5-1.3-4.3-1.9c-1.7-0.7-3.9-1-6.4-1c-2.9,0-5.5,0.5-7.6,1.5
		c-2.2,1-4,2.4-5.5,4.2c-1.5,1.8-2.6,3.9-3.3,6.4c-0.7,2.5-1.1,5.2-1.1,8.2s0.4,5.9,1.1,8.4c0.7,2.5,1.8,4.6,3.3,6.4
		c1.4,1.7,3.2,3.1,5.3,4c2.1,1,4.5,1.4,7.2,1.4c3,0,5.5-0.3,7.4-0.8c2-0.5,3.5-1.1,4.6-1.7l1.3,3.9c-0.3,0.2-0.8,0.4-1.6,0.7
		c-0.7,0.3-1.7,0.6-2.9,0.9c-1.2,0.3-2.5,0.6-4,0.7C249.7,292,248,292.1,246.1,292.1z"/>
	<path class="st0" d="M305.8,244.5h4.6v46.6h-4.6v-22.4h-25.3v22.4h-4.6v-46.6h4.6v20.2h25.3V244.5z"/>
	<g>
		<g>
			<polygon class="st1" points="167,8.6 175.1,101.1 116.3,84.3 			"/>
			<polygon class="st2" points="175.1,101.1 217,84.3 167,8.6 166.9,8.6 173.6,84.3 			"/>
			<polygon class="st3" points="175.1,101.1 167.7,164.7 116.3,84.3 			"/>
			<polygon class="st4" points="175.1,101.1 217,84.3 167.7,164.7 167.7,164.4 			"/>
			<polygon class="st5" points="116.3,84.3 173.6,84.3 175.1,101.1 			"/>
			<polygon class="st6" points="217,84.3 173.6,84.3 173.6,84.3 175.1,101.1 175.1,101.1 			"/>
		</g>
	</g>
</g>
</svg>
