<?xml version="1.0" encoding="utf-8"?>
<!-- Generator: Adobe Illustrator 22.1.0, SVG Export Plug-In . SVG Version: 6.00 Build 0)  -->
<svg version="1.1" id="Capa_1" xmlns="http://www.w3.org/2000/svg" xmlns:xlink="http://www.w3.org/1999/xlink" x="0px" y="0px"
	 viewBox="0 0 449.3 158" style="enable-background:new 0 0 449.3 158;" xml:space="preserve">
<style type="text/css">
	.st0{fill:#FFFFFF;}
	.st1{fill:#B2B2B2;}
	.st2{fill:#C1BFBF;}
	.st3{fill:#868484;}
	.st4{fill:#767672;}
	.st5{fill:#979795;}
	.st6{fill:#A6A6A4;}
</style>
<g>
	<g id="JZHbhc.tif_1_">
		<g>
			<path class="st0" d="M244.2,106.6c0,7.7,0,15.4,0,23c0,0.6-0.2,0.9-0.8,0.9c-2.7,0-5.5,0-8.2,0c-0.6,0-0.9-0.4-1.2-0.8
				c-2.2-3.2-4.4-6.4-6.6-9.6c-3.5-5.1-7.1-10.2-10.6-15.3c-2.1-3-4.1-5.9-6.2-8.9c-0.1-0.2-0.4-0.3-0.6-0.5
				c-0.1,0.3-0.2,0.5-0.2,0.8c0,11.1,0,22.2,0,33.3c0,0.9-0.1,1-1,1c-2.3,0-4.5,0-6.8,0c-0.7,0-0.9-0.2-0.9-0.9
				c0-15.2,0-30.4,0-45.6c0-1.4,0.1-1.4,1.4-1.4c2.4,0,4.9,0,7.3,0c0.7,0,1.2,0.2,1.6,0.8c1.6,2.4,3.3,4.7,4.9,7.1
				c2.8,4.1,5.6,8.1,8.4,12.2c3.3,4.8,6.6,9.6,10,14.4c0.1,0.2,0.3,0.3,0.5,0.4c0.1-0.2,0.2-0.5,0.2-0.7c0-5,0-10,0-15
				c0-6,0-11.9,0-17.9c0-1.2,0.1-1.3,1.3-1.3c2.1,0,4.2,0,6.3,0c1,0,1.1,0.1,1.1,1.1c0,6.3,0,12.7,0,19
				C244.2,103.9,244.2,105.3,244.2,106.6C244.2,106.6,244.2,106.6,244.2,106.6z"/>
			<path class="st0" d="M127.1,106.6c0-7.6,0-15.2,0-22.8c0-1.1,0.1-1.3,1.3-1.3c9.5,0,19,0,28.5,0c1.2,0,1.2,0.1,1.2,1.2
				c0,1.9,0,3.7,0,5.6c0,1-0.1,1.1-1.1,1.1c-6.7,0-13.4,0-20,0c-1.2,0-1.3,0.1-1.3,1.3c0,3.3,0,6.5,0,9.8c0,0.9,0.1,1,1,1
				c5.7,0,11.5,0,17.2,0c1,0,1.1,0.1,1.1,1c0,2,0,4,0,6.1c0,0.9-0.1,1-1,1c-5.7,0-11.4,0-17.1,0c-1.1,0-1.2,0.1-1.2,1.2
				c0,5.9,0,11.9,0,17.8c0,0.6-0.2,0.9-0.9,0.9c-2.3,0-4.7,0-7,0c-0.6,0-0.9-0.3-0.9-0.9C127.1,121.9,127.1,114.2,127.1,106.6
				C127.1,106.6,127.1,106.6,127.1,106.6z"/>
			<path class="st0" d="M445.7,106.6c0,7.7,0,15.4,0,23.1c0,0.6-0.2,0.8-0.7,0.8c-1.2,0-2.4,0-3.6,0c-0.6,0-0.8-0.2-0.8-0.9
				c0-6.4,0-12.9,0-19.3c0-1.3-0.1-1.3-1.3-1.3c-7.6,0-15.3,0-22.9,0c-1.3,0-1.3,0-1.3,1.3c0,6.4,0,12.9,0,19.3
				c0,0.6-0.2,0.9-0.8,0.9c-1.2,0-2.3,0-3.5,0c-0.6,0-0.9-0.2-0.9-0.9c0-15.3,0-30.5,0-45.8c0-1.2,0.1-1.3,1.3-1.3
				c0.9,0,1.9,0,2.8,0c1,0,1.1,0.1,1.1,1.1c0,4.4,0,8.7,0,13.1c0,2.2,0,4.3,0,6.5c0,0.6,0.2,0.8,0.8,0.8c7.9,0,15.9,0,23.8,0
				c0.7,0,0.9-0.3,0.9-0.9c0-6.5,0-12.9,0-19.4c0-1,0.1-1.2,1.1-1.2c1,0,2.1,0,3.1,0c0.7,0,0.9,0.3,0.9,0.9c0,0.5,0,0.9,0,1.4
				C445.7,92,445.7,99.3,445.7,106.6C445.7,106.6,445.7,106.6,445.7,106.6z"/>
			<path class="st0" d="M310.9,106.6c0-7.7,0-15.3,0-23c0-0.9,0.2-1.1,1.1-1.1c9.3,0,18.6,0,27.9,0c1.1,0,1.2,0.1,1.2,1.2
				c0,0.9,0,1.8,0,2.6c0,0.8-0.2,1-1,1c-1.8,0-3.6,0-5.3,0c-5.8,0-11.7,0-17.5,0c-1.1,0-1.2,0.1-1.2,1.2c0,4.8,0,9.6,0,14.3
				c0,1,0.1,1.1,1.1,1.1c6.6,0,13.3,0,19.9,0c1.1,0,1.1,0,1.1,1.2c0,1,0,1.9,0,2.9c0,0.9-0.1,1-1,1c-6.6,0-13.2,0-19.8,0
				c-1.2,0-1.3,0-1.3,1.3c0,4.8,0,9.5,0,14.3c0,1,0,1.1,1.1,1.1c7.5,0,15.1,0,22.6,0c0.3,0,0.5,0,0.8,0c0.4,0,0.7,0.2,0.6,0.7
				c0,1.2,0,2.3,0,3.5c0,0.2-0.3,0.5-0.6,0.6c-0.2,0.1-0.5,0-0.8,0c-9.2,0-18.4,0-27.6,0c-1.3,0-1.3,0-1.3-1.3
				C310.9,121.6,310.9,114.1,310.9,106.6C310.9,106.6,310.9,106.6,310.9,106.6z"/>
			<path class="st0" d="M361.3,106.5c0,3.2,0.2,6.3,1.2,9.3c1.1,3.4,2.9,6.3,6.1,8.1c2.7,1.5,5.7,2.1,8.8,2.3
				c3.9,0.2,7.7-0.3,11.5-1.4c1.1-0.3,2.1-0.7,3.2-1.1c0.5-0.2,0.8,0,0.8,0.6c0,1.2,0,2.3,0,3.5c0,0.6-0.4,0.8-0.9,1
				c-1.3,0.4-2.6,0.9-3.9,1.2c-4.6,1.1-9.3,1.5-14.1,0.9c-2.9-0.4-5.8-1.2-8.4-2.7c-2.4-1.4-4.4-3.3-5.8-5.7
				c-1.4-2.2-2.4-4.6-2.8-7.2c-0.3-2.1-0.7-4.3-0.9-6.4c-0.3-3.5,0.1-7.1,0.7-10.6c0.4-2.2,1.1-4.3,2.1-6.2c1.1-2.3,2.7-4.2,4.7-5.8
				c2.1-1.6,4.4-2.7,6.9-3.3c3.5-0.9,7.1-1.2,10.7-0.8c3.1,0.3,6.1,0.8,9,1.8c0.6,0.2,1.2,0.4,1.8,0.6c0.2,0.1,0.5,0.5,0.5,0.7
				c0.1,1.2,0,2.4,0,3.6c0,0.6-0.3,0.7-1,0.5c-1.8-0.6-3.6-1.2-5.4-1.6c-3.4-0.8-6.9-1.2-10.4-0.7c-1.6,0.2-3.3,0.4-4.9,0.9
				c-2.7,0.9-5,2.4-6.6,4.8c-1.5,2.2-2.4,4.6-2.8,7.2c-0.3,2.2-0.5,4.4-0.8,6.6C361.2,106.5,361.3,106.5,361.3,106.5z"/>
			<path class="st0" d="M274.9,109c0-6.8,0-13.6,0-20.4c0-1-0.1-1.1-1.1-1.1c-4.9,0-9.9,0-14.8,0c-0.8,0-1-0.2-1-0.9
				c0-1.1,0-2.1,0-3.2c0-0.6,0.3-0.9,0.9-0.9c12.4,0,24.8,0,37.1,0c0.8,0,0.9,0.1,1,1c0,1,0,2,0,3.1c0,0.9-0.1,1.1-1.1,1.1
				c-4.9,0-9.8,0-14.7,0c-1,0-1.2,0.1-1.2,1.1c0,13.2,0,26.4,0,39.6c0,0.3,0,0.6,0,0.9c0,1.2,0,1.2-1.2,1.2c-1,0-2,0-3.1,0
				c-0.7,0-0.9-0.2-0.9-0.9C274.9,122.7,274.9,115.9,274.9,109C274.9,109,274.9,109,274.9,109z"/>
			<path class="st0" d="M173.6,106.6c0-7.6,0-15.2,0-22.8c0-1.2,0.1-1.3,1.3-1.3c2,0,4,0,6,0c1.2,0,1.3,0.1,1.3,1.3
				c0,14.9,0,29.8,0,44.7c0,2,0.4,1.9-2,1.9c-1.9,0-3.8,0-5.8,0c-0.7,0-0.9-0.2-0.9-0.9C173.6,121.9,173.6,114.2,173.6,106.6
				C173.6,106.6,173.6,106.6,173.6,106.6z"/>
			<path class="st0" d="M319.9,40.8c-0.4,0.9-0.8,1.7-1.2,2.6c-1.1,2.5-2.2,5.1-3.3,7.6c-0.1,0.2-0.4,0.4-0.7,0.5
				c-0.4,0.1-0.8,0-1.2,0c-1.2,0.2-1.8-0.3-2.3-1.4c-0.9-2.3-1.9-4.6-2.9-7c-0.3-0.8-0.7-1.6-1.1-2.4c-0.1,0-0.2,0-0.2,0
				c-0.1,0.2-0.1,0.4-0.2,0.7c-0.2,4-0.4,8-0.6,12c0,0.5-0.2,0.8-0.7,0.8c-1.1,0-2.2,0-3.3,0c-0.5,0-0.7-0.2-0.7-0.8
				c0.3-4.6,0.6-9.1,0.9-13.7c0.1-2,0.4-3.9,0.6-5.9c0.1-0.8,0.3-1,1.2-1c0.9,0,1.9,0,2.8,0c0.6,0,1,0.2,1.2,0.7
				c1,2,1.9,4.1,2.9,6.1c0.8,1.7,1.4,3.4,2.2,5.1c0.1,0.3,0.3,0.4,0.6,0.1c0.1-0.1,0.2-0.3,0.3-0.4c0.8-1.8,1.5-3.6,2.3-5.4
				c0.9-1.9,1.8-3.8,2.7-5.6c0.1-0.3,0.6-0.5,1-0.5c0.9-0.1,1.8,0,2.6,0c0.9,0,1.1,0.2,1.2,1.1c0.2,2.7,0.5,5.3,0.7,8
				c0.3,3.8,0.5,7.6,0.8,11.4c0,0.5-0.2,0.7-0.6,0.7c-1.2,0-2.3,0-3.5,0c-0.5,0-0.6-0.3-0.6-0.7c-0.2-4-0.4-7.9-0.5-11.9
				c0-0.3-0.1-0.5-0.1-0.8C320.1,40.9,320,40.8,319.9,40.8z"/>
			<path class="st0" d="M352,43.5c0-3.1,0-6.3,0-9.4c0-0.5,0.2-0.8,0.7-0.9c3.5-0.6,7.1-0.8,10.6,0.1c2.3,0.6,4.2,2.1,4.5,4.8
				c0.2,1.7-0.4,3-1.7,4.1c-0.6,0.5-0.6,0.6,0.1,1c2.1,1,2.8,2.8,2.7,5c-0.1,2.3-1.1,4.2-3.3,5.2c-1.2,0.5-2.4,0.9-3.7,1
				c-3,0.5-6,0.2-8.9-0.2c-0.7-0.1-1-0.5-1-1.2C352,49.8,352,46.6,352,43.5z M356.6,47.7c0,0.6,0,1.3,0,1.9c0,0.6,0.2,0.9,0.8,0.9
				c1.2,0,2.5,0.1,3.7-0.1c1-0.1,2.1-0.5,2.6-1.6c0.8-2-0.3-3.4-2.2-3.7c-1.3-0.2-2.7-0.1-4.1-0.1c-0.5,0-0.8,0.3-0.8,0.8
				C356.6,46.4,356.6,47.1,356.6,47.7z M356.6,39C356.6,39,356.6,39,356.6,39c0,0.5-0.1,1.1,0,1.6c0,0.2,0.3,0.6,0.5,0.6
				c1.6,0,3.3,0.2,4.8-0.5c0.7-0.3,1.1-1,1.1-2c0-0.9-0.5-1.5-1.2-1.8c-1.4-0.5-2.9-0.5-4.4-0.4c-0.5,0-0.8,0.3-0.8,0.8
				C356.6,38,356.6,38.5,356.6,39z"/>
			<path class="st0" d="M190.6,43.6c0.1,2.3-0.4,4.4-1.6,6.4c-1.3,2.2-3.2,3.5-5.6,4.2c-2.2,0.6-4.5,0.6-6.7,0
				c-2.8-0.8-4.9-2.5-6.1-5.1c-1.3-2.9-1.5-5.9-0.7-9c0.7-2.6,2.1-4.6,4.3-6c1.7-1.1,3.7-1.6,5.7-1.6c2.6,0,5.1,0.6,7.1,2.3
				c1.5,1.3,2.6,2.9,3,4.9c0.3,1.3,0.5,2.6,0.7,3.9C190.8,43.6,190.7,43.6,190.6,43.6z M180.1,50.5c2.5,0.1,4.7-1.8,5.3-4.3
				c0.6-2.3,0.5-4.6-0.6-6.8c-0.6-1.2-1.5-2-2.6-2.4c-3.3-1.1-6,0.3-7.1,3.4c-0.8,2.4-0.8,4.8,0.4,7.1
				C176.4,49.5,178,50.4,180.1,50.5z"/>
			<path class="st0" d="M276.2,43.6c-0.1,3-0.9,5.7-2.9,7.9c-1.2,1.4-2.7,2.2-4.5,2.7c-2.2,0.6-4.5,0.6-6.7,0
				c-2.8-0.8-4.9-2.5-6.1-5.1c-1.3-2.6-1.4-5.3-1-8c0.5-2.9,1.9-5.4,4.5-7c1.7-1.1,3.7-1.6,5.7-1.6c2.7,0,5.1,0.6,7.2,2.4
				c1.5,1.3,2.5,2.9,3,4.8C275.8,41,276,42.3,276.2,43.6z M265.5,50.5c2.4,0.1,4.5-1.6,5.2-4.1c0.6-1.9,0.6-3.8,0-5.7
				c-0.5-1.7-1.5-3.1-3.1-3.7c-3.4-1.2-6.3,0.5-7.3,3.8c-0.6,1.8-0.5,3.7,0,5.6C261,48.8,263,50.5,265.5,50.5z"/>
			<path class="st0" d="M444.4,54.3c-0.4,0-0.9,0-1.3,0c-1.2,0-1.2,0-1.6-1.2c-0.3-0.8-0.5-1.6-0.8-2.4c-0.3-0.9-0.6-1.1-1.5-1.1
				c-2.1,0-4.1,0-6.2,0c-0.9,0-1.2,0.2-1.4,1.1c-0.3,1-0.7,2.1-1.1,3.1c-0.1,0.2-0.4,0.4-0.7,0.5c-1.2,0-2.4,0-3.6,0
				c-0.6,0-0.7-0.3-0.5-0.8c0.6-1.7,1.2-3.4,1.8-5.1c0.6-1.7,1.3-3.5,2-5.2c1-2.4,2-4.7,3-7.1c0.4-0.9,0.8-1.8,1.2-2.6
				c0.2-0.3,0.6-0.5,0.9-0.6c1.1-0.1,2.2-0.1,3.3,0c0.3,0,0.7,0.3,0.9,0.6c0.7,1.4,1.4,2.9,2,4.4c0.7,1.5,1.3,3.1,1.9,4.6
				c0.8,2.2,1.7,4.3,2.5,6.5c0.5,1.3,0.9,2.5,1.4,3.8c0.1,0.2,0.2,0.5,0.3,0.7c0.2,0.5,0,0.7-0.5,0.7
				C445.7,54.3,445.1,54.3,444.4,54.3C444.4,54.3,444.4,54.3,444.4,54.3z M436.3,38.1c-0.2,0.3-0.4,0.5-0.5,0.7
				c-0.8,2.1-1.6,4.1-2.4,6.2c-0.1,0.4,0,0.7,0.5,0.7c1.6,0,3.1,0,4.7,0c0.4,0,0.6-0.3,0.4-0.7c-0.7-1.9-1.4-3.8-2.2-5.7
				C436.7,39,436.5,38.6,436.3,38.1z"/>
			<path class="st0" d="M127.9,43.9c0-3.1,0.7-5.7,2.6-8c1.6-1.8,3.6-2.8,5.9-3.2c2.4-0.4,4.8-0.3,7.1,0.5c0.4,0.2,0.9,0.4,1.3,0.6
				c0.5,0.2,0.4,0.6,0.3,1c-0.3,0.9-0.7,1.7-1,2.6c-0.1,0.4-0.4,0.5-0.8,0.3c-1.2-0.6-2.5-0.8-3.9-0.9c-1.3-0.1-2.6,0-3.8,0.7
				c-1.2,0.6-1.9,1.7-2.4,2.9c-0.8,2-0.7,4-0.1,6c0.8,2.5,1.9,3.7,4.9,4.1c1.9,0.2,3.7-0.1,5.4-0.9c0.5-0.2,0.9-0.1,1.1,0.5
				c0.3,0.8,0.6,1.7,0.8,2.5c0.1,0.2-0.1,0.6-0.3,0.7c-0.7,0.4-1.5,0.7-2.3,0.9c-2.8,0.7-5.6,0.8-8.3,0c-2.6-0.8-4.5-2.4-5.6-5
				C128.2,47.4,127.9,45.6,127.9,43.9z"/>
			<path class="st0" d="M216.9,43.7c0-3.2,0-6.4,0-9.6c0-1,0.2-1.1,1.2-1.1c0.8,0,1.7,0,2.5,0c1,0,1.1,0.2,1.1,1.1
				c0,4.9,0,9.9,0,14.8c0,1.1,0.1,1.2,1.2,1.2c2.4,0,4.8,0,7.3,0c0.9,0,1,0.1,1,1c0,0.8,0,1.6,0,2.4c0,0.6-0.2,0.8-0.8,0.8
				c-4.2,0-8.5,0-12.7,0c-0.6,0-0.8-0.2-0.8-0.9C216.9,50.2,216.9,46.9,216.9,43.7C216.9,43.7,216.9,43.7,216.9,43.7z"/>
			<path class="st0" d="M395.3,43.7c0-3.2,0-6.5,0-9.7c0-1,0.1-1.1,1.1-1.1c0.8,0,1.7,0,2.5,0c1,0,1.2,0.2,1.2,1.1c0,3,0,6.1,0,9.1
				c0,3.4,0,6.8,0,10.2c0,0.6-0.2,0.9-0.8,0.9c-1.1,0-2.1,0-3.2,0c-0.5,0-0.8-0.2-0.8-0.8C395.2,50.3,395.2,47,395.3,43.7
				C395.2,43.7,395.2,43.7,395.3,43.7z"/>
		</g>
	</g>
	<g>
		<polygon class="st1" points="50.6,5.1 58.2,92.9 2.4,76.9 		"/>
		<polygon class="st2" points="58.2,92.9 98,76.9 50.6,5.1 		"/>
		<polygon class="st3" points="58.2,92.9 51.2,153.2 2.4,76.9 		"/>
		<polygon class="st4" points="58.2,92.9 98,76.9 51.2,153.2 		"/>
		<polygon class="st5" points="2.4,76.9 56.8,76.9 58.2,92.9 		"/>
		<polygon class="st6" points="98,76.9 56.8,76.9 58.2,92.9 		"/>
	</g>
</g>
</svg>
