<?xml version="1.0" encoding="utf-8"?>
<!-- Generator: Adobe Illustrator 22.1.0, SVG Export Plug-In . SVG Version: 6.00 Build 0)  -->
<svg version="1.1" id="Layer_1" xmlns="http://www.w3.org/2000/svg" xmlns:xlink="http://www.w3.org/1999/xlink" x="0px" y="0px"
	 viewBox="0 0 139.9 30.6" style="enable-background:new 0 0 139.9 30.6;" xml:space="preserve">
<style type="text/css">
	.st0{fill:#FFFFFF;}
</style>
<g>
	<path class="st0" d="M16.6,14.6c3.6-0.4,6.8-2.4,6.8-6.3c0-4.6-3.3-7.1-9.1-7.1H0.6v0.1v1.7v0.6c1.2,0,2,0.2,2.5,0.8
		c0.1,0.3,0.1,0.7,0.1,1.2v18.9c0,0.6,0,1-0.1,1.3c-0.4,0.7-1.2,1-2.4,1v0.4v1.8l0,0h14.1c6.9,0,10.5-2.2,10.5-7.6
		C25.2,17.2,21.5,14.8,16.6,14.6z M11.1,3.2h0.5c2.7,0,4.5,1.6,4.5,5c0,3.6-1.6,5.3-4.4,5.3h-0.5L11.1,3.2L11.1,3.2z M13.6,27.1
		h-0.2c-1.7,0-2.3-0.5-2.3-2.7v-8.6h1.2c3.6,0,5.3,1.8,5.3,5.5C17.5,25.3,15.8,27.1,13.6,27.1z"/>
	<path class="st0" d="M26,26.8c2,0,2.7-0.8,2.7-3v-7.4c0-1.2-0.8-1.9-2-1.9h-0.8v-2.4l7.1-2.2h2v3c0,1.6-0.2,3.9-0.2,4.7h0.2
		c0.6-5.7,3.2-8.1,6.1-8.1c0.6,0,0.8,0,1.3,0.2v6.6c-2.5-0.4-7-0.2-7,4.2v3.3c0,2.2,1.2,3,3.2,3V29H26V26.8L26,26.8z"/>
	<path class="st0" d="M109.4,19.4c0-6,5.1-10,10.8-10c6,0,11,4.2,11,10.1c0,5.9-4.9,10-10.7,10C114.4,29.5,109.4,25.2,109.4,19.4z
		 M124,22.6c0-3.2-1.7-11.2-4.8-11.2c-1.9,0-2.6,1.7-2.6,5s1.6,11.1,4.9,11.1C123.2,27.5,124,25.6,124,22.6z"/>
	<g>
		<path class="st0" d="M135.8,29.6c-1.9,0-3.5-1.6-3.5-3.5s1.6-3.5,3.5-3.5s3.5,1.6,3.5,3.5S137.6,29.6,135.8,29.6z"/>
	</g>
	<path class="st0" d="M107,23l-4.5-6c2.2-1.2,4.3-2.2,6.5-4.7v-2h-10v2.2c1.6,0,2.6,0.7,2.6,2c0,1-0.2,1.7-1.9,2.5l-3.3,1.6h-0.3V1
		h-1.5L86,3v2.6h0.8c1.2,0,2,0.6,2,1.7v16.6c0,2-0.6,2.9-2.3,3c-1.7-0.1-2.4-1-2.4-3v-8c0-4.2-2.5-6.2-6.1-6.2
		c-2.7,0-4.7,1.2-5.8,4.1v-4h-1.5l-8.3,2v2.6h0.8c1.2,0,2,0.6,2,1.7v7.8c0,2.2-0.7,3-2.7,3c-1.2,0-2-0.7-2-2v-9.1
		c0-4.2-1.9-6.3-8.5-6.3c-3.5,0-7.4,0.8-8.1,4.4c-0.2,1.1,0.1,2.2,1.1,2.7c1.2,0.7,2.6,0.7,3.7-0.1c0.9-0.6,1.2-1.6,1-2.6
		c-0.2-0.8-0.5-1.5-1.4-2.5c0.6-0.2,1.7-0.3,2.5-0.3c2.7,0,3.2,3.1,3.2,6.3c0,0.8-0.2,0.8-1,0.8c-3.6,0.2-10.6,0.6-10.6,6.1
		c0,5.5,9.3,7.1,12.3,1.9c1,2.8,4.6,2.5,7.7,2.5v0h11.5v-2c-1.6,0-1.7-1-1.7-2.9v-8.1c0.2-1.2,1.2-2.2,2.6-2.2
		c1.6,0,2.5,0.8,2.5,2.6v8c0,1.9,0,2.9-1.7,2.9v2h10.7H87h10.6v-2.2c-1.6,0-1.7-0.7-1.7-2.2v-4.7h0.2l5.9,9.5h8.5v-2.3
		C109.2,26.9,108.4,24.9,107,23z M54,23.1c0.1,4-5.6,4.7-5.6,0.7c0-4,4.9-3.3,5.6-4.3C54,20.8,54,22,54,23.1z"/>
</g>
</svg>
