<?xml version="1.0" encoding="utf-8"?>
<!-- Generator: Adobe Illustrator 22.1.0, SVG Export Plug-In . SVG Version: 6.00 Build 0)  -->
<svg version="1.1" id="Capa_1" xmlns="http://www.w3.org/2000/svg" xmlns:xlink="http://www.w3.org/1999/xlink" x="0px" y="0px"
	 viewBox="0 0 80 80" style="enable-background:new 0 0 80 80;" xml:space="preserve">
<style type="text/css">
	.st0{fill:#5ABFED;}
	.st1{fill:#FFD16A;}
	.st2{fill:#222221;}
	.st3{fill:none;stroke:#222221;stroke-width:2;stroke-miterlimit:10;}
</style>
<path class="st0" d="M13.9,17.4l-1.8,51.3c0,0,9.9,8.9,14,8.9s41.1-3.1,41.1-3.1l-7.5-52.8l-5.3-5.4L13.9,17.4z"/>
<path class="st1" d="M52.9,24.4c0,0-0.9-22.4-13.8-21.3c-3.8,0.3-6,2.4-7.2,5.2c-4.4,0-4.4,7.4-4.4,7.4h3c-0.1,5.2,1,10.1,1,10.1
	s0,2.9,2.4,2.5c0.9-0.2,0.2-3.8-0.2-8.1c-0.5-6.2-0.4-11.6,6-11.9c11-0.4,9.9,17.1,11.4,17.8C53.5,27.1,52.9,24.4,52.9,24.4z"/>
<g>
	<g>
		<path class="st2" d="M60.4,62.3c-0.2,1.9-0.7,4.7-3,4.9c-1.3,0.1-1.3,2.1,0,2c3.6-0.3,4.7-3.8,5-6.9C62.6,61,60.6,61,60.4,62.3
			L60.4,62.3z"/>
	</g>
</g>
<g>
	<g>
		<path class="st2" d="M51,15.9c2-0.1,4.5,0.1,6.5-0.4c0.8-0.2-0.1,0.1-0.1-0.2c0,0.2,0.9,0.8,1.1,1c0.8,0.7,1.7,1.4,2.5,2.2
			c1,0.8,2.4-0.6,1.4-1.4c-1.2-1.1-2.9-3.3-4.6-3.5c-2.2-0.3-4.7,0.3-6.9,0.5C49.7,14,49.7,16,51,15.9L51,15.9z"/>
	</g>
</g>
<g>
	<g>
		<path class="st2" d="M32.6,17.2c5.2-0.3,9.4-0.7,14.5-1c1.3-0.1,1.3-2.1,0-2c-5.2,0.3-9.4,0.7-14.5,1
			C31.3,15.2,31.3,17.2,32.6,17.2L32.6,17.2z"/>
	</g>
</g>
<g>
	<g>
		<path class="st2" d="M52,21.3c3.3-0.3,6.7-0.6,10-0.9c-0.3-0.3-0.7-0.7-1-1c1.8,17.5,3.5,35.1,5.3,52.6c0.3-0.3,0.7-0.7,1-1
			c-6.6,0.5-13.2,1-19.8,1.6c-4.8,0.4-9.5,0.8-14.3,1.1c-2.1,0.2-5.2,1-7.3,0.6c0.2,0,0.4,0-0.3-0.3c-0.7-0.4-1.4-1-2.1-1.5
			c-2-1.4-3.9-3-5.9-4.2c-0.4-0.2-1.1-0.6-1.4-1c0.2,0.3,0.5,1.2,0.4,0.4c-0.1-0.9,0.1-2,0.1-2.9c0.3-8.5,0.5-17,0.8-25.5
			c0.2-7.3,0.4-14.6,0.7-21.9c-0.3,0.3-0.7,0.7-1,1c4.1-0.3,8.2-0.7,12.3-1c1.3-0.1,1.3-2.1,0-2c-4.1,0.3-8.2,0.7-12.3,1
			c-0.6,0-1,0.4-1,1c-0.5,15.7-1,31.4-1.4,47.1c0,1.4-0.5,3.2,0.3,4.4c0.6,0.9,2.4,1.7,3.2,2.3c2,1.4,4,3.2,6.1,4.4
			c1.7,0.9,2.5,0.7,4.5,0.5c4.3-0.3,8.5-0.7,12.8-1c8.6-0.7,17.1-1.3,25.7-2c0.5,0,1.1-0.4,1-1c-1.8-17.5-3.5-35.1-5.3-52.6
			c-0.1-0.5-0.4-1-1-1c-3.3,0.3-6.7,0.6-10,0.9C50.8,19.4,50.8,21.4,52,21.3L52,21.3z"/>
	</g>
</g>
<g>
	<g>
		<path class="st2" d="M34.1,22.9c4.9-0.4,9.7-0.8,14.6-1.2c1.3-0.1,1.3-2.1,0-2c-4.9,0.4-9.7,0.8-14.6,1.2
			C32.8,21,32.8,23,34.1,22.9L34.1,22.9z"/>
	</g>
</g>
<g>
	<g>
		<path class="st2" d="M28.8,18.7c-2.6,0.2-5.1,0.5-7.7,0.7c-0.9,0.1-1.3,1-0.7,1.7c1,1.1,1.8,2.7,3.4,2.6c1.9-0.1,3.8-0.3,5.7-0.5
			c1.3-0.1,1.3-2.1,0-2c-1.7,0.1-3.5,0.3-5.2,0.4c-0.2,0-0.8,0-0.9,0.1c0.1-0.1,0.7,0.6,0.2-0.1s-1.2-1.3-1.8-1.9
			c-0.2,0.6-0.5,1.1-0.7,1.7c2.6-0.2,5.1-0.5,7.7-0.7C30.1,20.6,30.1,18.6,28.8,18.7L28.8,18.7z"/>
	</g>
</g>
<g>
	<g>
		<path class="st2" d="M47.7,17c-5,0.4-10,0.9-15,1.3c-1.3,0.1-1.3,2.1,0,2c5-0.4,10-0.9,15-1.3C49,18.9,49,16.9,47.7,17L47.7,17z"
			/>
	</g>
</g>
<g>
	<g>
		<path class="st2" d="M58,16.1c-2.2,0.2-4.5,0.4-6.7,0.6c-1.3,0.1-1.3,2.1,0,2c2.2-0.2,4.5-0.4,6.7-0.6C59.2,18,59.3,16,58,16.1
			L58,16.1z"/>
	</g>
</g>
<g>
	<g>
		<path class="st2" d="M22.2,36.7c0.7,11,1.3,22,2,33c0.1,1.3,2.1,1.3,2,0c-0.7-11-1.3-22-2-33C24.2,35.4,22.2,35.4,22.2,36.7
			L22.2,36.7z"/>
	</g>
</g>
<path class="st3" d="M32.8,19.4c0.4,4.3,1.1,8,0.2,8.1c-2.4,0.4-2.4-2.5-2.4-2.5S25.3,3.4,38.2,2.4S52,23.7,52,23.7s0.6,2.7-1.8,1.6
	C48.7,24.6,49.8,6,38.8,6.5C32.3,6.7,32.2,13.2,32.8,19.4"/>
<g>
	<g>
		<path class="st2" d="M27.2,16.2c-0.1-6.1,3.1-12,9.4-12.9c1.3-0.2,0.7-2.1-0.5-1.9c-7.2,1.1-11.1,8-10.9,14.9
			C25.3,17.5,27.3,17.5,27.2,16.2L27.2,16.2z"/>
	</g>
</g>
</svg>
