<?xml version="1.0" encoding="utf-8"?>
<!-- Generator: Adobe Illustrator 22.1.0, SVG Export Plug-In . SVG Version: 6.00 Build 0)  -->
<svg version="1.1" id="Capa_1" xmlns="http://www.w3.org/2000/svg" xmlns:xlink="http://www.w3.org/1999/xlink" x="0px" y="0px"
	 viewBox="0 0 30 30" style="enable-background:new 0 0 30 30;" xml:space="preserve">
<style type="text/css">
	.st0{opacity:0.45;fill:#5ABFED;enable-background:new    ;}
	.st1{fill:#5ABFED;}
	.st2{fill:none;stroke:#000000;stroke-miterlimit:10;}
</style>
<ellipse class="st0" cx="15.7" cy="28" rx="10" ry="1.7"/>
<path class="st1" d="M15.5,1.7c-18,2.3-7.4,21,0.7,25.9C24.3,23.5,34.2-0.7,15.5,1.7z M19.2,11.9c-0.3,2-1.6,3.5-3.6,3.5
	c-1.9,0-3.5-1.5-3.5-3.5s1.8-3.7,3.7-3.7S19.5,9.9,19.2,11.9z"/>
<path class="st2" d="M18.2,11.9c-0.3,2-1.6,3.5-3.6,3.5s-3.5-1.5-3.5-3.5s1.8-3.7,3.7-3.7S18.5,9.9,18.2,11.9z"/>
<path class="st2" d="M15.2,27.6c-8.8-3-19.5-25.9-0.7-25.9S23.3,23.5,15.2,27.6z"/>
</svg>
