<?xml version="1.0" encoding="utf-8"?>
<!-- Generator: Adobe Illustrator 22.1.0, SVG Export Plug-In . SVG Version: 6.00 Build 0)  -->
<svg version="1.1" id="Capa_1" xmlns="http://www.w3.org/2000/svg" xmlns:xlink="http://www.w3.org/1999/xlink" x="0px" y="0px"
	 viewBox="0 0 80 80" style="enable-background:new 0 0 80 80;" xml:space="preserve">
<style type="text/css">
	.st0{fill:#FFD16A;}
	.st1{fill:#5ABFED;}
	.st2{fill:#222221;}
	.st3{fill:none;stroke:#222221;stroke-width:2;stroke-miterlimit:10;}
</style>
<path class="st0" d="M73.5,62.2c0,0-5.8,10.5-2.4,14.2c2.9,3.2,6.9,1.1,7.3-1.6C79.5,68.9,73.5,62.2,73.5,62.2z"/>
<path class="st1" d="M7.7,3.3c-3,1-6.5,6.9-5.6,11.6c1.1,5.7,6.3,9.6,6.3,9.6s-6,8.7-0.7,13.4s9.6,5.5,13.8,4.9
	c4.1-0.6,4.9-2.1,4.9-2.1S48.4,61,53.9,61s5.3-2.1,7.7-0.8c2.5,1.4,4.3,4.7,6.3,3.2c4.3-3.2-4.8-6.8-3.3-10.3
	c1.4-3.5,2.9-3.2,1.6-6.8c-1.2-3.2-26.3-21-26.3-21s2.6-3.2,1.7-6.8C41,16,36.2,9.1,32.7,9.1c-3.5,0-5.8,1.6-5.8,1.6S17.7,0,7.7,3.3
	z"/>
<g>
	<g>
		<path class="st2" d="M19.8,30.2c4.1-0.9,7.6-3.4,9.9-6.9c1.3-1.9,3.8-5.4,2.8-7.7c-0.9-2.3-4.1-4.7-5.9-6.3
			c-3-2.7-6.5-5.5-10.5-6.4C8.3,1.1,2.8,9.5,5.2,16.5c2.1,6,8.3,10.7,13.8,13.6c1.1,0.6,2.1-1.1,1-1.7c-3.7-2-7.4-4.7-10.1-8
			C7.5,17.6,5.7,13.8,7,10.1c1.7-4.7,5.9-6.5,10.4-4.8c5.5,2.1,8.9,6.8,12.9,10.7c0.8,0.8,0.5,1,0.5,0.3c-0.1,1.4-1.1,3-1.7,4.2
			c-2.2,3.9-5.4,6.8-9.8,7.8C18,28.5,18.5,30.5,19.8,30.2z"/>
	</g>
</g>
<g>
	<g>
		<path class="st2" d="M25.5,9.1c3-1.2,7.1-2.6,9.9,0.3c1.8,1.9,1.8,4.6,1.3,7c-0.9,4.2-3.6,8-6.6,11s-6.8,5.7-11,6.6
			c-2.4,0.5-5.1,0.6-7-1.3c-2.7-2.7-1.4-6.8-0.4-9.7c0.4-1.2-1.5-1.7-1.9-0.5c-1.8,5-2,11.9,4.3,13.6c6.3,1.7,13.2-3,17.4-7.2
			c4.1-4.1,8.6-10.7,7.3-16.9C37.4,5.2,30.3,5.2,25,7.3C23.8,7.7,24.3,9.6,25.5,9.1L25.5,9.1z"/>
	</g>
</g>
<g>
	<g>
		<path class="st2" d="M11.3,34.7c2.4,1.7,4.8,4.2,7.8,4.4c6.4,0.4,12.6-4.6,16.3-9.2c3-3.7,7.6-9.8,6.7-15.1
			c-0.5-2.8-3.2-4.5-5-6.5c-0.9-0.9-2.3,0.5-1.4,1.4c1.5,1.6,3.9,3.2,4.5,5.2c1.4,4.8-4.6,12-7.4,15.1c-3.1,3.4-9.2,8.1-14.3,7.1
			c-0.4-0.1-1.2-0.7-2.3-1.5c-1.3-0.9-2.5-1.7-3.8-2.6C11.3,32.3,10.3,34,11.3,34.7L11.3,34.7z"/>
	</g>
</g>
<path class="st3" d="M40.3,21.8c0,0,22.1,17.8,23.8,20.8c1.9,3.5-0.7,6.3,0.9,7.9c1.6,1.6,3.4,3.3,4.5,4.3c1.4,1.4,0.3,4.9-2.9,3.5
	c-3.1-1.4-3.6-4.2-6-3.8s-3.4,3-6.9,1.3C50.2,54.1,26.9,36,26.9,36"/>
<g>
	<g>
		<path class="st2" d="M40.3,34.2c2.6-2,5.3-5.4,5-8.9c-0.1-1.3-2.1-1.3-2,0c0.2,1.6-0.5,3.1-1.4,4.4c-0.5,0.8-1.1,1.5-1.8,2.1
			c-0.2,0.2-0.9,0.8-0.8,0.7C38.3,33.2,39.3,35,40.3,34.2L40.3,34.2z"/>
	</g>
</g>
<g>
	<g>
		<path class="st2" d="M46.6,39.1c2.6-2,5.3-5.4,5-8.9c-0.1-1.3-2.1-1.3-2,0c0.2,1.6-0.5,3.1-1.4,4.4c-0.5,0.8-1.1,1.5-1.8,2.1
			c-0.2,0.2-0.9,0.8-0.8,0.7C44.6,38.1,45.6,39.9,46.6,39.1L46.6,39.1z"/>
	</g>
</g>
<g>
	<g>
		<path class="st2" d="M52.7,44.2c2.6-2,5.3-5.4,5-8.9c-0.1-1.3-2.1-1.3-2,0c0.2,1.6-0.5,3.1-1.4,4.4c-0.5,0.8-1.1,1.5-1.8,2.1
			c-0.2,0.2-0.9,0.8-0.8,0.7C50.7,43.2,51.7,45,52.7,44.2L52.7,44.2z"/>
	</g>
</g>
<g>
	<g>
		<path class="st2" d="M71.1,60.5c-2.4,4.3-7.2,15.9,1,17.3c4.5,0.8,6.4-3.7,5.7-7.4c-0.6-3.7-2.7-7.3-5.2-10.1
			c-0.8-1-2.3,0.4-1.4,1.4c1.3,1.5,2.5,3.3,3.3,5.2c0.8,1.8,1.6,4,1.4,6c-0.4,3-4.1,4.1-5.9,1.4c-2.2-3.4,1-9.6,2.7-12.7
			C73.4,60.4,71.7,59.4,71.1,60.5z"/>
	</g>
</g>
<g>
	<g>
		<path class="st2" d="M13.4,7.8c0.8-0.2,1.5-0.1,2.3,0.1c1.2,0.4,1.8-1.6,0.5-1.9c-1.1-0.3-2.2-0.3-3.3-0.1
			C11.6,6.1,12.1,8.1,13.4,7.8L13.4,7.8z"/>
	</g>
</g>
</svg>
