<svg version="1.1" id="el_HUTKfPipr" xmlns="http://www.w3.org/2000/svg" xmlns:xlink="http://www.w3.org/1999/xlink" x="0px" y="0px" viewBox="0 0 520 496" style="enable-background:new 0 0 520 496;" xml:space="preserve"><style>@-webkit-keyframes el_Cwyn85GDIkt_LvC0RiUbi_Animation{0%{-webkit-transform: translate(132.018310546875px, 98.23828887939453px) translate(-132.018310546875px, -98.23828887939453px) translate(0px, 0px);transform: translate(132.018310546875px, 98.23828887939453px) translate(-132.018310546875px, -98.23828887939453px) translate(0px, 0px);}49.21%{-webkit-transform: translate(132.018310546875px, 98.23828887939453px) translate(-132.018310546875px, -98.23828887939453px) translate(0px, 2px);transform: translate(132.018310546875px, 98.23828887939453px) translate(-132.018310546875px, -98.23828887939453px) translate(0px, 2px);}100%{-webkit-transform: translate(132.018310546875px, 98.23828887939453px) translate(-132.018310546875px, -98.23828887939453px) translate(0px, 0px);transform: translate(132.018310546875px, 98.23828887939453px) translate(-132.018310546875px, -98.23828887939453px) translate(0px, 0px);}}@keyframes el_Cwyn85GDIkt_LvC0RiUbi_Animation{0%{-webkit-transform: translate(132.018310546875px, 98.23828887939453px) translate(-132.018310546875px, -98.23828887939453px) translate(0px, 0px);transform: translate(132.018310546875px, 98.23828887939453px) translate(-132.018310546875px, -98.23828887939453px) translate(0px, 0px);}49.21%{-webkit-transform: translate(132.018310546875px, 98.23828887939453px) translate(-132.018310546875px, -98.23828887939453px) translate(0px, 2px);transform: translate(132.018310546875px, 98.23828887939453px) translate(-132.018310546875px, -98.23828887939453px) translate(0px, 2px);}100%{-webkit-transform: translate(132.018310546875px, 98.23828887939453px) translate(-132.018310546875px, -98.23828887939453px) translate(0px, 0px);transform: translate(132.018310546875px, 98.23828887939453px) translate(-132.018310546875px, -98.23828887939453px) translate(0px, 0px);}}@-webkit-keyframes el_OI6LD9glnsq_4_T4uiSfm_Animation{0%{-webkit-transform: translate(97.6975326538086px, 104.39767456054688px) translate(-97.6975326538086px, -104.39767456054688px) translate(0px, 0px);transform: translate(97.6975326538086px, 104.39767456054688px) translate(-97.6975326538086px, -104.39767456054688px) translate(0px, 0px);}49.21%{-webkit-transform: translate(97.6975326538086px, 104.39767456054688px) translate(-97.6975326538086px, -104.39767456054688px) translate(0px, 2px);transform: translate(97.6975326538086px, 104.39767456054688px) translate(-97.6975326538086px, -104.39767456054688px) translate(0px, 2px);}100%{-webkit-transform: translate(97.6975326538086px, 104.39767456054688px) translate(-97.6975326538086px, -104.39767456054688px) translate(0px, 0px);transform: translate(97.6975326538086px, 104.39767456054688px) translate(-97.6975326538086px, -104.39767456054688px) translate(0px, 0px);}}@keyframes el_OI6LD9glnsq_4_T4uiSfm_Animation{0%{-webkit-transform: translate(97.6975326538086px, 104.39767456054688px) translate(-97.6975326538086px, -104.39767456054688px) translate(0px, 0px);transform: translate(97.6975326538086px, 104.39767456054688px) translate(-97.6975326538086px, -104.39767456054688px) translate(0px, 0px);}49.21%{-webkit-transform: translate(97.6975326538086px, 104.39767456054688px) translate(-97.6975326538086px, -104.39767456054688px) translate(0px, 2px);transform: translate(97.6975326538086px, 104.39767456054688px) translate(-97.6975326538086px, -104.39767456054688px) translate(0px, 2px);}100%{-webkit-transform: translate(97.6975326538086px, 104.39767456054688px) translate(-97.6975326538086px, -104.39767456054688px) translate(0px, 0px);transform: translate(97.6975326538086px, 104.39767456054688px) translate(-97.6975326538086px, -104.39767456054688px) translate(0px, 0px);}}@-webkit-keyframes el_OI6LD9glnsq_kl2ByBbCc_Animation{0%{-webkit-transform: translate(97.6975326538086px, 104.39767456054688px) rotate(0deg) translate(-97.6975326538086px, -104.39767456054688px);transform: translate(97.6975326538086px, 104.39767456054688px) rotate(0deg) translate(-97.6975326538086px, -104.39767456054688px);}49.21%{-webkit-transform: translate(97.6975326538086px, 104.39767456054688px) rotate(-4deg) translate(-97.6975326538086px, -104.39767456054688px);transform: translate(97.6975326538086px, 104.39767456054688px) rotate(-4deg) translate(-97.6975326538086px, -104.39767456054688px);}100%{-webkit-transform: translate(97.6975326538086px, 104.39767456054688px) rotate(0deg) translate(-97.6975326538086px, -104.39767456054688px);transform: translate(97.6975326538086px, 104.39767456054688px) rotate(0deg) translate(-97.6975326538086px, -104.39767456054688px);}}@keyframes el_OI6LD9glnsq_kl2ByBbCc_Animation{0%{-webkit-transform: translate(97.6975326538086px, 104.39767456054688px) rotate(0deg) translate(-97.6975326538086px, -104.39767456054688px);transform: translate(97.6975326538086px, 104.39767456054688px) rotate(0deg) translate(-97.6975326538086px, -104.39767456054688px);}49.21%{-webkit-transform: translate(97.6975326538086px, 104.39767456054688px) rotate(-4deg) translate(-97.6975326538086px, -104.39767456054688px);transform: translate(97.6975326538086px, 104.39767456054688px) rotate(-4deg) translate(-97.6975326538086px, -104.39767456054688px);}100%{-webkit-transform: translate(97.6975326538086px, 104.39767456054688px) rotate(0deg) translate(-97.6975326538086px, -104.39767456054688px);transform: translate(97.6975326538086px, 104.39767456054688px) rotate(0deg) translate(-97.6975326538086px, -104.39767456054688px);}}@-webkit-keyframes el_Cwyn85GDIkt_ODDE020r3_Animation{0%{-webkit-transform: translate(132.018310546875px, 98.23828887939453px) rotate(0deg) translate(-132.018310546875px, -98.23828887939453px);transform: translate(132.018310546875px, 98.23828887939453px) rotate(0deg) translate(-132.018310546875px, -98.23828887939453px);}49.21%{-webkit-transform: translate(132.018310546875px, 98.23828887939453px) rotate(4deg) translate(-132.018310546875px, -98.23828887939453px);transform: translate(132.018310546875px, 98.23828887939453px) rotate(4deg) translate(-132.018310546875px, -98.23828887939453px);}100%{-webkit-transform: translate(132.018310546875px, 98.23828887939453px) rotate(0deg) translate(-132.018310546875px, -98.23828887939453px);transform: translate(132.018310546875px, 98.23828887939453px) rotate(0deg) translate(-132.018310546875px, -98.23828887939453px);}}@keyframes el_Cwyn85GDIkt_ODDE020r3_Animation{0%{-webkit-transform: translate(132.018310546875px, 98.23828887939453px) rotate(0deg) translate(-132.018310546875px, -98.23828887939453px);transform: translate(132.018310546875px, 98.23828887939453px) rotate(0deg) translate(-132.018310546875px, -98.23828887939453px);}49.21%{-webkit-transform: translate(132.018310546875px, 98.23828887939453px) rotate(4deg) translate(-132.018310546875px, -98.23828887939453px);transform: translate(132.018310546875px, 98.23828887939453px) rotate(4deg) translate(-132.018310546875px, -98.23828887939453px);}100%{-webkit-transform: translate(132.018310546875px, 98.23828887939453px) rotate(0deg) translate(-132.018310546875px, -98.23828887939453px);transform: translate(132.018310546875px, 98.23828887939453px) rotate(0deg) translate(-132.018310546875px, -98.23828887939453px);}}@-webkit-keyframes el_rIb55QRh9Mg_mTfxJlW8c_Animation{0%{-webkit-transform: translate(357.82073974609375px, 114.3671875px) rotate(0deg) translate(-357.82073974609375px, -114.3671875px);transform: translate(357.82073974609375px, 114.3671875px) rotate(0deg) translate(-357.82073974609375px, -114.3671875px);}46.03%{-webkit-transform: translate(357.82073974609375px, 114.3671875px) rotate(-4deg) translate(-357.82073974609375px, -114.3671875px);transform: translate(357.82073974609375px, 114.3671875px) rotate(-4deg) translate(-357.82073974609375px, -114.3671875px);}100%{-webkit-transform: translate(357.82073974609375px, 114.3671875px) rotate(0deg) translate(-357.82073974609375px, -114.3671875px);transform: translate(357.82073974609375px, 114.3671875px) rotate(0deg) translate(-357.82073974609375px, -114.3671875px);}}@keyframes el_rIb55QRh9Mg_mTfxJlW8c_Animation{0%{-webkit-transform: translate(357.82073974609375px, 114.3671875px) rotate(0deg) translate(-357.82073974609375px, -114.3671875px);transform: translate(357.82073974609375px, 114.3671875px) rotate(0deg) translate(-357.82073974609375px, -114.3671875px);}46.03%{-webkit-transform: translate(357.82073974609375px, 114.3671875px) rotate(-4deg) translate(-357.82073974609375px, -114.3671875px);transform: translate(357.82073974609375px, 114.3671875px) rotate(-4deg) translate(-357.82073974609375px, -114.3671875px);}100%{-webkit-transform: translate(357.82073974609375px, 114.3671875px) rotate(0deg) translate(-357.82073974609375px, -114.3671875px);transform: translate(357.82073974609375px, 114.3671875px) rotate(0deg) translate(-357.82073974609375px, -114.3671875px);}}@-webkit-keyframes el_yLYLR3Y0tKx_P2OCtHri1_Animation{0%{-webkit-transform: translate(401.3507995605469px, 111.6183090209961px) rotate(0deg) translate(-401.3507995605469px, -111.6183090209961px);transform: translate(401.3507995605469px, 111.6183090209961px) rotate(0deg) translate(-401.3507995605469px, -111.6183090209961px);}49.21%{-webkit-transform: translate(401.3507995605469px, 111.6183090209961px) rotate(4deg) translate(-401.3507995605469px, -111.6183090209961px);transform: translate(401.3507995605469px, 111.6183090209961px) rotate(4deg) translate(-401.3507995605469px, -111.6183090209961px);}100%{-webkit-transform: translate(401.3507995605469px, 111.6183090209961px) rotate(0deg) translate(-401.3507995605469px, -111.6183090209961px);transform: translate(401.3507995605469px, 111.6183090209961px) rotate(0deg) translate(-401.3507995605469px, -111.6183090209961px);}}@keyframes el_yLYLR3Y0tKx_P2OCtHri1_Animation{0%{-webkit-transform: translate(401.3507995605469px, 111.6183090209961px) rotate(0deg) translate(-401.3507995605469px, -111.6183090209961px);transform: translate(401.3507995605469px, 111.6183090209961px) rotate(0deg) translate(-401.3507995605469px, -111.6183090209961px);}49.21%{-webkit-transform: translate(401.3507995605469px, 111.6183090209961px) rotate(4deg) translate(-401.3507995605469px, -111.6183090209961px);transform: translate(401.3507995605469px, 111.6183090209961px) rotate(4deg) translate(-401.3507995605469px, -111.6183090209961px);}100%{-webkit-transform: translate(401.3507995605469px, 111.6183090209961px) rotate(0deg) translate(-401.3507995605469px, -111.6183090209961px);transform: translate(401.3507995605469px, 111.6183090209961px) rotate(0deg) translate(-401.3507995605469px, -111.6183090209961px);}}@-webkit-keyframes el_y_op8og7bX7_dJxGtQOfd_Animation{0%{-webkit-transform: translate(379.6499938964844px, 94.01725769042969px) rotate(0deg) translate(-379.6499938964844px, -94.01725769042969px);transform: translate(379.6499938964844px, 94.01725769042969px) rotate(0deg) translate(-379.6499938964844px, -94.01725769042969px);}38.10%{-webkit-transform: translate(379.6499938964844px, 94.01725769042969px) rotate(4deg) translate(-379.6499938964844px, -94.01725769042969px);transform: translate(379.6499938964844px, 94.01725769042969px) rotate(4deg) translate(-379.6499938964844px, -94.01725769042969px);}90.48%{-webkit-transform: translate(379.6499938964844px, 94.01725769042969px) rotate(0deg) translate(-379.6499938964844px, -94.01725769042969px);transform: translate(379.6499938964844px, 94.01725769042969px) rotate(0deg) translate(-379.6499938964844px, -94.01725769042969px);}100%{-webkit-transform: translate(379.6499938964844px, 94.01725769042969px) rotate(0deg) translate(-379.6499938964844px, -94.01725769042969px);transform: translate(379.6499938964844px, 94.01725769042969px) rotate(0deg) translate(-379.6499938964844px, -94.01725769042969px);}}@keyframes el_y_op8og7bX7_dJxGtQOfd_Animation{0%{-webkit-transform: translate(379.6499938964844px, 94.01725769042969px) rotate(0deg) translate(-379.6499938964844px, -94.01725769042969px);transform: translate(379.6499938964844px, 94.01725769042969px) rotate(0deg) translate(-379.6499938964844px, -94.01725769042969px);}38.10%{-webkit-transform: translate(379.6499938964844px, 94.01725769042969px) rotate(4deg) translate(-379.6499938964844px, -94.01725769042969px);transform: translate(379.6499938964844px, 94.01725769042969px) rotate(4deg) translate(-379.6499938964844px, -94.01725769042969px);}90.48%{-webkit-transform: translate(379.6499938964844px, 94.01725769042969px) rotate(0deg) translate(-379.6499938964844px, -94.01725769042969px);transform: translate(379.6499938964844px, 94.01725769042969px) rotate(0deg) translate(-379.6499938964844px, -94.01725769042969px);}100%{-webkit-transform: translate(379.6499938964844px, 94.01725769042969px) rotate(0deg) translate(-379.6499938964844px, -94.01725769042969px);transform: translate(379.6499938964844px, 94.01725769042969px) rotate(0deg) translate(-379.6499938964844px, -94.01725769042969px);}}@-webkit-keyframes el_kC_2vXvYAH9_HRoC3bI7g_Animation{0%{-webkit-transform: translate(388.2362976074219px, 88.66749572753906px) rotate(0deg) translate(-388.2362976074219px, -88.66749572753906px);transform: translate(388.2362976074219px, 88.66749572753906px) rotate(0deg) translate(-388.2362976074219px, -88.66749572753906px);}42.86%{-webkit-transform: translate(388.2362976074219px, 88.66749572753906px) rotate(6deg) translate(-388.2362976074219px, -88.66749572753906px);transform: translate(388.2362976074219px, 88.66749572753906px) rotate(6deg) translate(-388.2362976074219px, -88.66749572753906px);}95.24%{-webkit-transform: translate(388.2362976074219px, 88.66749572753906px) rotate(0deg) translate(-388.2362976074219px, -88.66749572753906px);transform: translate(388.2362976074219px, 88.66749572753906px) rotate(0deg) translate(-388.2362976074219px, -88.66749572753906px);}100%{-webkit-transform: translate(388.2362976074219px, 88.66749572753906px) rotate(0deg) translate(-388.2362976074219px, -88.66749572753906px);transform: translate(388.2362976074219px, 88.66749572753906px) rotate(0deg) translate(-388.2362976074219px, -88.66749572753906px);}}@keyframes el_kC_2vXvYAH9_HRoC3bI7g_Animation{0%{-webkit-transform: translate(388.2362976074219px, 88.66749572753906px) rotate(0deg) translate(-388.2362976074219px, -88.66749572753906px);transform: translate(388.2362976074219px, 88.66749572753906px) rotate(0deg) translate(-388.2362976074219px, -88.66749572753906px);}42.86%{-webkit-transform: translate(388.2362976074219px, 88.66749572753906px) rotate(6deg) translate(-388.2362976074219px, -88.66749572753906px);transform: translate(388.2362976074219px, 88.66749572753906px) rotate(6deg) translate(-388.2362976074219px, -88.66749572753906px);}95.24%{-webkit-transform: translate(388.2362976074219px, 88.66749572753906px) rotate(0deg) translate(-388.2362976074219px, -88.66749572753906px);transform: translate(388.2362976074219px, 88.66749572753906px) rotate(0deg) translate(-388.2362976074219px, -88.66749572753906px);}100%{-webkit-transform: translate(388.2362976074219px, 88.66749572753906px) rotate(0deg) translate(-388.2362976074219px, -88.66749572753906px);transform: translate(388.2362976074219px, 88.66749572753906px) rotate(0deg) translate(-388.2362976074219px, -88.66749572753906px);}}@-webkit-keyframes el_W3wU-tGAV3W_XlKPjTJIB_Animation{0%{-webkit-transform: translate(289.1526794433594px, 133.96510314941406px) translate(-289.1526794433594px, -133.96510314941406px) translate(0px, 0px);transform: translate(289.1526794433594px, 133.96510314941406px) translate(-289.1526794433594px, -133.96510314941406px) translate(0px, 0px);}38.10%{-webkit-transform: translate(289.1526794433594px, 133.96510314941406px) translate(-289.1526794433594px, -133.96510314941406px) translate(0px, -2px);transform: translate(289.1526794433594px, 133.96510314941406px) translate(-289.1526794433594px, -133.96510314941406px) translate(0px, -2px);}85.71%{-webkit-transform: translate(289.1526794433594px, 133.96510314941406px) translate(-289.1526794433594px, -133.96510314941406px) translate(0px, 0px);transform: translate(289.1526794433594px, 133.96510314941406px) translate(-289.1526794433594px, -133.96510314941406px) translate(0px, 0px);}100%{-webkit-transform: translate(289.1526794433594px, 133.96510314941406px) translate(-289.1526794433594px, -133.96510314941406px) translate(0px, 0px);transform: translate(289.1526794433594px, 133.96510314941406px) translate(-289.1526794433594px, -133.96510314941406px) translate(0px, 0px);}}@keyframes el_W3wU-tGAV3W_XlKPjTJIB_Animation{0%{-webkit-transform: translate(289.1526794433594px, 133.96510314941406px) translate(-289.1526794433594px, -133.96510314941406px) translate(0px, 0px);transform: translate(289.1526794433594px, 133.96510314941406px) translate(-289.1526794433594px, -133.96510314941406px) translate(0px, 0px);}38.10%{-webkit-transform: translate(289.1526794433594px, 133.96510314941406px) translate(-289.1526794433594px, -133.96510314941406px) translate(0px, -2px);transform: translate(289.1526794433594px, 133.96510314941406px) translate(-289.1526794433594px, -133.96510314941406px) translate(0px, -2px);}85.71%{-webkit-transform: translate(289.1526794433594px, 133.96510314941406px) translate(-289.1526794433594px, -133.96510314941406px) translate(0px, 0px);transform: translate(289.1526794433594px, 133.96510314941406px) translate(-289.1526794433594px, -133.96510314941406px) translate(0px, 0px);}100%{-webkit-transform: translate(289.1526794433594px, 133.96510314941406px) translate(-289.1526794433594px, -133.96510314941406px) translate(0px, 0px);transform: translate(289.1526794433594px, 133.96510314941406px) translate(-289.1526794433594px, -133.96510314941406px) translate(0px, 0px);}}@-webkit-keyframes el_kxQ19oqz7X1_daUDMWyeU_Animation{0%{-webkit-transform: translate(283.4127655029297px, 141.29454040527344px) translate(-283.4127655029297px, -141.29454040527344px) translate(0px, 0px);transform: translate(283.4127655029297px, 141.29454040527344px) translate(-283.4127655029297px, -141.29454040527344px) translate(0px, 0px);}39.68%{-webkit-transform: translate(283.4127655029297px, 141.29454040527344px) translate(-283.4127655029297px, -141.29454040527344px) translate(0px, -1px);transform: translate(283.4127655029297px, 141.29454040527344px) translate(-283.4127655029297px, -141.29454040527344px) translate(0px, -1px);}90.48%{-webkit-transform: translate(283.4127655029297px, 141.29454040527344px) translate(-283.4127655029297px, -141.29454040527344px) translate(0px, 0px);transform: translate(283.4127655029297px, 141.29454040527344px) translate(-283.4127655029297px, -141.29454040527344px) translate(0px, 0px);}100%{-webkit-transform: translate(283.4127655029297px, 141.29454040527344px) translate(-283.4127655029297px, -141.29454040527344px) translate(0px, 0px);transform: translate(283.4127655029297px, 141.29454040527344px) translate(-283.4127655029297px, -141.29454040527344px) translate(0px, 0px);}}@keyframes el_kxQ19oqz7X1_daUDMWyeU_Animation{0%{-webkit-transform: translate(283.4127655029297px, 141.29454040527344px) translate(-283.4127655029297px, -141.29454040527344px) translate(0px, 0px);transform: translate(283.4127655029297px, 141.29454040527344px) translate(-283.4127655029297px, -141.29454040527344px) translate(0px, 0px);}39.68%{-webkit-transform: translate(283.4127655029297px, 141.29454040527344px) translate(-283.4127655029297px, -141.29454040527344px) translate(0px, -1px);transform: translate(283.4127655029297px, 141.29454040527344px) translate(-283.4127655029297px, -141.29454040527344px) translate(0px, -1px);}90.48%{-webkit-transform: translate(283.4127655029297px, 141.29454040527344px) translate(-283.4127655029297px, -141.29454040527344px) translate(0px, 0px);transform: translate(283.4127655029297px, 141.29454040527344px) translate(-283.4127655029297px, -141.29454040527344px) translate(0px, 0px);}100%{-webkit-transform: translate(283.4127655029297px, 141.29454040527344px) translate(-283.4127655029297px, -141.29454040527344px) translate(0px, 0px);transform: translate(283.4127655029297px, 141.29454040527344px) translate(-283.4127655029297px, -141.29454040527344px) translate(0px, 0px);}}@-webkit-keyframes el_zY2hOJ-6LMD_nKkVwcgZl_Animation{0%{-webkit-transform: translate(275.9127502441406px, 138.2736358642578px) translate(-275.9127502441406px, -138.2736358642578px) translate(0px, 0px);transform: translate(275.9127502441406px, 138.2736358642578px) translate(-275.9127502441406px, -138.2736358642578px) translate(0px, 0px);}42.86%{-webkit-transform: translate(275.9127502441406px, 138.2736358642578px) translate(-275.9127502441406px, -138.2736358642578px) translate(0px, -3px);transform: translate(275.9127502441406px, 138.2736358642578px) translate(-275.9127502441406px, -138.2736358642578px) translate(0px, -3px);}95.24%{-webkit-transform: translate(275.9127502441406px, 138.2736358642578px) translate(-275.9127502441406px, -138.2736358642578px) translate(0px, 0px);transform: translate(275.9127502441406px, 138.2736358642578px) translate(-275.9127502441406px, -138.2736358642578px) translate(0px, 0px);}100%{-webkit-transform: translate(275.9127502441406px, 138.2736358642578px) translate(-275.9127502441406px, -138.2736358642578px) translate(0px, 0px);transform: translate(275.9127502441406px, 138.2736358642578px) translate(-275.9127502441406px, -138.2736358642578px) translate(0px, 0px);}}@keyframes el_zY2hOJ-6LMD_nKkVwcgZl_Animation{0%{-webkit-transform: translate(275.9127502441406px, 138.2736358642578px) translate(-275.9127502441406px, -138.2736358642578px) translate(0px, 0px);transform: translate(275.9127502441406px, 138.2736358642578px) translate(-275.9127502441406px, -138.2736358642578px) translate(0px, 0px);}42.86%{-webkit-transform: translate(275.9127502441406px, 138.2736358642578px) translate(-275.9127502441406px, -138.2736358642578px) translate(0px, -3px);transform: translate(275.9127502441406px, 138.2736358642578px) translate(-275.9127502441406px, -138.2736358642578px) translate(0px, -3px);}95.24%{-webkit-transform: translate(275.9127502441406px, 138.2736358642578px) translate(-275.9127502441406px, -138.2736358642578px) translate(0px, 0px);transform: translate(275.9127502441406px, 138.2736358642578px) translate(-275.9127502441406px, -138.2736358642578px) translate(0px, 0px);}100%{-webkit-transform: translate(275.9127502441406px, 138.2736358642578px) translate(-275.9127502441406px, -138.2736358642578px) translate(0px, 0px);transform: translate(275.9127502441406px, 138.2736358642578px) translate(-275.9127502441406px, -138.2736358642578px) translate(0px, 0px);}}@-webkit-keyframes el_GbC3casuSh2_JBKH_tpKSqw_Animation{0%{-webkit-transform: translate(199.71099090576172px, 76.52364921569824px) rotate(0deg) translate(-199.71099090576172px, -76.52364921569824px);transform: translate(199.71099090576172px, 76.52364921569824px) rotate(0deg) translate(-199.71099090576172px, -76.52364921569824px);}47.62%{-webkit-transform: translate(199.71099090576172px, 76.52364921569824px) rotate(5deg) translate(-199.71099090576172px, -76.52364921569824px);transform: translate(199.71099090576172px, 76.52364921569824px) rotate(5deg) translate(-199.71099090576172px, -76.52364921569824px);}100%{-webkit-transform: translate(199.71099090576172px, 76.52364921569824px) rotate(0deg) translate(-199.71099090576172px, -76.52364921569824px);transform: translate(199.71099090576172px, 76.52364921569824px) rotate(0deg) translate(-199.71099090576172px, -76.52364921569824px);}}@keyframes el_GbC3casuSh2_JBKH_tpKSqw_Animation{0%{-webkit-transform: translate(199.71099090576172px, 76.52364921569824px) rotate(0deg) translate(-199.71099090576172px, -76.52364921569824px);transform: translate(199.71099090576172px, 76.52364921569824px) rotate(0deg) translate(-199.71099090576172px, -76.52364921569824px);}47.62%{-webkit-transform: translate(199.71099090576172px, 76.52364921569824px) rotate(5deg) translate(-199.71099090576172px, -76.52364921569824px);transform: translate(199.71099090576172px, 76.52364921569824px) rotate(5deg) translate(-199.71099090576172px, -76.52364921569824px);}100%{-webkit-transform: translate(199.71099090576172px, 76.52364921569824px) rotate(0deg) translate(-199.71099090576172px, -76.52364921569824px);transform: translate(199.71099090576172px, 76.52364921569824px) rotate(0deg) translate(-199.71099090576172px, -76.52364921569824px);}}@-webkit-keyframes el_GbC3casuSh2_vPn2-O_oo_Animation{0%{-webkit-transform: translate(199.71099090576172px, 76.52364921569824px) translate(-199.71099090576172px, -76.52364921569824px) translate(0px, 0px);transform: translate(199.71099090576172px, 76.52364921569824px) translate(-199.71099090576172px, -76.52364921569824px) translate(0px, 0px);}47.62%{-webkit-transform: translate(199.71099090576172px, 76.52364921569824px) translate(-199.71099090576172px, -76.52364921569824px) translate(0px, 5px);transform: translate(199.71099090576172px, 76.52364921569824px) translate(-199.71099090576172px, -76.52364921569824px) translate(0px, 5px);}100%{-webkit-transform: translate(199.71099090576172px, 76.52364921569824px) translate(-199.71099090576172px, -76.52364921569824px) translate(0px, 0px);transform: translate(199.71099090576172px, 76.52364921569824px) translate(-199.71099090576172px, -76.52364921569824px) translate(0px, 0px);}}@keyframes el_GbC3casuSh2_vPn2-O_oo_Animation{0%{-webkit-transform: translate(199.71099090576172px, 76.52364921569824px) translate(-199.71099090576172px, -76.52364921569824px) translate(0px, 0px);transform: translate(199.71099090576172px, 76.52364921569824px) translate(-199.71099090576172px, -76.52364921569824px) translate(0px, 0px);}47.62%{-webkit-transform: translate(199.71099090576172px, 76.52364921569824px) translate(-199.71099090576172px, -76.52364921569824px) translate(0px, 5px);transform: translate(199.71099090576172px, 76.52364921569824px) translate(-199.71099090576172px, -76.52364921569824px) translate(0px, 5px);}100%{-webkit-transform: translate(199.71099090576172px, 76.52364921569824px) translate(-199.71099090576172px, -76.52364921569824px) translate(0px, 0px);transform: translate(199.71099090576172px, 76.52364921569824px) translate(-199.71099090576172px, -76.52364921569824px) translate(0px, 0px);}}@-webkit-keyframes el_yPqBKMx-CHo_LCoC_Qrf9_Animation{0%{-webkit-transform: translate(258.5887451171875px, 75.35601043701172px) translate(-258.5887451171875px, -75.35601043701172px) translate(0px, 0px);transform: translate(258.5887451171875px, 75.35601043701172px) translate(-258.5887451171875px, -75.35601043701172px) translate(0px, 0px);}47.62%{-webkit-transform: translate(258.5887451171875px, 75.35601043701172px) translate(-258.5887451171875px, -75.35601043701172px) translate(0px, 10px);transform: translate(258.5887451171875px, 75.35601043701172px) translate(-258.5887451171875px, -75.35601043701172px) translate(0px, 10px);}100%{-webkit-transform: translate(258.5887451171875px, 75.35601043701172px) translate(-258.5887451171875px, -75.35601043701172px) translate(0px, 0px);transform: translate(258.5887451171875px, 75.35601043701172px) translate(-258.5887451171875px, -75.35601043701172px) translate(0px, 0px);}}@keyframes el_yPqBKMx-CHo_LCoC_Qrf9_Animation{0%{-webkit-transform: translate(258.5887451171875px, 75.35601043701172px) translate(-258.5887451171875px, -75.35601043701172px) translate(0px, 0px);transform: translate(258.5887451171875px, 75.35601043701172px) translate(-258.5887451171875px, -75.35601043701172px) translate(0px, 0px);}47.62%{-webkit-transform: translate(258.5887451171875px, 75.35601043701172px) translate(-258.5887451171875px, -75.35601043701172px) translate(0px, 10px);transform: translate(258.5887451171875px, 75.35601043701172px) translate(-258.5887451171875px, -75.35601043701172px) translate(0px, 10px);}100%{-webkit-transform: translate(258.5887451171875px, 75.35601043701172px) translate(-258.5887451171875px, -75.35601043701172px) translate(0px, 0px);transform: translate(258.5887451171875px, 75.35601043701172px) translate(-258.5887451171875px, -75.35601043701172px) translate(0px, 0px);}}@-webkit-keyframes el_dsQR3upw_t_hltsFTXCF_Animation{0%{-webkit-transform: translate(132.26272773742676px, 255.03810119628906px) translate(-132.26272773742676px, -255.03810119628906px) translate(0px, 0px);transform: translate(132.26272773742676px, 255.03810119628906px) translate(-132.26272773742676px, -255.03810119628906px) translate(0px, 0px);}47.62%{-webkit-transform: translate(132.26272773742676px, 255.03810119628906px) translate(-132.26272773742676px, -255.03810119628906px) translate(0px, -10px);transform: translate(132.26272773742676px, 255.03810119628906px) translate(-132.26272773742676px, -255.03810119628906px) translate(0px, -10px);}100%{-webkit-transform: translate(132.26272773742676px, 255.03810119628906px) translate(-132.26272773742676px, -255.03810119628906px) translate(0px, 0px);transform: translate(132.26272773742676px, 255.03810119628906px) translate(-132.26272773742676px, -255.03810119628906px) translate(0px, 0px);}}@keyframes el_dsQR3upw_t_hltsFTXCF_Animation{0%{-webkit-transform: translate(132.26272773742676px, 255.03810119628906px) translate(-132.26272773742676px, -255.03810119628906px) translate(0px, 0px);transform: translate(132.26272773742676px, 255.03810119628906px) translate(-132.26272773742676px, -255.03810119628906px) translate(0px, 0px);}47.62%{-webkit-transform: translate(132.26272773742676px, 255.03810119628906px) translate(-132.26272773742676px, -255.03810119628906px) translate(0px, -10px);transform: translate(132.26272773742676px, 255.03810119628906px) translate(-132.26272773742676px, -255.03810119628906px) translate(0px, -10px);}100%{-webkit-transform: translate(132.26272773742676px, 255.03810119628906px) translate(-132.26272773742676px, -255.03810119628906px) translate(0px, 0px);transform: translate(132.26272773742676px, 255.03810119628906px) translate(-132.26272773742676px, -255.03810119628906px) translate(0px, 0px);}}@-webkit-keyframes el_iz0h-sO4fi_IEtbWeVFz_Animation{0%{-webkit-transform: translate(134.1999969482422px, 462.8999938964844px) scale(1, 1) translate(-134.1999969482422px, -462.8999938964844px);transform: translate(134.1999969482422px, 462.8999938964844px) scale(1, 1) translate(-134.1999969482422px, -462.8999938964844px);}47.62%{-webkit-transform: translate(134.1999969482422px, 462.8999938964844px) scale(0.9, 0.9) translate(-134.1999969482422px, -462.8999938964844px);transform: translate(134.1999969482422px, 462.8999938964844px) scale(0.9, 0.9) translate(-134.1999969482422px, -462.8999938964844px);}100%{-webkit-transform: translate(134.1999969482422px, 462.8999938964844px) scale(1, 1) translate(-134.1999969482422px, -462.8999938964844px);transform: translate(134.1999969482422px, 462.8999938964844px) scale(1, 1) translate(-134.1999969482422px, -462.8999938964844px);}}@keyframes el_iz0h-sO4fi_IEtbWeVFz_Animation{0%{-webkit-transform: translate(134.1999969482422px, 462.8999938964844px) scale(1, 1) translate(-134.1999969482422px, -462.8999938964844px);transform: translate(134.1999969482422px, 462.8999938964844px) scale(1, 1) translate(-134.1999969482422px, -462.8999938964844px);}47.62%{-webkit-transform: translate(134.1999969482422px, 462.8999938964844px) scale(0.9, 0.9) translate(-134.1999969482422px, -462.8999938964844px);transform: translate(134.1999969482422px, 462.8999938964844px) scale(0.9, 0.9) translate(-134.1999969482422px, -462.8999938964844px);}100%{-webkit-transform: translate(134.1999969482422px, 462.8999938964844px) scale(1, 1) translate(-134.1999969482422px, -462.8999938964844px);transform: translate(134.1999969482422px, 462.8999938964844px) scale(1, 1) translate(-134.1999969482422px, -462.8999938964844px);}}@-webkit-keyframes el_MPXUDkMZd3_58yld7seg_Animation{0%{-webkit-transform: translate(404.99999237060547px, 462.8999938964844px) scale(1, 1) translate(-404.99999237060547px, -462.8999938964844px);transform: translate(404.99999237060547px, 462.8999938964844px) scale(1, 1) translate(-404.99999237060547px, -462.8999938964844px);}47.62%{-webkit-transform: translate(404.99999237060547px, 462.8999938964844px) scale(1.1, 1.1) translate(-404.99999237060547px, -462.8999938964844px);transform: translate(404.99999237060547px, 462.8999938964844px) scale(1.1, 1.1) translate(-404.99999237060547px, -462.8999938964844px);}100%{-webkit-transform: translate(404.99999237060547px, 462.8999938964844px) scale(1, 1) translate(-404.99999237060547px, -462.8999938964844px);transform: translate(404.99999237060547px, 462.8999938964844px) scale(1, 1) translate(-404.99999237060547px, -462.8999938964844px);}}@keyframes el_MPXUDkMZd3_58yld7seg_Animation{0%{-webkit-transform: translate(404.99999237060547px, 462.8999938964844px) scale(1, 1) translate(-404.99999237060547px, -462.8999938964844px);transform: translate(404.99999237060547px, 462.8999938964844px) scale(1, 1) translate(-404.99999237060547px, -462.8999938964844px);}47.62%{-webkit-transform: translate(404.99999237060547px, 462.8999938964844px) scale(1.1, 1.1) translate(-404.99999237060547px, -462.8999938964844px);transform: translate(404.99999237060547px, 462.8999938964844px) scale(1.1, 1.1) translate(-404.99999237060547px, -462.8999938964844px);}100%{-webkit-transform: translate(404.99999237060547px, 462.8999938964844px) scale(1, 1) translate(-404.99999237060547px, -462.8999938964844px);transform: translate(404.99999237060547px, 462.8999938964844px) scale(1, 1) translate(-404.99999237060547px, -462.8999938964844px);}}#el_HUTKfPipr *{-webkit-animation-duration: 2.1s;animation-duration: 2.1s;-webkit-animation-iteration-count: infinite;animation-iteration-count: infinite;-webkit-animation-timing-function: cubic-bezier(0, 0, 1, 1);animation-timing-function: cubic-bezier(0, 0, 1, 1);}#el_iz0h-sO4fi{opacity: 0.25;fill: #406470;enable-background: new;}#el_MPXUDkMZd3{opacity: 0.25;fill: #406470;enable-background: new;}#el_0SSuWDnblr{fill: #FFD16A;}#el_BYhVy3IIGR{opacity: 0.41;fill: #E2D9E2;enable-background: new;}#el_GJqcOR7nn1{fill: #4A8093;}#el_NUmlLgLEm6{fill: #4A8093;}#el_8UAjVqChtM{fill: #5ABDEB;}#el_7jQ1kDhZCc{fill: #5ABDEB;}#el_hzTR89OflH{fill: #5ABDEB;}#el_b20bgOpy3Z{fill: #FFFFFF;}#el_ZuYlOM7Yw1{fill: #FFFFFF;}#el_Hmaq-GRIj_W{fill: #FFD16A;}#el_Ktyp_aLGe5c{fill: #FFD16A;}#el_kmaL5tJpP41{fill: #FFFFFF;}#el_RqIjFxwD1nm{fill: #0B1C30;}#el_1XfBAVlMLyW{fill: #0B1C30;}#el_xrrPCQZYJ71{fill: #4A8093;-webkit-transform: matrix(0.9271, -0.3749, 0.3749, 0.9271, -29.557, 46.4455);transform: matrix(0.9271, -0.3749, 0.3749, 0.9271, -29.557, 46.4455);}#el_rgMZu54NrEL{fill: #0B1C30;}#el_xP4bf7z5oHC{fill: #4A8093;}#el_Wi_oZG5zXJb{fill: #0B1C30;}#el_Qpk3AchdXna{fill: #0B1C30;}#el_1_wMt42doan{fill: #0B1C30;}#el_WVIDc0uHHJD{fill: #0B1C30;}#el_VWvo_HKJH5F{fill: #0B1C30;}#el_PzDAZCtuH88{fill: #0B1C30;}#el_esYJydpXHW2{fill: #0B1C30;}#el_mu_OGkubRrF{fill: #0B1C30;}#el_UV768pmowVl{fill: #0B1C30;}#el_5d8Mog8RAxO{fill: #0B1C30;}#el_-tVVrdSkIpc{fill: #0B1C30;}#el_W-p3fWVtP5H{fill: #0B1C30;}#el_5t67oszi3qm{fill: #0B1C30;}#el_t_LUbnRe6i8{fill: #0B1C30;}#el_DI3lhsL-eCT{fill: #0B1C30;}#el_qSsLVoqc5x-{fill: #0B1C30;}#el_XV4-YWLGdd8{fill: #9AACED;}#el__aCCPHURSIO{fill: #4C5D8E;}#el_3MPdpqERZYD{fill: #4C5D8E;}#el_w8117LUGsZh{fill: #FFFFFF;}#el_PFYqaNBr-4O{fill: #FFFFFF;}#el_eJOKl-EX9fG{fill: #0B1C30;}#el_qecXSSv8_iv{fill: #0B1C30;}#el_PARFBySL7hM{fill: #0B1C30;}#el_v9z0g_KNEd7{fill: #0B1C30;}#el_HjTu7X5pxiH{fill: #0B1C30;}#el_GJRVm2tDRMw{fill: #0B1C30;}#el_DnOoUxPJWM2{fill: #0B1C30;}#el_3r_cL0ivLIw{fill: #4C5D8E;}#el_khzB_3do-3v{fill: #0B1C30;}#el_qo8nUv6XOw4{fill: #0B1C30;}#el_QTvhBvV0l6e{fill: #0B1C30;}#el_J5BParnphdC{fill: #0B1C30;}#el_SauiGAaS7id{fill: #0B1C30;}#el_sgzSgB6OJvO{fill: #0B1C30;}#el_hiAb9qgRXHO{fill: #0B1C30;}#el_c_4QJft4VFo{fill: #0B1C30;}#el_2YDOdYuwGWG{fill: #0B1C30;}#el_LgiUr807o3Q{fill: #0B1C30;}#el_QZmp-1gsbYl{fill: #0B1C30;}#el_gfUp2plCSAB{fill: #0B1C30;}#el_ANYeSRHigfF{fill: #0B1C30;}#el_hWSF76fcnQX{fill: #0B1C30;}#el_4c4ftPdk_Q1{fill: #FFD16A;}#el_xwI4zVjwCIU{fill: #4C5D8E;}#el_KlWq5eLOqZX{fill: #0B1C30;}#el_dhh4NUYme-v{fill: #0B1C30;}#el_qV88gw8RSyG{fill: #0B1C30;}#el_rVOUUOL6nLA{fill: #0B1C30;}#el_Q0ZE3lUZgjW{fill: #0B1C30;}#el_zFncUnMqkpX{fill: #0B1C30;}#el_YukTTpUHw2V{fill: #0B1C30;}#el_PxioZkgBaO4{fill: #0B1C30;}#el_VXu3Oh60SD8{fill: #9AACED;}#el_W-aK4T5exXX{fill: #0B1C30;}#el_VbUte7T9nEc{fill: #0B1C30;}#el_W6tY-M0iElZ{fill: #0B1C30;}#el_QlvGqGDOfsB{fill: #FFD16A;}#el_cqi-02Y4NpX{fill: #FFD16A;}#el_eeRSupvRxcX{fill: #0B1C30;}#el_qTnHU5H1zan{fill: #0B1C30;}#el_0PG2tB2YV5n{fill: #0B1C30;}#el_B9tUxdbwQD3{fill: #0B1C30;}#el_MPXUDkMZd3_58yld7seg{-webkit-animation-name: el_MPXUDkMZd3_58yld7seg_Animation;animation-name: el_MPXUDkMZd3_58yld7seg_Animation;-webkit-transform: translate(404.99999237060547px, 462.8999938964844px) scale(1, 1) translate(-404.99999237060547px, -462.8999938964844px);transform: translate(404.99999237060547px, 462.8999938964844px) scale(1, 1) translate(-404.99999237060547px, -462.8999938964844px);}#el_iz0h-sO4fi_IEtbWeVFz{-webkit-animation-name: el_iz0h-sO4fi_IEtbWeVFz_Animation;animation-name: el_iz0h-sO4fi_IEtbWeVFz_Animation;-webkit-transform: translate(134.1999969482422px, 462.8999938964844px) scale(1, 1) translate(-134.1999969482422px, -462.8999938964844px);transform: translate(134.1999969482422px, 462.8999938964844px) scale(1, 1) translate(-134.1999969482422px, -462.8999938964844px);}#el_dsQR3upw_t_hltsFTXCF{-webkit-animation-name: el_dsQR3upw_t_hltsFTXCF_Animation;animation-name: el_dsQR3upw_t_hltsFTXCF_Animation;}#el_yPqBKMx-CHo_LCoC_Qrf9{-webkit-animation-name: el_yPqBKMx-CHo_LCoC_Qrf9_Animation;animation-name: el_yPqBKMx-CHo_LCoC_Qrf9_Animation;}#el_GbC3casuSh2_vPn2-O_oo{-webkit-animation-name: el_GbC3casuSh2_vPn2-O_oo_Animation;animation-name: el_GbC3casuSh2_vPn2-O_oo_Animation;}#el_GbC3casuSh2_JBKH_tpKSqw{-webkit-animation-name: el_GbC3casuSh2_JBKH_tpKSqw_Animation;animation-name: el_GbC3casuSh2_JBKH_tpKSqw_Animation;}#el_zY2hOJ-6LMD_nKkVwcgZl{-webkit-animation-name: el_zY2hOJ-6LMD_nKkVwcgZl_Animation;animation-name: el_zY2hOJ-6LMD_nKkVwcgZl_Animation;}#el_kxQ19oqz7X1_daUDMWyeU{-webkit-animation-name: el_kxQ19oqz7X1_daUDMWyeU_Animation;animation-name: el_kxQ19oqz7X1_daUDMWyeU_Animation;}#el_W3wU-tGAV3W_XlKPjTJIB{-webkit-animation-name: el_W3wU-tGAV3W_XlKPjTJIB_Animation;animation-name: el_W3wU-tGAV3W_XlKPjTJIB_Animation;}#el_kC_2vXvYAH9_HRoC3bI7g{-webkit-animation-name: el_kC_2vXvYAH9_HRoC3bI7g_Animation;animation-name: el_kC_2vXvYAH9_HRoC3bI7g_Animation;}#el_y_op8og7bX7_dJxGtQOfd{-webkit-animation-name: el_y_op8og7bX7_dJxGtQOfd_Animation;animation-name: el_y_op8og7bX7_dJxGtQOfd_Animation;}#el_yLYLR3Y0tKx_P2OCtHri1{-webkit-animation-name: el_yLYLR3Y0tKx_P2OCtHri1_Animation;animation-name: el_yLYLR3Y0tKx_P2OCtHri1_Animation;}#el_rIb55QRh9Mg_mTfxJlW8c{-webkit-animation-name: el_rIb55QRh9Mg_mTfxJlW8c_Animation;animation-name: el_rIb55QRh9Mg_mTfxJlW8c_Animation;}#el_Cwyn85GDIkt_ODDE020r3{-webkit-animation-name: el_Cwyn85GDIkt_ODDE020r3_Animation;animation-name: el_Cwyn85GDIkt_ODDE020r3_Animation;}#el_OI6LD9glnsq_kl2ByBbCc{-webkit-animation-name: el_OI6LD9glnsq_kl2ByBbCc_Animation;animation-name: el_OI6LD9glnsq_kl2ByBbCc_Animation;}#el_OI6LD9glnsq_4_T4uiSfm{-webkit-animation-name: el_OI6LD9glnsq_4_T4uiSfm_Animation;animation-name: el_OI6LD9glnsq_4_T4uiSfm_Animation;}#el_Cwyn85GDIkt_LvC0RiUbi{-webkit-animation-name: el_Cwyn85GDIkt_LvC0RiUbi_Animation;animation-name: el_Cwyn85GDIkt_LvC0RiUbi_Animation;}</style>

<g id="el_iz0h-sO4fi_IEtbWeVFz" data-animator-group="true" data-animator-type="2"><ellipse cx="134.2" cy="462.9" rx="84.1" ry="7.5" id="el_iz0h-sO4fi"/></g>
<g id="el_MPXUDkMZd3_58yld7seg" data-animator-group="true" data-animator-type="2"><ellipse cx="405" cy="462.9" rx="84.1" ry="7.5" id="el_MPXUDkMZd3"/></g>
<g id="el_dsQR3upw_t_hltsFTXCF" data-animator-group="true" data-animator-type="0"><g id="el_dsQR3upw_t">
	<path d="M235.7,166.5c-1.6-2.4,0-6.3,3.2-7.9c-2.4,1.6-5.5,1.6-7.1,0c-3.2-2.4-1.6-7.1,1.6-10.2&#10;&#9;&#9;c-2.4,0-6.3,1.6-7.1-0.8c-2.9-5.1,0.9-10.2,5.8-11.6c-0.6-1.5-2.6-4.9-6-3.6c-4.3,1.6-20.4,6.8-20.6,11.8&#10;&#9;&#9;c-0.2,3.9,2.8,7.9,3.8,10.2c1.6-4,6.2-6.7,9.5-2.2c3.2,4.3-0.2,11.6-3.1,16.1c0.7,1.6,1.2,3.2,1.9,5c1.3,3.1,3.7,12.5,14,7.2&#10;&#9;&#9;c2.6-1.3,6.3-3.2,9-4.3c0.1-0.2,0.2-0.2,0.2-0.2s5.1-1.7,5.6-4c0.5-2,0.2-4,0-4.5C242.5,168.9,238.8,169.5,235.7,166.5z" id="el_0SSuWDnblr"/>
	<path d="M214.8,170.7c0.1-0.2,0.2-0.4,0.4-0.6C214.8,170.4,214.5,171,214.8,170.7z" id="el_BYhVy3IIGR"/>
	<g id="el_7bJK51Rwjw">
		<path d="M86.4,108.9c-0.7,4.7,4,11.8,7.2,7.9c4.7-5.5-0.8-11.8-2.4-17.3c4.7,0,9.5-1.6,10.2-7.1&#10;&#9;&#9;&#9;c3.2,2.4,7.1,0.8,7.9-3.2c1.6,3.9,4.7,2.4,6.3-0.8c1.6,3.2,5.5,3.2,8.7,1.6c3.1,0.8,3.9,3.9,6.2,5.4c0.7-1.9,5.3-15.4-3.2-20.7&#10;&#9;&#9;&#9;c-9-5.7-13.5-1.4-13.5-1.4s-13.9-10.5-23-3.7s-8,15.8-8,15.8s-9.3,1.7-9.8,8.8c-0.5,7.2,5,14.3,5,14.3s-0.2,0-0.5,0.2&#10;&#9;&#9;&#9;C80.6,108.9,83.7,108.9,86.4,108.9z" id="el_GJqcOR7nn1"/>
		<path d="M137.1,128c-1.7-0.8-3.3-1.8-4.9-0.2c-6.3-8.7-18.9-7.9-27.6-4.7c-4.7,2.4-7.9,7.9-7.1,13.4&#10;&#9;&#9;&#9;c-3.6-2.1-7.8-3-12.1-3.2v0.3c0,0-12.9,5.6-5,23.7c0,0,0,0-0.1,0c10.5,10.6,26.7,11.3,40.8,10.6c9.7-0.7,15.8-8.1,24-12.5&#10;&#9;&#9;&#9;c-1.3-0.4-2-0.6-2-0.6S153.3,136.7,137.1,128z" id="el_NUmlLgLEm6"/>
	</g>
	<g id="el_f9d7hrnk6Q">
		<path d="M248,160.7c-2.3-5-4.9-3.3-4.9-3.3s1.7-2,0-7.1s-5.8-3.3-5.8-3.3s2.3-4.1,0.8-8.1s-5.7-2.2-5.7-2.2&#10;&#9;&#9;&#9;s-0.1-0.2-0.2-0.6c-5,1.4-8.7,6.5-5.8,11.6c0.8,2.4,4.7,0.8,7.1,0.8c-3.2,3.2-4.7,7.9-1.6,10.2c1.6,1.6,4.7,1.6,7.1,0&#10;&#9;&#9;&#9;c-3.2,1.6-4.7,5.5-3.2,7.9c3,3,6.8,2.4,10.6,0.9c0-0.1,0-0.1,0-0.2c0,0.1-0.1,0.1,0,0C247.2,166.9,250,165.1,248,160.7z" id="el_8UAjVqChtM"/>
		<path d="M22.6,309.2c5.8,13.2,16.1-10.2,16.1-10.2s-6.9,16.1,1.3,17.8c3.5,0.7,5.7-1.7,7.1-4.7&#10;&#9;&#9;&#9;c0.5-4.8,2.5-10.1,2.5-10.1s-0.5,5.7-2.5,10.1c-0.3,3.4,0.1,6.5,2.5,7.5c5.8,2.3,10.1-19,10.1-19l0.1,0.6l0,0l11.7,108.3&#10;&#9;&#9;&#9;c0,0,23.2,49.1,44.2,28c7.6-7.6-4-36.6-4-36.6s10.6-40.6,11.7-54.4c0.9-10.6,2-35.8,2-35.8s8.1,3,10.7,20.6&#10;&#9;&#9;&#9;c2.7,17.6-14.3,70.7-14.3,70.7s31.3,33.6,47.5,25.7c16.1-8-8.7-28.4-8.7-28.4s23.2-54.7,20.2-76.1c-3.7-26.9-13.3-49.1-14.7-51.2&#10;&#9;&#9;&#9;c0,0,0,0,0.1,0c0-0.1-0.1-0.1-0.1-0.1l-8.6-48.8c0,0,13.1,13.2,34.3,10.8c16.9-1.9,26.3-21.3,39.1-37.7c-0.7-0.7-1.5-1.3-2.2-2&#10;&#9;&#9;&#9;c5.1-6.7,9.6-12.9,12.7-17.4c-1.7,0.2-8.8,4.3-14.9,6.1c-2.8,0.9-5.3-3.1-6.2-4c-0.9-1-2.6-6.7-3.9-8.7c-0.3-0.6-0.8-0.4-1.1-0.1&#10;&#9;&#9;&#9;c-0.2,0.2-0.3,0.5-0.4,0.6c-0.2,0.3,0-0.2,0.4-0.6c1.7-2.8,5.8-11.6,2.8-17.7c-0.6-1.2-4.3-3.1-6.2-0.5c-2.5,3.5-4.6,12-7.7,18.7&#10;&#9;&#9;&#9;c-0.2,0.4-0.4,0.8-0.6,1.2l0,0l0,0c-5.4,11.4-11.6,21.7-14.4,21.8c-6.9,0.2-15.7-26.5-25.3-31c-7.1-3.3-14.9-6-18.4-7.2&#10;&#9;&#9;&#9;c-8.3,4.5-14.3,11.8-24,12.5c-14.2,0.7-30.4,0.1-40.8-10.6c-0.9,0.2-28.8,5.6-36.8,24.9C33.9,205.9,20.7,304.9,22.6,309.2z" id="el_7jQ1kDhZCc"/>
		<path d="M85,123.6l0.4,9.8c4.3,0.2,8.5,0.9,12.1,3.2c-0.7-5.7,2.4-11.2,7.2-13.5c8.7-3.2,21.3-3.9,27.6,4.7&#10;&#9;&#9;&#9;c1.7-1.7,3.3-0.6,4.9,0.2l-2-12.4c0,0,7.2-3,5.8-9.2c-0.7-3.1-7.6-0.3-7.6-0.3l-2.8-10.3c0,0,0-0.1,0.1-0.2&#10;&#9;&#9;&#9;c-2.3-1.6-3.1-4.6-6.2-5.4c-3.2,1.6-7.1,1.6-8.7-1.6c-1.6,3.2-4.7,4.7-6.3,0.8c-0.8,3.9-4.7,5.5-7.9,3.2&#10;&#9;&#9;&#9;c-0.8,5.5-5.5,7.1-10.2,7.1c1.6,5.5,7.1,11.8,2.4,17.3c-3.2,3.9-7.9-3.2-7.1-7.9c-2.7,0-5.8,0-8.7-0.2c-1.7,0.5-6.9,2.5-5.6,9.1&#10;&#9;&#9;&#9;C73.1,122.7,83,123.6,85,123.6z" id="el_hzTR89OflH"/>
	</g>
	<path d="M99.6,110.7c0,0,1.2-4.7,5.5-4.4c4.3,0.3,6.5,2.2,6.5,2.2l-2.4,5.4c0,0-3.9,0.6-6.2-0.2&#10;&#9;&#9;C100.7,112.9,99.6,110.7,99.6,110.7z" id="el_b20bgOpy3Z"/>
	<path d="M120.6,106.3c0,0,1.5-4.3,5.1-4.5c3.6-0.2,5.5,6,5.5,6s-5.2,1.6-7.6,1.6C121.3,109.4,120.6,106.3,120.6,106.3z&#10;&#9;&#9;" id="el_ZuYlOM7Yw1"/>
	<g id="el_YEwZFDMZh2">
		<path d="M72.3,162.2c5.6-2.5,11.2-4.5,11-4.8c-4.1-7.1-2.3-17.9-2.3-17.9s-8.1-2.6-19.4-2.8c-11.3-0.1-13,16-13,16&#10;&#9;&#9;&#9;l-1.9-0.3c-13.2-0.8-25.8,8.1-30.5,30.3s17.3,39.9,17.3,39.9s1.1-0.7,7.5-25.2c5.1-19.4,15-26.5,18.9-28.6&#10;&#9;&#9;&#9;c1.9,0.7,20.6,8.4,25.1,28.1c4.7,20.8-6.6,28.6-6.6,28.6l-1.7,12.4c0,0,27,0.2,23.3-39.6C97.5,170.1,75.7,163.1,72.3,162.2z" id="el_Hmaq-GRIj_W"/>
		<path d="M165.4,199.7c-1.6-17.3-5.2-29.9-11-37.6c-1.7-2.3-9.7-6.7-9.7-6.7l-5.6,4.4c0,0,12.9,29.7,15.7,47.3&#10;&#9;&#9;&#9;s2.7,15.9,2.7,15.9S167,216.9,165.4,199.7z" id="el_Ktyp_aLGe5c"/>
	</g>
	<path d="M236.8,164.1c-0.6-2,0.4-3.9,2-5.1c-2.6-0.1-5.8-0.7-7.1-3c-1.6-2.7-0.3-5.9,1.9-7.8c-2.4,0-4.8-0.8-6.4-2.8&#10;&#9;&#9;c-1.2-1.5-1.6-3.5-0.7-5.3c0.6-1.1,1.4-1.9,2.4-2.6l-0.1-0.2c-0.9-1.8-3.1-2.7-5-1.8l-13.5,6.3c-1.8,0.9-2.7,3.1-1.8,5l2.4,5.2&#10;&#9;&#9;c0.2-0.2,0.2-0.2,0.4-0.3c2.4-1.7,6.2-1.1,7.7,1.6c0.9,1.6,0.7,3.4,0.1,5c-0.7,1.9-1.3,3.8-1.7,5.8c-0.1,0.4-0.2,0.7-0.4,0.9&#10;&#9;&#9;l3.5,7.4c0.9,1.8,3.1,2.7,5,1.8l13.5-6.3c0.2-0.2,0.5-0.2,0.7-0.5C238.3,166.8,237.2,165.7,236.8,164.1z" id="el_kmaL5tJpP41"/>
	<path d="M108.1,106.3c0,0-2.4,1.9-1.8,4.6c0.4,2.1,2.8,2.8,2.8,2.8s2.3-0.5,3.2-1.5c1.4-1.5,1.6-2.6,1.6-2.6&#10;&#9;&#9;s-0.5-1.3-2.4-2.4C109.7,106.3,108.1,106.3,108.1,106.3z" id="el_RqIjFxwD1nm"/>
	<path d="M127.8,101.3c0,0-1.8,2.4-0.7,4.8c0.9,2,3.4,2.1,3.4,2.1s2.1-0.9,2.8-2.2c1-1.8,0.9-2.8,0.9-2.8&#10;&#9;&#9;s-0.7-1.1-2.9-1.7C129.3,100.8,127.8,101.3,127.8,101.3z" id="el_1XfBAVlMLyW"/>
	<g id="el_OI6LD9glnsq_4_T4uiSfm" data-animator-group="true" data-animator-type="0"><g id="el_OI6LD9glnsq_kl2ByBbCc" data-animator-group="true" data-animator-type="1"><g id="el_OI6LD9glnsq">
		<ellipse cx="104.6" cy="99.2" rx="6.2" ry="3.1" id="el_xrrPCQZYJ71"/>
		<g id="el__uyyz722L1k">
			<path d="M109.6,97.1c0.9,3.2-8.1,6.9-9.7,4.2c-0.9-1.7,1.7-3.2,3.2-3.9c1.5-0.7,5.4-2.1,6.6-0.1&#10;&#9;&#9;&#9;&#9;c0.5,0.9,1.9,0.1,1.3-0.8c-2.6-4.6-15,0.4-13,5.4s14.4-0.1,13.1-5.2C110.9,95.7,109.4,96.1,109.6,97.1z" id="el_rgMZu54NrEL"/>
		</g>
	</g></g></g>
	<g id="el_Cwyn85GDIkt_LvC0RiUbi" data-animator-group="true" data-animator-type="0"><g id="el_Cwyn85GDIkt_ODDE020r3" data-animator-group="true" data-animator-type="1"><g id="el_Cwyn85GDIkt">
		<ellipse cx="125" cy="94.3" rx="6.2" ry="3.1" id="el_xP4bf7z5oHC"/>
		<g id="el_6krMJ6eVHor">
			<path d="M130.5,94c-0.5,3.5-10.9,3.5-10.9,0.2s10.4-3.2,10.9,0.2c0.2,1,1.7,0.6,1.5-0.4c-0.7-5.1-14-5.1-14,0.2&#10;&#9;&#9;&#9;&#9;s13.3,5.4,14,0.2C132.1,93.5,130.6,93,130.5,94z" id="el_Wi_oZG5zXJb"/>
		</g>
	</g></g></g>
	<g id="el_ZKIFyyse1xh">
		<path d="M107.4,105.6c-3.7-0.3-7.1,1.3-8.3,4.9c-0.2,0.2-0.3,0.4-0.2,0.7c0.9,3.3,6.2,3.7,8.8,3.5&#10;&#9;&#9;&#9;c2.4-0.2,7.2-1.7,7.1-4.9C114.7,106.9,109.5,105.8,107.4,105.6z M112.4,111.1c-1.1,1.4-3,1.9-4.7,2c-1.8,0.2-6.4,0.1-7.2-2.2&#10;&#9;&#9;&#9;c0.9-2.8,3.6-4.1,6.5-3.9c1.7,0.1,3.6,0.6,5.1,1.6c0.3,0.2,0.8,0.9,1.1,1.1C113,110.1,112.7,110.8,112.4,111.1z" id="el_Qpk3AchdXna"/>
		<path d="M85,124.3c1,0,1-1.6,0-1.6c-4.9,0-13.4-1.7-12.3-8.2c1-6,8.5-5.7,13.2-4.5c0.4,4.4,1.5,9,4.7,9.7&#10;&#9;&#9;&#9;c9,1.8,4-14.3,2.2-19.6c7.7,0.3,10.5-9.1,9-15.6c-0.2-1-1.7-0.6-1.5,0.4c1.3,5.6-0.9,14.7-8.4,13.5c-0.6-0.1-1.2,0.3-0.9,0.9&#10;&#9;&#9;&#9;c0.9,2.6,1.8,5.4,2.4,8c0.5,2,0.7,4.1,0.8,6.2c0,0.8,0.3,2,0,2.8c-0.8,1.9-3.1,2.1-4.3,0.9c-1.9-1.9-2-6.6-2.1-9.1&#10;&#9;&#9;&#9;c-0.2-1.8-0.2-3.6-0.2-5.4c-0.2-0.9-1.8-0.9-1.8,0.2c0,1.3,0,3.3,0.1,5.5c-2.1-0.5-4.6-0.8-6.9-0.5c-2-3.2-3.7-6.8-4.5-10.5&#10;&#9;&#9;&#9;c-0.8-3.9,0.1-7.1,3.2-9.7c1.3-1.2,3.4-2.1,5.3-1.5c0.6,0.2,0.9-0.3,1-0.8c0.4-4.3,1.7-9.4,4.6-12.7c4.1-4.8,12.2-4.7,16.3-0.1&#10;&#9;&#9;&#9;c0.7,0.8,1.8-0.4,1.1-1.1c-4.1-4.6-11.8-5.3-16.8-1.7c-4.3,3.2-6.1,9.3-6.8,14.5c-4.7-0.7-9.3,4.7-9.7,8.8c-0.6,5,2,10.6,4.6,15&#10;&#9;&#9;&#9;c-3,0.7-5.5,2.5-6,6.1C70,121.9,79.1,124.3,85,124.3z" id="el_1_wMt42doan"/>
		<path d="M104.8,92.5c-0.9,0.6-0.1,1.9,0.8,1.3c4-2.4,5.5-7.2,3.9-11.6c-0.3-0.9-1.9-0.6-1.5,0.4&#10;&#9;&#9;&#9;C109.4,86.4,108.3,90.4,104.8,92.5z" id="el_WVIDc0uHHJD"/>
		<path d="M112.8,91.8c4.2-2.8,5.4-7.9,3.6-12.4c-0.4-0.9-1.9-0.6-1.5,0.4c1.5,3.9,0.7,8.3-2.9,10.6&#10;&#9;&#9;&#9;C111.1,91,111.9,92.4,112.8,91.8z" id="el_VWvo_HKJH5F"/>
		<path d="M123.4,90c-0.9,0.6-0.1,1.9,0.8,1.3c2.8-1.7,3.8-7.5,2-10.2c-0.6-0.8-1.9,0-1.3,0.9&#10;&#9;&#9;&#9;C126.2,84,125.5,88.7,123.4,90z" id="el_PzDAZCtuH88"/>
		<path d="M114.6,73.8c5.9-5.7,13.5,0.2,15,6.9c0.8,3.4,0.4,7.2-0.9,10.5c-0.4,0.9,1.1,1.3,1.5,0.4&#10;&#9;&#9;&#9;c2-4.9,1.9-11.1-0.9-15.7c-3.5-5.8-10.5-8.2-15.8-3.2C112.7,73.5,113.8,74.6,114.6,73.8z" id="el_esYJydpXHW2"/>
		<path d="M83.3,112.8c-0.6,0.6-1.3,1.1-2.1,1.6c-0.6-0.8-1.4-1.5-2.2-2.1c-0.7-0.6-1.5,0.7-0.7,1.3&#10;&#9;&#9;&#9;c0.6,0.4,1.2,1,1.7,1.6c-1.1,0.7-2.2,1.3-3.3,1.9c-0.9,0.5-0.1,1.8,0.8,1.3c1.1-0.6,2.3-1.3,3.5-2c0.7,1,1.2,2.1,1.6,3.2&#10;&#9;&#9;&#9;c0.4,0.9,1.9,0.6,1.5-0.4c-0.5-1.3-1.1-2.5-1.8-3.6c0.8-0.5,1.5-1.1,2.2-1.7C85.2,113.2,84,112.1,83.3,112.8z" id="el_mu_OGkubRrF"/>
		<path d="M119.6,139.6c3.2,0.2,5.6-6.5,6.8-8.8c0.5-0.9-0.9-1.7-1.3-0.8c-0.6,1.3-1.3,2.4-2,3.7c-1,1.8-2.1,4.8-4.5,4&#10;&#9;&#9;&#9;c-3.2-1.1-6.2-4.5-8.6-6.9c-0.7-0.9-1.8,0.3-1.1,1C111.4,134.4,115.8,139.5,119.6,139.6z" id="el_UV768pmowVl"/>
		<path d="M249.2,162.7L249.2,162.7C249.2,162.7,249.2,162.6,249.2,162.7c-0.2-3.8-3.1-6.4-6.9-6.1&#10;&#9;&#9;&#9;c0.7-1,1.2-2.1,1.4-3.5c0.1-0.1,0.2-0.3,0.1-0.5c-0.2-3.4-2.7-6.4-6.2-6.6c0.7-1,1.2-2.3,1.2-3.8c-0.2-3.4-2.6-6.3-6.1-6.5&#10;&#9;&#9;&#9;c-2.8-3-4.8-5.4-9.3-3.5c-4,1.7-7.9,3.7-11.8,5.6c-3.1,1.5-6.5,2.8-6.9,6.7c-0.3,3.5,2.8,7.7,4.2,10.7c0,0.1,0.1,0.1,0.1,0.2&#10;&#9;&#9;&#9;c-0.3,0.6-0.5,1.3-0.7,1.9c-1.7,4.7-3.3,9.3-5.2,13.8c-0.4,0.2-0.6,0.6-0.4,0.9c-0.2,0.4-0.4,0.9-0.6,1.3&#10;&#9;&#9;&#9;c-2.4,5.1-5.2,10.2-8.6,14.7c-0.9,1.2-1.7,2.3-2.8,3.2c-0.3,0.2-0.6,0.5-0.8,0.7s-0.6,0.4-0.8,0.6l-0.4,0.2l-0.5,0.2l-0.5,0.1&#10;&#9;&#9;&#9;h-0.5c-1.3,0-2.4-0.7-3.4-1.7c-1-0.9-1.9-2-2.7-3.2c-1.7-2.3-3.1-4.7-4.5-7.2l-4.2-7.5c-0.4-0.6-0.7-1.3-1.1-1.9l-1.2-1.8&#10;&#9;&#9;&#9;c-0.4-0.6-0.9-1.2-1.3-1.7c-0.5-0.6-0.9-1.2-1.4-1.7c-2-2.1-4.3-3.9-6.8-5.4c-4.6-2.9-9.7-4.8-15.1-5.9c-0.5-0.3-0.9-0.5-1.4-0.7&#10;&#9;&#9;&#9;c0.6-1.1,1.1-2.2,1.5-3.5c2.4-7.6,1.2-21.7-8-23.5c-0.7-3.9-1.3-7.7-1.9-11.6c4.9-3.8,8.8-8.1,5.9-10.9c-1.5-1.5-4.4-0.7-7,0.6&#10;&#9;&#9;&#9;c0.4-0.8,0.6-1.6,0.3-2.5c-0.9-2.9-6.5-2.7-8.7-2.3c-3.5,0.6-6.4,3.2-6.6,6.9c0,0.3,0.1,0.6,0.3,0.7c1.2,1.9,4,2.1,6.5,1.8&#10;&#9;&#9;&#9;c-3.5,2.1-6.9,4.2-10.2,6.6c-0.9,0.6-0.1,1.9,0.8,1.3c3-2,6-4,9.1-5.8c2.4-1.4,4.7-2.8,7.2-4c1.5-0.7,4.8-2.8,6.5-2.4&#10;&#9;&#9;&#9;c4.6,1.2-6.4,9.6-7.6,10.5c-2.8,2-5.8,3.9-8.8,5.6c-5.8-1.7-13.4-1.2-18.3,0.9c-4.7,2-7.8,6.7-8.5,11.7c-3.1-1.7-7.3-2.1-10.4-1.1&#10;&#9;&#9;&#9;c-2.6,0.8-4.3,2.8-5.3,5.2c-7.5-3.5-17.9-5.1-25.1-0.3c-4.4,2.9-7.7,8.3-8,13.6c-7.9-1.3-16.5,2-21.9,7.7&#10;&#9;&#9;&#9;c-6.4,6.7-9.2,16.4-10.3,25.4c-1.1,9.8,1.1,19.7,6.7,27.9c2.7,4,6.3,7.9,10.5,10.6c-2.8,13.4-4.9,27-6.5,40.6&#10;&#9;&#9;&#9;c-1.7,13.9-3.5,28.4-2.3,42.4c0.3,3.5,2.7,12,7.8,8c1.9-1.5,3.3-3.7,4.4-6.2c-0.3,4.5,0.4,8.8,3.9,9.5c2.6,0.5,4.6-1.6,6.2-4.5&#10;&#9;&#9;&#9;c-0.1,3,0.4,5.7,2.5,6.9c6,3.3,9.7-5.1,11.5-10.6c1.5,6.9,6.4,30.3,9.3,47.3c2.2,12.3,0.8,50.2,0.8,50.6v0.3l0.1,0.2&#10;&#9;&#9;&#9;c0.8,1.2,19.6,28.5,28.1,30.9c3.7,1,7,1.6,9.8,1.6c3.8,0,6.7-1,8.7-2.9c4.2-4.1,2.9-11.5,2.1-14.4c-1.4-5-6-19.3-6.8-21.8&#10;&#9;&#9;&#9;c0-0.1,0-0.2,0-0.2c1.2-3.1,9.5-25.3,11.2-47.9c1.3-17.7,3.2-34.6,3.9-40.1c1.2,1.9,3.3,6.4,5.1,16.2&#10;&#9;&#9;&#9;c2.8,14.9-11.6,72.3-11.7,72.8l-0.1,0.2l0.1,0.2c0.1,0.4,2.9,8.9,16.7,19.3c10.1,7.6,21.5,9,28.2,7.9c4-0.7,7-2.3,8.5-4.5&#10;&#9;&#9;&#9;c3.7-5.6-11-23.4-14-26.9c1.1-2.2,5.7-11.8,10.3-24.1c4.8-12.9,10.6-31.4,10.8-46.4c0.3-27.7-13.7-53.9-14.8-55.9l-8.2-46.9&#10;&#9;&#9;&#9;c6.5,4.1,14.2,7.1,21.8,7.9c9.7,1.2,18.8-2.7,26.5-8.4c9.7-7.2,15.8-17.2,22.2-27.2c4.4-6.9,9-13.9,13.3-20.9&#10;&#9;&#9;&#9;c3.7-1.8,6.4-4.5,4.8-8.9C248.3,166.2,249.1,164.7,249.2,162.7z M133.2,104.8c-0.7,1.6-2.3,2.5-3.9,3.1c-1.7,0.6-6.4,1.7-7.8-0.4&#10;&#9;&#9;&#9;c0.3-2.5,2.1-4.4,4.5-5c2-0.6,4.5-0.6,6.5,0.3c0.3,0.2,0.8,0.6,1.1,0.8C133.4,103.9,133.3,104.6,133.2,104.8z M242.3,152.7&#10;&#9;&#9;&#9;c-0.2,2.9-2.4,5-5.3,5c-2.5,0-5.8-1.2-5.4-4.3c0.2-2.4,2.4-5,4.7-5.6C239.5,147,242.1,149.8,242.3,152.7z M238,167.3&#10;&#9;&#9;&#9;c-3.7,1.8-7.4,3.5-11.1,5.2c-5.4,2.6-7.1-4.6-8.9-8.4c0,0,0,0,0-0.1c0.1-0.2,0.1-0.4,0.2-0.6c0.5-1.3,0.9-2.7,1.3-4.1&#10;&#9;&#9;&#9;c0.2-0.7,0.4-1.4,0.5-2.2s0-1.5-0.1-2.3c-0.1-0.7-0.3-1.5-0.6-2.2s-0.8-1.4-1.5-1.9s-1.5-0.8-2.3-0.9c-0.8-0.2-1.6,0-2.3,0.2&#10;&#9;&#9;&#9;c-0.2,0-0.4,0.1-0.6,0.2c-0.2,0.2-0.4,0.2-0.6,0.4c-0.1,0.1-0.2,0.2-0.3,0.3c-0.7-1.3-1.7-2.9-1.9-4.2c-0.5-3.1,1.9-4.1,4.1-5.2&#10;&#9;&#9;&#9;c2.8-1.4,11.4-7.4,14.3-4.2c-1.9,1.3-3.2,3.3-3.2,5.5c0,3.5,3.8,5.7,6.9,5.9c0.1,0,0.1,0,0.2,0c-1.2,1.4-2,3.1-2.1,4.7&#10;&#9;&#9;&#9;c-0.2,3.7,3.5,5.4,6.7,5.6c0.1,0,0.2,0,0.3,0c-0.7,0.8-1.3,1.8-1.4,2.9C235.1,164.5,236.2,166.2,238,167.3z M231.4,137.6&#10;&#9;&#9;&#9;c0.3-0.1,0.6-0.1,1-0.1c0.1,0,0.2,0,0.3,0c2.5,0.1,4.6,2.3,4.7,4.9c-0.2,2.8-2.3,5-5.2,4.9c-2.4-0.1-5.7-1.6-5.7-4.3&#10;&#9;&#9;&#9;C226.4,140.4,229.1,138.1,231.4,137.6z M206.7,147.1c-1.7-5,2.8-6.5,6.3-8.1c3.2-1.5,6.5-3.1,9.7-4.6c0.8-0.4,1.7-0.9,2.5-1.1&#10;&#9;&#9;&#9;c2.8-0.6,4.2,1,5.7,2.8c-0.5,0.1-1,0.3-1.5,0.5c-4-4.9-12.7,1.8-16.7,3.8c-2.1,1-4.6,2.1-4.9,4.8c-0.2,2.4,1.8,5.2,2.8,7.3&#10;&#9;&#9;&#9;c-0.2,0.3-0.4,0.7-0.5,1c-0.1,0.1-0.1,0.2-0.1,0.3C208.8,151.6,207.4,149.4,206.7,147.1z M152.3,164c6.4,9.4,9.3,21.7,10.3,32.9&#10;&#9;&#9;&#9;c0.7,7.2,0.7,18.4-4.7,24.3c-2.8-21.2-6.2-43-17.8-61.3c1.3-1.2,2.5-2.6,3.5-4.2C147.2,157.2,150.3,161,152.3,164z M98.9,224.9&#10;&#9;&#9;&#9;c4.8-9.8,5.2-22.6,3.1-33.1c-1.9-9.5-7.2-17.8-15-23.6c-3.7-2.7-8.1-5.1-12.6-6.4c3.2-1.2,6.4-2.2,9.4-2.9c0.9,1.1,2,2,3.2,3&#10;&#9;&#9;&#9;c9.8,7.5,24.7,8.1,36.3,5.9c5.6-1.1,11.2-3.2,15.6-6.8c11.7,18.5,14.9,40.7,17.7,62v0.1l0,0l0,0l8.5,48.5c-2,2.7-5.2,4.8-8.1,6.6&#10;&#9;&#9;&#9;c-9.4,5.7-20.2,8-31,9.3c-16.7,2-34.8,1.4-50.5-5.2c-2.4-1-4.8-2.1-6.8-3.6c2.4-10,4.7-20,6.7-30c0.7-3.5,1.4-7.1,2.1-10.7&#10;&#9;&#9;&#9;C86.6,238.7,95.1,232.7,98.9,224.9z M77.9,236.4c0.6-3.7,1.2-7.5,1.4-11.3c0,0,0,0,0.1,0c3-0.9,5-4.3,6.1-6.9&#10;&#9;&#9;&#9;c3.6-8.7,2.8-20.6-0.2-29.3c-3.4-10.1-12.3-19-22.9-21.4c2.9-1.8,6.1-3.3,9.2-4.6c12.5,2.6,23.6,12.6,27.6,24.6&#10;&#9;&#9;&#9;c4.9,14.7,4.1,41.4-13.5,47.7C83.3,236,80.5,236.6,77.9,236.4z M83.3,137.7c2.8-4.3,9.9-3.9,13.8-1.1c0.5,0.4,1.2-0.2,1.2-0.7&#10;&#9;&#9;&#9;c0.2-5.2,3.5-10.2,8.5-12c5.4-1.9,14.6-2.1,19.8,0.9c0.9,0.5,1.7-0.9,0.8-1.3c-0.6-0.3-1.2-0.6-1.8-0.9c2.1-1.2,5.7-3.3,9-5.7&#10;&#9;&#9;&#9;c0.6,3.5,1.1,6.9,1.7,10.4c-0.3,0-0.7,0-1,0c-1.1,0-1.1,1.6-0.1,1.6c10-0.3,11.3,13.4,9.5,20.6c-0.4,1.8-1.1,3.4-1.9,4.9&#10;&#9;&#9;&#9;c0,0.1-0.1,0.1-0.1,0.2c-3.5,5.9-9.8,9.4-16.5,11.1c-10.2,2.7-22.8,2.5-32.6-1.8c-3.2-1.4-6.5-3.5-8.8-6.3l0,0&#10;&#9;&#9;&#9;c-1.8-2.1-3.1-4.5-3.5-7.2C80.4,146.2,81.1,141,83.3,137.7z M17,190.8c-0.2-15,6.5-33.9,22.9-37c2.6-0.5,5.5-0.7,8.1-0.2&#10;&#9;&#9;&#9;c0.3,2.9,1.7,5.7,4.5,7.8c0.8,0.6,1.6-0.8,0.8-1.3c-9-6.5-0.9-19.5,7.4-22.2c6.3-1.9,13.8-0.5,19.7,2.3c-0.4,1.3-0.7,2.7-0.9,4&#10;&#9;&#9;&#9;c-0.7,5.1,0.3,9.6,3,13.4c-11.1,3-23.4,8.3-31.2,16.7c-9.2,10-12.8,25.8-16,38.5c-0.7,3-1.4,6-2.1,9.1&#10;&#9;&#9;&#9;C23.3,215.1,17.2,202.5,17,190.8z M28.3,261.3c2-15.7,4.5-31.4,8.3-46.7c2.9-12.2,6.3-25.7,13.5-36.2c2.7-3.9,6.3-7.1,10.4-9.8&#10;&#9;&#9;&#9;c10,1.7,18.7,9.3,22.5,18.5c3.6,8.6,4.6,20.2,1.5,29.2c-0.8,2.5-2.5,6.1-5.2,7.1c0.1-1.6,0.1-3.1,0.1-4.7c0-1-1.6-1-1.6,0&#10;&#9;&#9;&#9;c0.1,7.6-1.3,15.1-2.7,22.5c-1.8,9.8-3.9,19.5-6.2,29.3c-1.4,5.8-2.7,11.7-4.1,17.7c-12.9-3.2-25.7-6.4-38.6-9.6&#10;&#9;&#9;&#9;C26.9,272.9,27.6,267.1,28.3,261.3z M51.1,318.8c-3.2-0.2-2.8-3.7-2.7-6.2c0.2-3.5,1-7,2-10.3c0,0,0,0-0.1,0c0-0.1,0-0.2,0.1-0.2&#10;&#9;&#9;&#9;c0.2-0.9-1.3-1.4-1.5-0.4c-0.3,1-0.7,2.4-1.2,4.1c-0.3,0.8-0.5,1.5-0.8,2.2c-0.8,2-3,8.4-6,8.4c-5.2-0.2-2.2-14-1.5-17&#10;&#9;&#9;&#9;c0.2-0.9-1-1.3-1.4-0.6h-0.1c-0.1,0.3-0.1,0.6-0.2,0.9c-1.3,4.2-2.8,8.7-5.5,12.2c-2.5,3.5-5.2,1.6-6.1-2&#10;&#9;&#9;&#9;c-1.1-4.2-0.7-8.9-0.7-13.2c0-5.5,0.3-10.9,0.8-16.4c12.8,3.2,25.5,6.4,38.3,9.6c-1.8,7.2-3.7,14.3-6.2,21.1&#10;&#9;&#9;&#9;C57.2,313.9,54.9,319.2,51.1,318.8z M159.2,397c-0.2,0-0.3,0.1-0.4,0.3c-1.3,1.7-6.1,1.7-7.9,1.8c-3,0.2-6.1-0.2-9-0.9&#10;&#9;&#9;&#9;c-2.8-0.7-5.6-1.8-7.9-3.5c-0.7-0.6-1.5,0.8-0.7,1.3c3.2,2.4,7.6,3.7,11.5,4.3c3.4,0.5,11.1,1.3,14.4-1.4&#10;&#9;&#9;&#9;c6.8,7.9,16.3,21.5,13.9,25.1c-1.2,1.9-3.9,3.2-7.5,3.8c-6.4,1.1-17.3-0.2-27-7.6c-12.2-9.2-15.5-17-16-18.3&#10;&#9;&#9;&#9;c1.1-4.6,14.5-58.4,11.7-73.3c-1.9-10.2-4.1-14.8-5.4-16.9c2.6,0.1,5.3-0.6,7.4-2.1c3.4-2.4,5.4-7.8,4.4-11.9&#10;&#9;&#9;&#9;c-0.2-1-1.7-0.6-1.5,0.4c1.7,7.2-5,13.1-11.8,11.9c0,0,0,0-0.1,0l-0.9-0.6l-0.2,1.3c0,0.2-2.5,20.5-4.1,42&#10;&#9;&#9;&#9;c-1.7,23.5-10.7,46.5-11.2,47.8c-4,3.3-8.5,5.3-13.8,4.8c-3.8-0.3-7.6-1.3-11.2-2.6c-1-0.3-1.4,1.2-0.5,1.5&#10;&#9;&#9;&#9;c4.3,1.6,9.1,2.8,13.8,2.8c4.4,0,8.5-2,12-4.8c1.3,3.9,5.3,16.4,6.5,20.9c0.7,2.7,1.9,9.3-1.7,12.9c-3,3-8.7,3.3-17,1&#10;&#9;&#9;&#9;c-7.6-2.2-25.3-27.4-27.1-30c0.1-3.7,1.3-38.6-0.8-50.6c-3.5-20-9.7-49.1-9.8-49.3l-0.4,0.1v-0.1c2.6-8.9,5-17.8,7.2-26.8&#10;&#9;&#9;&#9;c7,4.9,16.5,7.1,24.7,8.4c10.7,1.7,21.6,1.7,32.3,0.4c10.6-1.2,21.3-3.4,30.8-8.6c3.4-1.9,7.1-4.2,9.7-7.3&#10;&#9;&#9;&#9;c2.6,5,14.5,29,14.2,54.2C179.8,353.7,162,391.3,159.2,397z M208.6,220.8c-8.1,6.9-18.4,11.8-29.2,10.2c-7.2-1.1-14.5-4-20.7-8&#10;&#9;&#9;&#9;c6.7-6.6,6.4-20,5.4-28.2c-1.3-11.1-4.3-23.4-11.1-32.6c-1.3-1.8-3-3.8-4.8-5.4c4.3,1.1,8.5,2.9,12.3,5.3c2.4,1.5,4.6,3.2,6.5,5.3&#10;&#9;&#9;&#9;c0.5,0.5,0.9,1,1.3,1.6c0.4,0.6,0.9,1,1.3,1.7l1.1,1.7c0.3,0.6,0.7,1.3,1,1.9l4.3,7.5c1.4,2.5,2.8,5,4.5,7.4&#10;&#9;&#9;&#9;c0.8,1.2,1.7,2.4,2.8,3.4c1,1,2.5,1.9,4.2,2c0.2,0,0.4,0,0.6,0l0.6-0.1l0.6-0.2c0.2-0.1,0.4-0.2,0.6-0.2c0.4-0.2,0.7-0.5,1-0.7&#10;&#9;&#9;&#9;c0.3-0.3,0.6-0.6,0.9-0.8c1-1.1,2-2.2,2.8-3.4c3.4-4.6,6.2-9.8,8.7-15c0.2-0.3,0.3-0.7,0.5-1c8.2,7.5,16.3,14.9,24.4,22.5&#10;&#9;&#9;&#9;C222.4,204.6,216.8,213.8,208.6,220.8z M229.8,192.8c-0.3,0.5-0.6,1-0.9,1.5c-8.2-7.5-16.4-15.1-24.5-22.6&#10;&#9;&#9;&#9;c1.9-4.4,3.4-9.1,5.1-13.6c0.6-1.3,1-2.7,1.7-3.9c0.2-0.4,0.4-0.8,0.7-1.2c0.2-0.1,0.4-0.4,0.4-0.6c0.2-0.3,0.4-0.5,0.6-0.6&#10;&#9;&#9;&#9;c0.1-0.2,0.2-0.2,0.3-0.2s0.1-0.1,0.2-0.1l0.2-0.1c1.3-0.3,2.7-0.3,3.6,0.5c0.5,0.4,0.9,0.9,1.1,1.5s0.5,1.3,0.6,1.9&#10;&#9;&#9;&#9;c0.1,0.6,0.2,1.3,0.1,2c-0.1,0.7-0.2,1.3-0.4,2c-0.4,1.3-0.9,2.7-1.3,4c-0.1,0.3-0.2,0.5-0.3,0.8c-0.2,0.2-0.3,0.4-0.2,0.6&#10;&#9;&#9;&#9;c-0.8,2.2-1.7,4.4-2.6,6.5l1,0.4c0.2-0.5,0.4-0.9,0.6-1.4c2.8,5.9,5.8,15.8,13.9,12.1c3.4-1.5,6.8-3.2,10.2-4.8&#10;&#9;&#9;&#9;C236.4,182.6,233.1,187.7,229.8,192.8z M238.6,176.1c-3.2,1.5-6.5,3.1-9.7,4.6c-2,0.9-4.3,1.6-6.3-0.3c-0.9-0.9-1.6-2.5-2.1-3.7&#10;&#9;&#9;&#9;c-1.3-2.7-2.7-5.4-4-8c-0.1-0.1-0.2-0.2-0.3-0.3c0.3-0.7,0.6-1.5,0.9-2.2c1.7,4.1,3.6,10.6,8.8,8.6c4.7-1.8,9.3-4.4,13.9-6.6&#10;&#9;&#9;&#9;c0.7,0.2,1.3,0.4,2,0.5c1.4,0.2,2.7,0,3.9-0.5C247,173,242.1,174.4,238.6,176.1z M237.3,161.4c1.9-4.6,9.9-4.3,10.3,1.2&#10;&#9;&#9;&#9;C247.2,170,234.9,167.3,237.3,161.4z" id="el_5d8Mog8RAxO"/>
		<path d="M34,183.5c-1.1-5-0.8-11.5,3.6-15c0.8-0.7-0.3-1.8-1.1-1.2c-4.8,3.9-5.3,11-4,16.6&#10;&#9;&#9;&#9;C32.7,184.9,34.2,184.5,34,183.5z" id="el_-tVVrdSkIpc"/>
		<path d="M37.8,180.2c0-2.8,0.6-7.3,2.9-8.9c0.8-0.6,0-2-0.8-1.4c-3.1,2.1-3.6,6.9-3.7,10.3&#10;&#9;&#9;&#9;C36.3,181.2,37.8,181.2,37.8,180.2z" id="el_W-p3fWVtP5H"/>
		<path d="M60.7,150.3c0.3-2.7,1.8-4.8,4.2-6c0.7-0.4,1.4-0.6,2.2-0.9c0.2-0.1,0.6-0.2,0.8-0.2h0.2&#10;&#9;&#9;&#9;c0.9-0.2,0.8-1.7-0.2-1.6c-4.6,0.6-8.3,3.9-8.8,8.7C59,151.3,60.5,151.3,60.7,150.3z" id="el_5t67oszi3qm"/>
		<path d="M68.1,143.2C68.1,143.2,68,143.2,68.1,143.2S68.2,143.2,68.1,143.2z" id="el_t_LUbnRe6i8"/>
		<path d="M67.8,146.2c-3.6,0.6-5.8,5.5-6.9,8.4c-0.4,0.9,1.2,1.3,1.5,0.4c0.9-2.4,2.8-6.9,5.8-7.3&#10;&#9;&#9;&#9;C69.2,147.6,68.7,146.1,67.8,146.2z" id="el_DI3lhsL-eCT"/>
		<path d="M234.4,171.9c-1.3,0-2.3,1-2.3,2.3c0,1.2,0.9,2.2,2.2,2.3s2.3-1,2.4-2.3C236.6,173,235.7,171.9,234.4,171.9z&#10;&#9;&#9;&#9; M233.2,174.2c0-1.5,2.3-1.5,2.4,0C235.5,175.8,233.2,175.8,233.2,174.2z" id="el_qSsLVoqc5x-"/>
	</g>
</g></g>
<g id="el_yPqBKMx-CHo_LCoC_Qrf9" data-animator-group="true" data-animator-type="0"><g id="el_yPqBKMx-CHo">
	<path d="M358.7,129.6c0,0-1.9-22.6,1-32.3s11-22.8,28.3-21.9s32.6-0.6,37.6,18.2c2.6,9.8-1.5,21.2-1.5,21.2&#10;&#9;&#9;s11.7-1.8,11.7,4.9c0,9.5-11.7,10.3-11.7,10.3l0.9,18.6c0,0,56.2-0.8,56.2,51c0.1,23.3-9.2,30.3-9.2,30.3l-14.7,114.8l0.4,61.8&#10;&#9;&#9;c0,0-26,47.2-37.6,41.1c-22.1-11.6-2.6-37.4-2.6-37.4l-7.2-36.6l-6.3-41.4l-5.4,1.1c0,0-3.7,23.7-3.9,31.7&#10;&#9;&#9;c-0.3,10.7,7.2,45.1,7.2,45.1s-14.9,32.5-28.4,34.1c-29.7,3.5-11.7-38.7-10.7-38.5c0,0-10.5-30.4-11.1-39.9&#10;&#9;&#9;c-0.6-10.7,4.4-42.9,4.4-42.9l-4.5-3.1l-8.8-102.3c0,0-23.6,14.7-51.4-11c-21-19.3-24-27.1-20.1-31c2.1-2.1,10.2,6.2,10.2,6.2&#10;&#9;&#9;s-9.9-7.8-6.2-12.2c3.6-4.3,11,6.5,11,6.5s-7.9-11.7-3.2-14.7c2.9-1.9,14.4,9.1,26.9,18.3c7.6,5.4,14.1,15.1,19.9,12.6&#10;&#9;&#9;c10.6-4.6,8.3-12.1,10.7-16.3c5.5-9.8,4.1-13.3,13.2-17.3c9.1-3.9,6.3-9.8,6.3-9.8L358.7,129.6z" id="el_XV4-YWLGdd8"/>
	<path d="M467.6,258.9c17.6,2.6,26.4-4.3,24.4-10.6s-13.2,4.1-13.2,4.1s10.6-9.1,7.1-18.5c-3.5-9.5-18.5,16.8-18.5,16.8&#10;&#9;&#9;l-19.9,3.9l-2.2,8.3c0,0,2.9,5.6,13.2,1.4C467.4,260.8,467.6,258.9,467.6,258.9z" id="el__aCCPHURSIO"/>
	<path d="M424.9,148.7c0,0-6.4,29.5-12.8,43.4c-4.8,10.3-20.9,13.9-34.4,10s-18.1-9.2-17.9-19.8c0.2-10.5,4.5-21,4.5-21&#10;&#9;&#9;l-4.5-7.2c0,0-18.9,12-19,54.8c0,15.2-7,29.4-7,47.3c0,32.5,7,70.3,7,70.3s20.6,9.8,49.6,7.1c28.9-2.7,59.9-7.9,59.9-16.5&#10;&#9;&#9;c0-11.2-2.2-67-2.2-67S408,268.2,389,264.3s0.9-11,0.9-11s-13.1,2.4-12.1-3.1c0.9-5.5,9.8-5.5,9.8-5.5s-9.6,1.1-9.8-4.4&#10;&#9;&#9;c-0.2-5.5,31.1-10.1,31.1-10.1s8.9-1.6,16.4-5.8s12.4-10.6,12.4-10.6s-9.8-7.6-3.2-39.2c4.2-20.5,6.5-22.8,6.5-22.8L424.9,148.7z" id="el_3MPdpqERZYD"/>
	<path d="M392.3,116.8c0,0,7.5-0.5,8,2.5c0.6,3-3,4.8-7.3,4.6C388.6,123.7,392.3,116.8,392.3,116.8z" id="el_w8117LUGsZh"/>
	<path d="M363.1,117.6c0,0,4.4-1.5,7,0.5s2.8,2.6,2.8,2.6s-2.2,3.9-4.8,4c-2.6,0.2-4.6-0.4-4.6-0.4L363.1,117.6z" id="el_PFYqaNBr-4O"/>
	<g id="el_OpZq0vhHFAz">
		<g id="el_UZCt9UL0-vl">
			<path d="M419.4,90.9c-1.6-5.9-5.8-12.5-12.4-13c-0.9-0.1-0.9,1.3,0,1.3c6,0.4,9.7,6.7,11,12&#10;&#9;&#9;&#9;&#9;C418.3,92.1,419.7,91.8,419.4,90.9L419.4,90.9z" id="el_eJOKl-EX9fG"/>
		</g>
	</g>
	<g id="el_VM0-bDrBdwy">
		<g id="el_px4MUfECdTv">
			<path d="M412.7,90.9c-1.2-5.8-5.9-10.3-11.7-11.6c-0.9-0.2-1.3,1.1-0.4,1.3c5.3,1.1,9.6,5.3,10.6,10.6&#10;&#9;&#9;&#9;&#9;C411.6,92.2,412.9,91.8,412.7,90.9L412.7,90.9z" id="el_qecXSSv8_iv"/>
		</g>
	</g>
	<g id="el_nCS8g13m96P">
		<g id="el_o3AZat0Okz3">
			<path d="M407.7,89.6c-1.3-4.1-6.1-6.8-9.8-8.4c-0.8-0.3-1.5,0.9-0.7,1.2c3.2,1.4,7.9,3.9,9.1,7.5&#10;&#9;&#9;&#9;&#9;C406.7,90.8,408,90.4,407.7,89.6L407.7,89.6z" id="el_PARFBySL7hM"/>
		</g>
	</g>
	<g id="el_CbTNY07l1Un">
		<g id="el_uQCeMhCOzJr">
			<path d="M359.3,122.1c0.8-3,3.5-4.3,6.4-4.3c1.7,0.1,3.7,0.5,5.1,1.5c0.4,0.2,1.4,1.6,1.3,1.1s-0.4,0.8-0.7,1.2&#10;&#9;&#9;&#9;&#9;c-1.1,1.5-3,2.1-4.8,2.3c-1.7,0.2-6.7,0.2-7.3-2.2c-0.2-0.9-1.8-0.6-1.5,0.4c0.9,3.3,6.2,3.6,8.9,3.4c2.4-0.2,7.2-1.8,7-5&#10;&#9;&#9;&#9;&#9;c-0.2-2.9-5.4-3.9-7.5-4.1c-3.8-0.2-7.3,1.5-8.4,5.4C357.5,122.7,359.1,123.2,359.3,122.1z" id="el_v9z0g_KNEd7"/>
		</g>
	</g>
	<path d="M364.5,124.8c0,0,2.3-1.9,1.7-4.6c-0.5-2.1-2.8-2.8-2.8-2.8s-2.3,0.5-3.2,1.6c-1.4,1.5-1.6,2.6-1.6,2.6&#10;&#9;&#9;s0.5,1.3,2.4,2.3S364.5,124.8,364.5,124.8z" id="el_HjTu7X5pxiH"/>
	<g id="el_QvU5LviExmO">
		<g id="el_NbOtyo4EdOh">
			<path d="M387.2,121c1.2-3.5,4.9-4.3,8.1-3.5c1.4,0.3,3,0.9,4,2c0.7,0.7,0.6,1.3,0.7,0.5c-0.6,2.4-3.5,3.2-5.7,3.3&#10;&#9;&#9;&#9;&#9;c-1.8,0.1-6.6-0.2-7.2-2.8c-0.2-1-1.7-0.6-1.5,0.4c0.7,3.4,6.1,3.9,8.7,3.9c2.3-0.1,7.2-1.3,7.2-4.5c0.1-2.8-4.8-4.3-6.9-4.6&#10;&#9;&#9;&#9;&#9;c-3.9-0.6-7.7,0.9-9.1,4.8C385.3,121.6,386.9,122.1,387.2,121z" id="el_GJRVm2tDRMw"/>
		</g>
	</g>
	<path d="M392.3,124.1c0,0,2.4-1.7,2-4.5c-0.3-2.1-2.7-3-2.7-3s-2.3,0.3-3.3,1.3c-1.5,1.4-1.7,2.5-1.7,2.5&#10;&#9;&#9;s0.4,1.3,2.3,2.4C390.7,124.1,392.3,124.1,392.3,124.1z" id="el_DnOoUxPJWM2"/>
	<g id="el_Z1CaZ2itzls">
		<path d="M375.7,118.3c0,0-7.2,16.2-3,18.5c4.2,2.4,11.6-13.3,11-18" id="el_3r_cL0ivLIw"/>
	</g>
	<g id="el_rIb55QRh9Mg_mTfxJlW8c" data-animator-group="true" data-animator-type="1"><g id="el_rIb55QRh9Mg">
		<g id="el_Aua2Daqc_rA">
			<path d="M358.8,114.3c4.7-1.7,9.5-3.5,14.2-5.3c0.9-0.3,0.6-1.9-0.4-1.5c-4.7,1.7-9.5,3.5-14.2,5.3&#10;&#9;&#9;&#9;&#9;C357.4,113.2,357.8,114.7,358.8,114.3L358.8,114.3z" id="el_khzB_3do-3v"/>
		</g>
	</g></g>
	<g id="el_yLYLR3Y0tKx_P2OCtHri1" data-animator-group="true" data-animator-type="1"><g id="el_yLYLR3Y0tKx">
		<g id="el_0qbxTRgY1z9">
			<path d="M386.5,108.1c4.6,1.2,9.3,2.4,13.9,3.5c0.9,0.2,1.4-1.3,0.4-1.5c-4.6-1.2-9.3-2.4-13.9-3.5&#10;&#9;&#9;&#9;&#9;C386,106.4,385.5,107.9,386.5,108.1L386.5,108.1z" id="el_qo8nUv6XOw4"/>
		</g>
	</g></g>
	<path d="M400.3,151.4c-0.7-0.3-1.3-2.5-1.6-3.4c-1.1-3.3-1.4-6.9-3-10.1c-1.3-2.5-3.5-5.3-6.5-5.8&#10;&#9;&#9;c-1-0.1-1.4,1.4-0.4,1.6c0.6,0.1,1.2,0.3,1.7,0.6c1.2,0.6,2.1,1.5,2.8,2.6c-0.1,0-0.2,0.1-0.2,0.2c-5.3,6-14.2,12.9-22,6.7&#10;&#9;&#9;c-0.8-0.6-1.9,0.5-1.1,1.1c8.5,6.8,18,0.2,24.1-6.6c1.2,2.5,1.7,5.3,2.2,7.1c0.5,1.7,1.2,6.3,3.2,7.2&#10;&#9;&#9;C400.4,153.3,401.2,151.8,400.3,151.4z" id="el_QTvhBvV0l6e"/>
	<g id="el_cOdhELyAB0F">
		<g id="el_3LcbhKnt1LL">
			<path d="M422.9,130.8c4.4-0.7,11.6-2.1,12.9-7.2c2.1-8.1-4.8-12.3-12-9.5c0.3,0.3,0.6,0.6,0.9,0.9&#10;&#9;&#9;&#9;&#9;c1.3-3.4,2.1-7.2,1.7-10.7c-0.2-1-1.7-1-1.6,0c0.4,3.5-0.5,7-1.7,10.3c-0.2,0.6,0.4,1.2,0.9,0.9c3-1.1,7.6-1.6,9.5,1.6&#10;&#9;&#9;&#9;&#9;c1.9,3.1,0.9,7.4-2.1,9.2c-2.7,1.6-6.1,2.4-9.2,2.9C421.5,129.5,421.9,131,422.9,130.8L422.9,130.8z" id="el_J5BParnphdC"/>
		</g>
	</g>
	<g id="el_-H98XAbrkNA">
		<g id="el_nOBT91PN2c2">
			<path d="M409.6,101.6c-0.6,5-0.3,11.9,3.7,15.4c0.8,0.6,1.9-0.5,1.1-1.1c-3.7-3.3-3.8-9.7-3.2-14.3&#10;&#9;&#9;&#9;&#9;C411.3,100.6,409.7,100.6,409.6,101.6L409.6,101.6z" id="el_SauiGAaS7id"/>
		</g>
	</g>
	<g id="el_7nTviuZ1I8u">
		<g id="el_OifakEUURpV">
			<path d="M414,97.7c-1.5,5.4-1.3,11.7,2.1,16.2c0.6,0.8,2,0,1.3-0.8c-3.2-4.3-3.3-10.1-2-15&#10;&#9;&#9;&#9;&#9;C415.8,97.2,414.2,96.8,414,97.7L414,97.7z" id="el_sgzSgB6OJvO"/>
		</g>
	</g>
	<g id="el_X3kGPtHDHTd">
		<g id="el_9OAx8ruau3h">
			<path d="M417.9,100.1c-1.2,5.3-0.9,11.8,2.9,15.9c0.7,0.7,1.8-0.4,1.1-1.1c-3.5-3.7-3.6-9.7-2.5-14.4&#10;&#9;&#9;&#9;&#9;C419.6,99.5,418.1,99.1,417.9,100.1L417.9,100.1z" id="el_hiAb9qgRXHO"/>
		</g>
	</g>
	<g id="el_9vtV7AbqaGy">
		<g id="el_FmXLVCnAUuw">
			<path d="M361.8,82.4c-1.7,4,1,8,4.1,10.2c0.8,0.6,1.6-0.8,0.8-1.3c-1.9-1.4-3.6-3.3-3.9-5.8c-0.1-0.6,0-1.1,0.1-1.7&#10;&#9;&#9;&#9;&#9;c0-0.2,0.3-0.9,0.2-0.6C363.5,82.3,362.2,81.4,361.8,82.4L361.8,82.4z" id="el_c_4QJft4VFo"/>
		</g>
	</g>
	<g id="el_y_op8og7bX7_dJxGtQOfd" data-animator-group="true" data-animator-type="1"><g id="el_y_op8og7bX7">
		<g id="el_Hrxh-1QyU0P">
			<path d="M365.5,84.8c0.2,6.1,8.4,8.6,13.4,9.2c1,0.2,1-1.4,0-1.6c-4.1-0.5-11.7-2.5-11.8-7.6&#10;&#9;&#9;&#9;&#9;C367.1,83.8,365.5,83.8,365.5,84.8L365.5,84.8z" id="el_2YDOdYuwGWG"/>
		</g>
	</g></g>
	<g id="el_kC_2vXvYAH9_HRoC3bI7g" data-animator-group="true" data-animator-type="1"><g id="el_kC_2vXvYAH9">
		<g id="el_k6_D4UR1v2_">
			<path d="M369.7,77.6c0.4,9.6,10,12.8,18,10.2c0.9-0.3,0.6-1.8-0.4-1.5c-6.9,2.3-15.6-0.1-15.9-8.7&#10;&#9;&#9;&#9;&#9;C371.2,76.6,369.7,76.6,369.7,77.6L369.7,77.6z" id="el_LgiUr807o3Q"/>
		</g>
	</g></g>
	<g id="el_9WdZli6nBpC">
		<g id="el_YQnl3iqaH0X">
			<path d="M367.2,159.1c3.8,4.6,10.3,6.8,16.1,6.9c8.4,0.1,19.3-2.6,25.4-8.7c0.7-0.7-0.4-1.8-1.1-1.1&#10;&#9;&#9;&#9;&#9;c-5.8,5.8-16.4,8.3-24.3,8.2c-5.4,0-11.5-2-15-6.4C367.7,157.1,366.6,158.3,367.2,159.1L367.2,159.1z" id="el_QZmp-1gsbYl"/>
		</g>
	</g>
	<g id="el_oesgT320cyy">
		<g id="el__IgOIXqFbEQ">
			<path d="M423.8,123c2.4-1.3,4.9-2.7,6.9-4.5c0.8-0.7-0.4-1.8-1.1-1.1c-2,1.7-4.3,3-6.6,4.3&#10;&#9;&#9;&#9;&#9;C422,122.1,422.8,123.5,423.8,123L423.8,123z" id="el_gfUp2plCSAB"/>
		</g>
	</g>
	<g id="el_ffwrgZAoA_Z">
		<g id="el_uuESdPskJAC">
			<path d="M424.6,118.2c2,1.4,3.4,3.8,4.2,6.1c0.4,0.9,1.9,0.6,1.5-0.4c-1-2.7-2.6-5.3-5-7&#10;&#9;&#9;&#9;&#9;C424.6,116.2,423.8,117.6,424.6,118.2L424.6,118.2z" id="el_ANYeSRHigfF"/>
		</g>
	</g>
	<path d="M494.2,244.9c-2.6-1.7-6,0.2-8.7,2.4c1.7-3.4,3.1-7.1,2.7-10.5c-0.6-6-6.5-4.3-9.5-1.2&#10;&#9;&#9;c-2.4,2.4-4.2,5.4-5.8,8.4c-0.8,1.4-1.4,3.4-2.2,5c0.1-1.2,0.2-2.3,0.3-3.5c0.1-1-1.5-1-1.6,0c-0.1,1.8-0.3,3.7-0.5,5.5&#10;&#9;&#9;c-0.3,0.1-0.8,0.4-1,0.5c-2,0.8-4.2,1.4-6.2,2c-3.2,0.9-8.9,2.9-12.3,1c-0.1-1.1-0.2-2.3-0.2-3.4c0-0.3-0.1-0.4-0.3-0.6&#10;&#9;&#9;c3.3-2,6.6-4.1,9.7-6.5c10.8-8.2,19.8-18.4,22.2-32.1c2.8-15.3,0.5-33-9.9-45.1c-10.7-12.4-30.3-17.6-46.1-18.8&#10;&#9;&#9;c-0.2,0-0.3,0-0.4,0.1c-0.3,0.1-0.5,0.2-0.6,0.5c-0.6,1.7-3.5,4.7-5,6.5c-3.9,4.6-8.3,8.7-13.9,11.3c-7.6,3.5-17.5,4.4-25.7,2.2&#10;&#9;&#9;c-5.5-1.5-11.1-4.5-14.8-8.9c-2.8-3.3-3.4-8-3.9-12.1c-0.7-5.9-0.9-11.9-0.9-17.9c-0.1-1.1-1.7-1.1-1.7-0.1&#10;&#9;&#9;c-0.1,5.4,0.2,10.8,0.7,16.1c0.3,3,0.7,5.8,1.4,8.4c-0.2-0.1-0.3-0.1-0.6,0c-0.3,0.1-0.6,0.3-0.8,0.4c-3.6,1.7-6.8,4.4-9.6,7.2&#10;&#9;&#9;c-2.7,2.6-5,5.7-6.7,8.9c-2.4,4.4-3.7,9.1-6.5,13.3c-3.1,4.6-7.2,7.7-12.4,4.1c-3-2-5.8-4.3-8.7-6.5c-5.2-4-10.3-8.1-15.5-12.1&#10;&#9;&#9;c-0.2,0.5-0.4,1-0.7,1.5c3.7,2.8,7.4,5.7,11,8.5c-0.8,6.5-3.5,13.6-8.3,18c-3.1,2.9-6.6,5.5-9.9,8.2c-0.3-0.3-0.6-0.5-0.9-0.8&#10;&#9;&#9;c-4.4-4-8.5-8.5-12.3-13.1c-0.4,0.3-0.9,0.6-1.4,0.8c11.6,14.6,26.5,27.9,45.7,29.5c5.4,0.5,13.6,1,18.5-2.5&#10;&#9;&#9;c-0.9,4.9-1.9,9.7-2.8,14.7c-3.8,20.8-1.4,41.6,0.6,62.4c0.6,6.3,1.3,12.5,2,18.7c0.2,2.1,0,5.4,0.9,7.3c0.5,1,1.6,1.6,2.5,2.1&#10;&#9;&#9;c2.9,1.8,6.1,3.2,9.4,4.4c-1.3,8.6-2.1,17.3-2.4,26c-0.5,12.6,2,24.1,6.6,35.8c1.4,3.6,2.8,8.1,4.9,11.3c0.1,0.2,0.3,0.4,0.4,0.6&#10;&#9;&#9;c-0.2,1-0.8,1.9-1.2,2.8c-3.2,7.9-6.7,16.7-6.8,25.3c-0.1,9,9.3,13.9,17.5,12.3s14.2-9.3,18.5-15.8c4.1-6.1,7.6-12.8,10.2-19.7&#10;&#9;&#9;c1.3-3.4-0.9-8-1.7-11.5c-2.2-10.6-4.8-21.8-4.3-32.7c0.3-6.2,2.2-12.5,3.6-18.5c0.9-3.9,1.8-7.8,2.8-11.7c0.6-0.1,1.3-0.1,1.9-0.2&#10;&#9;&#9;c3.3,20.9,6,42,10.2,62.9c0.9,4.5,2.1,9,2.8,13.5c0,0.3,0,0.6,0.1,0.6c-0.2,0.4-0.5,0.8-0.6,1.1c-1.1,2.3-2,4.6-2.9,7.1&#10;&#9;&#9;c-3.2,9.3-4.9,27.1,8.2,29.6c9.8,1.9,17.4-6.8,22.7-13.8c5.5-7.5,10.1-15.8,13.8-24.3c0.6-1.4,0.7-2.1,0.6-3.7&#10;&#9;&#9;c-0.1-5-0.1-10.1-0.2-15.1c-0.2-16.3-0.7-32.8-0.2-49.2c0.6-19.2,6.1-38.1,8.6-57.1c1.1-8.3,2.1-16.6,2.9-24.9&#10;&#9;&#9;c0.1-0.1,0.2-0.3,0.3-0.4l0.1-0.1c0.1,0,0.1,0.1,0.2,0.1c3.2,1.5,9.1,0.2,12.2-0.3c4.5-0.8,10.1-2.5,12.8-6.6&#10;&#9;&#9;C496.7,250.4,496.9,246.5,494.2,244.9z M466.9,253.5c0.5-0.2,1.2-0.4,1.9-0.6c-0.2,2.1-0.4,4.3-0.6,6.4c-1.8,2-4.6,3.5-6.9,4.5&#10;&#9;&#9;c-2,0.9-9,4.1-11.2,1.5c-0.2-3-0.4-6-0.6-9C454.6,258.4,462.5,255.1,466.9,253.5z M480.3,201.2c-0.2,12.7-3.9,23.2-12.6,32.4&#10;&#9;&#9;c-11,11.7-25.4,20-40.6,24.8c-3.1,1-6.3,1.8-9.5,2.5c0-0.1,0-0.2,0-0.2c1-4,1.1-9.1,0.2-13.2c-1.5-6.4-6.5-12.2-11.7-16.1&#10;&#9;&#9;c1.4-0.3,2.8-0.6,4.2-0.9c10.7-2.5,20.5-7.9,27.6-15.7c0.4-0.1,0.7-0.4,0.7-0.8c5.3-6.1,9.1-13.5,10.4-22.2c0.2-1-1.3-1.4-1.5-0.4&#10;&#9;&#9;c-1.2,8.2-4.7,15.2-9.6,21c-2.3-4.7-2.7-10.4-2.7-15.5c-0.1-6.9,0.6-13.8,1.7-20.6c1.2-8,2.7-16.1,4.8-23.9c7.1,1.9,14,4.7,20,8.5&#10;&#9;&#9;C475.4,169.5,480.6,185.8,480.3,201.2z M394.9,263.5c-3,0.1-15.4,0.8-14.3-5.1c0.6-3,5.6-3.6,9-4.3c0.8-0.1,1.4-0.3,2-0.4&#10;&#9;&#9;c0,0,0,0,0-0.1l0,0c0.9-0.3,0.6-1.7-0.4-1.5c-2.7,0.6-14.6,2.2-12.8-3.4c0.6-1.9,2.8-2.8,5.3-3.2c2.6,0.2,5.3,0,7-0.1&#10;&#9;&#9;c1-0.1,1-1.5,0-1.6v-0.1c-0.2,0-0.4,0-0.6,0c-1.2-0.1-2.8-0.1-4.5,0c-1.2-0.1-2.4-0.2-3.5-0.5c-1.4-0.3-4.5-1-3.6-3.2&#10;&#9;&#9;c0.6-1.3,3.4-2.3,4.5-2.7c6.9-2.8,14.4-4.3,21.7-5.8c0,0.3,0.1,0.6,0.4,0.8c4.2,3.1,8,7.4,10.2,12.1c1.8,3.9,1.7,8.2,1.3,12.5&#10;&#9;&#9;c-0.1,0.6-0.5,3.4-0.6,4C409,262.7,402,263.4,394.9,263.5z M366.3,163.7c12,9.8,30.8,9.9,43.6,1.6c5-3.2,8.7-7.6,12.4-12.2&#10;&#9;&#9;c0.1-0.1,0.1-0.2,0.2-0.2c-2.7,7.4-8.1,22.3-11.1,32.9c-3.2,11.2-8,19.2-38.4,11.5c-4.6-1.2-7.9-3.7-9.8-7.4&#10;&#9;&#9;c-4.6-9.2,0-23.5,1.4-27.5C365.2,162.8,365.7,163.3,366.3,163.7z M340.1,218.2c-4.6,3.7-14.7,2.8-20.3,2&#10;&#9;&#9;c-10.5-1.3-19.4-6.7-27.4-13.5c4-3.3,8.6-6.4,11.9-10.3c3.6-4.3,5.7-10.2,6.5-15.8c1.6,1.2,3.1,2.4,4.7,3.6c5,3.8,10.7,10,17.1,5.5&#10;&#9;&#9;c7.9-5.6,9-16.8,14.9-23.9c1.9-2.3,4.1-4.4,6.5-6.3c-3.6,5-6,11-8,16.8c-3.1,9.5-3.2,18.4-3.5,28.3c-0.1,4.7-0.7,9.2-1.5,13.7&#10;&#9;&#9;C340.8,218,340.4,217.9,340.1,218.2z M343.3,322.3c-0.1-0.1-0.1-0.1-0.2-0.2c-0.3-0.6-0.2-1.6-0.3-2.3c-0.6-4.1-0.9-8.3-1.4-12.4&#10;&#9;&#9;c-2-19-4.8-38.5-3.5-57.6c0.6-9.7,2.8-18.9,4.7-28.4c2.1-10.8,1.3-21.7,2.2-32.6c0.9-9.1,4.5-19.1,9.3-26.8c1.1-1.7,3-4.4,4.7-5.7&#10;&#9;&#9;c0.5-0.3,0.9-0.5,1.4-0.7c0.1,0,0.2-0.1,0.2-0.2c0.7,2,1.7,3.9,3.1,5.6c-0.5,1.2-1.9,5.2-2.9,10.2c-1.6,8-1.2,14.5,1.3,19.3&#10;&#9;&#9;c2.1,4.2,5.7,7,10.8,8.3c8.6,2.2,15.3,3.2,20.5,3.2c13.9,0,17.3-7,19.8-15.8c3.7-13.1,11.2-33.1,12.5-36.6&#10;&#9;&#9;c4.9,0.4,9.9,1.2,14.8,2.5c-2.3,8.7-4,17.7-5.2,26.6c-1.5,10.8-3.7,25.1,1.8,35.1c-6.9,7.5-16.4,12.8-26.9,15.3&#10;&#9;&#9;c-8.1,2-16.5,3.5-24.4,6.1c-2.6,0.9-10.2,2.8-8.6,7c0.5,1.4,1.8,2.3,3.5,2.8c-2.2,0.8-3.8,2.3-3.7,4.7c0.2,3.3,2.9,4.5,6.1,4.8&#10;&#9;&#9;c-3,1.2-5,3.1-3.4,6.7c1.2,2.7,4.6,3.3,7.1,3.7c5.3,0.8,10.8,0.5,16.1,0c4.5-0.4,9-1,13.5-1.9c0.1,0,0.2,0,0.4,0&#10;&#9;&#9;c0.1,0,0.1-0.1,0.2-0.1c10.9-2.2,21.4-6.1,31-11.6c0.1,1.2,0.2,2.4,0.2,3.6c-0.1,0.2-0.1,0.5,0,0.7c0.2,3.3,0.4,6.5,0.7,9.8&#10;&#9;&#9;c-0.1,0.2-0.1,0.4,0,0.6c0.9,13.3,1.8,26.6,2.7,39.8c0.2,3.2,0.1,6.8,0.7,10c0.1,0.4,0,0.8,0,0.9c-0.3,0.3-0.6,0.5-0.9,0.7&#10;&#9;&#9;c-7.5,5.5-16.5,8.4-25.4,10.6c-6.8,1.6-13.8,2.9-20.9,3.8c-0.3-0.6-1.2-0.4-1.4,0.2c-0.8,0.1-1.6,0.2-2.5,0.3c-0.2,0-0.3,0-0.5,0&#10;&#9;&#9;c-11.1,1-22.3,0.9-33.1-1c-5.9-1-11.8-2.6-17.3-5.1C348.1,325.2,344.9,324,343.3,322.3z M394.6,357.8c-1.6,8-0.6,16,0.7,24&#10;&#9;&#9;c1.2,7.7,2.8,15.4,4.5,23.1c0.4,1.7,0.6,1,0,2.4c-1.2,2.5-2.2,5.1-3.5,7.6c-3.8,7.6-8.3,15.4-14.5,21.3c-3.2,2.9-6.9,5.5-11.3,5.8&#10;&#9;&#9;c-5.9,0.4-13-2.6-13.9-9.1c-0.6-4.2,0.8-8.8,1.9-12.8c1.2-4.2,2.6-8.3,4.1-12.3c0.6-1.4,2-3.5,1.9-5.1c-0.2-1.7-2-4.2-2.7-5.7&#10;&#9;&#9;c-5.4-12.1-9.4-24.6-9.3-37.9c0.1-9.8,1-19.8,2.5-29.5c0.1,0,0.1,0,0.2,0.1c14.3,4.9,29.8,5.3,44.8,3.9&#10;&#9;&#9;C397.9,341.7,396.1,349.7,394.6,357.8z M466.3,275.9c-2,16.6-5.4,32.8-8.1,49.3c-2.5,15.4-1.8,31.1-1.7,46.6&#10;&#9;&#9;c0.1,11.7,0.2,23.3,0.3,35c0,1.8-0.2,1.9-1,3.9c-1.7,3.6-3.5,7.2-5.4,10.6c-4.8,8.7-11,19.5-20.2,24.1c-5.5,2.8-12.7,1.7-15.8-4.1&#10;&#9;&#9;c-3.5-6.8-2.4-14.9,0-21.8c0.9-2.5,1.9-5,3.1-7.4c0.4-0.7,0.7-1.3,0.7-2c0.2-3.2-1.6-7.3-2.2-10.5c-4.6-22-7.5-44.2-11-66.4&#10;&#9;&#9;c1-0.1,2-0.2,3-0.4c13.4-1.7,27.8-4.4,39.7-11.3c1.6-0.9,4.3-2.2,5.3-3.8c0.7-1,0.4-2.1,0.3-3.4c-1.1-15.7-2.1-31.3-3.2-47&#10;&#9;&#9;c4.5,2.3,13.6-2.8,16.5-4.9c0.3-0.3,0.7-0.5,1.1-0.8C467.4,266.4,466.9,271.2,466.3,275.9z M493.2,252.6c-4.7,5.8-16.3,7-23.3,5.4&#10;&#9;&#9;c0.2-2,0.4-4,0.6-6c0.1-0.1,0.1-0.1,0.2-0.2c1-1.1,1.6-3.5,2.3-4.8c1.3-2.4,10.3-18.4,13.5-11.2c1.8,4.2-2.7,11.5-4.8,15&#10;&#9;&#9;c-0.5,0.8,0.6,1.6,1.3,0.9c0.1-0.1,0.1-0.1,0.2-0.2l0,0c0-0.1,0.1-0.1,0.1-0.2c1.2-1.3,2.6-2.5,4.1-3.6c1.1-0.8,2.4-1.7,3.7-2&#10;&#9;&#9;C495.2,245.3,495.1,250.2,493.2,252.6z" id="el_hWSF76fcnQX"/>
	<path d="M266.3,171.9c0,0-5-0.3-5.1,2.8c-0.2,3.1,2.8,5.2,2.8,5.2s-3.9-0.9-4.5,2.7c-0.6,3.6,2.6,4.6,5,5.8&#10;&#9;&#9;c2.5,1.2,13.1,4.3,19.6-3.7c6.6-8,8.4-15,7.4-23.9c-1.1-9.3-11.7-20.5-16.1-15.6c-1.6,1.8-0.2,4.4-0.2,4.4s-4.3-0.4-5,2&#10;&#9;&#9;c-0.6,2.4,2.4,5.3,2.4,5.3s-4.7-1.7-5.8,1s2.8,5.5,2.8,5.5s-4.6-0.9-5.7,1.5C263,167.5,266.3,171.9,266.3,171.9z" id="el_4c4ftPdk_Q1"/>
	<path d="M266.5,191.9l7.8-11.7c0,0,18.7-5,19.9-7.6s1.1-13.5,1.1-13.5l7.5,1.7c0,0-7.2,26.9-13.9,29.5&#10;&#9;&#9;C282.2,193,266.5,191.9,266.5,191.9z" id="el_xwI4zVjwCIU"/>
	<g id="el_pFjYLrf93tA">
		<g id="el_q0MXgpiKBp4">
			<path d="M294.3,171.5c2.2-9.1,0.6-19.2-6.7-25.7c-1.8-1.6-4.4-3.2-6.9-2.2c-2.4,1-3,3.8-2.2,6.1&#10;&#9;&#9;&#9;&#9;c0.3-0.3,0.6-0.6,0.9-0.9c-6.2-1-7.9,4-4,8.4c0.3-0.4,0.6-0.8,0.9-1.3c-1.9-0.9-4.8-1.7-6.5,0.1c-2.2,2.3,0.1,5.7,1.9,7.4&#10;&#9;&#9;&#9;&#9;c0.2-0.5,0.5-0.9,0.8-1.3c-2.1-0.6-5.4-0.9-6.7,1.3s0.4,5.8,1.6,7.8c0.3-0.4,0.6-0.8,0.9-1.2c-2.4-0.6-5.7-0.2-6.8,2.4&#10;&#9;&#9;&#9;&#9;c-1.2,2.7,1.1,5.3,3.2,6.8c0.2-0.5,0.4-0.9,0.6-1.4c-2.9-0.5-6.4,0.8-6.7,4.1c-0.3,3.9,5.5,5.8,8.4,7c0.9,0.4,1.3-1.2,0.4-1.5&#10;&#9;&#9;&#9;&#9;c-1.5-0.6-4.2-1.7-5.4-2.8c-3.7-3.5,0-5.8,2.9-5.4c0.9,0.2,1.3-0.9,0.6-1.4c-1.7-1.2-4.6-4.4-0.6-6.2c0.8-0.4,2.2-0.2,3.1-0.1&#10;&#9;&#9;&#9;&#9;c0.6,0.2,1.3-0.6,0.9-1.2c-0.8-1.3-1.7-2.9-1.7-4.4c-0.1-3.2,2.8-3,5-2.4c0.7,0.2,1.3-0.8,0.8-1.3c-1.2-1.1-4.1-4.6-0.5-5.7&#10;&#9;&#9;&#9;&#9;c0.8-0.2,2.4,0.4,3.2,0.7c0.8,0.4,1.6-0.6,0.9-1.3c-1.1-1.3-3.2-4.4-0.1-5.8c0.6-0.2,1.9-0.1,2.5,0s1.2-0.3,0.9-0.9&#10;&#9;&#9;&#9;&#9;c-1.4-4,2.6-5,5.3-3.2c2.1,1.5,3.8,3.7,5.1,5.9c3.5,6,3.9,12.4,2.3,19.1C292.6,172,294.1,172.4,294.3,171.5L294.3,171.5z" id="el_KlWq5eLOqZX"/>
		</g>
	</g>
	<g id="el_zDN_o90QQPF">
		<g id="el_xcqHBdtvddh">
			<path d="M294,160.5c2.4,1.2,4.6,2.4,7,3.6c-0.1-0.4-0.2-0.7-0.3-1.1c-3.1,6.8-6.4,13.5-10.5,19.8&#10;&#9;&#9;&#9;&#9;c-2.8,4.3-5.5,8-11.1,8.4c-4.3,0.3-8.7-0.6-12.8-1.8c0.2,0.4,0.3,0.8,0.5,1.2c2.2-3.7,4.1-7.6,6.6-11.1c0.7-0.9-0.3-0.1,0.2-0.3&#10;&#9;&#9;&#9;&#9;c0.6-0.3,1.4-0.4,2-0.6c2.4-0.6,4.8-1.4,7.2-2.1c4.3-1.4,10.2-2.9,13.5-6.1c2-1.8,2.9-6.9-0.3-8c-0.9-0.3-1.3,1.2-0.4,1.5&#10;&#9;&#9;&#9;&#9;c1.3,0.5,0.9,3.5,0.5,4.4c-0.5,0.8-1.3,1.3-2,1.8c-2,1.3-4.4,2.3-6.7,3.2c-4.2,1.6-8.4,2.9-12.7,4c-2.2,0.6-2.4,0.9-3.6,3&#10;&#9;&#9;&#9;&#9;c-1.9,3.2-3.8,6.5-5.7,9.6c-0.2,0.5,0,1,0.5,1.2c4.2,1.3,8.9,2.2,13.3,1.9c4.6-0.3,7.5-2.3,10.2-5.9c5.3-6.9,9.2-15.1,12.7-23&#10;&#9;&#9;&#9;&#9;c0.2-0.4,0.2-0.9-0.3-1.1c-2.4-1.2-4.6-2.4-7-3.6C294,158.7,293.1,160,294,160.5L294,160.5z" id="el_dhh4NUYme-v"/>
		</g>
	</g>
	<g id="el_zY2hOJ-6LMD_nKkVwcgZl" data-animator-group="true" data-animator-type="0"><g id="el_zY2hOJ-6LMD">
		<g id="el_S2HEfBlydzm">
			<path d="M275.5,122.8c-1.3,1.6-2.4,3.6-2,5.7c0.2,0.9,0.7,1.7,1.3,2.3c0.4,0.4,1.1,0.9,1.3,1.3&#10;&#9;&#9;&#9;&#9;c0.9,1.9,0.3,3.7-1.2,4.9c-0.8,0.6,0.3,1.7,1.1,1.1c1.5-1.3,2.8-3.1,2.3-5.1c-0.2-0.9-0.7-1.6-1.3-2.3c-0.5-0.6-1.4-1.1-1.7-1.8&#10;&#9;&#9;&#9;&#9;c-0.7-1.7,0.2-3.8,1.3-5.1C277.2,123.2,276.1,122,275.5,122.8L275.5,122.8z" id="el_qV88gw8RSyG"/>
		</g>
	</g></g>
	<g id="el_kxQ19oqz7X1_daUDMWyeU" data-animator-group="true" data-animator-type="0"><g id="el_kxQ19oqz7X1">
		<g id="el_Nka0fAVGzCu">
			<path d="M282.8,125.4c-1.3,1.4-1.7,3.2-1.3,5c0.2,1,0.7,1.9,1.2,2.8c1.5,2.6,0.9,4.6-0.6,6.9&#10;&#9;&#9;&#9;&#9;c-0.6,0.9,0.8,1.7,1.3,0.8c1.1-1.7,2.4-3.6,2-5.7c-0.6-3-4.2-5.5-1.5-8.7C284.6,125.8,283.5,124.7,282.8,125.4L282.8,125.4z" id="el_rVOUUOL6nLA"/>
		</g>
	</g></g>
	<g id="el_W3wU-tGAV3W_XlKPjTJIB" data-animator-group="true" data-animator-type="0"><g id="el_W3wU-tGAV3W">
		<g id="el_2pPjarBV5Uy">
			<path d="M289.8,121.2c-1.3,0.9-2.2,2.1-2.4,3.8c-0.1,1,0.1,2,0.4,2.9c0.5,1.4,2.1,3.3,0.8,4.7&#10;&#9;&#9;&#9;&#9;c-0.7,0.7,0.4,1.9,1.1,1.1c3.2-3.5-3.8-8.3,0.9-11.3C291.4,122,290.6,120.6,289.8,121.2L289.8,121.2z" id="el_Q0ZE3lUZgjW"/>
		</g>
	</g></g>
	<g id="el_VOt-CjrU41A">
		<g id="el_Y_awZBY8OwI">
			<path d="M282,157.4c0.9-1,2.3-2.5,3.8-1.7c0.9,0.5,1.7-0.9,0.8-1.3c-2.2-1.2-4.3,0.2-5.7,1.9&#10;&#9;&#9;&#9;&#9;C280.2,157.1,281.3,158.2,282,157.4L282,157.4z" id="el_zFncUnMqkpX"/>
		</g>
	</g>
	<g id="el_v9g1SM4uY0m">
		<g id="el_zBdAyzNpYj0">
			<path d="M284.1,159.4c0.7-1,2.2-0.6,3.2-0.4c1,0.2,1.4-1.3,0.4-1.5c-1.8-0.4-3.8-0.6-5,1.2&#10;&#9;&#9;&#9;&#9;C282.2,159.5,283.6,160.3,284.1,159.4L284.1,159.4z" id="el_YukTTpUHw2V"/>
		</g>
	</g>
	<g id="el_ZJrw6r3MRVY">
		<g id="el_9whQL7QPGpy">
			<path d="M270.9,177c0.6-0.9,1.3-1.8,1.5-2.9c0.3-1.3-0.1-2.4,1-3.5c0.7-0.7-0.4-1.8-1.1-1.1s-1.2,1.6-1.3,2.6&#10;&#9;&#9;&#9;&#9;c-0.1,0.8,0,1.6-0.3,2.3c-0.3,0.6-0.7,1.2-1.1,1.7C268.9,177,270.3,177.8,270.9,177L270.9,177z" id="el_PxioZkgBaO4"/>
		</g>
	</g>
	<g id="el__GJxrusg3Cd">
		<path d="M298.6,190c0,0-3.1-2.7-6.1-7.9c-3.3-5.8,0.3-7,2.2-7.2c1.9-0.2,9.5,9,9.5,9" id="el_VXu3Oh60SD8"/>
		<g id="el_N88nnXWAPVa">
			<path d="M299.2,189.5c-2-1.8-3.6-4-5-6.3c-1-1.7-3.3-4.9-1.4-6.7c0.7-0.7,1.8-0.9,2.8-0.6c1.9,0.7,3.8,3.4,5,4.8&#10;&#9;&#9;&#9;&#9;c1.1,1.2,2.1,2.4,3.2,3.7c0.6,0.8,1.7-0.3,1.1-1.1c-1.7-2.1-3.5-4.2-5.5-6.1c-1.7-1.7-3.4-3.6-5.8-2.8&#10;&#9;&#9;&#9;&#9;c-7.7,2.5,1.4,13.4,4.6,16.2C298.8,191.3,299.9,190.2,299.2,189.5L299.2,189.5z" id="el_W-aK4T5exXX"/>
		</g>
	</g>
	<g id="el_BHP_i3iIrzQ">
		<g id="el_qHDsvXUP7eB">
			<path d="M363,403.5c4.2,8.9,15.8,8.7,23.4,4.6c0.9-0.5,0.1-1.8-0.8-1.3c-6.9,3.7-17.4,4.1-21.3-4&#10;&#9;&#9;&#9;&#9;C363.8,401.7,362.5,402.5,363,403.5L363,403.5z" id="el_VbUte7T9nEc"/>
		</g>
	</g>
	<g id="el_DVj3KD9CFGH">
		<g id="el_6QKmdOMo2V4">
			<path d="M422.8,413.2c7.2,6.1,21,3.6,27.9-2c0.8-0.6-0.3-1.7-1.1-1.1c-6.2,5-19.2,7.5-25.7,2&#10;&#9;&#9;&#9;&#9;C423.1,411.4,422,412.5,422.8,413.2L422.8,413.2z" id="el_W6tY-M0iElZ"/>
		</g>
	</g>
</g></g>
<g id="el_GbC3casuSh2_vPn2-O_oo" data-animator-group="true" data-animator-type="0"><g id="el_GbC3casuSh2_JBKH_tpKSqw" data-animator-group="true" data-animator-type="1"><g id="el_GbC3casuSh2">
	<path d="M221.1,31.9l-26.2-1.8c-4.5-0.3-8.4,3.1-8.7,7.6l-3.9,55.4c-0.3,4.5,3.1,8.4,7.6,8.7l26.2,1.8&#10;&#9;&#9;c4.5,0.3,8.4-3.1,8.7-7.6l3.9-55.4C229,36.2,225.6,32.3,221.1,31.9z M221.9,40.8l-3,42.3c-0.2,3.2-3,5.5-6.1,5.3l-22.5-1.6&#10;&#9;&#9;c-3.2-0.2-5.5-3-5.3-6.1l3-42.3c0.2-3.2,3-5.5,6.1-5.3l22.5,1.6C219.8,34.9,222.2,37.6,221.9,40.8z" id="el_QlvGqGDOfsB"/>
	<g id="el_CNkkek5mI1p">
		<g id="el_6RcKGieacda">
			<path d="M212.6,73.1c-1.5,1.4-3.5,2.2-5.9,2.4l-0.2,2.6c-0.1,0.6-0.2,1.1-0.6,1.5c-0.4,0.4-0.9,0.6-1.4,0.5&#10;&#9;&#9;&#9;&#9;c-0.6-0.1-1-0.3-1.3-0.7c-0.3-0.4-0.5-0.9-0.4-1.6l0.2-2.5c-1.4-0.2-2.8-0.7-4.1-1.3c-1.3-0.6-2.4-1.4-3.4-2.4&#10;&#9;&#9;&#9;&#9;c-0.3-0.2-0.6-0.6-0.6-0.9c-0.1-0.3-0.2-0.7-0.1-1.1c0.1-0.6,0.2-1.1,0.6-1.5c0.3-0.4,0.7-0.6,1.1-0.6c0.2,0,0.5,0.1,0.7,0.2&#10;&#9;&#9;&#9;&#9;s0.5,0.3,0.8,0.6c1.1,0.9,2.2,1.6,3.3,2c1.1,0.5,2.3,0.8,3.5,0.9c1.7,0.2,3-0.1,4-0.8c0.9-0.6,1.5-1.7,1.7-3&#10;&#9;&#9;&#9;&#9;c0.1-0.8-0.2-1.5-0.6-2c-0.5-0.6-1.1-0.9-1.8-1.3c-0.7-0.3-1.7-0.8-3.1-1.3c-1.9-0.7-3.4-1.3-4.5-2c-1.2-0.6-2.1-1.5-2.9-2.7&#10;&#9;&#9;&#9;&#9;c-0.8-1.2-1.1-2.7-0.9-4.6c0.2-2.2,1-4,2.7-5.5c1.6-1.4,3.6-2.3,6-2.4l0.2-2.6c0.1-0.6,0.2-1.1,0.6-1.5s0.9-0.6,1.4-0.5&#10;&#9;&#9;&#9;&#9;c0.6,0.1,1,0.3,1.3,0.7s0.5,0.9,0.4,1.6l-0.2,2.5c2.5,0.6,4.6,1.7,6.4,3.5c0.6,0.6,0.8,1.2,0.8,2c-0.1,0.6-0.2,1.1-0.6,1.5&#10;&#9;&#9;&#9;&#9;c-0.3,0.4-0.7,0.6-1.2,0.6c-0.2,0-0.5-0.1-0.6-0.2c-0.2-0.1-0.5-0.3-0.8-0.6c-0.9-0.9-1.9-1.6-2.8-2c-0.9-0.5-2-0.8-3.2-0.9&#10;&#9;&#9;&#9;&#9;c-1.6-0.2-2.8,0.2-3.9,0.9s-1.6,1.7-1.7,3c-0.1,0.9,0.2,1.7,0.6,2.3c0.5,0.6,1.1,1.1,1.9,1.4c0.8,0.4,1.9,0.8,3.2,1.3&#10;&#9;&#9;&#9;&#9;c1.8,0.6,3.3,1.3,4.4,1.9s2,1.5,2.8,2.6c0.7,1.1,1,2.6,0.9,4.4C215,69.9,214.1,71.6,212.6,73.1z" id="el_cqi-02Y4NpX"/>
		</g>
	</g>
	<path d="M202.8,50.6c1.2-0.4,2.8-0.2,3.9,0.1c2,0.6,3.2,2.3,5,3.1c0.9,0.4,1.6,0.3,2.4-0.2c2.4-1.9,0.5-4.5-1.2-5.8&#10;&#9;&#9;c-0.6-0.5-1.3-0.9-2-1.3c-0.7-0.3-2.7-0.9-2.7-0.9s0-0.4,0-0.6c-0.1-0.5,0.2-1,0.2-1.6c-0.1-2.1-2.2-4-4.2-2.4&#10;&#9;&#9;c-1.1,0.9-1.1,2.7-1.2,4.1c-3.2,0.5-6.3,2-7.8,5.1c-1.4,2.8-1.3,6.5,0.7,9.1c1.2,1.5,2.8,2.4,4.5,3.1c1.9,0.8,4.8,1.3,6.3,2.6&#10;&#9;&#9;c3.2,2.9,0.2,5.4-2.6,5.5c-1.7,0.1-3.5-0.4-5-1.2c-1.2-0.6-2.8-2.5-4.3-2.5c-2.3,0-2.9,3.2-1.9,4.7c0.9,1.5,3.1,2.6,4.6,3.2&#10;&#9;&#9;c0.7,0.3,3,0.9,3,0.9c0,0.3-0.1,0.7-0.1,1c-0.1,2,0.7,4.9,3.5,3.8c1.7-0.7,1.7-2.8,1.8-4.5c2.1-0.3,3.9-1,5.6-2.4&#10;&#9;&#9;c0.1,0,0.1-0.1,0.2-0.1s0.1-0.1,0.1-0.1c2.1-2.2,3.2-5.3,2.5-8.4c-0.6-3-3.2-4.7-5.8-5.8c-1.8-0.8-3.9-1.3-5.7-2.2&#10;&#9;&#9;C199.7,55.2,199.7,51.6,202.8,50.6z M205.2,59.3c2.4,0.9,5.4,1.8,6.8,4.2c1.8,2.8,0.6,6.8-1.6,9c-1.6,1.3-3.4,2-5.4,2.2&#10;&#9;&#9;c-0.4,0.1-0.6,0.2-0.6,0.6s-0.1,0.9-0.1,1.3c-0.1,1.3,0.1,2.8-1.3,2.8c-1.7-0.1-1.2-1.5-1.3-2.8c-0.1-0.5,0.1-1,0.2-1.5&#10;&#9;&#9;c0-0.2-0.2-0.6-0.5-0.6c-1.5-0.3-3-0.8-4.3-1.4c-0.7-0.3-1.8-0.9-2.3-1.5c-0.2-0.2-0.5-0.4-0.6-0.6c-0.3-0.5-0.9-1.1-0.4-2&#10;&#9;&#9;c0.6-1.1,0.9-0.9,1.7-0.6c0.3,0.2,2.8,2,3.3,2.2c1,0.5,2,0.9,3.2,1c3.2,0.6,7.6-0.5,7.3-4.6c-0.2-4-6.6-4.9-9.4-6.2&#10;&#9;&#9;c-3.2-1.6-5-4.3-4.3-7.9c0.7-3.9,4-6.1,7.9-6.6c0.4-0.1,0.6-0.2,0.6-0.6c0-0.4,0.1-0.9,0.1-1.3c0.1-1.3-0.2-2.6,1.5-2.4&#10;&#9;&#9;c2,0.2,1,3.5,1,4c0,0.2,0.2,0.6,0.5,0.6c1.3,0.3,2.5,0.8,3.7,1.4c0.6,0.3,3.7,2.1,2.8,4c-1.1,2.3-3.8-1.2-4.6-1.7&#10;&#9;&#9;c-0.8-0.4-1.5-0.7-2.4-0.9c-3.1-0.7-6.9,0.1-7.6,3.7C198.4,56.9,202.3,58.2,205.2,59.3z" id="el_eeRSupvRxcX"/>
	<path d="M186.4,85.9c1.9,1.7,4.9,1.5,7.2,1.7c6.9,0.5,13.7,0.9,20.6,1.5c6.1-0.2,5.8-5.8,6.1-10.3&#10;&#9;&#9;c0.6-7.3,1-14.6,1.6-21.9c0.4-5.4,1-11,1.2-16.5c0.2-5.9-4.9-6.2-9.4-6.5c-6.5-0.5-13.2-1.3-19.8-1.4c-5.4-0.2-6.2,4.1-6.5,8.4&#10;&#9;&#9;c-0.9,13.1-2,26.2-2.8,39.3C184.4,82.3,184.5,84.3,186.4,85.9z M187,68.6c0.5-6.5,0.9-12.9,1.4-19.4c0.2-3.8,0.2-7.9,0.9-11.7&#10;&#9;&#9;c1-5.8,11.9-3.2,15.8-2.8c3.2,0.2,6.2,0.5,9.4,0.7c3.4,0.2,6.5,0,7.2,4.5c0.6,3.1-0.6,7.3-0.7,10.4c-0.6,7.3-1,14.6-1.6,21.9&#10;&#9;&#9;c-0.2,2.8-0.4,5.7-0.6,8.5c-0.2,2.9,0.1,6.5-4.5,6.7c-4.7-0.3-9.5-0.7-14.3-1c-2.8-0.2-5.6-0.4-8.4-0.6c-2.8-0.2-5-1.1-5.4-4.6&#10;&#9;&#9;C185.6,77.2,186.7,72.5,187,68.6z" id="el_qTnHU5H1zan"/>
	<path d="M203.6,90.5c-1.7-0.9-3.8-0.3-4.6,1.3c-0.9,1.7-0.3,3.8,1.3,4.6c1.7,0.9,3.7,0.3,4.6-1.3&#10;&#9;&#9;C205.7,93.5,205.2,91.5,203.6,90.5z M203.5,94.4c-1.3,2-4.4,0.3-3.2-1.8C201.4,90.5,204.6,92.3,203.5,94.4z" id="el_0PG2tB2YV5n"/>
	<path d="M164.3,123.5c3.3-2.7,4.3-7.6,4.7-12.1c3.5,0.1,7.1,0.6,10.1,0.9c9.1,0.9,18.2,1.8,27.3,0.9&#10;&#9;&#9;c16.3-1.6,32.6-10.2,38.4-26.5c5.8-16.2-1.5-36.5-17.2-44.1c-0.1,0-0.1,0-0.2-0.1c0-0.7,0.1-1.4,0.1-2.1c0.2-2.8-0.1-5.4-2-7.6&#10;&#9;&#9;c-2.3-2.6-5.3-2.8-8.5-3.1c-7.9-0.6-15.8-1.3-23.7-1.7c-4-0.2-7.8,1.5-9.2,5.5c-0.6,1.7-0.6,3.6-0.7,5.4c-0.3,3.9-0.6,7.8-0.8,11.8&#10;&#9;&#9;c-0.2,0-0.3,0.1-0.5,0.2c-13.1,11.3-15.3,27-14.7,43.6c0.2,5,0.7,10.2,0.3,15.3c-1.6,0-3.1,0.2-4.7,0.4c-4.5,0.7-11.5,4-10.2,9.8&#10;&#9;&#9;C153.7,125.1,160.7,126.5,164.3,123.5z M184.2,47.6c0.3-4.2-0.5-12.1,2.5-15.5c2.6-3,6.3-2.3,9.7-2c3.9,0.3,8,0.6,11.9,0.9&#10;&#9;&#9;c6.5,0.5,17.6-0.8,17.6,8.5c-0.1,5.1-0.7,10.2-1.1,15.4c-0.6,9.1-1.3,18.2-2,27.3c-0.4,6.2,0.9,18.1-8.3,18.1&#10;&#9;&#9;c-6.3-0.5-12.6-0.9-18.8-1.3c-6.4-0.5-15,0.1-14.5-9C182,75.7,183.3,61.6,184.2,47.6z M168.9,81.2c0.9-11.1,5.2-20.8,13.4-28.3&#10;&#9;&#9;c-0.8,11.6-1.6,23.2-2.5,34.9c-0.2,2.5-0.6,5,0.7,7.4c1.9,3.7,5.4,4.6,9.2,4.9c8.3,0.6,16.6,1.2,24.9,1.8c0.1,0,0.3,0,0.4-0.1&#10;&#9;&#9;c7.7-0.3,8.6-7,9-13.1c0.6-8.7,1.3-17.3,1.9-26c0.5-6.1,0.9-12.2,1.3-18.3c16.6,8.6,22.6,31.5,13.3,47.5&#10;&#9;&#9;c-11.1,19.4-34.7,21.3-54.6,19.5c-5.5-0.5-11.3-1.4-16.9-1.4c0-0.8,0.1-1.6,0.1-2.4C169.2,98.7,168.1,90,168.9,81.2z M158.1,113.6&#10;&#9;&#9;c2.7-1.6,6-2.1,9.3-2.2c-0.1,1.3-0.4,2.7-0.7,4c-0.9,3.5-2.6,8-6.9,8.1c-2,0.1-4.3-0.9-5.3-2.8C153.1,117.8,155.6,115,158.1,113.6z&#10;&#9;&#9;" id="el_B9tUxdbwQD3"/>
</g></g></g>
</svg>