<?xml version="1.0" encoding="utf-8"?>
<!-- Generator: Adobe Illustrator 22.1.0, SVG Export Plug-In . SVG Version: 6.00 Build 0)  -->
<svg version="1.1" id="Capa_1" xmlns="http://www.w3.org/2000/svg" xmlns:xlink="http://www.w3.org/1999/xlink" x="0px" y="0px"
	 viewBox="0 0 700 600" style="enable-background:new 0 0 700 600;" xml:space="preserve">
<style type="text/css">
	.st0{opacity:0.5;fill:#DAE6EA;}
	.st1{fill:#FFFFFF;}
	.st2{clip-path:url(#SVGID_2_);}
</style>
<path class="st0" d="M311.6,270.8C294.6,346,58.3,283.9,16,432c-23.1,80.7,37.7,141.6,73.2,149.9C196,607,252.3,469.8,374,523
	c128,56,211.8,52.2,252.4,25.9C671,520,710,435,678,365c-32.5-71.1-85-61-95-127c-6.4-42.1,34-63,2-147c-11.3-29.6-86-91-235-79
	c-76.7,6.2-137.2,53.1-140,100C203.3,224.7,324,216,311.6,270.8z"/>
<g>
	<g>
		<path class="st1" d="M180.5,548c6.3,0.2,12.7,0.1,19-0.3c2.6-0.2,2.6-4.2,0-4c-6.3,0.4-12.7,0.5-19,0.3
			C177.9,543.8,177.9,547.9,180.5,548L180.5,548z"/>
	</g>
</g>
<g>
	<g>
		<path class="st1" d="M275,561c2.6,0,2.6-4,0-4C272.4,557,272.4,561,275,561L275,561z"/>
	</g>
</g>
<g>
	<defs>
		<path id="SVGID_1_" d="M311.6,270.8C294.6,346,58.3,283.9,16,432c-23.1,80.7,37.7,141.6,73.2,149.9C196,607,252.3,469.8,374,523
			c128,56,211.8,52.2,252.4,25.9C671,520,710,435,678,365c-32.5-71.1-85-61-95-127c-6.4-42.1,34-63,2-147c-11.3-29.6-86-91-235-79
			c-76.7,6.2-137.2,53.1-140,100C203.3,224.7,324,216,311.6,270.8z"/>
	</defs>
	<clipPath id="SVGID_2_">
		<use xlink:href="#SVGID_1_"  style="overflow:visible;"/>
	</clipPath>
	<g class="st2">
		<g>
			<g>
				<g>
					<g>
						<path class="st1" d="M193.8,139.3c3.9,0.5,4.3-1.4,4.4-4.4c0.3-15.3,7.4-26.9,19.8-35.5c2.4-1.6,2.2-3.8,2.2-5.9
							c0-6.1-0.4-12.2-0.1-18.3c0.1-1.5,2.2-3.3,3.7-4.3c1.7-1,2.4-2.1,2.3-4c-0.1-3.5-0.1-7,0-10.5c0-3.6,0.1-3.7,4.5-3
							c0,4.3,0.1,8.7,0,13.1c0,2.1,0.3,3.5,2.5,4.5c2.1,1,3.5,2.1,3.2,5.6c-0.7,6.8,0.2,13.8,0.7,20.6c0.1,1.1,1.2,2.4,2.1,3
							c9.9,6.7,15.1,16.7,19.1,27.4c0.8,2,0.4,4.5,0.3,6.7c-0.1,3,0,5.6,4.5,4.9c0,1.7,0,3.2,0,4.6c0,31.3,0.1,62.6-0.1,93.9
							c0,5.5,0.9,10.5,3.2,15.4c3.2,6.9,6.6,13.7,12.1,19.1c7.4,7.3,15.3,8,22.8,0.8c5-4.7,8.8-10.6,13-16c0.7-1,0.8-2.6,0.8-3.9
							c0.1-10.2,0-20.4,0-30.6c0-1.6,0.2-3.2-2.1-3.6c-0.5-0.1-1.1-1.3-1.2-2c-0.2-2,0.1-4.1-0.1-6.1c-0.3-3.3,0.3-5.7,4.2-6.4
							c0.9-0.2,1.9-2,2-3.2c0.3-3,0.1-6.1,0.1-9.5c1.9,0,3.5,0,5,0c5.2,0,5.2,0,5.2-5.1c0-2.7-0.2-5.5,0.1-8.2
							c0.1-0.8,1.3-1.5,2-2.3c0.7,0.8,2,1.5,2.1,2.3c0.2,3.4,0.2,6.8,0.1,10.2c-0.1,2.2,0.6,3.2,2.8,3c1-0.1,2-0.1,3.1,0
							c1.9,0.2,2.6-0.7,2.6-2.6c-0.1-3.3-0.1-6.6,0-9.9c0-1.4-0.4-3,2-3.1c2.6-0.1,2.2,1.7,2.2,3.2c0,3.2,0.1,6.4,0,9.5
							c-0.1,2,0.8,3,2.8,2.7c2.6-0.3,5.2-0.4,7.6-1.2c5.4-1.7,10.7-3.8,16.1-5.5c2.3-0.7,3-2,2.7-4.3c-0.5-3.7-0.7-7.4-1.1-11.4
							c2-0.1,3.6-0.3,5.3-0.2c2.3,0.1,3.3-0.7,3.2-3.1c-0.1-2.5-0.2-5,0-7.5c0.2-2.7-0.8-3.8-3.5-3.5c-1.1,0.1-2.2,0-3.6,0
							c-0.1-1.5-0.1-2.7-0.2-4.3c2.4-0.1,4.6-0.3,6.5-0.4c2-1.6-1.1-5.6,3.1-5.5c3.9,0.1,1.1,3.8,3.1,5.7c1.6,0,3.8,0,6.2,0
							c0,1.6,0,2.8,0,4c-0.4,0.2-0.7,0.4-1,0.4c-6.1,0.6-6.2,0.6-6,6.6c0,2.4-0.3,5.6,1,7c1.2,1.3,4.5,0.6,7.4,0.8
							c-0.3,3.5-0.4,7-1,10.4c-0.5,3,0.2,4.6,3.3,5.5c5.4,1.6,10.7,3.7,16.1,5.6c0.7,0.3,1.5,0.6,2.3,0.7c6.5,1.2,7.5,0.4,7.5-6.1
							c0-2.4-0.2-4.8,0.1-7.1c0.1-0.8,1.4-1.8,2.2-2c0.5-0.1,1.8,1.2,1.9,2c0.2,3.4,0.2,6.8,0.1,10.2c-0.1,2.2,0.5,3.3,3,3.3
							c5.5,0,5.5,0.1,5.5-5.5c0-2.5,0-5,0-7.5c0-1.6,0.4-2.9,2.2-2.4c0.8,0.2,1.9,1.5,1.9,2.3c0.2,4.2,0.1,8.3,0.1,12.4
							c2,0.7,3.9,1.4,5.6,1.9c0.7-0.4,1.8-1.3,2.5-1.1c0.9,0.3,1.7,1.5,2,2.4c0.3,1.1,0.2,2.5,0.1,3.7c-0.5,3.7,0.1,6.7,4.6,7.5
							c0.6,0.1,1.5,1.4,1.6,2.2c0.2,3.6,0.1,7.2,0.1,11.1c-3.3-0.2-3.4,1.8-3.3,4.2c0.1,10,0,20,0.1,29.9c0,1.4,0.1,3.2,0.9,4.2
							c4.3,5.5,8.2,11.5,13.3,16.2c7.3,6.8,14.8,6.2,22-0.7c5.9-5.6,9.3-12.7,12.7-19.9c2.2-4.7,3-9.6,3-14.8
							c-0.1-30.4-0.1-60.8-0.1-91.2c0-2.4,0-4.7,0-7.4c4.3,0.6,4.5-1.8,4.6-5c0.3-14.8,7.4-26,19.1-34.5c1.8-1.3,2.6-2.4,2.6-4.6
							c-0.1-6,0.1-12-0.1-18c-0.1-3,1-5.1,3.7-6.2c2.2-0.9,2.7-2.3,2.6-4.5c-0.1-3.6-0.2-7.3,0.1-10.9c0.1-0.9,1.1-2.3,2-2.6
							c2-0.6,2.4,0.8,2.4,2.6c-0.1,3.7,0.1,7.5,0,11.2c-0.1,1.9,0.4,3.2,2.3,4c2.9,1.2,4.2,3.4,4,6.7c-0.3,5.9,0.1,11.8-0.1,17.7
							c-0.1,2.8,0.9,4.7,3.2,6.2c9.9,6.2,14.4,16.3,18.3,26.6c0.8,2.1,0.4,4.7,0.2,7.1c-0.2,2.9,0.5,4.7,4.1,4
							c0.1,1.4,0.2,2.6,0.2,3.8c0,73.8,0.2,147.6-0.1,221.4c-0.1,13,0.6,25.9,0.2,38.9c-0.3,13.1-0.2,26.3,0,39.5c0,3.1-0.8,4-4,4
							c-123.6-0.1-247.2-0.1-370.8-0.1c-5.7,0-5.2,0.8-5.2-5.3c0-99.2,0-198.4,0-297.6C193.8,142.5,193.8,141.2,193.8,139.3z
							 M279.8,332c0.3-0.1,1.1-0.7,2-0.8c3.2-0.1,6.3-0.1,9.5-0.1c73.1,0,146.2,0,219.4,0c18.4,0,36.7-0.1,55.1,0.1
							c2.9,0,3.8-1,3.6-3.7c-0.2-2.9-0.3-5.9,0-8.8c0.3-3.4-0.8-4.4-4.3-4.4c-32.6,0.1-65.3,0.1-97.9,0.1c-57.1,0-114.3,0-171.4,0
							c-31.2,0-62.4,0.1-93.5-0.1c-3.2,0-4.3,1-4,4.1c0.2,2.5,0.1,5,0.1,7.5c0,5.3,0,5.3,5.4,5.3c21.1,0,42.2,0,63.3,0
							C271,331.2,275.2,331.7,279.8,332z M569.3,310c0-3.4,0-6.3,0-9.3c0-6.4,0.7-5.7-5.6-5.7c-120.5,0-241.1,0-361.6,0
							c-1.2,0-2.4,0-3.9,0c0,3.6,0,6.7,0,9.7c0,5.3,0,5.3,5.4,5.3c59.1,0,118.2,0,177.2,0c60.7,0,121.3,0,182,0
							C564.8,310,566.7,310,569.3,310z M275.4,385.7c0-1.1,0-2.4,0-3.6c0-6,0-12,0-18c0.1-3.9,1.5-5.3,5.4-5.4c2.8,0,5.7,0,8.5,0
							c4.6,0,6.1,1.4,6.1,6.1c0.1,6.1,0,12.2,0,18.4c0,1.8,0.1,3.3,2.5,2.9c3.3-0.6,3.9,1.1,3.9,4c-0.1,15.6-0.1,31.3-0.1,46.9
							c0,5.4,0,5.2,5.3,5.4c2.8,0.1,3.5-0.9,3.4-3.5c-0.1-6.3,0-12.7,0-19.1c0-4.7,0-4.8,4.8-4.7c2.4,0,3.8-0.3,3.8-3.3
							c-0.1-24.5-0.1-49,0-73.5c0-2.2-0.8-3-3-3c-20.4,0.1-40.8,0.1-61.2,0c-2.3,0-3.2,0.7-3.2,3.1c0,6.1-0.2,12.2-0.2,18.3
							c0,17.7,0.2,35.4,0.3,53c0,6.1,0.1,5.3,5.1,5.2c2.6-0.1,3.7,0.6,3.6,3.4c-0.2,5.7-0.1,11.3-0.1,17c0,7.4,0,7.4,7.4,6.8
							c0.3,0,0.6-0.2,1.3-0.5c0-1.1,0-2.4,0-3.6c0-15,0-29.9,0-44.9C269.1,386.8,269.1,386.8,275.4,385.7z M198.5,442.4
							c7.4,0,14.4,0,21.4,0c2,0,2-1.3,2-2.7c0-6,0-12,0-18c0-2.1,0-4.2,0-6.5c2.3,0,4-0.1,5.7,0c2,0.1,2.9-0.7,2.9-2.7
							c0-13.1,0.1-26.3,0.2-39.4c0-1.5,0.7-3.1,1.3-4.5c0-0.1,2.2,0.4,2.2,0.6c0,1.8-0.2,3.6-0.5,5.5c0,0.2-0.5,0.4-0.2,0.2
							c0.4,1.6,1.1,2.9,1.1,4.1c0.1,9.2,0.1,18.4,0,27.5c0,8.8,0,8.6,8.7,8.8c3.3,0.1,4.2-1,4.2-4.2c-0.1-22.1-0.1-44.2-0.1-66.3
							c0-9.5,0-9.4-9.6-9.3c-2.5,0-3.4,0.8-3.3,3.3c0.1,8.4,0.1,16.8,0.1,25.2c0,3.6-0.3,3.8-4.2,2.6c0-1.1,0-2.4,0-3.6
							c0-7.9-0.1-15.9,0-23.8c0-2.8-0.8-3.8-3.6-3.7c-8,0.2-16.1,0-24.1,0c-4.5,0-4.5,0-4.5,4.4c0,32.6,0,65.3,0,97.9
							C198.2,439.1,198.4,440.5,198.5,442.4z M353,361.6c0.3,0.4,0.6,0.8,0.9,1.1c19.9,0,39.9,0,59.9,0c-0.9-4.2-2.1-5.5-8.1-9.5
							c0.1-0.6,0.2-1.2,0.4-1.9c0.2-0.5,0.4-1,0.6-1.5c7.3,1.4,13.5,10.5,11.8,17.4c-2.3,0.1-4.6,0.3-6.9,0.4c0,25,0,49.7,0,74.5
							c1,0.1,1.7,0.2,2.5,0.2c4.5,0.1,4.5,0.1,4.5-4.3c0-6.2,0.2-12.5-0.1-18.7c-0.2-3.6,1.1-4.8,4.4-4.2c3.5,0.6,4.3-1,4.3-4.4
							c-0.1-23.6-0.1-47.2-0.1-70.8c0-4.5,0-4.5-4.4-4.5c-26.1,0-52.2,0.1-78.2-0.1c-3.6,0-4.3,1.2-4.2,4.5
							c0.1,23.4,0.1,46.7,0.1,70.1c0,6.3,0.1,5.2,5.1,5.2c2.6,0,3.6,0.6,3.5,3.4c-0.2,6.9,0,13.8-0.1,20.7c0,2.3,0.6,3.3,3.1,3.2
							c4.3-0.1,4.3,0.1,4.3-4.2c0-1.2,0-2.5,0-3.7c0-21.2,0-42.4,0.1-63.6c0-2.7-0.7-3.8-3.4-3.5c-1.4,0.2-2.8,0-4.2,0
							c-0.4-8.9,5.3-16.7,12.3-17.5c0.3,1.1,0.6,2.2,0.9,3.4c-0.3-0.1-0.6-0.3-0.9-0.4C358.4,355.8,355.7,358.7,353,361.6z
							 M498.5,442.4c2.1,0,3.6-0.2,5.1,0c2.8,0.4,3.7-0.7,3.7-3.6c-0.2-6.5,0.1-12.9-0.1-19.4c-0.1-3.3,0.6-4.7,4.2-4.5
							c4.4,0.3,4.4,0,4.4-4.4c0-23.8-0.1-47.6,0.1-71.4c0-3.1-1-3.8-3.9-3.7c-19.7,0.1-39.5,0.1-59.2,0c-3.6,0-4.4,1.2-4.3,4.5
							c0.1,23.4,0.1,46.7,0.1,70.1c0,5.1,0,5.2,5.1,5.1c2.7,0,3.6,0.8,3.5,3.5c-0.2,6.9-0.1,13.8,0,20.7c0,1,0.9,2.8,1.7,2.9
							c2.1,0.4,4.4,0.1,6.9,0.1c0-12.2,0-23.9,0-35.5c0-11.6,0-23.2,0-35.2c5.3,1.2,5.3-1.7,5.2-5c-0.1-5.4,0-10.9,0-16.3
							c0-4.5,1.6-6.1,6.2-6.1c3.3,0,6.6,0,9.9,0c5.2,0.1,6.6,1.5,6.6,6.8c0.1,5.9-0.1,11.8,0.1,17.7c0,1,1.1,3,1.6,2.9
							c3.4-0.2,3.2,1.9,3.2,4.2c0,20.5,0,41,0,61.6C498.5,438.8,498.5,440.4,498.5,442.4z M569.1,442.4c0.1-1.5,0.2-2.7,0.2-3.9
							c0-20.3,0-40.5,0-60.8c0-12.9-0.1-25.8,0-38.7c0-2.6-0.8-3.6-3.5-3.5c-8.2,0.2-16.3,0.2-24.5,0c-3.5-0.1-4.4,0.9-4.4,4.4
							c0.1,23.5,0.1,46.9,0.1,70.4c0,4.9,0,5.1,5,4.9c2.8-0.1,3.7,0.8,3.6,3.6c-0.2,6.9-0.1,13.8,0,20.7c0,1,1.1,2.8,1.7,2.8
							C554.6,442.4,561.7,442.4,569.1,442.4z M508.9,252.7C508.9,252.7,508.9,252.7,508.9,252.7c0,11.6,0.1,23.1,0,34.7
							c0,2.4,0.6,3.3,3,3.2c2.4-0.1,4.8,0,7.1,0c4.5,0,4.5,0,4.5-4.5c0-16.1,0-32.2,0-48.3c0-5.9,2.2-8,8-8c5.3,0,10.7,0,16,0
							c4.8,0.1,7.1,2.2,7.3,7c0.1,2.6,0,5.2,0,7.8c0,14.1,0.1,28.1-0.1,42.2c0,3,0.9,4,3.9,3.8c2.5-0.2,5-0.2,7.5,0
							c2.6,0.2,3.3-1,3.2-3.4c-0.1-22.8-0.1-45.6,0-68.4c0-2.8-0.9-3.7-3.7-3.7c-17.8,0.1-35.6,0.1-53.4,0c-2.7,0-3.5,0.9-3.5,3.5
							C509,230,508.9,241.3,508.9,252.7z M258.7,253.1c0-11.5-0.1-22.9,0-34.4c0-2.6-0.6-3.6-3.4-3.6c-18.1,0.1-36.3,0.1-54.4,0.1
							c-2.1,0-2.7,0.9-2.7,2.9c0,23.2,0,46.5,0,69.7c0,2.1,0.8,2.8,2.8,2.7c2.9-0.1,5.9-0.1,8.8,0c2.3,0.1,3-0.8,2.8-3
							c-0.1-1.2,0-2.5,0-3.7c0-15.3-0.1-30.6-0.1-45.9c0-5.9,2.1-8.1,7.9-8.1c5,0,10,0,15,0c6.6,0,8.4,1.9,8.4,8.6
							c0,16.2,0.1,32.4-0.1,48.6c0,2.6,0.6,3.8,3.4,3.5c2.6-0.2,5.2-0.2,7.8,0c2.6,0.2,3.6-0.6,3.5-3.4
							C258.6,275.8,258.7,264.4,258.7,253.1z M400.5,234.5c0.2,0,1.5-0.7,2-0.3c2.5,2,5.2,3.8,5.2,7.8c-0.2,13,0,26.1,0,39.1
							c0,9.7,0,9.6,9.8,9.5c2.6,0,3.3-1,3.2-3.4c-0.1-21.4-0.1-42.9,0-64.3c0-3.4-1.5-4-4.3-3.9c-5.2,0.2-10.4,0.3-15.6,0.3
							c-16.3,0-32.7,0-49,0c-4.7,0-4.7,0-4.7,4.6c0,19.2,0,38.3,0,57.5c0,9.4,0,9.2,9.2,9.3c3.1,0,3.8-1.1,3.8-3.9
							c-0.1-14.7-0.1-29.5,0-44.2c0-1.5,0.3-3.3,1.1-4.4c9.4-11.6,25-13.6,37.4-6.7C399.4,231.8,399.7,233.2,400.5,234.5z
							 M415.2,214.7c2.4,0.3,4.2,0.8,5.9,0.8c9-0.1,18.1-0.4,27.1-0.6c3.3-0.1,4.2-0.9,3.3-4.1c-0.3-1.1-1.8-2.1-3-2.6
							c-7.6-3.4-16.7-3.8-22.2-11.3c-0.1-0.1-0.4,0-0.7,0c0.6,1.2,1.2,2.3,2,3.8c-1.3-0.4-2-0.5-2.8-0.8c-12.5-4.4-25-8.9-37.5-13.1
							c-2-0.7-4.5-0.9-6.5-0.2c-20.5,7-40.9,14.3-61.3,21.4c-2.6,0.9-4.1,2-3.6,5c0.5,3.2,2.9,1.9,4.6,1.9c29.3,0.1,58.5,0.1,87.8,0
							c2.9,0,5.4,0.3,7.3,2.7c0.1,0.2,0.5,0.1,1.1,0.3C416.2,217,415.9,216.3,415.2,214.7z M364.2,265.1c0,7.4,0.1,14.7,0,22.1
							c0,2.5,0.8,3.4,3.3,3.4c10.8-0.1,21.5-0.1,32.3,0c2.9,0,3.6-1,3.6-3.7c-0.1-13.6-0.4-27.2,0.1-40.8c0.2-5.4-2.6-8.5-6.3-10.7
							c-9.5-5.6-22.3-5.1-30.7,3.4c-1.3,1.3-2.2,3.5-2.2,5.3C364.1,251,364.2,258.1,364.2,265.1z M370,412.7c0,8.8,0,17.7,0,26.5
							c0,1.9,0.1,3.3,2.6,3.3c7.5-0.1,14.9-0.1,22.4,0c2,0,2.6-0.8,2.5-2.7c0-17.9,0-35.8,0-53.7c0-2.1-0.8-2.7-2.8-2.7
							c-7.2,0.1-14.5,0.1-21.7,0c-2.4,0-3.1,0.8-3.1,3.1C370.1,395.2,370,403.9,370,412.7z M550.5,262.7
							C550.5,262.7,550.6,262.7,550.5,262.7c0-8.3,0-16.6,0-24.8c0-2.7-1-3.9-3.8-3.9c-5,0.1-10,0.1-15,0c-3-0.1-4,1.3-3.9,4.1
							c0.1,16.4,0.1,32.9,0,49.3c0,2.4,0.8,3.2,3.2,3.1c5.4-0.1,10.9-0.1,16.3,0c2.6,0.1,3.3-0.9,3.3-3.4
							C550.5,279,550.5,270.8,550.5,262.7z M217.1,262.6C217.1,262.6,217,262.6,217.1,262.6c0,8.3,0.1,16.5-0.1,24.8
							c0,2.4,0.8,3.2,3.2,3.1c5.7-0.1,11.3-0.1,17,0c1.9,0,2.6-0.8,2.6-2.7c0-16.8,0-33.5,0-50.3c0-2.6-1.3-3.6-3.8-3.5
							c-4.9,0.1-9.8,0.2-14.6,0c-3.3-0.1-4.3,1.3-4.3,4.4C217.2,246.5,217.1,254.5,217.1,262.6z M273.5,416.4
							C273.5,416.4,273.4,416.4,273.5,416.4c0,7.7,0.1,15.4-0.1,23.1c0,2.2,0.7,3,2.9,3c6.1-0.1,12.2-0.1,18.3,0
							c2.3,0,2.9-0.9,2.9-3c-0.1-15.3-0.1-30.6,0-45.8c0-2.5-1.1-3-3.3-3c-5.7,0.1-11.3,0.2-17,0c-2.9-0.1-4,0.7-3.9,3.8
							C273.6,401.7,273.5,409,273.5,416.4z M494.1,416.7C494.1,416.7,494.1,416.7,494.1,416.7c0-7.5-0.1-15,0.1-22.5
							c0.1-2.7-0.7-3.9-3.6-3.8c-5.7,0.2-11.3,0.2-17,0c-2.7-0.1-3.5,0.8-3.5,3.5c0.1,15.1,0.1,30.2,0,45.2c0,2.4,0.7,3.2,3.1,3.2
							c6-0.1,12-0.2,18,0c2.6,0.1,3-1,3-3.2C494.1,431.7,494.1,424.2,494.1,416.7z M401.7,379.3c0.1,1.6,0.2,3.1,0.2,4.5
							c0,18.5,0,37,0,55.5c0,1.9,0.2,3.2,2.7,3.2c2.4,0,2.4-1.4,2.4-3.1c0-23,0-46,0-69.1c0-2-0.6-2.8-2.7-2.8
							c-13.7,0-27.4,0-41.2,0c-1.9,0-2.6,0.7-2.6,2.6c0,23.2,0,46.5,0,69.7c0,2.1,0.8,2.7,2.8,2.7c2.8,0,2.3-2,2.3-3.6
							c0-18.4,0-36.7,0-55.1c0-1.4,0-2.9,0-4.5C377.9,379.3,389.6,379.3,401.7,379.3z M336.1,375.2c0-10.4,0-20.8,0-31.3
							c0-8.5,0-8.4-8.5-8.6c-3.5-0.1-4.4,1-4.4,4.4c0.1,22.1,0.1,44.2,0.1,66.2c0,9.3,0,9.2,9.4,9.1c2.8,0,3.4-1,3.4-3.6
							C336.1,399.5,336.1,387.3,336.1,375.2z M431.5,375.3c0,10.4,0,20.8,0,31.3c0,8.7,0,8.5,8.8,8.7c3.1,0,4.1-0.9,4-4
							c-0.1-22.2-0.1-44.4-0.1-66.6c0-9.3,0-9.2-9.4-9.2c-2.7,0-3.5,0.9-3.5,3.5C431.5,351,431.5,363.1,431.5,375.3z M520,375.3
							c0,10.3,0,20.6,0,30.9c0,8.9,0,8.8,8.9,8.9c3.1,0.1,4-0.9,4-4c-0.1-22.1-0.1-44.2,0-66.3c0-9.5,0-9.4-9.5-9.5
							c-2.7,0-3.5,0.9-3.4,3.5C520.1,351,520,363.1,520,375.3z M342.8,255c0-9.6,0.1-19.3,0-28.9c-0.1-7.9,1.4-6.7-7-7
							c-3.5-0.2-4.4,1.1-4.3,4.4c0.1,19.7,0,39.4,0,59.1c0,9.5-0.8,7.6,8,7.9c2.7,0.1,3.5-0.9,3.5-3.6
							C342.7,276.3,342.8,265.7,342.8,255z M436.1,255.2C436.1,255.2,436.1,255.2,436.1,255.2c0-9.7,0-19.5,0-29.2
							c0-7.7,1-6.7-6.6-6.7c-4.7,0-4.7,0-4.7,4.9c0,19.7,0,39.4,0,59.1c0,8.5-1.1,7,7.5,7.3c3,0.1,4-0.8,3.9-3.8
							C436,276.2,436.1,265.7,436.1,255.2z M246.2,176.6c-0.8-0.2-1.1-0.4-1.5-0.4c-10.5,0-21.1,0-31.6-0.1c-2.5,0-2.3,1.6-2.3,3.2
							c0,9.4,0.1,18.8-0.1,28.2c0,2.5,0.7,3.4,3.3,3.4c9.7-0.1,19.5-0.1,29.2,0c2.5,0,3.1-0.9,3-3.2c-0.1-8.6-0.1-17.2-0.1-25.8
							C246.2,180,246.2,178.2,246.2,176.6z M521.4,176.1c0,11.3,0,22.1,0.1,32.8c0,0.6,1.8,1.8,2.8,1.8c9.7,0.1,19.5,0,29.2,0.1
							c2.5,0,3.3-0.8,3.3-3.3c-0.2-7.7-0.1-15.4-0.1-23.1c0-8.2,0-8.3-8.4-8.3C539.6,176.1,530.8,176.1,521.4,176.1z M263.8,259
							c-0.3,0.1-0.5,0.2-0.8,0.2c0,9.7,0,19.5,0.1,29.2c0,0.7,1.5,2,2.2,2c15.6,0.1,31.3,0.1,46.9,0.1c2.2,0,2.7-1.1,2.6-3
							c0-6.5,0-12.9,0-19.4c0-0.7-0.2-1.5-0.4-3.1c-1.3,1.6-2.1,2.7-3,3.6c-3.3,3.3-6.3,6.9-9.9,9.7c-7.6,5.8-16.4,5.6-23.7-0.6
							c-3.3-2.8-6.1-6.4-8.8-9.9C267.1,265.1,265.6,262,263.8,259z M452.9,265.5c-0.1,1.2-0.3,1.9-0.3,2.6c0,6.3,0.1,12.7-0.1,19
							c-0.1,2.5,0.8,3.4,3.3,3.3c15.2-0.1,30.4-0.1,45.6,0c2.3,0,3.1-0.7,3.1-3.1c-0.1-8.7,0-17.5,0-26.2c0-0.7-0.2-1.4-0.4-2.9
							c-0.8,1.2-1.1,1.9-1.5,2.5c-2.8,4.2-5.3,8.8-8.6,12.6c-9.6,11.3-20.8,11.9-31.9,1.9C459,272.5,456.2,269.1,452.9,265.5z
							 M246.2,137.2c-11.4,0-22.3,0-33.2,0c-2.2,0-2.2,1.4-2.2,2.9c0,9.5,0.1,19,0,28.6c0,2.3,0.7,3.2,3.1,3.2
							c2.4,0,3.5-0.6,3.4-3.3c-0.2-4.5-0.1-9.1-0.1-13.6c0-4.8,1.6-6.4,6.3-6.4c3.3,0,6.6-0.1,9.9,0c4.5,0.1,6.1,1.7,6.1,6.2
							c0,4.8-0.1,9.5,0.1,14.3c0,0.9,0.7,2.3,1.3,2.6c3.6,1.3,5.3,0,5.3-3.7c0-2,0-4.1,0-6.1C246.2,153.7,246.2,145.7,246.2,137.2z
							 M521.4,137.2c0,11.1,0,21.7,0,32.3c0,2.8,2.1,2.1,3.6,2.2c1.7,0.1,3.1,0,3.1-2.4c-0.1-4.8,0-9.5,0-14.3c0-5,1.5-6.5,6.4-6.6
							c3.1,0,6.1,0,9.2,0c4.9,0,6.6,1.6,6.6,6.5c0.1,4.8,0.1,9.5,0,14.3c0,2.6,1.6,2.5,3.4,2.5c1.7,0,3.1,0,3.1-2.4
							c-0.1-10,0-19.9-0.1-29.9c0-0.7-1.4-2.1-2.1-2.1C543.7,137.1,532.9,137.2,521.4,137.2z M226.3,442.4c9.5,0,18.6,0.1,27.7-0.1
							c0.7,0,1.8-1.5,1.9-2.4c0.2-6,0-12,0.1-18c0-1.9-0.8-2.6-2.6-2.6c-8.3,0-16.5,0-24.8,0.1c-0.8,0-2.2,1.1-2.2,1.7
							C226.3,428.1,226.3,435,226.3,442.4z M329.6,442.4C329.6,442.4,329.6,442.4,329.6,442.4c4.1,0,8.1,0,12.2,0.1
							c2,0,2.9-0.6,2.9-2.7c-0.1-5.9-0.1-11.8,0-17.6c0-2.1-0.9-2.8-2.8-2.8c-8,0-16.1,0.1-24.1,0c-2,0-2.9,0.7-2.8,2.8
							c0.1,5.9,0.1,11.8,0,17.6c0,2.1,0.8,2.7,2.8,2.7C321.6,442.3,325.6,442.4,329.6,442.4z M437.7,442.4
							C437.7,442.4,437.7,442.4,437.7,442.4c4.1,0,8.2-0.1,12.2,0c2.1,0.1,2.8-0.7,2.8-2.8c-0.1-5.8-0.1-11.5,0-17.3
							c0-2.2-0.7-3.1-2.9-3c-8,0.1-16.1,0.1-24.1,0c-2,0-2.8,0.8-2.8,2.8c0.1,5.8,0.1,11.5,0,17.3c0,2.2,0.7,3,2.9,3
							C429.8,442.3,433.8,442.4,437.7,442.4z M541.3,442.4c0-7.3,0.1-14.1-0.1-20.9c0-0.7-1.4-2-2.2-2c-8.4-0.1-16.8-0.1-25.1,0
							c-0.7,0-2.1,1.4-2.1,2.2c-0.2,6.2-0.1,12.5,0,18.7c0,0.7,1.3,1.9,1.9,2C522.7,442.4,531.7,442.4,541.3,442.4z M516,123.3
							c15.6-5.5,31-4.6,47.1,1.2c-4.1-8.7-8.3-15.9-15.7-20.5c-6.2-3.9-12.5-3.6-18.5,0.6C522.4,109.1,518.8,115.9,516,123.3z
							 M251.4,123.8c-3.5-8.3-7.8-15.8-15.8-20.2c-5.7-3.2-11.5-3-16.8,0.5c-6.8,4.5-11,11.3-13.7,18.9c0,0.1,0.2,0.3,0.4,0.6
							C220.8,117.9,236,118.7,251.4,123.8z M319.2,254.8c0,10.8,0,21.5,0.1,32.3c0,1.1,0.4,2.7,1.2,3.1c3.6,1.9,6.9-0.2,6.9-4.1
							c0-21.1-0.1-42.1,0.1-63.2c0-3.1-1-3.9-3.9-3.8c-2.7,0.1-4.4,0.1-4.3,3.7C319.3,233.5,319.2,244.2,319.2,254.8z M448.4,254.8
							c0-10.8-0.1-21.5,0.1-32.3c0.1-3.2-1.6-3.4-4-3.4c-2.4,0-4.3-0.1-4.3,3.4c0.2,21.4,0.2,42.8,0,64.2c0,3.5,1.6,3.7,4.3,3.8
							c2.9,0.1,4-0.8,3.9-3.9C448.3,276.1,448.4,265.4,448.4,254.8z M517,141.2c-2.1,0.7-3.5,1.5-5.1,1.7c-2.4,0.4-3.1,1.5-3,3.9
							c0.1,20.2,0.2,40.3,0,60.5c0,3.8,1.9,3.4,4.4,3.6c2.8,0.1,4-0.5,4-3.7c-0.1-20.7-0.1-41.5-0.1-62.2
							C517.1,143.8,517,142.7,517,141.2z M250.7,141.4c-0.1,1-0.3,1.5-0.3,2.1c0,21.5,0,43-0.1,64.6c0,2.9,1.8,3,3.8,2.8
							c2-0.2,4.7,0.9,4.6-3c-0.2-11.7-0.1-23.3-0.1-35c0-8.7,0.1-17.4-0.1-26.2c0-1.1-0.6-2.7-1.5-3.2
							C255.3,142.5,253.1,142.1,250.7,141.4z M206.2,141.3c-2.1,0.7-3.8,1.4-5.5,1.7c-1.7,0.4-2.4,1.2-2.4,3c0,20.7,0,41.5,0,62.2
							c0,0.8,0.5,2.3,0.8,2.3c2.1,0.2,4.3,0.3,6.4-0.1c0.5-0.1,0.8-2.4,0.8-3.6c0.1-20.6,0-41.2,0-61.8
							C206.3,143.7,206.2,142.7,206.2,141.3z M569,210.2c0.1-0.2,0.3-0.7,0.3-1.1c0-21.2,0.1-42.3,0.1-63.5c0-0.7-0.5-1.9-1.1-2.1
							c-2-0.8-4.2-1.4-6.9-2.2c0,1.7,0,3,0,4.3c0,19.6,0,39.2,0,58.7c0,7.1,0.1,7.2,7.3,6.2C568.7,210.6,568.7,210.4,569,210.2z
							 M254.5,137.5c-0.7-3.3,1.6-6.5-2.2-8.1c-15-6.3-30.2-7.7-45.6-1.5c-4.7,1.9-5.4,3.7-3.5,9.1c0.7-0.5,1.5-0.8,1.8-1.3
							c1.5-3,4-3.1,6.9-3c10.3,0.1,20.6,0.1,30.9,0c3.6,0,7.4-0.7,9.4,3.5C252.4,136.7,253.2,136.8,254.5,137.5z M513.7,137.4
							c1-0.8,2-1.1,2.4-1.8c1.4-2.9,3.9-2.9,6.6-2.9c10.8,0.1,21.5,0.1,32.3,0c3.1,0,6.1-0.1,7.8,3.2c0.3,0.5,1.2,0.7,2.5,1.4
							c-0.8-3.2,1.7-6.5-2.1-8c-14.8-6.1-29.8-7.6-45-1.6C512.5,130.1,512.5,130.3,513.7,137.4z M480,357.2c3.4-1.2,4.6-0.2,4.4,3
							c-0.2,2.9,0,5.9,0,8.8c0,1.8,0.6,3.1,2.5,2.6c0.9-0.3,2.2-1.5,2.3-2.4c0.2-6.1,0.2-12.2,0-18.4c0-0.9-1.5-2.3-2.3-2.4
							c-2.8-0.3-5.7,0-8.5-0.2c-2.3-0.1-3.3,0.7-3.3,3.1c0.1,5.8,0.1,11.6,0,17.3c0,1.9,0.4,3,2.6,3c2.1,0,2.3-1.3,2.3-2.9
							C480,365,480,361.2,480,357.2z M234.9,153c-3.9,0-7.6-0.1-11.3,0.1c-0.7,0-1.8,1.4-1.8,2.1c-0.2,4.8-0.2,9.5,0,14.3
							c0,0.7,1.2,2,1.8,2.1c3.7,0.2,7.4,0.1,11.3,0.1C234.9,165.3,234.9,159.3,234.9,153z M532.6,171.6c4,0,7.7,0.1,11.4-0.1
							c0.7,0,1.7-1.4,1.8-2.2c0.2-4.7,0.1-9.5,0-14.2c0-0.7-1-2-1.6-2c-3.8-0.2-7.6-0.1-11.5-0.1
							C532.6,159.3,532.6,165.2,532.6,171.6z M482.1,386.1c1.7,0,3.4,0,5.1,0c7.9-0.1,6.7,1.4,6.9-7c0.1-2.5-1-3.1-3.2-3
							c-4.6,0.1-9.3,0-13.9,0.1c-7.7,0.1-6.9-1.7-7,7.4c0,2.1,1,2.7,2.9,2.6C476,386,479.1,386.1,482.1,386.1z M287.5,385.7
							c0.4,0.3,0.8,0.6,1.2,0.9c0.8-0.8,2.2-1.6,2.2-2.5c0.2-6.2,0.2-12.5,0-18.7c0-0.8-1.7-2.3-2.4-2.2c-2.9,0.5-6.3-1.8-8.8,1.3
							c-0.2,0.2-0.1,0.7-0.1,1c0,6.1-0.1,12.2,0.1,18.3c0,0.8,1.1,1.5,1.7,2.2c0.5-0.8,1.5-1.6,1.6-2.4c0.2-2.9,0.2-5.9,0-8.8
							c-0.2-3.3,1.2-4,4.4-2.9C287.5,376.5,287.5,381.1,287.5,385.7z M232.6,80.2C232.6,80.2,232.6,80.2,232.6,80.2c0-1-0.1-2,0-3.1
							c0.1-2.3-1.3-2.9-3.2-2.9c-2.1,0-4.7-0.1-4.9,2.5c-0.3,6.3-0.2,12.6,0,18.9c0,0.5,1.1,1.4,1.7,1.5c1.2,0.3,2.5,0,3.7,0.1
							c1.9,0.2,2.7-0.5,2.7-2.4C232.6,89.9,232.6,85.1,232.6,80.2z M543.2,86.4c0-2.9-0.1-5.9,0-8.8c0.1-2.6-1.7-3.4-3.7-3.4
							c-2-0.1-4.4,0.3-4.4,3c-0.1,6-0.1,12,0,17.9c0,0.7,1.2,1.6,2,1.9c1,0.3,2.2,0,3.4,0.1c2,0.2,2.9-0.6,2.8-2.7
							C543.1,91.9,543.2,89.1,543.2,86.4z M378.6,181.6c3.9,0,7,0,10.7,0c-0.2-2.6-0.4-5.3-0.6-7.9c-3.4,0.1-6.7,0.1-10.1,0.2
							C378.6,176.6,378.6,179.3,378.6,181.6z M445.5,196.3c-5.4,0-10.4,0-15.3,0c0,0.4-0.1,0.8-0.1,1.2c4.9,1.6,9.8,3.1,15.1,4.8
							C445.3,199.9,445.4,198.2,445.5,196.3z M322.7,202.2c4.6-1.6,9-3.1,13.4-4.6c0.4-0.1,0.7-0.5,1-0.7c-3.4-0.7-6.7-0.7-10-0.7
							C321.8,196.1,321.6,196.3,322.7,202.2z"/>
						<path class="st1" d="M228.8,206.1c-6.6,0-11.8-4.9-11.9-11.3c-0.1-6.7,4.9-12.1,11.5-12.2c6.6-0.1,12.1,5.2,12.2,11.6
							C240.6,200.8,235.4,206.1,228.8,206.1z M236.1,194.4c0-4-3.3-7.4-7.3-7.4c-4.1-0.1-7.6,3.3-7.6,7.4c0,4,3.3,7.4,7.2,7.5
							C232.5,202,236.1,198.5,236.1,194.4z"/>
						<path class="st1" d="M539.3,206.2c-6.4,0-11.7-5.3-11.7-11.6c0-6.5,5.4-11.9,11.9-12c6.7,0,11.9,5.4,11.8,12.3
							C551.1,201.3,546,206.2,539.3,206.2z M539.4,187c-3.9,0-7.3,3.4-7.4,7.4c0,4.1,3.4,7.6,7.5,7.5c4.1-0.1,7.5-3.6,7.4-7.7
							C546.8,190.3,543.3,186.9,539.4,187z"/>
					</g>
				</g>
				<g>
					<g>
						<path class="st1" d="M573.4,356.2c49.3,0.7,98.7,1.5,148,2.2c2.6,0,2.6-4,0-4c-49.3-0.7-98.7-1.5-148-2.2
							C570.8,352.1,570.8,356.1,573.4,356.2L573.4,356.2z"/>
					</g>
				</g>
				<g>
					<g>
						<path class="st1" d="M656.8,267.9c-23.9,3.9-53.8,15.3-54.3,44.1c0,1.4,1.8,2.7,3,1.7c9.2-6.9,21.6-5,27.9,4.8
							c0.9,1.4,2.6,1.2,3.5,0c8.8-11.9,25.6-13,36.1-2.7c0.6,0.6,1.7,0.8,2.4,0.3c11-8.2,24.5-11.7,38.1-9.7
							c2.5,0.4,3.6-3.5,1.1-3.9c-14.7-2.2-29.3,1.3-41.2,10.1c0.8,0.1,1.6,0.2,2.4,0.3c-12.5-12.2-32.1-10.4-42.5,3.5
							c1.2,0,2.3,0,3.5,0c-7.4-11.5-22.4-14.4-33.5-6.2c1,0.6,2,1.2,3,1.7c0.5-26.8,29.5-36.6,51.4-40.2
							C660.4,271.4,659.3,267.5,656.8,267.9L656.8,267.9z"/>
					</g>
				</g>
				<g>
					<g>
						<path class="st1" d="M652.1,308.5c0,15.1,0,30.1,0,45.2c0,2.6,4,2.6,4,0c0-15.1,0-30.1,0-45.2
							C656.1,305.9,652.1,305.9,652.1,308.5L652.1,308.5z"/>
					</g>
				</g>
				<g>
					<g>
						<path class="st1" d="M660.9,308.9c0,15.2,0,30.4,0,45.6c0,2.6,4,2.6,4,0c0-15.2,0-30.4,0-45.6
							C665,306.3,660.9,306.3,660.9,308.9L660.9,308.9z"/>
					</g>
				</g>
				<g>
					<g>
						<path class="st1" d="M637.5,315c1-19.9,10.6-38.4,26.2-50.7c2-1.6-0.8-4.4-2.9-2.9c-16.5,13-26.4,32.7-27.4,53.6
							C633.4,317.6,637.4,317.6,637.5,315L637.5,315z"/>
					</g>
				</g>
				<g>
					<g>
						<path class="st1" d="M661.6,279.6c3.7,4.8,6.4,10.2,7.8,16.1c1.4,5.6,0.4,11.6,2.5,17c0.9,2.4,4.8,1.4,3.9-1.1
							c-2.2-5.8-1.2-12.6-2.9-18.6c-1.6-5.6-4.3-10.8-7.8-15.4C663.5,275.6,660,277.6,661.6,279.6L661.6,279.6z"/>
					</g>
				</g>
				<g>
					<g>
						<path class="st1" d="M573.4,374.3c17.3,0,34.7,0,52,0c2.6,0,2.6-4,0-4c-17.3,0-34.7,0-52,0
							C570.8,370.3,570.8,374.3,573.4,374.3L573.4,374.3z"/>
					</g>
				</g>
				<g>
					<g>
						<path class="st1" d="M623.8,372.3c0,24.1,0,48.3,0,72.4c0,2.6,4,2.6,4,0c0-24.1,0-48.3,0-72.4
							C627.9,369.7,623.8,369.7,623.8,372.3L623.8,372.3z"/>
					</g>
				</g>
				<g>
					<g>
						<path class="st1" d="M627.5,402.5c30.1,0,60.2,0,90.4,0c2.6,0,2.6-4,0-4c-30.1,0-60.2,0-90.4,0
							C624.9,398.5,624.9,402.5,627.5,402.5L627.5,402.5z"/>
					</g>
				</g>
				<g>
					<g>
						<path class="st1" d="M695.2,400.1c0-7.5,0-15.1,0-22.6c0-2.6-4-2.6-4,0c0,7.5,0,15.1,0,22.6
							C691.2,402.7,695.2,402.7,695.2,400.1L695.2,400.1z"/>
					</g>
				</g>
				<g>
					<g>
						<path class="st1" d="M693.6,379.1c16.9-0.8,33.9-1.1,50.8-1.1c2.6,0,2.6-4,0-4c-17,0-33.9,0.4-50.8,1.1
							C691,375.2,691,379.2,693.6,379.1L693.6,379.1z"/>
					</g>
				</g>
				<g>
					<g>
						<path class="st1" d="M650.9,398.9c-0.5-8.5-0.6-16.9-0.4-25.4c0.1-2.6-4-2.6-4,0c-0.2,8.5-0.1,16.9,0.4,25.4
							C647,401.5,651,401.5,650.9,398.9L650.9,398.9z"/>
					</g>
				</g>
				<g>
					<g>
						<path class="st1" d="M648,374.7c5.9,0,11.8,0,17.7,0c2.6,0,2.6-4,0-4c-5.9,0-11.8,0-17.7,0C645.4,370.7,645.4,374.7,648,374.7
							L648,374.7z"/>
					</g>
				</g>
				<g>
					<g>
						<path class="st1" d="M664.2,373.2c0,8.7,0,17.5,0,26.2c0,2.6,4,2.6,4,0c0-8.7,0-17.5,0-26.2
							C668.2,370.6,664.2,370.6,664.2,373.2L664.2,373.2z"/>
					</g>
				</g>
				<g>
					<g>
						<path class="st1" d="M654.9,384.8c0,20.6,0,41.1,0,61.7c0,2.6,4,2.6,4,0c0-20.6,0-41.1,0-61.7
							C658.9,382.2,654.9,382.2,654.9,384.8L654.9,384.8z"/>
					</g>
				</g>
				<g>
					<g>
						<path class="st1" d="M692.8,441.2c2.6,0,2.6-4,0-4C690.2,437.2,690.2,441.2,692.8,441.2L692.8,441.2z"/>
					</g>
				</g>
				<g>
					<g>
						<path class="st1" d="M370.5,108.7c4-3.1,8.9-1.2,12.7,1.3c0.6,0.4,1.5,0.4,2,0c3.4-2.4,3.4-7.5,9.1-6.6
							c2.5,0.4,3.6-3.5,1.1-3.9c-3.2-0.5-5.8,0-8.4,2.1c-1.1,0.9-2,1.9-2.8,3c-0.4,0.5-2.1,2.7-1,1.9c0.7,0,1.4,0,2,0
							c-5-3.2-11.6-5.2-16.8-1.3C366.4,106.7,368.4,110.2,370.5,108.7L370.5,108.7z"/>
					</g>
				</g>
				<g>
					<g>
						<path class="st1" d="M255.6,89.7c4-3.1,8.9-1.2,12.7,1.3c0.6,0.4,1.5,0.4,2,0c3.4-2.4,3.4-7.5,9.1-6.6
							c2.5,0.4,3.6-3.5,1.1-3.9c-3.2-0.5-5.8,0-8.4,2.1c-1.1,0.9-2,1.9-2.8,3c-0.4,0.5-2.1,2.7-1,1.9c0.7,0,1.4,0,2,0
							c-5-3.2-11.6-5.2-16.8-1.3C251.5,87.8,253.5,91.3,255.6,89.7L255.6,89.7z"/>
					</g>
				</g>
				<g>
					<g>
						<path class="st1" d="M479.1,83.6c3.9-0.6,7.3,0.5,10.2,3.2c1,0.9,2.4,0.7,3.2-0.4c1.9-3,4.8-4.3,8.4-4.2c2.6,0.1,2.6-3.9,0-4
							c-5-0.2-9.1,2.1-11.8,6.2c1.1-0.1,2.1-0.3,3.2-0.4c-4-3.7-8.7-5.1-14.1-4.2C475.5,80.2,476.6,84.1,479.1,83.6L479.1,83.6z"/>
					</g>
				</g>
				<g>
					<g>
						<path class="st1" d="M494.2,66c2.4-0.9,4.9-1.3,7.4-0.6c1.4,0.4,3.1,1.8,4.6,1.6c1-0.1,1.6-0.8,2.3-1.4
							c2.4-1.9,4.3-3.3,7.4-3.8c2.6-0.4,1.5-4.2-1.1-3.9c-2,0.3-3.9,0.8-5.7,1.9c-1,0.6-1.6,1.4-2.6,2c-1.3,0.8-0.3,0.7-1.9,0.5
							c-1.8-0.3-3.4-1.2-5.3-1.3c-2.2-0.1-4.3,0.3-6.4,1.1C490.7,63,491.8,66.9,494.2,66L494.2,66z"/>
					</g>
				</g>
				<g>
					<g>
						<path class="st1" d="M431.9,40.5c4-1.2,7.8-0.6,10.9,2.2c0.9,0.8,2.6,0.9,3.2-0.4c1.4-3.1,3.7-5,7.2-5.2c2.6-0.1,2.6-4.2,0-4
							c-4.8,0.2-8.8,2.7-10.7,7.2c1.1-0.1,2.1-0.3,3.2-0.4c-4.2-3.7-9.5-5-14.8-3.3C428.3,37.4,429.4,41.3,431.9,40.5L431.9,40.5z"
							/>
					</g>
				</g>
				<g>
					<g>
						<path class="st1" d="M468.8,227.7c2.8,0.3,4.7,2.1,5.8,4.6c0.8,1.8,3.2,0.9,3.7-0.5c1.1-3,3.6-4.6,6.7-5
							c2.6-0.3,1.5-4.2-1.1-3.9c-4.5,0.6-7.9,3.7-9.5,7.9c1.2-0.2,2.5-0.3,3.7-0.5c-1.7-3.9-5.1-6.1-9.3-6.6
							C466.2,223.4,466.2,227.5,468.8,227.7L468.8,227.7z"/>
					</g>
				</g>
				<g>
					<g>
						<path class="st1" d="M570,446.1c25.6,0.4,51.1,0.8,76.7,1.2c24.9,0.4,49.9,1.1,74.8-1.2c2.8-0.3,2.8-4.7,0-4.4
							c-24.9,2.2-49.9,1.5-74.8,1.2c-25.6-0.4-51.1-0.8-76.7-1.2C567.1,441.7,567.1,446.1,570,446.1L570,446.1z"/>
					</g>
				</g>
				<g>
					<g>
						<path class="st1" d="M692.9,433.3c2.8,0,2.8-4.4,0-4.4C690.1,428.9,690.1,433.3,692.9,433.3L692.9,433.3z"/>
					</g>
				</g>
				<g>
					<g>
						<path class="st1" d="M416.4,458.4c75.6,0,151.3,0,226.9,0c21.7,0,43.3,0,65,0c2.6,0,2.6-4,0-4c-75.6,0-151.3,0-226.9,0
							c-21.7,0-43.3,0-65,0C413.8,454.4,413.8,458.4,416.4,458.4L416.4,458.4z"/>
					</g>
				</g>
				<g>
					<g>
						<path class="st1" d="M131.3,462.8c67.4,0,134.7,0,202.1,0c2.6,0,2.6-4,0-4c-67.4,0-134.7,0-202.1,0
							C128.7,458.8,128.7,462.8,131.3,462.8L131.3,462.8z"/>
					</g>
				</g>
				<g>
					<g>
						<path class="st1" d="M127.5,447.5c29.4,0,58.8,0,88.3,0c2.6,0,2.6-4,0-4c-29.4,0-58.8,0-88.3,0
							C124.9,443.5,124.9,447.5,127.5,447.5L127.5,447.5z"/>
					</g>
				</g>
				<g>
					<g>
						<path class="st1" d="M151.1,384.6c0,20.3,0,40.6,0,61c0,2.6,4,2.6,4,0c0-20.3,0-40.6,0-61C155.1,382,151.1,382,151.1,384.6
							L151.1,384.6z"/>
					</g>
				</g>
				<g>
					<g>
						<path class="st1" d="M162.2,383.7c0,20.5,0,41,0,61.5c0,2.6,4,2.6,4,0c0-20.5,0-41,0-61.5
							C166.3,381.1,162.2,381.1,162.2,383.7L162.2,383.7z"/>
					</g>
				</g>
				<g>
					<g>
						<path class="st1" d="M135.1,484.5c13.2,0,26.5,0,39.7,0c2.8,0,2.8-4.4,0-4.4c-13.2,0-26.5,0-39.7,0
							C132.3,480.1,132.3,484.5,135.1,484.5L135.1,484.5z"/>
					</g>
				</g>
				<g>
					<g>
						<path class="st1" d="M189,484.5c4.1,0,8.2,0,12.4,0c2.8,0,2.8-4.4,0-4.4c-4.1,0-8.2,0-12.4,0
							C186.1,480.1,186.1,484.5,189,484.5L189,484.5z"/>
					</g>
				</g>
				<g>
					<g>
						<path class="st1" d="M486.4,476.6c10.6,0,21.2,0,31.8,0c2.8,0,2.8-4.4,0-4.4c-10.6,0-21.2,0-31.8,0
							C483.6,472.1,483.6,476.6,486.4,476.6L486.4,476.6z"/>
					</g>
				</g>
			</g>
			<g>
				<g>
					<path class="st1" d="M10,383.6c60.9,0,121.8,0,182.7,0c2.6,0,2.6-4,0-4c-60.9,0-121.8,0-182.7,0C7.4,379.6,7.4,383.6,10,383.6
						L10,383.6z"/>
				</g>
			</g>
			<g>
				<g>
					<path class="st1" d="M95.1,289.3c0,29.8,0,59.7,0,89.5c0,2.6,4,2.6,4,0c0-29.8,0-59.7,0-89.5C99.2,286.7,95.1,286.7,95.1,289.3
						L95.1,289.3z"/>
				</g>
			</g>
			<g>
				<g>
					<path class="st1" d="M77.1,303.8c0,14.3,0,28.7,0,43c0,2.6,4,2.6,4,0c0-14.3,0-28.7,0-43C81.2,301.2,77.1,301.2,77.1,303.8
						L77.1,303.8z"/>
				</g>
			</g>
			<g>
				<g>
					<path class="st1" d="M80.1,344.8c-18.7,0-37.3,0-56,0c-2.6,0-2.6,4,0,4c18.7,0,37.3,0,56,0C82.7,348.8,82.7,344.8,80.1,344.8
						L80.1,344.8z"/>
				</g>
			</g>
			<g>
				<g>
					<path class="st1" d="M99.6,339.3c7.8,0,15.7,0,23.5,0c2.6,0,2.6-4,0-4c-7.8,0-15.7,0-23.5,0C97,335.3,97,339.3,99.6,339.3
						L99.6,339.3z"/>
				</g>
			</g>
			<g>
				<g>
					<path class="st1" d="M122.2,339.2c5.7,5.7,11.3,11.3,17,17c1.8,1.8,4.7-1,2.9-2.9c-5.7-5.7-11.3-11.3-17-17
						C123.2,334.5,120.4,337.4,122.2,339.2L122.2,339.2z"/>
				</g>
			</g>
			<g>
				<g>
					<path class="st1" d="M139,355.3c0.2,8,0.5,16,0.7,24c0.1,2.6,4.1,2.6,4,0c-0.2-8-0.5-16-0.7-24
						C142.9,352.7,138.9,352.7,139,355.3L139,355.3z"/>
				</g>
			</g>
			<g>
				<g>
					<path class="st1" d="M104.1,338.3c0,13.5,0,27,0,40.5c0,2.6,4,2.6,4,0c0-13.5,0-27,0-40.5C108.2,335.7,104.1,335.7,104.1,338.3
						L104.1,338.3z"/>
				</g>
			</g>
			<g>
				<g>
					<path class="st1" d="M114.1,340.3c0,13,0,26,0,39c0,2.6,4,2.6,4,0c0-13,0-26,0-39C118.2,337.7,114.1,337.7,114.1,340.3
						L114.1,340.3z"/>
				</g>
			</g>
			<g>
				<g>
					<path class="st1" d="M126.1,341.3c0,12.5,0,25,0,37.5c0,2.6,4,2.6,4,0c0-12.5,0-25,0-37.5C130.2,338.7,126.1,338.7,126.1,341.3
						L126.1,341.3z"/>
				</g>
			</g>
			<g>
				<g>
					<path class="st1" d="M100.1,322.8c16.1-16,32.2-32.1,48.4-48.1c1.8-1.8-1-4.7-2.9-2.9c-16.1,16-32.2,32.1-48.4,48.1
						C95.4,321.8,98.3,324.6,100.1,322.8L100.1,322.8z"/>
				</g>
			</g>
			<g>
				<g>
					<path class="st1" d="M1.1,432.3c26.5,0,53,0,79.5,0c2.6,0,2.6-4,0-4c-26.5,0-53,0-79.5,0C-1.5,428.3-1.5,432.3,1.1,432.3
						L1.1,432.3z"/>
				</g>
			</g>
			<g>
				<g>
					<path class="st1" d="M83.1,427.9c-1.3-1.3-2.7-2.7-4-4c-1.8-1.8-4.7,1-2.9,2.9c1.3,1.3,2.7,2.7,4,4
						C82.1,432.5,84.9,429.7,83.1,427.9L83.1,427.9z"/>
				</g>
			</g>
			<g>
				<g>
					<path class="st1" d="M5.6,406.8c33.3,0,66.7,0,100,0c2.6,0,2.6-4,0-4c-33.3,0-66.7,0-100,0C3,402.8,3,406.8,5.6,406.8
						L5.6,406.8z"/>
				</g>
			</g>
			<g>
				<g>
					<path class="st1" d="M106.1,404.3c0,14.2,0,28.4,0,42.7c0,2.6,4,2.6,4,0c0-14.2,0-28.4,0-42.7
						C110.2,401.7,106.1,401.7,106.1,404.3L106.1,404.3z"/>
				</g>
			</g>
			<g>
				<g>
					<path class="st1" d="M3.6,449.8c23.2,0,46.3,0,69.5,0c2.6,0,2.6-4,0-4c-23.2,0-46.3,0-69.5,0C1,445.8,1,449.8,3.6,449.8
						L3.6,449.8z"/>
				</g>
			</g>
			<g>
				<g>
					<path class="st1" d="M89.1,448.3c8.8,0,17.7,0,26.5,0c2.6,0,2.6-4,0-4c-8.8,0-17.7,0-26.5,0C86.5,444.3,86.5,448.3,89.1,448.3
						L89.1,448.3z"/>
				</g>
			</g>
			<g>
				<g>
					<path class="st1" d="M11.6,472.8c29.5,0,59,0,88.5,0c2.6,0,2.6-4,0-4c-29.5,0-59,0-88.5,0C9,468.8,9,472.8,11.6,472.8
						L11.6,472.8z"/>
				</g>
			</g>
			<g>
				<g>
					<path class="st1" d="M97.7,471.7c8.8,8.8,17.5,17.5,26.2,26.2c1.8,1.8,4.7-1,2.9-2.9c-8.8-8.8-17.5-17.5-26.2-26.2
						C98.7,467,95.9,469.9,97.7,471.7L97.7,471.7z"/>
				</g>
			</g>
			<g>
				<g>
					<path class="st1" d="M95.1,471.3c0,43.2,0,86.3,0,129.5c0,2.6,4,2.6,4,0c0-43.2,0-86.3,0-129.5
						C99.2,468.7,95.1,468.7,95.1,471.3L95.1,471.3z"/>
				</g>
			</g>
			<g>
				<g>
					<path class="st1" d="M100.1,500.8c26.9,0.9,53.7,1.9,80.6,2.8c2.6,0.1,2.6-3.9,0-4c-26.9-0.9-53.7-1.9-80.6-2.8
						C97.5,496.7,97.5,500.7,100.1,500.8L100.1,500.8z"/>
				</g>
			</g>
			<g>
				<g>
					<path class="st1" d="M178.7,504.8c0,22.4,0,44.9,0,67.3c0,2.6,4,2.6,4,0c0-22.4,0-44.9,0-67.3
						C182.7,502.2,178.7,502.2,178.7,504.8L178.7,504.8z"/>
				</g>
			</g>
			<g>
				<g>
					<path class="st1" d="M355.1,492.2c0.5-0.5,1-1,1.5-1.5c0.7-0.7,0.8-2.1,0-2.9c-0.8-0.7-2.1-0.8-2.9,0c-0.5,0.5-1,1-1.5,1.5
						c-0.7,0.7-0.8,2.1,0,2.9C353,492.9,354.3,493,355.1,492.2L355.1,492.2z"/>
				</g>
			</g>
			<g>
				<g>
					<path class="st1" d="M380.6,496.8c35.7,0,71.3,0,107,0c2.6,0,2.6-4,0-4c-35.7,0-71.3,0-107,0C378,492.8,378,496.8,380.6,496.8
						L380.6,496.8z"/>
				</g>
			</g>
			<g>
				<g>
					<path class="st1" d="M474.1,506.8c15.7,0,31.3,0,47,0c2.6,0,2.6-4,0-4c-15.7,0-31.3,0-47,0
						C471.5,502.8,471.5,506.8,474.1,506.8L474.1,506.8z"/>
				</g>
			</g>
			<g>
				<g>
					<path class="st1" d="M568.6,487.3c11.8,0,23.7,0,35.5,0c2.6,0,2.6-4,0-4c-11.8,0-23.7,0-35.5,0
						C566,483.3,566,487.3,568.6,487.3L568.6,487.3z"/>
				</g>
			</g>
			<g>
				<g>
					<path class="st1" d="M624.1,475.8c5.3,0,10.7,0,16,0c2.6,0,2.6-4,0-4c-5.3,0-10.7,0-16,0C621.5,471.8,621.5,475.8,624.1,475.8
						L624.1,475.8z"/>
				</g>
			</g>
			<g>
				<g>
					<path class="st1" d="M564.1,513.3c32.5,0,65,0,97.5,0c2.6,0,2.6-4,0-4c-32.5,0-65,0-97.5,0
						C561.5,509.3,561.5,513.3,564.1,513.3L564.1,513.3z"/>
				</g>
			</g>
			<g>
				<g>
					<path class="st1" d="M354.1,477.8c18,0,36,0,54,0c2.6,0,2.6-4,0-4c-18,0-36,0-54,0C351.5,473.8,351.5,477.8,354.1,477.8
						L354.1,477.8z"/>
				</g>
			</g>
			<g>
				<g>
					<path class="st1" d="M224.1,483.3c22.3,0,44.7,0,67,0c2.6,0,2.6-4,0-4c-22.3,0-44.7,0-67,0
						C221.5,479.3,221.5,483.3,224.1,483.3L224.1,483.3z"/>
				</g>
			</g>
			<g>
				<g>
					<path class="st1" d="M515.3,524.3c8.4,0,16.9,0,25.3,0c2.6,0,2.6-4,0-4c-8.4,0-16.9,0-25.3,0
						C512.7,520.3,512.7,524.3,515.3,524.3L515.3,524.3z"/>
				</g>
			</g>
			<g>
				<g>
					<path class="st1" d="M539.3,485.6c3.8,0,7.6,0,11.3,0c2.6,0,2.6-4,0-4c-3.8,0-7.6,0-11.3,0
						C536.7,481.6,536.7,485.6,539.3,485.6L539.3,485.6z"/>
				</g>
			</g>
			<g>
				<g>
					<path class="st1" d="M420.6,475c2.4,0,4.9,0,7.3,0c2.6,0,2.6-4,0-4c-2.4,0-4.9,0-7.3,0C418,470.9,418,475,420.6,475L420.6,475z
						"/>
				</g>
			</g>
		</g>
		<g>
			<g>
				<path class="st1" d="M98.7,533.6c14.3-0.4,29.4,2.9,40.5,12.5c12,10.4,15.4,26.3,18.4,41.2c0.5,2.5,4.4,1.5,3.9-1.1
					c-3.3-16.1-7.3-33-20.6-43.9c-11.8-9.6-27.3-13.2-42.2-12.8C96.1,529.6,96.1,533.7,98.7,533.6L98.7,533.6z"/>
			</g>
		</g>
		<g>
			<g>
				<path class="st1" d="M98.2,519.1c23.4,0.6,46.2,8.8,59.8,28.8c6.9,10.2,9.5,21.1,13.1,32.6c0.8,2.5,4.7,1.4,3.9-1.1
					c-2.7-8.7-4.6-17.4-8.9-25.6c-7-13.8-18.3-25.1-32.6-31.4c-11.2-5-23.3-7-35.4-7.3C95.6,515,95.6,519.1,98.2,519.1L98.2,519.1z"
					/>
			</g>
		</g>
		<g>
			<g>
				<path class="st1" d="M396.7,546.8c34,0,68,0,102,0c2.6,0,2.6-4,0-4c-34,0-68,0-102,0C394.1,542.8,394.1,546.8,396.7,546.8
					L396.7,546.8z"/>
			</g>
		</g>
		<g>
			<g>
				<path class="st1" d="M498.1,556.8c7.1,0,14.2,0,21.3,0c2.6,0,2.6-4,0-4c-7.1,0-14.2,0-21.3,0
					C495.5,552.8,495.5,556.8,498.1,556.8L498.1,556.8z"/>
			</g>
		</g>
		<g>
			<g>
				<path class="st1" d="M590.1,554.8c19.3,0,38.7,0,58,0c2.6,0,2.6-4,0-4c-19.3,0-38.7,0-58,0C587.5,550.8,587.5,554.8,590.1,554.8
					L590.1,554.8z"/>
			</g>
		</g>
		<g>
			<g>
				<path class="st1" d="M207.4,530.1c45.8,0,91.6,0,137.3,0c2.6,0,2.6-4,0-4c-45.8,0-91.6,0-137.3,0
					C204.8,526.1,204.8,530.1,207.4,530.1L207.4,530.1z"/>
			</g>
		</g>
		<g>
			<g>
				<path class="st1" d="M250.7,512.1c9.3,0,18.7,0,28,0c2.6,0,2.6-4,0-4c-9.3,0-18.7,0-28,0C248.1,508.1,248.1,512.1,250.7,512.1
					L250.7,512.1z"/>
			</g>
		</g>
		<g>
			<g>
				<path class="st1" d="M294.7,510.8c4.2,0,8.4,0,12.7,0c2.6,0,2.6-4,0-4c-4.2,0-8.4,0-12.7,0C292.1,506.8,292.1,510.8,294.7,510.8
					L294.7,510.8z"/>
			</g>
		</g>
		<g>
			<g>
				<path class="st1" d="M330.7,511.5c0.2,0,0.4,0,0.7,0c1.1,0,2.1-0.9,2-2c0-1.1-0.9-2-2-2c-0.2,0-0.4,0-0.7,0c-1.1,0-2.1,0.9-2,2
					C328.7,510.5,329.6,511.5,330.7,511.5L330.7,511.5z"/>
			</g>
		</g>
		<g>
			<g>
				<path class="st1" d="M384.1,529.5c2.4,0,4.9,0,7.3,0c2.6,0,2.6-4,0-4c-2.4,0-4.9,0-7.3,0C381.5,525.4,381.5,529.5,384.1,529.5
					L384.1,529.5z"/>
			</g>
		</g>
		<g>
			<g>
				<path class="st1" d="M407.4,528.8c1.1,0,2.2,0,3.3,0c1.1,0,2.1-0.9,2-2c0-1.1-0.9-2-2-2c-1.1,0-2.2,0-3.3,0c-1.1,0-2.1,0.9-2,2
					C405.4,527.9,406.3,528.8,407.4,528.8L407.4,528.8z"/>
			</g>
		</g>
		<g>
			<g>
				<path class="st1" d="M645.4,493.5c2,0,4,0,6,0c2.6,0,2.6-4,0-4c-2,0-4,0-6,0C642.8,489.4,642.8,493.5,645.4,493.5L645.4,493.5z"
					/>
			</g>
		</g>
		<g>
			<g>
				<path class="st1" d="M660.7,495.5c1.6,0,3.1,0,4.7,0c2.6,0,2.6-4,0-4c-1.6,0-3.1,0-4.7,0C658.1,491.4,658.1,495.5,660.7,495.5
					L660.7,495.5z"/>
			</g>
		</g>
		<g>
			<g>
				<path class="st1" d="M554.1,544.8c1.8,0,3.6,0,5.3,0c2.6,0,2.6-4,0-4c-1.8,0-3.6,0-5.3,0C551.5,540.8,551.5,544.8,554.1,544.8
					L554.1,544.8z"/>
			</g>
		</g>
		<g>
			<g>
				<path class="st1" d="M574.7,397.5c4.9,0,9.8,0,14.7,0c2.6,0,2.6-4,0-4c-4.9,0-9.8,0-14.7,0C572.1,393.4,572.1,397.5,574.7,397.5
					L574.7,397.5z"/>
			</g>
		</g>
		<g>
			<g>
				<path class="st1" d="M589.4,404.1c3.3,0,6.7,0,10,0c2.6,0,2.6-4,0-4c-3.3,0-6.7,0-10,0C586.8,400.1,586.8,404.1,589.4,404.1
					L589.4,404.1z"/>
			</g>
		</g>
		<g>
			<g>
				<path class="st1" d="M608.7,421.5c4.7,0,9.3,0,14,0c2.6,0,2.6-4,0-4c-4.7,0-9.3,0-14,0C606.1,417.4,606.1,421.5,608.7,421.5
					L608.7,421.5z"/>
			</g>
		</g>
		<g>
			<g>
				<path class="st1" d="M604.1,428.8c2.9,0,5.8,0,8.7,0c2.6,0,2.6-4,0-4c-2.9,0-5.8,0-8.7,0C601.5,424.8,601.5,428.8,604.1,428.8
					L604.1,428.8z"/>
			</g>
		</g>
		<g>
			<g>
				<path class="st1" d="M611.4,383.5c3.8,0,7.6,0,11.3,0c2.6,0,2.6-4,0-4c-3.8,0-7.6,0-11.3,0C608.8,379.4,608.8,383.5,611.4,383.5
					L611.4,383.5z"/>
			</g>
		</g>
		<g>
			<g>
				<path class="st1" d="M137.4,400.1c3.6,0,7.1,0,10.7,0c2.6,0,2.6-4,0-4c-3.6,0-7.1,0-10.7,0C134.8,396.1,134.8,400.1,137.4,400.1
					L137.4,400.1z"/>
			</g>
		</g>
		<g>
			<g>
				<path class="st1" d="M166,319.4c0,8.2,0,16.4,0,24.7c0,2.6,4,2.6,4,0c0-8.2,0-16.4,0-24.7C170.1,316.8,166,316.8,166,319.4
					L166,319.4z"/>
			</g>
		</g>
		<g>
			<g>
				<path class="st1" d="M8.9,503.6c15.7-0.5,31.3-1,47-1.6c2.6-0.1,2.6-4.1,0-4c-15.7,0.5-31.3,1-47,1.6
					C6.3,499.7,6.3,503.7,8.9,503.6L8.9,503.6z"/>
			</g>
		</g>
		<g>
			<g>
				<path class="st1" d="M13.2,512.5c10,0,19.9,0,29.9,0c2.6,0,2.6-4,0-4c-10,0-19.9,0-29.9,0C10.6,508.5,10.6,512.5,13.2,512.5
					L13.2,512.5z"/>
			</g>
		</g>
		<g>
			<g>
				<path class="st1" d="M80.5,567.4c1.2-1.2,2.4-2.4,3.7-3.7c0.8-0.8,0.8-2.1,0-2.9c-0.8-0.8-2.1-0.8-2.9,0
					c-1.2,1.2-2.4,2.4-3.7,3.7c-0.8,0.8-0.8,2.1,0,2.9C78.4,568.2,79.7,568.2,80.5,567.4L80.5,567.4z"/>
			</g>
		</g>
		<g>
			<g>
				<path class="st1" d="M83.4,580.2c3.9,0,7.7,0,11.6,0c2.6,0,2.6-4,0-4c-3.9,0-7.7,0-11.6,0C80.8,576.2,80.8,580.2,83.4,580.2
					L83.4,580.2z"/>
			</g>
		</g>
	</g>
</g>
</svg>
