<?xml version="1.0" encoding="utf-8"?>
<!-- Generator: Adobe Illustrator 22.1.0, SVG Export Plug-In . SVG Version: 6.00 Build 0)  -->
<svg version="1.1" id="Capa_3" xmlns="http://www.w3.org/2000/svg" xmlns:xlink="http://www.w3.org/1999/xlink" x="0px" y="0px"
	 viewBox="0 0 800 800" style="enable-background:new 0 0 800 800;" xml:space="preserve">
<style type="text/css">
	.st0{fill:#5ABCEA;}
	.st1{fill:#F3D16A;}
	.st2{fill:#222221;}
	.st3{fill:#FFD16A;}
</style>
<polygon class="st0" points="63.6,140.4 63.6,244.7 323.9,792 784.6,615.3 796.3,566.8 510.3,30.6 "/>
<polygon class="st1" points="414.8,30.6 682,576 663.7,640.7 717.6,632.2 717.6,563 447.9,24.6 "/>
<g>
	<g>
		<path class="st2" d="M83.2,157.2c8.5,19.3,17,38.6,25.5,57.9c20.3,46,40.6,92.1,60.8,138.1c24.6,55.8,49.2,111.6,73.7,167.4
			c21.2,48.2,42.5,96.4,63.7,144.7c7,15.9,14,31.8,21,47.7c3.3,7.4,6.2,15.2,9.9,22.4c0.2,0.3,0.3,0.7,0.4,1c1.1,2.6,5.4,4.3,8,3.3
			c14.6-5.9,29.1-11.8,43.7-17.7c35.1-14.2,70.2-28.5,105.3-42.7c42.3-17.2,84.7-34.3,127-51.5c36.7-14.9,73.4-29.8,110.2-44.6
			c17.8-7.2,35.5-14.3,53.3-21.6c0.2-0.1,0.5-0.2,0.7-0.3c4.5-1.8,6.4-5.9,4.3-10.5c-8.5-18.1-17-36.1-25.5-54.2
			c-20.3-43.1-40.5-86.1-60.8-129.2c-24.6-52.4-49.3-104.7-73.9-157.1c-21.2-45-42.3-90-63.5-134.9c-7-14.9-14-29.8-21-44.7
			c-3.3-7-6.2-14.3-9.9-21.1c-0.2-0.3-0.3-0.6-0.4-0.9c-1.3-2.7-5.2-4.2-8-3.3c-14.6,4.7-29.2,9.4-43.8,14
			c-35,11.2-70.1,22.5-105.1,33.7C336.2,67,293.8,80.5,251.4,94.1c-36.6,11.7-73.3,23.5-109.9,35.2c-17.8,5.7-35.7,10.9-53.3,17.1
			c-0.3,0.1-0.5,0.2-0.8,0.2c-8.7,2.8-5,16.5,3.8,13.7c14.6-4.7,29.2-9.4,43.8-14c35-11.2,70.1-22.5,105.1-33.7
			c42.4-13.6,84.8-27.2,127.2-40.8c36.6-11.7,73.3-23.5,109.9-35.2c12-3.9,24.1-7.7,36.1-11.6c5.6-1.8,11.8-3.1,17.2-5.5
			c0.2-0.1,0.5-0.2,0.8-0.2c-2.7-1.1-5.4-2.2-8-3.3c8.5,18.1,17,36.1,25.5,54.2c20.3,43.1,40.5,86.1,60.8,129.2
			c24.6,52.4,49.3,104.7,73.9,157.1c21.2,45,42.3,90,63.5,134.9c7,14.9,14,29.8,21,44.7c3.3,6.9,6,14.5,9.9,21.1
			c0.2,0.3,0.3,0.6,0.4,0.9c1.4-3.5,2.8-7,4.3-10.5c-14.6,5.9-29.1,11.8-43.7,17.7c-35.1,14.2-70.2,28.5-105.3,42.7
			c-42.3,17.2-84.7,34.3-127,51.5c-36.7,14.9-73.4,29.8-110.2,44.6c-12,4.9-24,9.7-35.9,14.6c-5.6,2.3-12.1,4-17.3,7
			c-0.2,0.1-0.5,0.2-0.7,0.3c2.7,1.1,5.4,2.2,8,3.3c-8.5-19.3-17-38.6-25.5-57.9c-20.3-46-40.6-92.1-60.8-138.1
			c-24.6-55.8-49.2-111.6-73.7-167.4c-21.2-48.2-42.5-96.4-63.7-144.7c-7-15.9-14-31.8-21-47.7c-3.3-7.4-6.2-15.2-9.9-22.4
			c-0.2-0.3-0.3-0.7-0.4-1c-1.6-3.5-6.7-4.3-9.7-2.6C82.1,149.5,81.6,153.7,83.2,157.2z"/>
	</g>
</g>
<g>
	<g>
		<path class="st2" d="M73.8,159.2c0,24.5,0,49,0,73.6c0,4.6-0.5,9,1.4,13.3c1.3,3,2.7,5.9,4,8.9c16.3,35.9,32.6,71.8,48.9,107.7
			c25.9,57,51.9,114.1,77.8,171.1c24.5,54,49.1,107.9,73.6,161.9c8.5,18.7,17,37.4,25.5,56.1c4,8.9,7.7,18.1,12.2,26.7
			c0.2,0.4,0.4,0.8,0.5,1.2c2.1,4.7,10.1,4.6,12.3,0c6.9-14.4,13.7-28.8,20.6-43.3c3.9-8.2-8.4-15.5-12.3-7.2
			c-6.9,14.4-13.7,28.8-20.6,43.3c4.1,0,8.2,0,12.3,0c-10.2-22.5-20.5-45.1-30.7-67.6c-23.6-51.9-47.2-103.8-70.8-155.7
			c-26.2-57.7-52.5-115.5-78.7-173.2c-18.2-40-36.4-80-54.6-120.1c-2-4.5-4.1-9-6.1-13.4c-0.5-1.2-1-2.4-1.6-3.5
			c-1.3-2.5,1.2,0.6,0.5,2.5c1-2.5,0-7.3,0-9.9c0-6.8,0-13.5,0-20.3c0-14.6,0-29.3,0-43.9c0-2.7,0-5.4,0-8
			C88,150,73.8,150,73.8,159.2L73.8,159.2z"/>
	</g>
</g>
<g>
	<g>
		<path class="st2" d="M325.8,783c17.4-7.2,34.8-14.3,52.2-21.5c40.4-16.6,80.8-33.3,121.2-49.9c46.9-19.3,93.8-38.6,140.6-57.9
			c35.9-14.8,71.8-29.5,107.7-44.3c8.6-3.5,17.1-7.1,25.7-10.6c2.6-1.1,5.8-2,7.3-4.5c1.9-3.1,2.4-7.6,3.4-11.1
			c1.6-5.8,3.3-11.6,4.9-17.4c0.9-3.1,1.8-6.2,2.7-9.4c2.5-8.8-11.2-12.6-13.7-3.8c-3.4,12-6.9,24.1-10.3,36.1c1.7-1.7,3.3-3.3,5-5
			c-15,6.2-30,12.3-45,18.5c-35.8,14.8-71.7,29.5-107.5,44.3c-43.3,17.8-86.6,35.7-130,53.5c-37.6,15.5-75.1,30.9-112.7,46.4
			c-18.2,7.5-36.4,14.9-54.5,22.4c-0.3,0.1-0.5,0.2-0.8,0.3c-3.6,1.5-6,4.7-5,8.8C317.9,781.4,322.2,784.4,325.8,783L325.8,783z"/>
	</g>
</g>
<g>
	<g>
		<path class="st2" d="M430.8,45.7c8.9,18.1,17.7,36.2,26.6,54.3c21.3,43.5,42.5,86.9,63.8,130.4c25.7,52.6,51.4,105.1,77.1,157.7
			c22.1,45.2,44.2,90.4,66.3,135.5c7.3,15,14.7,30,22,45c3.4,7,6.5,14.6,10.5,21.4c0.2,0.3,0.3,0.6,0.5,0.9c0-2.4,0-4.8,0-7.2
			c-6.7,13.6-13.3,27.1-20,40.7c-2.4,4.9,1.8,13,8,10.5c10.4-4.3,21.1-8.2,31.4-12.9c5.2-2.4,6.5-8.4,8.7-13.3
			c3.1-7.2,6.3-14.3,9.4-21.5c2.1-4.7,5.4-9.9,3.4-14.9c-0.2-0.5-0.5-1-0.7-1.5c-1.6-3.3-3.2-6.6-4.7-9.9
			c-6.9-14.6-13.9-29.1-20.8-43.7c-10.8-22.7-21.6-45.4-32.4-68.1c-13.2-27.7-26.4-55.4-39.5-83.1c-14.3-30-28.6-60.1-42.8-90.1
			c-13.9-29.2-27.8-58.5-41.7-87.7c-12.1-25.5-24.2-51-36.4-76.4c-8.9-18.7-17.8-37.5-26.7-56.2c-4.3-9-8.2-18.3-12.9-27.1
			c-0.2-0.4-0.4-0.8-0.6-1.2c-3.9-8.3-16.2-1.1-12.3,7.2c8.6,18.1,17.2,36.2,25.8,54.3c20.7,43.5,41.3,86.9,62,130.4
			c25,52.5,50,105.1,75,157.6c21.5,45.3,43.1,90.6,64.6,135.8c7.1,15,14.2,29.9,21.3,44.9c3.3,7,6.2,14.5,10.1,21.2
			c0.2,0.3,0.3,0.6,0.5,0.9c0-2.4,0-4.8,0-7.2c-5.7,13.1-11.5,26.2-17.2,39.3c1.4-1.1,2.8-2.2,4.3-3.3c-10.5,4.3-20.9,8.6-31.4,12.9
			c2.7,3.5,5.4,7,8,10.5c5.3-10.7,10.6-21.5,15.8-32.2c2.4-4.9,6.4-10.2,4.2-15.7c-0.2-0.4-0.4-0.7-0.5-1.1
			c-3.9-8.3-8.1-16.5-12.1-24.8c-19.9-40.7-39.8-81.4-59.8-122.2c-27.4-56-54.8-112-82.1-167.9c-24.9-50.8-49.7-101.6-74.6-152.5
			c-8.4-17.1-16.7-34.2-25.1-51.3c-4-8.1-7.6-16.5-11.9-24.4c-0.2-0.3-0.3-0.7-0.5-1.1C439.1,30.3,426.8,37.5,430.8,45.7L430.8,45.7
			z"/>
	</g>
</g>
<g>
	<g>
		<path class="st2" d="M221.1,265.8c-0.4-34.6,9.1-68.4,27.3-97.8c4.8-7.7-7.3-14.7-12.1-7.1c-19.5,31.4-29.6,67.9-29.2,104.9
			C207.2,274.8,221.2,274.9,221.1,265.8L221.1,265.8z"/>
	</g>
</g>
<g>
	<g>
		<path class="st2" d="M252.4,222.8c0.1-14.5,5.8-28,16.1-38.1c6.4-6.3-3.5-16.3-9.9-9.9c-12.9,12.7-20.1,30-20.2,48
			C238.3,231.9,252.3,231.9,252.4,222.8L252.4,222.8z"/>
	</g>
</g>
<g>
	<g>
		<path class="st2" d="M588.5,582c18.7-14,30.1-34.9,31.4-58.3c0.5-9-13.5-9-14,0c-1,18-10,35.4-24.5,46.2c-3.1,2.3-4.5,6-2.5,9.6
			C580.7,582.5,585.5,584.3,588.5,582L588.5,582z"/>
	</g>
</g>
<g>
	<path class="st3" d="M138.4,179.7c0,0-95.5-6.5-83.1,58.6s47.7,51.6,47.7,51.6l0.7-10.8c0,0-29.6-20-25.1-48.8
		c2.3-15.2,16.8-15.2,34.4-23c16-7.2,30.4,13.1,33.9,0S138.4,179.7,138.4,179.7z"/>
	<g>
		<path class="st2" d="M138.4,172.7c-8.2-0.5-16.5-0.1-24.7,0.8c-15.5,1.7-31.8,5.2-45,14c-15.3,10.3-23.2,26.9-21.3,45.4
			c2.2,21.1,10,47.2,28.8,59.5c7.9,5.2,19.5,7.7,28.6,4.3c3.1-1.2,4.9-3.4,5.1-6.8c0.3-3.9,1.5-8.8,0.5-12.7c-0.6-2.3-2.3-3.4-4-4.7
			c-1.3-1,0.8,0.7-0.2-0.2c-0.8-0.6-1.6-1.3-2.4-2c-9-7.8-17.2-18.4-18.5-30.7c-0.7-6.3-0.1-12.9,5.8-16.3c6.8-4,15-5.7,22.2-8.7
			c7.1-2.9,12.1-1.5,18.9,1.4c5.2,2.2,11.1,4.3,16.3,0.8c7.5-5.1,6.8-17.2,4.3-24.8c-2-6.3-5.3-12.2-9.5-17.2c-5.7-7-15.6,3-9.9,9.9
			c0.6,0.7-1-1.4-0.2-0.2c0.6,0.8,1.2,1.6,1.7,2.5c1.5,2.4,2.9,4.9,3.9,7.5c1.1,3,2,6.3,1.5,9.5c-0.4,2.7-1.5,2.2,0.5,1.1
			c1.2-0.7,2.3,0.2,0.6-0.5c-4.9-2.1-10.2-4.4-15.4-5.4c-8.4-1.5-14.6,1.3-22.3,4.2c-12.4,4.6-27.4,8-31.5,22.5
			c-3.8,13.6,0.9,28.8,8.8,40.1c5.2,7.3,11.6,14.1,19,19.2c-1.2-2-2.3-4-3.5-6.1c-0.2,3.6-0.5,7.2-0.7,10.8c1.7-2.3,3.4-4.5,5.1-6.8
			c-0.5,0.2-1,0.4-1.4,0.4c-0.5,0.1-1,0.2-1.5,0.3c-1.5,0.4,1.6,0-0.8,0.1c-0.9,0-1.7,0.1-2.6,0.1c-0.8,0-3.8-0.4-1.8-0.1
			c-1.1-0.2-2.2-0.4-3.3-0.7c-0.7-0.2-3.5-1.3-2.4-0.8c-16.1-7.4-22.4-29.7-25.4-46.6c-2.6-14.7,1.9-28,13.3-35.9
			c6-4.1,11.7-6.5,18.5-8.5c6.2-1.8,13.8-3.3,19-3.9c8.5-1,17.2-1.5,25.7-0.9C147.4,187.4,147.3,173.3,138.4,172.7z"/>
	</g>
</g>
<g>
	<path class="st3" d="M169.4,243.7c0,0-95.5-6.5-83.1,58.6s47.7,51.6,47.7,51.6l0.7-10.8c0,0-29.6-20-25.1-48.8
		c2.3-15.2,16.8-15.2,34.4-23c16-7.2,30.4,13.1,33.9,0C181.4,258.1,169.4,243.7,169.4,243.7z"/>
	<g>
		<path class="st2" d="M169.4,236.7c-8.2-0.5-16.5-0.1-24.7,0.8c-15.5,1.7-31.8,5.2-45,14c-15.3,10.3-23.2,26.9-21.3,45.4
			c2.2,21.1,10,47.2,28.8,59.5c7.9,5.2,19.5,7.7,28.6,4.3c3.1-1.2,4.9-3.4,5.1-6.8c0.3-3.9,1.5-8.8,0.5-12.7c-0.6-2.3-2.3-3.4-4-4.7
			c-1.3-1,0.8,0.7-0.2-0.2c-0.8-0.6-1.6-1.3-2.4-2c-9-7.8-17.2-18.4-18.5-30.7c-0.7-6.3-0.1-12.9,5.8-16.3c6.8-4,15-5.7,22.2-8.7
			c7.1-2.9,12.1-1.5,18.9,1.4c5.2,2.2,11.1,4.3,16.3,0.8c7.5-5.1,6.8-17.2,4.3-24.8c-2-6.3-5.3-12.2-9.5-17.2c-5.7-7-15.6,3-9.9,9.9
			c0.6,0.7-1-1.4-0.2-0.2c0.6,0.8,1.2,1.6,1.7,2.5c1.5,2.4,2.9,4.9,3.9,7.5c1.1,3,2,6.3,1.5,9.5c-0.4,2.7-1.5,2.2,0.5,1.1
			c1.2-0.7,2.3,0.2,0.6-0.5c-4.9-2.1-10.2-4.4-15.4-5.4c-8.4-1.5-14.6,1.3-22.3,4.2c-12.4,4.6-27.4,8-31.5,22.5
			c-3.8,13.6,0.9,28.8,8.8,40.1c5.2,7.3,11.6,14.1,19,19.2c-1.2-2-2.3-4-3.5-6.1c-0.2,3.6-0.5,7.2-0.7,10.8c1.7-2.3,3.4-4.5,5.1-6.8
			c-0.5,0.2-1,0.4-1.4,0.4c-0.5,0.1-1,0.2-1.5,0.3c-1.5,0.4,1.6,0-0.8,0.1c-0.9,0-1.7,0.1-2.6,0.1c-0.8,0-3.8-0.4-1.8-0.1
			c-1.1-0.2-2.2-0.4-3.3-0.7c-0.7-0.2-3.5-1.3-2.4-0.8c-16.1-7.4-22.4-29.7-25.4-46.6c-2.6-14.7,1.9-28,13.3-35.9
			c6-4.1,11.7-6.5,18.5-8.5c6.2-1.8,13.8-3.3,19-3.9c8.5-1,17.2-1.5,25.7-0.9C178.5,251.3,178.4,237.3,169.4,236.7z"/>
	</g>
</g>
<g>
	<path class="st3" d="M198.2,315c0,0-95.5-6.5-83.1,58.6s47.7,51.6,47.7,51.6l0.7-10.8c0,0-29.6-20-25.1-48.8
		c2.3-15.2,16.8-15.2,34.4-23c16-7.2,30.4,13.1,33.9,0C210.2,329.5,198.2,315,198.2,315z"/>
	<g>
		<path class="st2" d="M198.2,308c-8.2-0.5-16.5-0.1-24.7,0.8c-15.5,1.7-31.8,5.2-45,14c-15.3,10.3-23.2,26.9-21.3,45.4
			c2.2,21.1,10,47.2,28.8,59.5c7.9,5.2,19.5,7.7,28.6,4.3c3.1-1.2,4.9-3.4,5.1-6.8c0.3-3.9,1.5-8.8,0.5-12.7c-0.6-2.3-2.3-3.4-4-4.7
			c-1.3-1,0.8,0.7-0.2-0.2c-0.8-0.6-1.6-1.3-2.4-2c-9-7.8-17.2-18.4-18.5-30.7c-0.7-6.3-0.1-12.9,5.8-16.3c6.8-4,15-5.7,22.2-8.7
			c7.1-2.9,12.1-1.5,18.9,1.4c5.2,2.2,11.1,4.3,16.3,0.8c7.5-5.1,6.8-17.2,4.3-24.8c-2-6.3-5.3-12.2-9.5-17.2c-5.7-7-15.6,3-9.9,9.9
			c0.6,0.7-1-1.4-0.2-0.2c0.6,0.8,1.2,1.6,1.7,2.5c1.5,2.4,2.9,4.9,3.9,7.5c1.1,3,2,6.3,1.5,9.5c-0.4,2.7-1.5,2.2,0.5,1.1
			c1.2-0.7,2.3,0.2,0.6-0.5c-4.9-2.1-10.2-4.4-15.4-5.4c-8.4-1.5-14.6,1.3-22.3,4.2c-12.4,4.6-27.4,8-31.5,22.5
			c-3.8,13.6,0.9,28.8,8.8,40.1c5.2,7.3,11.6,14.1,19,19.2c-1.2-2-2.3-4-3.5-6.1c-0.2,3.6-0.5,7.2-0.7,10.8c1.7-2.3,3.4-4.5,5.1-6.8
			c-0.5,0.2-1,0.4-1.4,0.4c-0.5,0.1-1,0.2-1.5,0.3c-1.5,0.4,1.6,0-0.8,0.1c-0.9,0-1.7,0.1-2.6,0.1c-0.8,0-3.8-0.4-1.8-0.1
			c-1.1-0.2-2.2-0.4-3.3-0.7c-0.7-0.2-3.5-1.3-2.4-0.8c-16.1-7.4-22.4-29.7-25.4-46.6c-2.6-14.7,1.9-28,13.3-35.9
			c6-4.1,11.7-6.5,18.5-8.5c6.2-1.8,13.8-3.3,19-3.9c8.5-1,17.2-1.5,25.7-0.9C207.2,322.6,207.1,308.6,198.2,308z"/>
	</g>
</g>
<g>
	<path class="st3" d="M226.7,383.7c0,0-95.5-6.5-83.1,58.6s47.7,51.6,47.7,51.6l0.7-10.8c0,0-29.6-20-25.1-48.8
		c2.3-15.2,16.8-15.2,34.4-23c16-7.2,30.4,13.1,33.9,0C238.7,398.1,226.7,383.7,226.7,383.7z"/>
	<g>
		<path class="st2" d="M226.7,376.7c-8.2-0.5-16.5-0.1-24.7,0.8c-15.5,1.7-31.8,5.2-45,14c-15.3,10.3-23.2,26.9-21.3,45.4
			c2.2,21.1,10,47.2,28.8,59.5c7.9,5.2,19.5,7.7,28.6,4.3c3.1-1.2,4.9-3.4,5.1-6.8c0.3-3.9,1.5-8.8,0.5-12.7c-0.6-2.3-2.3-3.4-4-4.7
			c-1.3-1,0.8,0.7-0.2-0.2c-0.8-0.6-1.6-1.3-2.4-2c-9-7.8-17.2-18.4-18.5-30.7c-0.7-6.3-0.1-12.9,5.8-16.3c6.8-4,15-5.7,22.2-8.7
			c7.1-2.9,12.1-1.5,18.9,1.4c5.2,2.2,11.1,4.3,16.3,0.8c7.5-5.1,6.8-17.2,4.3-24.8c-2-6.3-5.3-12.2-9.5-17.2c-5.7-7-15.6,3-9.9,9.9
			c0.6,0.7-1-1.4-0.2-0.2c0.6,0.8,1.2,1.6,1.7,2.5c1.5,2.4,2.9,4.9,3.9,7.5c1.1,3,2,6.3,1.5,9.5c-0.4,2.7-1.5,2.2,0.5,1.1
			c1.2-0.7,2.3,0.2,0.6-0.5c-4.9-2.1-10.2-4.4-15.4-5.4c-8.4-1.5-14.6,1.3-22.3,4.2c-12.4,4.6-27.4,8-31.5,22.5
			c-3.8,13.6,0.9,28.8,8.8,40.1c5.2,7.3,11.6,14.1,19,19.2c-1.2-2-2.3-4-3.5-6.1c-0.2,3.6-0.5,7.2-0.7,10.8c1.7-2.3,3.4-4.5,5.1-6.8
			c-0.5,0.2-1,0.4-1.4,0.4c-0.5,0.1-1,0.2-1.5,0.3c-1.5,0.4,1.6,0-0.8,0.1c-0.9,0-1.7,0.1-2.6,0.1c-0.8,0-3.8-0.4-1.8-0.1
			c-1.1-0.2-2.2-0.4-3.3-0.7c-0.7-0.2-3.5-1.3-2.4-0.8c-16.1-7.4-22.4-29.7-25.4-46.6c-2.6-14.7,1.9-28,13.3-35.9
			c6-4.1,11.7-6.5,18.5-8.5c6.2-1.8,13.8-3.3,19-3.9c8.5-1,17.2-1.5,25.7-0.9C235.7,391.3,235.7,377.3,226.7,376.7z"/>
	</g>
</g>
<g>
	<path class="st3" d="M254.6,449.5c0,0-95.5-6.5-83.1,58.6s47.7,51.6,47.7,51.6l0.7-10.8c0,0-29.6-20-25.1-48.8
		c2.3-15.2,16.8-15.2,34.4-23c16-7.2,30.4,13.1,33.9,0S254.6,449.5,254.6,449.5z"/>
	<g>
		<path class="st2" d="M254.6,442.5c-8.2-0.5-16.5-0.1-24.7,0.8c-15.5,1.7-31.8,5.2-45,14c-15.3,10.3-23.2,26.9-21.3,45.4
			c2.2,21.1,10,47.2,28.8,59.5c7.9,5.2,19.5,7.7,28.6,4.3c3.1-1.2,4.9-3.4,5.1-6.8c0.3-3.9,1.5-8.8,0.5-12.7c-0.6-2.3-2.3-3.4-4-4.7
			c-1.3-1,0.8,0.7-0.2-0.2c-0.8-0.6-1.6-1.3-2.4-2c-9-7.8-17.2-18.4-18.5-30.7c-0.7-6.3-0.1-12.9,5.8-16.3c6.8-4,15-5.7,22.2-8.7
			c7.1-2.9,12.1-1.5,18.9,1.4c5.2,2.2,11.1,4.3,16.3,0.8c7.5-5.1,6.8-17.2,4.3-24.8c-2-6.3-5.3-12.2-9.5-17.2c-5.7-7-15.6,3-9.9,9.9
			c0.6,0.7-1-1.4-0.2-0.2c0.6,0.8,1.2,1.6,1.7,2.5c1.5,2.4,2.9,4.9,3.9,7.5c1.1,3,2,6.3,1.5,9.5c-0.4,2.7-1.5,2.2,0.5,1.1
			c1.2-0.7,2.3,0.2,0.6-0.5c-4.9-2.1-10.2-4.4-15.4-5.4c-8.4-1.5-14.6,1.3-22.3,4.2c-12.4,4.6-27.4,8-31.5,22.5
			c-3.8,13.6,0.9,28.8,8.8,40.1c5.2,7.3,11.6,14.1,19,19.2c-1.2-2-2.3-4-3.5-6.1c-0.2,3.6-0.5,7.2-0.7,10.8c1.7-2.3,3.4-4.5,5.1-6.8
			c-0.5,0.2-1,0.4-1.4,0.4c-0.5,0.1-1,0.2-1.5,0.3c-1.5,0.4,1.6,0-0.8,0.1c-0.9,0-1.7,0.1-2.6,0.1c-0.8,0-3.8-0.4-1.8-0.1
			c-1.1-0.2-2.2-0.4-3.3-0.7c-0.7-0.2-3.5-1.3-2.4-0.8c-16.1-7.4-22.4-29.7-25.4-46.6c-2.6-14.7,1.9-28,13.3-35.9
			c6-4.1,11.7-6.5,18.5-8.5c6.2-1.8,13.8-3.3,19-3.9c8.5-1,17.2-1.5,25.7-0.9C263.6,457.1,263.5,443.1,254.6,442.5z"/>
	</g>
</g>
<g>
	<path class="st3" d="M291.5,509.3c0,0-95.5-6.5-83.1,58.6s47.7,51.6,47.7,51.6l0.7-10.8c0,0-29.6-20-25.1-48.8
		c2.3-15.2,16.8-15.2,34.4-23c16-7.2,30.4,13.1,33.9,0C303.5,523.8,291.5,509.3,291.5,509.3z"/>
	<g>
		<path class="st2" d="M291.5,502.3c-8.2-0.5-16.5-0.1-24.7,0.8c-15.5,1.7-31.8,5.2-45,14c-15.3,10.3-23.2,26.9-21.3,45.4
			c2.2,21.1,10,47.2,28.8,59.5c7.9,5.2,19.5,7.7,28.6,4.3c3.1-1.2,4.9-3.4,5.1-6.8c0.3-3.9,1.5-8.8,0.5-12.7c-0.6-2.3-2.3-3.4-4-4.7
			c-1.3-1,0.8,0.7-0.2-0.2c-0.8-0.6-1.6-1.3-2.4-2c-9-7.8-17.2-18.4-18.5-30.7c-0.7-6.3-0.1-12.9,5.8-16.3c6.8-4,15-5.7,22.2-8.7
			c7.1-2.9,12.1-1.5,18.9,1.4c5.2,2.2,11.1,4.3,16.3,0.8c7.5-5.1,6.8-17.2,4.3-24.8c-2-6.3-5.3-12.2-9.5-17.2c-5.7-7-15.6,3-9.9,9.9
			c0.6,0.7-1-1.4-0.2-0.2c0.6,0.8,1.2,1.6,1.7,2.5c1.5,2.4,2.9,4.9,3.9,7.5c1.1,3,2,6.3,1.5,9.5c-0.4,2.7-1.5,2.2,0.5,1.1
			c1.2-0.7,2.3,0.2,0.6-0.5c-4.9-2.1-10.2-4.4-15.4-5.4c-8.4-1.5-14.6,1.3-22.3,4.2c-12.4,4.6-27.4,8-31.5,22.5
			c-3.8,13.6,0.9,28.8,8.8,40.1c5.2,7.3,11.6,14.1,19,19.2c-1.2-2-2.3-4-3.5-6.1c-0.2,3.6-0.5,7.2-0.7,10.8c1.7-2.3,3.4-4.5,5.1-6.8
			c-0.5,0.2-1,0.4-1.4,0.4c-0.5,0.1-1,0.2-1.5,0.3c-1.5,0.4,1.6,0-0.8,0.1c-0.9,0-1.7,0.1-2.6,0.1c-0.8,0-3.8-0.4-1.8-0.1
			c-1.1-0.2-2.2-0.4-3.3-0.7c-0.7-0.2-3.5-1.3-2.4-0.8c-16.1-7.4-22.4-29.7-25.4-46.6c-2.6-14.7,1.9-28,13.3-35.9
			c6-4.1,11.7-6.5,18.5-8.5c6.2-1.8,13.8-3.3,19-3.9c8.5-1,17.2-1.5,25.7-0.9C300.5,517,300.5,502.9,291.5,502.3z"/>
	</g>
</g>
<g>
	<path class="st3" d="M320.1,578c0,0-95.5-6.5-83.1,58.6s47.7,51.6,47.7,51.6l0.7-10.8c0,0-29.6-20-25.1-48.8
		c2.3-15.2,16.8-15.2,34.4-23c16-7.2,30.4,13.1,33.9,0C332.1,592.4,320.1,578,320.1,578z"/>
	<g>
		<path class="st2" d="M320.1,571c-8.2-0.5-16.5-0.1-24.7,0.8c-15.5,1.7-31.8,5.2-45,14c-15.3,10.3-23.2,26.9-21.3,45.4
			c2.2,21.1,10,47.2,28.8,59.5c7.9,5.2,19.5,7.7,28.6,4.3c3.1-1.2,4.9-3.4,5.1-6.8c0.3-3.9,1.5-8.8,0.5-12.7c-0.6-2.3-2.3-3.4-4-4.7
			c-1.3-1,0.8,0.7-0.2-0.2c-0.8-0.6-1.6-1.3-2.4-2c-9-7.8-17.2-18.4-18.5-30.7c-0.7-6.3-0.1-12.9,5.8-16.3c6.8-4,15-5.7,22.2-8.7
			c7.1-2.9,12.1-1.5,18.9,1.4c5.2,2.2,11.1,4.3,16.3,0.8c7.5-5.1,6.8-17.2,4.3-24.8c-2-6.3-5.3-12.2-9.5-17.2c-5.7-7-15.6,3-9.9,9.9
			c0.6,0.7-1-1.4-0.2-0.2c0.6,0.8,1.2,1.6,1.7,2.5c1.5,2.4,2.9,4.9,3.9,7.5c1.1,3,2,6.3,1.5,9.5c-0.4,2.7-1.5,2.2,0.5,1.1
			c1.2-0.7,2.3,0.2,0.6-0.5c-4.9-2.1-10.2-4.4-15.4-5.4c-8.4-1.5-14.6,1.3-22.3,4.2c-12.4,4.6-27.4,8-31.5,22.5
			c-3.8,13.6,0.9,28.8,8.8,40.1c5.2,7.3,11.6,14.1,19,19.2c-1.2-2-2.3-4-3.5-6.1c-0.2,3.6-0.5,7.2-0.7,10.8c1.7-2.3,3.4-4.5,5.1-6.8
			c-0.5,0.2-1,0.4-1.4,0.4c-0.5,0.1-1,0.2-1.5,0.3c-1.5,0.4,1.6,0-0.8,0.1c-0.9,0-1.7,0.1-2.6,0.1c-0.8,0-3.8-0.4-1.8-0.1
			c-1.1-0.2-2.2-0.4-3.3-0.7c-0.7-0.2-3.5-1.3-2.4-0.8c-16.1-7.4-22.4-29.7-25.4-46.6c-2.6-14.7,1.9-28,13.3-35.9
			c6-4.1,11.7-6.5,18.5-8.5c6.2-1.8,13.8-3.3,19-3.9c8.5-1,17.2-1.5,25.7-0.9C329.1,585.6,329,571.6,320.1,571z"/>
	</g>
</g>
<g>
	<path class="st3" d="M347.9,643.8c0,0-95.5-6.5-83.1,58.6c12.3,65.1,47.7,51.6,47.7,51.6l0.7-10.8c0,0-29.6-20-25.1-48.8
		c2.3-15.2,16.8-15.2,34.4-23c16-7.2,30.4,13.1,33.9,0C359.9,658.2,347.9,643.8,347.9,643.8z"/>
	<g>
		<path class="st2" d="M347.9,636.8c-8.2-0.5-16.5-0.1-24.7,0.8c-15.5,1.7-31.8,5.2-45,14C263,661.9,255.1,678.5,257,697
			c2.2,21.1,10,47.2,28.8,59.5c7.9,5.2,19.5,7.7,28.6,4.3c3.1-1.2,4.9-3.4,5.1-6.8c0.3-3.9,1.5-8.8,0.5-12.7c-0.6-2.3-2.3-3.4-4-4.7
			c-1.3-1,0.8,0.7-0.2-0.2c-0.8-0.6-1.6-1.3-2.4-2c-9-7.8-17.2-18.4-18.5-30.7c-0.7-6.3-0.1-12.9,5.8-16.3c6.8-4,15-5.7,22.2-8.7
			c7.1-2.9,12.1-1.5,18.9,1.4c5.2,2.2,11.1,4.3,16.3,0.8c7.5-5.1,6.8-17.2,4.3-24.8c-2-6.3-5.3-12.2-9.5-17.2c-5.7-7-15.6,3-9.9,9.9
			c0.6,0.7-1-1.4-0.2-0.2c0.6,0.8,1.2,1.6,1.7,2.5c1.5,2.4,2.9,4.9,3.9,7.5c1.1,3,2,6.3,1.5,9.5c-0.4,2.7-1.5,2.2,0.5,1.1
			c1.2-0.7,2.3,0.2,0.6-0.5c-4.9-2.1-10.2-4.4-15.4-5.4c-8.4-1.5-14.6,1.3-22.3,4.2c-12.4,4.6-27.4,8-31.5,22.5
			c-3.8,13.6,0.9,28.8,8.8,40.1c5.2,7.3,11.6,14.1,19,19.2c-1.2-2-2.3-4-3.5-6.1c-0.2,3.6-0.5,7.2-0.7,10.8c1.7-2.3,3.4-4.5,5.1-6.8
			c-0.5,0.2-1,0.4-1.4,0.4c-0.5,0.1-1,0.2-1.5,0.3c-1.5,0.4,1.6,0-0.8,0.1c-0.9,0-1.7,0.1-2.6,0.1c-0.8,0-3.8-0.4-1.8-0.1
			c-1.1-0.2-2.2-0.4-3.3-0.7c-0.7-0.2-3.5-1.3-2.4-0.8c-16.1-7.4-22.4-29.7-25.4-46.6c-2.6-14.7,1.9-28,13.3-35.9
			c6-4.1,11.7-6.5,18.5-8.5c6.2-1.8,13.8-3.3,19-3.9c8.5-1,17.2-1.5,25.7-0.9C356.9,651.4,356.9,637.4,347.9,636.8z"/>
	</g>
</g>
</svg>
