<?xml version="1.0" encoding="utf-8"?>
<!-- Generator: Adobe Illustrator 22.1.0, SVG Export Plug-In . SVG Version: 6.00 Build 0)  -->
<svg version="1.1" id="Capa_3" xmlns="http://www.w3.org/2000/svg" xmlns:xlink="http://www.w3.org/1999/xlink" x="0px" y="0px"
	 viewBox="0 0 893.6 817.3" style="enable-background:new 0 0 893.6 817.3;" xml:space="preserve">
<style type="text/css">
	.st0{opacity:0.5;fill:#DAE6EA;}
	.st1{clip-path:url(#SVGID_2_);}
	.st2{fill:#FFFFFF;}
</style>
<g>
</g>
<path class="st0" d="M59,563.2c8.6-59.2,71.8-99.2,81.4-158.2c9.4-57.5-28.8-110.4-61.2-158.8S18,135.1,45.3,83.7
	C65,46.8,107.9,28.8,148.9,20.6c79.7-16,174.2,0.5,219.8,67.9c21.6,32,30.2,72.3,56.4,100.7c30.9,33.4,80,43.2,125.5,42.8
	c45.5-0.3,91.1-8.8,136.4-3.9c58.5,6.4,114.1,36,152,80.9c37.9,45,57.7,104.8,54.2,163.5c-1.3,21.4-5.7,42.9-16.3,61.5
	c-24,42.2-75.2,61.4-123.5,66s-97.3-2.2-145.5,3.3c-48.2,5.5-98.9,27-120.5,70.4c-10.3,20.8-13,44.7-23.6,65.4
	c-12.8,24.9-36.1,43-61,55.8c-71.1,36.4-155.5,23.4-230.7-3.5C87.1,761.2,43.1,672,59,563.2z"/>
<g>
	<defs>
		<path id="SVGID_1_" d="M59,563.2c8.6-59.2,71.8-99.2,81.4-158.2c9.4-57.5-28.8-110.4-61.2-158.8S18,135.1,45.3,83.7
			C65,46.8,107.9,28.8,148.9,20.6c79.7-16,174.2,0.5,219.8,67.9c21.6,32,30.2,72.3,56.4,100.7c30.9,33.4,80,43.2,125.5,42.8
			c45.5-0.3,91.1-8.8,136.4-3.9c58.5,6.4,114.1,36,152,80.9c37.9,45,57.7,104.8,54.2,163.5c-1.3,21.4-5.7,42.9-16.3,61.5
			c-24,42.2-75.2,61.4-123.5,66s-97.3-2.2-145.5,3.3c-48.2,5.5-98.9,27-120.5,70.4c-10.3,20.8-13,44.7-23.6,65.4
			c-12.8,24.9-36.1,43-61,55.8c-71.1,36.4-155.5,23.4-230.7-3.5C87.1,761.2,43.1,672,59,563.2z"/>
	</defs>
	<clipPath id="SVGID_2_">
		<use xlink:href="#SVGID_1_"  style="overflow:visible;"/>
	</clipPath>
	<g class="st1">
		<g>
			<g>
				<path class="st2" d="M145.3,653.5c33.5-4.2,67.3-6.8,100.8-11.3c7.9-1.1,15.9-2.2,23.8-3.5c6.7-1.1,14.8-1.6,20.9-4.8
					c11.4-6,10.1-23.1,5.7-33.2c-5.6-12.8-18.9-20.6-32.8-17.7c0.8,1.4,1.6,2.8,2.4,4.2c9.2-11.1,11-26.5,5.3-39.7
					c-5.4-12.6-17.1-21.6-29.9-25.9c-13-4.4-28.4-3.8-37.5,7.7c-8.3,10.6-9.2,25.4-9.4,38.3c1.6-0.2,3.3-0.4,4.9-0.7
					c-3.6-16.3-23.7-21.4-36.9-13.2c-17.8,11.1-19.2,33.4-16.5,52.1c1.5-0.6,3-1.3,4.6-1.9c-9.3-14.8-31.5-7.4-36.5,7.2
					c-3.9,11.3-3.4,26.7,5.5,35.7C126.4,653.5,136.3,654.5,145.3,653.5c3.2-0.4,3.2-5.4,0-5c-8.1,0.9-17.2,0.4-22.9-6.2
					c-4.3-5-5.6-11.9-5.4-18.4c0.1-5,1-10.9,3.6-15.3c5.1-8.3,20-11.5,25.7-2.3c1.6,2.6,4.9,0.8,4.6-1.9
					c-2.2-15.4-1.6-33.4,11.3-44.3c10.4-8.7,29.1-7.1,32.5,8c0.6,2.8,4.9,2.1,4.9-0.7c0.2-10.6,0.7-22.1,5.9-31.6
					c6.9-12.4,20.7-13.9,33.2-10.1c11.5,3.5,22.1,11.2,27.4,22.2c5.6,11.3,4.6,25.8-3.6,35.6c-1.6,1.9-0.1,4.7,2.4,4.2
					c17.7-3.6,30.3,13.3,29.5,29.6c-0.3,4.9-1.6,9.7-6.2,12.2c-3.4,1.7-7.4,2.2-11.1,2.8c-8.6,1.6-17.3,2.9-26,4.1
					c-35.2,5-70.6,7.6-105.9,12C142.2,648.9,142.1,653.9,145.3,653.5z"/>
			</g>
		</g>
		<g>
			<g>
				<path class="st2" d="M56.7,271.8c33.5-4.2,67.3-6.8,100.8-11.3c7.9-1.1,15.9-2.2,23.8-3.5c6.7-1.1,14.8-1.6,20.9-4.8
					c11.4-6,10.1-23.1,5.7-33.2c-5.6-12.8-18.9-20.6-32.8-17.7c0.8,1.4,1.6,2.8,2.4,4.2c9.2-11.1,11-26.5,5.3-39.7
					c-5.4-12.6-17.1-21.6-29.9-25.9c-13-4.4-28.4-3.8-37.5,7.7c-8.3,10.6-9.2,25.4-9.4,38.3c1.6-0.2,3.3-0.4,4.9-0.7
					c-3.6-16.3-23.7-21.4-36.9-13.2C56.3,183,54.9,205.3,57.5,224c1.5-0.6,3-1.3,4.6-1.9c-9.3-14.8-31.5-7.4-36.5,7.2
					c-3.9,11.3-3.4,26.7,5.5,35.7C37.8,271.7,47.6,272.8,56.7,271.8c3.2-0.4,3.2-5.4,0-5c-8.1,0.9-17.2,0.4-22.9-6.2
					c-4.3-5-5.6-11.9-5.4-18.4c0.1-5,1-10.9,3.6-15.3c5.1-8.3,20-11.5,25.7-2.3c1.6,2.6,4.9,0.8,4.6-1.9
					c-2.2-15.4-1.6-33.4,11.3-44.3c10.4-8.7,29.1-7.1,32.5,8c0.6,2.8,4.9,2.1,4.9-0.7c0.2-10.6,0.7-22.1,5.9-31.6
					c6.9-12.4,20.7-13.9,33.2-10.1c11.5,3.5,22.1,11.2,27.4,22.2c5.6,11.3,4.6,25.8-3.6,35.6c-1.6,1.9-0.1,4.7,2.4,4.2
					c17.7-3.6,30.3,13.3,29.5,29.6c-0.3,4.9-1.6,9.7-6.2,12.2c-3.4,1.7-7.4,2.2-11.1,2.8c-8.6,1.6-17.3,2.9-26,4.1
					c-35.2,5-70.6,7.6-105.9,12C53.5,267.1,53.5,272.1,56.7,271.8z"/>
			</g>
		</g>
		<g>
			<g>
				<path class="st2" d="M499.5,343.8c5.2-7.2-24.6-9.4-28.2-8.7c0.8,1.4,1.6,2.8,2.4,4.2c9-10.8,10.9-26,5.5-38.9
					c-5.4-13-17.2-22.3-30.3-26.6c-13-4.3-28.4-3.7-37.5,7.9c-8.3,10.6-9.1,25.4-9.3,38.3c1.6-0.2,3.3-0.4,4.9-0.7
					c-3.7-16.3-23.7-21.4-36.9-13.1c-17.7,11.1-19.1,33.5-16.4,52.1c1.5-0.6,3-1.3,4.6-1.9c-8.8-14-30.6-8.1-36,5.9
					c-4,10.4-4.1,24.4,2.4,33.9c9.8,14.1,27.8,9.9,42.3,8.3c19.8-2.2,39.6-4,59.4-5.8c8.4-0.8,16.8-1.5,25.1-2.4
					c2.2-0.2,9.4,0.2,10.6-2.3c1.4-2.9-2.9-5.4-4.3-2.5c1.5-3.1,1.8-0.6,0.7-0.9c-0.2-0.1-1.1,0.2-1.3,0.2c-1.9,0.3-3.8,0.4-5.7,0.6
					c-6.1,0.6-12.2,1.2-18.3,1.8c-16.3,1.5-32.6,3-49,4.7c-8,0.8-16,1.6-24,2.6c-7.3,0.9-14.9,2.4-22.2,0
					c-11.1-3.7-14.2-15.7-13.3-26.2c0.4-4.4,1.3-9.5,3.8-13.2c5.3-7.9,19.7-10.8,25.4-1.8c1.6,2.5,5,0.8,4.6-1.9
					c-2.2-15.4-1.7-33.4,11.1-44.3c10.4-8.8,29.1-7.2,32.5,7.9c0.6,2.8,4.9,2.1,4.9-0.7c0.1-10.6,0.6-22.1,5.8-31.6
					c6.8-12.4,20.6-14,33.2-10.2c11.5,3.4,22.1,11.2,27.5,22.1c5.6,11.3,4.7,25.7-3.5,35.6c-1.6,1.9-0.1,4.7,2.4,4.2
					c4.2-0.9,9,0,13.2,0.8c2.1,0.4,4.1,0.8,6.1,1.4c0.8,0.2,1.6,0.7,2.4,0.8c0.3,0.1,0.6,0.2,0.9,0.4c1,0.7,1,0,0-2.1
					C493.3,343.9,497.6,346.4,499.5,343.8L499.5,343.8z"/>
			</g>
		</g>
		<g>
			<g>
				<path class="st2" d="M464.2,415.9c-8.4,2.8-13.5,10.6-14.2,19.4c-0.7,9.3,4.3,17.6,11.5,23.1c9.4,7.1,21.3,9,32.8,8.9
					c14.5-0.2,29.2-2,43.7-3.1c29.8-2.3,59.6-4.6,89.4-7c13.7-1.1,27.5-1.6,41.1-3.3c8.5-1.1,18.2-3.3,23.8-10.4
					c6.6-8.3,4.2-19.4-2.6-26.7c-9.3-10-24.1-10.2-36.8-9.3c0.2,1.6,0.4,3.3,0.7,4.9c6.4-2.4,9.8-10,11.6-16.1
					c3-10.1,2.3-21.2-2.2-30.7c-5.3-11.3-15.2-20.5-27.9-22c-13.9-1.7-27.9,3.4-41.2,6.7c1.1,0.8,2.1,1.6,3.2,2.4
					c1.8-14.2-6.7-30.7-18.1-38.9c-14.2-10.2-39.3-6.1-46.1,11.3c-4.4,11.3-2.4,24.2-2.6,36c1.6-0.2,3.3-0.4,4.9-0.7
					c-6.6-25.1-40.3-24.7-57.6-11.7c-16.7,12.7-20.5,34.6-18.2,54.4c0.6,5.4,1.5,10.8,3.1,16c1,3.1,5.8,1.8,4.8-1.3
					c-8.7-28.1-2.3-70.3,33.8-73c12.2-0.9,25.8,4,29.2,16.9c0.7,2.8,4.9,2.1,4.9-0.7c0.2-11.1-1.9-23.5,2.2-34.1
					c4.1-10.6,18.7-15.7,29.3-13.3c15.8,3.5,27.3,23.5,25.3,39.1c-0.2,1.7,1.8,2.8,3.2,2.4c11.1-2.7,22.3-6.7,33.8-6.8
					c12.6-0.2,22.5,6.5,28.4,17.5c4.4,8.1,5.6,17.8,3.5,26.8c-1.1,4.7-3.6,13.1-8.7,15.1c-2.5,0.9-2.4,5.1,0.7,4.9
					c10.4-0.7,22.8-1.2,31.2,5.9c7.3,6.2,10.3,17.4,2.1,24.2c-6.7,5.6-16.7,6.4-25.1,7c-11.9,0.9-23.8,1.9-35.8,2.8
					c-23.5,1.8-47,3.7-70.5,5.5c-11.9,0.9-23.8,1.9-35.8,2.8c-11.2,0.9-22.7,2.4-34,1.3c-10.9-1.1-22.6-5.8-28-15.9
					c-4.7-8.8-1.8-21.8,8.3-25.2C468.6,419.7,467.3,414.8,464.2,415.9z"/>
			</g>
		</g>
		<g>
			<g>
				<path class="st2" d="M715.3,613c-3.5-16,2.1-33.4,14.7-43.9c12.8-10.7,31.5-13,46.6-6.3c1.8,0.8,3.6-0.2,3.8-2.2
					c1.5-14.7,4.7-31.2,15.8-41.9c9.5-9.2,26.3-12.9,36.9-3.4c1.7,1.5,4,0.4,4.3-1.8c1.2-11.7,10.2-21,20.9-25.2
					c11.8-4.6,24.8-2.2,35.8,3.4c19,9.8,31.5,28.5,39.3,47.9c3.7,9.2,6.5,19.1,6.8,29c0.1,4.2-0.2,8.3-1.5,12.3
					c-0.5,1.6-1,3.5-2,4.9c0.6-0.8-0.7,0.5-0.1,0.1c-4.2,3.4-12,4.1-17.1,5.1c-24.4,4.8-49.4,7.2-74.1,9.6
					c-28.2,2.8-56.5,5.1-84.8,7.2c-15.9,1.2-31.8,2.3-47.7,3.3c-3.2,0.2-3.2,5.2,0,5c45.4-2.8,90.8-6.2,136-10.8
					c25.6-2.6,51.8-4.8,76.9-10.5c4.7-1.1,12.1-2.1,15.2-6.4c4.7-6.6,4.7-17.1,3.8-24.7c-1.1-9.9-4.1-19.5-8-28.6
					c-9.5-22.1-25-42.9-48.4-51.2c-12.3-4.4-25.8-4.2-37.3,2.2c-10.3,5.7-17.6,15.5-18.8,27.4c1.4-0.6,2.8-1.2,4.3-1.8
					c-11.5-10.4-29.1-8.3-40.9,0.7c-14.6,11.2-18.6,30.8-20.4,48.1c1.3-0.7,2.5-1.4,3.8-2.2c-16.8-7.4-37-5.4-51.5,6.1
					c-14.7,11.7-21.1,31.6-17.1,49.7C711.2,617.5,716,616.1,715.3,613z"/>
			</g>
		</g>
		<g>
			<g>
				<path class="st2" d="M730.8,369.3c16-3.5,32.6,2.1,43.3,14.3c1.5,1.6,4.3,0.3,4.3-1.8c-0.2-15.8,9.2-30.2,23.7-36.6
					c2.9-1.3,0.4-5.6-2.5-4.3c-16,7-26.4,23.4-26.2,40.9c1.4-0.6,2.8-1.2,4.3-1.8c-12-13.6-30.6-19.5-48.2-15.6
					C726.3,365.2,727.6,370,730.8,369.3L730.8,369.3z"/>
			</g>
		</g>
		<g>
			<g>
				<path class="st2" d="M82.2,474.6c22.4-2.4,50.8-4.7,65.7,16.1c1,1.3,3.5,1.9,4.3,0c8-18.7,24.5-32.5,44.4-36.8
					c3.1-0.7,1.8-5.5-1.3-4.8c-21,4.6-38.9,19.3-47.4,39.1c1.4,0,2.9,0,4.3,0c-16.1-22.5-45.5-21.2-70-18.6
					C79,469.9,79,474.9,82.2,474.6L82.2,474.6z"/>
			</g>
		</g>
		<g>
			<g>
				<path class="st2" d="M171.3,430.3c8.1-2.7,16.6-2.7,24.6,0c4.3,1.5,8.4,3.7,11.9,6.7c2.6,2.2,4.6,5.7,7.7,7.2
					c6.7,3.2,9.5-5.6,12.5-9.7c5.6-7.4,13.6-12.6,22.5-15c3.1-0.8,1.8-5.7-1.3-4.8c-7.6,2-14.6,5.8-20.3,11.2
					c-2.8,2.7-5.3,5.8-7.3,9.1c-1.1,1.9-2.4,5.1-4.8,4c-1.6-0.7-3.2-3.4-4.5-4.6c-11.3-10.4-28-13.8-42.5-8.9
					C166.9,426.5,168.2,431.4,171.3,430.3L171.3,430.3z"/>
			</g>
		</g>
		<g>
			<g>
				<path class="st2" d="M181.9,77.1c9.3-2.2,19-1.9,28.2,0.9c4.6,1.4,9,3.3,13,5.8c4.1,2.5,7.1,6.1,10.9,8.8
					c6.4,4.5,10.1-5.9,13-9.9c6.1-8.4,13.9-15.5,22.7-21c2.7-1.7,0.2-6-2.5-4.3c-7.8,4.9-14.8,10.8-20.7,17.9
					c-2.8,3.4-5,7.3-7.7,10.8c-2.1,2.8-2.4,1.7-4.8-0.5c-1.5-1.3-3-2.5-4.6-3.7c-14-10.2-32.1-13.6-48.8-9.7
					C177.4,73,178.8,77.8,181.9,77.1L181.9,77.1z"/>
			</g>
		</g>
		<g>
			<g>
				<path class="st2" d="M676,539.7c3.2,0,3.2-5,0-5C672.8,534.7,672.8,539.7,676,539.7L676,539.7z"/>
			</g>
		</g>
		<g>
			<g>
				<path class="st2" d="M698.5,518.7c3.2,0,3.2-5,0-5C695.3,513.7,695.3,518.7,698.5,518.7L698.5,518.7z"/>
			</g>
		</g>
		<g>
			<g>
				<path class="st2" d="M694,538.2c3.2,0,3.2-5,0-5C690.8,533.2,690.8,538.2,694,538.2L694,538.2z"/>
			</g>
		</g>
		<g>
			<g>
				<path class="st2" d="M757,478.2c3.2,0,3.2-5,0-5C753.8,473.2,753.8,478.2,757,478.2L757,478.2z"/>
			</g>
		</g>
		<g>
			<g>
				<path class="st2" d="M674.5,287.8c3.2,0,3.2-5,0-5C671.3,282.8,671.3,287.8,674.5,287.8L674.5,287.8z"/>
			</g>
		</g>
		<g>
			<g>
				<path class="st2" d="M704.5,287.8c3.2,0,3.2-5,0-5C701.3,282.8,701.3,287.8,704.5,287.8L704.5,287.8z"/>
			</g>
		</g>
		<g>
			<g>
				<path class="st2" d="M691,319.3c3.2,0,3.2-5,0-5C687.8,314.3,687.8,319.3,691,319.3L691,319.3z"/>
			</g>
		</g>
		<g>
			<g>
				<path class="st2" d="M305.5,515.7c3.2,0,3.2-5,0-5C302.3,510.7,302.3,515.7,305.5,515.7L305.5,515.7z"/>
			</g>
		</g>
		<g>
			<g>
				<path class="st2" d="M314.5,457.3c3.2,0,3.2-5,0-5C311.3,452.3,311.3,457.3,314.5,457.3L314.5,457.3z"/>
			</g>
		</g>
		<g>
			<g>
				<path class="st2" d="M326.5,491.7c3.2,0,3.2-5,0-5C323.3,486.7,323.3,491.7,326.5,491.7L326.5,491.7z"/>
			</g>
		</g>
		<g>
			<g>
				<path class="st2" d="M229,136.3c3.2,0,3.2-5,0-5C225.8,131.3,225.8,136.3,229,136.3L229,136.3z"/>
			</g>
		</g>
		<g>
			<g>
				<path class="st2" d="M272.5,130.3c3.2,0,3.2-5,0-5C269.3,125.3,269.3,130.3,272.5,130.3L272.5,130.3z"/>
			</g>
		</g>
		<g>
			<g>
				<path class="st2" d="M253,146.8c3.2,0,3.2-5,0-5C249.8,141.8,249.8,146.8,253,146.8L253,146.8z"/>
			</g>
		</g>
		<g>
			<g>
				<path class="st2" d="M290.5,107.8c3.2,0,3.2-5,0-5C287.3,102.8,287.3,107.8,290.5,107.8L290.5,107.8z"/>
			</g>
		</g>
		<g>
			<g>
				<path class="st2" d="M91,70.3c3.2,0,3.2-5,0-5C87.8,65.3,87.8,70.3,91,70.3L91,70.3z"/>
			</g>
		</g>
		<g>
			<g>
				<path class="st2" d="M73,122.8c3.2,0,3.2-5,0-5C69.8,117.8,69.8,122.8,73,122.8L73,122.8z"/>
			</g>
		</g>
		<g>
			<g>
				<path class="st2" d="M107.5,112.3c3.2,0,3.2-5,0-5C104.3,107.3,104.3,112.3,107.5,112.3L107.5,112.3z"/>
			</g>
		</g>
		<g>
			<g>
				<path class="st2" d="M169,352.3c3.2,0,3.2-5,0-5C165.8,347.3,165.8,352.3,169,352.3L169,352.3z"/>
			</g>
		</g>
		<g>
			<g>
				<path class="st2" d="M152.5,332.8c3.2,0,3.2-5,0-5C149.3,327.8,149.3,332.8,152.5,332.8L152.5,332.8z"/>
			</g>
		</g>
		<g>
			<g>
				<path class="st2" d="M169,328.3c3.2,0,3.2-5,0-5C165.8,323.3,165.8,328.3,169,328.3L169,328.3z"/>
			</g>
		</g>
		<g>
			<g>
				<path class="st2" d="M95.5,587.7c3.2,0,3.2-5,0-5C92.3,582.7,92.3,587.7,95.5,587.7L95.5,587.7z"/>
			</g>
		</g>
		<g>
			<g>
				<path class="st2" d="M91,629.7c3.2,0,3.2-5,0-5C87.8,624.7,87.8,629.7,91,629.7L91,629.7z"/>
			</g>
		</g>
		<g>
			<g>
				<path class="st2" d="M103,601.2c3.2,0,3.2-5,0-5C99.8,596.2,99.8,601.2,103,601.2L103,601.2z"/>
			</g>
		</g>
		<g>
			<g>
				<path class="st2" d="M146.5,688.2c3.2,0,3.2-5,0-5C143.3,683.2,143.3,688.2,146.5,688.2L146.5,688.2z"/>
			</g>
		</g>
		<g>
			<g>
				<path class="st2" d="M226,730.2c3.2,0,3.2-5,0-5C222.8,725.2,222.8,730.2,226,730.2L226,730.2z"/>
			</g>
		</g>
		<g>
			<g>
				<path class="st2" d="M248.5,788.7c3.2,0,3.2-5,0-5C245.3,783.7,245.3,788.7,248.5,788.7L248.5,788.7z"/>
			</g>
		</g>
		<g>
			<g>
				<path class="st2" d="M295,778.2c3.2,0,3.2-5,0-5C291.8,773.2,291.8,778.2,295,778.2L295,778.2z"/>
			</g>
		</g>
		<g>
			<g>
				<path class="st2" d="M413.5,634.2c3.2,0,3.2-5,0-5C410.3,629.2,410.3,634.2,413.5,634.2L413.5,634.2z"/>
			</g>
		</g>
		<g>
			<g>
				<path class="st2" d="M425.5,677.7c3.2,0,3.2-5,0-5C422.3,672.7,422.3,677.7,425.5,677.7L425.5,677.7z"/>
			</g>
		</g>
		<g>
			<g>
				<path class="st2" d="M515.5,623.7c3.2,0,3.2-5,0-5C512.3,618.7,512.3,623.7,515.5,623.7L515.5,623.7z"/>
			</g>
		</g>
		<g>
			<g>
				<path class="st2" d="M512.5,605.7c3.2,0,3.2-5,0-5C509.3,600.7,509.3,605.7,512.5,605.7L512.5,605.7z"/>
			</g>
		</g>
		<g>
			<g>
				<path class="st2" d="M542.5,592.2c3.2,0,3.2-5,0-5C539.3,587.2,539.3,592.2,542.5,592.2L542.5,592.2z"/>
			</g>
		</g>
		<g>
			<g>
				<path class="st2" d="M351.1,225c3.2,0,3.2-5,0-5C347.9,220,347.9,225,351.1,225L351.1,225z"/>
			</g>
		</g>
		<g>
			<g>
				<path class="st2" d="M278.5,284.8c3.2,0,3.2-5,0-5C275.3,279.8,275.3,284.8,278.5,284.8L278.5,284.8z"/>
			</g>
		</g>
		<g>
			<g>
				<path class="st2" d="M271,251.8c3.2,0,3.2-5,0-5C267.8,246.8,267.8,251.8,271,251.8L271,251.8z"/>
			</g>
		</g>
		<g>
			<g>
				<path class="st2" d="M311.5,229.3c3.2,0,3.2-5,0-5C308.3,224.3,308.3,229.3,311.5,229.3L311.5,229.3z"/>
			</g>
		</g>
		<g>
			<g>
				<path class="st2" d="M523.6,373.9c2.7-5.1,5.4-9.3,11.3-10.5c5.2-1.1,10.9-0.5,16.1-0.5c3.2,0,3.2-5,0-5
					c-6.6,0-14.1-0.8-20.4,1.5c-5.6,2.1-8.6,6.9-11.3,12C517.8,374.2,522.1,376.7,523.6,373.9L523.6,373.9z"/>
			</g>
		</g>
		<g>
			<g>
				<path class="st2" d="M245.7,584.5c11.4-1.9,21.3,6.5,21.6,18c0.1,3.2,5.1,3.2,5,0c-0.4-15-13.3-25.3-27.9-22.8
					C241.2,580.2,242.6,585,245.7,584.5L245.7,584.5z"/>
			</g>
		</g>
		<g>
			<g>
				<path class="st2" d="M102.7,198.8c4.9-8.7,15.1-11.3,23.7-6.2c2.8,1.7,5.3-2.7,2.5-4.3c-10.9-6.5-24.3-3-30.5,8
					C96.8,199.1,101.1,201.6,102.7,198.8L102.7,198.8z"/>
			</g>
		</g>
		<g>
			<g>
				<path class="st2" d="M832.3,529.8c-0.6-12.2,11.9-16.6,22.1-16.1c3.2,0.2,3.2-4.8,0-5c-12.9-0.7-27.8,6.2-27.1,21.1
					C827.5,533,832.5,533,832.3,529.8L832.3,529.8z"/>
			</g>
		</g>
		<g>
			<g>
				<path class="st2" d="M282.3,357c3.2,0,3.2-5,0-5C279.1,352,279.1,357,282.3,357L282.3,357z"/>
			</g>
		</g>
		<g>
			<g>
				<path class="st2" d="M315.7,423c3.2,0,3.2-5,0-5C312.4,418,312.4,423,315.7,423L315.7,423z"/>
			</g>
		</g>
		<g>
			<g>
				<path class="st2" d="M334.3,443.6c3.2,0,3.2-5,0-5C331.1,438.6,331.1,443.6,334.3,443.6L334.3,443.6z"/>
			</g>
		</g>
		<g>
			<g>
				<path class="st2" d="M345,437c3.2,0,3.2-5,0-5C341.8,432,341.8,437,345,437L345,437z"/>
			</g>
		</g>
		<g>
			<g>
				<path class="st2" d="M365.7,431c3.2,0,3.2-5,0-5C362.4,426,362.4,431,365.7,431L365.7,431z"/>
			</g>
		</g>
		<g>
			<g>
				<path class="st2" d="M383.7,445.6c3.2,0,3.2-5,0-5C380.4,440.6,380.4,445.6,383.7,445.6L383.7,445.6z"/>
			</g>
		</g>
		<g>
			<g>
				<path class="st2" d="M509.7,279.6c3.2,0,3.2-5,0-5C506.4,274.6,506.4,279.6,509.7,279.6L509.7,279.6z"/>
			</g>
		</g>
		<g>
			<g>
				<path class="st2" d="M544.3,277c3.2,0,3.2-5,0-5C541.1,272,541.1,277,544.3,277L544.3,277z"/>
			</g>
		</g>
		<g>
			<g>
				<path class="st2" d="M547.7,264.3c3.2,0,3.2-5,0-5C544.4,259.3,544.4,264.3,547.7,264.3L547.7,264.3z"/>
			</g>
		</g>
		<g>
			<g>
				<path class="st2" d="M522.3,293.6c3.2,0,3.2-5,0-5C519.1,288.6,519.1,293.6,522.3,293.6L522.3,293.6z"/>
			</g>
		</g>
		<g>
			<g>
				<path class="st2" d="M527.7,314.3c3.2,0,3.2-5,0-5C524.4,309.3,524.4,314.3,527.7,314.3L527.7,314.3z"/>
			</g>
		</g>
		<g>
			<g>
				<path class="st2" d="M403,217c3.2,0,3.2-5,0-5C399.8,212,399.8,217,403,217L403,217z"/>
			</g>
		</g>
		<g>
			<g>
				<path class="st2" d="M425,262.3c3.2,0,3.2-5,0-5C421.8,257.3,421.8,262.3,425,262.3L425,262.3z"/>
			</g>
		</g>
		<g>
			<g>
				<path class="st2" d="M515.7,249c3.2,0,3.2-5,0-5C512.4,244,512.4,249,515.7,249L515.7,249z"/>
			</g>
		</g>
		<g>
			<g>
				<path class="st2" d="M497,216.3c3.2,0,3.2-5,0-5C493.8,211.3,493.8,216.3,497,216.3L497,216.3z"/>
			</g>
		</g>
		<g>
			<g>
				<path class="st2" d="M352.3,153c3.2,0,3.2-5,0-5C349.1,148,349.1,153,352.3,153L352.3,153z"/>
			</g>
		</g>
		<g>
			<g>
				<path class="st2" d="M369,139.6c3.2,0,3.2-5,0-5C365.8,134.6,365.8,139.6,369,139.6L369,139.6z"/>
			</g>
		</g>
		<g>
			<g>
				<path class="st2" d="M364.3,119c3.2,0,3.2-5,0-5C361.1,114,361.1,119,364.3,119L364.3,119z"/>
			</g>
		</g>
		<g>
			<g>
				<path class="st2" d="M349,117c3.2,0,3.2-5,0-5C345.8,112,345.8,117,349,117L349,117z"/>
			</g>
		</g>
		<g>
			<g>
				<path class="st2" d="M218.3,283.6c3.2,0,3.2-5,0-5C215.1,278.6,215.1,283.6,218.3,283.6L218.3,283.6z"/>
			</g>
		</g>
		<g>
			<g>
				<path class="st2" d="M139,273c3.2,0,3.2-5,0-5C135.8,268,135.8,273,139,273L139,273z"/>
			</g>
		</g>
		<g>
			<g>
				<path class="st2" d="M584.3,578.3c3.2,0,3.2-5,0-5C581.1,573.3,581.1,578.3,584.3,578.3L584.3,578.3z"/>
			</g>
		</g>
		<g>
			<g>
				<path class="st2" d="M569,507.6c3.2,0,3.2-5,0-5C565.8,502.6,565.8,507.6,569,507.6L569,507.6z"/>
			</g>
		</g>
		<g>
			<g>
				<path class="st2" d="M501.7,505.6c3.2,0,3.2-5,0-5C498.4,500.6,498.4,505.6,501.7,505.6L501.7,505.6z"/>
			</g>
		</g>
		<g>
			<g>
				<path class="st2" d="M474.3,514.3c3.2,0,3.2-5,0-5C471.1,509.3,471.1,514.3,474.3,514.3L474.3,514.3z"/>
			</g>
		</g>
		<g>
			<g>
				<path class="st2" d="M484.3,526.3c3.2,0,3.2-5,0-5C481.1,521.3,481.1,526.3,484.3,526.3L484.3,526.3z"/>
			</g>
		</g>
		<g>
			<g>
				<path class="st2" d="M411,492.3c3.2,0,3.2-5,0-5C407.8,487.3,407.8,492.3,411,492.3L411,492.3z"/>
			</g>
		</g>
		<g>
			<g>
				<path class="st2" d="M412.3,533.6c3.2,0,3.2-5,0-5C409.1,528.6,409.1,533.6,412.3,533.6L412.3,533.6z"/>
			</g>
		</g>
		<g>
			<g>
				<path class="st2" d="M405,557c3.2,0,3.2-5,0-5C401.8,552,401.8,557,405,557L405,557z"/>
			</g>
		</g>
		<g>
			<g>
				<path class="st2" d="M90.3,759c119.5,0,239,0,358.4,0c33.9,0,67.7,0,101.6,0c3.2,0,3.2-5,0-5c-119.5,0-239,0-358.4,0
					c-33.9,0-67.7,0-101.6,0C87.1,754,87.1,759,90.3,759L90.3,759z"/>
			</g>
		</g>
		<g>
			<g>
				<path class="st2" d="M177,777c34.4,0,68.9,0,103.3,0c3.2,0,3.2-5,0-5c-34.4,0-68.9,0-103.3,0C173.8,772,173.8,777,177,777
					L177,777z"/>
			</g>
		</g>
		<g>
			<g>
				<path class="st2" d="M242.3,787.6c17.3,0,34.7,0,52,0c3.2,0,3.2-5,0-5c-17.3,0-34.7,0-52,0C239.1,782.6,239.1,787.6,242.3,787.6
					L242.3,787.6z"/>
			</g>
		</g>
		<g>
			<g>
				<path class="st2" d="M294.3,777c20,0,40,0,60,0c3.2,0,3.2-5,0-5c-20,0-40,0-60,0C291.1,772,291.1,777,294.3,777L294.3,777z"/>
			</g>
		</g>
		<g>
			<g>
				<path class="st2" d="M326.3,792.3c11.3,0,22.7,0,34,0c3.2,0,3.2-5,0-5c-11.3,0-22.7,0-34,0C323.1,787.3,323.1,792.3,326.3,792.3
					L326.3,792.3z"/>
			</g>
		</g>
		<g>
			<g>
				<path class="st2" d="M398.3,783c17.6,0,35.1,0,52.7,0c3.2,0,3.2-5,0-5c-17.6,0-35.1,0-52.7,0C395.1,778,395.1,783,398.3,783
					L398.3,783z"/>
			</g>
		</g>
		<g>
			<g>
				<path class="st2" d="M275,806.3c17.6,0,35.1,0,52.7,0c3.2,0,3.2-5,0-5c-17.6,0-35.1,0-52.7,0C271.8,801.3,271.8,806.3,275,806.3
					L275,806.3z"/>
			</g>
		</g>
		<g>
			<g>
				<path class="st2" d="M137,773c5.3,0,10.7,0,16,0c3.2,0,3.2-5,0-5c-5.3,0-10.7,0-16,0C133.8,768,133.8,773,137,773L137,773z"/>
			</g>
		</g>
		<g>
			<g>
				<path class="st2" d="M245.9,686.5c4.1-1.3,8-1.8,12.3-1.2c3.5,0.5,6.7,2.8,10.2,3.1c2.3,0.2,4-1.1,5.8-2.4
					c3.4-2.4,6.8-4.8,10.2-7.2c2.6-1.8,0.1-6.2-2.5-4.3c-2.9,2.1-5.8,4.1-8.7,6.2c-1.6,1.1-3.2,2.7-5.3,2.4
					c-1.4-0.2-3.2-1.3-4.5-1.7c-6.2-1.8-12.6-1.6-18.7,0.4C241.5,682.6,242.8,687.4,245.9,686.5L245.9,686.5z"/>
			</g>
		</g>
		<g>
			<g>
				<path class="st2" d="M292,699.3c2.8-2.7,6.6-6.5,10.9-6.7c2.7-0.1,4.6,2.3,7.3,1.1c2-0.8,2.5-2.8,3.3-4.6c1.7-4.1,4.7-6.5,9-7.4
					c3.1-0.6,1.8-5.5-1.3-4.8c-3.3,0.7-6.3,2.2-8.7,4.7c-1.5,1.6-3.6,6.9-4.9,7c-1.3,0.1-3.2-1-4.7-1c-1.6,0-3.2,0.5-4.7,1.1
					c-3.7,1.5-6.8,4.3-9.7,7C286.1,698.1,289.7,701.6,292,699.3L292,699.3z"/>
			</g>
		</g>
		<g>
			<g>
				<path class="st2" d="M114.9,712.5c6.1-2.2,12.7,0,15.9,5.7c0.5,0.9,1.8,1.6,2.8,1.1c5.9-2.4,12-3.9,18.4-4.4
					c3.2-0.2,3.2-5.2,0-5c-6.8,0.5-13.3,2-19.7,4.6c0.9,0.4,1.9,0.8,2.8,1.1c-4.3-7.5-13.4-11-21.6-8
					C110.6,708.7,111.9,713.6,114.9,712.5L114.9,712.5z"/>
			</g>
		</g>
		<g>
			<g>
				<path class="st2" d="M808.8,371.6c2.1-3.5,7.1-4.5,10.2-1.7c1.2,1.1,3,0.9,3.9-0.5c2.7-4.3,5.3-8.5,8-12.8
					c1.7-2.7-2.6-5.3-4.3-2.5c-2.7,4.3-5.3,8.5-8,12.8c1.3-0.2,2.6-0.3,3.9-0.5c-5.5-4.9-14.2-3.7-18,2.7
					C802.9,371.8,807.2,374.3,808.8,371.6L808.8,371.6z"/>
			</g>
		</g>
		<g>
			<g>
				<path class="st2" d="M146.7,110.1c4.4-0.8,8.9-0.5,13,1.1c3.9,1.5,6.1,4.3,9.4,6.5c1.7,1.1,3.4,1.1,5.1-0.1c1.4-1,1.9-3,3-4.2
					c1.8-1.9,4.1-2.5,6.6-2.5c3.2,0.1,3.2-4.9,0-5c-3.4-0.1-6.6,0.8-9.2,3c-0.9,0.8-2.2,3.6-2.9,4c-0.4,0.2-2.7-2.1-3.8-2.9
					c-6.6-4.8-14.8-6.3-22.7-4.8C142.2,105.9,143.6,110.7,146.7,110.1L146.7,110.1z"/>
			</g>
		</g>
		<g>
			<g>
				<path class="st2" d="M160.6,289.8c6.8-2,13.6-0.3,18.5,4.7c1.3,1.3,3.8,0.8,4.2-1.1c1.2-5.7,4.7-10.2,10.2-12.2
					c3-1.1,1.7-5.9-1.3-4.8c-7.1,2.6-12.2,8.2-13.7,15.7c1.4-0.4,2.8-0.7,4.2-1.1c-6.2-6.3-15-8.6-23.4-6
					C156.2,285.9,157.5,290.8,160.6,289.8L160.6,289.8z"/>
			</g>
		</g>
		<g>
			<g>
				<path class="st2" d="M396,714c3.2,0,3.2-5,0-5C392.8,709,392.8,714,396,714L396,714z"/>
			</g>
		</g>
	</g>
	<g class="st1">
		<g>
			<path class="st2" d="M787,423c3.2,0,3.2-5,0-5C783.8,418,783.8,423,787,423L787,423z"/>
		</g>
	</g>
	<g class="st1">
		<g>
			<path class="st2" d="M806,442c3.2,0,3.2-5,0-5C802.8,437,802.8,442,806,442L806,442z"/>
		</g>
	</g>
	<g class="st1">
		<g>
			<path class="st2" d="M834,415c3.2,0,3.2-5,0-5C830.8,410,830.8,415,834,415L834,415z"/>
		</g>
	</g>
	<g class="st1">
		<g>
			<path class="st2" d="M819,423c3.2,0,3.2-5,0-5C815.8,418,815.8,423,819,423L819,423z"/>
		</g>
	</g>
	<g class="st1">
		<g>
			<path class="st2" d="M863,449c3.2,0,3.2-5,0-5C859.8,444,859.8,449,863,449L863,449z"/>
		</g>
	</g>
	<g class="st1">
		<g>
			<path class="st2" d="M778,502c3.2,0,3.2-5,0-5C774.8,497,774.8,502,778,502L778,502z"/>
		</g>
	</g>
	<g class="st1">
		<g>
			<path class="st2" d="M767,532c3.2,0,3.2-5,0-5C763.8,527,763.8,532,767,532L767,532z"/>
		</g>
	</g>
	<g class="st1">
		<g>
			<path class="st2" d="M735,301c3.2,0,3.2-5,0-5C731.8,296,731.8,301,735,301L735,301z"/>
		</g>
	</g>
	<g class="st1">
		<g>
			<path class="st2" d="M784,312c3.2,0,3.2-5,0-5C780.8,307,780.8,312,784,312L784,312z"/>
		</g>
	</g>
	<g class="st1">
		<g>
			<path class="st2" d="M819,314c3.2,0,3.2-5,0-5C815.8,309,815.8,314,819,314L819,314z"/>
		</g>
	</g>
	<g class="st1">
		<g>
			<path class="st2" d="M680,394c3.2,0,3.2-5,0-5C676.8,389,676.8,394,680,394L680,394z"/>
		</g>
	</g>
	<g class="st1">
		<g>
			<path class="st2" d="M358,367.2c0.9-6.1,5.5-10.7,11.6-11.6c3.2-0.5,1.8-5.3-1.3-4.8c-7.6,1.1-14,7.4-15.1,15.1
				C352.7,369,357.6,370.4,358,367.2L358,367.2z"/>
		</g>
	</g>
</g>
</svg>
