<svg version="1.1" id="el_g5HHwln4w" xmlns="http://www.w3.org/2000/svg" xmlns:xlink="http://www.w3.org/1999/xlink" x="0px" y="0px" viewBox="0 0 800 800" style="enable-background:new 0 0 800 800;" xml:space="preserve"><style>@-webkit-keyframes kf_el_aTlgYPwdsk8_an_UAHHi1HOp{0%{-webkit-transform: translate(426.30567932128906px, 340.86582946777344px) rotate(0deg) translate(-426.30567932128906px, -340.86582946777344px);transform: translate(426.30567932128906px, 340.86582946777344px) rotate(0deg) translate(-426.30567932128906px, -340.86582946777344px);}51.11%{-webkit-transform: translate(426.30567932128906px, 340.86582946777344px) rotate(5deg) translate(-426.30567932128906px, -340.86582946777344px);transform: translate(426.30567932128906px, 340.86582946777344px) rotate(5deg) translate(-426.30567932128906px, -340.86582946777344px);}98.89%{-webkit-transform: translate(426.30567932128906px, 340.86582946777344px) rotate(0deg) translate(-426.30567932128906px, -340.86582946777344px);transform: translate(426.30567932128906px, 340.86582946777344px) rotate(0deg) translate(-426.30567932128906px, -340.86582946777344px);}100%{-webkit-transform: translate(426.30567932128906px, 340.86582946777344px) rotate(0deg) translate(-426.30567932128906px, -340.86582946777344px);transform: translate(426.30567932128906px, 340.86582946777344px) rotate(0deg) translate(-426.30567932128906px, -340.86582946777344px);}}@keyframes kf_el_aTlgYPwdsk8_an_UAHHi1HOp{0%{-webkit-transform: translate(426.30567932128906px, 340.86582946777344px) rotate(0deg) translate(-426.30567932128906px, -340.86582946777344px);transform: translate(426.30567932128906px, 340.86582946777344px) rotate(0deg) translate(-426.30567932128906px, -340.86582946777344px);}51.11%{-webkit-transform: translate(426.30567932128906px, 340.86582946777344px) rotate(5deg) translate(-426.30567932128906px, -340.86582946777344px);transform: translate(426.30567932128906px, 340.86582946777344px) rotate(5deg) translate(-426.30567932128906px, -340.86582946777344px);}98.89%{-webkit-transform: translate(426.30567932128906px, 340.86582946777344px) rotate(0deg) translate(-426.30567932128906px, -340.86582946777344px);transform: translate(426.30567932128906px, 340.86582946777344px) rotate(0deg) translate(-426.30567932128906px, -340.86582946777344px);}100%{-webkit-transform: translate(426.30567932128906px, 340.86582946777344px) rotate(0deg) translate(-426.30567932128906px, -340.86582946777344px);transform: translate(426.30567932128906px, 340.86582946777344px) rotate(0deg) translate(-426.30567932128906px, -340.86582946777344px);}}@-webkit-keyframes kf_el_bPcJzqy-bdQ_an_cwUmpxR0i{0%{-webkit-transform: translate(395.2908935546875px, 348.74720764160156px) rotate(0deg) translate(-395.2908935546875px, -348.74720764160156px);transform: translate(395.2908935546875px, 348.74720764160156px) rotate(0deg) translate(-395.2908935546875px, -348.74720764160156px);}51.11%{-webkit-transform: translate(395.2908935546875px, 348.74720764160156px) rotate(5deg) translate(-395.2908935546875px, -348.74720764160156px);transform: translate(395.2908935546875px, 348.74720764160156px) rotate(5deg) translate(-395.2908935546875px, -348.74720764160156px);}98.89%{-webkit-transform: translate(395.2908935546875px, 348.74720764160156px) rotate(0deg) translate(-395.2908935546875px, -348.74720764160156px);transform: translate(395.2908935546875px, 348.74720764160156px) rotate(0deg) translate(-395.2908935546875px, -348.74720764160156px);}100%{-webkit-transform: translate(395.2908935546875px, 348.74720764160156px) rotate(0deg) translate(-395.2908935546875px, -348.74720764160156px);transform: translate(395.2908935546875px, 348.74720764160156px) rotate(0deg) translate(-395.2908935546875px, -348.74720764160156px);}}@keyframes kf_el_bPcJzqy-bdQ_an_cwUmpxR0i{0%{-webkit-transform: translate(395.2908935546875px, 348.74720764160156px) rotate(0deg) translate(-395.2908935546875px, -348.74720764160156px);transform: translate(395.2908935546875px, 348.74720764160156px) rotate(0deg) translate(-395.2908935546875px, -348.74720764160156px);}51.11%{-webkit-transform: translate(395.2908935546875px, 348.74720764160156px) rotate(5deg) translate(-395.2908935546875px, -348.74720764160156px);transform: translate(395.2908935546875px, 348.74720764160156px) rotate(5deg) translate(-395.2908935546875px, -348.74720764160156px);}98.89%{-webkit-transform: translate(395.2908935546875px, 348.74720764160156px) rotate(0deg) translate(-395.2908935546875px, -348.74720764160156px);transform: translate(395.2908935546875px, 348.74720764160156px) rotate(0deg) translate(-395.2908935546875px, -348.74720764160156px);}100%{-webkit-transform: translate(395.2908935546875px, 348.74720764160156px) rotate(0deg) translate(-395.2908935546875px, -348.74720764160156px);transform: translate(395.2908935546875px, 348.74720764160156px) rotate(0deg) translate(-395.2908935546875px, -348.74720764160156px);}}@-webkit-keyframes kf_el_gVFsFdwsG7t_an_MBIpLJARD{1.11%{-webkit-transform: translate(454.0386962890625px, 387.19744873046875px) rotate(0deg) translate(-454.0386962890625px, -387.19744873046875px);transform: translate(454.0386962890625px, 387.19744873046875px) rotate(0deg) translate(-454.0386962890625px, -387.19744873046875px);}50%{-webkit-transform: translate(454.0386962890625px, 387.19744873046875px) rotate(-2deg) translate(-454.0386962890625px, -387.19744873046875px);transform: translate(454.0386962890625px, 387.19744873046875px) rotate(-2deg) translate(-454.0386962890625px, -387.19744873046875px);}98.89%{-webkit-transform: translate(454.0386962890625px, 387.19744873046875px) rotate(0deg) translate(-454.0386962890625px, -387.19744873046875px);transform: translate(454.0386962890625px, 387.19744873046875px) rotate(0deg) translate(-454.0386962890625px, -387.19744873046875px);}0%{-webkit-transform: translate(454.0386962890625px, 387.19744873046875px) rotate(0deg) translate(-454.0386962890625px, -387.19744873046875px);transform: translate(454.0386962890625px, 387.19744873046875px) rotate(0deg) translate(-454.0386962890625px, -387.19744873046875px);}100%{-webkit-transform: translate(454.0386962890625px, 387.19744873046875px) rotate(0deg) translate(-454.0386962890625px, -387.19744873046875px);transform: translate(454.0386962890625px, 387.19744873046875px) rotate(0deg) translate(-454.0386962890625px, -387.19744873046875px);}}@keyframes kf_el_gVFsFdwsG7t_an_MBIpLJARD{1.11%{-webkit-transform: translate(454.0386962890625px, 387.19744873046875px) rotate(0deg) translate(-454.0386962890625px, -387.19744873046875px);transform: translate(454.0386962890625px, 387.19744873046875px) rotate(0deg) translate(-454.0386962890625px, -387.19744873046875px);}50%{-webkit-transform: translate(454.0386962890625px, 387.19744873046875px) rotate(-2deg) translate(-454.0386962890625px, -387.19744873046875px);transform: translate(454.0386962890625px, 387.19744873046875px) rotate(-2deg) translate(-454.0386962890625px, -387.19744873046875px);}98.89%{-webkit-transform: translate(454.0386962890625px, 387.19744873046875px) rotate(0deg) translate(-454.0386962890625px, -387.19744873046875px);transform: translate(454.0386962890625px, 387.19744873046875px) rotate(0deg) translate(-454.0386962890625px, -387.19744873046875px);}0%{-webkit-transform: translate(454.0386962890625px, 387.19744873046875px) rotate(0deg) translate(-454.0386962890625px, -387.19744873046875px);transform: translate(454.0386962890625px, 387.19744873046875px) rotate(0deg) translate(-454.0386962890625px, -387.19744873046875px);}100%{-webkit-transform: translate(454.0386962890625px, 387.19744873046875px) rotate(0deg) translate(-454.0386962890625px, -387.19744873046875px);transform: translate(454.0386962890625px, 387.19744873046875px) rotate(0deg) translate(-454.0386962890625px, -387.19744873046875px);}}@-webkit-keyframes kf_el_UcgXbeYjrybS_an_JEdDAOxDb{1.11%{-webkit-transform: translate(362.48402404785156px, 419.20001220703125px) rotate(0deg) translate(-362.48402404785156px, -419.20001220703125px);transform: translate(362.48402404785156px, 419.20001220703125px) rotate(0deg) translate(-362.48402404785156px, -419.20001220703125px);}50%{-webkit-transform: translate(362.48402404785156px, 419.20001220703125px) rotate(3deg) translate(-362.48402404785156px, -419.20001220703125px);transform: translate(362.48402404785156px, 419.20001220703125px) rotate(3deg) translate(-362.48402404785156px, -419.20001220703125px);}100%{-webkit-transform: translate(362.48402404785156px, 419.20001220703125px) rotate(0deg) translate(-362.48402404785156px, -419.20001220703125px);transform: translate(362.48402404785156px, 419.20001220703125px) rotate(0deg) translate(-362.48402404785156px, -419.20001220703125px);}0%{-webkit-transform: translate(362.48402404785156px, 419.20001220703125px) rotate(0deg) translate(-362.48402404785156px, -419.20001220703125px);transform: translate(362.48402404785156px, 419.20001220703125px) rotate(0deg) translate(-362.48402404785156px, -419.20001220703125px);}}@keyframes kf_el_UcgXbeYjrybS_an_JEdDAOxDb{1.11%{-webkit-transform: translate(362.48402404785156px, 419.20001220703125px) rotate(0deg) translate(-362.48402404785156px, -419.20001220703125px);transform: translate(362.48402404785156px, 419.20001220703125px) rotate(0deg) translate(-362.48402404785156px, -419.20001220703125px);}50%{-webkit-transform: translate(362.48402404785156px, 419.20001220703125px) rotate(3deg) translate(-362.48402404785156px, -419.20001220703125px);transform: translate(362.48402404785156px, 419.20001220703125px) rotate(3deg) translate(-362.48402404785156px, -419.20001220703125px);}100%{-webkit-transform: translate(362.48402404785156px, 419.20001220703125px) rotate(0deg) translate(-362.48402404785156px, -419.20001220703125px);transform: translate(362.48402404785156px, 419.20001220703125px) rotate(0deg) translate(-362.48402404785156px, -419.20001220703125px);}0%{-webkit-transform: translate(362.48402404785156px, 419.20001220703125px) rotate(0deg) translate(-362.48402404785156px, -419.20001220703125px);transform: translate(362.48402404785156px, 419.20001220703125px) rotate(0deg) translate(-362.48402404785156px, -419.20001220703125px);}}@-webkit-keyframes kf_el_tyZ3c_XYhqX_an_oSMIz8kV4{2.22%{-webkit-transform: translate(418.5232238769531px, 391.6728210449219px) rotate(0deg) translate(-418.5232238769531px, -391.6728210449219px);transform: translate(418.5232238769531px, 391.6728210449219px) rotate(0deg) translate(-418.5232238769531px, -391.6728210449219px);}40%{-webkit-transform: translate(418.5232238769531px, 391.6728210449219px) rotate(4deg) translate(-418.5232238769531px, -391.6728210449219px);transform: translate(418.5232238769531px, 391.6728210449219px) rotate(4deg) translate(-418.5232238769531px, -391.6728210449219px);}96.67%{-webkit-transform: translate(418.5232238769531px, 391.6728210449219px) rotate(0deg) translate(-418.5232238769531px, -391.6728210449219px);transform: translate(418.5232238769531px, 391.6728210449219px) rotate(0deg) translate(-418.5232238769531px, -391.6728210449219px);}0%{-webkit-transform: translate(418.5232238769531px, 391.6728210449219px) rotate(0deg) translate(-418.5232238769531px, -391.6728210449219px);transform: translate(418.5232238769531px, 391.6728210449219px) rotate(0deg) translate(-418.5232238769531px, -391.6728210449219px);}100%{-webkit-transform: translate(418.5232238769531px, 391.6728210449219px) rotate(0deg) translate(-418.5232238769531px, -391.6728210449219px);transform: translate(418.5232238769531px, 391.6728210449219px) rotate(0deg) translate(-418.5232238769531px, -391.6728210449219px);}}@keyframes kf_el_tyZ3c_XYhqX_an_oSMIz8kV4{2.22%{-webkit-transform: translate(418.5232238769531px, 391.6728210449219px) rotate(0deg) translate(-418.5232238769531px, -391.6728210449219px);transform: translate(418.5232238769531px, 391.6728210449219px) rotate(0deg) translate(-418.5232238769531px, -391.6728210449219px);}40%{-webkit-transform: translate(418.5232238769531px, 391.6728210449219px) rotate(4deg) translate(-418.5232238769531px, -391.6728210449219px);transform: translate(418.5232238769531px, 391.6728210449219px) rotate(4deg) translate(-418.5232238769531px, -391.6728210449219px);}96.67%{-webkit-transform: translate(418.5232238769531px, 391.6728210449219px) rotate(0deg) translate(-418.5232238769531px, -391.6728210449219px);transform: translate(418.5232238769531px, 391.6728210449219px) rotate(0deg) translate(-418.5232238769531px, -391.6728210449219px);}0%{-webkit-transform: translate(418.5232238769531px, 391.6728210449219px) rotate(0deg) translate(-418.5232238769531px, -391.6728210449219px);transform: translate(418.5232238769531px, 391.6728210449219px) rotate(0deg) translate(-418.5232238769531px, -391.6728210449219px);}100%{-webkit-transform: translate(418.5232238769531px, 391.6728210449219px) rotate(0deg) translate(-418.5232238769531px, -391.6728210449219px);transform: translate(418.5232238769531px, 391.6728210449219px) rotate(0deg) translate(-418.5232238769531px, -391.6728210449219px);}}@-webkit-keyframes kf_el_3Y_XwhgNdiN_an_dfT5I0sgp{2.22%{-webkit-transform: translate(399.8369903564453px, 424.5000305175781px) rotate(0deg) translate(-399.8369903564453px, -424.5000305175781px);transform: translate(399.8369903564453px, 424.5000305175781px) rotate(0deg) translate(-399.8369903564453px, -424.5000305175781px);}50%{-webkit-transform: translate(399.8369903564453px, 424.5000305175781px) rotate(2deg) translate(-399.8369903564453px, -424.5000305175781px);transform: translate(399.8369903564453px, 424.5000305175781px) rotate(2deg) translate(-399.8369903564453px, -424.5000305175781px);}97.78%{-webkit-transform: translate(399.8369903564453px, 424.5000305175781px) rotate(0deg) translate(-399.8369903564453px, -424.5000305175781px);transform: translate(399.8369903564453px, 424.5000305175781px) rotate(0deg) translate(-399.8369903564453px, -424.5000305175781px);}0%{-webkit-transform: translate(399.8369903564453px, 424.5000305175781px) rotate(0deg) translate(-399.8369903564453px, -424.5000305175781px);transform: translate(399.8369903564453px, 424.5000305175781px) rotate(0deg) translate(-399.8369903564453px, -424.5000305175781px);}100%{-webkit-transform: translate(399.8369903564453px, 424.5000305175781px) rotate(0deg) translate(-399.8369903564453px, -424.5000305175781px);transform: translate(399.8369903564453px, 424.5000305175781px) rotate(0deg) translate(-399.8369903564453px, -424.5000305175781px);}}@keyframes kf_el_3Y_XwhgNdiN_an_dfT5I0sgp{2.22%{-webkit-transform: translate(399.8369903564453px, 424.5000305175781px) rotate(0deg) translate(-399.8369903564453px, -424.5000305175781px);transform: translate(399.8369903564453px, 424.5000305175781px) rotate(0deg) translate(-399.8369903564453px, -424.5000305175781px);}50%{-webkit-transform: translate(399.8369903564453px, 424.5000305175781px) rotate(2deg) translate(-399.8369903564453px, -424.5000305175781px);transform: translate(399.8369903564453px, 424.5000305175781px) rotate(2deg) translate(-399.8369903564453px, -424.5000305175781px);}97.78%{-webkit-transform: translate(399.8369903564453px, 424.5000305175781px) rotate(0deg) translate(-399.8369903564453px, -424.5000305175781px);transform: translate(399.8369903564453px, 424.5000305175781px) rotate(0deg) translate(-399.8369903564453px, -424.5000305175781px);}0%{-webkit-transform: translate(399.8369903564453px, 424.5000305175781px) rotate(0deg) translate(-399.8369903564453px, -424.5000305175781px);transform: translate(399.8369903564453px, 424.5000305175781px) rotate(0deg) translate(-399.8369903564453px, -424.5000305175781px);}100%{-webkit-transform: translate(399.8369903564453px, 424.5000305175781px) rotate(0deg) translate(-399.8369903564453px, -424.5000305175781px);transform: translate(399.8369903564453px, 424.5000305175781px) rotate(0deg) translate(-399.8369903564453px, -424.5000305175781px);}}@-webkit-keyframes kf_el_CSRs0ciGO9_an_-x-v4yzb4{0%{-webkit-transform: translate(386.8075942993164px, 5.468484878540039px) rotate(0deg) translate(-386.8075942993164px, -5.468484878540039px);transform: translate(386.8075942993164px, 5.468484878540039px) rotate(0deg) translate(-386.8075942993164px, -5.468484878540039px);}50%{-webkit-transform: translate(386.8075942993164px, 5.468484878540039px) rotate(5deg) translate(-386.8075942993164px, -5.468484878540039px);transform: translate(386.8075942993164px, 5.468484878540039px) rotate(5deg) translate(-386.8075942993164px, -5.468484878540039px);}100%{-webkit-transform: translate(386.8075942993164px, 5.468484878540039px) rotate(0deg) translate(-386.8075942993164px, -5.468484878540039px);transform: translate(386.8075942993164px, 5.468484878540039px) rotate(0deg) translate(-386.8075942993164px, -5.468484878540039px);}}@keyframes kf_el_CSRs0ciGO9_an_-x-v4yzb4{0%{-webkit-transform: translate(386.8075942993164px, 5.468484878540039px) rotate(0deg) translate(-386.8075942993164px, -5.468484878540039px);transform: translate(386.8075942993164px, 5.468484878540039px) rotate(0deg) translate(-386.8075942993164px, -5.468484878540039px);}50%{-webkit-transform: translate(386.8075942993164px, 5.468484878540039px) rotate(5deg) translate(-386.8075942993164px, -5.468484878540039px);transform: translate(386.8075942993164px, 5.468484878540039px) rotate(5deg) translate(-386.8075942993164px, -5.468484878540039px);}100%{-webkit-transform: translate(386.8075942993164px, 5.468484878540039px) rotate(0deg) translate(-386.8075942993164px, -5.468484878540039px);transform: translate(386.8075942993164px, 5.468484878540039px) rotate(0deg) translate(-386.8075942993164px, -5.468484878540039px);}}#el_g5HHwln4w *{-webkit-animation-duration: 3s;animation-duration: 3s;-webkit-animation-iteration-count: infinite;animation-iteration-count: infinite;-webkit-animation-timing-function: cubic-bezier(0, 0, 1, 1);animation-timing-function: cubic-bezier(0, 0, 1, 1);}#el_S_TYPILC3R{fill: #4A8093;}#el_yfwwA8Tzoz{fill: #FFFFFF;}#el_gLHWDLHZk8{fill: #FFFFFF;}#el_oNgSiai2ck{fill: #F3D16A;}#el_tFYhQCk_2V{fill: #69BAE8;}#el_KPSMNXsaoZ{fill: #F3D16A;}#el_5jiaXjitnV{fill: #F3D16A;}#el_82P5S1CTSs{fill: #101C30;}#el_sKrpNA8UTbE{fill: #101C30;}#el__hTDO6gojkV{fill: #101C30;}#el_MUHLGdvNUlG{fill: #101C30;}#el_K3x6O1rLRua{fill: #101C30;}#el_HLNkExVvjCo{fill: #101C30;}#el_S5_fPkY5IyY{fill: #101C30;}#el_nnz3FfSoaDp{fill: #101C30;}#el_TemjSscIcn9{fill: #101C30;}#el_85ZPbCDEwyX{fill: #101C30;}#el_Fhn9M8Y_mYC{fill: #101C30;}#el_hFRGG0d0Vc9{fill: #101C30;}#el_GMY9RAD45X_{fill: #101C30;}#el_UXdkvda_QEn{fill: #101C30;}#el_a0tDuTXjaJa{fill: #101C30;}#el_coCKEb6yeHB{fill: #101C30;}#el_Bprl-O4kRCH{fill: #101C30;}#el_KAVEMUUtPlL{fill: #101C30;}#el_vgndD85ZpSk{fill: #101C30;}#el_mq2_EWNGZ03{fill: #101C30;}#el_PKt_9HFv1Cs{fill: #101C30;}#el_iXy4E0CwR_l{fill: #101C30;}#el_ZprI0__v14z{fill: #4A8093;}#el_0uhKWOJ-TQY{fill: #101C30;}#el_P4Ta_cP0ka_{fill: #4A8093;}#el_KNFsmQ-Lhp2{fill: #101C30;}#el_ZAKUkMJowCd{fill: #101C30;}#el_omL-zITBshj{fill: #101C30;}#el_nu-KGElnR3l{fill: #101C30;}#el_cZ87sgcpmdr{fill: #101C30;}#el_dI7HHQAuNpL{fill: #101C30;}#el_46GjZ9fW1P1{fill: #101C30;}#el_ANiNK9LpM2l{fill: #101C30;}#el_C0AFoESNZVm{fill: #101C30;}#el_l77T-CTXYpl{fill: #101C30;}#el_fJaZ0cK5wFN{fill: #101C30;}#el_CbeHgec0exA{fill: #101C30;}#el_eCB_fLJOodT{fill: #101C30;}#el_V0eMmngr6jf{fill: #101C30;}#el_Zv7LtrUJX6Y{fill: #101C30;}#el_ycMvi5guAjB{fill: #101C30;}#el_F_Xo2tg-L4c{fill: #101C30;}#el_43pC3n5A7zj{fill: #101C30;}#el_I6B4OJNzzRK{fill: #101C30;}#el_8YeMWVWsR5j{fill: #4A8093;}#el_JFY0qiiIH0d{fill: #101C30;}#el_xE1aBGmMMER{fill: #101C30;}#el_9f_hZ8h2p9G{fill: #101C30;}#el_V-LQYsFgvQ4{fill: #101C30;}#el_djeInNO2yTY{fill: #4A8093;}#el_jfZoALajG3c{fill: #101C30;}#el_FMjQmyuFsuu{fill: #101C30;}#el_0Z6RZfRzhBt{fill: #101C30;}#el_XQYpNG9vSxE{fill: #101C30;}#el_vjJ6t0lRYGE{fill: #101C30;}#el_dlwc5BfvqqZ{fill: #4A8093;}#el_vtrgMs0wHuK{fill: #FFFFFF;}#el_v9Mgd9q4zzf{fill: #101C30;}#el_F7wOTJlnn7s{fill: #101C30;}#el_IhumuS4hCpg{fill: #FFFFFF;}#el_ZA_jRU1NTOy{fill: #101C30;}#el_HLRPX7wmQ7g{fill: #101C30;}#el_TCQLkWP118q{fill: #4A8093;-webkit-transform: matrix(0.8759, -0.4825, 0.4825, 0.8759, -119.2149, 234.0966);transform: matrix(0.8759, -0.4825, 0.4825, 0.8759, -119.2149, 234.0966);}#el_bPcJzqy-bdQ{fill: #101C30;}#el_YMmlDVZ6qFy{fill: #4A8093;-webkit-transform: matrix(0.9929, -0.119, 0.119, 0.9929, -37.5277, 53.1509);transform: matrix(0.9929, -0.119, 0.119, 0.9929, -37.5277, 53.1509);}#el_aTlgYPwdsk8{fill: #101C30;}#el_akxsjq27LB8{fill: #101C30;}#el_6EUieC1__IO{fill: #101C30;}#el_kSRVvhZX7Ea{fill: #101C30;}#el_e_U9WBCYT0k{fill: #101C30;}#el_sj8kGPLFBAf{fill: #101C30;}#el_tyZ3c_XYhqX{fill: #101C30;}#el_NAPwgRdq1he{fill: #101C30;}#el_1-57vAT4Ovj{fill: #101C30;}#el_EVnNIwvTnPA{fill: #101C30;}#el_pxR6HgsrnYk{fill: #101C30;}#el_P4btB2Eqfeh{fill: #101C30;}#el_2Qqiq6IX_6z{fill: #101C30;}#el_2Gqx0u2zGsi{fill: #101C30;}#el_iqOF409cJWc{fill: #101C30;}#el_dru46ntf0JJ{fill: #101C30;}#el_gTlVmoC9z8x{fill: #101C30;}#el_iZIqB67u__d{fill: #101C30;}#el_02Mg2mM3D2N{fill: #101C30;}#el_GbmlkkEtSvG{fill: #101C30;}#el_6_2OFNwwFdR{fill: #101C30;}#el_f_E6wqQW7oq{fill: #101C30;}#el_6vloRaKll3H_{fill: #101C30;}#el_INW_XCK-lcjd{fill: #69BAE8;}#el_f3toRuhQPMUK{fill: #4A8093;}#el_ZR6yDxFoQXGV{fill: #101C30;}#el_Tgr1RTUsT7Yl{fill: #101C30;}#el_hm-1BbdMHiR4{fill: #101C30;}#el_0DmFMctfnvsj{fill: #101C30;}#el_Hmkgdqchkp-R{fill: #69BAE8;}#el_LdQbBh6hndxW{fill: #4A8093;}#el_JuRFgIg8Izpc{fill: #101C30;}#el_Mtrgp_20LdAP{fill: #101C30;}#el_xFORsPyNfpAw{fill: #101C30;}#el_8HKmp0sEc0yk{fill: #101C30;}#el_R7E5ln_EncJ7{fill: #101C30;}#el_CSRs0ciGO9_an_-x-v4yzb4{-webkit-animation-fill-mode: backwards;animation-fill-mode: backwards;-webkit-transform: translate(386.8075942993164px, 5.468484878540039px) rotate(0deg) translate(-386.8075942993164px, -5.468484878540039px);transform: translate(386.8075942993164px, 5.468484878540039px) rotate(0deg) translate(-386.8075942993164px, -5.468484878540039px);-webkit-animation-name: kf_el_CSRs0ciGO9_an_-x-v4yzb4;animation-name: kf_el_CSRs0ciGO9_an_-x-v4yzb4;-webkit-animation-timing-function: cubic-bezier(0.42, 0, 0.58, 1);animation-timing-function: cubic-bezier(0.42, 0, 0.58, 1);}#el_3Y_XwhgNdiN_an_dfT5I0sgp{-webkit-animation-fill-mode: backwards;animation-fill-mode: backwards;-webkit-transform: translate(399.8369903564453px, 424.5000305175781px) rotate(0deg) translate(-399.8369903564453px, -424.5000305175781px);transform: translate(399.8369903564453px, 424.5000305175781px) rotate(0deg) translate(-399.8369903564453px, -424.5000305175781px);-webkit-animation-name: kf_el_3Y_XwhgNdiN_an_dfT5I0sgp;animation-name: kf_el_3Y_XwhgNdiN_an_dfT5I0sgp;-webkit-animation-timing-function: cubic-bezier(0, 0, 1, 1);animation-timing-function: cubic-bezier(0, 0, 1, 1);}#el_tyZ3c_XYhqX_an_oSMIz8kV4{-webkit-animation-fill-mode: backwards;animation-fill-mode: backwards;-webkit-transform: translate(418.5232238769531px, 391.6728210449219px) rotate(0deg) translate(-418.5232238769531px, -391.6728210449219px);transform: translate(418.5232238769531px, 391.6728210449219px) rotate(0deg) translate(-418.5232238769531px, -391.6728210449219px);-webkit-animation-name: kf_el_tyZ3c_XYhqX_an_oSMIz8kV4;animation-name: kf_el_tyZ3c_XYhqX_an_oSMIz8kV4;-webkit-animation-timing-function: cubic-bezier(0, 0, 1, 1);animation-timing-function: cubic-bezier(0, 0, 1, 1);}#el_XxftrUoQOMbU{visibility: hidden;}#el_kpARg8LdvlZ{visibility: hidden;}#el_UcgXbeYjrybS_an_JEdDAOxDb{-webkit-animation-fill-mode: backwards;animation-fill-mode: backwards;-webkit-transform: translate(362.48402404785156px, 419.20001220703125px) rotate(0deg) translate(-362.48402404785156px, -419.20001220703125px);transform: translate(362.48402404785156px, 419.20001220703125px) rotate(0deg) translate(-362.48402404785156px, -419.20001220703125px);-webkit-animation-name: kf_el_UcgXbeYjrybS_an_JEdDAOxDb;animation-name: kf_el_UcgXbeYjrybS_an_JEdDAOxDb;-webkit-animation-timing-function: cubic-bezier(0, 0, 1, 1);animation-timing-function: cubic-bezier(0, 0, 1, 1);}#el_gVFsFdwsG7t_an_MBIpLJARD{-webkit-animation-fill-mode: backwards;animation-fill-mode: backwards;-webkit-transform: translate(454.0386962890625px, 387.19744873046875px) rotate(0deg) translate(-454.0386962890625px, -387.19744873046875px);transform: translate(454.0386962890625px, 387.19744873046875px) rotate(0deg) translate(-454.0386962890625px, -387.19744873046875px);-webkit-animation-name: kf_el_gVFsFdwsG7t_an_MBIpLJARD;animation-name: kf_el_gVFsFdwsG7t_an_MBIpLJARD;-webkit-animation-timing-function: cubic-bezier(0, 0, 1, 1);animation-timing-function: cubic-bezier(0, 0, 1, 1);}#el_bPcJzqy-bdQ_an_cwUmpxR0i{-webkit-animation-fill-mode: backwards;animation-fill-mode: backwards;-webkit-transform: translate(395.2908935546875px, 348.74720764160156px) rotate(0deg) translate(-395.2908935546875px, -348.74720764160156px);transform: translate(395.2908935546875px, 348.74720764160156px) rotate(0deg) translate(-395.2908935546875px, -348.74720764160156px);-webkit-animation-name: kf_el_bPcJzqy-bdQ_an_cwUmpxR0i;animation-name: kf_el_bPcJzqy-bdQ_an_cwUmpxR0i;-webkit-animation-timing-function: cubic-bezier(0, 0, 1, 1);animation-timing-function: cubic-bezier(0, 0, 1, 1);}#el_aTlgYPwdsk8_an_UAHHi1HOp{-webkit-animation-fill-mode: backwards;animation-fill-mode: backwards;-webkit-transform: translate(426.30567932128906px, 340.86582946777344px) rotate(0deg) translate(-426.30567932128906px, -340.86582946777344px);transform: translate(426.30567932128906px, 340.86582946777344px) rotate(0deg) translate(-426.30567932128906px, -340.86582946777344px);-webkit-animation-name: kf_el_aTlgYPwdsk8_an_UAHHi1HOp;animation-name: kf_el_aTlgYPwdsk8_an_UAHHi1HOp;-webkit-animation-timing-function: cubic-bezier(0, 0, 1, 1);animation-timing-function: cubic-bezier(0, 0, 1, 1);}</style>

<g id="el_CSRs0ciGO9_an_-x-v4yzb4" data-animator-group="true" data-animator-type="1"><g id="el_CSRs0ciGO9">
	<g id="el_9TolDJETto">
		<g id="el_nGYOjap2AR">
			<path d="M116.3,263.8c34.1,38.3,89.3,2.5,89.3,2.5s29.2,19.3,56.4,14.5c35.9-6.3,64.4-34.1,64.4-34.1&#10;&#9;&#9;&#9;&#9;s59.2,37.3,103.3-27c50,28.9,90.1-28.5,90.1-28.5s3-0.6,4.4-0.1c42.4,16.9,71.5-30.7,71.5-30.7S542.9,45.8,437.9,15&#10;&#9;&#9;&#9;&#9;C310.5-22.2,213,60,191,81.7C111.8,159.5,116.3,263.8,116.3,263.8z" id="el_S_TYPILC3R"/>
		</g>
		<path d="M152.6,155.4c0,0,109,5.8,190.1-18.1c87.6-25.8,170.9-86.8,170.9-86.8l33.7,30.7c0,0-88.4,66.4-183.3,92.5&#10;&#9;&#9;&#9;c-103.6,28.5-172.7,20.9-223.7,12.8" id="el_yfwwA8Tzoz"/>
		<path d="M171.3,122.4c0,0,104.6,9.3,176.5-14.1C453.4,73.8,485.5,34,485.5,34l-11.7-5c0,0-81.4,50.8-133.7,68.2&#10;&#9;&#9;&#9;c-49.6,16.5-157.4,9.6-157.4,9.6L171.3,122.4z" id="el_gLHWDLHZk8"/>
		<path d="M319.9,440.9c0,0,1.1-38.5,27.8-39.2c2.2-0.1,5-0.5,5-0.5s-3.2-11.7,8.6-15c13.5-3.7,75.2-24.7,89.2-22.1&#10;&#9;&#9;&#9;s16.6,11.8,16.6,11.8s7.7-9.4,23-1c15.3,8.4,18.3,23.2,18.3,23.2L319.9,440.9z" id="el_oNgSiai2ck"/>
		<path d="M379,404c0,0-59.2,32.9-76.2,59.4c-17,26.5-33,46.7-18.6,62.5c14.4,15.9,83.8-1.8,83.8-1.8l11.6,42.2&#10;&#9;&#9;&#9;c0,0-13.9,52.7-12.4,87.7c1.4,35,0.7,90.9,0.7,90.9s-26.8,18.7-31.4,22.9c-5.7,5.2-12,19.5-0.8,26.5c13.2,8.2,77.2-24,77.2-24&#10;&#9;&#9;&#9;s10.8-79.8,15.5-99.3c4.7-19.5,18.6-40,18.6-40s16.4,3.2,27.6,2.2c11.2-1.1,23.1-7.9,23.1-7.9s41.5,44.7,51.2,61.7&#10;&#9;&#9;&#9;c9.7,17,27.1,58.1,27.1,58.1s54.8,19.9,70.4,10.1c15.5-9.8,5.1-18.3,0.9-21.7c-7.3-5.8-35.3-22.7-35.3-22.7s-17.4-71.2-42.7-104&#10;&#9;&#9;&#9;c-25.3-32.8-37.3-54.8-37.3-54.8l-14.4-73c0,0,59.7-16.3,54-44.7c-5.7-28.4-25.4-39.2-53.7-40.6c-28.2-1.3-68.4-3.4-68.4-3.4&#10;&#9;&#9;&#9;l-8.7-32.3l-10.3-31.2l-49.6,8l-17.2,22.4c0,0-10.8,2-10.9,9.6c-0.1,7.6,2.6,12.2,10.2,14.2c7.6,1.9,11.8,3.9,11.8,3.9L379,404z" id="el_tFYhQCk_2V"/>
		<path d="M468.2,382.1c0,0-7.6,8.6-2.2,12.6s23.8,36.9,24.2,44.3c0.4,7.4,0,8,0,8l23.3-13.4c0,0-16.5-39.4-23.3-47.8&#10;&#9;&#9;&#9;C483.4,377.3,468.2,382.1,468.2,382.1z" id="el_KPSMNXsaoZ"/>
		<path d="M354.1,404c0,0,15.1-3.2,21.3,8.1c6.2,11.3,13.2,46.2,13.2,46.2l-4.3,26.6l-20.5,1.1c0,0,7.8-45.6,2.2-59.3&#10;&#9;&#9;&#9;S354.1,404,354.1,404z" id="el_5jiaXjitnV"/>
		<g id="el_M87z13PMq2">
			<g id="el_kO9hVQbc68">
				<path d="M126,269c23.4,25.7,60,20.1,87.6,4.7c0.9-0.5,2.5-1,3.1-1.8c0.6-0.7-0.7,0.1-1-0.1c0.5,0.4,1.2,0.7,1.8,1.1&#10;&#9;&#9;&#9;&#9;&#9;c6.6,3.9,13.6,7.1,20.9,9.6c10,3.4,20.7,5.5,31.3,4.3c10.9-1.2,21.5-5,31.4-9.7c13.4-6.4,26.5-14.9,37.2-25.2&#10;&#9;&#9;&#9;&#9;&#9;c-0.6,0.1-1.1,0.1-1.7,0.2c22,13.8,52.3,14.6,74.8,1.8c12.4-7.1,22.3-17.7,30.5-29.3c-0.6,0.2-1.3,0.3-1.9,0.5&#10;&#9;&#9;&#9;&#9;&#9;c15.3,8.7,32.7,10.8,49.4,4.7c12.9-4.7,24.3-13.3,33.7-23.2c2.8-2.9,5.4-5.9,7.8-9.1c0.3-0.4,0.7-1.2,1.1-1.4&#10;&#9;&#9;&#9;&#9;&#9;c-1.7,1.1,2.4,0.5,2.8,0.6c1.1,0.2,2.2,0.8,3.3,1.2c2.7,0.9,5.5,1.5,8.3,2c15.1,2.2,29.7-3.3,41.5-12.5c5.1-4,9.7-8.5,13.8-13.5&#10;&#9;&#9;&#9;&#9;&#9;c1.9-2.3,5.1-5.3,6.1-8.2c0.9-2.7-2.1-6.5-3.3-8.8c-10.9-20.5-24.2-39.9-39-57.7c-23-27.6-50.6-51.8-82.8-68&#10;&#9;&#9;&#9;&#9;&#9;C443.7,11.7,398.7,4.8,355.8,9.9c-59,7-117.8,36.4-159.2,79.2c-44.4,45.9-70.8,111.4-71,175.4c0,1.2,0,2.4,0,3.6&#10;&#9;&#9;&#9;&#9;&#9;c0.1,1.8,2.9,1.8,2.8,0c-0.7-15.8,1.6-31.9,4.5-47.4c6.9-36,20.8-70.8,41.9-100.9c34.4-49.1,88.9-84.7,146.5-100.3&#10;&#9;&#9;&#9;&#9;&#9;c42-11.4,86.5-11,128.2,1.6c35.5,10.7,66.9,31.8,93.1,57.7c19.8,19.5,36.9,41.7,51.2,65.5c3.6,6,7.1,12.1,10.2,18.4&#10;&#9;&#9;&#9;&#9;&#9;c0.3,0.5,0.5,1.5,0.9,1.9c1,1.1-1,0.7,0.3-0.7c-1.7,1.9-3,4.4-4.6,6.4c-8.3,10.5-19,19.9-31.7,24.5c-8.3,3-17.2,3.7-25.8,1.7&#10;&#9;&#9;&#9;&#9;&#9;c-4.1-0.9-10.3-4.8-14-1.4c-2.2,2-3.8,4.9-5.8,7c-3.8,4.2-7.8,8.1-12.2,11.6c-11.9,9.7-26.5,17-42.2,17&#10;&#9;&#9;&#9;&#9;&#9;c-9.9,0-19.3-3.1-27.8-7.9c-0.7-0.4-1.5-0.1-1.9,0.5c-15.9,22.8-39.3,39-67.9,36.9c-11.4-0.9-23.7-4.2-33.5-10.3&#10;&#9;&#9;&#9;&#9;&#9;c-0.5-0.3-1.3-0.2-1.7,0.2c-14,13.6-32.4,24.6-50.9,30.5c-15.4,4.9-30.2,4.8-45.5-0.4c-7.9-2.6-15.8-6.2-22.7-10.7&#10;&#9;&#9;&#9;&#9;&#9;c-0.4-0.3-1-0.3-1.4,0c-26.4,17-64.5,23.1-87.6-2.2C126.8,265.7,124.8,267.7,126,269z" id="el_82P5S1CTSs"/>
			</g>
		</g>
		<g id="el_VKQuFZh2uZ">
			<g id="el_7FbQcrgxRe">
				<path d="M380.2,402.8c-3.8,1.9-7.6,4-11.4,6.1c-1.6,0.9-0.2,3.3,1.4,2.4c3.8-2.1,7.6-4.1,11.4-6.1&#10;&#9;&#9;&#9;&#9;&#9;C383.3,404.4,381.9,402,380.2,402.8L380.2,402.8z" id="el_sKrpNA8UTbE"/>
			</g>
		</g>
		<g id="el_nlFvkG6VaiX">
			<g id="el_Wg49KLkR-xY">
				<path d="M447.1,389.6c6.7-0.1,13.4-0.2,20.1-0.1c1.8,0,1.8-2.8,0-2.8c-6.7-0.1-13.4,0-20.1,0.1&#10;&#9;&#9;&#9;&#9;&#9;C445.3,386.8,445.3,389.7,447.1,389.6L447.1,389.6z" id="el__hTDO6gojkV"/>
			</g>
		</g>
		<g id="el_4SjHzr7lGVQ">
			<g id="el_gKm5UY_lkmQ">
				<path d="M362.6,530.8c3.4,12.4,7.2,24.6,10.5,37c1.4,5.2,1.7,7.2,0.7,12.2c-3.6,18.4-6.9,36.9-9.3,55.5&#10;&#9;&#9;&#9;&#9;&#9;c-3.3,25.1-4.3,50.4-3.5,75.7c0.3,9.2,0.9,18.4,1.7,27.6c0.2,2.3,0.4,4.7,0.7,7c0.1,0.5,0,1.6,0.2,2c0.6,1-1,1.1,0.8-0.4&#10;&#9;&#9;&#9;&#9;&#9;c-9,7.4-18.6,13.7-25.9,22.9c-3.2,4.1-7,9.6-6.1,15.1c0.8,4.9,5.2,9,9.6,10.9c11.8,5,26.4-1.3,37-6.5&#10;&#9;&#9;&#9;&#9;&#9;c10.2-4.9,20-10.9,29.2-17.6c6.9-5.1,6.2-16.5,7.6-24.2c2.4-14,5.2-27.9,8.7-41.6c7-27.6,16.8-54.8,32.4-78.7&#10;&#9;&#9;&#9;&#9;&#9;c1-1.5-1.4-2.9-2.4-1.4c-14.8,22.8-24.4,48.4-31.4,74.5c-3.6,13.5-6.5,27.1-9,40.8c-1.2,6.4-2.2,12.8-3.2,19.2&#10;&#9;&#9;&#9;&#9;&#9;c-0.6,4-1.4,7-4.6,9.4c-10.8,8.1-23.1,15.3-35.6,20.4c-6.9,2.8-14.8,5.3-22.4,4.5c-6.5-0.7-14.5-5.8-12.8-13.3&#10;&#9;&#9;&#9;&#9;&#9;c1.9-8.6,10.6-15.9,16.8-21.3c4.3-3.8,8.9-7.4,13.7-10.6c0.4-0.3,0.8-0.7,0.7-1.2c-3.7-27.7-3.9-56.3-2.2-84.1&#10;&#9;&#9;&#9;&#9;&#9;c1.1-18.7,3.8-37.2,7-55.7c1.8-10.8,4.8-21.6,6-32.5c0.5-4-1.3-8.4-2.4-12.2c-3.2-11.4-6.6-22.7-9.7-34&#10;&#9;&#9;&#9;&#9;&#9;C364.9,528.3,362.2,529,362.6,530.8L362.6,530.8z" id="el_MUHLGdvNUlG"/>
			</g>
		</g>
		<g id="el_xweAGKaQlct">
			<g id="el_8hNk1Y3DzfF">
				<path d="M446.7,625.5c14.5,5.9,29.7,5.8,44.1,0.1c6.3-2.5,15.8-6.8,18.4-13.8c0.6-1.7-2.1-2.4-2.7-0.7&#10;&#9;&#9;&#9;&#9;&#9;c-2.3,6.4-13.2,10.8-19.3,12.9c-13.1,4.7-26.9,4.2-39.8-1.1C445.8,622.1,445.1,624.9,446.7,625.5L446.7,625.5z" id="el_K3x6O1rLRua"/>
			</g>
		</g>
		<g id="el_Du2HWScxEg6">
			<g id="el_ttRtMg6jUJw">
				<path d="M489.2,625.3c12.5,11.9,25,24,36.4,37c5.9,6.7,10.6,14.1,15.3,21.7c6.4,10.1,12.8,20.2,19.1,30.4&#10;&#9;&#9;&#9;&#9;&#9;c5.2,8.4,10.4,16.8,15.6,25.2c1.5,2.4,2.7,5.7,5.3,6.9c5.2,2.4,11.6,3.5,17.1,4.8c9,2.2,18.2,3.9,27.5,4.5&#10;&#9;&#9;&#9;&#9;&#9;c7.8,0.5,16.6,0.4,23.7-3.4c5.5-3,9.4-9.2,7.8-15.5c-2-8-10.8-13.2-17.5-16.7c-4-2.1-8.1-3.9-12.3-5.5c-2.5-1-5.9-2.8-8.6-3&#10;&#9;&#9;&#9;&#9;&#9;c-1.7-0.1-0.3-0.7-0.1,0.6c-0.1-0.4-0.3-0.8-0.3-1.2c-0.1-2.3-1.3-4.9-1.9-7.1c-2.6-9.3-5.4-18.5-8.5-27.6&#10;&#9;&#9;&#9;&#9;&#9;c-7.9-23.5-17-47.9-31.5-68.3c-9.5-13.2-19.4-26.1-28.6-39.5c-4.8-7-10.4-14.1-14.2-21.7c-0.3-0.7-0.5-1.6-0.8-3.2&#10;&#9;&#9;&#9;&#9;&#9;c-0.8-4-1.7-8.1-2.6-12.1c-2.8-12.5-5.7-25-9.1-37.4c-1.7-6.1-3.4-12.2-5.5-18.2c-0.6-1.7-3.3-1-2.7,0.7&#10;&#9;&#9;&#9;&#9;&#9;c7.3,21.8,12.3,44.4,17,66.9c0.8,3.6,1.8,5.5,3.8,8.7c6.2,9.8,12.7,19.4,19.4,28.9c8.5,12.1,18.3,23.6,26,36.3&#10;&#9;&#9;&#9;&#9;&#9;c6.7,11,12.1,22.8,16.9,34.7c7.4,18.4,13.5,37.3,18.7,56.4c0.8,2.9,0.6,5,3.6,6c7.4,2.5,14.8,5.2,21.6,9&#10;&#9;&#9;&#9;&#9;&#9;c6.6,3.7,17.3,10.4,14.2,19.4c-2.6,7.8-12,9.7-19.2,10.1c-16.6,1-33.6-3.3-49.4-8.1c-1.4-0.4-3.1-0.8-4.4-1.4&#10;&#9;&#9;&#9;&#9;&#9;c-0.1-0.1,1,1.1,0.4,0.2c-0.4-0.7-0.9-1.4-1.3-2.1c-4.3-6.9-8.5-13.8-12.8-20.7c-10.9-17.7-21.3-36.2-33.6-53&#10;&#9;&#9;&#9;&#9;&#9;c-11-15.1-25.6-28.1-39-41.1c-1.2-1.2-2.4-2.3-3.6-3.5C489.9,622.1,487.9,624.1,489.2,625.3L489.2,625.3z" id="el_HLNkExVvjCo"/>
			</g>
		</g>
		<g id="el_Ks73k6Lzxq5">
			<g id="el_dbc9rUwn5SW">
				<path d="M364.7,750.5c2,0.8,3.6,2.6,5.6,3.5c1.7,0.8,3.5,1.4,5.3,1.7c3.9,0.8,7.9,0.7,11.8,0.6&#10;&#9;&#9;&#9;&#9;&#9;c1.8-0.1,1.8-2.9,0-2.8c-4.1,0.1-8.3,0.3-12.4-0.7c-3.7-0.9-6.2-3.6-9.6-5C363.7,747.1,363,749.8,364.7,750.5L364.7,750.5z" id="el_S5_fPkY5IyY"/>
			</g>
		</g>
		<g id="el_039Nu4TbPaK">
			<g id="el_VMr4oXcVeh1">
				<path d="M603,727.6c7.5-1.6,17.2-5.3,15.8-14.8c-0.3-1.8-3-1-2.7,0.7c1.1,7.7-8.2,10.1-13.9,11.4&#10;&#9;&#9;&#9;&#9;&#9;C600.5,725.2,601.2,727.9,603,727.6L603,727.6z" id="el_nnz3FfSoaDp"/>
			</g>
		</g>
		<g id="el_GYZuV-uYfa4">
			<g id="el_hWAAyLXfMsf">
				<path d="M375,572.1c28.2,8.7,57.7,8.1,86.7,4.2c25.1-3.3,53.3-8.8,71.2-28.4c1.2-1.3-0.8-3.3-2-2&#10;&#9;&#9;&#9;&#9;&#9;c-18.2,19.9-47.5,24.8-73,28c-27.6,3.4-55.5,3.7-82.2-4.6C374.1,568.9,373.3,571.6,375,572.1L375,572.1z" id="el_TemjSscIcn9"/>
			</g>
		</g>
		<g id="el_ZNSsaP4Ri2E">
			<g id="el_byTrDQKN_NO">
				<path d="M387.1,477.2c-0.2,2.1-0.5,4.1-0.8,6.1c-0.3,1.8,2.4,2.5,2.7,0.7c0.4-2.3,0.7-4.6,0.9-6.9&#10;&#9;&#9;&#9;&#9;&#9;C390.1,475.4,387.3,475.4,387.1,477.2L387.1,477.2z" id="el_85ZPbCDEwyX"/>
			</g>
		</g>
		<g id="el_6244hr1mhjZ">
			<g id="el_OXk87m8srfr">
				<path d="M359.7,409c9.1-2.8,14.2,9.4,17.5,15.9c5.3,10.5,8.7,21.7,10,33.4c0.2,1.8,3,1.8,2.8,0&#10;&#9;&#9;&#9;&#9;&#9;c-1.5-13.6-5.8-26.4-12.3-38.4c-3.8-7-9.4-16.4-18.8-13.5C357.2,406.9,358,409.6,359.7,409L359.7,409z" id="el_Fhn9M8Y_mYC"/>
			</g>
		</g>
		<g id="el_72GhGBGn8FO">
			<g id="el_sm229eG76tl">
				<path d="M368.8,484.4c1.5-14.3,3.1-28.4-0.6-42.5c-0.5-1.7-3.2-1-2.7,0.7c3.7,13.8,2,27.7,0.5,41.7&#10;&#9;&#9;&#9;&#9;&#9;C365.8,486.2,368.6,486.2,368.8,484.4L368.8,484.4z" id="el_hFRGG0d0Vc9"/>
			</g>
		</g>
		<g id="el__e5BAXk40Xb">
			<g id="el_1LjlsTP9MCR">
				<path d="M482.9,385.9c6.5,6.9,9.8,15.3,14,23.6c4.4,8.7,8.4,17.5,9.4,27.4c0.2,1.8,3,1.8,2.8,0&#10;&#9;&#9;&#9;&#9;&#9;c-1-9.8-4.7-18.6-9-27.4c-4.5-9-8.2-18.2-15.2-25.6C483.6,382.6,481.7,384.6,482.9,385.9L482.9,385.9z" id="el_GMY9RAD45X_"/>
			</g>
		</g>
		<g id="el_6fodLZgBJtJ">
			<g id="el_Q75khn5lR9u">
				<path d="M471.7,395.7c-4.4-2.2-4.9-9.7,0.5-10.8c1.8-0.4,1-3.1-0.7-2.7c-7.7,1.7-7.7,12.7-1.1,16&#10;&#9;&#9;&#9;&#9;&#9;C471.9,398.9,473.3,396.5,471.7,395.7L471.7,395.7z" id="el_UXdkvda_QEn"/>
			</g>
		</g>
		<g id="el__LxlwG5OEZ6">
			<g id="el__qLi3BHyxfZ">
				<path d="M494.8,444.8c-2.2-10.3-7-19.5-11.5-28.9c-0.8-1.6-3.2-0.2-2.4,1.4c4.5,9.1,9.1,18.2,11.2,28.2&#10;&#9;&#9;&#9;&#9;&#9;C492.5,447.3,495.2,446.6,494.8,444.8L494.8,444.8z" id="el_a0tDuTXjaJa"/>
			</g>
		</g>
		<g id="el_Nvu5g2sZbF-">
			<g id="el_PW0xZXA8WlB">
				<path d="M125.8,268.7c9.8,18.2,21.5,35.5,33.7,52.2c25.2,34.4,54.3,66.7,88.9,91.7c20.7,15,43.5,27.1,68.1,33.9&#10;&#9;&#9;&#9;&#9;&#9;c1.7,0.5,2.5-2.2,0.7-2.7c-44-12.1-81.5-41.1-112.8-73.5c-24.8-25.7-46.6-54.4-65.5-84.8c-3.7-6-7.4-12-10.8-18.3&#10;&#9;&#9;&#9;&#9;&#9;C127.4,265.7,124.9,267.1,125.8,268.7L125.8,268.7z" id="el_coCKEb6yeHB"/>
			</g>
		</g>
		<g id="el_RVJD46ueEXL">
			<g id="el_Oo2ckybIo03">
				<path d="M215,270.8c4,13.6,9.7,26.8,15.7,39.6c13.1,27.9,29.9,54.4,51.2,76.9c13.5,14.2,28.9,26.6,46,36&#10;&#9;&#9;&#9;&#9;&#9;c1.6,0.9,3-1.6,1.4-2.4c-52-28.5-86.6-83-107-137.3c-1.7-4.4-3.3-8.9-4.6-13.4C217.2,268.4,214.5,269.1,215,270.8L215,270.8z" id="el_Bprl-O4kRCH"/>
			</g>
		</g>
		<g id="el_UbAG3exsLHh">
			<g id="el_8Yl7KUUySw1">
				<path d="M335.9,251.2c6.9,30.3,14.4,60.4,21.1,90.7c0.4,1.8,3.1,1,2.7-0.7c-6.6-30.3-14.1-60.5-21.1-90.7&#10;&#9;&#9;&#9;&#9;&#9;C338.2,248.7,335.5,249.5,335.9,251.2L335.9,251.2z" id="el_KAVEMUUtPlL"/>
			</g>
		</g>
		<g id="el_RiWQjrHAJGn">
			<g id="el_2helRkLw5yv">
				<path d="M439.2,223.9c4.7,42.3,9.3,84.6,14,126.9c0.7,5.9,1.3,11.9,2,17.8c0.2,1.8,3,1.8,2.8,0&#10;&#9;&#9;&#9;&#9;&#9;c-4.7-42.3-9.3-84.6-14-126.9c-0.7-5.9-1.3-11.9-2-17.8C441.8,222.1,439,222.1,439.2,223.9L439.2,223.9z" id="el_vgndD85ZpSk"/>
			</g>
		</g>
		<g id="el_BccL32PnQRy">
			<g id="el_UHiRZtqdXA0">
				<path d="M529.3,195.7c2.7,10.8,3.5,22.2,3.9,33.3c1.1,28.5-2.3,57.1-9.5,84.6c-5.7,21.9-13.8,43.1-23.9,63.3&#10;&#9;&#9;&#9;&#9;&#9;c-0.8,1.6,1.6,3,2.4,1.4c26-52.3,39.9-113.1,31.9-171.5c-0.5-4-1.1-8-2.1-11.9C531.6,193.2,528.9,194,529.3,195.7L529.3,195.7z" id="el_mq2_EWNGZ03"/>
			</g>
		</g>
		<g id="el_Eflr1iUHTiM">
			<g id="el_M6GF1p4zZaM">
				<path d="M603.4,167.2c-2.3,18.1-6,36.4-10.2,54.3c-8.7,37.8-20.3,75.3-37.3,110.2c-10,20.5-22,40.3-37.5,57.2&#10;&#9;&#9;&#9;&#9;&#9;c-1.2,1.3,0.8,3.3,2,2c27.5-30.2,44.9-68.7,58-107c10.9-31.6,18.9-64.2,24.7-97.2c1.1-6.5,2.2-13,3-19.5&#10;&#9;&#9;&#9;&#9;&#9;C606.4,165.4,603.6,165.4,603.4,167.2L603.4,167.2z" id="el_PKt_9HFv1Cs"/>
			</g>
		</g>
		<g id="el_AUvDFh4arTd">
			<g id="el_wZS9kS3hDaR">
				<path d="M391.1,260.7c2.7,14.2,5.5,28.4,8.2,42.6c0.3,1.8,3,1,2.7-0.7c-2.7-14.2-5.5-28.4-8.2-42.6&#10;&#9;&#9;&#9;&#9;&#9;C393.5,258.2,390.8,259,391.1,260.7L391.1,260.7z" id="el_iXy4E0CwR_l"/>
			</g>
		</g>
		<g id="el_ijx4W6ARgN9">
			<polygon points="481,230.7 468.1,461.3 478.5,453.2 493,226.7 &#9;&#9;&#9;" id="el_ZprI0__v14z"/>
			<g id="el_911e1_j_OXF">
				<path d="M479.6,230.7c-1.4,26-2.9,52-4.3,78c-2.3,41.4-4.6,82.8-6.9,124.3c-0.5,9.4-1.1,18.9-1.6,28.3&#10;&#9;&#9;&#9;&#9;&#9;c-0.1,1.3,1.5,1.7,2.4,1c3.1-2.4,7.7-4.8,10.1-7.9c0.7-0.9,0.6-1.2,0.8-2.2c0.6-3.7,0.5-7.5,0.7-11.2&#10;&#9;&#9;&#9;&#9;&#9;c1.1-17.1,2.2-34.2,3.3-51.3c2.8-43.8,5.6-87.6,8.4-131.4c0.7-10.5,1.3-21,2-31.5c0.1-0.9-0.9-1.6-1.8-1.4c-4,1.3-8,2.7-12,4&#10;&#9;&#9;&#9;&#9;&#9;c-1.7,0.6-1,3.3,0.7,2.7c4-1.3,8-2.7,12-4c-0.6-0.5-1.2-0.9-1.8-1.4c-1.8,27.9-3.6,55.8-5.4,83.7c-2.6,41.4-5.3,82.8-7.9,124.2&#10;&#9;&#9;&#9;&#9;&#9;c-0.3,5.4-0.7,10.7-1,16.1c0,0.7,0.1,1.8-0.2,2.5c0.6-1.7-0.4-0.3-1.2,0.3c-1.2,0.9-2.4,1.9-3.6,2.8c-1.7,1.4-3.5,2.7-5.2,4.1&#10;&#9;&#9;&#9;&#9;&#9;c0.8,0.3,1.6,0.7,2.4,1c1.4-26,2.9-52,4.3-78c2.3-41.4,4.6-82.8,6.9-124.3c0.5-9.4,1.1-18.9,1.6-28.3&#10;&#9;&#9;&#9;&#9;&#9;C482.5,228.9,479.7,228.9,479.6,230.7z" id="el_0uhKWOJ-TQY"/>
			</g>
		</g>
		<g id="el__RPZ0MPctje">
			<polygon points="392.5,483.3 268.3,285.5 285.3,283.1 402.8,483.2 &#9;&#9;&#9;" id="el_P4Ta_cP0ka_"/>
			<g id="el_OCV5C1Mk5X1">
				<path d="M393.7,482.6c-14-22.3-28-44.6-42-66.9c-22.3-35.5-44.6-71-66.9-106.5c-5.1-8.1-10.2-16.3-15.3-24.4&#10;&#9;&#9;&#9;&#9;&#9;c-0.3,0.7-0.6,1.4-0.8,2.1c5.7-0.8,11.3-1.6,17-2.4c-0.5-0.2-1.1-0.4-1.6-0.6c13.2,22.5,26.4,45,39.6,67.5&#10;&#9;&#9;&#9;&#9;&#9;c21.1,35.9,42.2,71.8,63.3,107.7c4.9,8.3,9.8,16.6,14.6,24.9c0.4-0.7,0.8-1.4,1.2-2.1c-3.4,0-6.9,0.1-10.3,0.1&#10;&#9;&#9;&#9;&#9;&#9;c-1.8,0-1.8,2.8,0,2.8c3.4,0,6.9-0.1,10.3-0.1c1.1,0,1.8-1.2,1.2-2.1c-13.2-22.5-26.4-45-39.6-67.5&#10;&#9;&#9;&#9;&#9;&#9;c-21.1-35.9-42.2-71.8-63.3-107.7c-4.9-8.3-9.8-16.6-14.6-24.9c-0.3-0.6-1-0.7-1.6-0.6c-5.7,0.8-11.3,1.6-17,2.4&#10;&#9;&#9;&#9;&#9;&#9;c-0.9,0.1-1.3,1.4-0.8,2.1c14,22.3,28,44.6,42,66.9c22.3,35.5,44.6,71,66.9,106.5c5.1,8.1,10.2,16.3,15.3,24.4&#10;&#9;&#9;&#9;&#9;&#9;C392.2,485.5,394.7,484.1,393.7,482.6z" id="el_KNFsmQ-Lhp2"/>
			</g>
		</g>
		<g id="el_zNY8oyeW7fh">
			<g id="el_o5C1DLVyltg">
				<path d="M161.6,216c-0.4-12.9,2.5-25.4,8.7-36.7c0.9-1.6-1.6-3-2.4-1.4c-6.4,11.8-9.5,24.7-9.1,38.1&#10;&#9;&#9;&#9;&#9;&#9;C158.9,217.8,161.7,217.8,161.6,216L161.6,216z" id="el_ZAKUkMJowCd"/>
			</g>
		</g>
		<g id="el_Xtx0eYunv7f">
			<g id="el_kTbY3SjosoH">
				<path d="M170.9,204.5c0.8-7.2,3-14,6.5-20.3c0.9-1.6-1.6-3-2.4-1.4c-3.7,6.8-6,14-6.8,21.7&#10;&#9;&#9;&#9;&#9;&#9;C167.9,206.3,170.7,206.3,170.9,204.5L170.9,204.5z" id="el_omL-zITBshj"/>
			</g>
		</g>
		<g id="el_BSY-qJF2ufb">
			<g id="el_LjiwIgOgDrP">
				<path d="M301.3,65.3c9-7.6,19.9-12.2,31.6-13.4c1.8-0.2,1.8-3,0-2.8c-12.5,1.2-24,6.1-33.6,14.2&#10;&#9;&#9;&#9;&#9;&#9;C297.9,64.5,299.9,66.5,301.3,65.3L301.3,65.3z" id="el_nu-KGElnR3l"/>
			</g>
		</g>
		<g id="el_h1xVlLKm_QV">
			<g id="el_YlkUFUMNVPU">
				<path d="M312.4,70.2c4.8-1.4,9.6-2.8,14.5-4.3c1.7-0.5,1-3.2-0.7-2.7c-4.8,1.4-9.6,2.8-14.5,4.3&#10;&#9;&#9;&#9;&#9;&#9;C309.9,68,310.6,70.7,312.4,70.2L312.4,70.2z" id="el_cZ87sgcpmdr"/>
			</g>
		</g>
		<g id="el_ZKeyNHbbcOw">
			<g id="el_QomJvAzWwbZ">
				<path d="M245,252c-4.3-1.2-8.5-2.8-12.4-4.9c-1.6-0.8-3,1.6-1.4,2.4c4.2,2.2,8.6,3.9,13.1,5.2&#10;&#9;&#9;&#9;&#9;&#9;C246,255.2,246.7,252.5,245,252L245,252z" id="el_dI7HHQAuNpL"/>
			</g>
		</g>
		<g id="el_vBQInBEmPcm">
			<g id="el_XVkI3u1KVc8">
				<path d="M475.8,59.7c7.8,5.5,13.8,13.1,17.3,21.9c0.7,1.7,3.4,0.9,2.7-0.7c-3.9-9.6-10.1-17.6-18.6-23.6&#10;&#9;&#9;&#9;&#9;&#9;C475.8,56.2,474.4,58.7,475.8,59.7L475.8,59.7z" id="el_46GjZ9fW1P1"/>
			</g>
		</g>
		<g id="el_UPOZVPqPDaM">
			<g id="el_ZzIGt-IEfnC">
				<path d="M495.4,63.8c2.1,3.2,3.6,6.6,4.5,10.3c0.4,1.8,3.1,1,2.7-0.7c-0.9-3.9-2.5-7.6-4.7-11&#10;&#9;&#9;&#9;&#9;&#9;C496.8,60.9,494.4,62.3,495.4,63.8L495.4,63.8z" id="el_ANiNK9LpM2l"/>
			</g>
		</g>
		<g id="el_K8r9st_RqXO">
			<g id="el_diOV9fgy3wO">
				<path d="M484.5,116.9c1.7,3.4,3,7,3.8,10.7c0.4,1.8,3.1,1,2.7-0.7c-0.9-4-2.3-7.8-4.1-11.4&#10;&#9;&#9;&#9;&#9;&#9;C486.1,113.9,483.7,115.3,484.5,116.9L484.5,116.9z" id="el_C0AFoESNZVm"/>
			</g>
		</g>
		<g id="el_mhJj68Wjmc1">
			<g id="el_hdfIjZm-hVG">
				<path d="M584.1,155c-0.7,3.1-1.5,6.3-2.2,9.4c-0.4,1.8,2.3,2.5,2.7,0.7c0.7-3.1,1.5-6.3,2.2-9.4&#10;&#9;&#9;&#9;&#9;&#9;C587.2,154,584.5,153.2,584.1,155L584.1,155z" id="el_l77T-CTXYpl"/>
			</g>
		</g>
		<g id="el_EZeceQOit-Z">
			<g id="el_5tJNQfqwnuu">
				<path d="M328.9,434.9c-0.2-6.6,0.7-13.1,3.1-19.2c2.3-5.9,5.4-8.2,11.1-10.3c1.7-0.6,0.9-3.3-0.7-2.7&#10;&#9;&#9;&#9;&#9;&#9;c-5.1,1.9-9.1,3.8-11.6,8.9c-3.6,7.2-4.8,15.4-4.6,23.3C326.1,436.7,328.9,436.7,328.9,434.9L328.9,434.9z" id="el_fJaZ0cK5wFN"/>
			</g>
		</g>
		<g id="el_oy1PfTDqHjp">
			<g id="el_5Wazk2thC7Z">
				<path d="M352,394.5c1.4-2.4,2.6-4.9,4.5-6.9c3.1-3.1,7.3-3.8,11.5-3.8c1.8,0,1.8-2.8,0-2.8c-4.5,0-9,0.7-12.5,3.7&#10;&#9;&#9;&#9;&#9;&#9;c-2.7,2.3-4.2,5.4-5.9,8.3C348.7,394.6,351.1,396,352,394.5L352,394.5z" id="el_CbeHgec0exA"/>
			</g>
		</g>
		<g id="el_VZ5EF0pF823">
			<g id="el_UUOtQuZVrnl">
				<path d="M443.2,369.9c3.3-0.6,6.6-1.3,9.9-0.8c3.3,0.5,5.3,2.5,8,4.2c1.5,0.9,3-1.5,1.4-2.4c-3.1-1.9-5.2-4-9-4.5&#10;&#9;&#9;&#9;&#9;&#9;c-3.7-0.5-7.5,0.2-11.1,0.9C440.7,367.6,441.4,370.3,443.2,369.9L443.2,369.9z" id="el_eCB_fLJOodT"/>
			</g>
		</g>
		<g id="el_1RvTiaQz0sE">
			<g id="el_AOHUPblW2lQ">
				<path d="M485.5,370c10.1,2.8,16.8,9.9,21.7,18.9c0.9,1.6,3.3,0.2,2.4-1.4c-5.3-9.6-12.6-17.2-23.4-20.2&#10;&#9;&#9;&#9;&#9;&#9;C484.5,366.8,483.8,369.5,485.5,370L485.5,370z" id="el_V0eMmngr6jf"/>
			</g>
		</g>
		<g id="el_m20aqhuNXdW">
			<g id="el_zwoxsrtqgUd">
				<path d="M453,379.6c6.1-3.3,12.3-5.9,19.3-6.8c1.8-0.2,1.8-3,0-2.8c-7.5,0.9-14.1,3.6-20.7,7.2&#10;&#9;&#9;&#9;&#9;&#9;C450,378.1,451.5,380.5,453,379.6L453,379.6z" id="el_Zv7LtrUJX6Y"/>
			</g>
		</g>
		<g id="el_oKRZXzOR5V5">
			<g id="el_iETQ-iOwZqr">
				<path d="M377.1,669.9c1.4,6.5,3.8,12.6,7.4,18.2c1,1.5,3.4,0.1,2.4-1.4c-3.4-5.4-5.8-11.2-7.1-17.5&#10;&#9;&#9;&#9;&#9;&#9;C379.4,667.4,376.7,668.1,377.1,669.9L377.1,669.9z" id="el_ycMvi5guAjB"/>
			</g>
		</g>
		<g id="el_3SHbaU-zpc-">
			<g id="el_SY1-TijhmdT">
				<path d="M383.7,659.6c-1.3,4.6-0.8,9.3,1.4,13.6c0.8,1.6,3.2,0.2,2.4-1.4c-1.8-3.6-2.1-7.5-1.1-11.4&#10;&#9;&#9;&#9;&#9;&#9;C386.9,658.6,384.2,657.8,383.7,659.6L383.7,659.6z" id="el_F_Xo2tg-L4c"/>
			</g>
		</g>
		<g id="el_6vEdoYSI3P3">
			<g id="el_9SfQ5N4jE5k">
				<path d="M582.8,654.3c0.6,5.8,1.1,13-5.1,16.1c-1.6,0.8-0.2,3.2,1.4,2.4c7-3.5,7.1-11.7,6.4-18.5&#10;&#9;&#9;&#9;&#9;&#9;C585.4,652.5,582.6,652.5,582.8,654.3L582.8,654.3z" id="el_43pC3n5A7zj"/>
			</g>
		</g>
		<g id="el_c6Ranj3FDOU">
			<g id="el_FotByvvoWq2">
				<path d="M588.5,671.4c-2.6,2.6-5.7,4.5-9.2,5.7c-1.7,0.6-1,3.3,0.7,2.7c4-1.4,7.5-3.5,10.4-6.5&#10;&#9;&#9;&#9;&#9;&#9;C591.7,672.1,589.7,670.1,588.5,671.4L588.5,671.4z" id="el_I6B4OJNzzRK"/>
			</g>
		</g>
	</g>
	<g id="el_gVFsFdwsG7t_an_MBIpLJARD" data-animator-group="true" data-animator-type="1"><g id="el_gVFsFdwsG7t">
		<polygon points="459.9,486 455.7,521.2 499.4,514 490.2,487.6 483.9,489.3 486.4,506.1 466.1,509.6 469.1,489.5 &#9;&#9;" id="el_8YeMWVWsR5j"/>
		<g id="el_J_A1o4rpbnZ">
			<g id="el__5fGLpY77jH">
				<path d="M488,390c17.6,0.7,35.4,1.4,52.6,5.8c9.1,2.3,15.9,6.5,21.4,14.2c4.9,6.8,8.2,14.9,8.3,23.4&#10;&#9;&#9;&#9;&#9;&#9;c0.1,14.4-12.7,21.1-24,26.6c-16.2,7.8-32.4,15.4-48.9,22.3c-8.1,3.4-16.3,7.4-24.9,9.1c-1,0.2-3.2,1-4.2,0.6&#10;&#9;&#9;&#9;&#9;&#9;c-2.6-1.1,0.1-3.3,1.3-4.4c3-2.8,6.9-4.9,10.4-6.9c1.6-0.9,0.2-3.2-1.4-2.4c-3.1,1.5-6.3,3.2-9.6,4.1c-2.7,0.8-6.1,1.8-4.4-1.6&#10;&#9;&#9;&#9;&#9;&#9;c1.9-3.6,6.8-6.4,10-8.4c1.5-1,0.2-3.3-1.4-2.4c-2.3,1.2-17.1,8.8-15.9,3c0.5-2.5,4.8-5.1,6.8-6.6c4.5-3.6,9.1-6.9,13.9-10.1&#10;&#9;&#9;&#9;&#9;&#9;c17.4-11.4,36.7-20.1,53.8-32c1.5-1,0.1-3.5-1.4-2.4c-22.2,15.4-47.3,25.8-68.5,42.7c-2.8,2.2-12.2,9.8-5.5,13.2&#10;&#9;&#9;&#9;&#9;&#9;c5.2,2.7,13.8-3.1,18.2-5.4c-0.5-0.8-0.9-1.6-1.4-2.4c-3.6,2.2-13.5,8.1-12.6,13.7c1.1,7,16.7-1.6,19.5-3&#10;&#9;&#9;&#9;&#9;&#9;c-0.5-0.8-0.9-1.6-1.4-2.4c-4.3,2.4-14.6,7.1-14.6,13c0,4.8,6.3,3.4,9.3,2.8c10.5-2.1,20.5-7.2,30.3-11.4&#10;&#9;&#9;&#9;&#9;&#9;c10.3-4.3,20.4-8.8,30.5-13.6c12.5-6,31.1-11.8,37.2-25.6c6.5-14.8-3.3-35.1-15.4-44.2c-8.4-6.3-20.5-7.8-30.7-9.3&#10;&#9;&#9;&#9;&#9;&#9;c-12.3-1.7-24.7-2.3-37.1-2.8C486.2,387.1,486.2,389.9,488,390L488,390z" id="el_JFY0qiiIH0d"/>
			</g>
		</g>
		<g id="el_qAPd8tbw-ez">
			<g id="el_f0dxlp-DYTm">
				<path d="M487.9,450.3c10.7,6.1,13,18.6,14.2,29.9c0.2,1.8,3,1.8,2.8,0c-1.3-12.3-3.9-25.6-15.6-32.3&#10;&#9;&#9;&#9;&#9;&#9;C487.7,446.9,486.3,449.4,487.9,450.3L487.9,450.3z" id="el_xE1aBGmMMER"/>
			</g>
		</g>
		<g id="el_uBn1QclL59C">
			<g id="el_CGxd4OIWEDD">
				<path d="M462.3,484.4c-1.2,11.4-3.1,22.8-5,34.1c-0.2,1.1,0.6,2,1.7,1.7c13.6-3.2,27.2-6.4,40.8-9.5&#10;&#9;&#9;&#9;&#9;&#9;c0.7-0.2,1.2-1,1-1.7c-2-7.7-4-15.5-6.2-23.2c-0.5-1.7-3.2-1-2.7,0.7c2.2,7.7,4.2,15.4,6.2,23.2c0.3-0.6,0.7-1.2,1-1.7&#10;&#9;&#9;&#9;&#9;&#9;c-13.6,3.2-27.2,6.4-40.8,9.5c0.6,0.6,1.2,1.2,1.7,1.7c1.9-11.6,3.9-23.2,5.1-34.8C465.3,482.6,462.5,482.6,462.3,484.4&#10;&#9;&#9;&#9;&#9;&#9;L462.3,484.4z" id="el_9f_hZ8h2p9G"/>
			</g>
		</g>
		<g id="el_2ehppCSrWMZ">
			<g id="el_vAooMP-wz35">
				<path d="M485.9,489.5c0.5,4.6,1.7,9.2,3,13.6c0.3-0.6,0.7-1.2,1-1.7c-7.1,1.7-14.1,3.4-21.2,5.1&#10;&#9;&#9;&#9;&#9;&#9;c0.6,0.5,1.2,0.9,1.8,1.4c0.4-4.7,0.9-9.3,1.5-14c0.2-1.8-2.6-1.8-2.8,0c-0.6,4.7-1,9.3-1.5,14c-0.1,0.9,1,1.6,1.8,1.4&#10;&#9;&#9;&#9;&#9;&#9;c7.1-1.7,14.1-3.4,21.2-5.1c0.7-0.2,1.2-1,1-1.7c-1.2-4.2-2.4-8.5-2.9-12.9C488.5,487.7,485.7,487.7,485.9,489.5L485.9,489.5z" id="el_V-LQYsFgvQ4"/>
			</g>
		</g>
	</g></g>
	
	<g id="el_3Y_XwhgNdiN_an_dfT5I0sgp" data-animator-group="true" data-animator-type="1"><g id="el_3Y_XwhgNdiN">
		<g id="el_Z6HYVci0iJF">
			<path d="M354.9,360.1H369c0,0,4.9,16.9,11,15.8c6.1-1.1,0-23.2,0-23.2s5.9,1,7.7-5.3c1.8-6.3,4.2-12.3,6.4-12.5&#10;&#9;&#9;&#9;&#9;c2.2-0.2,4.1,0.9,4.1,0.9s2.5,1.6,6.7,1.1c4.2-0.5,4.9-5.1,4.9-5.1s1.5,4.8,5.1,3.9c3.6-0.9,4.8-6.5,4.8-6.5s8.4,6,10.6,3.1&#10;&#9;&#9;&#9;&#9;c2.2-2.9-2.5-10.1-2.5-10.1s5.4-0.8,3.4-4.7c-2-3.9-13.3-1.7-13.3-1.7s1.9-5.7-2.9-7.6c-4.9-1.9-11,6-11,6s0.7-12.2-5-10.6&#10;&#9;&#9;&#9;&#9;c-5.7,1.6-6.5,8.8-6.5,8.8s3.3-10.3-3.3-8.9c-6.6,1.4-7.8,9.6-7.8,9.6s-7.3-4.3-10.1,0c-2.8,4.3,0.8,9.3,0.8,9.3&#10;&#9;&#9;&#9;&#9;s-3.4-5.7-5.2-3.7c-1.8,2,0,18.3,0,18.3s-1.4-8.8-5.3-7.1c-3.9,1.8-1.9,19-1.9,19s-2.1-13.1-6.7-7.2&#10;&#9;&#9;&#9;&#9;C348.3,347.5,354.9,360.1,354.9,360.1z" id="el_dlwc5BfvqqZ"/>
		</g>
		<g id="el_ptEhSFHSyWG">
			<path d="M391.3,363.7c0,0,1-6.6,7.9-7.4c8.8-1,11.5,3.3,11.5,3.3s-0.2,5.9-9.1,7&#10;&#9;&#9;&#9;&#9;C392.7,367.7,391.3,363.7,391.3,363.7z" id="el_vtrgMs0wHuK"/>
			<g id="el_LB9MrOztUX5">
				<path d="M392.7,364.1c0.6-4,3.9-6.3,7.8-6.5c2.7-0.2,7.6,0.2,9,2.7c-0.6-1-0.2-0.1-0.8,1c-1.1,1.9-3.1,2.9-5.2,3.5&#10;&#9;&#9;&#9;&#9;&#9;c-2.6,0.7-6.1,1-8.6,0c-0.8-0.3-2.2-1.4-2.2-1.5c-0.7-1.7-3.4-0.9-2.7,0.7c1.7,4.4,8.2,4.4,12,3.9c3.6-0.5,10.8-3.3,10.1-8.3&#10;&#9;&#9;&#9;&#9;&#9;c-0.6-4.1-8.1-5-11-4.9c-5.2,0.2-10.2,3.1-11.1,8.6C389.7,365.1,392.4,365.9,392.7,364.1z" id="el_v9Mgd9q4zzf"/>
			</g>
		</g>
		<g id="el_jbOfN9DgszU">
			<path d="M402.1,356c0,0-2.9,2.9-1.7,6.5c0.9,2.8,4.3,3.4,4.3,3.4s3-1,4.2-2.6c1.7-2.3,1.8-3.8,1.8-3.8&#10;&#9;&#9;&#9;&#9;s-0.8-1.6-3.7-2.8C404.2,355.6,402.1,356,402.1,356z" id="el_F7wOTJlnn7s"/>
		</g>
		<g id="el_cLo2BoBN4j9">
			<path d="M421.3,354.3c0,0,1.4-6.6,8.4-6.9c8.9-0.4,11.2,4.1,11.2,4.1s-0.6,5.9-9.5,6.4S421.3,354.3,421.3,354.3z" id="el_IhumuS4hCpg"/>
			<g id="el_TM93dImfrj3">
				<path d="M422.6,354.7c1.7-7.2,12.9-7.9,17-2.5c-1-1.4,0.3-0.9-0.3-0.3c-0.3,0.2-0.4,1-0.6,1.3&#10;&#9;&#9;&#9;&#9;&#9;c-1.2,1.8-3.4,2.7-5.4,3.1c-2.5,0.5-9.7,0.7-10.7-2.3c-0.5-1.7-3.3-1-2.7,0.7c1.5,4.7,8.8,4.9,12.6,4.5c3.4-0.4,10.2-3,9.7-7.6&#10;&#9;&#9;&#9;&#9;&#9;c-0.4-4.1-7.8-5.4-10.8-5.5c-5.3-0.2-10.3,2.5-11.6,7.9C419.5,355.7,422.2,356.5,422.6,354.7z" id="el_ZA_jRU1NTOy"/>
			</g>
		</g>
		<g id="el_EDcQzUIE8cl">
			<path d="M432.6,347.3c0,0-3.1,2.7-2.1,6.4c0.7,2.9,4.1,3.7,4.1,3.7s3.1-0.8,4.4-2.3c1.9-2.1,2-3.6,2-3.6&#10;&#9;&#9;&#9;&#9;s-0.7-1.7-3.5-3.1C434.7,347.1,432.6,347.3,432.6,347.3z" id="el_HLRPX7wmQ7g"/>
		</g>
		<g id="el_-T9JJYcgKDY">
			
				<ellipse cx="395.4" cy="348.8" rx="8.6" ry="2.7" id="el_TCQLkWP118q"/>
			<g id="el_3DZfy0ejE8c">
				<g id="el_bPcJzqy-bdQ_an_cwUmpxR0i" data-animator-group="true" data-animator-type="1"><path d="M401.6,345c0.8,2.6-11.4,8.4-12.1,7.1c-0.8-1.6,10.7-8.5,12.4-6.5c1.2,1.4,3.2-0.6,2-2&#10;&#9;&#9;&#9;&#9;&#9;c-2.6-3-9,0.6-11.5,2.1c-2,1.2-7.6,4.7-5.8,7.9c1.9,3.3,8,0.1,10.2-1c2.5-1.3,8.5-4.7,7.4-8.4C403.8,342.6,401,343.3,401.6,345z&#10;&#9;&#9;&#9;&#9;&#9;" id="el_bPcJzqy-bdQ"/></g>
			</g>
		</g>
		<g id="el_L6Uro_oz8x5">
			
				<ellipse cx="426.4" cy="340.9" rx="8.6" ry="2.2" id="el_YMmlDVZ6qFy"/>
			<g id="el_rZM2etdrx-p">
				<g id="el_aTlgYPwdsk8_an_UAHHi1HOp" data-animator-group="true" data-animator-type="1"><path d="M433.6,339.5c-0.4,2.5-13.7,2.7-13.8,2.2c-0.1-0.8,13-3.3,13.9-1.1c0.7,1.7,3.1,0.2,2.4-1.4&#10;&#9;&#9;&#9;&#9;&#9;c-1.3-3.1-8-2.1-10.4-1.8c-2.1,0.3-9.7,1.1-9.3,4.7c0.4,3.4,7.4,2.6,9.5,2.4c2.5-0.3,9.7-0.8,10.2-4.3&#10;&#9;&#9;&#9;&#9;&#9;C436.6,338.5,433.9,337.7,433.6,339.5z" id="el_aTlgYPwdsk8"/></g>
			</g>
		</g>
		<g id="el_pS2vazW2cTS">
			<g id="el_o45Ty-Xkqx8">
				<path d="M372,361.9c-7.4-2.4-19-2.5-19.3,7.8c-0.4,10.6,12.2,14.5,20.8,14.9c1.8,0.1,1.8-2.7,0-2.8&#10;&#9;&#9;&#9;&#9;&#9;c-6.7-0.4-17.5-3-18-11.2c-0.5-8.8,10-7.9,15.8-6C373,365.1,373.7,362.4,372,361.9L372,361.9z" id="el_akxsjq27LB8"/>
			</g>
		</g>
		<g id="el_Mk5vPCG3n_O">
			<g id="el_i3cn5syNtRY">
				<path d="M362.4,377.9c3.1-2.2,6.3-4.5,8.8-7.3c1.2-1.4-0.8-3.3-2-2c-2.3,2.7-5.3,4.8-8.2,6.8&#10;&#9;&#9;&#9;&#9;&#9;C359.5,376.5,360.9,378.9,362.4,377.9L362.4,377.9z" id="el_6EUieC1__IO"/>
			</g>
		</g>
		<g id="el_N9Ij17GbJeu">
			<g id="el_IKjt5vXCR3J">
				<path d="M362.4,371c3,1.7,5.2,4.7,6.8,7.6c0.8,1.6,3.3,0.2,2.4-1.4c-1.8-3.4-4.5-6.7-7.8-8.6&#10;&#9;&#9;&#9;&#9;&#9;C362.3,367.7,360.8,370.1,362.4,371L362.4,371z" id="el_kSRVvhZX7Ea"/>
			</g>
		</g>
		<g id="el_abQb55HY9_j">
			<g id="el_xXtW-cC_hnZ">
				<path d="M439.1,364.6c1.6,5.7,3.3,11.7,5.1,17.2c3.5,11.1,0.6,26.7-8.5,34.4c-10.6,9-27.8,5.8-38.8-0.6&#10;&#9;&#9;&#9;&#9;&#9;c-8.6-5-19-15-20.6-25.4c-0.3-1.8-3-1-2.7,0.7c1.2,8.2,8.3,16.1,14.1,21.4c8.3,7.6,19.6,12.1,30.9,12.2c10.2,0,19.6-4,24.5-13.3&#10;&#9;&#9;&#9;&#9;&#9;c4.7-8.8,7.2-19.6,4.1-29.4c-1.6-5.1-3.6-12-5.3-17.9C441.3,362.1,438.6,362.8,439.1,364.6L439.1,364.6z" id="el_e_U9WBCYT0k"/>
			</g>
		</g>
		<g id="el_NANvbxT59Mx">
			<g id="el_0RuSKv69QeR">
				<path d="M413.8,355.5c6.1,2.3,13.4,5.5,17.6,10.6c1.6,1.9,3.1,4.5,3.6,7c0.1,0.8,0,1.4,0.1,2.2&#10;&#9;&#9;&#9;&#9;&#9;c0.1,0.7-0.9,0.5,0.5-0.3c-3.7,2.4-10.3,2.2-14,0.6c-1.6-0.7-3.1,1.7-1.4,2.4c4.7,2.1,11.3,2.2,16-0.2c2.6-1.3,2-4.2,1.2-6.7&#10;&#9;&#9;&#9;&#9;&#9;c-3.2-9.8-13.8-14.9-22.8-18.2C412.9,352.1,412.2,354.8,413.8,355.5L413.8,355.5z" id="el_sj8kGPLFBAf"/>
			</g>
		</g>
		<g id="el_ONH8ThpC3my">
			<g id="el_jM9sZBEP9_0">
				<g id="el_tyZ3c_XYhqX_an_oSMIz8kV4" data-animator-group="true" data-animator-type="1"><path d="M403.9,390c8.9,4.6,18.5,6.6,28.6,5.8c1.8-0.1,1.8-2.9,0-2.8c-9.5,0.7-18.6-1.1-27.1-5.5&#10;&#9;&#9;&#9;&#9;&#9;C403.7,386.8,402.3,389.2,403.9,390L403.9,390z" id="el_tyZ3c_XYhqX"/></g>
			</g>
		</g>
		<g id="el_Al8b1W8jpYn">
			<g id="el_1O5g4ixWLgh">
				<path d="M407.8,385.3c0.5-1.3,1-2.7,1.5-4c0.3-0.7-0.3-1.5-1-1.7c-0.8-0.2-1.5,0.3-1.7,1c-0.5,1.3-1,2.7-1.5,4&#10;&#9;&#9;&#9;&#9;&#9;c-0.3,0.7,0.3,1.5,1,1.7C406.9,386.5,407.6,386,407.8,385.3L407.8,385.3z" id="el_NAPwgRdq1he"/>
			</g>
		</g>
		<g id="el_K6aBDT3H-Lq">
			<g id="el_zWE3OvJERKh">
				<path d="M412.4,387c0.9-1.3,1.5-2.7,1.8-4.2c0.4-1.8-2.3-2.5-2.7-0.7c-0.3,1.3-0.8,2.4-1.5,3.5&#10;&#9;&#9;&#9;&#9;&#9;C409,387,411.4,388.5,412.4,387L412.4,387z" id="el_1-57vAT4Ovj"/>
			</g>
		</g>
		<g id="el_m5nG7OgmKkO">
			<g id="el_l4rZ4j8ibYP">
				<path d="M417.4,388c0.4-2,0.6-4,0.6-6c-0.1-1.8-2.9-1.8-2.8,0c0.1,1.8-0.1,3.5-0.5,5.2&#10;&#9;&#9;&#9;&#9;&#9;C414.3,389,417,389.8,417.4,388L417.4,388z" id="el_EVnNIwvTnPA"/>
			</g>
		</g>
		<g id="el_ybIb4RR-B76">
			<g id="el_gecdyJLk2Mz">
				<path d="M423.2,388.6c0.4-1.5,0.5-3.1,0.3-4.7c-0.1-0.8-0.6-1.4-1.4-1.4c-0.7,0-1.5,0.6-1.4,1.4&#10;&#9;&#9;&#9;&#9;&#9;c0.2,1.3,0.1,2.7-0.2,4C420.1,389.6,422.8,390.3,423.2,388.6L423.2,388.6z" id="el_pxR6HgsrnYk"/>
			</g>
		</g>
		<g id="el_pO5aEj8v82M">
			<g id="el_DWd3_2lZ55G">
				<path d="M433,389.8c-0.2-1.5-0.5-3-1.1-4.5c-0.3-0.7-0.9-1.2-1.7-1c-0.7,0.2-1.3,1-1,1.7c0.5,1.2,0.8,2.5,1,3.7&#10;&#9;&#9;&#9;&#9;&#9;c0.1,0.8,0.6,1.4,1.4,1.4C432.3,391.2,433.1,390.6,433,389.8L433,389.8z" id="el_P4btB2Eqfeh"/>
			</g>
		</g>
		<g id="el_BAr54EpLQML">
			<g id="el_W4tAWx-TMWy">
				<path d="M436.7,389.8c0.1-1.7-0.2-3.4-0.8-5.1c-0.6-1.7-3.3-1-2.7,0.7c0.5,1.4,0.7,2.8,0.7,4.3&#10;&#9;&#9;&#9;&#9;&#9;C433.9,391.6,436.7,391.6,436.7,389.8L436.7,389.8z" id="el_2Qqiq6IX_6z"/>
			</g>
		</g>
		<g id="el_bfGMOVBRY_-">
			<g id="el_PuZsw6FWIPP">
				<path d="M441.3,391.3c0.2-1.7,0.2-3.5,0-5.2c-0.1-1.8-3-1.8-2.8,0c0.1,1.7,0.1,3.5,0,5.2&#10;&#9;&#9;&#9;&#9;&#9;C438.3,393.1,441.1,393.1,441.3,391.3L441.3,391.3z" id="el_2Gqx0u2zGsi"/>
			</g>
		</g>
		<g id="el_m9zjvpFa7G1">
			<g id="el_N8yNXfMUWyL">
				<path d="M407.1,407c-0.2,2.4-0.1,4.7,0.5,7.1c0.4,1.8,3.1,1,2.7-0.7c-0.5-2.1-0.6-4.2-0.4-6.3&#10;&#9;&#9;&#9;&#9;&#9;C410.1,405.2,407.3,405.2,407.1,407L407.1,407z" id="el_iqOF409cJWc"/>
			</g>
		</g>
		<g id="el_GPuSyWAYk4f">
			<g id="el_elWhc4f-iLA">
				<path d="M414.2,409.3c0,2.3,0.6,4.4,1.8,6.3c1,1.5,3.4,0.1,2.4-1.4c-1-1.5-1.5-3.1-1.4-4.9&#10;&#9;&#9;&#9;&#9;&#9;C417.1,407.5,414.3,407.5,414.2,409.3L414.2,409.3z" id="el_dru46ntf0JJ"/>
			</g>
		</g>
		<g id="el_HMiSH_R8YC9">
			<g id="el_Wy0UHZhgpNw">
				<path d="M421.1,412c0.4,1.3,0.8,2.5,1.2,3.8c0.6,1.7,3.3,1,2.7-0.7c-0.4-1.3-0.8-2.5-1.2-3.8&#10;&#9;&#9;&#9;&#9;&#9;C423.3,409.6,420.6,410.3,421.1,412L421.1,412z" id="el_gTlVmoC9z8x"/>
			</g>
		</g>
		<g id="el_qT4eFOrHzRB">
			<g id="el_nCTRI2JFV2v">
				<path d="M428.6,412.7c0.2,1.1,0.4,2.3,0.6,3.4c0.1,0.7,1.1,1.2,1.7,1c0.8-0.2,1.1-1,1-1.7c-0.2-1.1-0.4-2.3-0.6-3.4&#10;&#9;&#9;&#9;&#9;&#9;c-0.1-0.7-1.1-1.2-1.7-1C428.8,411.2,428.5,412,428.6,412.7L428.6,412.7z" id="el_iZIqB67u__d"/>
			</g>
		</g>
		<g id="el_tAU7Mins34N">
			<g id="el_wy7JAqB6-NF">
				<path d="M434.6,408.9c0.2,1.5,0.3,3,0.2,4.5c-0.1,1.8,2.7,1.8,2.8,0c0.1-1.5,0-3-0.2-4.5c-0.1-0.8-0.6-1.4-1.4-1.4&#10;&#9;&#9;&#9;&#9;&#9;C435.4,407.5,434.5,408.2,434.6,408.9L434.6,408.9z" id="el_02Mg2mM3D2N"/>
			</g>
		</g>
		<g id="el_FuXm9rkJGH1">
			<g id="el_RSVgUaGXD1F">
				<path d="M368.9,353.6c1.6,6.4,2.1,15.6,7.9,19.8c2.5,1.7,6,3,7.9-0.1c1.9-3,0.9-7.8,0.4-11.1&#10;&#9;&#9;&#9;&#9;&#9;c-0.7-4.6-1.9-9.2-3.4-13.7c-0.8,0.5-1.6,0.9-2.3,1.4c2.1,2.1,5,2.4,7.3,0.3c2.8-2.6,2.3-6.5,1.8-9.9c-0.3-1.8-3-1-2.7,0.7&#10;&#9;&#9;&#9;&#9;&#9;c0.5,1.6,0.5,3.1,0,4.7c0,2.4-1.4,3.1-4.4,2.2c-1-1-2.8,0-2.3,1.4c1.8,5.7,3.6,11.9,3.8,17.9c0.1,3.6-0.4,6.8-4.5,3.8&#10;&#9;&#9;&#9;&#9;&#9;c-4.9-3.6-5.5-12.5-6.9-18.1C371.2,351.1,368.5,351.8,368.9,353.6L368.9,353.6z" id="el_GbmlkkEtSvG"/>
			</g>
		</g>
		<g id="el_M8DoW-HWiZr">
			<g id="el_eyzmHxfpWfE">
				<path d="M393.1,341.3c1.9-4.3-0.4-9-2.3-13c-0.8-1.6-3.2-0.2-2.4,1.4c1.3,2.8,3.7,7,2.3,10.1&#10;&#9;&#9;&#9;&#9;&#9;C389.9,341.5,392.4,342.9,393.1,341.3L393.1,341.3z" id="el_6_2OFNwwFdR"/>
			</g>
		</g>
		<g id="el_qWy3zI7FWWq">
			<g id="el_TD0-UxfVdmL">
				<path d="M360.4,360.6c-2-3.7-4.6-7.4-5.7-11.5c-0.5-1.8-1.1-7.3,2.4-4.9c0.7,0.5,1.3,1.7,1.7,2.5&#10;&#9;&#9;&#9;&#9;&#9;c0.8,1.5,2.8,0.4,2.6-1.1c-0.5-3.2-1.3-6.4-1.5-9.6c-0.1-1.2-0.3-3.1,0.3-4.2c2.2-4,4.3,1.4,4.9,3.4c0.6,1.7,3,1,2.7-0.7&#10;&#9;&#9;&#9;&#9;&#9;c-0.9-5.5-1.7-11,0.5-16.3c-0.7,0.1-1.5,0.2-2.2,0.3c1.3,1.3,2.1,2.8,2.3,4.6c0.4,1.8,3.1,1,2.7-0.7c-0.6-2.4-1.5-4-3-5.8&#10;&#9;&#9;&#9;&#9;&#9;c-0.5-0.6-1.9-0.5-2.2,0.3c-2.6,6-1.9,12.1-0.8,18.5c0.9-0.2,1.8-0.5,2.7-0.7c-0.8-2.3-1.4-5.4-3.9-6.6c-2-0.9-4.3-0.3-5.6,1.4&#10;&#9;&#9;&#9;&#9;&#9;c-3.3,4.2-0.4,12.5,0.3,17.1c0.9-0.4,1.7-0.7,2.6-1.1c-1.5-2.7-5.5-7.7-8.5-4c-4.8,5.8,2.5,16,5.2,20.9&#10;&#9;&#9;&#9;&#9;&#9;C358.9,363.6,361.3,362.2,360.4,360.6L360.4,360.6z" id="el_f_E6wqQW7oq"/>
			</g>
		</g>
		<g id="el_BLBsC9Y9YVLf">
			<g id="el_YN5yr0P47Bec">
				<path d="M385.7,311.2c0.2-1.2,0-3.6,0.6-4.6c0.9-1.2,4.3-0.9,5.3,0.2c1.1,1.1,1.7,3.1,1.8,4.6&#10;&#9;&#9;&#9;&#9;&#9;c0.2,1.8,2.7,1.8,2.8,0c0.2-2.4,0.3-5.4,2.9-6.6c2.2-1,3.8,0.5,4.6,2.5c0.7,1.7,0.5,3.8,0.8,5.6c0.2,1.3,2.5,1.4,2.7,0&#10;&#9;&#9;&#9;&#9;&#9;c0.4-2.6,2.5-6.8,5.4-7.2c5.9-0.9,4,6.9,3.8,9.8c-0.1,1.6,2.4,1.9,2.8,0.4c0.6-2.5,5.7-2.5,7.3-1.9c2.5,0.9,9.2,7.1,0.8,8.8&#10;&#9;&#9;&#9;&#9;&#9;c0.5,0.8,0.9,1.6,1.4,2.3c-1.2,1,4.6,6.7-2.6,6.1c-2.3-0.2-6.4-1.5-7.9-3.3c-0.9-1.1-2.8,0.1-2.3,1.4c1.1,2.9-1.4,6.9-4.3,2.9&#10;&#9;&#9;&#9;&#9;&#9;c-0.7-0.9-0.8-2.4-1.3-3.5c-0.5-1.3-2.7-0.6-2.6,0.7c0,0.5,0.1,1,0,1.4c-0.4,2.6-0.2,3-3.3,2.8c-3.3-0.3-2.9-1.4-4.4-3.9&#10;&#9;&#9;&#9;&#9;&#9;c-1-1.5-3.4-0.1-2.4,1.4c2,3.2,3.4,8.1,8.2,6.8c3.7-1,4.9-5.2,4.7-8.6c-0.9,0.2-1.7,0.5-2.6,0.7c1.3,3.1,2.8,8,7.5,6.8&#10;&#9;&#9;&#9;&#9;&#9;c3.1-0.8,4.3-5.6,3.3-8.3c-0.8,0.5-1.6,0.9-2.3,1.4c2.7,3.3,13.6,7.1,16,1.9c1.4-2.9-1.4-12-5.5-8.6c-1.2,1,0.1,2.6,1.4,2.3&#10;&#9;&#9;&#9;&#9;&#9;c6-1.2,7.4-8.4,3-12.4c-3.6-3.3-13.2-3.8-14.6,2c0.9,0.1,1.8,0.2,2.8,0.4c0.4-4.8,1.6-11.8-5-12.7c-4.9-0.6-8.9,5-9.6,9.3&#10;&#9;&#9;&#9;&#9;&#9;c0.9,0,1.8,0,2.7,0c-0.6-3.9-0.4-9.4-5.3-10.5c-5.9-1.3-8.1,5.1-8.4,9.7c0.9,0,1.9,0,2.8,0c-0.5-4.1-3.4-10.1-8.4-9.8&#10;&#9;&#9;&#9;&#9;&#9;c-4.7,0.3-4.6,6.1-5.1,9.5C382.7,312.9,385.5,312.9,385.7,311.2L385.7,311.2z" id="el_6vloRaKll3H_"/>
			</g>
		</g>
	</g></g>
	
	<g id="el_UcgXbeYjrybS_an_JEdDAOxDb" data-animator-group="true" data-animator-type="1"><g id="el_UcgXbeYjrybS">
		<path d="M351.4,419.2c-18.4,15.5-49.2,30.6-61.2,51.6c-10,17.4-13.8,47.7,6.6,59.5c14.1,8.2,32.5,2.3,47.1-1.3&#10;&#9;&#9;&#9;c23-5.7,46-12.9,68-21.8c4.2-1.7,21.8-7.8,17.7-14c-4.1-6.3-14.5-1.3-19.6-0.1c-1.2,0.3-2.5,0.6-3.7,0.9c4.9-0.6,12-2.1,14.5-6.8&#10;&#9;&#9;&#9;c4.5-8.1-7-7-11.2-5.9c-2.3,0.6-4.5,1.3-6.7,2.2c4.7-0.6,17.8-3.7,15.2-11c-2.1-4.6-8.4-2.6-11.6-2.1&#10;&#9;&#9;&#9;c-26.9,2.8-52.9,12.1-79.9,18.7" id="el_Hmkgdqchkp-R"/>
		<polygon points="386.8,518.5 391.8,539.1 444.5,527.7 420.6,508.6 415.6,508.8 425.2,520.5 405,526 396,514.1 &#9;&#9;" id="el_LdQbBh6hndxW"/>
		<g id="el_v4d4QwKtgCLw">
			<g id="el_aAAZjPSVKPaK">
				<path d="M390.4,515.8c1.5,6.4,2.7,12.9,3.9,19.4c0.1,0.8,1,1.1,1.7,1c15.7-3.9,31.4-7.8,47.1-11.6&#10;&#9;&#9;&#9;&#9;&#9;c1-0.3,1.4-1.6,0.6-2.3c-6.2-6.1-12.7-12.3-19.8-17.3c-1.5-1-2.9,1.4-1.4,2.4c7,4.9,13.2,11,19.3,16.9c0.2-0.8,0.4-1.6,0.6-2.3&#10;&#9;&#9;&#9;&#9;&#9;c-15.7,3.9-31.4,7.8-47.1,11.6c0.6,0.3,1.2,0.7,1.7,1c-1.2-6.5-2.4-13-3.9-19.4C392.7,513.3,390,514,390.4,515.8L390.4,515.8z" id="el_JuRFgIg8Izpc"/>
			</g>
		</g>
		<g id="el_Q0bfE7KY-4Uy">
			<g id="el_WaoDoFwqTwPx">
				<path d="M398.5,515c1.5,3.2,3.2,6.5,4.8,9.7c0.3,0.6,1,0.8,1.6,0.6c7.4-1.5,14.9-3,22.3-4.4&#10;&#9;&#9;&#9;&#9;&#9;c1.1-0.2,1.3-1.6,0.6-2.3c-3.3-3.6-6.6-7.2-9.6-10.9c-1.1-1.4-3.1,0.6-2,2c3.1,3.8,6.4,7.4,9.6,10.9c0.2-0.8,0.4-1.6,0.6-2.3&#10;&#9;&#9;&#9;&#9;&#9;c-7.4,1.5-14.9,3-22.3,4.4c0.5,0.2,1.1,0.4,1.6,0.6c-1.6-3.2-3.2-6.4-4.8-9.7C400.2,511.9,397.7,513.3,398.5,515L398.5,515z" id="el_Mtrgp_20LdAP"/>
			</g>
		</g>
		<g id="el_Ly6jVJHhbjH8">
			<g id="el_k50oVlHr6D2s">
				<path d="M350.4,419.8c-18.1,15.1-40.6,25.6-55.9,44c-11.5,13.9-17.8,35.6-11.6,53.2c3.2,9,10,15.9,19.1,18.8&#10;&#9;&#9;&#9;&#9;&#9;c11.3,3.6,23.7,0.8,34.9-2c27.1-6.7,53.6-14.8,79.5-25.3c4.5-1.8,17.3-6.3,14.9-13.4c-3.3-9.7-19.2-2.4-25.4-0.9&#10;&#9;&#9;&#9;&#9;&#9;c-1.8,0.4-1,2.9,0.7,2.7c4.7-0.6,10.1-1.7,13.7-5.2c1.9-1.9,3.9-5.4,2.4-8.1c-3.3-6.2-16-1.5-20.3,0.1c-1.7,0.7-1,3,0.7,2.7&#10;&#9;&#9;&#9;&#9;&#9;c5.3-0.7,14-2.6,16.2-8.3c2.9-7.8-6.4-8.6-11.4-7.8c-13.1,2.1-26.1,4.2-39,7.5c-14.3,3.7-28.4,8-42.7,11.5&#10;&#9;&#9;&#9;&#9;&#9;c-1.8,0.4-1,3.1,0.7,2.7c20.4-5.1,40.5-11.7,61.2-15.8c5.4-1.1,10.9-2,16.4-2.6c2.6-0.3,7.6-2.1,9.9-0.8c3.4,1.9,2.6,5,0.1,6.9&#10;&#9;&#9;&#9;&#9;&#9;c-1.4,1.1-3.1,1.8-4.7,2.3c-2.4,0.9-4.9,1.4-7.4,1.8c0.2,0.9,0.5,1.8,0.7,2.7c3.7-1.4,11.1-4.5,15.2-2.6c4.5,2-0.4,6.5-3,7.8&#10;&#9;&#9;&#9;&#9;&#9;c-2.9,1.5-6.4,2.1-9.6,2.5c0.2,0.9,0.5,1.8,0.7,2.7c4.1-1,8-2.5,12.1-3.3c2.4-0.5,5.5-1.1,7.8,0.2c3.4,1.9,2.1,4.4-0.2,6.3&#10;&#9;&#9;&#9;&#9;&#9;c-5.6,4.8-14.2,7.1-21,9.8c-23,8.9-46.7,15.7-70.7,21.6c-10.7,2.6-22.7,5.2-33.3,1.1c-9.1-3.5-15-11.5-17-20.9&#10;&#9;&#9;&#9;&#9;&#9;c-3.7-17.2,3.2-36.3,14.9-49c15.3-16.5,36-26.6,53.2-40.9C353.8,420.6,351.8,418.6,350.4,419.8L350.4,419.8z" id="el_xFORsPyNfpAw"/>
			</g>
		</g>
		<g id="el_2M7iwJMKC5vP">
			<g id="el_R_Yv1k5oHPUh">
				<path d="M372.1,478.5c-2,8.1-2.8,16.3-2.2,24.6c0.5,6.1,1,13.4,5.6,17.8c1.3,1.2,3.3-0.7,2-2&#10;&#9;&#9;&#9;&#9;&#9;c-4.8-4.6-4.8-13.3-5-19.5c-0.2-6.8,0.7-13.6,2.3-20.2C375.3,477.5,372.6,476.7,372.1,478.5L372.1,478.5z" id="el_8HKmp0sEc0yk"/>
			</g>
		</g>
		<g id="el_nmIAfpf3M5CE">
			<g id="el_at-YuP7dLLS8">
				<path d="M348,467.9c1.1,5.3,3.4,10.2,5.7,15.1c0.8,1.6,3.2,0.2,2.4-1.4c-2.2-4.7-4.4-9.3-5.4-14.4&#10;&#9;&#9;&#9;&#9;&#9;C350.4,465.3,347.7,466.1,348,467.9L348,467.9z" id="el_R7E5ln_EncJ7"/>
			</g>
		</g>
	</g></g>
</g></g>
</svg>