<?xml version="1.0" encoding="utf-8"?>
<!-- Generator: Adobe Illustrator 22.1.0, SVG Export Plug-In . SVG Version: 6.00 Build 0)  -->
<svg version="1.1" id="Capa_1" xmlns="http://www.w3.org/2000/svg" xmlns:xlink="http://www.w3.org/1999/xlink" x="0px" y="0px"
	 viewBox="0 0 80 80" style="enable-background:new 0 0 80 80;" xml:space="preserve">
<style type="text/css">
	.st0{fill:#5ABFED;}
	.st1{fill:#FFD16A;}
	.st2{fill:none;stroke:#222221;stroke-width:2;stroke-miterlimit:10;}
	.st3{fill:#222221;}
</style>
<path class="st0" d="M21.4,42.6c0,0-6.5-2.8-8.3,1.3s1.2,8.5,1.2,8.5s-4.9-3.2-7.4,1.5s1.2,7.6,4,10.4c2.8,2.8,15.7,12.2,28.5,4.6
	S58.3,52.6,61.2,40c3-13.1-6-33.6-14.2-29c-3,1.7-2.5,5.9-2.5,5.9s-5.7-2.7-7.8,0.4s0.7,8.4,0.7,8.4s-5.6-4.7-8.3-1.5s1,8.8,1,8.8
	s-5.8-3.5-8.4-0.8C19.1,35,21.4,42.6,21.4,42.6z"/>
<path class="st1" d="M11.9,69.8l16.4-12.1c0,0,27.8,2.4,30.9-0.5c3-2.9,8.2-17.9,8.2-17.9l7.9,5.7c0,0-21.5,33.4-31.9,33.7
	C32.9,78.9,11.9,69.8,11.9,69.8z"/>
<path class="st2" d="M58.9,55c2.5-3.5,4.4-7.6,5.9-12.2C69,30,61.9,8.8,53.3,12.6c-3.2,1.4-1.9,6.5-2.3,6.8
	c-0.4,0.3-6.2-4.3-8.5-1.5c-2.4,2.9,0.3,8.3,0,8.4c-0.4,0.1-5.1-5.2-8.2-2.2s0.6,8.1,0.2,8.9c-0.2,0.5-5.4-4-8.3-1.6
	S26,42,25.6,42.3c0,0-6.9-4.1-9-0.2s1.6,8.7,1.3,9.2c0,0-5.4-4.3-8.3,0.1s0.5,7.7,3,10.8c0.5,0.6,1.4,1.5,2.6,2.6"/>
<g>
	<g>
		<path class="st3" d="M64.9,40.6c2.6,2.8,5.2,5.5,7.8,8.3c0-0.5,0-0.9,0-1.4c-7.5,7.8-15.5,15.5-24.2,22
			c-5.6,4.2-10.8,7.7-18.2,5.9C24.1,74,18,70.4,13,66.5c0,0.5,0,0.9,0,1.4c4.6-3.8,9.8-7.4,14-11.6c1-0.9,1.2-0.7,0.7-0.6
			c0.7-0.1,1.8,0.2,2.5,0.2c3.4,0.3,6.7,0.5,10.1,0.6c7.1,0.3,15.5,1,22.3-1.4c3.5-1.3,8.2-7.8,4.2-10.9c-1-0.8-2.4,0.6-1.4,1.4
			c3.2,2.5-1.7,7.1-4.3,7.9c-3.2,0.9-6.8,1-10.2,1.2c-6.6,0.2-13.3-0.1-19.9-0.6c-3.7-0.3-4.1-0.2-7,2.2c-4.2,3.4-8.3,6.9-12.5,10.3
			c-0.4,0.3-0.4,1.1,0,1.4c5,3.9,10.8,7.3,17,9.1c6.9,2,11.9,0.4,17.6-3.5C56.3,66.7,65.5,57.8,74,49c0.4-0.4,0.4-1,0-1.4
			c-2.6-2.8-5.2-5.5-7.8-8.3C65.4,38.3,64,39.7,64.9,40.6L64.9,40.6z"/>
	</g>
</g>
<g>
	<g>
		<path class="st3" d="M9.8,8.2c-1.1,2.7-1.9,6.4,0,9c0.7,1,1.8,1.6,2.9,2.3c0.6,0.4,1.6,0.6,2.1,1.2c2,2.2,1.7,5.1,0.3,7.2
			c-0.7,1.1,1,2.1,1.7,1c1.7-2.5,2.7-5.8,0.7-8.5c-0.9-1.2-2.2-1.7-3.4-2.5c-3.7-2.2-3.9-5.6-2.4-9.3C12.2,7.6,10.3,7,9.8,8.2
			L9.8,8.2z"/>
	</g>
</g>
<g>
	<g>
		<path class="st3" d="M18.8,6.3c-1.2,2.7-1,5.3,0.5,7.8c0.8,1.3,2,2.2,3.1,3.4c2.8,3,2.6,5.7,1.4,9.4c-0.4,1.2,1.5,1.8,1.9,0.5
			c0.9-2.8,1.9-6.1,0.3-8.9c-2.2-3.8-8-5.7-5.5-11.2C21,6.1,19.3,5.1,18.8,6.3L18.8,6.3z"/>
	</g>
</g>
<g>
	<g>
		<path class="st3" d="M28.8,1.8c-1.6,1.9-2.2,4.1-1.6,6.6c0.7,2.8,6.1,7.1,4.7,9.8c-0.6,1.2,1.2,2.2,1.7,1c3.1-6.2-8.6-9.7-3.4-16
			C31,2.2,29.6,0.8,28.8,1.8L28.8,1.8z"/>
	</g>
</g>
<g>
	<g>
		<path class="st3" d="M49.9,30.4c1.8-1.1,4.4-2.2,6-0.3c0.8,1,2.3-0.4,1.4-1.4c-2.3-2.7-5.9-1.5-8.5,0
			C47.8,29.3,48.8,31.1,49.9,30.4L49.9,30.4z"/>
	</g>
</g>
</svg>
