<svg height='180px' version="1.1" id="el_oR3LHCjR4" xmlns="http://www.w3.org/2000/svg" xmlns:xlink="http://www.w3.org/1999/xlink" x="0px" y="0px" viewBox="0 0 800 800" style="enable-background:new 0 0 800 800;" xml:space="preserve"><style>@-webkit-keyframes kf_el_mRTA7id5P89_an_GB0NpRcVP{0%{-webkit-transform: translate(377.78045654296875px, 391.09925842285156px) rotate(0deg) translate(-377.78045654296875px, -391.09925842285156px);transform: translate(377.78045654296875px, 391.09925842285156px) rotate(0deg) translate(-377.78045654296875px, -391.09925842285156px);}50%{-webkit-transform: translate(377.78045654296875px, 391.09925842285156px) rotate(-1deg) translate(-377.78045654296875px, -391.09925842285156px);transform: translate(377.78045654296875px, 391.09925842285156px) rotate(-1deg) translate(-377.78045654296875px, -391.09925842285156px);}100%{-webkit-transform: translate(377.78045654296875px, 391.09925842285156px) rotate(0deg) translate(-377.78045654296875px, -391.09925842285156px);transform: translate(377.78045654296875px, 391.09925842285156px) rotate(0deg) translate(-377.78045654296875px, -391.09925842285156px);}}@keyframes kf_el_mRTA7id5P89_an_GB0NpRcVP{0%{-webkit-transform: translate(377.78045654296875px, 391.09925842285156px) rotate(0deg) translate(-377.78045654296875px, -391.09925842285156px);transform: translate(377.78045654296875px, 391.09925842285156px) rotate(0deg) translate(-377.78045654296875px, -391.09925842285156px);}50%{-webkit-transform: translate(377.78045654296875px, 391.09925842285156px) rotate(-1deg) translate(-377.78045654296875px, -391.09925842285156px);transform: translate(377.78045654296875px, 391.09925842285156px) rotate(-1deg) translate(-377.78045654296875px, -391.09925842285156px);}100%{-webkit-transform: translate(377.78045654296875px, 391.09925842285156px) rotate(0deg) translate(-377.78045654296875px, -391.09925842285156px);transform: translate(377.78045654296875px, 391.09925842285156px) rotate(0deg) translate(-377.78045654296875px, -391.09925842285156px);}}@-webkit-keyframes kf_el_H5gJyQSvpi8_an_ucCoMrPZA{0%{-webkit-transform: translate(467.5782165527344px, 222.65557861328125px) rotate(0deg) translate(-467.5782165527344px, -222.65557861328125px);transform: translate(467.5782165527344px, 222.65557861328125px) rotate(0deg) translate(-467.5782165527344px, -222.65557861328125px);}50%{-webkit-transform: translate(467.5782165527344px, 222.65557861328125px) rotate(-1deg) translate(-467.5782165527344px, -222.65557861328125px);transform: translate(467.5782165527344px, 222.65557861328125px) rotate(-1deg) translate(-467.5782165527344px, -222.65557861328125px);}100%{-webkit-transform: translate(467.5782165527344px, 222.65557861328125px) rotate(0deg) translate(-467.5782165527344px, -222.65557861328125px);transform: translate(467.5782165527344px, 222.65557861328125px) rotate(0deg) translate(-467.5782165527344px, -222.65557861328125px);}}@keyframes kf_el_H5gJyQSvpi8_an_ucCoMrPZA{0%{-webkit-transform: translate(467.5782165527344px, 222.65557861328125px) rotate(0deg) translate(-467.5782165527344px, -222.65557861328125px);transform: translate(467.5782165527344px, 222.65557861328125px) rotate(0deg) translate(-467.5782165527344px, -222.65557861328125px);}50%{-webkit-transform: translate(467.5782165527344px, 222.65557861328125px) rotate(-1deg) translate(-467.5782165527344px, -222.65557861328125px);transform: translate(467.5782165527344px, 222.65557861328125px) rotate(-1deg) translate(-467.5782165527344px, -222.65557861328125px);}100%{-webkit-transform: translate(467.5782165527344px, 222.65557861328125px) rotate(0deg) translate(-467.5782165527344px, -222.65557861328125px);transform: translate(467.5782165527344px, 222.65557861328125px) rotate(0deg) translate(-467.5782165527344px, -222.65557861328125px);}}@-webkit-keyframes kf_el_clU4zTIze8R_an_ioRXeYPZj{0%{-webkit-transform: translate(526.1612091064453px, 190.9936752319336px) translate(-526.1612091064453px, -190.9936752319336px) translate(0px, 0px);transform: translate(526.1612091064453px, 190.9936752319336px) translate(-526.1612091064453px, -190.9936752319336px) translate(0px, 0px);}50%{-webkit-transform: translate(526.1612091064453px, 190.9936752319336px) translate(-526.1612091064453px, -190.9936752319336px) translate(0px, -3px);transform: translate(526.1612091064453px, 190.9936752319336px) translate(-526.1612091064453px, -190.9936752319336px) translate(0px, -3px);}100%{-webkit-transform: translate(526.1612091064453px, 190.9936752319336px) translate(-526.1612091064453px, -190.9936752319336px) translate(0px, 0px);transform: translate(526.1612091064453px, 190.9936752319336px) translate(-526.1612091064453px, -190.9936752319336px) translate(0px, 0px);}}@keyframes kf_el_clU4zTIze8R_an_ioRXeYPZj{0%{-webkit-transform: translate(526.1612091064453px, 190.9936752319336px) translate(-526.1612091064453px, -190.9936752319336px) translate(0px, 0px);transform: translate(526.1612091064453px, 190.9936752319336px) translate(-526.1612091064453px, -190.9936752319336px) translate(0px, 0px);}50%{-webkit-transform: translate(526.1612091064453px, 190.9936752319336px) translate(-526.1612091064453px, -190.9936752319336px) translate(0px, -3px);transform: translate(526.1612091064453px, 190.9936752319336px) translate(-526.1612091064453px, -190.9936752319336px) translate(0px, -3px);}100%{-webkit-transform: translate(526.1612091064453px, 190.9936752319336px) translate(-526.1612091064453px, -190.9936752319336px) translate(0px, 0px);transform: translate(526.1612091064453px, 190.9936752319336px) translate(-526.1612091064453px, -190.9936752319336px) translate(0px, 0px);}}@-webkit-keyframes kf_el_8iOck0GeGkG_an_pjd9lr7AV{0%{-webkit-transform: translate(379.68634033203125px, 196.60899353027344px) translate(-379.68634033203125px, -196.60899353027344px) translate(0px, 0px);transform: translate(379.68634033203125px, 196.60899353027344px) translate(-379.68634033203125px, -196.60899353027344px) translate(0px, 0px);}50%{-webkit-transform: translate(379.68634033203125px, 196.60899353027344px) translate(-379.68634033203125px, -196.60899353027344px) translate(0px, -3px);transform: translate(379.68634033203125px, 196.60899353027344px) translate(-379.68634033203125px, -196.60899353027344px) translate(0px, -3px);}100%{-webkit-transform: translate(379.68634033203125px, 196.60899353027344px) translate(-379.68634033203125px, -196.60899353027344px) translate(0px, 0px);transform: translate(379.68634033203125px, 196.60899353027344px) translate(-379.68634033203125px, -196.60899353027344px) translate(0px, 0px);}}@keyframes kf_el_8iOck0GeGkG_an_pjd9lr7AV{0%{-webkit-transform: translate(379.68634033203125px, 196.60899353027344px) translate(-379.68634033203125px, -196.60899353027344px) translate(0px, 0px);transform: translate(379.68634033203125px, 196.60899353027344px) translate(-379.68634033203125px, -196.60899353027344px) translate(0px, 0px);}50%{-webkit-transform: translate(379.68634033203125px, 196.60899353027344px) translate(-379.68634033203125px, -196.60899353027344px) translate(0px, -3px);transform: translate(379.68634033203125px, 196.60899353027344px) translate(-379.68634033203125px, -196.60899353027344px) translate(0px, -3px);}100%{-webkit-transform: translate(379.68634033203125px, 196.60899353027344px) translate(-379.68634033203125px, -196.60899353027344px) translate(0px, 0px);transform: translate(379.68634033203125px, 196.60899353027344px) translate(-379.68634033203125px, -196.60899353027344px) translate(0px, 0px);}}@-webkit-keyframes kf_el_i7Mm36OQN6_an_jv4b17oY3{0%{-webkit-transform: translate(414.7956848144531px, 401.3109302520752px) rotate(0deg) translate(-414.7956848144531px, -401.3109302520752px);transform: translate(414.7956848144531px, 401.3109302520752px) rotate(0deg) translate(-414.7956848144531px, -401.3109302520752px);}50%{-webkit-transform: translate(414.7956848144531px, 401.3109302520752px) rotate(3deg) translate(-414.7956848144531px, -401.3109302520752px);transform: translate(414.7956848144531px, 401.3109302520752px) rotate(3deg) translate(-414.7956848144531px, -401.3109302520752px);}100%{-webkit-transform: translate(414.7956848144531px, 401.3109302520752px) rotate(0deg) translate(-414.7956848144531px, -401.3109302520752px);transform: translate(414.7956848144531px, 401.3109302520752px) rotate(0deg) translate(-414.7956848144531px, -401.3109302520752px);}}@keyframes kf_el_i7Mm36OQN6_an_jv4b17oY3{0%{-webkit-transform: translate(414.7956848144531px, 401.3109302520752px) rotate(0deg) translate(-414.7956848144531px, -401.3109302520752px);transform: translate(414.7956848144531px, 401.3109302520752px) rotate(0deg) translate(-414.7956848144531px, -401.3109302520752px);}50%{-webkit-transform: translate(414.7956848144531px, 401.3109302520752px) rotate(3deg) translate(-414.7956848144531px, -401.3109302520752px);transform: translate(414.7956848144531px, 401.3109302520752px) rotate(3deg) translate(-414.7956848144531px, -401.3109302520752px);}100%{-webkit-transform: translate(414.7956848144531px, 401.3109302520752px) rotate(0deg) translate(-414.7956848144531px, -401.3109302520752px);transform: translate(414.7956848144531px, 401.3109302520752px) rotate(0deg) translate(-414.7956848144531px, -401.3109302520752px);}}#el_oR3LHCjR4 *{-webkit-animation-duration: 1s;animation-duration: 1s;-webkit-animation-iteration-count: 1;animation-iteration-count: 1;-webkit-animation-play-state: running;animation-play-state: running;-webkit-animation-timing-function: cubic-bezier(0, 0, 1, 1);animation-timing-function: cubic-bezier(0, 0, 1, 1);}#el_dKVt-BIzI8{fill: #0e8195;}#el_bwnomaFE6k{fill: #69BAE8;}#el_0n-xv8L3kx{fill: #FFFFFF;}#el_TGbbOeBU94{fill: #37436B;}#el__QqX2W94hG{fill: #37436B;}#el__metdvJgpV{fill: #FFFFFF;}#el_iDUqEykfJw{fill: #37436B;}#el_kqaDHgeyFIh{fill: #37436B;}#el_qWQe_FDQ0xV{fill: #37436B;}#el_2g4RpNicUD8{fill: #37436B;}#el_NFPkDTqiDX7{fill: #37436B;}#el_gbRSLS8fLGe{fill: #37436B;}#el_AJbRa_JJiAz{fill: #37436B;}#el_pPJkjVND8Xz{fill: #37436B;}#el_AQBDtSg2-CG{fill: #37436B;}#el_4yslivi02AL{fill: #37436B;}#el_iLfgG1T8Fk-{fill: #0e8195;}#el_pAoVBBUTu0b{fill: #37436B;}#el_fXm7_Kkc34Q{fill: #FFFFFF;}#el_7RR-HduVLfm{fill: #37436B;}#el_9R2e8lUdbAP{fill: #37436B;}#el_Z3-ofNgBAKy{fill: #37436B;}#el_-1tbo5P7A0U{fill: #37436B;}#el_mFIH92l45g6{fill: #37436B;}#el_r74TZU8O8pG{fill: #37436B;}#el_QvLx1M18fSr{fill: #37436B;}#el_7jdunPdIEkW{fill: #37436B;}#el_GlkJdPNndTo{fill: #37436B;}#el_o0rVoS8sApr{fill: #37436B;}#el_YmXRcXZPkZp{fill: #37436B;}#el_kF19DqO1H1M{fill: #37436B;}#el_DMnIGP0sVRI{fill: #37436B;}#el_Pa9d7HZR3PA{fill: #37436B;}#el_M-CKtYS0MJ3{fill: #37436B;}#el_G5Bhpoqyn7j{fill: #37436B;}#el_Aggs-G_gxm2{fill: #37436B;}#el_1My1CQUyIIR{fill: #37436B;}#el_VkaWhLYTESm{fill: #37436B;}#el_A4WFYQWWkIA{fill: #37436B;}#el_cFgdm-V9kA8{fill: #37436B;}#el_W3ZzE79NYbP{fill: #37436B;}#el_i7Mm36OQN6_an_jv4b17oY3{-webkit-animation-fill-mode: backwards;animation-fill-mode: backwards;-webkit-transform: translate(414.7956848144531px, 401.3109302520752px) rotate(0deg) translate(-414.7956848144531px, -401.3109302520752px);transform: translate(414.7956848144531px, 401.3109302520752px) rotate(0deg) translate(-414.7956848144531px, -401.3109302520752px);-webkit-animation-timing-function: cubic-bezier(0.42, 0, 0.58, 1);animation-timing-function: cubic-bezier(0.42, 0, 0.58, 1);}#el_oR3LHCjR4:hover #el_i7Mm36OQN6_an_jv4b17oY3{-webkit-animation-name: kf_el_i7Mm36OQN6_an_jv4b17oY3;animation-name: kf_el_i7Mm36OQN6_an_jv4b17oY3;}#el_8iOck0GeGkG_an_pjd9lr7AV{-webkit-animation-fill-mode: backwards;animation-fill-mode: backwards;-webkit-transform: translate(379.68634033203125px, 196.60899353027344px) translate(-379.68634033203125px, -196.60899353027344px) translate(0px, 0px);transform: translate(379.68634033203125px, 196.60899353027344px) translate(-379.68634033203125px, -196.60899353027344px) translate(0px, 0px);-webkit-animation-timing-function: cubic-bezier(0, 0, 1, 1);animation-timing-function: cubic-bezier(0, 0, 1, 1);}#el_oR3LHCjR4:hover #el_8iOck0GeGkG_an_pjd9lr7AV{-webkit-animation-name: kf_el_8iOck0GeGkG_an_pjd9lr7AV;animation-name: kf_el_8iOck0GeGkG_an_pjd9lr7AV;}#el_clU4zTIze8R_an_ioRXeYPZj{-webkit-animation-fill-mode: backwards;animation-fill-mode: backwards;-webkit-transform: translate(526.1612091064453px, 190.9936752319336px) translate(-526.1612091064453px, -190.9936752319336px) translate(0px, 0px);transform: translate(526.1612091064453px, 190.9936752319336px) translate(-526.1612091064453px, -190.9936752319336px) translate(0px, 0px);-webkit-animation-timing-function: cubic-bezier(0, 0, 1, 1);animation-timing-function: cubic-bezier(0, 0, 1, 1);}#el_oR3LHCjR4:hover #el_clU4zTIze8R_an_ioRXeYPZj{-webkit-animation-name: kf_el_clU4zTIze8R_an_ioRXeYPZj;animation-name: kf_el_clU4zTIze8R_an_ioRXeYPZj;}#el_H5gJyQSvpi8_an_ucCoMrPZA{-webkit-animation-fill-mode: backwards;animation-fill-mode: backwards;-webkit-transform: translate(467.5782165527344px, 222.65557861328125px) rotate(0deg) translate(-467.5782165527344px, -222.65557861328125px);transform: translate(467.5782165527344px, 222.65557861328125px) rotate(0deg) translate(-467.5782165527344px, -222.65557861328125px);-webkit-animation-timing-function: cubic-bezier(0, 0, 1, 1);animation-timing-function: cubic-bezier(0, 0, 1, 1);}#el_oR3LHCjR4:hover #el_H5gJyQSvpi8_an_ucCoMrPZA{-webkit-animation-name: kf_el_H5gJyQSvpi8_an_ucCoMrPZA;animation-name: kf_el_H5gJyQSvpi8_an_ucCoMrPZA;}#el_mRTA7id5P89_an_GB0NpRcVP{-webkit-animation-fill-mode: backwards;animation-fill-mode: backwards;-webkit-transform: translate(377.78045654296875px, 391.09925842285156px) rotate(0deg) translate(-377.78045654296875px, -391.09925842285156px);transform: translate(377.78045654296875px, 391.09925842285156px) rotate(0deg) translate(-377.78045654296875px, -391.09925842285156px);-webkit-animation-timing-function: cubic-bezier(0, 0, 1, 1);animation-timing-function: cubic-bezier(0, 0, 1, 1);}#el_oR3LHCjR4:hover #el_mRTA7id5P89_an_GB0NpRcVP{-webkit-animation-name: kf_el_mRTA7id5P89_an_GB0NpRcVP;animation-name: kf_el_mRTA7id5P89_an_GB0NpRcVP;}</style>

<g id="el_i7Mm36OQN6_an_jv4b17oY3" data-animator-group="true" data-animator-type="1"><g id="el_i7Mm36OQN6">
	<g id="el_yA4pvb48gn">
		<path d="M487.3,584.2c-0.4,18.8,11,116.5-15.1,118.8c-32.8,2.9-107.2-48.3-117.8-60.6c-11.1-13-31.4-56.7-31.3-62&#10;&#9;&#9;&#9;L115,640.3C173.2,752.7,316.9,785.8,443.6,787C570.4,788.3,689,648.5,689,648.5S547.7,600.1,487.3,584.2z" id="el_dKVt-BIzI8"/>
	</g>
	<path d="M258,367.2c0,0,5.3,56.6,13,81.2s43.5,39.7,43.5,39.7l3.2,96.5c25.5,14.8,40.3,66.7,59.7,89.1&#10;&#9;&#9;c23,26.7,63.9,48.5,90,49.1c18.7,0.4,24.3-15,34.1-34c7.1-13.8-19.1-135.5-10.2-159.2c12.5-33.6,30.5-25.4,42.7-63.5&#10;&#9;&#9;c5.9-18.6,22.2-63.5,24.8-101.8c3.2-47.6-0.2-95-0.2-95s27.6-160-45.8-223.7C483,19.6,430,13.3,377.5,16.3&#10;&#9;&#9;C175.9,28.2,220,284.7,220,284.7s-17.4,10.6-22.4,39.5C187.3,383.3,258,367.2,258,367.2z" id="el_bwnomaFE6k"/>
	<g id="el_Muc6vq_2K0">
		<g id="el_vgLXEhtZ2N">
			<path d="M334.1,260.7c0,0,8.2-31.3,41.7-31.3c42.8-0.1,53.3,22.1,53.3,22.1s-4.2,28.3-47.3,28.6&#10;&#9;&#9;&#9;&#9;S334.1,260.7,334.1,260.7z" id="el_0n-xv8L3kx"/>
			<g id="el_Wwa_8vgoXl">
				<path d="M339,262c5.5-19.6,23.7-28.4,43.1-27.5c11.6,0.5,24.3,3.2,34,10.2c2.4,1.7,9,10.3,8.5,7.4&#10;&#9;&#9;&#9;&#9;&#9;c-0.5-2.8-3.5,6.5-5.5,9c-7.5,9.3-19.9,12.7-31.3,13.7c-11.8,1-44.3,0.9-48.7-15.4c-1.7-6.3-11.4-3.6-9.7,2.7&#10;&#9;&#9;&#9;&#9;&#9;c5.9,21.9,41.1,24.2,58.4,22.8c15.5-1.2,47.3-11.5,46.4-32.7c-0.8-19-35.9-26.4-49.2-27.5c-24.8-1.9-48.5,9.4-55.6,34.7&#10;&#9;&#9;&#9;&#9;&#9;C327.5,265.6,337.2,268.2,339,262z" id="el_TGbbOeBU94"/>
			</g>
		</g>
		<path d="M392.7,229.5c0,0-15.4,12.6-11.7,30.3c3,14,18.7,18.8,18.7,18.8s15-3.1,21.6-10c9.5-9.9,10.5-17.1,10.5-17.1&#10;&#9;&#9;&#9;s-3-8.2-16.2-15.5C403.1,229,392.7,229.5,392.7,229.5z" id="el__QqX2W94hG"/>
	</g>
	<g id="el_BFlfQBwJ_U">
		<g id="el_4g4NIKR01l">
			<path d="M484.9,253c0,0,7.4-29.8,39.2-30.3c40.6-0.7,50.8,20.3,50.8,20.3s-3.6,26.9-44.5,27.7S484.9,253,484.9,253z" id="el__metdvJgpV"/>
			<g id="el_nv3Q4bdIo0">
				<path d="M489.6,254c6-22.4,29-28.8,49.8-25.5c9.3,1.4,19.1,4.4,26.1,10.9c4.2,3.8,4.1,7.8,4.6,3&#10;&#9;&#9;&#9;&#9;&#9;c-1.7,15.7-21.6,22.1-34.5,23.4c-11.2,1.1-41.8,1.4-46.2-14.3c-1.7-5.9-10.7-2.7-9,3.2c5.9,20.7,39.5,22.1,55.9,20.6&#10;&#9;&#9;&#9;&#9;&#9;c14.4-1.3,44.3-11.5,43.3-31.2c-0.9-18.9-35.5-25.3-48.7-25.9c-23.2-1-44.4,10.5-50.7,33.9C478.6,258,488,259.9,489.6,254z" id="el_iDUqEykfJw"/>
			</g>
		</g>
		<path d="M537.5,222.7c0,0-14.5,12.1-10.7,28.8c3,13.2,18,17.6,18,17.6s14.2-3.1,20.3-9.7c8.8-9.5,9.7-16.4,9.7-16.4&#10;&#9;&#9;&#9;s-3-7.7-15.6-14.5C547.3,222.1,537.5,222.7,537.5,222.7z" id="el_kqaDHgeyFIh"/>
	</g>
	<g id="el_x0shIndAZYP">
		<g id="el_AOnZ_9YMLq6">
			<path d="M231.1,275.7c-1.8-14.7-2.9-29.6-3.4-44.5c-0.8-21.5-1.1-43.9,4.2-65c6.4-25.3,18.5-49.5,34.3-70.2&#10;&#9;&#9;&#9;&#9;c22.9-30,55.2-51.1,92.2-58.9c24.7-5.1,50.4-4.4,75.1-0.1c26.5,4.6,53.3,12.4,76.7,26.2c20.4,12,37.9,29.6,40,54.2&#10;&#9;&#9;&#9;&#9;c2,23.9,3.4,47.9,3.5,71.9c0,1.1,0,2.3,0,3.4c-0.1,6.5,10.1,6.5,10.2,0c0.2-18-0.8-36.1-1.9-54.1c-0.9-14.3-0.8-29.2-6.5-42.5&#10;&#9;&#9;&#9;&#9;c-4.6-10.9-12.2-20.4-21.2-28.2c-20.9-18.1-47.8-28.6-74.2-35.5c-26.6-6.9-54.4-10.7-81.9-8.4c-41.8,3.5-80.5,21.7-109,52.6&#10;&#9;&#9;&#9;&#9;c-20.5,22.2-35.8,49.6-44.7,78.4c-5.3,17.1-7,35-7.3,52.9c-0.3,21.3,1,42.7,3.3,63.9c0.1,1.3,0.3,2.5,0.4,3.8&#10;&#9;&#9;&#9;&#9;C221.7,282.1,231.9,282.1,231.1,275.7L231.1,275.7z" id="el_qWQe_FDQ0xV"/>
		</g>
	</g>
	<g id="el_8iOck0GeGkG_an_pjd9lr7AV" data-animator-group="true" data-animator-type="0"><g id="el_8iOck0GeGkG">
		<g id="el_ez5X9NIaHPk">
			<path d="M345.4,214c-1.7,1.4,0.2-0.1,0.9-0.6c1.4-1,2.9-2,4.4-3c5.2-3.4,10.6-6.5,16.2-9.3&#10;&#9;&#9;&#9;&#9;c15.8-7.9,33.2-13.1,51.1-12.8c6.5,0.1,6.5-10,0-10.2c-28.2-0.5-57.5,11.4-79.7,28.7C333.1,210.8,340.3,217.9,345.4,214&#10;&#9;&#9;&#9;&#9;L345.4,214z" id="el_2g4RpNicUD8"/>
		</g>
	</g></g>
	<g id="el_clU4zTIze8R_an_ioRXeYPZj" data-animator-group="true" data-animator-type="0"><g id="el_clU4zTIze8R">
		<g id="el_g_Rl4rZ1vBE">
			<path d="M494.7,189.1c19.9,0,43.3,2.2,60.4,13c5.4,3.4,10.4-5.1,5-8.6c-12.1-7.7-26.7-10.7-40.7-12.6&#10;&#9;&#9;&#9;&#9;c-8.2-1.1-16.5-1.8-24.7-1.8C488.3,179.2,488.3,189.1,494.7,189.1L494.7,189.1z" id="el_NFPkDTqiDX7"/>
		</g>
	</g></g>
	<g id="el_HJCacaY2Zto">
		<g id="el_Vtjele_1m8u">
			<path d="M329.5,485.1c-3.6,30.4-7.2,60.7-10.9,91.1c-0.3,2.3-0.7,4.3,0,6.5c1.2,3.8,2.9,7.4,4.5,11&#10;&#9;&#9;&#9;&#9;c6.2,14.6,13.4,28.8,21.5,42.5c21.8,36.7,52.4,74.4,94.8,87.4c18,5.5,41.5,8.3,55.2-7.4c12.8-14.7,14.5-36.8,13.9-55.4&#10;&#9;&#9;&#9;&#9;c-0.7-18.9-3.8-38.7-10.9-56.3c-1.6-4-3.6-7.6-5.6-11.4c-4.3-8-7.2-16.7-9-25.6c-2.6-12.3-3-25.3-1.4-37.8c0.2-1.7,0.5-3.4,0.9-5&#10;&#9;&#9;&#9;&#9;c1.4-6.4-8.4-9.1-9.8-2.7c-4.6,20.6-2.4,44.2,5,63.8c3.6,9.5,9.2,17.9,12.4,27.5c2.8,8.4,4.8,17.2,6.2,26c3,18.8,4.2,39.8-2.3,58&#10;&#9;&#9;&#9;&#9;c-2.5,7-6.7,13.6-13.2,17.3c-7.8,4.4-17.8,3.5-26.4,2.1c-42.4-7-73.8-42.5-95.7-77c-9-14.2-17-29.2-23.9-44.6&#10;&#9;&#9;&#9;&#9;c-2.2-4.8-3.4-7.7-5.3-12.5c-0.4-1-0.7-2.1-1.2-3.1c-0.5-0.9-0.4,1.7,0.1,0c1.4-4.7,1.3-10.5,1.8-15.4c1.1-9.3,2.2-18.7,3.3-28&#10;&#9;&#9;&#9;&#9;c1.9-16.1,3.8-32.2,5.8-48.3c0.1-1,0.2-1.9,0.3-2.9C340.4,478.6,330.2,478.7,329.5,485.1L329.5,485.1z" id="el_gbRSLS8fLGe"/>
		</g>
	</g>
	<g id="el_DwxUjruE63-">
		<g id="el_6-4LLQOwR2r">
			<path d="M319,577.9c-19,5.4-38,10.6-57.1,15.8c-32.7,8.9-65.5,17.7-98.5,25.5c-5.9,1.4-11.9,2.7-17.9,3.9&#10;&#9;&#9;&#9;&#9;c-2.3,0.5-4.5,0.9-6.8,1.3c-2.7,0.4-1.9,0.3-4.3,0.6c-5.9,0.6-9.8,3.4-9.3,9.8c0.5,6.7,4.4,13.2,7.9,18.8&#10;&#9;&#9;&#9;&#9;c5.8,9.2,12.7,17.7,20.1,25.6c21.4,23.3,47.3,42.7,74.9,58.1c37.2,20.8,78.2,34.3,120.4,40.1c51.3,7,104.3,2.8,154.9-7.8&#10;&#9;&#9;&#9;&#9;c40.5-8.5,80.1-22.3,116.2-42.5c24.3-13.5,47.2-30,67.1-49.5c9.6-9.4,19.2-19.6,26.4-31c0.3-0.5,0.6-1,0.9-1.5&#10;&#9;&#9;&#9;&#9;c1.7-2.8,0.1-6.6-3-7.5c-25.7-6.7-51.4-13.5-77.1-20.2c-40.8-10.7-81.5-21.4-122.3-32.1c-9.4-2.5-18.7-4.9-28.1-7.4&#10;&#9;&#9;&#9;&#9;c-6.3-1.7-9,8.1-2.7,9.8c25.7,6.7,51.4,13.5,77.1,20.2c40.8,10.7,81.5,21.4,122.3,32.1c9.4,2.5,18.7,4.9,28.1,7.4&#10;&#9;&#9;&#9;&#9;c-1-2.5-2-5-3-7.5c-4.8,7.9-9.1,12.7-15.7,20c-15.7,17.4-34,32.4-53.5,45.3c-30.5,20.1-64.1,35-99.1,45.4&#10;&#9;&#9;&#9;&#9;c-47.4,14.1-98.1,21.1-147.6,19.9c-77.7-1.9-155.2-30-212.9-82.5c-15.1-13.8-30.3-29.4-39.2-47.9c-0.8-1.7-0.4-0.6-1.1-2.8&#10;&#9;&#9;&#9;&#9;c-0.4-1.1-0.7-2.2-0.9-3.3c0.3,1.9,0.1,0.3,0-0.2c-0.1-1.4,0,0.3-0.1,0.1c-0.3-0.6,0.6-0.9-0.1,0.2c0.3-0.4-1,0.9-1,0.9&#10;&#9;&#9;&#9;&#9;c0.2-0.1-2,0.3-0.4,0.2c1.9-0.1,3.7-0.4,5.6-0.6c4.7-0.7,9.3-1.6,13.9-2.6c55.4-11.8,110.1-27.7,164.6-43c1.3-0.4,2.7-0.8,4-1.1&#10;&#9;&#9;&#9;&#9;C327.9,585.9,325.3,576.1,319,577.9L319,577.9z" id="el_AJbRa_JJiAz"/>
		</g>
	</g>
	<g id="el_rcLlxFB7AnX">
		<g id="el_4cCKiNH8Wka">
			<path d="M223.6,302.5c11.7,11.3,23.3,22.6,35,33.9c4.7,4.5,11.9-2.6,7.2-7.2c-11.7-11.3-23.3-22.6-35-33.9&#10;&#9;&#9;&#9;&#9;C226,290.7,218.9,297.9,223.6,302.5L223.6,302.5z" id="el_pPJkjVND8Xz"/>
		</g>
	</g>
	<g id="el_mAPSWTbd6UQ">
		<g id="el_Uhq9RtWtkQF">
			<path d="M244.1,297.5c-1.5,4-3.1,7.9-4.7,11.8c-2.3,5.3-4.6,11.9-8.3,16.3c-4.2,5,2.9,12.2,7.2,7.2&#10;&#9;&#9;&#9;&#9;c7.6-9,11.6-21.8,15.7-32.7C256.1,294.1,246.3,291.5,244.1,297.5L244.1,297.5z" id="el_AQBDtSg2-CG"/>
		</g>
	</g>
	<g id="el_8eNRN4MkqaT">
		<g id="el_XH4ATJSsjso">
			<path d="M554.1,297.5c-2.9,14.9-2,31-1.1,46c0.6,9.7,1.2,18.8,0,28.4c-1.3,9.9-3.4,19.7-5.9,29.4&#10;&#9;&#9;&#9;&#9;c-5.3,21.3-12.1,42.2-19.7,62.7c-3,8.1-6.1,16.2-9.5,24.2c-2.1,5-4.1,10.5-7.3,15c-5.4,7.7-16.6,10.5-25.2,12.3&#10;&#9;&#9;&#9;&#9;c-10.1,2.1-20.5,2.9-30.8,2.7c-18-0.4-36.4-7.1-53.4-12.8c-26.2-8.8-52.1-20.4-75.6-34.9c-8-5-15.8-10.4-22.7-16.9&#10;&#9;&#9;&#9;&#9;c-7.1-6.8-11.4-14.4-15.1-23.4c-8.5-20.7-13.5-43.2-16-65.5c-0.2-1.4-0.3-2.8-0.4-4.1c-0.2-2.9-2.1-4.9-5.1-5.1&#10;&#9;&#9;&#9;&#9;c-22.1-1.4-52.9-9-62.3-31.8c-4.3-10.3-4.7-21.6,4.8-29c8-6.2,18.9-8.6,28.7-10c6.6-0.9,13.4-1.4,20.1-1.1&#10;&#9;&#9;&#9;&#9;c6.5,0.2,6.5-9.9,0-10.2c-17.9-0.7-39.8,1.8-54.4,12.9c-11,8.3-14.5,21.1-11,34.2c4.9,18.4,18.6,29.8,35.7,36.6&#10;&#9;&#9;&#9;&#9;c12,4.8,25.4,7.7,38.3,8.5c-1.7-1.7-3.4-3.4-5.1-5.1c1.5,17.6,5,35.4,10,52.3c3.6,12.3,7.7,25.7,14.8,36.5&#10;&#9;&#9;&#9;&#9;c5,7.5,11.6,13.6,18.7,19c26.8,20.7,59.8,34.9,91.6,46c14.2,5,28.9,9.4,43.8,12.3c19.8,3.8,43.2,2.1,61.9-5.6&#10;&#9;&#9;&#9;&#9;c8.1-3.3,15.1-8.1,19.2-16.1c3.2-6.2,5.8-12.6,8.5-19.1c8.1-19.8,15.1-40,21.2-60.4c6-20,11.7-40.7,12.9-61.6&#10;&#9;&#9;&#9;&#9;c0.7-12-1.1-24.2-1.3-36.2c-0.1-8.5,0.1-17,1-25.4c0.2-1.3,0,0.2,0.2-1.4c0-0.2,0.1-0.5,0.1-0.7&#10;&#9;&#9;&#9;&#9;C565.1,293.8,555.4,291.1,554.1,297.5L554.1,297.5z" id="el_4yslivi02AL"/>
		</g>
	</g>
	<g id="el_H5gJyQSvpi8_an_ucCoMrPZA" data-animator-group="true" data-animator-type="1"><g id="el_H5gJyQSvpi8">
		<path d="M469.4,234.1c-3.8,10.9-39.4,90.2-39.4,90.2s70.9,21.9,74.6,1.2C508.4,304.8,480.7,201.1,469.4,234.1z" id="el_iLfgG1T8Fk-"/>
		<g id="el_fHLtTvup5kq">
			<path d="M464.5,232.8c-4.1,11.7-9.6,23-14.6,34.4c-6.5,14.9-13.1,29.7-19.8,44.5c-1.5,3.4-3,6.7-4.5,10.1&#10;&#9;&#9;&#9;&#9;c-1.4,3-0.3,6.4,3,7.5c12,3.7,24.4,6.6,36.9,8.5c12.1,1.9,35.9,6.2,42.9-7.8c2.6-5.2,1.7-12.2,1.1-17.7&#10;&#9;&#9;&#9;&#9;c-0.9-8.3-2.4-16.6-4.2-24.8c-3.7-17.2-8.4-34.8-16.1-50.6c-2.5-5.1-6-12.1-11.9-13.8C470.5,220.9,466.4,227.3,464.5,232.8&#10;&#9;&#9;&#9;&#9;c-2.2,6.2,7.6,8.8,9.8,2.7c0.4-1.1,0.4-1.3,1.1-2.3c0.6-1,0.6-0.5,0.2-0.5c0.6,0-1.4-0.1-1.5,0c0.2-0.2,0.7,0.4,0.4,0.1&#10;&#9;&#9;&#9;&#9;c2.8,3.2,5.2,7.3,7.3,11.9c6.3,14.1,10.3,29.5,13.7,44.5c1.6,7.1,3,14.3,3.8,21.5c0.3,2.6,0.5,5.1,0.6,7.7c0,1.2,0.1,2.3,0,3.5&#10;&#9;&#9;&#9;&#9;c0,0.5,0,1-0.1,1.5c-0.1,1.4,0.1,0.1-0.1,0.8c-0.4,1.6-0.7,2.2-2.5,3.1c-2,1.1-5,1.6-7.5,1.8c-7.5,0.7-15.2-0.2-22.6-1.4&#10;&#9;&#9;&#9;&#9;c-12.1-1.9-24.2-4.8-35.9-8.4c1,2.5,2,5,3,7.5c11.2-24.9,22.4-49.8,33.1-74.9c2.3-5.5,4.8-10.9,6.8-16.5&#10;&#9;&#9;&#9;&#9;C476.4,229.3,466.6,226.6,464.5,232.8z" id="el_pAoVBBUTu0b"/>
		</g>
	</g></g>
	<g id="el_mRTA7id5P89_an_GB0NpRcVP" data-animator-group="true" data-animator-type="1"><g id="el_mRTA7id5P89">
		<g id="el_bDLMIfwLml6">
			<path d="M400.7,400.5c14.4,10.3,27.2,17.6,45,17.5c14.8-0.1,29.8-1.3,43.5-7s25.8-16.5,30-30.6&#10;&#9;&#9;&#9;&#9;c0.8-2.6,1.2-5.7-0.6-7.7c-2.1-2.4-5.9-1.8-9-1.1c-14.5,3.6-29,7.2-43.5,11c-1.8,0.5-3.7,0.9-5.6,0.8c-2.5-0.2-4.8-1.5-7-2.7&#10;&#9;&#9;&#9;&#9;c-10.9-6-52.2-21.5-65.9-15C373.7,372.3,393.5,395.3,400.7,400.5z" id="el_fXm7_Kkc34Q"/>
			<g id="el_lKR5QXa1IWp">
				<path d="M398.2,404.8c11,7.8,22.8,15,36.4,17.2c14.2,2.3,30.2,0.9,44.1-2.4c12.9-3.1,25.5-9.3,34.5-19.3&#10;&#9;&#9;&#9;&#9;&#9;c6.1-6.7,17.8-23.9,7.8-31.9c-5.3-4.3-12.7-1.5-18.5-0.1c-8.2,2-16.4,4.1-24.6,6.2c-4.1,1-8.2,2.1-12.3,3.1&#10;&#9;&#9;&#9;&#9;&#9;c-4.2,1.1-6.5,0.5-10.2-1.4c-3.3-1.7-6.6-3.2-10-4.6c-9.4-3.9-19.2-7.2-29.1-9.6c-8.6-2.1-18.5-4.2-27.3-2&#10;&#9;&#9;&#9;&#9;&#9;C363.9,366.2,387.2,396.6,398.2,404.8c5.1,3.8,10.1-4.8,5-8.6c-5.4-4-10.1-10.1-13.2-16c-2.8-5.2-3.8-10,3.1-10.9&#10;&#9;&#9;&#9;&#9;&#9;c7.1-1,14.8,0.9,21.7,2.6c8.4,2.1,16.6,4.8,24.6,7.9c6.3,2.5,13.1,7.5,19.7,8.4c5.8,0.8,12.1-1.8,17.7-3.2&#10;&#9;&#9;&#9;&#9;&#9;c6.9-1.8,13.8-3.5,20.8-5.3c2.2-0.5,15.7-5.4,17.3-3.4c1,1.2-1.8,6.5-2.4,7.7c-1.3,2.7-2.9,5.2-4.8,7.6&#10;&#9;&#9;&#9;&#9;&#9;c-7.1,8.8-17.3,14.5-28.1,17.5c-13.1,3.7-28.8,5.4-42.3,3.3c-12.8-1.9-23.7-8.9-34-16.2C398,392.5,393,401.1,398.2,404.8z" id="el_7RR-HduVLfm"/>
			</g>
		</g>
		<g id="el_NY5IAz4YAoH">
			<g id="el_LVw7ggO-lWa">
				<path d="M416.9,369.3c-1.5,13.7-2.2,27.5-2.2,41.3c0,6.4,9.9,6.4,9.9,0c0-13.8,0.7-27.6,2.2-41.3&#10;&#9;&#9;&#9;&#9;&#9;C427.5,362.9,417.5,363,416.9,369.3L416.9,369.3z" id="el_9R2e8lUdbAP"/>
			</g>
		</g>
		<g id="el_e5IbgA3LHrQ">
			<g id="el_jlqc6-cTnak">
				<path d="M455.6,387.7c1.2,8.8-0.6,18.1-1.3,26.8c-0.5,6.4,9.5,6.3,9.9,0c0.7-9.8,2.3-19.7,0.9-29.5&#10;&#9;&#9;&#9;&#9;&#9;C464.3,378.8,454.8,381.5,455.6,387.7L455.6,387.7z" id="el_Z3-ofNgBAKy"/>
			</g>
		</g>
		<g id="el_Tfgu2vywNKk">
			<g id="el_Vwuvh-UUC2e">
				<path d="M488.7,384.3c-2.5,0.3-4.2-0.4-5.1-2.1c0.1,0.4,0.2,0.8,0.3,1.2c0,0.8,0.3,1.6,0.4,2.3&#10;&#9;&#9;&#9;&#9;&#9;c0.4,2.4,0.5,4.9,0.8,7.3c0.4,4.3,0.6,8.8,1.4,13.1c1.2,6.3,10.7,3.6,9.6-2.6c-1-5.5,0.8-31.9-10-28.7&#10;&#9;&#9;&#9;&#9;&#9;C480,376.5,482.6,386.1,488.7,384.3L488.7,384.3z" id="el_-1tbo5P7A0U"/>
			</g>
		</g>
	</g></g>
	<g id="el_PlzywW0_yS1">
		<g id="el_pa4kpeJ1JJB">
			<path d="M250,200.4c6.5,0,6.5-10.2,0-10.2S243.5,200.4,250,200.4L250,200.4z" id="el_mFIH92l45g6"/>
		</g>
	</g>
	<g id="el_LQ1eGP5xWLf">
		<g id="el_Er4JCJZHlqb">
			<path d="M274.1,161.6c6.5,0,6.5-10.2,0-10.2C267.6,151.5,267.6,161.6,274.1,161.6L274.1,161.6z" id="el_r74TZU8O8pG"/>
		</g>
	</g>
	<g id="el_RQ7sey-i4_o">
		<g id="el_VyfUDRMMplZ">
			<path d="M273.2,191.8c6.5,0,6.5-10.2,0-10.2S266.7,191.8,273.2,191.8L273.2,191.8z" id="el_QvLx1M18fSr"/>
		</g>
	</g>
	<g id="el_YSbVRhm2hHt">
		<g id="el_OBWp5qppy_k">
			<path d="M275.8,117.7c6.5,0,6.5-10.2,0-10.2C269.3,107.6,269.3,117.7,275.8,117.7L275.8,117.7z" id="el_7jdunPdIEkW"/>
		</g>
	</g>
	<g id="el_WCFROalDDON">
		<g id="el_oWGZNN0lmi0">
			<path d="M295.6,83.3c6.5,0,6.5-10.2,0-10.2C289.1,73.1,289.1,83.3,295.6,83.3L295.6,83.3z" id="el_GlkJdPNndTo"/>
		</g>
	</g>
	<g id="el_ScQlrlvnUtu">
		<g id="el_Kg8JNrGTJs_">
			<path d="M311.1,103.9c6.5,0,6.5-10.2,0-10.2C304.6,93.8,304.6,103.9,311.1,103.9L311.1,103.9z" id="el_o0rVoS8sApr"/>
		</g>
	</g>
	<g id="el_dqCsmPoC4Aq">
		<g id="el_foyat6l_U-o">
			<path d="M345.6,65.2c6.5,0,6.5-10.2,0-10.2C339,55,339,65.2,345.6,65.2L345.6,65.2z" id="el_YmXRcXZPkZp"/>
		</g>
	</g>
	<g id="el_-zvhmbvn2ep">
		<g id="el_uQjnVOABlxQ">
			<path d="M379.2,66.1c6.5,0,6.5-10.2,0-10.2C372.6,55.9,372.6,66.1,379.2,66.1L379.2,66.1z" id="el_kF19DqO1H1M"/>
		</g>
	</g>
	<g id="el_9OTaV3W2fYU">
		<g id="el_S2byucjZYsR">
			<path d="M411,80.7c6.5,0,6.5-10.2,0-10.2S404.5,80.7,411,80.7L411,80.7z" id="el_DMnIGP0sVRI"/>
		</g>
	</g>
	<g id="el_fvrDi3BRXjK">
		<g id="el_UKRgZk4NJxh">
			<path d="M448,55.7c6.5,0,6.5-10.2,0-10.2C441.5,45.6,441.5,55.7,448,55.7L448,55.7z" id="el_Pa9d7HZR3PA"/>
		</g>
	</g>
	<g id="el_8txuEqcU-Zs">
		<g id="el_44ks3Pu5SUw">
			<path d="M251.7,243.4c6.5,0,6.5-10.2,0-10.2C245.2,233.3,245.2,243.4,251.7,243.4L251.7,243.4z" id="el_M-CKtYS0MJ3"/>
		</g>
	</g>
	<g id="el_YgBssQ_YZxP">
		<g id="el_rKG_J5hHPwI">
			<path d="M491.1,65.2c6.5,0,6.5-10.2,0-10.2C484.5,55,484.5,65.2,491.1,65.2L491.1,65.2z" id="el_G5Bhpoqyn7j"/>
		</g>
	</g>
	<g id="el_JpaEWXxmn3J">
		<g id="el_Llzzs0oz4Pn">
			<path d="M301.4,604.1c7.2,14.8,13.5,31,22.7,44.8c9.1,13.7,21.3,25.8,32,38.2c4.3,4.9,11.4-2.3,7.2-7.2&#10;&#9;&#9;&#9;&#9;c-10.5-12.1-22.8-24-31.4-37.6c-8.5-13.5-14.7-28.9-21.7-43.3C307.3,593.1,298.5,598.2,301.4,604.1L301.4,604.1z" id="el_Aggs-G_gxm2"/>
		</g>
	</g>
	<g id="el_frMABOOiCDQ">
		<g id="el_MyXPbPRuB5C">
			<path d="M502.5,742.9c21.5-15.1,26.8-43.7,28-68.3c1.4-29.2-4.9-58.3-17.7-84.4c-2.9-5.9-11.6-0.7-8.8,5.1&#10;&#9;&#9;&#9;&#9;c11.5,23.5,17.2,49.6,16.5,75.8c-0.6,21.4-4,49.8-23.1,63.1C492,737.9,497.1,746.7,502.5,742.9L502.5,742.9z" id="el_1My1CQUyIIR"/>
		</g>
	</g>
	<g id="el_BEqk-HXGt0D">
		<g id="el_b5-q-J4bTwh">
			<path d="M278.4,229.5c6.5,0,6.5-10.2,0-10.2S271.9,229.5,278.4,229.5L278.4,229.5z" id="el_VkaWhLYTESm"/>
		</g>
	</g>
	<g id="el_qS4XByh4JAQ">
		<g id="el_oMM1ZrPC8Gm">
			<path d="M278.4,265.8c6.5,0,6.5-10.2,0-10.2C271.9,255.7,271.9,265.8,278.4,265.8L278.4,265.8z" id="el_A4WFYQWWkIA"/>
		</g>
	</g>
	<g id="el_Xa6hDDRV-lt">
		<g id="el_1JH5DVBJqtf">
			<path d="M285.3,301.1c6.5,0,6.5-10.2,0-10.2C278.8,291,278.8,301.1,285.3,301.1L285.3,301.1z" id="el_cFgdm-V9kA8"/>
		</g>
	</g>
	<g id="el_QyoqYHewLog">
		<g id="el_dkwQPXmymrv">
			<path d="M458.5,492.2c12.7-6.8,26.9-14.5,41.7-11.6c6.2,1.2,8.9-8.4,2.6-9.6c-17.8-3.4-34.1,4.4-49.4,12.6&#10;&#9;&#9;&#9;&#9;C447.9,486.7,452.9,495.2,458.5,492.2L458.5,492.2z" id="el_W3ZzE79NYbP"/>
		</g>
	</g>
</g></g>
</svg>