<?xml version="1.0" encoding="utf-8"?>
<!-- Generator: Adobe Illustrator 22.1.0, SVG Export Plug-In . SVG Version: 6.00 Build 0)  -->
<svg version="1.1" id="Capa_1" xmlns="http://www.w3.org/2000/svg" xmlns:xlink="http://www.w3.org/1999/xlink" x="0px" y="0px"
	 viewBox="0 0 500 320" style="enable-background:new 0 0 500 320;" xml:space="preserve">
<style type="text/css">
	.st0{opacity:0.5;fill:#DAE6EA;enable-background:new    ;}
	.st1{clip-path:url(#SVGID_2_);}
	.st2{fill:#FFFFFF;}
	.st3{clip-path:url(#SVGID_4_);}
	.st4{clip-path:url(#SVGID_6_);}
	.st5{clip-path:url(#SVGID_8_);}
	.st6{clip-path:url(#SVGID_10_);}
	.st7{clip-path:url(#SVGID_12_);}
	.st8{clip-path:url(#SVGID_14_);}
	.st9{clip-path:url(#SVGID_16_);}
	.st10{clip-path:url(#SVGID_18_);}
	.st11{clip-path:url(#SVGID_20_);}
	.st12{clip-path:url(#SVGID_22_);}
	.st13{clip-path:url(#SVGID_24_);}
	.st14{clip-path:url(#SVGID_26_);}
	.st15{clip-path:url(#SVGID_28_);}
	.st16{clip-path:url(#SVGID_30_);}
	.st17{clip-path:url(#SVGID_32_);}
	.st18{clip-path:url(#SVGID_34_);}
	.st19{clip-path:url(#SVGID_36_);}
	.st20{clip-path:url(#SVGID_38_);}
	.st21{clip-path:url(#SVGID_40_);}
	.st22{clip-path:url(#SVGID_42_);}
	.st23{clip-path:url(#SVGID_44_);}
	.st24{clip-path:url(#SVGID_46_);}
	.st25{clip-path:url(#SVGID_48_);}
	.st26{clip-path:url(#SVGID_50_);}
	.st27{clip-path:url(#SVGID_52_);}
	.st28{clip-path:url(#SVGID_54_);}
	.st29{clip-path:url(#SVGID_56_);}
	.st30{clip-path:url(#SVGID_58_);}
	.st31{clip-path:url(#SVGID_60_);}
	.st32{clip-path:url(#SVGID_62_);}
	.st33{clip-path:url(#SVGID_64_);}
	.st34{clip-path:url(#SVGID_66_);}
	.st35{clip-path:url(#SVGID_68_);}
	.st36{clip-path:url(#SVGID_70_);}
	.st37{clip-path:url(#SVGID_72_);}
	.st38{clip-path:url(#SVGID_74_);}
	.st39{clip-path:url(#SVGID_76_);}
	.st40{clip-path:url(#SVGID_78_);}
	.st41{clip-path:url(#SVGID_80_);}
	.st42{clip-path:url(#SVGID_82_);}
	.st43{clip-path:url(#SVGID_84_);}
	.st44{clip-path:url(#SVGID_86_);}
	.st45{clip-path:url(#SVGID_88_);}
	.st46{clip-path:url(#SVGID_90_);}
</style>
<path class="st0" d="M43,34.1c37.5-17,53.5,25.3,67.4,39.2C132.9,96,187,116.2,241,68.4s111.3-55.6,157.3-34.3s77.3,64.1,80.7,114.7
	s-4,127.9-84.7,138.6s-81.8-37.4-130-35.6c-48.2,1.8-39.4,19.7-80.7,37.1c-54,22.8-171.3,22.8-141.8-75.6
	c18.5-61.6-4.2-90.9-12-117.9C22.4,69.2,16.7,46,43,34.1z"/>
<g>
	<g>
		<defs>
			<path id="SVGID_1_" d="M43,34.1c37.5-17,47,27.2,70.2,35.6S187,116.2,241,68.4s111.3-55.6,157.3-34.3s77.3,64.1,80.7,114.7
				s-4,127.9-84.7,138.6s-81.8-37.4-130-35.6c-48.2,1.8-39.4,19.7-80.7,37.1c-54,22.8-171.3,22.8-141.8-75.6
				c18.5-61.6-4.2-90.9-12-117.9C22.4,69.2,16.7,46,43,34.1z"/>
		</defs>
		<clipPath id="SVGID_2_">
			<use xlink:href="#SVGID_1_"  style="overflow:visible;"/>
		</clipPath>
		<g class="st1">
			<g>
				<path class="st2" d="M36,222.9c49.8,0,99.5,1.4,149.3,1.4c1.6,0,1.6-2.5,0-2.5c-49.8,0-99.5-1.4-149.3-1.4
					C34.4,220.4,34.4,222.9,36,222.9L36,222.9z"/>
			</g>
		</g>
	</g>
	<g>
		<defs>
			<path id="SVGID_3_" d="M43,34.1c37.5-17,47,27.2,70.2,35.6S187,116.2,241,68.4s111.3-55.6,157.3-34.3s77.3,64.1,80.7,114.7
				s-4,127.9-84.7,138.6s-81.8-37.4-130-35.6c-48.2,1.8-39.4,19.7-80.7,37.1c-54,22.8-171.3,22.8-141.8-75.6
				c18.5-61.6-4.2-90.9-12-117.9C22.4,69.2,16.7,46,43,34.1z"/>
		</defs>
		<clipPath id="SVGID_4_">
			<use xlink:href="#SVGID_3_"  style="overflow:visible;"/>
		</clipPath>
		<g class="st3">
			<g>
				<path class="st2" d="M96.8,213.7c29.5,0,58.9,1.9,88.3,1.9c1.6,0,1.6-2.5,0-2.5c-29.5,0-58.9-1.9-88.3-1.9
					C95.2,211.2,95.2,213.7,96.8,213.7L96.8,213.7z"/>
			</g>
		</g>
	</g>
	<g>
		<defs>
			<path id="SVGID_5_" d="M43,34.1c37.5-17,47,27.2,70.2,35.6S187,116.2,241,68.4s111.3-55.6,157.3-34.3s77.3,64.1,80.7,114.7
				s-4,127.9-84.7,138.6s-81.8-37.4-130-35.6c-48.2,1.8-39.4,19.7-80.7,37.1c-54,22.8-171.3,22.8-141.8-75.6
				c18.5-61.6-4.2-90.9-12-117.9C22.4,69.2,16.7,46,43,34.1z"/>
		</defs>
		<clipPath id="SVGID_6_">
			<use xlink:href="#SVGID_5_"  style="overflow:visible;"/>
		</clipPath>
		<g class="st4">
			<g>
				<path class="st2" d="M61.1,223c0,23,0,46,0,69c0,1.6,2.5,1.6,2.5,0c0-23,0-46,0-69C63.6,221.4,61.1,221.4,61.1,223L61.1,223z"/>
			</g>
		</g>
	</g>
	<g>
		<defs>
			<path id="SVGID_7_" d="M43,34.1c37.5-17,47,27.2,70.2,35.6S187,116.2,241,68.4s111.3-55.6,157.3-34.3s77.3,64.1,80.7,114.7
				s-4,127.9-84.7,138.6s-81.8-37.4-130-35.6c-48.2,1.8-39.4,19.7-80.7,37.1c-54,22.8-171.3,22.8-141.8-75.6
				c18.5-61.6-4.2-90.9-12-117.9C22.4,69.2,16.7,46,43,34.1z"/>
		</defs>
		<clipPath id="SVGID_8_">
			<use xlink:href="#SVGID_7_"  style="overflow:visible;"/>
		</clipPath>
		<g class="st5">
			<g>
				<path class="st2" d="M63.3,241.2c5.2,0,10.4,0,15.7,0c1.6,0,1.6-2.5,0-2.5c-5.2,0-10.4,0-15.7,0
					C61.7,238.7,61.7,241.2,63.3,241.2L63.3,241.2z"/>
			</g>
		</g>
	</g>
	<g>
		<defs>
			<path id="SVGID_9_" d="M43,34.1c37.5-17,47,27.2,70.2,35.6S187,116.2,241,68.4s111.3-55.6,157.3-34.3s77.3,64.1,80.7,114.7
				s-4,127.9-84.7,138.6s-81.8-37.4-130-35.6c-48.2,1.8-39.4,19.7-80.7,37.1c-54,22.8-171.3,22.8-141.8-75.6
				c18.5-61.6-4.2-90.9-12-117.9C22.4,69.2,16.7,46,43,34.1z"/>
		</defs>
		<clipPath id="SVGID_10_">
			<use xlink:href="#SVGID_9_"  style="overflow:visible;"/>
		</clipPath>
		<g class="st6">
			<g>
				<path class="st2" d="M65,246.9c40.1,0,80.1,1.4,120.2,1.4c1.6,0,1.6-2.5,0-2.5c-40.1,0-80.1-1.4-120.2-1.4
					C63.4,244.4,63.4,246.9,65,246.9L65,246.9z"/>
			</g>
		</g>
	</g>
	<g>
		<defs>
			<path id="SVGID_11_" d="M43,34.1c37.5-17,47,27.2,70.2,35.6S187,116.2,241,68.4s111.3-55.6,157.3-34.3s77.3,64.1,80.7,114.7
				s-4,127.9-84.7,138.6s-81.8-37.4-130-35.6c-48.2,1.8-39.4,19.7-80.7,37.1c-54,22.8-171.3,22.8-141.8-75.6
				c18.5-61.6-4.2-90.9-12-117.9C22.4,69.2,16.7,46,43,34.1z"/>
		</defs>
		<clipPath id="SVGID_12_">
			<use xlink:href="#SVGID_11_"  style="overflow:visible;"/>
		</clipPath>
		<g class="st7">
			<g>
				<path class="st2" d="M52,279.2c20.1,0,40.2,0,60.2,0c1.6,0,1.6-2.5,0-2.5c-20.1,0-40.2,0-60.2,0C50.4,276.7,50.4,279.2,52,279.2
					L52,279.2z"/>
			</g>
		</g>
	</g>
	<g>
		<defs>
			<path id="SVGID_13_" d="M43,34.1c37.5-17,47,27.2,70.2,35.6S187,116.2,241,68.4s111.3-55.6,157.3-34.3s77.3,64.1,80.7,114.7
				s-4,127.9-84.7,138.6s-81.8-37.4-130-35.6c-48.2,1.8-39.4,19.7-80.7,37.1c-54,22.8-171.3,22.8-141.8-75.6
				c18.5-61.6-4.2-90.9-12-117.9C22.4,69.2,16.7,46,43,34.1z"/>
		</defs>
		<clipPath id="SVGID_14_">
			<use xlink:href="#SVGID_13_"  style="overflow:visible;"/>
		</clipPath>
		<g class="st8">
			<g>
				<path class="st2" d="M110.8,278.2c0,9.2,0,18.5,0,27.8c0,1.6,2.5,1.6,2.5,0c0-9.2,0-18.5,0-27.8
					C113.2,276.6,110.8,276.6,110.8,278.2L110.8,278.2z"/>
			</g>
		</g>
	</g>
	<g>
		<defs>
			<path id="SVGID_15_" d="M43,34.1c37.5-17,47,27.2,70.2,35.6S187,116.2,241,68.4s111.3-55.6,157.3-34.3s77.3,64.1,80.7,114.7
				s-4,127.9-84.7,138.6s-81.8-37.4-130-35.6c-48.2,1.8-39.4,19.7-80.7,37.1c-54,22.8-171.3,22.8-141.8-75.6
				c18.5-61.6-4.2-90.9-12-117.9C22.4,69.2,16.7,46,43,34.1z"/>
		</defs>
		<clipPath id="SVGID_16_">
			<use xlink:href="#SVGID_15_"  style="overflow:visible;"/>
		</clipPath>
		<g class="st9">
			<g>
				<path class="st2" d="M112.8,290.9c26.6,0,53.2,1.4,79.8,1.4c1.6,0,1.6-2.5,0-2.5c-26.6,0-53.2-1.4-79.8-1.4
					C111.1,288.4,111.1,290.9,112.8,290.9L112.8,290.9z"/>
			</g>
		</g>
	</g>
	<g>
		<defs>
			<path id="SVGID_17_" d="M43,34.1c37.5-17,47,27.2,70.2,35.6S187,116.2,241,68.4s111.3-55.6,157.3-34.3s77.3,64.1,80.7,114.7
				s-4,127.9-84.7,138.6s-81.8-37.4-130-35.6c-48.2,1.8-39.4,19.7-80.7,37.1c-54,22.8-171.3,22.8-141.8-75.6
				c18.5-61.6-4.2-90.9-12-117.9C22.4,69.2,16.7,46,43,34.1z"/>
		</defs>
		<clipPath id="SVGID_18_">
			<use xlink:href="#SVGID_17_"  style="overflow:visible;"/>
		</clipPath>
		<g class="st10">
			<g>
				<path class="st2" d="M123.4,289.8c-3.5,3.5-7,7-10.5,10.5c-1.1,1.1,0.6,2.9,1.8,1.8c3.5-3.5,7-7,10.5-10.5
					C126.3,290.4,124.5,288.6,123.4,289.8L123.4,289.8z"/>
			</g>
		</g>
	</g>
	<g>
		<defs>
			<path id="SVGID_19_" d="M43,34.1c37.5-17,47,27.2,70.2,35.6S187,116.2,241,68.4s111.3-55.6,157.3-34.3s77.3,64.1,80.7,114.7
				s-4,127.9-84.7,138.6s-81.8-37.4-130-35.6c-48.2,1.8-39.4,19.7-80.7,37.1c-54,22.8-171.3,22.8-141.8-75.6
				c18.5-61.6-4.2-90.9-12-117.9C22.4,69.2,16.7,46,43,34.1z"/>
		</defs>
		<clipPath id="SVGID_20_">
			<use xlink:href="#SVGID_19_"  style="overflow:visible;"/>
		</clipPath>
		<g class="st11">
			<g>
				<path class="st2" d="M63.4,278.8c4.7-4.8,9.5-9.5,14.2-14.2c1.1-1.1-0.6-2.9-1.8-1.8c-4.8,4.8-9.5,9.5-14.3,14.2
					C60.5,278.2,62.2,279.9,63.4,278.8L63.4,278.8z"/>
			</g>
		</g>
	</g>
	<g>
		<defs>
			<path id="SVGID_21_" d="M43,34.1c37.5-17,47,27.2,70.2,35.6S187,116.2,241,68.4s111.3-55.6,157.3-34.3s77.3,64.1,80.7,114.7
				s-4,127.9-84.7,138.6s-81.8-37.4-130-35.6c-48.2,1.8-39.4,19.7-80.7,37.1c-54,22.8-171.3,22.8-141.8-75.6
				c18.5-61.6-4.2-90.9-12-117.9C22.4,69.2,16.7,46,43,34.1z"/>
		</defs>
		<clipPath id="SVGID_22_">
			<use xlink:href="#SVGID_21_"  style="overflow:visible;"/>
		</clipPath>
		<g class="st12">
			<g>
				<path class="st2" d="M106.2,264.2c1.6,0,1.6-2.5,0-2.5S104.6,264.2,106.2,264.2L106.2,264.2z"/>
			</g>
		</g>
	</g>
	<g>
		<defs>
			<path id="SVGID_23_" d="M43,34.1c37.5-17,47,27.2,70.2,35.6S187,116.2,241,68.4s111.3-55.6,157.3-34.3s77.3,64.1,80.7,114.7
				s-4,127.9-84.7,138.6s-81.8-37.4-130-35.6c-48.2,1.8-39.4,19.7-80.7,37.1c-54,22.8-171.3,22.8-141.8-75.6
				c18.5-61.6-4.2-90.9-12-117.9C22.4,69.2,16.7,46,43,34.1z"/>
		</defs>
		<clipPath id="SVGID_24_">
			<use xlink:href="#SVGID_23_"  style="overflow:visible;"/>
		</clipPath>
		<g class="st13">
			<g>
				<path class="st2" d="M117,259.2c23.1,0.1,46.1,1.4,69.2,1.4c1.6,0,1.6-2.5,0-2.5c-23.1-0.1-46.1-1.4-69.2-1.4
					C115.4,256.7,115.4,259.2,117,259.2L117,259.2z"/>
			</g>
		</g>
	</g>
	<g>
		<defs>
			<path id="SVGID_25_" d="M43,34.1c37.5-17,47,27.2,70.2,35.6S187,116.2,241,68.4s111.3-55.6,157.3-34.3s77.3,64.1,80.7,114.7
				s-4,127.9-84.7,138.6s-81.8-37.4-130-35.6c-48.2,1.8-39.4,19.7-80.7,37.1c-54,22.8-171.3,22.8-141.8-75.6
				c18.5-61.6-4.2-90.9-12-117.9C22.4,69.2,16.7,46,43,34.1z"/>
		</defs>
		<clipPath id="SVGID_26_">
			<use xlink:href="#SVGID_25_"  style="overflow:visible;"/>
		</clipPath>
		<g class="st14">
			<g>
				<path class="st2" d="M45,153.7c6.1-4.5,14.2-5.6,21.1-2c3.3,1.7,6.2,4.4,8.2,7.5c1.3,2,1.6,5.1,3.2,6.7c1,0.9,1.5,1.2,2.8,1
					c2.9-0.3,5.4-1.9,8.5-2c6.7-0.3,13.1,2.5,17.7,7.3c1.1,1.2,2.9-0.6,1.8-1.8c-4.1-4.3-9.4-7.1-15.3-7.9c-3.3-0.4-6.7-0.2-9.9,0.7
					c-2.7,0.8-2.8,1.3-4.4-1.1c-0.7-1.1-1.1-2.5-1.8-3.6c-6.9-11.6-22.1-15.1-33.1-7C42.4,152.5,43.7,154.7,45,153.7L45,153.7z"/>
			</g>
		</g>
	</g>
	<g>
		<defs>
			<path id="SVGID_27_" d="M43,34.1c37.5-17,47,27.2,70.2,35.6S187,116.2,241,68.4s111.3-55.6,157.3-34.3s77.3,64.1,80.7,114.7
				s-4,127.9-84.7,138.6s-81.8-37.4-130-35.6c-48.2,1.8-39.4,19.7-80.7,37.1c-54,22.8-171.3,22.8-141.8-75.6
				c18.5-61.6-4.2-90.9-12-117.9C22.4,69.2,16.7,46,43,34.1z"/>
		</defs>
		<clipPath id="SVGID_28_">
			<use xlink:href="#SVGID_27_"  style="overflow:visible;"/>
		</clipPath>
		<g class="st15">
			<g>
				<path class="st2" d="M103.2,176.6c3.8-1.7,6.5-0.6,9.9,1.4c0.9,0.5,1.2,1,2.2,1c1.3,0,2.1-1.1,3.2-1.6c3.3-1.8,7-1.4,10.2,0.5
					c1.4,0.9,2.6-1.3,1.3-2.2c-2.1-1.3-4.4-2.1-6.9-2.1c-1.2,0-2.5,0.2-3.6,0.6c-1,0.3-2.3,1.6-3.3,1.7c-2,0.2-5-2.2-7-2.6
					c-2.5-0.5-4.9,0.1-7.2,1.1C100.5,175.1,101.8,177.2,103.2,176.6L103.2,176.6z"/>
			</g>
		</g>
	</g>
	<g>
		<defs>
			<path id="SVGID_29_" d="M43,34.1c37.5-17,47,27.2,70.2,35.6S187,116.2,241,68.4s111.3-55.6,157.3-34.3s77.3,64.1,80.7,114.7
				s-4,127.9-84.7,138.6s-81.8-37.4-130-35.6c-48.2,1.8-39.4,19.7-80.7,37.1c-54,22.8-171.3,22.8-141.8-75.6
				c18.5-61.6-4.2-90.9-12-117.9C22.4,69.2,16.7,46,43,34.1z"/>
		</defs>
		<clipPath id="SVGID_30_">
			<use xlink:href="#SVGID_29_"  style="overflow:visible;"/>
		</clipPath>
		<g class="st16">
			<g>
				<path class="st2" d="M41,183.5c5.4,0.5,9.7,3.3,12.4,8c0.3,0.6,1.1,0.8,1.7,0.4c5.4-2.9,11.3-3,16.8-0.1
					c1.4,0.7,2.7-1.4,1.3-2.2c-6.3-3.2-13-3.2-19.3,0.1c0.6,0.1,1.1,0.3,1.7,0.4c-3.1-5.5-8.3-8.7-14.5-9.3
					C39.4,180.9,39.4,183.4,41,183.5L41,183.5z"/>
			</g>
		</g>
	</g>
	<g>
		<defs>
			<path id="SVGID_31_" d="M43,34.1c37.5-17,47,27.2,70.2,35.6S187,116.2,241,68.4s111.3-55.6,157.3-34.3s77.3,64.1,80.7,114.7
				s-4,127.9-84.7,138.6s-81.8-37.4-130-35.6c-48.2,1.8-39.4,19.7-80.7,37.1c-54,22.8-171.3,22.8-141.8-75.6
				c18.5-61.6-4.2-90.9-12-117.9C22.4,69.2,16.7,46,43,34.1z"/>
		</defs>
		<clipPath id="SVGID_32_">
			<use xlink:href="#SVGID_31_"  style="overflow:visible;"/>
		</clipPath>
		<g class="st17">
			<g>
				<path class="st2" d="M70.4,189c1.5-4.6,7.3-3.8,10.9-3.2c1.6,0.3,2.2-2.1,0.7-2.4c-5.2-0.9-12-1.2-14,4.9
					C67.5,189.9,69.9,190.5,70.4,189L70.4,189z"/>
			</g>
		</g>
	</g>
	<g>
		<defs>
			<path id="SVGID_33_" d="M43,34.1c37.5-17,47,27.2,70.2,35.6S187,116.2,241,68.4s111.3-55.6,157.3-34.3s77.3,64.1,80.7,114.7
				s-4,127.9-84.7,138.6s-81.8-37.4-130-35.6c-48.2,1.8-39.4,19.7-80.7,37.1c-54,22.8-171.3,22.8-141.8-75.6
				c18.5-61.6-4.2-90.9-12-117.9C22.4,69.2,16.7,46,43,34.1z"/>
		</defs>
		<clipPath id="SVGID_34_">
			<use xlink:href="#SVGID_33_"  style="overflow:visible;"/>
		</clipPath>
		<g class="st18">
			<g>
				<path class="st2" d="M110.4,196.5c3.1,1.2,4.8,3.4,5.6,6.5c0.1,0.6,0.9,1.1,1.5,0.9c6.2-2,12.8-2.7,16.1,4.1
					c0.7,1.4,2.9,0.2,2.2-1.3c-1.5-2.9-4.1-5.5-7.2-6.7c-3.7-1.4-8.2,0.3-11.7,1.5c0.5,0.3,1,0.6,1.5,0.9c-0.9-4.1-3.4-6.8-7.3-8.3
					C109.5,193.5,108.9,195.9,110.4,196.5L110.4,196.5z"/>
			</g>
		</g>
	</g>
	<g>
		<defs>
			<path id="SVGID_35_" d="M43,34.1c37.5-17,47,27.2,70.2,35.6S187,116.2,241,68.4s111.3-55.6,157.3-34.3s77.3,64.1,80.7,114.7
				s-4,127.9-84.7,138.6s-81.8-37.4-130-35.6c-48.2,1.8-39.4,19.7-80.7,37.1c-54,22.8-171.3,22.8-141.8-75.6
				c18.5-61.6-4.2-90.9-12-117.9C22.4,69.2,16.7,46,43,34.1z"/>
		</defs>
		<clipPath id="SVGID_36_">
			<use xlink:href="#SVGID_35_"  style="overflow:visible;"/>
		</clipPath>
		<g class="st19">
			<g>
				<path class="st2" d="M96.9,109c4-0.9,7.8,1.3,9.1,5.2c0.3,0.8,1.4,1.3,2.1,0.6c2.4-2.7,5.3-3.9,8.9-3.8c1.6,0.1,1.6-2.4,0-2.5
					c-4.2-0.1-7.8,1.4-10.7,4.5c0.7,0.2,1.4,0.4,2.1,0.6c-1.7-5.2-6.8-8.1-12.2-6.9C94.6,107,95.3,109.4,96.9,109L96.9,109z"/>
			</g>
		</g>
	</g>
	<g>
		<defs>
			<path id="SVGID_37_" d="M43,34.1c37.5-17,47,27.2,70.2,35.6S187,116.2,241,68.4s111.3-55.6,157.3-34.3s77.3,64.1,80.7,114.7
				s-4,127.9-84.7,138.6s-81.8-37.4-130-35.6c-48.2,1.8-39.4,19.7-80.7,37.1c-54,22.8-171.3,22.8-141.8-75.6
				c18.5-61.6-4.2-90.9-12-117.9C22.4,69.2,16.7,46,43,34.1z"/>
		</defs>
		<clipPath id="SVGID_38_">
			<use xlink:href="#SVGID_37_"  style="overflow:visible;"/>
		</clipPath>
		<g class="st20">
			<g>
				<path class="st2" d="M58.8,102.1c-0.3,0-0.6-0.1-0.8-0.4c-1.3-1.7-3.5-2.7-6.1-2.7l0,0c-1.6,0-3.1,0.4-4.5,1l0,0
					c-0.5,0.2-1.1,0-1.4-0.5c-0.1-0.2-0.1-0.5,0-0.8s0.3-0.5,0.5-0.6c1.7-0.8,3.5-1.3,5.4-1.3c2.6,0,4.9,0.8,6.6,2.3
					c1.7-3.3,5-5,9.8-4.9c0.5,0,1,0,1.5,0.1c0.3,0,0.5,0.1,0.7,0.3c0.2,0.2,0.3,0.5,0.3,0.7c0,0.6-0.5,1-1.1,1c-0.5,0-1,0-1.4,0
					c-4.8,0.1-7.3,1.5-8.5,5.1c-0.1,0.4-0.4,0.6-0.8,0.7C58.9,102.1,58.8,102.1,58.8,102.1z"/>
			</g>
			<g>
				<path class="st2" d="M408.3,59.9c-0.3,0-0.6-0.2-0.8-0.4c-1-1.3-2.7-2.1-4.8-2.1c-1.2,0-2.5,0.3-3.6,0.8l0,0
					c-0.5,0.2-1.1,0-1.4-0.5c-0.1-0.2-0.1-0.5-0.1-0.8c0.1-0.3,0.3-0.5,0.5-0.6c1.4-0.7,2.9-1,4.5-1c2,0,3.9,0.6,5.3,1.7
					c0.7-1.2,1.7-2.2,2.9-2.8c1.4-0.7,3.1-1.1,5.1-1c0.4,0,0.8,0,1.3,0c0.3,0,0.5,0.1,0.7,0.3s0.3,0.5,0.3,0.7c0,0.6-0.5,1-1.1,1
					c-0.4,0-0.8,0-1.1,0c-4.4,0.1-5.9,1.6-6.7,4c-0.1,0.4-0.4,0.6-0.8,0.7C408.4,59.9,408.3,59.9,408.3,59.9z"/>
			</g>
			<g>
				<path class="st2" d="M417.8-39.7c-0.3,0-0.6-0.2-0.8-0.4c-2-2.7-5.5-4.3-9.7-4.3c-2.4,0-4.9,0.6-7,1.6c-0.5,0.2-1.1,0-1.4-0.5
					c-0.1-0.2-0.1-0.5,0-0.8s0.3-0.5,0.5-0.6c2.4-1.2,5.2-1.8,7.9-1.8c4,0,7.6,1.3,10.1,3.8c1.1-2.5,2.8-4.4,5.2-5.7
					c2.5-1.4,5.7-2.1,9.5-2.1c0.8,0,1.5,0,2.3,0.1c0.3,0,0.5,0.1,0.7,0.3s0.3,0.5,0.3,0.7c0,0.6-0.5,1-1.1,1c-0.7,0-1.5-0.1-2.2-0.1
					c-7.5,0.1-11.5,2.5-13.3,8c-0.1,0.4-0.4,0.6-0.8,0.7C417.9-39.7,417.9-39.7,417.8-39.7z"/>
			</g>
			<g>
				<path class="st2" d="M273.7-48.8c-0.3,0-0.6-0.1-0.8-0.4c-1.3-1.7-3.5-2.7-6.1-2.7c-1.6,0-3.1,0.4-4.5,1c-0.5,0.2-1.1,0-1.4-0.5
					s0-1.1,0.5-1.4c1.7-0.8,3.5-1.3,5.4-1.3c2.5,0,4.9,0.8,6.6,2.3c1.7-3.3,5-5,9.8-4.9c0.5,0,1,0,1.5,0.1c0.6,0,1,0.5,1,1.1
					s-0.5,1-1.1,0.9c-0.5,0-1,0-1.4,0c-4.8,0.1-7.3,1.5-8.5,5.1c-0.1,0.4-0.4,0.6-0.8,0.7C273.8-48.8,273.7-48.8,273.7-48.8z"/>
			</g>
			<g>
				<path class="st2" d="M255.8,64.6c-0.3,0-0.6-0.2-0.8-0.4c-2-2.7-5.5-4.3-9.7-4.3c-2.4,0-4.9,0.6-7,1.6c-0.5,0.2-1.1,0-1.4-0.5
					c-0.1-0.2-0.1-0.5,0-0.8s0.3-0.5,0.5-0.6c2.4-1.2,5.2-1.8,7.9-1.8c4,0,7.6,1.3,10.1,3.8c1.1-2.5,2.8-4.4,5.2-5.7
					c2.5-1.4,5.7-2.1,9.5-2.1c0.8,0,1.5,0,2.3,0.1c0.3,0,0.5,0.1,0.7,0.3s0.3,0.5,0.3,0.7c0,0.6-0.5,1-1.1,1c-0.7,0-1.5-0.1-2.2-0.1
					c-7.5,0.1-11.5,2.5-13.3,8c-0.1,0.4-0.4,0.6-0.8,0.7C255.9,64.6,255.8,64.6,255.8,64.6z"/>
			</g>
			<g>
				<path class="st2" d="M44.2,51.5c-0.3,0-0.6-0.1-0.8-0.4c-1.3-1.7-3.5-2.7-6.1-2.7c-1.6,0-3.1,0.4-4.5,1c-0.5,0.2-1.1,0-1.4-0.5
					s0-1.1,0.5-1.4c1.7-0.8,3.5-1.3,5.4-1.3c2.5,0,4.9,0.8,6.6,2.3c1.7-3.3,5-5,9.8-4.9c0.5,0,1,0,1.5,0.1c0.6,0,1,0.5,1,1.1
					s-0.5,1-1.1,0.9c-0.5,0-1,0-1.4,0c-4.8,0.1-7.3,1.5-8.5,5.1c-0.1,0.4-0.4,0.6-0.8,0.7C44.3,51.5,44.2,51.5,44.2,51.5z"/>
			</g>
			<g>
				<path class="st2" d="M70.1,76c-0.3,0-0.6-0.1-0.8-0.4c-0.8-1.1-2.2-1.7-3.9-1.7c-1,0-2,0.2-2.9,0.7l0,0c-0.5,0.2-1.1,0-1.4-0.5
					c-0.1-0.2-0.1-0.5,0-0.8s0.3-0.5,0.5-0.6c1.2-0.6,2.5-0.9,3.8-0.9c1.6,0,3.2,0.5,4.4,1.4c1.3-2.1,3.6-3.2,6.8-3.2
					c0.3,0,0.7,0,1,0s0.5,0.1,0.7,0.3c0.2,0.2,0.3,0.5,0.3,0.7c0,0.6-0.5,1-1.1,1c-0.3,0-0.6,0-0.9,0c-3.6,0.1-4.8,1.3-5.5,3.2
					c-0.1,0.4-0.4,0.6-0.8,0.7C70.2,76,70.2,76,70.1,76z"/>
			</g>
			<path class="st2" d="M403.4,149.5c-0.6,0-1-0.5-1-1c0-0.6,0.5-1,1-1h71v-6.4h-13.7c-0.6,0-1-0.5-1-1c0-0.6,0.5-1,1-1h14.7
				c0.3,0,0.5,0.1,0.7,0.3s0.3,0.4,0.3,0.7v8.5c0,0.3-0.1,0.5-0.3,0.7c-0.2,0.2-0.4,0.3-0.7,0.3h-72
				C403.4,149.5,403.4,149.5,403.4,149.5z M396.6,149.5c-0.6,0-1-0.5-1-1c0-0.6,0.5-1,1-1c0.6,0,1,0.5,1,1
				C397.6,149.1,397.1,149.5,396.6,149.5z M389.8,149.5h-95.2c-0.6,0-1-0.5-1-1c0-0.6,0.5-1,1-1h95.2c0.6,0,1,0.5,1,1
				C390.8,149.1,390.3,149.5,389.8,149.5z M287.7,149.5c-0.6,0-1-0.5-1-1c0-0.6,0.5-1,1-1c0.6,0,1,0.5,1,1
				C288.8,149.1,288.3,149.5,287.7,149.5z M280.9,149.5h-95.2c-0.3,0-0.5-0.1-0.7-0.3s-0.3-0.4-0.3-0.7V140c0-0.3,0.1-0.5,0.3-0.7
				s0.5-0.3,0.7-0.3h43.7c0.6,0,1,0.5,1,1c0,0.6-0.5,1-1,1h-42.7v6.4h94.2c0.6,0,1,0.5,1,1C282,149.1,281.5,149.5,280.9,149.5z
				 M453.9,141.1c-0.6,0-1-0.5-1-1c0-0.6,0.5-1,1-1c0.6,0,1,0.5,1,1S454.4,141.1,453.9,141.1z M447.1,141.1h-95.2c-0.6,0-1-0.5-1-1
				c0-0.6,0.5-1,1-1h95.2c0.6,0,1,0.5,1,1C448.1,140.6,447.6,141.1,447.1,141.1z M345.1,141.1c-0.6,0-1-0.5-1-1c0-0.6,0.5-1,1-1
				c0.6,0,1,0.5,1,1S345.6,141.1,345.1,141.1z M338.3,141.1H243c-0.6,0-1-0.5-1-1c0-0.6,0.5-1,1-1h95.2c0.6,0,1,0.5,1,1
				C339.3,140.6,338.8,141.1,338.3,141.1z M236.2,141.1c-0.6,0-1-0.5-1-1c0-0.6,0.5-1,1-1c0.6,0,1,0.5,1,1
				C237.3,140.6,236.8,141.1,236.2,141.1z"/>
			<path class="st2" d="M475.4,141.1h-72c-0.6,0-1-0.5-1-1c0-0.6,0.5-1,1-1h71v-15.4h-4.7c-0.6,0-1-0.5-1-1c0-0.6,0.5-1,1-1h5.8
				c0.3,0,0.5,0.1,0.7,0.3c0.2,0.2,0.3,0.5,0.3,0.7v17.4c0,0.3-0.1,0.5-0.3,0.7C475.9,141,475.7,141.1,475.4,141.1z M396.6,141.1
				c-0.6,0-1-0.5-1-1c0-0.6,0.5-1,1-1c0.6,0,1,0.5,1,1S397.1,141.1,396.6,141.1z M389.8,141.1h-95.2c-0.6,0-1-0.5-1-1
				c0-0.6,0.5-1,1-1h95.2c0.6,0,1,0.5,1,1S390.3,141.1,389.8,141.1z M287.7,141.1c-0.6,0-1-0.5-1-1c0-0.6,0.5-1,1-1c0.6,0,1,0.5,1,1
				C288.8,140.6,288.3,141.1,287.7,141.1z M280.9,141.1h-95.2c-0.3,0-0.5-0.1-0.7-0.3s-0.3-0.5-0.3-0.7v-17.4c0-0.3,0.1-0.5,0.3-0.7
				s0.5-0.3,0.7-0.3h52.7c0.6,0,1,0.5,1,1c0,0.6-0.5,1-1,1h-51.6V139H281c0.6,0,1,0.5,1,1C282,140.6,281.5,141.1,280.9,141.1z
				 M462.8,123.7c-0.6,0-1-0.5-1-1c0-0.6,0.5-1,1-1c0.6,0,1,0.5,1,1S463.4,123.7,462.8,123.7z M456,123.7h-95.2c-0.6,0-1-0.5-1-1
				c0-0.6,0.5-1,1-1H456c0.6,0,1,0.5,1,1S456.6,123.7,456,123.7z M354,123.7c-0.6,0-1-0.5-1-1c0-0.6,0.5-1,1-1c0.6,0,1,0.5,1,1
				S354.6,123.7,354,123.7z M347.2,123.7H252c-0.6,0-1-0.5-1-1c0-0.6,0.5-1,1-1h95.2c0.6,0,1,0.5,1,1S347.8,123.7,347.2,123.7z
				 M245.2,123.7c-0.6,0-1-0.5-1-1c0-0.6,0.5-1,1-1c0.6,0,1,0.5,1,1S245.8,123.7,245.2,123.7z"/>
			<path class="st2" d="M398.5,123.7c-0.6,0-1-0.5-1-1c0-0.6,0.5-1,1-1h84.8l5.8-7.4l2.1-2.8c0.3-0.4,1-0.4,1.4-0.1
				c0.2,0.2,0.4,0.5,0.4,0.8c0,0.2-0.1,0.4-0.2,0.6l-8.2,10.5c-0.2,0.2-0.5,0.4-0.8,0.4H398.5z M391.7,123.7c-0.6,0-1-0.5-1-1
				c0-0.6,0.5-1,1-1c0.6,0,1,0.5,1,1S392.2,123.7,391.7,123.7z M384.9,123.7h-95.2c-0.6,0-1-0.5-1-1c0-0.6,0.5-1,1-1h95.2
				c0.6,0,1,0.5,1,1C385.9,123.2,385.4,123.7,384.9,123.7z M282.9,123.7c-0.6,0-1-0.5-1-1c0-0.6,0.5-1,1-1c0.6,0,1,0.5,1,1
				S283.4,123.7,282.9,123.7z M276.1,123.7h-98.6c-0.6,0-1-0.5-1-1c0-0.6,0.5-1,1-1h98.6c0.6,0,1,0.5,1,1S276.6,123.7,276.1,123.7z
				 M177.2,123.8c-0.3,0-0.5-0.1-0.7-0.3c0,0-6.1-8.2-6.2-8.2l0,0l0,0l0,0l6.1,8.2l-8.1-10.7c-0.2-0.3-0.3-0.7-0.1-1.1
				c0.2-0.3,0.5-0.6,0.9-0.6h95.2c0.6,0,1,0.5,1,1c0,0.6-0.5,1-1,1h-93.1l6.8,9.1c0.1,0.2,0.2,0.4,0.2,0.6c0,0.3-0.1,0.6-0.4,0.8
				C177.7,123.8,177.5,123.8,177.2,123.8z M492.1,112.4l-105.4,0.7c-0.6,0-1-0.5-1-1c0-0.6,0.5-1,1-1l105.4-0.7c0.6,0,1,0.5,1,1
				C493.1,112,492.7,112.4,492.1,112.4z M379.9,113.1c-0.6,0-1-0.5-1-1c0-0.6,0.5-1,1-1s1,0.5,1,1
				C380.9,112.7,380.5,113.1,379.9,113.1z M373.1,113.1h-95.2c-0.6,0-1-0.5-1-1c0-0.6,0.5-1,1-1h95.2c0.6,0,1,0.5,1,1
				C374.1,112.7,373.7,113.1,373.1,113.1z M271.1,113.1c-0.6,0-1-0.5-1-1c0-0.6,0.5-1,1-1c0.6,0,1,0.5,1,1
				C272.1,112.7,271.7,113.1,271.1,113.1z"/>
			<path class="st2" d="M403.4,113.1c-0.6,0-1-0.5-1-1c0-0.6,0.5-1,1-1h71V88.9c0-0.6,0.5-1,1-1c0.6,0,1,0.5,1,1v23.2
				c0,0.3-0.1,0.5-0.3,0.7c-0.2,0.2-0.4,0.3-0.7,0.3L403.4,113.1L403.4,113.1z M396.6,113.1c-0.6,0-1-0.5-1-1c0-0.6,0.5-1,1-1
				c0.6,0,1,0.5,1,1C397.6,112.7,397.1,113.1,396.6,113.1z M389.8,113.1h-95.2c-0.6,0-1-0.5-1-1c0-0.6,0.5-1,1-1h95.2
				c0.6,0,1,0.5,1,1C390.8,112.7,390.3,113.1,389.8,113.1z M287.7,113.1c-0.6,0-1-0.5-1-1c0-0.6,0.5-1,1-1c0.6,0,1,0.5,1,1
				C288.8,112.7,288.3,113.1,287.7,113.1z M280.9,113.1h-95.2c-0.3,0-0.5-0.1-0.7-0.3c-0.2-0.2-0.3-0.4-0.3-0.7V87.4
				c0-0.6,0.5-1,1-1c0.6,0,1,0.5,1,1v23.7h94.2c0.6,0,1,0.5,1,1C282,112.7,281.5,113.1,280.9,113.1z M371.8,106.4H288
				c-0.3,0-0.5-0.1-0.7-0.3c-0.2-0.2-0.3-0.4-0.3-0.7V93.9c0-0.6,0.5-1,1-1c0.6,0,1,0.5,1,1v10.4h82.8c0.6,0,1,0.5,1,1
				C372.8,105.9,372.3,106.4,371.8,106.4z M373.1,100.9c-0.6,0-1-0.5-1-1c0-0.6,0.5-1,1-1c0.6,0,1,0.5,1,1S373.7,100.9,373.1,100.9z
				 M185.7,95.9c-0.6,0-1-0.5-1-1c0-0.6,0.5-1,1-1c0.6,0,1,0.5,1,1C186.8,95.5,186.3,95.9,185.7,95.9z M373.1,94.1c-0.6,0-1-0.5-1-1
				v-5.3c0-0.3,0.1-0.5,0.3-0.7c0.2-0.2,0.5-0.3,0.7-0.3H463c0.6,0,1,0.5,1,1c0,0.6-0.5,1-1,1h-88.8v4.3
				C374.1,93.6,373.7,94.1,373.1,94.1z M185.7,89.1c-0.6,0-1-0.5-1-1v-0.4c0-0.3,0.1-0.5,0.3-0.7s0.5-0.3,0.7-0.3h94.8
				c0.6,0,1,0.5,1,1c0,0.6-0.5,1-1,1h-94.1C186.3,89,186,89.1,185.7,89.1z M469.8,88.7c-0.6,0-1-0.5-1-1c0-0.6,0.5-1,1-1
				c0.6,0,1,0.5,1,1C470.8,88.3,470.3,88.7,469.8,88.7z M287.4,88.7c-0.6,0-1-0.5-1-1c0-0.6,0.5-1,1-1c0.6,0,1,0.5,1,1
				C288.4,88.3,288,88.7,287.4,88.7z"/>
			<path class="st2" d="M288,88.7h-84.5c-0.6,0-1-0.5-1-1c0-0.6,0.5-1,1-1H287v-6.8h-15.8c-0.6,0-1-0.5-1-1c0-0.6,0.5-1,1-1H288
				c0.3,0,0.5,0.1,0.7,0.3c0.2,0.2,0.3,0.5,0.3,0.7v8.9c0,0.3-0.1,0.5-0.3,0.7C288.5,88.6,288.3,88.7,288,88.7z M196.7,88.7
				c-0.6,0-1-0.5-1-1c0-0.6,0.5-1,1-1c0.6,0,1,0.5,1,1C197.7,88.3,197.2,88.7,196.7,88.7z M189.9,88.7h-4.1c-0.3,0-0.5-0.1-0.7-0.3
				l-8.4-8.9c-0.3-0.3-0.4-0.7-0.2-1.1s0.5-0.6,0.9-0.6h95.2c0.6,0,1,0.5,1,1c0,0.6-0.5,1-1,1h-92.8l6.4,6.8h3.7c0.6,0,1,0.5,1,1
				l0,0C190.9,88.3,190.4,88.7,189.9,88.7z M279.4,79.9c-0.6,0-1-0.5-1-1c0-0.6,0.5-1,1-1c0.6,0,1,0.5,1,1S279.9,79.9,279.4,79.9z"
				/>
			<path class="st2" d="M475.4,88.7h-81.2c-0.6,0-1-0.5-1-1c0-0.6,0.5-1,1-1H475l6.5-6.9c-0.4-0.2-0.6-0.5-0.6-0.9c0-0.6,0.5-1,1-1
				h1.8c0.4,0,0.8,0.2,0.9,0.6c0.2,0.4,0.1,0.8-0.2,1.1l-8.4,8.9C475.9,88.6,475.7,88.7,475.4,88.7z M387.4,88.7c-0.6,0-1-0.5-1-1
				c0-0.6,0.5-1,1-1c0.6,0,1,0.5,1,1C388.4,88.3,388,88.7,387.4,88.7z M380.6,88.7h-7.5c-0.3,0-0.5-0.1-0.7-0.3
				c-0.2-0.2-0.3-0.5-0.3-0.7v-8.9c0-0.3,0.1-0.5,0.3-0.7c0.2-0.2,0.4-0.3,0.7-0.3h109.5c0.6,0,1,0.5,1,1c0,0.6-0.5,1-1,1H374.1v6.8
				h6.5c0.6,0,1,0.5,1,1C381.6,88.3,381.2,88.7,380.6,88.7z"/>
			<path class="st2" d="M373.1,106.4H288c-0.3,0-0.5-0.1-0.7-0.3c-0.2-0.2-0.3-0.4-0.3-0.7v-6c0-0.6,0.5-1,1-1c0.6,0,1,0.5,1,1v4.9
				h83.1v-9.1c0-0.6,0.5-1,1-1c0.6,0,1,0.5,1,1v10.1c0,0.3-0.1,0.5-0.3,0.7C373.7,106.3,373.4,106.4,373.1,106.4z M288,93.6
				c-0.6,0-1-0.5-1-1c0-0.6,0.5-1,1-1c0.6,0,1,0.5,1,1S288.6,93.6,288,93.6z M373.1,89.5c-0.6,0-1-0.5-1-1c0-0.6,0.5-1,1-1
				c0.6,0,1,0.5,1,1S373.7,89.5,373.1,89.5z M288,86.8c-0.6,0-1-0.5-1-1v-7.1c0-0.3,0.1-0.5,0.3-0.7c0.2-0.2,0.4-0.3,0.7-0.3h85.1
				c0.3,0,0.5,0.1,0.7,0.3c0.2,0.2,0.3,0.4,0.3,0.7v3l0,0c0,0.6-0.5,1-1,1c-0.6,0-1-0.5-1-1v-2H289v6.1
				C289,86.3,288.6,86.8,288,86.8z"/>
			<path class="st2" d="M366.2,79.7h-71.3c-0.3,0-0.5-0.1-0.7-0.3c-0.2-0.2-0.3-0.4-0.3-0.7v-7.8c0-0.3,0.1-0.5,0.3-0.7
				c0.2-0.2,0.4-0.3,0.7-0.3h57.2c0.6,0,1,0.5,1,1l0,0c0,0.5-0.5,1-1,1h-56.2v5.7h69.3v-5.7h-15.1c-0.6,0-1-0.5-1-1c0-0.6,0.5-1,1-1
				h16.1c0.3,0,0.5,0.1,0.7,0.3c0.2,0.2,0.3,0.4,0.3,0.7v7.8c0,0.3-0.1,0.5-0.3,0.7C366.8,79.6,366.5,79.7,366.2,79.7z M343.3,71.9
				c-0.6,0-1-0.5-1-1c0-0.6,0.5-1,1-1c0.6,0,1,0.5,1,1C344.3,71.5,343.9,71.9,343.3,71.9z"/>
			<path class="st2" d="M366.5,99.3h-71.9c-0.3,0-0.5-0.1-0.7-0.3c-0.2-0.2-0.3-0.5-0.3-0.7V85.7c0-0.3,0.1-0.5,0.3-0.7
				c0.2-0.2,0.5-0.3,0.7-0.3h63.2c0.6,0,1,0.5,1,1c0,0,0,0,0,0.1c0,0.5-0.5,1-1,1h-62.2v10.5h69.9V86.8h-9.7c-0.6,0-1-0.5-1-1
				s0.5-1,1-1h10.8c0.3,0,0.5,0.1,0.7,0.3c0.2,0.2,0.3,0.4,0.3,0.7v12.5c0,0.3-0.1,0.5-0.3,0.7S366.8,99.3,366.5,99.3z"/>
			<path class="st2" d="M186.7,121.6h-0.9c-0.3,0-0.5,0.1-0.7,0.3c-0.2,0.2-0.3,0.5-0.3,0.7V140c0,0.3,0.1,0.5,0.3,0.7
				s0.5,0.3,0.7,0.3h0.9V121.6z"/>
			<path class="st2" d="M211.9,296.2h-26.2c-0.3,0-0.5-0.1-0.7-0.3c-0.2-0.2-0.3-0.4-0.3-0.7V165.1c0-0.6,0.5-1,1-1c0.6,0,1,0.5,1,1
				v129h24.2v-86.3c0-0.6,0.5-1,1-1c0.6,0,1,0.5,1,1v87.4c0,0.3-0.1,0.5-0.3,0.7C212.5,296.1,212.2,296.2,211.9,296.2z M211.9,213.6
				c-0.6,0-1-0.5-1-1v-54.5h-24.2v12.5c0,0.6-0.5,1-1,1c-0.6,0-1-0.5-1-1v-13.5c0-0.3,0.1-0.5,0.3-0.7s0.5-0.3,0.7-0.3h26.2
				c0.3,0,0.5,0.1,0.7,0.3s0.3,0.4,0.3,0.7v55.5C213,213.2,212.5,213.6,211.9,213.6z"/>
			<path class="st2" d="M265,296.2h-26.2c-0.3,0-0.5-0.1-0.7-0.3c-0.2-0.2-0.3-0.4-0.3-0.7V165.1c0-0.6,0.5-1,1-1c0.6,0,1,0.5,1,1
				v129H264v-86.3c0-0.6,0.5-1,1-1c0.6,0,1,0.5,1,1v87.4c0,0.3-0.1,0.5-0.3,0.7C265.5,296.1,265.3,296.2,265,296.2z M265,213.6
				c-0.6,0-1-0.5-1-1v-54.5h-24.2v12.5c0,0.6-0.5,1-1,1c-0.6,0-1-0.5-1-1v-13.5c0-0.3,0.1-0.5,0.3-0.7s0.5-0.3,0.7-0.3H265
				c0.3,0,0.5,0.1,0.7,0.3s0.3,0.4,0.3,0.7v55.5C266,213.2,265.6,213.6,265,213.6z"/>
			<path class="st2" d="M318.7,296.2h-26.2c-0.3,0-0.5-0.1-0.7-0.3c-0.2-0.2-0.3-0.4-0.3-0.7V165.1c0-0.6,0.5-1,1-1c0.6,0,1,0.5,1,1
				v129h24.2v-86.3c0-0.6,0.5-1,1-1c0.6,0,1,0.5,1,1v87.4c0,0.3-0.1,0.5-0.3,0.7C319.2,296.1,319,296.2,318.7,296.2z M318.7,213.6
				c-0.6,0-1-0.5-1-1v-54.5h-24.2v12.5c0,0.6-0.5,1-1,1c-0.6,0-1-0.5-1-1v-13.5c0-0.3,0.1-0.5,0.3-0.7c0.2-0.2,0.5-0.3,0.7-0.3h26.2
				c0.3,0,0.5,0.1,0.7,0.3s0.3,0.4,0.3,0.7v55.5C319.7,213.2,319.3,213.6,318.7,213.6z"/>
			<path class="st2" d="M370.4,296.2h-26.2c-0.3,0-0.5-0.1-0.7-0.3c-0.2-0.2-0.3-0.4-0.3-0.7V165.1c0-0.6,0.5-1,1-1c0.6,0,1,0.5,1,1
				v129h24.2v-86.3c0-0.6,0.5-1,1-1c0.6,0,1,0.5,1,1v87.4c0,0.3-0.1,0.5-0.3,0.7C370.9,296.1,370.7,296.2,370.4,296.2z M370.4,213.6
				c-0.6,0-1-0.5-1-1v-54.5h-24.2v12.5c0,0.6-0.5,1-1,1c-0.6,0-1-0.5-1-1v-13.5c0-0.3,0.1-0.5,0.3-0.7c0.2-0.2,0.5-0.3,0.7-0.3h26.2
				c0.3,0,0.5,0.1,0.7,0.3s0.3,0.4,0.3,0.7v55.5C371.4,213.2,371,213.6,370.4,213.6z"/>
			<path class="st2" d="M423.4,296.2h-26.2c-0.3,0-0.5-0.1-0.7-0.3c-0.2-0.2-0.3-0.4-0.3-0.7V165.1c0-0.6,0.5-1,1-1c0.6,0,1,0.5,1,1
				v129h24.2v-86.3c0-0.6,0.5-1,1-1c0.6,0,1,0.5,1,1v87.4c0,0.3-0.1,0.5-0.3,0.7C424,296.1,423.7,296.2,423.4,296.2z M423.4,213.6
				c-0.6,0-1-0.5-1-1v-54.5h-24.2v12.5c0,0.6-0.5,1-1,1c-0.6,0-1-0.5-1-1v-13.5c0-0.3,0.1-0.5,0.3-0.7c0.2-0.2,0.5-0.3,0.7-0.3h26.2
				c0.3,0,0.5,0.1,0.7,0.3s0.3,0.4,0.3,0.7v55.5C424.5,213.2,424,213.6,423.4,213.6z"/>
			<path class="st2" d="M475.8,296.2h-26.2c-0.3,0-0.5-0.1-0.7-0.3c-0.2-0.2-0.3-0.4-0.3-0.7V165.1c0-0.6,0.5-1,1-1c0.6,0,1,0.5,1,1
				v129h24.2v-86.3c0-0.6,0.5-1,1-1c0.6,0,1,0.5,1,1v87.4c0,0.3-0.1,0.5-0.3,0.7C476.3,296.1,476.1,296.2,475.8,296.2z M475.8,213.6
				c-0.6,0-1-0.5-1-1v-54.5h-24.2v12.5c0,0.6-0.5,1-1,1c-0.6,0-1-0.5-1-1v-13.5c0-0.3,0.1-0.5,0.3-0.7c0.2-0.2,0.5-0.3,0.7-0.3h26.2
				c0.3,0,0.5,0.1,0.7,0.3s0.3,0.4,0.3,0.7v55.5C476.8,213.2,476.4,213.6,475.8,213.6z"/>
			<path class="st2" d="M216.9,158.1h-36.1c-0.3,0-0.5-0.1-0.7-0.3s-0.3-0.4-0.3-0.7v-8.6c0-0.3,0.1-0.5,0.3-0.7s0.4-0.3,0.7-0.3
				h36.1c0.3,0,0.5,0.1,0.7,0.3s0.3,0.4,0.3,0.7v8.6c0,0.3-0.1,0.5-0.3,0.7S217.1,158.1,216.9,158.1z M181.8,149.5v6.5h34v-6.5
				H181.8z"/>
			<path class="st2" d="M269.8,158.1h-36.2c-0.3,0-0.5-0.1-0.7-0.3s-0.3-0.4-0.3-0.7v-8.6c0-0.3,0.1-0.5,0.3-0.7s0.4-0.3,0.7-0.3
				h36.2c0.3,0,0.5,0.1,0.7,0.3s0.3,0.4,0.3,0.7v8.6c0,0.3-0.1,0.5-0.3,0.7C270.3,158,270.1,158.1,269.8,158.1z M234.6,156.1h34.1
				v-6.5h-34.1V156.1z"/>
			<path class="st2" d="M322.6,158.1h-36.2c-0.3,0-0.5-0.1-0.7-0.3s-0.3-0.4-0.3-0.7v-8.6c0-0.3,0.1-0.5,0.3-0.7
				c0.2-0.2,0.4-0.3,0.7-0.3h36.2c0.3,0,0.5,0.1,0.7,0.3s0.3,0.4,0.3,0.7v8.6c0,0.3-0.1,0.5-0.3,0.7
				C323.1,158,322.9,158.1,322.6,158.1z M287.4,156.1h34.1v-6.5h-34.1V156.1z"/>
			<path class="st2" d="M375.4,158.1h-36.1c-0.3,0-0.5-0.1-0.7-0.3s-0.3-0.4-0.3-0.7v-8.6c0-0.3,0.1-0.5,0.3-0.7
				c0.2-0.2,0.5-0.3,0.7-0.3h36.1c0.3,0,0.5,0.1,0.7,0.3s0.3,0.4,0.3,0.7v8.6c0,0.3-0.1,0.5-0.3,0.7
				C375.9,158,375.7,158.1,375.4,158.1z M340.4,156.1h34v-6.5h-34V156.1z"/>
			<path class="st2" d="M428.2,158.1h-36.1c-0.3,0-0.5-0.1-0.7-0.3s-0.3-0.4-0.3-0.7v-8.6c0-0.3,0.1-0.5,0.3-0.7
				c0.2-0.2,0.4-0.3,0.7-0.3h36.1c0.3,0,0.5,0.1,0.7,0.3s0.3,0.4,0.3,0.7v8.6c0,0.3-0.1,0.5-0.3,0.7
				C428.7,158,428.5,158.1,428.2,158.1z M393.2,156.1h34v-6.5h-34V156.1z"/>
			<path class="st2" d="M481.1,158.1h-36.2c-0.3,0-0.5-0.1-0.7-0.3s-0.3-0.4-0.3-0.7v-8.6c0-0.3,0.1-0.5,0.3-0.7
				c0.2-0.2,0.4-0.3,0.7-0.3h36.2c0.3,0,0.5,0.1,0.7,0.3s0.3,0.4,0.3,0.7v8.6c0,0.3-0.1,0.5-0.3,0.7
				C481.6,158,481.4,158.1,481.1,158.1z M446,156.1h34.1v-6.5H446V156.1z"/>
			<path class="st2" d="M216.9,305h-36.1c-0.3,0-0.5-0.1-0.7-0.3c-0.2-0.2-0.3-0.4-0.3-0.7v-8.8c0-0.3,0.1-0.5,0.3-0.7
				s0.5-0.3,0.7-0.3h36.1c0.3,0,0.5,0.1,0.7,0.3c0.2,0.2,0.3,0.5,0.3,0.7v8.8c0,0.3-0.1,0.5-0.3,0.7
				C217.4,304.9,217.1,305,216.9,305z M181.8,302.9h34v-6.7h-34V302.9z"/>
			<path class="st2" d="M269.8,305h-36.2c-0.3,0-0.5-0.1-0.7-0.3c-0.2-0.2-0.3-0.4-0.3-0.7v-8.8c0-0.3,0.1-0.5,0.3-0.7
				s0.5-0.3,0.7-0.3h36.2c0.3,0,0.5,0.1,0.7,0.3c0.2,0.2,0.3,0.5,0.3,0.7v8.8c0,0.3-0.1,0.5-0.3,0.7
				C270.3,304.9,270.1,305,269.8,305z M234.6,302.9h34.1v-6.7h-34.1V302.9z"/>
			<path class="st2" d="M322.6,305h-36.2c-0.3,0-0.5-0.1-0.7-0.3c-0.2-0.2-0.3-0.4-0.3-0.7v-8.8c0-0.3,0.1-0.5,0.3-0.7
				c0.2-0.2,0.5-0.3,0.7-0.3h36.2c0.3,0,0.5,0.1,0.7,0.3c0.2,0.2,0.3,0.5,0.3,0.7v8.8c0,0.3-0.1,0.5-0.3,0.7
				C323.1,304.9,322.9,305,322.6,305z M287.4,302.9h34.1v-6.7h-34.1V302.9z"/>
			<path class="st2" d="M375.4,305h-36.1c-0.3,0-0.5-0.1-0.7-0.3c-0.2-0.2-0.3-0.4-0.3-0.7v-8.8c0-0.3,0.1-0.5,0.3-0.7
				c0.2-0.2,0.5-0.3,0.7-0.3h36.1c0.3,0,0.5,0.1,0.7,0.3c0.2,0.2,0.3,0.5,0.3,0.7v8.8c0,0.3-0.1,0.5-0.3,0.7
				C375.9,304.9,375.7,305,375.4,305z M340.4,302.9h34v-6.7h-34V302.9z"/>
			<path class="st2" d="M428.2,305h-36.1c-0.3,0-0.5-0.1-0.7-0.3c-0.2-0.2-0.3-0.4-0.3-0.7v-8.8c0-0.3,0.1-0.5,0.3-0.7
				c0.2-0.2,0.5-0.3,0.7-0.3h36.1c0.3,0,0.5,0.1,0.7,0.3c0.2,0.2,0.3,0.5,0.3,0.7v8.8c0,0.3-0.1,0.5-0.3,0.7
				C428.7,304.9,428.5,305,428.2,305z M393.2,302.9h34v-6.7h-34V302.9z"/>
			<path class="st2" d="M481.1,305h-36.2c-0.3,0-0.5-0.1-0.7-0.3c-0.2-0.2-0.3-0.4-0.3-0.7v-8.8c0-0.3,0.1-0.5,0.3-0.7
				c0.2-0.2,0.5-0.3,0.7-0.3h36.2c0.3,0,0.5,0.1,0.7,0.3c0.2,0.2,0.3,0.4,0.3,0.7v8.8c0,0.3-0.1,0.5-0.3,0.7
				C481.6,304.9,481.4,305,481.1,305z M446,302.9h34.1v-6.7H446V302.9z"/>
			<path class="st2" d="M315.1,63.4c-0.3,0-0.5-0.1-0.7-0.3c-4.7-4.8-7.9-10.2-9.7-16.3c-2,1.5-3.5,2.2-4.9,2.3c-0.2,0-0.3,0-0.5,0
				c-0.6-0.1-0.9-0.6-0.9-1.2c0.1-0.6,0.6-0.9,1.2-0.9c0.1,0,0.1,0,0.2,0c0.8,0,2.5-0.7,4.8-2.8c0.3-0.2,0.6-0.3,1-0.2
				c0.3,0.1,0.6,0.4,0.7,0.7c1.6,6.3,4.6,11.7,9.3,16.6c3.6-0.1,11-0.2,15-0.2v-16c-2,0.9-4.4,1.3-6.8,1.3c-2.7,0-5.4-0.6-7.6-1.6
				c-2.5-1.2-4.4-2.9-5.6-5l-0.1-0.2c-0.4-1.4-1.6-2.3-3-2.3l0,0c-1.2,0-2.4,0.9-2.9,2c-0.2,0.5-0.8,0.8-1.3,0.6
				c-0.3-0.1-0.5-0.3-0.6-0.5c-0.1-0.3-0.1-0.5,0-0.8c0.7-2,2.7-3.3,4.8-3.4c2.3,0,4.3,1.5,5,3.7c1.9,3.4,6.4,5.5,11.4,5.5l0,0
				c2.7,0,5.3-0.7,7.3-1.8c0.3-0.2,0.7-0.2,1,0s0.5,0.5,0.5,0.9v18.7c0,0.3-0.1,0.5-0.3,0.7c-0.2,0.2-0.4,0.3-0.7,0.3
				C328.1,63.2,318.8,63.3,315.1,63.4L315.1,63.4z M299.4,43.2c-0.2,0-0.4-0.1-0.6-0.2c-0.2-0.2-0.4-0.4-0.4-0.7s0-0.5,0.2-0.8
				c0.3-0.4,1-0.6,1.4-0.3c0.5,0.3,0.6,1,0.3,1.4C300,43,299.7,43.2,299.4,43.2z"/>
			<path class="st2" d="M309.6,68.2L309.6,68.2c-1.9,0-3.1-1.5-3.8-2.6c-0.8-1.3-1.3-2.7-1.4-3c-0.1-0.1-0.1-0.3-0.1-0.5
				c0-0.6,0.2-1,0.5-1.4c0-0.1,0.1-0.1,0.1-0.2c0.3-0.5,0.7-1,1.2-1.7c1-1.2,2.1-2.5,3-3.5c0.2-0.2,0.5-0.4,0.9-0.3
				c0.3,0,0.6,0.2,0.8,0.5c0.5,0.9,1.1,1.7,2,2.8c0.3,0.4,0.3,0.9,0,1.3l-2.4,2.9c0.2,0.2,0.4,0.4,0.5,0.7c0.5,0.8,1.2,1.7,1.2,2.9
				c0,0.5-0.2,1-0.4,1.3c-0.3,0.4-0.7,0.6-1.3,0.8C310.1,68.2,309.9,68.2,309.6,68.2z M306.4,62.1c0.2,0.6,0.6,1.6,1.1,2.4
				c0.6,1,1.4,1.7,2,1.7c0.1,0,0.2,0,0.3,0c0.2-0.1,0.2-0.1,0.3-0.1c0,0,0,0,0-0.1c0-0.2-0.2-0.7-0.5-1.2c-0.4-0.6-0.8-1.1-1-1.3
				s-0.3-0.3-0.3-0.3c-0.4-0.4-0.4-1-0.1-1.4l2.4-3c-0.3-0.4-0.6-0.8-0.9-1.2c-0.8,0.9-1.4,1.6-1.9,2.2
				C307.2,60.9,306.5,61.8,306.4,62.1z"/>
			<path class="st2" d="M346.1,63.4L346.1,63.4c-3.8-0.1-11-0.2-14.6-0.2c-0.3,0-0.5-0.1-0.7-0.3s-0.3-0.4-0.3-0.7V43.4
				c0-0.4,0.2-0.7,0.5-0.9s0.7-0.2,1,0c2.1,1.2,4.4,1.8,6.8,1.8c4.3,0,8.1-2.1,10.1-5.5c0.6-2.2,2.6-3.7,4.9-3.7
				c2.1,0,4,1.3,4.9,3.3l0,0c0,0.1,0.1,0.1,0.1,0.2c0.3-0.1,0.7-0.1,1,0.1c0.2,0.1,0.4,0.4,0.4,0.6c0.1,0.3,0,0.5-0.1,0.8
				c-0.3,0.5-1,0.6-1.4,0.3c-0.2-0.2-0.4-0.4-0.4-0.7l0,0c-0.5,0.2-1.1,0-1.3-0.5c-0.6-1.3-1.7-2.1-3-2.1l0,0c-1.4,0-2.7,1-2.9,2.3
				l-0.1,0.3c-1.2,2.1-2.9,3.8-5.1,5c-2,1.1-4.4,1.7-6.8,1.7l0,0c-2.1,0-4.3-0.5-6.3-1.3v16c3.7,0,9.6,0.1,13.1,0.2
				c4.5-4.9,7.6-10.3,9.3-16.6c0.1-0.3,0.3-0.6,0.7-0.7c0.3-0.1,0.7,0,1,0.2c2.3,2.1,4.1,2.8,4.8,2.8c0.3,0,0.4-0.1,0.5-0.2
				c0.1-0.1,0.2-0.4,0.2-0.8c0-0.2,0-0.5-0.1-0.7c-0.1-0.3,0-0.5,0.1-0.8c0.1-0.2,0.4-0.4,0.6-0.4c0.5-0.1,1.1,0.3,1.2,0.8
				c0.1,0.4,0.1,0.8,0.1,1.2c0,0.9-0.2,1.6-0.6,2.1c-0.5,0.6-1.2,1-2.1,1l0,0c-1.4,0-3-0.7-4.9-2.3c-1.9,6.2-5.1,11.5-9.7,16.3
				C346.7,63.3,346.4,63.4,346.1,63.4z"/>
			<path class="st2" d="M351.6,68.2c-0.3,0-0.6,0-0.9-0.1c-1-0.2-1.8-1.2-1.7-2.1c0-1.2,0.7-2.1,1.2-2.9c0.2-0.2,0.3-0.4,0.5-0.7
				l-2.3-2.9c-0.3-0.4-0.3-0.9,0-1.2c0.2-0.3,0.4-0.6,0.6-0.9c0.5-0.7,0.9-1.3,1.3-2c0.2-0.3,0.5-0.5,0.8-0.5s0.6,0.1,0.9,0.3
				l0.3,0.4c1.3,1.5,3.1,3.4,4,4.8c0,0.1,0.1,0.2,0.1,0.2c0.3,0.4,0.5,0.8,0.5,1.4c0,0.2,0,0.3-0.1,0.4l-0.1,0.1
				c-0.2,0.5-0.7,1.8-1.4,2.9C354.6,66.8,353.4,68.2,351.6,68.2L351.6,68.2z M351,66c0,0,0.1,0.1,0.3,0.1c0.1,0,0.2,0.1,0.3,0.1
				c0,0,0,0,0.1,0c0.6,0,1.4-0.7,2-1.7c0.4-0.6,0.8-1.4,1.2-2.4c-0.1-0.1-0.2-0.3-0.3-0.5c-0.3-0.4-0.7-0.9-1.2-1.5
				c-0.7-0.9-1.5-1.8-2.1-2.5c-0.2,0.3-0.4,0.6-0.6,0.9l-0.2,0.3l2.4,3c0.3,0.4,0.3,1-0.1,1.4c0,0-0.1,0.1-0.3,0.3
				c-0.2,0.2-0.4,0.5-0.7,0.8C351.3,64.9,350.9,65.7,351,66L351,66L351,66z"/>
			<path class="st2" d="M332.9,33L332.9,33c-2,0-3.9-0.8-5.3-2.2c-1.4-1.4-2.2-3.3-2.2-5.3s0.8-3.9,2.2-5.3c1.4-1.4,3.3-2.2,5.3-2.2
				s3.8,0.8,5.2,2.2c1.4,1.4,2.2,3.3,2.2,5.3s-0.8,3.9-2.2,5.3C336.8,32.2,334.9,33,332.9,33z M332.9,20.1c-3,0-5.4,2.4-5.4,5.4
				s2.4,5.4,5.4,5.4s5.4-2.4,5.4-5.4S335.9,20.1,332.9,20.1z"/>
			<path class="st2" d="M323.7,46.4c-1.1,0-2.3-0.1-3.3-0.3c-0.3-0.1-0.6-0.2-0.7-0.5s-0.2-0.6-0.1-0.9c0.8-2.2,2.2-4.3,3.5-6.3
				c0.3-0.5,0.7-1,1-1.6c1.3-2.1,2.9-4.8,2.8-7c0-0.3,0.1-0.5,0.3-0.7c0.2-0.2,0.4-0.3,0.7-0.3h0.3c0.3,0,0.6,0.1,0.7,0.3
				c1,1.1,2.4,1.8,4,1.8c1.5,0,2.9-0.6,4-1.8c0.2-0.2,0.5-0.3,0.8-0.3h0.3c0.3,0,0.5,0.1,0.7,0.3c0.2,0.2,0.3,0.4,0.3,0.7
				c0,2.5,1.3,5.3,2.7,8.3c1,2.1,2,4.2,2.5,6.3c0.1,0.5-0.2,1.1-0.7,1.2c-1.4,0.5-3,0.7-4.6,0.7c-2.6,0-5.1-0.6-7.3-1.8
				C329.2,45.8,326.5,46.4,323.7,46.4z M322,44.3c3.2,0.3,6.5-0.3,9.1-1.8c0.3-0.2,0.7-0.2,1,0c2.9,1.7,6.6,2.2,9.8,1.5
				c-0.5-1.5-1.2-3.1-2-4.7c-1.2-2.5-2.4-5-2.8-7.6c-1.2,0.8-2.7,1.3-4.2,1.3l0,0l0,0c-1.5,0-3-0.5-4.2-1.3
				c-0.5,2.2-1.7,4.3-2.9,6.2c-0.3,0.5-0.6,1-0.9,1.5C323.7,41.1,322.7,42.7,322,44.3z"/>
			<path class="st2" d="M322.6,42.1c-0.1,0-0.2,0-0.3,0c-0.4-0.1-0.7-0.5-0.7-1c0-2.3-0.9-6.4-2-11l-0.1-0.5c-1-4.2-1.9-8.3-1.9-11
				c0-0.3,0.1-0.5,0.3-0.7c0.2-0.2,0.4-0.3,0.7-0.3h3.3c0.3,0,0.5,0.1,0.7,0.3c0.2,0.2,0.3,0.4,0.3,0.7c0,2.2,0.9,4.9,2,8.1L325,27
				c1,2.8,2,5.8,2,8.6c0,0.2-0.1,0.4-0.2,0.6c-0.2,0.3-0.4,0.6-0.4,0.8l-0.1,0.2c-0.5,0.8-1,1.6-1.5,2.3s-1,1.5-1.4,2.2
				C323.3,41.9,322.9,42.1,322.6,42.1z M319.6,19.6c0.2,2.4,1,6,2,10l0.1,0.5c0.7,2.9,1.3,5.6,1.6,7.9c0.4-0.6,0.8-1.3,1.2-1.9
				c0.1-0.3,0.3-0.6,0.5-1c-0.1-2.2-1-4.9-2-7.8l-0.1-0.3c-0.9-2.4-1.7-5-2-7.4H319.6z"/>
			<path class="st2" d="M326.8-10.4L326.8-10.4c-2.1,0-3.9-1.8-3.9-3.9c0-1.1,0.4-2.1,1.1-2.8c0.7-0.8,1.7-1.2,2.7-1.2
				s2,0.4,2.7,1.2c0.7,0.8,1.1,1.8,1.1,2.8C330.7-12.1,329-10.4,326.8-10.4z M326.8-16.2c-1,0-1.8,0.9-1.8,2c0,1,0.8,1.9,1.8,1.9
				s1.8-0.8,1.8-1.9C328.6-15.4,327.9-16.2,326.8-16.2z"/>
			<path class="st2" d="M325.5,5.8L325.5,5.8c-1.3,0-2.9-0.5-4.8-1.5c-2.4-1.2-4.4-2.7-5.3-4c-0.3-0.4-0.6-0.9-0.6-1.6
				c0-0.3,0.1-0.6,0.3-0.9c-0.5-0.4-0.9-0.7-1.3-1.1c-0.7-0.7-1.3-1.4-1.4-2.4c0-0.3,0.1-0.5,0.2-0.8c-0.5-0.4-0.9-0.7-1.2-1.1
				c-0.6-0.7-1.2-1.3-1.2-2.3c0-0.5,0.3-1.1,0.8-1.4c0.4-0.3,0.9-0.3,1.3-0.3c1.2,0,2.8,0.5,4.8,1.5l0,0l0,0c2.4,1.2,4.4,2.7,5.3,4
				c0.3,0.4,0.6,0.9,0.6,1.6c0,0.1,0.2,1.4,0.6,2.7c0.2,0.8,0.9,2.7,1.8,3.9c0.4,0.6,0.9,0.9,1.3,1c0.5,0.1,0.9,0.5,0.9,1
				s-0.3,1.1-0.8,1.4C326.4,5.8,326,5.8,325.5,5.8z M317.1-0.8c0.2,0.3,0.6,0.6,1,1c0.9,0.8,2.3,1.7,3.6,2.4
				c0.7,0.4,1.5,0.7,2.2,0.9c-0.3-0.4-0.6-0.9-0.9-1.5c-0.8-1.6-1.3-3.3-1.6-4.5c-0.3-1-0.4-1.5-0.4-1.9l0,0c0,0,0,0,0-0.1
				s-0.1-0.2-0.2-0.3c-0.2-0.3-0.6-0.7-1-1c-0.9-0.8-2.3-1.7-3.6-2.3l0,0c-1.6-0.8-3-1.2-3.7-1.2c0.1,0.1,0.3,0.3,0.4,0.5
				c0.5,0.6,1.3,1.2,2.2,1.8c0.4,0.2,0.5,0.7,0.4,1.1s-0.5,0.7-0.9,0.7c0.1,0.2,0.3,0.4,0.6,0.7c0.6,0.6,1.5,1.3,2.5,1.9
				c0.4,0.3,0.6,0.8,0.4,1.2C318-1,317.5-0.8,317.1-0.8z"/>
			<path class="st2" d="M327.7,5.8L327.7,5.8c-0.4,0-0.9,0-1.3-0.3c-0.5-0.2-0.8-0.9-0.8-1.4c0-0.3,0.1-0.5,0.3-0.7
				c0.2-0.2,0.4-0.3,0.7-0.3h0.2c0.2,0,0.5-0.1,1.1-0.7c0.4-0.5,0.9-1.3,1.2-2.2c0.7-1.7,1.1-3.9,1.1-4.6s0.3-1.2,0.6-1.6
				c0.3-0.4,0.8-0.9,1.3-1.4c1.1-0.9,2.5-1.9,4-2.6l0,0c1.9-1,3.5-1.5,4.8-1.5c0.4,0,0.9,0,1.3,0.3c0.5,0.2,0.8,0.9,0.8,1.4
				c-0.1,1-0.6,1.6-1.2,2.3c-0.4,0.4-0.8,0.7-1.2,1.1c0.1,0.3,0.2,0.6,0.2,0.8c-0.1,1.1-0.7,1.7-1.4,2.4c-0.4,0.4-0.8,0.7-1.3,1.1
				c0.2,0.3,0.3,0.6,0.3,0.9c0,0.7-0.3,1.2-0.6,1.6c-0.3,0.4-0.8,0.9-1.3,1.4c-1.1,0.9-2.5,1.9-4,2.6l0,0
				C330.5,5.3,328.9,5.8,327.7,5.8z M332.3-4.4c-0.1,1.7-0.9,5.4-2.5,7.7c0.6-0.2,1.2-0.5,1.8-0.8c1.3-0.6,2.5-1.4,3.4-2.2
				c0.6-0.5,1-0.9,1.2-1.1h-0.1c-0.5,0-0.9-0.2-1.1-0.7c-0.2-0.4,0-1,0.4-1.2c1-0.6,1.9-1.3,2.5-1.8c0.3-0.3,0.6-0.6,0.7-0.8
				c-0.4-0.1-0.7-0.3-0.9-0.7c-0.1-0.4,0-0.9,0.4-1.1c1.2-0.8,2.2-1.7,2.7-2.3c-0.7,0-2.1,0.4-3.7,1.2l0,0c-1.3,0.6-2.5,1.4-3.4,2.2
				S332.3-4.5,332.3-4.4L332.3-4.4z"/>
			<path class="st2" d="M326.8,5.2c-1,0-1.8-0.6-2.2-1c-0.6-0.6-1.1-1.3-1.5-2.3c-0.8-1.9-1.2-4.3-1.2-6.9c0-3.1,0.7-6,1.8-8
				c0.2-0.3,0.5-0.5,0.8-0.5s0.7,0.1,0.9,0.4c0.4,0.5,0.9,0.7,1.5,0.7s1.1-0.2,1.5-0.7c0.2-0.3,0.5-0.4,0.9-0.4
				c0.3,0,0.6,0.2,0.8,0.5c1.2,2,1.8,4.8,1.8,8c0,4.1-1,7.4-2.7,9.2C328.6,4.6,327.8,5.2,326.8,5.2L326.8,5.2L326.8,5.2z
				 M324.9-10.9c-0.7,1.6-1,3.7-1,5.9c0,3.7,1.1,6.7,2.1,7.7c0.3,0.3,0.6,0.4,0.8,0.4c0.3,0,0.5-0.1,0.8-0.4c0.4-0.4,0.7-0.9,1-1.6
				c0.7-1.6,1.1-3.8,1.1-6.1c0-2.1-0.4-4.2-1-5.9c-0.6,0.3-1.2,0.5-1.9,0.5l0,0l0,0C326.1-10.4,325.5-10.5,324.9-10.9z"/>
			<path class="st2" d="M424.8,113.1H331c-0.6,0-1-0.5-1-1c0-0.6,0.5-1,1-1h92.8v-5.8c0-0.6,0.5-1,1-1c0.6,0,1,0.5,1,1v6.9
				c0,0.3-0.1,0.5-0.3,0.7C425.4,113,425.1,113.1,424.8,113.1z M324.3,113.1c-0.6,0-1-0.5-1-1c0-0.6,0.5-1,1-1c0.6,0,1,0.5,1,1
				C325.3,112.7,324.8,113.1,324.3,113.1z M317.5,113.1h-81.2c-0.3,0-0.5-0.1-0.7-0.3c-0.2-0.2-0.3-0.5-0.3-0.7v-6.8
				c0-0.5,0.3-0.9,0.8-1l51.7-10.8c0.3-0.1,0.6,0,0.9,0.2c0.2,0.2,0.4,0.5,0.4,0.8v9.7h30.6c0.6,0,1,0.5,1,1c0,0.6-0.5,1-1,1H288
				c-0.3,0-0.5-0.1-0.7-0.3c-0.2-0.2-0.3-0.4-0.3-0.7v-9.5L237.3,106v4.9h80.2c0.6,0,1,0.5,1,1C318.5,112.7,318,113.1,317.5,113.1z
				 M373.1,106.4h-39.9c-0.6,0-1-0.5-1-1c0-0.6,0.5-1,1-1h38.9v-9.7c0-0.3,0.1-0.6,0.4-0.8c0.2-0.2,0.6-0.3,0.9-0.2l52.5,11.1
				c0.3,0.1,0.5,0.2,0.6,0.4c0.1,0.2,0.2,0.5,0.1,0.8c-0.1,0.5-0.7,0.9-1.2,0.8L374.1,96v9.5c0,0.3-0.1,0.5-0.3,0.7
				C373.7,106.3,373.4,106.4,373.1,106.4z M326.4,106.4c-0.6,0-1-0.5-1-1c0-0.6,0.5-1,1-1c0.6,0,1,0.5,1,1
				C327.5,105.9,327,106.4,326.4,106.4z"/>
			<g>
				<path class="st2" d="M194.3,97.8c-0.6,0-1-0.5-1-1v-9.5c0-0.6,0.5-1,1-1c0.6,0,1,0.5,1,1v9.5C195.3,97.3,194.9,97.8,194.3,97.8z
					"/>
			</g>
			<g>
				<path class="st2" d="M202.8,97.8c-0.6,0-1-0.5-1-1v-9.5c0-0.6,0.5-1,1-1c0.6,0,1,0.5,1,1v9.5C203.8,97.3,203.3,97.8,202.8,97.8z
					"/>
			</g>
			<g>
				<path class="st2" d="M211.4,97.8c-0.6,0-1-0.5-1-1v-9.5c0-0.6,0.5-1,1-1c0.6,0,1,0.5,1,1v9.5C212.4,97.3,211.9,97.8,211.4,97.8z
					"/>
			</g>
			<g>
				<path class="st2" d="M219.9,97.8c-0.6,0-1-0.5-1-1v-9.5c0-0.6,0.5-1,1-1c0.6,0,1,0.5,1,1v9.5C221,97.3,220.5,97.8,219.9,97.8z"
					/>
			</g>
			<g>
				<path class="st2" d="M228.4,97.8c-0.6,0-1-0.5-1-1v-9.5c0-0.6,0.5-1,1-1c0.6,0,1,0.5,1,1v9.5C229.4,97.3,229,97.8,228.4,97.8z"
					/>
			</g>
			<g>
				<path class="st2" d="M237,97.8c-0.6,0-1-0.5-1-1v-9.5c0-0.6,0.5-1,1-1c0.6,0,1,0.5,1,1v9.5C238,97.3,237.5,97.8,237,97.8z"/>
			</g>
			<g>
				<path class="st2" d="M245.5,97.8c-0.6,0-1-0.5-1-1v-9.5c0-0.6,0.5-1,1-1s1,0.5,1,1v9.5C246.6,97.3,246.1,97.8,245.5,97.8z"/>
			</g>
			<g>
				<path class="st2" d="M254,97.8c-0.6,0-1-0.5-1-1v-9.5c0-0.6,0.5-1,1-1s1,0.5,1,1v9.5C255,97.3,254.6,97.8,254,97.8z"/>
			</g>
			<g>
				<path class="st2" d="M262.6,97.8c-0.6,0-1-0.5-1-1v-9.5c0-0.6,0.5-1,1-1c0.6,0,1,0.5,1,1v9.5C263.6,97.3,263.2,97.8,262.6,97.8z
					"/>
			</g>
			<g>
				<path class="st2" d="M271.2,97.8c-0.6,0-1-0.5-1-1v-9.5c0-0.6,0.5-1,1-1c0.6,0,1,0.5,1,1v9.5C272.2,97.3,271.7,97.8,271.2,97.8z
					"/>
			</g>
			<g>
				<path class="st2" d="M279.7,97.8c-0.6,0-1-0.5-1-1v-9.5c0-0.6,0.5-1,1-1c0.6,0,1,0.5,1,1v9.5C280.8,97.3,280.3,97.8,279.7,97.8z
					"/>
			</g>
			<g>
				<path class="st2" d="M382.3,97.8c-0.6,0-1-0.5-1-1v-9.5c0-0.6,0.5-1,1-1c0.6,0,1,0.5,1,1v9.5C383.3,97.3,382.8,97.8,382.3,97.8z
					"/>
			</g>
			<g>
				<path class="st2" d="M390.8,97.8c-0.6,0-1-0.5-1-1v-9.6c0-0.6,0.5-1,1-1c0.6,0,1,0.5,1,1v9.6C391.8,97.3,391.3,97.8,390.8,97.8z
					"/>
			</g>
			<g>
				<path class="st2" d="M399.3,97.8c-0.6,0-1-0.5-1-1v-9.6c0-0.6,0.5-1,1-1c0.6,0,1,0.5,1,1v9.6C400.4,97.3,399.9,97.8,399.3,97.8z
					"/>
			</g>
			<g>
				<path class="st2" d="M407.9,97.8c-0.6,0-1-0.5-1-1v-9.6c0-0.6,0.5-1,1-1c0.6,0,1,0.5,1,1v9.6C408.9,97.3,408.5,97.8,407.9,97.8z
					"/>
			</g>
			<g>
				<path class="st2" d="M416.4,97.8c-0.6,0-1-0.5-1-1v-9.5c0-0.6,0.5-1,1-1c0.6,0,1,0.5,1,1v9.5C417.4,97.3,416.9,97.8,416.4,97.8z
					"/>
			</g>
			<g>
				<path class="st2" d="M424.9,97.8c-0.6,0-1-0.5-1-1v-9.5c0-0.6,0.5-1,1-1c0.6,0,1,0.5,1,1v9.5C426,97.3,425.5,97.8,424.9,97.8z"
					/>
			</g>
			<g>
				<path class="st2" d="M433.5,97.8c-0.6,0-1-0.5-1-1v-9.6c0-0.6,0.5-1,1-1s1,0.5,1,1v9.6C434.5,97.3,434.1,97.8,433.5,97.8z"/>
			</g>
			<g>
				<path class="st2" d="M442,97.8c-0.6,0-1-0.5-1-1v-9.6c0-0.6,0.5-1,1-1c0.6,0,1,0.5,1,1v9.6C443,97.3,442.6,97.8,442,97.8z"/>
			</g>
			<g>
				<path class="st2" d="M450.6,97.8c-0.6,0-1-0.5-1-1v-9.6c0-0.6,0.5-1,1-1c0.6,0,1,0.5,1,1v9.6C451.6,97.3,451.1,97.8,450.6,97.8z
					"/>
			</g>
			<g>
				<path class="st2" d="M459.1,97.8c-0.6,0-1-0.5-1-1v-9.5c0-0.6,0.5-1,1-1c0.6,0,1,0.5,1,1v9.5C460.2,97.3,459.7,97.8,459.1,97.8z
					"/>
			</g>
			<g>
				<path class="st2" d="M467.7,97.8c-0.6,0-1-0.5-1-1v-9.6c0-0.6,0.5-1,1-1c0.6,0,1,0.5,1,1v9.6C468.7,97.3,468.3,97.8,467.7,97.8z
					"/>
			</g>
			<g>
				<path class="st2" d="M180.8,155.8h-6.7c-0.6,0-1-0.5-1-1c0-0.6,0.5-1,1-1h6.7c0.6,0,1,0.5,1,1
					C181.8,155.4,181.4,155.8,180.8,155.8z"/>
			</g>
			<g>
				<path class="st2" d="M233.6,155.8h-16.7c-0.6,0-1-0.5-1-1c0-0.6,0.5-1,1-1h16.7c0.6,0,1,0.5,1,1
					C234.6,155.4,234.2,155.8,233.6,155.8z"/>
			</g>
			<g>
				<path class="st2" d="M286.4,155.8h-16.6c-0.6,0-1-0.5-1-1c0-0.6,0.5-1,1-1h16.6c0.6,0,1,0.5,1,1
					C287.4,155.4,287,155.8,286.4,155.8z"/>
			</g>
			<g>
				<path class="st2" d="M339.3,155.8h-16.7c-0.6,0-1-0.5-1-1c0-0.6,0.5-1,1-1h16.7c0.6,0,1,0.5,1,1
					C340.4,155.4,339.9,155.8,339.3,155.8z"/>
			</g>
			<g>
				<path class="st2" d="M392.1,155.8h-16.7c-0.6,0-1-0.5-1-1c0-0.6,0.5-1,1-1h16.7c0.6,0,1,0.5,1,1
					C393.2,155.4,392.7,155.8,392.1,155.8z"/>
			</g>
			<g>
				<path class="st2" d="M444.9,155.8h-16.7c-0.6,0-1-0.5-1-1c0-0.6,0.5-1,1-1h16.7c0.6,0,1,0.5,1,1
					C446,155.4,445.5,155.8,444.9,155.8z"/>
			</g>
			<g>
				<path class="st2" d="M487,155.8h-5.9c-0.6,0-1-0.5-1-1c0-0.6,0.5-1,1-1h5.9c0.6,0,1,0.5,1,1C488,155.4,487.6,155.8,487,155.8z"
					/>
			</g>
			<g>
				<path class="st2" d="M315.4,71.8c-0.4,0-0.8-0.2-0.9-0.6l0,0c-0.3-0.8-0.5-1.6-0.5-2.4s0.2-1.6,0.6-2.2c0.1-0.1,0.4-1,0.6-2.1
					c0.2-1,0.4-2.2,0.6-3.7c0.3-2.6,0.5-4.9,0.5-4.9l0,0c0-0.6,0.5-1,1.1-0.9c0.6,0,1,0.5,0.9,1.1c0,0,0,0,0,0.1
					c-0.1,1.3-0.5,5.8-1.1,8.8c-0.2,1.1-0.4,2-0.8,2.8c-0.2,0.3-0.3,0.7-0.3,1.1c0,0.3,0,0.6,0.1,0.9l1.6-0.2c0-0.5,0-1.3,0-2.2
					c0-2.9,0.1-6.1,0.9-8.1c0.3-0.7,0.7-1.4,1.6-1.7c0.2,0,0.2-0.1,0.3-0.1c0-0.2-0.4-0.8-0.6-1.1c-0.1-0.1-0.1-0.1-0.1-0.1
					c-0.4-0.4-0.4-1.1,0-1.4c0.4-0.4,1.1-0.4,1.4,0c0,0.1,0.3,0.3,0.6,0.8c0.3,0.4,0.7,1,0.7,1.9c0,0.5-0.2,0.9-0.5,1.3
					c-0.3,0.3-0.7,0.6-1.3,0.7l0,0c0,0.1-0.1,0.2-0.2,0.4c-0.2,0.5-0.3,1.1-0.5,2c-0.3,1.7-0.3,3.9-0.3,5.4c0,1.6,0.1,2.8,0.1,3
					c0,0.5-0.4,1-0.9,1.1l-3.3,0.4C315.5,71.8,315.4,71.8,315.4,71.8z"/>
			</g>
			<g>
				<path class="st2" d="M345.7,71.8h-0.1l-3.3-0.4c-0.5-0.1-0.9-0.5-0.9-1.1l0,0c0-0.3,0.1-1.8,0.1-3.6c0-1.6-0.1-3.1-0.2-4.2
					c-0.1-1.3-0.4-2.5-0.7-2.9c0-0.1-0.1-0.1-0.1-0.1c-0.5-0.2-1-0.4-1.3-0.8c-0.3-0.3-0.5-0.8-0.5-1.3c0-0.8,0.4-1.4,0.6-1.8
					c0.3-0.4,0.5-0.7,0.6-0.8c0.4-0.4,1-0.4,1.4-0.1c0.4,0.4,0.4,1,0.1,1.4c0,0,0,0-0.1,0.1s-0.2,0.2-0.3,0.4
					c-0.2,0.3-0.3,0.6-0.3,0.7c0.1,0,0.2,0.1,0.3,0.1c0.9,0.3,1.3,0.9,1.5,1.6c0.2,0.6,0.4,1.3,0.6,2.3c0.2,1.4,0.3,3.2,0.3,5.4
					c0,0.9,0,1.8-0.1,2.8l1.6,0.2c0.1-0.4,0.2-0.7,0.2-1c0-0.4-0.1-0.7-0.3-1c-0.4-0.7-0.6-1.5-0.8-2.8c-0.2-1-0.4-2.3-0.6-3.8
					c-0.3-2.6-0.5-5-0.5-5c0-0.3,0.1-0.5,0.2-0.7c0.2-0.2,0.4-0.3,0.7-0.4c0.6,0,1.1,0.4,1.1,0.9l0,0c0,0,0,0,0,0.1
					c0.1,1.3,0.5,5.7,1.1,8.5c0.2,1.1,0.5,2,0.6,2.1c0.4,0.6,0.6,1.3,0.6,2.1c0,0.9-0.2,1.7-0.6,2.6l0,0
					C346.5,71.6,346.1,71.8,345.7,71.8z"/>
			</g>
			<g>
				<path class="st2" d="M314.3,37.8c-0.1,0-0.2,0-0.3-0.1l0,0c-0.2-0.1-0.5-0.1-0.8-0.2c-0.4-0.1-1.1-0.2-1.7-0.2l0,0
					c-0.6,0-1.1,0.1-1.3,0.3c-0.4,0.3-1.1,0.2-1.4-0.3c-0.2-0.2-0.2-0.5-0.2-0.8s0.2-0.5,0.4-0.7c0.9-0.6,1.9-0.7,2.5-0.7
					c1.3,0,2.5,0.3,3.2,0.5l0,0l0,0c0.3,0.1,0.5,0.3,0.6,0.5s0.1,0.5,0.1,0.8C315.1,37.5,314.7,37.8,314.3,37.8z"/>
			</g>
			<g>
				<path class="st2" d="M316.7,40.5c-0.1,0-0.2,0-0.3,0l0,0c-0.3-0.1-0.5-0.1-0.8-0.2c-0.4-0.1-1.1-0.2-1.8-0.2h-0.1
					c-0.6,0-1.1,0.1-1.3,0.3c-0.4,0.3-1.1,0.2-1.4-0.2c-0.3-0.5-0.2-1.1,0.2-1.4c0.8-0.6,1.8-0.7,2.5-0.7c1,0,2.1,0.2,3.2,0.5l0,0
					c0.5,0.2,0.8,0.8,0.7,1.3C317.5,40.2,317.1,40.5,316.7,40.5z"/>
			</g>
			<g>
				<path class="st2" d="M306.6,37.3c-0.2,0-0.4-0.1-0.6-0.2c-0.2-0.2-0.4-0.4-0.4-0.7s0-0.5,0.2-0.8c1.1-1.4,2.9-2.6,5.2-3.3h0.1
					c0.6-0.2,1.1,0.2,1.3,0.7c0.1,0.5-0.2,1.1-0.7,1.3l0,0l0,0c-0.1,0-0.2,0.1-0.4,0.1c-0.3,0.1-0.7,0.3-1.1,0.5
					c-1.1,0.5-2.1,1.3-2.6,2C307.2,37.2,306.9,37.3,306.6,37.3z"/>
			</g>
			<g>
				<path class="st2" d="M346.6,37.8c-0.4,0-0.8-0.3-1-0.7c-0.1-0.3-0.1-0.5,0.1-0.8c0.1-0.2,0.3-0.4,0.6-0.5l0,0
					c0.5-0.2,1.8-0.5,3.2-0.5c0.7,0,1.7,0.1,2.5,0.7c0.5,0.3,0.6,1,0.2,1.4c-0.3,0.4-1,0.5-1.4,0.2c-0.2-0.1-0.6-0.3-1.3-0.3h-0.1
					c-0.7,0-1.4,0.1-1.8,0.2c-0.5,0.1-0.8,0.2-0.8,0.2C346.8,37.8,346.7,37.8,346.6,37.8z"/>
			</g>
			<g>
				<path class="st2" d="M349.2,40.5c-0.2,0-0.4-0.1-0.6-0.2c-0.3-0.2-0.8-0.3-1.3-0.3l0,0c-0.7,0-1.4,0.1-1.7,0.2
					c-0.5,0.1-0.8,0.2-0.8,0.2c-0.5,0.2-1.1-0.1-1.3-0.6c-0.1-0.3-0.1-0.5,0-0.8c0.1-0.2,0.3-0.4,0.6-0.5l0,0
					c0.6-0.2,1.8-0.5,3.2-0.5c0.7,0,1.7,0.1,2.5,0.7c0.2,0.2,0.4,0.4,0.4,0.7s0,0.5-0.2,0.8C349.8,40.3,349.5,40.5,349.2,40.5z"/>
			</g>
			<g>
				<path class="st2" d="M354.4,37.2L354.4,37.2c-0.3,0-0.6-0.1-0.8-0.4c-0.9-1.2-2.8-2.1-3.8-2.4c-0.3-0.1-0.4-0.1-0.5-0.1l0,0
					c-0.5-0.2-0.9-0.7-0.7-1.3c0.1-0.5,0.7-0.9,1.3-0.7l0,0h0.1c2.3,0.7,4.1,1.8,5.2,3.2c0.2,0.2,0.2,0.5,0.2,0.7
					c0,0.3-0.2,0.5-0.4,0.7C354.9,37.1,354.6,37.2,354.4,37.2z"/>
			</g>
			<g>
				<path class="st2" d="M326.6,26c-0.6,0-1-0.5-1-1V4.1c0-0.6,0.5-1,1-1c0.6,0,1,0.5,1,1v20.8C327.6,25.5,327.2,26,326.6,26z"/>
			</g>
			<g>
				<path class="st2" d="M487.9,305c-0.6,0-1-0.5-1-1c0-0.6,0.5-1,1-1c0.6,0,1,0.5,1,1C489,304.5,488.5,305,487.9,305z M481.1,305
					h-95.2c-0.6,0-1-0.5-1-1c0-0.6,0.5-1,1-1h95.2c0.6,0,1,0.5,1,1C482.2,304.5,481.7,305,481.1,305z M379.1,305c-0.6,0-1-0.5-1-1
					c0-0.6,0.5-1,1-1c0.6,0,1,0.5,1,1S379.7,305,379.1,305z M372.3,305h-95.2c-0.6,0-1-0.5-1-1c0-0.6,0.5-1,1-1h95.2
					c0.6,0,1,0.5,1,1S372.9,305,372.3,305z M270.3,305c-0.6,0-1-0.5-1-1c0-0.6,0.5-1,1-1c0.6,0,1,0.5,1,1S270.9,305,270.3,305z
					 M263.5,305h-95.2c-0.6,0-1-0.5-1-1c0-0.6,0.5-1,1-1h95.2c0.6,0,1,0.5,1,1S264.1,305,263.5,305z"/>
			</g>
			<g>
				<path class="st2" d="M236.4,106.4h-60.1c-0.6,0-1-0.5-1-1c0-0.6,0.5-1,1-1h60.1c0.6,0,1,0.5,1,1S236.9,106.4,236.4,106.4z"/>
			</g>
			<g>
				<path class="st2" d="M373.1,106.4H288c-0.6,0-1-0.5-1-1c0-0.6,0.5-1,1-1h85.1c0.6,0,1,0.5,1,1S373.7,106.4,373.1,106.4z"/>
			</g>
			<g>
				<path class="st2" d="M484.9,106.4h-60.1c-0.6,0-1-0.5-1-1c0-0.6,0.5-1,1-1h60.1c0.6,0,1,0.5,1,1S485.4,106.4,484.9,106.4z"/>
			</g>
		</g>
	</g>
	<g>
		<defs>
			<path id="SVGID_39_" d="M43,34.1c37.5-17,47,27.2,70.2,35.6S187,116.2,241,68.4s111.3-55.6,157.3-34.3s77.3,64.1,80.7,114.7
				s-4,127.9-84.7,138.6s-81.8-37.4-130-35.6c-48.2,1.8-39.4,19.7-80.7,37.1c-54,22.8-171.3,22.8-141.8-75.6
				c18.5-61.6-4.2-90.9-12-117.9C22.4,69.2,16.7,46,43,34.1z"/>
		</defs>
		<clipPath id="SVGID_40_">
			<use xlink:href="#SVGID_39_"  style="overflow:visible;"/>
		</clipPath>
		<g class="st21">
			<g>
				<path class="st2" d="M127,175c2-4.8,7.6-6.9,12.3-4.7c0.8,0.4,1.5,0.1,1.8-0.7c1.6-4.4,6-6.8,10.6-5.8c0.5,0.1,1.1-0.1,1.4-0.6
					c2.7-4.9,8.6-11.6,14.6-6.6c0.9,0.7,2,0.2,2.1-0.9c0.6-6.3,5.8-10.4,12.1-9.4c1.6,0.2,2.3-2.2,0.7-2.4
					c-8-1.2-14.5,3.8-15.3,11.8c0.7-0.3,1.4-0.6,2.1-0.9c-5.7-4.8-12.7-1.5-16.5,3.9c-1.4,2-1.3,2-3.4,2.2c-1.6,0.2-2.9,0.3-4.4,0.9
					c-3.2,1.3-5.3,3.9-6.5,7.1c0.6-0.2,1.2-0.5,1.8-0.7c-6.3-2.9-13.3-0.2-16,6.2C123.9,175.8,126.3,176.5,127,175L127,175z"/>
			</g>
		</g>
	</g>
	<g>
		<defs>
			<path id="SVGID_41_" d="M43,34.1c37.5-17,47,27.2,70.2,35.6S187,116.2,241,68.4s111.3-55.6,157.3-34.3s77.3,64.1,80.7,114.7
				s-4,127.9-84.7,138.6s-81.8-37.4-130-35.6c-48.2,1.8-39.4,19.7-80.7,37.1c-54,22.8-171.3,22.8-141.8-75.6
				c18.5-61.6-4.2-90.9-12-117.9C22.4,69.2,16.7,46,43,34.1z"/>
		</defs>
		<clipPath id="SVGID_42_">
			<use xlink:href="#SVGID_41_"  style="overflow:visible;"/>
		</clipPath>
		<g class="st22">
			<g>
				<path class="st2" d="M158.3,188.6c0.6-2.8,2.3-5.4,5.6-5.5c0.8,0,1.6,0.8,2.5,0.8c1.6-0.1,1.7-0.8,2.6-1.8
					c0.5-0.6,1-1.3,1.5-1.9c1.9-1.6,4-2.2,6.4-1.8c0.4-0.1,1,0.3,1.3,0c2.5-1.6,1.3-3.9,5.6-5.4c1.5-0.5,0.9-2.9-0.7-2.4
					c-1.4,0.5-2.6,1-3.7,2c-0.6,0.6-1,1.3-1.6,1.9c-1.1,1.1-0.2,0.8-1.6,1.2c-3.1,0.8-5.5,0.5-8,3.1c-1.5,1.6-1.3,2-3.6,1.8
					c-1.4-0.1-2-0.4-3.5,0.1c-3.2,1-4.6,4.2-5.2,7.2C155.5,189.5,158,190.2,158.3,188.6L158.3,188.6z"/>
			</g>
		</g>
	</g>
	<g>
		<defs>
			<path id="SVGID_43_" d="M43,34.1c37.5-17,47,27.2,70.2,35.6S187,116.2,241,68.4s111.3-55.6,157.3-34.3s77.3,64.1,80.7,114.7
				s-4,127.9-84.7,138.6s-81.8-37.4-130-35.6c-48.2,1.8-39.4,19.7-80.7,37.1c-54,22.8-171.3,22.8-141.8-75.6
				c18.5-61.6-4.2-90.9-12-117.9C22.4,69.2,16.7,46,43,34.1z"/>
		</defs>
		<clipPath id="SVGID_44_">
			<use xlink:href="#SVGID_43_"  style="overflow:visible;"/>
		</clipPath>
		<g class="st23">
			<g>
				<path class="st2" d="M164.7,211.9c0.8-2.4,2.8-3.8,5.1-4.4c1.5-0.4,3,0.1,4.4-0.3c0.8-0.2,1.3-0.7,1.7-1.4
					c1.3-2.5,1.3-4.4,4.5-5.4c1.5-0.5,0.9-2.9-0.7-2.4c-1.8,0.6-3.3,1.5-4.5,3.1c-0.6,0.9-0.8,1.9-1.3,2.8c-0.8,1.3-1.5,0.9-3.2,1.1
					c-3.9,0.4-7.2,2.7-8.5,6.4C161.7,212.8,164.1,213.5,164.7,211.9L164.7,211.9z"/>
			</g>
		</g>
	</g>
	<g>
		<defs>
			<path id="SVGID_45_" d="M43,34.1c37.5-17,47,27.2,70.2,35.6S187,116.2,241,68.4s111.3-55.6,157.3-34.3s77.3,64.1,80.7,114.7
				s-4,127.9-84.7,138.6s-81.8-37.4-130-35.6c-48.2,1.8-39.4,19.7-80.7,37.1c-54,22.8-171.3,22.8-141.8-75.6
				c18.5-61.6-4.2-90.9-12-117.9C22.4,69.2,16.7,46,43,34.1z"/>
		</defs>
		<clipPath id="SVGID_46_">
			<use xlink:href="#SVGID_45_"  style="overflow:visible;"/>
		</clipPath>
		<g class="st24">
			<g>
				<path class="st2" d="M77.6,160.6c6.3-12.9,21.5-20,35.2-20.2c15-0.3,30.6,7.9,39.2,20.2c0.9,1.3,3.1,0.1,2.2-1.3
					c-9.1-13.1-25.4-21.8-41.3-21.5c-14.5,0.3-30.7,7.8-37.3,21.5C74.7,160.8,76.9,162.1,77.6,160.6L77.6,160.6z"/>
			</g>
		</g>
	</g>
	<g>
		<defs>
			<path id="SVGID_47_" d="M43,34.1c37.5-17,47,27.2,70.2,35.6S187,116.2,241,68.4s111.3-55.6,157.3-34.3s77.3,64.1,80.7,114.7
				s-4,127.9-84.7,138.6s-81.8-37.4-130-35.6c-48.2,1.8-39.4,19.7-80.7,37.1c-54,22.8-171.3,22.8-141.8-75.6
				c18.5-61.6-4.2-90.9-12-117.9C22.4,69.2,16.7,46,43,34.1z"/>
		</defs>
		<clipPath id="SVGID_48_">
			<use xlink:href="#SVGID_47_"  style="overflow:visible;"/>
		</clipPath>
		<g class="st25">
			<g>
				<path class="st2" d="M66.7,207.6c1.8-0.2,3.8-0.9,5.3,0.3c1.5,1.1,2.7,2.9,3.9,4.2c1.1,1.2,2.9-0.6,1.8-1.8
					c-1.5-1.6-3.1-3.9-5-5.1c-1.7-1.1-4.2-0.3-6.1-0.1C65.1,205.2,65.1,207.7,66.7,207.6L66.7,207.6z"/>
			</g>
		</g>
	</g>
	<g>
		<defs>
			<path id="SVGID_49_" d="M43,34.1c37.5-17,47,27.2,70.2,35.6S187,116.2,241,68.4s111.3-55.6,157.3-34.3s77.3,64.1,80.7,114.7
				s-4,127.9-84.7,138.6s-81.8-37.4-130-35.6c-48.2,1.8-39.4,19.7-80.7,37.1c-54,22.8-171.3,22.8-141.8-75.6
				c18.5-61.6-4.2-90.9-12-117.9C22.4,69.2,16.7,46,43,34.1z"/>
		</defs>
		<clipPath id="SVGID_50_">
			<use xlink:href="#SVGID_49_"  style="overflow:visible;"/>
		</clipPath>
		<g class="st26">
			<g>
				<path class="st2" d="M405.1,171.3c0,2.7,0,5.3,0,8c0,1.6,2.5,1.6,2.5,0c0-2.7,0-5.3,0-8C407.6,169.7,405.1,169.7,405.1,171.3
					L405.1,171.3z"/>
			</g>
		</g>
	</g>
	<g>
		<defs>
			<path id="SVGID_51_" d="M43,34.1c37.5-17,47,27.2,70.2,35.6S187,116.2,241,68.4s111.3-55.6,157.3-34.3s77.3,64.1,80.7,114.7
				s-4,127.9-84.7,138.6s-81.8-37.4-130-35.6c-48.2,1.8-39.4,19.7-80.7,37.1c-54,22.8-171.3,22.8-141.8-75.6
				c18.5-61.6-4.2-90.9-12-117.9C22.4,69.2,16.7,46,43,34.1z"/>
		</defs>
		<clipPath id="SVGID_52_">
			<use xlink:href="#SVGID_51_"  style="overflow:visible;"/>
		</clipPath>
		<g class="st27">
			<g>
				<path class="st2" d="M411.8,177c0,5.2,0,10.4,0,15.7c0,1.6,2.5,1.6,2.5,0c0-5.2,0-10.4,0-15.7
					C414.2,175.4,411.8,175.4,411.8,177L411.8,177z"/>
			</g>
		</g>
	</g>
	<g>
		<defs>
			<path id="SVGID_53_" d="M43,34.1c37.5-17,47,27.2,70.2,35.6S187,116.2,241,68.4s111.3-55.6,157.3-34.3s77.3,64.1,80.7,114.7
				s-4,127.9-84.7,138.6s-81.8-37.4-130-35.6c-48.2,1.8-39.4,19.7-80.7,37.1c-54,22.8-171.3,22.8-141.8-75.6
				c18.5-61.6-4.2-90.9-12-117.9C22.4,69.2,16.7,46,43,34.1z"/>
		</defs>
		<clipPath id="SVGID_54_">
			<use xlink:href="#SVGID_53_"  style="overflow:visible;"/>
		</clipPath>
		<g class="st28">
			<g>
				<path class="st2" d="M406.8,259c0,10.2,0,20.4,0,30.7c0,1.6,2.5,1.6,2.5,0c0-10.2,0-20.4,0-30.7
					C409.2,257.4,406.8,257.4,406.8,259L406.8,259z"/>
			</g>
		</g>
	</g>
	<g>
		<defs>
			<path id="SVGID_55_" d="M43,34.1c37.5-17,47,27.2,70.2,35.6S187,116.2,241,68.4s111.3-55.6,157.3-34.3s77.3,64.1,80.7,114.7
				s-4,127.9-84.7,138.6s-81.8-37.4-130-35.6c-48.2,1.8-39.4,19.7-80.7,37.1c-54,22.8-171.3,22.8-141.8-75.6
				c18.5-61.6-4.2-90.9-12-117.9C22.4,69.2,16.7,46,43,34.1z"/>
		</defs>
		<clipPath id="SVGID_56_">
			<use xlink:href="#SVGID_55_"  style="overflow:visible;"/>
		</clipPath>
		<g class="st29">
			<g>
				<path class="st2" d="M414.8,266.7c0,2,0,4,0,6c0,1.6,2.5,1.6,2.5,0c0-2,0-4,0-6C417.2,265.1,414.8,265.1,414.8,266.7
					L414.8,266.7z"/>
			</g>
		</g>
	</g>
	<g>
		<defs>
			<path id="SVGID_57_" d="M43,34.1c37.5-17,47,27.2,70.2,35.6S187,116.2,241,68.4s111.3-55.6,157.3-34.3s77.3,64.1,80.7,114.7
				s-4,127.9-84.7,138.6s-81.8-37.4-130-35.6c-48.2,1.8-39.4,19.7-80.7,37.1c-54,22.8-171.3,22.8-141.8-75.6
				c18.5-61.6-4.2-90.9-12-117.9C22.4,69.2,16.7,46,43,34.1z"/>
		</defs>
		<clipPath id="SVGID_58_">
			<use xlink:href="#SVGID_57_"  style="overflow:visible;"/>
		</clipPath>
		<g class="st30">
			<g>
				<path class="st2" d="M358.1,158.3c0,5.6,0,11.1,0,16.7c0,1.6,2.5,1.6,2.5,0c0-5.6,0-11.1,0-16.7
					C360.6,156.7,358.1,156.7,358.1,158.3L358.1,158.3z"/>
			</g>
		</g>
	</g>
	<g>
		<defs>
			<path id="SVGID_59_" d="M43,34.1c37.5-17,47,27.2,70.2,35.6S187,116.2,241,68.4s111.3-55.6,157.3-34.3s77.3,64.1,80.7,114.7
				s-4,127.9-84.7,138.6s-81.8-37.4-130-35.6c-48.2,1.8-39.4,19.7-80.7,37.1c-54,22.8-171.3,22.8-141.8-75.6
				c18.5-61.6-4.2-90.9-12-117.9C22.4,69.2,16.7,46,43,34.1z"/>
		</defs>
		<clipPath id="SVGID_60_">
			<use xlink:href="#SVGID_59_"  style="overflow:visible;"/>
		</clipPath>
		<g class="st31">
			<g>
				<path class="st2" d="M358.4,184c0,2,0,4,0,6c0,1.6,2.5,1.6,2.5,0c0-2,0-4,0-6C360.9,182.4,358.4,182.4,358.4,184L358.4,184z"/>
			</g>
		</g>
	</g>
	<g>
		<defs>
			<path id="SVGID_61_" d="M43,34.1c37.5-17,47,27.2,70.2,35.6S187,116.2,241,68.4s111.3-55.6,157.3-34.3s77.3,64.1,80.7,114.7
				s-4,127.9-84.7,138.6s-81.8-37.4-130-35.6c-48.2,1.8-39.4,19.7-80.7,37.1c-54,22.8-171.3,22.8-141.8-75.6
				c18.5-61.6-4.2-90.9-12-117.9C22.4,69.2,16.7,46,43,34.1z"/>
		</defs>
		<clipPath id="SVGID_62_">
			<use xlink:href="#SVGID_61_"  style="overflow:visible;"/>
		</clipPath>
		<g class="st32">
			<g>
				<path class="st2" d="M351.1,215c0,3.6,0,7.1,0,10.7c0,1.6,2.5,1.6,2.5,0c0-3.6,0-7.1,0-10.7C353.6,213.4,351.1,213.4,351.1,215
					L351.1,215z"/>
			</g>
		</g>
	</g>
	<g>
		<defs>
			<path id="SVGID_63_" d="M43,34.1c37.5-17,47,27.2,70.2,35.6S187,116.2,241,68.4s111.3-55.6,157.3-34.3s77.3,64.1,80.7,114.7
				s-4,127.9-84.7,138.6s-81.8-37.4-130-35.6c-48.2,1.8-39.4,19.7-80.7,37.1c-54,22.8-171.3,22.8-141.8-75.6
				c18.5-61.6-4.2-90.9-12-117.9C22.4,69.2,16.7,46,43,34.1z"/>
		</defs>
		<clipPath id="SVGID_64_">
			<use xlink:href="#SVGID_63_"  style="overflow:visible;"/>
		</clipPath>
		<g class="st33">
			<g>
				<path class="st2" d="M303.8,216.3c0,13.9,0,27.8,0,41.7c0,1.6,2.5,1.6,2.5,0c0-13.9,0-27.8,0-41.7
					C306.2,214.7,303.8,214.7,303.8,216.3L303.8,216.3z"/>
			</g>
		</g>
	</g>
	<g>
		<defs>
			<path id="SVGID_65_" d="M43,34.1c37.5-17,47,27.2,70.2,35.6S187,116.2,241,68.4s111.3-55.6,157.3-34.3s77.3,64.1,80.7,114.7
				s-4,127.9-84.7,138.6s-81.8-37.4-130-35.6c-48.2,1.8-39.4,19.7-80.7,37.1c-54,22.8-171.3,22.8-141.8-75.6
				c18.5-61.6-4.2-90.9-12-117.9C22.4,69.2,16.7,46,43,34.1z"/>
		</defs>
		<clipPath id="SVGID_66_">
			<use xlink:href="#SVGID_65_"  style="overflow:visible;"/>
		</clipPath>
		<g class="st34">
			<g>
				<path class="st2" d="M309.8,197.7c0,3.7,0,7.3,0,11c0,1.6,2.5,1.6,2.5,0c0-3.7,0-7.3,0-11C312.2,196.1,309.8,196.1,309.8,197.7
					L309.8,197.7z"/>
			</g>
		</g>
	</g>
	<g>
		<defs>
			<path id="SVGID_67_" d="M43,34.1c37.5-17,47,27.2,70.2,35.6S187,116.2,241,68.4s111.3-55.6,157.3-34.3s77.3,64.1,80.7,114.7
				s-4,127.9-84.7,138.6s-81.8-37.4-130-35.6c-48.2,1.8-39.4,19.7-80.7,37.1c-54,22.8-171.3,22.8-141.8-75.6
				c18.5-61.6-4.2-90.9-12-117.9C22.4,69.2,16.7,46,43,34.1z"/>
		</defs>
		<clipPath id="SVGID_68_">
			<use xlink:href="#SVGID_67_"  style="overflow:visible;"/>
		</clipPath>
		<g class="st35">
			<g>
				<path class="st2" d="M304.1,176.7c0,2.2,0,4.4,0,6.7c0,1.6,2.5,1.6,2.5,0c0-2.2,0-4.4,0-6.7
					C306.6,175.1,304.1,175.1,304.1,176.7L304.1,176.7z"/>
			</g>
		</g>
	</g>
	<g>
		<defs>
			<path id="SVGID_69_" d="M43,34.1c37.5-17,47,27.2,70.2,35.6S187,116.2,241,68.4s111.3-55.6,157.3-34.3s77.3,64.1,80.7,114.7
				s-4,127.9-84.7,138.6s-81.8-37.4-130-35.6c-48.2,1.8-39.4,19.7-80.7,37.1c-54,22.8-171.3,22.8-141.8-75.6
				c18.5-61.6-4.2-90.9-12-117.9C22.4,69.2,16.7,46,43,34.1z"/>
		</defs>
		<clipPath id="SVGID_70_">
			<use xlink:href="#SVGID_69_"  style="overflow:visible;"/>
		</clipPath>
		<g class="st36">
			<g>
				<path class="st2" d="M247.8,217.3c0,4.1,0,8.2,0,12.3c0,1.6,2.5,1.6,2.5,0c0-4.1,0-8.2,0-12.3
					C250.2,215.7,247.8,215.7,247.8,217.3L247.8,217.3z"/>
			</g>
		</g>
	</g>
	<g>
		<defs>
			<path id="SVGID_71_" d="M43,34.1c37.5-17,47,27.2,70.2,35.6S187,116.2,241,68.4s111.3-55.6,157.3-34.3s77.3,64.1,80.7,114.7
				s-4,127.9-84.7,138.6s-81.8-37.4-130-35.6c-48.2,1.8-39.4,19.7-80.7,37.1c-54,22.8-171.3,22.8-141.8-75.6
				c18.5-61.6-4.2-90.9-12-117.9C22.4,69.2,16.7,46,43,34.1z"/>
		</defs>
		<clipPath id="SVGID_72_">
			<use xlink:href="#SVGID_71_"  style="overflow:visible;"/>
		</clipPath>
		<g class="st37">
			<g>
				<path class="st2" d="M256.4,176.7c0,1.4,0,2.9,0,4.3c0,1.6,2.5,1.6,2.5,0c0-1.4,0-2.9,0-4.3
					C258.9,175.1,256.4,175.1,256.4,176.7L256.4,176.7z"/>
			</g>
		</g>
	</g>
	<g>
		<defs>
			<path id="SVGID_73_" d="M43,34.1c37.5-17,47,27.2,70.2,35.6S187,116.2,241,68.4s111.3-55.6,157.3-34.3s77.3,64.1,80.7,114.7
				s-4,127.9-84.7,138.6s-81.8-37.4-130-35.6c-48.2,1.8-39.4,19.7-80.7,37.1c-54,22.8-171.3,22.8-141.8-75.6
				c18.5-61.6-4.2-90.9-12-117.9C22.4,69.2,16.7,46,43,34.1z"/>
		</defs>
		<clipPath id="SVGID_74_">
			<use xlink:href="#SVGID_73_"  style="overflow:visible;"/>
		</clipPath>
		<g class="st38">
			<g>
				<path class="st2" d="M195.4,242.3c0,4.3,0,8.7,0,13c0,1.6,2.5,1.6,2.5,0c0-4.3,0-8.7,0-13C197.9,240.7,195.4,240.7,195.4,242.3
					L195.4,242.3z"/>
			</g>
		</g>
	</g>
	<g>
		<defs>
			<path id="SVGID_75_" d="M43,34.1c37.5-17,47,27.2,70.2,35.6S187,116.2,241,68.4s111.3-55.6,157.3-34.3s77.3,64.1,80.7,114.7
				s-4,127.9-84.7,138.6s-81.8-37.4-130-35.6c-48.2,1.8-39.4,19.7-80.7,37.1c-54,22.8-171.3,22.8-141.8-75.6
				c18.5-61.6-4.2-90.9-12-117.9C22.4,69.2,16.7,46,43,34.1z"/>
		</defs>
		<clipPath id="SVGID_76_">
			<use xlink:href="#SVGID_75_"  style="overflow:visible;"/>
		</clipPath>
		<g class="st39">
			<g>
				<path class="st2" d="M197.3,233.2c1.6,0,1.6-2.5,0-2.5S195.7,233.2,197.3,233.2L197.3,233.2z"/>
			</g>
		</g>
	</g>
	<g>
		<defs>
			<path id="SVGID_77_" d="M43,34.1c37.5-17,47,27.2,70.2,35.6S187,116.2,241,68.4s111.3-55.6,157.3-34.3s77.3,64.1,80.7,114.7
				s-4,127.9-84.7,138.6s-81.8-37.4-130-35.6c-48.2,1.8-39.4,19.7-80.7,37.1c-54,22.8-171.3,22.8-141.8-75.6
				c18.5-61.6-4.2-90.9-12-117.9C22.4,69.2,16.7,46,43,34.1z"/>
		</defs>
		<clipPath id="SVGID_78_">
			<use xlink:href="#SVGID_77_"  style="overflow:visible;"/>
		</clipPath>
		<g class="st40">
			<g>
				<path class="st2" d="M204.1,171.3c0,4,0,8,0,12c0,1.6,2.5,1.6,2.5,0c0-4,0-8,0-12C206.6,169.7,204.1,169.7,204.1,171.3
					L204.1,171.3z"/>
			</g>
		</g>
	</g>
	<g>
		<defs>
			<path id="SVGID_79_" d="M43,34.1c37.5-17,47,27.2,70.2,35.6S187,116.2,241,68.4s111.3-55.6,157.3-34.3s77.3,64.1,80.7,114.7
				s-4,127.9-84.7,138.6s-81.8-37.4-130-35.6c-48.2,1.8-39.4,19.7-80.7,37.1c-54,22.8-171.3,22.8-141.8-75.6
				c18.5-61.6-4.2-90.9-12-117.9C22.4,69.2,16.7,46,43,34.1z"/>
		</defs>
		<clipPath id="SVGID_80_">
			<use xlink:href="#SVGID_79_"  style="overflow:visible;"/>
		</clipPath>
		<g class="st41">
			<g>
				<path class="st2" d="M360.8,263.7c0,10.8,0,21.6,0,32.3c0,1.6,2.5,1.6,2.5,0c0-10.8,0-21.6,0-32.3
					C363.2,262.1,360.8,262.1,360.8,263.7L360.8,263.7z"/>
			</g>
		</g>
	</g>
	<g>
		<defs>
			<path id="SVGID_81_" d="M43,34.1c37.5-17,47,27.2,70.2,35.6S187,116.2,241,68.4s111.3-55.6,157.3-34.3s77.3,64.1,80.7,114.7
				s-4,127.9-84.7,138.6s-81.8-37.4-130-35.6c-48.2,1.8-39.4,19.7-80.7,37.1c-54,22.8-171.3,22.8-141.8-75.6
				c18.5-61.6-4.2-90.9-12-117.9C22.4,69.2,16.7,46,43,34.1z"/>
		</defs>
		<clipPath id="SVGID_82_">
			<use xlink:href="#SVGID_81_"  style="overflow:visible;"/>
		</clipPath>
		<g class="st42">
			<g>
				<path class="st2" d="M458.8,157c0,3.4,0,6.9,0,10.3c0,1.6,2.5,1.6,2.5,0c0-3.4,0-6.9,0-10.3C461.2,155.4,458.8,155.4,458.8,157
					L458.8,157z"/>
			</g>
		</g>
	</g>
	<g>
		<defs>
			<path id="SVGID_83_" d="M43,34.1c37.5-17,47,27.2,70.2,35.6S187,116.2,241,68.4s111.3-55.6,157.3-34.3s77.3,64.1,80.7,114.7
				s-4,127.9-84.7,138.6s-81.8-37.4-130-35.6c-48.2,1.8-39.4,19.7-80.7,37.1c-54,22.8-171.3,22.8-141.8-75.6
				c18.5-61.6-4.2-90.9-12-117.9C22.4,69.2,16.7,46,43,34.1z"/>
		</defs>
		<clipPath id="SVGID_84_">
			<use xlink:href="#SVGID_83_"  style="overflow:visible;"/>
		</clipPath>
		<g class="st43">
			<g>
				<path class="st2" d="M465.3,174.6c1.6,0,1.6-2.5,0-2.5C463.7,172.1,463.7,174.6,465.3,174.6L465.3,174.6z"/>
			</g>
		</g>
	</g>
	<g>
		<defs>
			<path id="SVGID_85_" d="M43,34.1c37.5-17,47,27.2,70.2,35.6S187,116.2,241,68.4s111.3-55.6,157.3-34.3s77.3,64.1,80.7,114.7
				s-4,127.9-84.7,138.6s-81.8-37.4-130-35.6c-48.2,1.8-39.4,19.7-80.7,37.1c-54,22.8-171.3,22.8-141.8-75.6
				c18.5-61.6-4.2-90.9-12-117.9C22.4,69.2,16.7,46,43,34.1z"/>
		</defs>
		<clipPath id="SVGID_86_">
			<use xlink:href="#SVGID_85_"  style="overflow:visible;"/>
		</clipPath>
		<g class="st44">
			<g>
				<path class="st2" d="M462.8,182.7c0,2.6,0,5.1,0,7.7c0,1.6,2.5,1.6,2.5,0c0-2.6,0-5.1,0-7.7
					C465.2,181.1,462.8,181.1,462.8,182.7L462.8,182.7z"/>
			</g>
		</g>
	</g>
	<g>
		<defs>
			<path id="SVGID_87_" d="M43,34.1c37.5-17,47,27.2,70.2,35.6S187,116.2,241,68.4s111.3-55.6,157.3-34.3s77.3,64.1,80.7,114.7
				s-4,127.9-84.7,138.6s-81.8-37.4-130-35.6c-48.2,1.8-39.4,19.7-80.7,37.1c-54,22.8-171.3,22.8-141.8-75.6
				c18.5-61.6-4.2-90.9-12-117.9C22.4,69.2,16.7,46,43,34.1z"/>
		</defs>
		<clipPath id="SVGID_88_">
			<use xlink:href="#SVGID_87_"  style="overflow:visible;"/>
		</clipPath>
		<g class="st45">
			<g>
				<path class="st2" d="M465.7,218.6c1.6,0,1.6-2.5,0-2.5S464.1,218.6,465.7,218.6L465.7,218.6z"/>
			</g>
		</g>
	</g>
	<g>
		<defs>
			<path id="SVGID_89_" d="M43,34.1c37.5-17,50.1,22.1,64,36.1c22.5,22.7,80,46,134-1.8s111.3-55.6,157.3-34.3s77.3,64.1,80.7,114.7
				s-4,127.9-84.7,138.6s-81.8-37.4-130-35.6c-48.2,1.8-39.4,19.7-80.7,37.1c-54,22.8-171.3,22.8-141.8-75.6
				c18.5-61.6-4.2-90.9-12-117.9C22.4,69.2,16.7,46,43,34.1z"/>
		</defs>
		<clipPath id="SVGID_90_">
			<use xlink:href="#SVGID_89_"  style="overflow:visible;"/>
		</clipPath>
		<g class="st46">
			<g>
				<path class="st2" d="M458,244.2c1.6,0,1.6-2.5,0-2.5S456.4,244.2,458,244.2L458,244.2z"/>
			</g>
		</g>
	</g>
</g>
</svg>
