<?xml version="1.0" encoding="utf-8"?>
<!-- Generator: Adobe Illustrator 22.1.0, SVG Export Plug-In . SVG Version: 6.00 Build 0)  -->
<svg version="1.1" id="Capa_1" xmlns="http://www.w3.org/2000/svg" xmlns:xlink="http://www.w3.org/1999/xlink" x="0px" y="0px"
	 viewBox="0 0 500 320" style="enable-background:new 0 0 500 320;" xml:space="preserve">
<style type="text/css">
	.st0{fill:#4C5D8E;}
	.st1{fill:#2C354C;}
	.st2{fill:#9AACED;}
	.st3{fill:#FFD16A;}
	.st4{fill:#FFFFFF;}
	.st5{fill:#0B1C30;}
	.st6{fill:none;stroke:#222221;stroke-width:0.2297;stroke-miterlimit:10;}
	.st7{fill:#FFF86A;}
	.st8{fill:none;stroke:#0B1C30;stroke-width:2;stroke-miterlimit:10;}
</style>
<path class="st0" d="M106.8,89c0,0-53.6,11.5-69.2,40.1c-9.8,17.8-6.8,95.6,0,105.5c6.8,10,48.1,28.6,48.1,28.6l5,8l9.9,10.7
	c0,0,30.6,23,41.6,27.9s15-3.5,15-3.5s12.8,16.3,30.8,4c8.4-5.8,16-57,16-57l14.1,0.5l1.7-10.3c0,0,25.5-1.2,26.3-8.1
	c0.8-6.9,20.1-70.3,13.7-100.6c-1.2-5.7,0-17.7-27.2-24.9c0,0-12-18.2-48.4-18.7c0,0-2.8,45-23.6,44.9C129.1,136,106.8,89,106.8,89z
	"/>
<path class="st1" d="M225.8,180.1c0,0,12-1,16.5-6.9s7.8-11.5,7.8-11.5s-4.3,66.7-15.3,67.2S225.8,180.1,225.8,180.1z"/>
<path class="st1" d="M111.5,158.6c0,0,5.1-5.3,9.2-3.8c4.2,1.4,5.3,7,5.3,7L111.5,158.6z"/>
<path class="st1" d="M104.3,194.3c0,0-6.2,53.6-1.9,55.7c4.3,2,6.4,2.7,9.9,0s11.9-10.7,11.7-29.6s0-23.6,0-23.6L104.3,194.3z"/>
<path class="st2" d="M114.5,46.6v1.5c0,0-20.5,2.9-20.9,10.4c-0.7,15.3,17.6,12.3,17.6,12.3s-8.2,19.7-1.1,24.6
	c7.1,4.9,13.7,29.2,47,39.4c5.9,1.8,10.8-3,20.2-21.1c6.3-12.2,4.1-23.7,4.1-23.7l-3.5-0.9c-1.1-3.6-0.6-12.7,0-13.6v-7
	c0,0,16.4,0.7,15.9-5.8c-0.4-6.5-13.1-3.2-13.1-3.2l-3.5-14.9L114.5,46.6z"/>
<path class="st3" d="M191.5,177.3h-24.1c-3.7,0-6.7-3-6.7-6.7v-46.9c0-3.7,3-6.7,6.7-6.7h24.1c3.7,0,6.7,3,6.7,6.7v46.9
	C198.2,174.3,195.2,177.3,191.5,177.3z"/>
<path class="st2" d="M109.2,160.2c0,0,21.6,5.8,33.7,1.5c12.1-4.3,12.1-5.4,12.1-5.4s-2.1-11.9,6.1-12.6l0.4,7c0,0,8.2-6.2,11.5-1.8
	s-6.3,10.6-6.3,10.6s12.9-5.6,14.7-1.6c1.9,4-10.6,9.4-10.6,9.4s8.3-6.1,10.4-1.2c2.1,4.9-18.4,30-46,30.7s-31-2.4-31-2.4
	S103.2,169.3,109.2,160.2z"/>
<path class="st2" d="M211.9,139.8c0,0,15.8-16.4,22.6-13.8c6.8,2.6,25.8,19.4,14.2,35.7c-11.7,16.4-30,19.9-38.9,17.5
	c-22.1-5.8-23.2-13.2-21.4-16.3c1.4-2.3,11-0.2,11-0.2s-12.8-2.9-11.2-9.2s13.1-0.8,13.1-0.8s-12.9-4.5-10.4-9.1s23.6,2.7,23.6,2.7
	L211.9,139.8z"/>
<path class="st0" d="M85.2,40.1l2.3,6.5l123.3-1.4l-1.9-8.3l-27.4,1.4c0,0,4.5-19.7-4.9-22.5S125.7,14.2,123,18
	c-2.7,3.7-3.9,19-3.9,19L85.2,40.1z"/>
<g>
	<path class="st4" d="M140.8,58.3c0,0,1.3-5.6,7.2-5.9c7.6-0.3,9.7,3.6,9.7,3.6s-0.6,5.1-8.3,5.4C141.7,61.8,140.8,58.3,140.8,58.3z
		"/>
	<g>
		<path class="st5" d="M141.8,58.5c0.8-3.5,4-5.2,7.4-5.2c2.4,0,6.5,0.6,7.7,3.1c-0.4-0.9,0.1-0.6-0.2-0.1c-0.2,0.4-0.3,0.8-0.6,1.2
			c-1.1,1.6-3,2.4-4.8,2.7c-2.1,0.4-8.5,0.7-9.4-2.2c-0.4-1.2-2.3-0.7-1.9,0.5c1.2,3.9,7.5,4.1,10.7,3.8c2.8-0.3,8.6-2.4,8.2-6.3
			c-0.4-3.4-6.6-4.5-9-4.6c-4.5-0.2-8.7,2-9.8,6.6C139.5,59.3,141.5,59.8,141.8,58.5z"/>
	</g>
</g>
<g>
	<path class="st5" d="M150.6,52.3c0,0-2.7,2.3-1.9,5.5c0.6,2.5,3.5,3.2,3.5,3.2s2.7-0.7,3.8-1.9c1.6-1.8,1.8-3.1,1.8-3.1
		s-0.6-1.4-3-2.7C152.4,52.2,150.6,52.3,150.6,52.3z"/>
</g>
<g>
	<path class="st4" d="M165.5,52.8c0,0,1.9-5.4,7.9-5c7.6,0.6,9.2,4.7,9.2,4.7s-1.2,5-8.9,4.4C166,56.4,165.5,52.8,165.5,52.8z"/>
	<g>
		<path class="st5" d="M166.5,53.1c1.4-3.7,5.2-4.7,8.8-4c1.9,0.4,3.8,1,5.3,2.4c0.4,0.4,0.7,0.7,1,1.2c0.4,0.5,0,0.1,0.1-0.3
			c-0.7,3-4.9,3.7-7.3,3.6c-2-0.1-7.3-0.6-7.8-3.4c-0.2-1.3-2.2-0.7-1.9,0.5c0.7,4,7.1,4.9,10.2,4.9c2.8,0,8.6-1.4,8.8-5.2
			c0.2-3.6-6.2-5.5-8.8-5.8c-4.4-0.6-8.6,1.2-10.2,5.6C164.1,53.7,166,54.3,166.5,53.1z"/>
	</g>
</g>
<g>
	<path class="st5" d="M175.9,48.1c0,0-2.9,2-2.5,5.2c0.3,2.5,3.1,3.6,3.1,3.6s2.7-0.3,4-1.5c1.8-1.6,2.1-2.9,2.1-2.9s-0.4-1.5-2.7-3
		C177.8,48.1,175.9,48.1,175.9,48.1z"/>
</g>
<g>
	<g>
		<path class="st5" d="M165.1,62.3c3.7-0.6,7.4-1.1,11.2-1.5c2.8-0.3,5.6-0.5,8.4-0.6c1.8,0,6-0.5,7.5,0.8c4,3.6-9.2,6.1-11,6.4
			c-3.7,0.5-7.4,0.8-11.1,0.8c-1.3,0-1.3,2,0,2c4.4-0.1,28.1-0.6,24.7-9.3c-1.6-4.2-10.7-2.8-13.9-2.6c-5.4,0.4-10.9,1-16.2,1.9
			C163.3,60.6,163.8,62.5,165.1,62.3L165.1,62.3z"/>
	</g>
</g>
<g>
	<g>
		<path class="st5" d="M166.1,12.7c6.9-4.1,13.3,1.2,15.1,8.2c1.2,4.6,0.1,9.9-2.7,13.8c-0.8,1,1,2,1.7,1c4.1-5.7,4.5-13.7,1.1-19.7
			c-3.4-6.1-9.9-8.8-16.2-5.1C164,11.6,165,13.4,166.1,12.7L166.1,12.7z"/>
	</g>
</g>
<g>
	<g>
		<path class="st5" d="M102.5,61c3.1-0.8,6.4-1.8,9.2-3.3c1.1-0.6,0.1-2.3-1-1.7c-2.7,1.5-5.8,2.3-8.7,3.1
			C100.8,59.5,101.3,61.4,102.5,61L102.5,61z"/>
	</g>
</g>
<g>
	<g>
		<path class="st5" d="M105,55.6c1.9,2.3,2.9,5.4,3.2,8.3c0.2,1.3,2.1,0.7,1.9-0.5c-0.4-3.3-1.6-6.6-3.8-9.2
			C105.6,53.2,104.2,54.6,105,55.6L105,55.6z"/>
	</g>
</g>
<g>
	<g>
		<path class="st5" d="M140.8,50.4c3.2-4.5,8.4-8,14-7.6c1.3,0.1,1.3-1.9,0-2c-6.3-0.4-12.2,3.6-15.7,8.6
			C138.3,50.5,140.1,51.5,140.8,50.4L140.8,50.4z"/>
	</g>
</g>
<g>
	<g>
		<path class="st5" d="M167.5,41.6c4.9,2,9.8,4,14.6,5.9c1.2,0.5,1.7-1.5,0.5-1.9c-4.9-2-9.8-4-14.6-5.9
			C166.9,39.2,166.3,41.1,167.5,41.6L167.5,41.6z"/>
	</g>
</g>
<g>
	<g>
		<path class="st5" d="M159.2,78.6c1.3,2.9,3.5,8,7,8.7c4.1,0.9,7-6.1,8.1-9c0.5-1.2-1.5-1.7-1.9-0.5c-0.9,2.3-3.9,9.3-6.9,6.8
			c-2.1-1.7-3.5-4.7-4.5-7.1C160.4,76.4,158.7,77.4,159.2,78.6L159.2,78.6z"/>
	</g>
</g>
<g>
	<path class="st5" d="M172.2,71c0,0-21.2-5.1-26.9-0.8s16.8,5.2,22.4,3.8C173.4,72.5,172.2,71,172.2,71z"/>
</g>
<g>
	<path class="st5" d="M174.1,72.3c3.6-3.3,5.7-2.2,14.4-1.8c5.9,0.2,9.5,2.3,8.2,4.1C194.9,77.2,172.8,73.5,174.1,72.3z"/>
</g>
<g>
	<g>
		<path class="st5" d="M175.9,75.5c0.6,7,1.3,14.9-0.3,21.8c-1.5,6.4-8.9,8.2-14.8,8.5c-6.2,0.3-10.6-3.1-13.9-8.1
			c-0.7-1.1-2.4-0.1-1.7,1c2.7,4.1,6.6,8.2,11.7,8.9c5.8,0.9,14.8-0.7,18.8-5.5c2.8-3.4,2.6-9.4,2.7-13.5c0.1-4.4-0.1-8.8-0.5-13.2
			C177.7,74.2,175.7,74.2,175.9,75.5L175.9,75.5z"/>
	</g>
</g>
<g>
	<g>
		<path class="st5" d="M150.1,102.2c-10.1,0-21.4-0.1-31.1-3.3c-11.4-3.8-8.1-20-5.8-29.2c0.2-0.6-0.3-1.2-1-1.3
			c-4.5-0.2-14.5-1.1-14.6-7.1c-0.2-8,10.4-11.6,16.9-11.5c1.3,0,1.3-2,0-2c-7.6-0.2-19.1,4.4-18.9,13.5c0.1,7.4,11.2,8.8,16.7,9
			c-0.3-0.4-0.6-0.8-1-1.3c-2.1,8.4-5.6,25.2,3.9,30.3c5.8,3.1,13.4,3.6,19.8,4.1c5,0.4,10.1,0.6,15.1,0.6
			C151.4,104.1,151.4,102.1,150.1,102.2L150.1,102.2z"/>
	</g>
</g>
<g>
	<g>
		<path class="st5" d="M115.2,44.9c-1.5,7.6-5.1,20.9,3.3,25.3c3.4,1.8,10.9,5.2,13.4,0.3c2-4-1.3-7.8-5.1-8.7
			c0.1,0.6,0.2,1.2,0.2,1.8c2-1.2,4.8-3.3,4.5-6c-0.4-3.1-4.3-4.7-7-5.2c0.2,0.5,0.4,1,0.6,1.5c1.2-2.8,2.4-5.6,3.7-8.4
			c0.5-1.2-1.2-2.2-1.7-1c-1.2,2.8-2.4,5.6-3.7,8.4c-0.2,0.5-0.1,1.3,0.6,1.5c2,0.4,3.5,1,4.4,3c1,2.4,0.5,2.2-1.3,3.8
			c-0.3,0.3-0.7,0.5-1.1,0.7c-0.7,0.4-0.6,1.6,0.2,1.8c1.1,0.3,2.2,0.8,3,1.6c2.1,2.2,1.1,5.2-2,5.7c-1.1,0.2-3-0.5-4.1-0.9
			c-4.6-1.6-7.2-3.2-7.5-8.2c-0.4-5.4,0.5-11.1,1.6-16.4C117.4,44.2,115.5,43.6,115.2,44.9L115.2,44.9z"/>
	</g>
</g>
<g>
	<g>
		<path class="st5" d="M118.4,36.8c0.1-5.4,0.2-11.2,1.6-16.5c0.7-2.6,1.3-3.1,3.7-3.5c2.9-0.5,5.9-0.8,8.9-1.1
			c7.5-0.8,15.1-1.4,22.6-1.9c5.6-0.4,11.4-1,17-0.5c1.3,0.1,1.3-1.9,0-2c-6.5-0.6-13.3,0.2-19.7,0.7c-8.4,0.6-16.8,1.3-25.1,2.3
			c-3.9,0.5-7.6,0.1-9,4.4c-1.9,5.6-1.9,12.2-2,18.1C116.4,38.1,118.4,38.1,118.4,36.8L118.4,36.8z"/>
	</g>
</g>
<g>
	<g>
		<path class="st5" d="M209.7,34.2c-37.8,1.2-75.6,2.4-113.4,3.6c-1.7,0.1-3.8-0.2-5.4,0.2c-2.7,0.6-4,4.3-2.3,6.6
			c2.2,3.1,11.2,1.3,14.2,1.2c23.2-0.5,46.5-0.9,69.7-1.4c10.6-0.2,21.2-0.4,31.8-0.6c1.6,0,3.9,0.3,5.4-0.1
			c3.6-1.1,3.8-8.2,0.3-9.5c-1.2-0.4-1.7,1.5-0.5,1.9c1.8,0.7,0.7,5.2-0.1,5.6c-0.4,0.2-1.6,0-2,0c-2.6,0.1-5.1,0.1-7.7,0.2
			c-9.3,0.2-18.7,0.4-28,0.6c-21.5,0.4-43,0.9-64.5,1.3c-3.4,0.1-6.8,0.1-10.2,0.2c-1.5,0-3.7,0.5-5.1,0.1c-1.5-0.4-3.5-2.6-1-4.1
			c0.3-0.2,1.1,0,1.4,0c2.3-0.4,5-0.2,7.4-0.2c20.3-0.7,40.7-1.3,61-2c16.4-0.5,32.7-1,49.1-1.6C211,36.2,211,34.2,209.7,34.2z"/>
	</g>
</g>
<g>
	<g>
		<path class="st5" d="M108.9,160.5c5,1,10.1,1.7,15.1,2.2c6.9,0.7,15.4,1.7,21.9-1.1c7.8-3.3,14.2-11.7,23-12.9
			c2.4-0.3,5.4,0.3,4.2,3.3c-1.1,2.6-4.7,5-6.9,6.6c-1,0.7-0.1,2.4,1,1.7c2.7-1.5,9.9-5.6,11.9-2.4c2.1,3.4-5.9,7.2-8.8,8.5
			c0.3,0.6,0.7,1.2,1,1.7c1.9-1.2,9-4.8,9-0.4c0,2.3-3,5.6-4.4,7.2c-6.1,7.4-14.5,13.1-23.4,16.6c-11,4.3-23.3,4.7-34.9,4
			c-4-0.2-9.1-0.3-12.9-2.1c-1.1-0.6-2.2,1.1-1,1.7c5.4,2.8,13.2,2.5,19,2.6c14.6,0.1,28.4-1.7,40.9-9.7c6.7-4.3,15.6-11,18.3-18.9
			c2.6-7.8-7.9-5.1-11.6-2.8c-1.1,0.7-0.1,2.3,1,1.7c3.3-1.6,13.6-6.8,10.4-11.8c-2.9-4.6-12.2,0.5-15.5,2.3c0.3,0.6,0.7,1.2,1,1.7
			c2.9-2,11.3-7.9,7.5-12c-3.5-3.8-10-0.4-13.5,1.4c-5.4,2.9-10.1,7.3-15.6,9.9c-4.3,2-9.7,1.8-14.3,1.7c-7.3-0.2-14.7-1.2-21.9-2.6
			C108.2,158.3,107.7,160.2,108.9,160.5L108.9,160.5z"/>
	</g>
</g>
<g>
	<g>
		<path class="st5" d="M208.8,135c0.7,3.4,1.4,6.8,2.1,10.1c0.3,1.3,2.2,0.7,1.9-0.5c-0.7-3.4-1.4-6.8-2.1-10.1
			C210.4,133.2,208.5,133.7,208.8,135L208.8,135z"/>
	</g>
</g>
<g>
	<g>
		<path class="st5" d="M211.6,139.8c6.1-5.9,13.6-11.2,21.5-14.1c6-2.1,13.1-2.6,18,2.1c3.5,3.3,5,8.4,6,12.9
			c2.9,13.6,1.7,28.2,0.1,41.8c-1.8,15.5-4.9,31-9.3,46c-1.1,3.7-2.1,6.2-5.4,8.4c-2.7,1.9-5.8,3.2-8.9,4.3
			c-3.9,1.4-7.9,2.6-11.9,3.4c-1.3,0.3-0.7,2.2,0.5,1.9c8.1-1.7,21-4.5,25.7-12.1c1.6-2.7,2.2-6.2,3-9.1c1.2-4.3,2.3-8.7,3.2-13.1
			c1.9-8.4,3.4-16.9,4.6-25.5c2.1-16,9.7-68.3-20.1-64.5c-10.7,1.4-20.9,8.7-28.5,16.1C209.3,139.3,210.7,140.7,211.6,139.8
			L211.6,139.8z"/>
	</g>
</g>
<g>
	<g>
		<path class="st5" d="M178,90.1c21.3-1.5,44.4,6.9,58.8,22.7c0.9,1,2.3-0.5,1.4-1.4c-14.7-16.2-38.4-24.8-60.2-23.3
			C176.7,88.2,176.7,90.2,178,90.1L178,90.1z"/>
	</g>
</g>
<g>
	<g>
		<path class="st5" d="M207.5,126.5c4.7-9.1,16.1-13.3,25.7-13.5c8.9-0.2,22.1,3,24.5,13.2c0.3,1.3,2.2,0.7,1.9-0.5
			c-2.5-10.6-15.4-14.5-24.8-14.7c-10.8-0.2-23.7,4.2-29,14.4C205.1,126.6,206.9,127.6,207.5,126.5L207.5,126.5z"/>
	</g>
</g>
<g>
	<g>
		<path class="st5" d="M224.1,180.1c-0.4,7.6-0.5,15.3-0.1,22.9c0.2,5.4,0.6,10.8,1.8,16.1c0.7,3.3,1.6,7.6,4.4,9.9
			c12.8,10.4,18.4-38.1,19-43c1-8.8,1.7-17.6,2.1-26.4c0.1-1.3-1.9-1.3-2,0c-0.7,16.7-2.2,33.7-5.9,50c-0.8,3.5-4.7,21.9-11.4,18.2
			c-3-1.6-3.8-7.1-4.3-10c-1-5-1.3-10.2-1.6-15.2c-0.3-7.5-0.3-15,0.1-22.5C226.2,178.8,224.2,178.8,224.1,180.1L224.1,180.1z"/>
	</g>
</g>
<g>
	<g>
		<path class="st5" d="M127.1,161.9c-0.1-4.9-3.7-8.3-8.6-8.1c-7.2,0.3-12.3,6-13.7,12.8c-1.6,7.7-1.4,16.1-1.9,23.8
			c-1,15.2-2,30.5-2.2,45.8c0,4.3-0.5,9.2,0.6,13.4c1.2,4.8,7.7,2.3,11.1,0.9c8.7-3.7,11.3-13.1,12.2-21.7
			c1.1-10.3,0.8-21.1-0.1-31.4c-0.1-1.3-2.1-1.3-2,0c0.6,6.4,0.6,13,0.6,19.4c-0.1,8.6,0.2,19-4.9,26.4c-2.4,3.4-5.9,5.5-9.9,6.4
			c-3.4,0.7-4.3,1.6-5.1-1.1c-1.1-3.4-0.4-8.1-0.4-11.6c0.2-21.9,1.9-43.9,3.6-65.8c0.2-2.4,0.4-4.6,1.2-6.9
			c1.9-5.1,7.1-9.6,12.9-8.4c2.9,0.6,4.6,3,4.7,6C125.1,163.2,127.1,163.2,127.1,161.9L127.1,161.9z"/>
	</g>
</g>
<g>
	<g>
		<path class="st5" d="M127.1,161.6c-2.2-12.2-16.2-18.5-27.3-14c-9.3,3.8-14.8,14.6-16.5,24c-0.2,1.3,1.7,1.8,1.9,0.5
			c1.4-8,5.6-17.1,12.7-21.4c10.2-6.2,25-0.7,27.2,11.4C125.4,163.4,127.3,162.9,127.1,161.6L127.1,161.6z"/>
	</g>
</g>
<g>
	<g>
		<path class="st5" d="M82.1,161.7c1-10.1,9.2-17.9,18.6-20.5c1.2-0.3,0.7-2.3-0.5-1.9c-10.3,2.9-19,11.4-20.1,22.4
			C80,163,82,163,82.1,161.7L82.1,161.7z"/>
	</g>
</g>
<g>
	<g>
		<path class="st5" d="M74.3,151.3c1.9-7.4,7.4-14.2,15.2-15.6c1.3-0.2,0.7-2.2-0.5-1.9c-8.4,1.5-14.6,8.9-16.6,17
			C72.1,152,74,152.5,74.3,151.3L74.3,151.3z"/>
	</g>
</g>
<g>
	<g>
		<path class="st5" d="M177,117.2c3.6-8.9,5.7-18.6,6.4-28.2c0.1-1.3-1.9-1.3-2,0c-0.7,9.4-2.8,18.9-6.3,27.7
			C174.6,117.9,176.6,118.4,177,117.2L177,117.2z"/>
	</g>
</g>
<g>
	<g>
		<path class="st5" d="M105.8,91.8c0.4,11.7,12.9,21.4,21.4,27.7c5.9,4.3,12.2,8.2,18.9,11.1c4.3,1.9,9.2,3.9,14,3.4
			c1.3-0.1,1.3-2.1,0-2c-4.6,0.5-9.3-1.5-13.4-3.3c-5.8-2.6-11.3-5.9-16.5-9.5c-8.5-5.9-22-15.8-22.4-27.4
			C107.7,90.6,105.7,90.6,105.8,91.8L105.8,91.8z"/>
	</g>
</g>
<path class="st6" d="M161.7,149.2"/>
<g>
	<g>
		<path class="st5" d="M197,174.1c-2.1,3.5-9.1,2.1-12.4,2.1c-3.1,0-6.2,0-9.3,0c-1.3,0-1.3,2,0,2c4.3,0,8.6,0,12.8,0
			c4,0,8.2,0.8,10.6-3.1C199.4,174,197.7,173,197,174.1L197,174.1z"/>
	</g>
</g>
<g>
	<circle class="st7" cx="179.4" cy="129" r="4.8"/>
	<g>
		<path class="st5" d="M183.2,129c-0.3,4.9-7.6,4.9-7.6,0C175.6,124.1,183,124.2,183.2,129c0.1,1.3,2.1,1.3,2,0
			c-0.2-3.1-2.5-5.8-5.8-5.8c-3.1,0-5.8,2.6-5.8,5.8c0,3.1,2.5,5.6,5.5,5.8c3.4,0.1,5.9-2.5,6.1-5.8
			C185.3,127.8,183.3,127.8,183.2,129z"/>
	</g>
</g>
<g>
	<g>
		<path class="st5" d="M155.6,154.5c-1.1-4.3-0.2-9.6,4.8-10.7c1.3-0.3,0.7-2.2-0.5-1.9c-6.1,1.4-7.5,7.7-6.1,13.1
			C154,156.3,155.9,155.8,155.6,154.5L155.6,154.5z"/>
	</g>
</g>
<path class="st2" d="M198.6,135.7v8.6h5.4c0,0,0-5.9-2.7-7.2S198.6,135.7,198.6,135.7z"/>
<g>
	<g>
		<path class="st5" d="M232.9,151.3c-10.8-4-22-8-33.4-10c-2.7-0.5-8.1-1.8-9.4,1.6c-1.9,4.9,5.9,8.7,9.3,10.1
			c0.2-0.6,0.4-1.3,0.5-1.9c-3.2-0.9-11.9-3-12.6,2.2c-0.8,5.2,8.1,8.2,11.8,9.4c0.2-0.6,0.4-1.3,0.5-1.9c-3.6-0.7-12.8-2-12.6,3.9
			c0.3,7.7,13.4,13.1,19.2,14.8c11.5,3.4,25.2,1.5,35.1-5.5c8.6-6,12.5-17.3,11.1-27.7c-1.4-10.1-8.1-18.5-17.4-22.6
			c-1.2-0.5-2.2,1.2-1,1.7c8.1,3.6,14.2,10.5,16.1,19.2c3,13.8-4.3,26.5-17.1,31.5c-11.7,4.6-25.1,3.7-35.8-3
			c-2.1-1.3-10.6-6.9-7.3-10.2c1.7-1.7,7.1-0.7,9.3-0.3c1.3,0.2,1.8-1.5,0.5-1.9c-2.6-0.8-8.3-2.4-9.5-5.1c-2.5-5.5,7-3.2,9.3-2.5
			c1.3,0.4,1.7-1.4,0.5-1.9c-1.9-0.8-3.9-1.9-5.5-3.2c-2.6-2.2-3.4-5.1,0.4-5.1c4.9,0,10.1,1.7,14.9,3c7.7,2.2,15.2,4.7,22.7,7.4
			C233.6,153.7,234.1,151.8,232.9,151.3L232.9,151.3z"/>
	</g>
</g>
<g>
	<g>
		<path class="st5" d="M161.7,151c0-7.3,0-14.7,0-22c0-2.3-1-8.1,1-10c1.9-1.9,7.8-1,10.1-1c4.7,0,9.5,0,14.2,0
			c3.5,0,9.3-1.2,10.2,3.4c0.6,3.3,0,7.3,0,10.6c0,3.2,0,6.4,0,9.7c0,1.3,2,1.3,2,0c0-6.6,0.4-13.2,0-19.8
			c-0.4-6.7-6.5-5.8-11.4-5.8c-7.4,0-15-0.5-22.4,0c-6.5,0.5-5.7,6.5-5.7,11.3c0,7.9,0,15.8,0,23.7
			C159.7,152.3,161.7,152.3,161.7,151L161.7,151z"/>
	</g>
</g>
<g>
	<g>
		<path class="st5" d="M198.4,135.7c-0.4-0.2,0.5,0.2,0.6,0.3c0.6,0.4,1.2,0.8,1.8,1.2c1.6,1.4,2.5,3.2,2.1,5.4
			c-0.2,1.3,1.7,1.8,1.9,0.5c0.8-4.3-2.2-7.8-5.9-9.4C197.7,133.2,197.2,135.2,198.4,135.7L198.4,135.7z"/>
	</g>
</g>
<g>
	<g>
		<path class="st5" d="M108.8,87.4C86.9,89.9,65.5,99.5,49,114.2c-10,9-16,20.2-17.6,33.5c-0.8,6.3-0.8,12.7-0.8,19.1
			c-0.1,9.6-1,19.2-0.5,28.9c0.8,14.6,3.5,31.2,11,44c3.8,6.5,12.7,10.7,19.1,14.2c11,6.1,22.7,11.4,31.8,20.2
			c0.9,0.9,2.3-0.5,1.4-1.4c-6.8-6.6-15.1-11.3-23.5-15.8c-8.5-4.6-18.7-9-25.5-16.2c-2.7-2.8-4.1-7-5.4-10.5
			c-2.9-7.7-4.8-15.7-5.9-23.9c-2.3-16.4-1-33.4-0.4-49.9c0.5-12.9,3.2-24.9,11.7-35c6.5-7.6,14.8-13.4,23.4-18.3
			c12.9-7.4,26-12.2,40.8-13.9C110.1,89.3,110.1,87.3,108.8,87.4L108.8,87.4z"/>
	</g>
</g>
<g>
	<g>
		<path class="st5" d="M86.9,258c1.5,7.6,3.4,16,9.2,21.7c2.8,2.8,6.3,4.2,10,5.3c5.4,1.5,10.5,3.2,15.2,6.3
			c4.7,3.1,8.5,7,11.8,11.6c2,2.8,4,6,7.3,7.4c6.1,2.6,14,0.8,20.4,0.4c1.3-0.1,1.3-2.1,0-2c-6,0.4-14.6,2.4-20.2-0.5
			c-3.9-2.1-6-7-8.8-10.3c-2.4-2.8-5.2-5.3-8.2-7.5c-3-2.1-6.3-3.9-9.8-5.2c-4.6-1.7-9.8-2.2-13.9-4.9c-7.4-4.9-9.4-14.7-11.1-22.8
			C88.5,256.2,86.6,256.7,86.9,258L86.9,258z"/>
	</g>
</g>
<g>
	<g>
		<path class="st5" d="M141.2,268.2c3.4,8.4,7,16.7,11,24.9c3,6.1,5.9,12.8,10.9,17.6c9.2,8.8,22.8,5.4,30.3-3.9
			c10-12.3,8.5-29.3,12.8-43.7c0.6-2,1.2-4.9,2.5-6.6c2.6-3.5,4.7-1.9,7.5-2.9c1.6-0.5,2.7-1.3,3.5-2.9c3.3-6.5-4.9-12.3-5-18.5
			c0-1.3-2-1.3-2,0c0.1,5.6,7.6,11.6,5.5,16.9c-1.5,3.9-5.2,2.2-8.1,3.4c-1.9,0.8-2.8,2.2-3.7,4c-5.7,11.8-4.6,25.7-8.8,38
			c-2.4,7-6.5,13.6-13.3,17.1c-7.3,3.7-15.2,2.5-20.8-3.5c-4.4-4.8-7.2-11.2-10-17c-3.7-7.7-7.1-15.6-10.3-23.5
			C142.7,266.5,140.7,267,141.2,268.2L141.2,268.2z"/>
	</g>
</g>
<g>
	<g>
		<path class="st5" d="M334,115c-18.7-1.9-34.1-12.4-46.4-26c-9.4-10.4-16.8-22.4-25.9-33c-5.3-6.1-14-14.5-23-10.6
			c-8.4,3.6-4.5,15.8,3.1,17.7c9.5,2.4,20.3-7.1,26.9-12.7c10.6-9.1,20.4-19.2,32.5-26.4c15-8.9,31.2-10.7,48.1-6.6
			c13,3.2,25,10.1,31.9,21.8c12.8,21.7,6.7,50-12.5,65.7c-1,0.8,0.4,2.2,1.4,1.4c16.3-13.3,23-34.2,18.2-54.4
			c-5.7-24.1-27.2-36-50.6-38.4c-30.3-3.1-50.1,18.4-71.3,36.2c-6.1,5.2-24.3,19.7-29.8,6.5c-3.1-7.4,4.4-10.9,10.7-8.9
			c4.7,1.5,8.5,5.3,11.7,8.8c10.2,11.3,18,24.5,28.4,35.7c12.5,13.5,28,23.4,46.6,25.3C335.3,117.2,335.3,115.2,334,115L334,115z"/>
	</g>
</g>
<g>
	<g>
		<path class="st5" d="M351.8,179.9c9.9,16.1,1.1,38.6-17.8,42.4c-19.6,3.9-32.8-12.8-41.7-27.6c-2.9-4.9-11.5-22.2-20-15.9
			c-2.9,2.2-2.3,6.8,0.3,9.1c3.5,3,8.7,0.9,12.3-1c15.3-7.9,26.6-23.1,45.8-19.3c1.3,0.2,1.8-1.7,0.5-1.9
			c-14.3-2.8-25.9,4.4-37,12.6c-4.6,3.4-10,8.1-15.9,9c-2,0.3-4,0.1-5.3-1.8c-1.3-1.9-0.9-4.2,1.2-5.2c3.1-1.5,6.3,1.2,8.3,3.3
			c4.3,4.7,7.1,10.7,10.5,16.1c3.6,5.8,7.6,11.4,12.8,15.9c11.2,9.8,27.9,12.8,40.3,3.4c12.3-9.3,15.6-27,7.5-40.1
			C352.9,177.8,351.1,178.8,351.8,179.9L351.8,179.9z"/>
	</g>
</g>
<circle class="st3" cx="323.9" cy="197.6" r="18.3"/>
<g>
	<g>
		<path class="st5" d="M343.3,195.3c-1.2,9.2-8.8,17-18.5,16.1c-9.5-0.9-15.9-10.1-15-19.4c0.9-9.2,9-17,18.5-16.1
			C338.1,176.9,343.8,186,343.3,195.3c-0.1,1.3,1.9,1.3,2,0c0.6-10.4-6.2-20.4-17-21.4c-10.6-1-19.6,7.8-20.5,18.1
			c-0.9,10.3,6.4,20.4,17,21.4c10.9,1,19.2-7.8,20.5-18.1C345.4,194,343.4,194,343.3,195.3z"/>
	</g>
</g>
<g>
	<g>
		<path class="st5" d="M316.5,197.6c1.5,4.3,4.9,9.1,10,8.8c5.3-0.3,9.3-5.1,9.7-10.2c0.1-1.3-1.9-1.3-2,0c-0.3,4.2-4.1,8.6-8.6,8.2
			c-3.6-0.3-6-4.1-7.1-7.3C318.1,195.8,316.1,196.4,316.5,197.6L316.5,197.6z"/>
	</g>
</g>
<g>
	<g>
		<path class="st5" d="M317.7,189.7c-0.1-1-0.1-3.8,1.2-4.1c1.6-0.3,2,2.7,2,3.8c0,1.3,2,1.3,2,0c0-2.4-1.1-6-4.1-5.8
			c-2.8,0.2-3.3,3.9-3.1,6.1C315.8,191,317.8,191,317.7,189.7L317.7,189.7z"/>
	</g>
</g>
<g>
	<g>
		<path class="st5" d="M332,189.9c0.1-1,0.6-3.8,1.9-3.9c1-0.1,1.3,1.3,1.4,2.1c0,0.5,0,1,0,1.4c0,0.2,0,0.3,0,0.5c0-0.2,0,0,0,0
			c-0.2,1.3,1.7,1.8,1.9,0.5c0.4-2.4,0.2-6.1-2.8-6.5c-2.8-0.4-4,3.1-4.3,5.3C329.9,190.7,331.8,191.2,332,189.9L332,189.9z"/>
	</g>
</g>
<g>
	<g>
		<path class="st5" d="M325.2,183.6c0,4.1,0.1,8.3,0.1,12.4c0,1.3,2,1.3,2,0c0-4.1-0.1-8.3-0.1-12.4
			C327.2,182.3,325.2,182.3,325.2,183.6L325.2,183.6z"/>
	</g>
</g>
<g>
	<g>
		<path class="st5" d="M325.5,132.1c5-14.4,17.4-25.4,33-26.1c15-0.7,28.3,7.6,37.6,18.7c7.5,8.9,12.6,19.3,19,29
			c3.6,5.4,8.9,12.7,16.4,11.7c6.7-0.9,7.2-9.4,2.3-13c-6.4-4.8-16.6,2-21.9,5.6c-9.4,6.4-18,13.9-28.4,18.6
			c-13.2,5.8-28,4.7-40.7-1.9C327.4,166.6,320.2,148.6,325.5,132.1c0.4-1.2-1.5-1.8-1.9-0.5c-3.6,11.3-1.6,25.1,5.7,34.5
			c13.8,17.8,40.8,20.1,59.6,10c9.7-5.2,17.8-12.6,27.1-18.4c3.8-2.3,8.9-5.4,13.6-4.9c6.9,0.7,7.6,11.4-0.3,10.5
			c-8.9-1-14.3-13.4-18.3-20c-5.9-9.9-12.1-20-21-27.5c-10.5-9-24.8-14-38.6-10.7c-13.5,3.2-23.5,13.7-27.9,26.6
			C323.1,132.8,325.1,133.3,325.5,132.1z"/>
	</g>
</g>
<path class="st3" d="M378.1,169.1l-15-8.1c0,0-13.9-3.2-15.7-9c-1.1-3.4,0.1-4.8,0.1-4.8s-3-1.4-3.4-4.4c-0.8-5.2,1.3-6.3,1.3-6.3
	s-3.6-3.4-0.9-9c2.9-6.1,15.7-1.1,15.7-1.1s4.2-11.1,9.8-10.6c6.7,0.6,5.4,3.5,4.7,7.3c-0.5,2.7-0.4,5.2-0.4,5.2l14.6,5.3
	c0,0-0.5,7.7-3.4,18.1C382.9,161.2,378.1,169.1,378.1,169.1z"/>
<g>
	<g>
		<path class="st5" d="M376.9,169.6c-4.9-2.6-9.7-5.8-14.8-8c-1.8-0.8-3.8-1.1-5.7-1.8c-3.2-1.1-13.6-5.6-9.7-10.7
			c0.3-0.4,0.1-1.1-0.4-1.4c-2.2-1.1-5.1-7.1-2.2-9c0.5-0.3,0.7-1.1,0.2-1.6c-1.9-2-2-5.4-0.6-7.7c1.7-2.6,4.1-2.8,7-2.5
			c2.5,0.2,5.1,0.9,7.5,1.8c0.5,0.2,1.1-0.2,1.2-0.7c1.1-2.9,2.6-6.4,5-8.4c1.5-1.3,2.9-1.9,5-1.2c2.9,1,2.8,3.3,2.6,5.7
			c-0.2,1.8-0.5,3.6-0.4,5.5c0,0.5,0.3,0.8,0.7,1c4.9,1.8,9.7,3.6,14.6,5.3c1.2,0.4,1.7-1.5,0.5-1.9c-3.9-1.4-7.7-2.8-11.6-4.2
			c-0.8-0.3-1.8-0.5-2.5-0.9c-0.4-0.3-0.3-0.2-0.1,0.2c0.6,1,0.2-0.8,0.3-1c0.7-1.7,1.2-6.7,0.2-8.7c-1.8-3.6-6.9-4.1-9.9-1.8
			c-3.1,2.3-5,6.4-6.3,10c0.4-0.2,0.8-0.5,1.2-0.7c-4-1.5-9.9-3.2-14.1-1.1c-4.5,2.2-5.2,9.4-1.7,12.9c0.1-0.5,0.1-1,0.2-1.6
			c-4.4,2.8-1.6,10.5,2.2,12.5c-0.1-0.5-0.2-0.9-0.4-1.4c-2,2.6-0.1,6.8,2,8.8c3.2,3.1,8,4.7,12.2,5.9c5.6,1.6,11.4,5.6,16.8,8.5
			C377,171.9,378,170.2,376.9,169.6L376.9,169.6z"/>
	</g>
</g>
<g>
	<g>
		<path class="st5" d="M353.4,138.9c-3.1,1.3-6.9-0.4-9.6-1.9c-1.1-0.7-2.1,1.1-1,1.7c3.1,1.8,7.5,3.6,11.1,2.1
			C355.1,140.4,354.6,138.4,353.4,138.9L353.4,138.9z"/>
	</g>
</g>
<g>
	<g>
		<path class="st5" d="M351,149.3c0.5-0.1-0.1,0-0.2,0c-0.4,0-0.7,0-1.1,0c-1.2-0.2-2.3-0.6-3.3-1.4c-1-0.8-2.4,0.6-1.4,1.4
			c1.8,1.4,4.2,2.3,6.5,1.9C352.8,151.1,352.2,149.2,351,149.3L351,149.3z"/>
	</g>
</g>
<g>
	<g>
		<path class="st5" d="M347.3,129.6c3,1.6,6.8,2.1,10.2,1.6c0.5-0.1,0.8-0.3,1-0.7c0.3-0.8,0.6-1.6,1-2.4c0.5-1.2-1.5-1.7-1.9-0.5
			c-0.3,0.8-0.6,1.6-1,2.4c0.3-0.2,0.6-0.5,1-0.7c-3.1,0.4-6.5,0.1-9.2-1.4C347.2,127.3,346.2,129,347.3,129.6L347.3,129.6z"/>
	</g>
</g>
<path class="st3" d="M354.2,78.5c1-0.1,1.8-0.2,2.7-0.3c-0.5-4.7-1-9.4-1.5-14.1c-0.9,0.1-1.8,0.2-2.8,0.3c-0.2-1.9-0.4-3.8-0.6-5.7
	c-1,0.1-1.9,0.2-2.8,0.3c-0.1-1-0.2-1.9-0.3-2.9c-1.9,0.2-3.7,0.4-5.6,0.6c-0.1-1-0.2-1.9-0.3-2.9c-1.9,0.2-3.7,0.4-5.6,0.6
	c-0.1-0.9-0.2-1.9-0.3-2.8c-2.2,0.4-9.8,1.1-11.3,1.3c-0.1-0.9-0.2-1.8-0.3-2.7c-0.9,0.1-1.9,0.2-2.9,0.3c-0.4-3.9-0.8-7.6-1.3-11.5
	c0.9-0.1,1.8-0.2,2.8-0.3c-0.1-0.9-0.2-1.7-0.3-2.6c1.2-0.1,15.3-1.7,17-1.8c0.1,0.9,0.2,1.7,0.3,2.6c1-0.1,1.8-0.2,2.8-0.3
	c0.2,1.9,0.4,3.7,0.6,5.6c2.9-0.3,5.7-0.6,8.5-0.9c-0.3-2.8-0.6-5.5-0.9-8.4c-1,0.1-1.9,0.2-2.9,0.3c-0.1-1-0.2-1.9-0.3-2.9
	c-1,0.1-1.9,0.2-2.9,0.3c-0.1-1-0.2-1.9-0.3-2.9c-1,0.1-1.9,0.2-2.8,0.3c-0.1-1-0.2-1.9-0.3-2.8c-2.8,0.3-5.6,0.6-8.4,0.9
	c-0.3-2.8-0.6-5.6-0.9-8.3c-1.9,0.2-3.8,0.4-5.7,0.6c0.3,2.8,0.6,5.6,0.9,8.4c-2.9,0.3-5.6,0.6-8.4,0.9c0.1,1,0.2,1.9,0.3,2.9
	c-1,0.1-1.9,0.2-2.9,0.3c0.1,1,0.2,1.9,0.3,2.8c-1,0.1-1.9,0.2-2.8,0.3c0.1,1,0.2,1.9,0.3,2.8c-0.9,0.1-1.8,0.2-2.7,0.3
	c0.6,5.7,1.2,11.4,1.9,17.1c0.9-0.1,1.8-0.2,2.8-0.3c0.1,0.9,0.2,1.8,0.3,2.7c1-0.1,1.9-0.2,2.9-0.3c0.1,1,0.2,1.9,0.3,2.8
	c2.9-0.3,5.7-0.6,8.5-0.9c0.1,1,0.2,1.9,0.3,2.9c0.9-0.1,1.8-0.2,2.7-0.3c0.1,1,0.2,1.9,0.3,2.9c1.7-0.1,10-1.1,11.5-1.2
	c0.1,1,0.2,1.9,0.3,2.8c0.9-0.1,1.7-0.2,2.6-0.3c0.4,3.7,0.8,7.4,1.2,11.2c-0.9,0.1-1.8,0.2-2.6,0.3c0.1,0.9,0.2,1.8,0.3,2.7
	c-1.9,0.2-15.1,1.7-17,1.9c-0.1-0.9-0.2-1.8-0.3-2.8c-1,0.1-1.9,0.2-2.9,0.3c-0.2-1.9-0.4-3.8-0.6-5.6c-2.8,0.3-5.6,0.6-8.4,0.9
	c0.2,1.9,0.4,3.8,0.6,5.7c0.9-0.1,1.8-0.2,2.8-0.3c0.2,1.9,0.4,3.8,0.6,5.7c1-0.1,1.9-0.2,2.9-0.3c0.1,0.9,0.2,1.8,0.3,2.7
	c1.9-0.2,3.8-0.4,5.7-0.6c0.1,1,0.2,1.9,0.3,2.9c1.9-0.2,3.7-0.4,5.6-0.6c0.3,2.9,0.6,5.6,0.9,8.4c1.9-0.2,3.8-0.4,5.7-0.6
	c-0.3-2.8-0.6-5.6-0.9-8.5c2.8-0.3,5.6-0.6,8.5-0.9c-0.1-1-0.2-1.9-0.3-2.9c1-0.1,1.9-0.2,2.9-0.3c-0.1-0.9-0.2-1.8-0.3-2.7
	c1-0.1,1.9-0.2,2.9-0.3C354.4,80.3,354.3,79.4,354.2,78.5z"/>
<g>
	<path class="st8" d="M351.7,79.3c1-0.1,1.8-0.2,2.7-0.3c-0.5-4.7-1-9.4-1.5-14.1c-0.9,0.1-1.8,0.2-2.8,0.3
		c-0.2-1.9-0.4-3.8-0.6-5.7c-1,0.1-1.9,0.2-2.8,0.3c-0.1-1-0.2-1.9-0.3-2.9c-1.9,0.2-3.7,0.4-5.6,0.6c-0.1-1-0.2-1.9-0.3-2.9
		c-1.9,0.2-3.7,0.4-5.6,0.6c-0.1-0.9-0.2-1.9-0.3-2.8c-2.2,0.4-9.8,1.1-11.3,1.3c-0.1-0.9-0.2-1.8-0.3-2.7c-0.9,0.1-1.9,0.2-2.9,0.3
		c-0.4-3.9-0.8-7.6-1.3-11.5c0.9-0.1,1.8-0.2,2.8-0.3c-0.1-0.9-0.2-1.7-0.3-2.6c1.2-0.1,15.3-1.7,17-1.8c0.1,0.9,0.2,1.7,0.3,2.6
		c1-0.1,1.8-0.2,2.8-0.3c0.2,1.9,0.4,3.7,0.6,5.6c2.9-0.3,5.7-0.6,8.5-0.9c-0.3-2.8-0.6-5.5-0.9-8.4c-1,0.1-1.9,0.2-2.9,0.3
		c-0.1-1-0.2-1.9-0.3-2.9c-1,0.1-1.9,0.2-2.9,0.3c-0.1-1-0.2-1.9-0.3-2.9c-1,0.1-1.9,0.2-2.8,0.3c-0.1-1-0.2-1.9-0.3-2.8
		c-2.8,0.3-5.6,0.6-8.4,0.9c-0.3-2.8-0.6-5.6-0.9-8.3c-1.9,0.2-3.8,0.4-5.7,0.6c0.3,2.8,0.6,5.6,0.9,8.4c-2.9,0.3-5.6,0.6-8.4,0.9
		c0.1,1,0.2,1.9,0.3,2.9c-1,0.1-1.9,0.2-2.9,0.3c0.1,1,0.2,1.9,0.3,2.8c-1,0.1-1.9,0.2-2.8,0.3c0.1,1,0.2,1.9,0.3,2.8
		c-0.9,0.1-1.8,0.2-2.7,0.3c0.6,5.7,1.2,11.4,1.9,17.1c0.9-0.1,1.8-0.2,2.8-0.3c0.1,0.9,0.2,1.8,0.3,2.7c1-0.1,1.9-0.2,2.9-0.3
		c0.1,1,0.2,1.9,0.3,2.8c2.9-0.3,5.7-0.6,8.5-0.9c0.1,1,0.2,1.9,0.3,2.9c0.9-0.1,1.8-0.2,2.7-0.3c0.1,1,0.2,1.9,0.3,2.9
		c1.7-0.1,10-1.1,11.5-1.2c0.1,1,0.2,1.9,0.3,2.8c0.9-0.1,1.7-0.2,2.6-0.3c0.4,3.7,0.8,7.4,1.2,11.2c-0.9,0.1-1.8,0.2-2.6,0.3
		c0.1,0.9,0.2,1.8,0.3,2.7c-1.9,0.2-15.1,1.7-17,1.9c-0.1-0.9-0.2-1.8-0.3-2.8c-1,0.1-1.9,0.2-2.9,0.3c-0.2-1.9-0.4-3.8-0.6-5.6
		c-2.8,0.3-5.6,0.6-8.4,0.9c0.2,1.9,0.4,3.8,0.6,5.7c0.9-0.1,1.8-0.2,2.8-0.3c0.2,1.9,0.4,3.8,0.6,5.7c1-0.1,1.9-0.2,2.9-0.3
		c0.1,0.9,0.2,1.8,0.3,2.7c1.9-0.2,3.8-0.4,5.7-0.6c0.1,1,0.2,1.9,0.3,2.9c1.9-0.2,3.7-0.4,5.6-0.6c0.3,2.9,0.6,5.6,0.9,8.4
		c1.9-0.2,3.8-0.4,5.7-0.6c-0.3-2.8-0.6-5.6-0.9-8.5c2.8-0.3,5.6-0.6,8.5-0.9c-0.1-1-0.2-1.9-0.3-2.9c1-0.1,1.9-0.2,2.9-0.3
		c-0.1-0.9-0.2-1.8-0.3-2.7c1-0.1,1.9-0.2,2.9-0.3C351.9,81.1,351.8,80.2,351.7,79.3z"/>
</g>
</svg>
