<svg height='180px' version="1.1" id="el_8adXTsch8" xmlns="http://www.w3.org/2000/svg" xmlns:xlink="http://www.w3.org/1999/xlink" x="0px" y="0px" viewBox="0 0 800 800" style="enable-background:new 0 0 800 800;" xml:space="preserve"><style>@-webkit-keyframes kf_el_GMU0V88fGwU_an_66SoHNRGl{0%{-webkit-transform: translate(480.789306640625px, 416.7713317871094px) rotate(0deg) translate(-480.789306640625px, -416.7713317871094px);transform: translate(480.789306640625px, 416.7713317871094px) rotate(0deg) translate(-480.789306640625px, -416.7713317871094px);}50%{-webkit-transform: translate(480.789306640625px, 416.7713317871094px) rotate(-2deg) translate(-480.789306640625px, -416.7713317871094px);transform: translate(480.789306640625px, 416.7713317871094px) rotate(-2deg) translate(-480.789306640625px, -416.7713317871094px);}100%{-webkit-transform: translate(480.789306640625px, 416.7713317871094px) rotate(0deg) translate(-480.789306640625px, -416.7713317871094px);transform: translate(480.789306640625px, 416.7713317871094px) rotate(0deg) translate(-480.789306640625px, -416.7713317871094px);}}@keyframes kf_el_GMU0V88fGwU_an_66SoHNRGl{0%{-webkit-transform: translate(480.789306640625px, 416.7713317871094px) rotate(0deg) translate(-480.789306640625px, -416.7713317871094px);transform: translate(480.789306640625px, 416.7713317871094px) rotate(0deg) translate(-480.789306640625px, -416.7713317871094px);}50%{-webkit-transform: translate(480.789306640625px, 416.7713317871094px) rotate(-2deg) translate(-480.789306640625px, -416.7713317871094px);transform: translate(480.789306640625px, 416.7713317871094px) rotate(-2deg) translate(-480.789306640625px, -416.7713317871094px);}100%{-webkit-transform: translate(480.789306640625px, 416.7713317871094px) rotate(0deg) translate(-480.789306640625px, -416.7713317871094px);transform: translate(480.789306640625px, 416.7713317871094px) rotate(0deg) translate(-480.789306640625px, -416.7713317871094px);}}@-webkit-keyframes kf_el_sYE2rFE-v0i_an_Wa_Enx7Ko{0%{-webkit-transform: translate(628.9503173828125px, 275.9301528930664px) translate(-628.9503173828125px, -275.9301528930664px) translate(0px, 0px);transform: translate(628.9503173828125px, 275.9301528930664px) translate(-628.9503173828125px, -275.9301528930664px) translate(0px, 0px);}50%{-webkit-transform: translate(628.9503173828125px, 275.9301528930664px) translate(-628.9503173828125px, -275.9301528930664px) translate(0px, 3px);transform: translate(628.9503173828125px, 275.9301528930664px) translate(-628.9503173828125px, -275.9301528930664px) translate(0px, 3px);}100%{-webkit-transform: translate(628.9503173828125px, 275.9301528930664px) translate(-628.9503173828125px, -275.9301528930664px) translate(0px, 0px);transform: translate(628.9503173828125px, 275.9301528930664px) translate(-628.9503173828125px, -275.9301528930664px) translate(0px, 0px);}}@keyframes kf_el_sYE2rFE-v0i_an_Wa_Enx7Ko{0%{-webkit-transform: translate(628.9503173828125px, 275.9301528930664px) translate(-628.9503173828125px, -275.9301528930664px) translate(0px, 0px);transform: translate(628.9503173828125px, 275.9301528930664px) translate(-628.9503173828125px, -275.9301528930664px) translate(0px, 0px);}50%{-webkit-transform: translate(628.9503173828125px, 275.9301528930664px) translate(-628.9503173828125px, -275.9301528930664px) translate(0px, 3px);transform: translate(628.9503173828125px, 275.9301528930664px) translate(-628.9503173828125px, -275.9301528930664px) translate(0px, 3px);}100%{-webkit-transform: translate(628.9503173828125px, 275.9301528930664px) translate(-628.9503173828125px, -275.9301528930664px) translate(0px, 0px);transform: translate(628.9503173828125px, 275.9301528930664px) translate(-628.9503173828125px, -275.9301528930664px) translate(0px, 0px);}}@-webkit-keyframes kf_el_9kTCkIqACLM_an_A0HECvbs1{0%{-webkit-transform: translate(663.082763671875px, 284.5471496582031px) translate(-663.082763671875px, -284.5471496582031px) translate(0px, 0px);transform: translate(663.082763671875px, 284.5471496582031px) translate(-663.082763671875px, -284.5471496582031px) translate(0px, 0px);}50%{-webkit-transform: translate(663.082763671875px, 284.5471496582031px) translate(-663.082763671875px, -284.5471496582031px) translate(0px, -4px);transform: translate(663.082763671875px, 284.5471496582031px) translate(-663.082763671875px, -284.5471496582031px) translate(0px, -4px);}100%{-webkit-transform: translate(663.082763671875px, 284.5471496582031px) translate(-663.082763671875px, -284.5471496582031px) translate(0px, 0px);transform: translate(663.082763671875px, 284.5471496582031px) translate(-663.082763671875px, -284.5471496582031px) translate(0px, 0px);}}@keyframes kf_el_9kTCkIqACLM_an_A0HECvbs1{0%{-webkit-transform: translate(663.082763671875px, 284.5471496582031px) translate(-663.082763671875px, -284.5471496582031px) translate(0px, 0px);transform: translate(663.082763671875px, 284.5471496582031px) translate(-663.082763671875px, -284.5471496582031px) translate(0px, 0px);}50%{-webkit-transform: translate(663.082763671875px, 284.5471496582031px) translate(-663.082763671875px, -284.5471496582031px) translate(0px, -4px);transform: translate(663.082763671875px, 284.5471496582031px) translate(-663.082763671875px, -284.5471496582031px) translate(0px, -4px);}100%{-webkit-transform: translate(663.082763671875px, 284.5471496582031px) translate(-663.082763671875px, -284.5471496582031px) translate(0px, 0px);transform: translate(663.082763671875px, 284.5471496582031px) translate(-663.082763671875px, -284.5471496582031px) translate(0px, 0px);}}@-webkit-keyframes kf_el_JXMYdVBaWwj_an_wIdBP9F-I{0%{-webkit-transform: translate(415.8638610839844px, 224.73899841308594px) rotate(0deg) translate(-415.8638610839844px, -224.73899841308594px);transform: translate(415.8638610839844px, 224.73899841308594px) rotate(0deg) translate(-415.8638610839844px, -224.73899841308594px);}50%{-webkit-transform: translate(415.8638610839844px, 224.73899841308594px) rotate(-1deg) translate(-415.8638610839844px, -224.73899841308594px);transform: translate(415.8638610839844px, 224.73899841308594px) rotate(-1deg) translate(-415.8638610839844px, -224.73899841308594px);}100%{-webkit-transform: translate(415.8638610839844px, 224.73899841308594px) rotate(0deg) translate(-415.8638610839844px, -224.73899841308594px);transform: translate(415.8638610839844px, 224.73899841308594px) rotate(0deg) translate(-415.8638610839844px, -224.73899841308594px);}}@keyframes kf_el_JXMYdVBaWwj_an_wIdBP9F-I{0%{-webkit-transform: translate(415.8638610839844px, 224.73899841308594px) rotate(0deg) translate(-415.8638610839844px, -224.73899841308594px);transform: translate(415.8638610839844px, 224.73899841308594px) rotate(0deg) translate(-415.8638610839844px, -224.73899841308594px);}50%{-webkit-transform: translate(415.8638610839844px, 224.73899841308594px) rotate(-1deg) translate(-415.8638610839844px, -224.73899841308594px);transform: translate(415.8638610839844px, 224.73899841308594px) rotate(-1deg) translate(-415.8638610839844px, -224.73899841308594px);}100%{-webkit-transform: translate(415.8638610839844px, 224.73899841308594px) rotate(0deg) translate(-415.8638610839844px, -224.73899841308594px);transform: translate(415.8638610839844px, 224.73899841308594px) rotate(0deg) translate(-415.8638610839844px, -224.73899841308594px);}}@-webkit-keyframes kf_el_xJOogqmqp5i_an_JYPyJzE2L{0%{-webkit-transform: translate(527.598876953125px, 201.7470245361328px) translate(-527.598876953125px, -201.7470245361328px) translate(0px, 0px);transform: translate(527.598876953125px, 201.7470245361328px) translate(-527.598876953125px, -201.7470245361328px) translate(0px, 0px);}50%{-webkit-transform: translate(527.598876953125px, 201.7470245361328px) translate(-527.598876953125px, -201.7470245361328px) translate(0px, 3px);transform: translate(527.598876953125px, 201.7470245361328px) translate(-527.598876953125px, -201.7470245361328px) translate(0px, 3px);}100%{-webkit-transform: translate(527.598876953125px, 201.7470245361328px) translate(-527.598876953125px, -201.7470245361328px) translate(0px, 0px);transform: translate(527.598876953125px, 201.7470245361328px) translate(-527.598876953125px, -201.7470245361328px) translate(0px, 0px);}}@keyframes kf_el_xJOogqmqp5i_an_JYPyJzE2L{0%{-webkit-transform: translate(527.598876953125px, 201.7470245361328px) translate(-527.598876953125px, -201.7470245361328px) translate(0px, 0px);transform: translate(527.598876953125px, 201.7470245361328px) translate(-527.598876953125px, -201.7470245361328px) translate(0px, 0px);}50%{-webkit-transform: translate(527.598876953125px, 201.7470245361328px) translate(-527.598876953125px, -201.7470245361328px) translate(0px, 3px);transform: translate(527.598876953125px, 201.7470245361328px) translate(-527.598876953125px, -201.7470245361328px) translate(0px, 3px);}100%{-webkit-transform: translate(527.598876953125px, 201.7470245361328px) translate(-527.598876953125px, -201.7470245361328px) translate(0px, 0px);transform: translate(527.598876953125px, 201.7470245361328px) translate(-527.598876953125px, -201.7470245361328px) translate(0px, 0px);}}@-webkit-keyframes kf_el_8qNW2n3g3tW_an_dN3ufW9NJ{0%{-webkit-transform: translate(298.080078125px, 223.60885620117188px) translate(-298.080078125px, -223.60885620117188px) translate(0px, 0px);transform: translate(298.080078125px, 223.60885620117188px) translate(-298.080078125px, -223.60885620117188px) translate(0px, 0px);}50%{-webkit-transform: translate(298.080078125px, 223.60885620117188px) translate(-298.080078125px, -223.60885620117188px) translate(0px, 3px);transform: translate(298.080078125px, 223.60885620117188px) translate(-298.080078125px, -223.60885620117188px) translate(0px, 3px);}100%{-webkit-transform: translate(298.080078125px, 223.60885620117188px) translate(-298.080078125px, -223.60885620117188px) translate(0px, 0px);transform: translate(298.080078125px, 223.60885620117188px) translate(-298.080078125px, -223.60885620117188px) translate(0px, 0px);}}@keyframes kf_el_8qNW2n3g3tW_an_dN3ufW9NJ{0%{-webkit-transform: translate(298.080078125px, 223.60885620117188px) translate(-298.080078125px, -223.60885620117188px) translate(0px, 0px);transform: translate(298.080078125px, 223.60885620117188px) translate(-298.080078125px, -223.60885620117188px) translate(0px, 0px);}50%{-webkit-transform: translate(298.080078125px, 223.60885620117188px) translate(-298.080078125px, -223.60885620117188px) translate(0px, 3px);transform: translate(298.080078125px, 223.60885620117188px) translate(-298.080078125px, -223.60885620117188px) translate(0px, 3px);}100%{-webkit-transform: translate(298.080078125px, 223.60885620117188px) translate(-298.080078125px, -223.60885620117188px) translate(0px, 0px);transform: translate(298.080078125px, 223.60885620117188px) translate(-298.080078125px, -223.60885620117188px) translate(0px, 0px);}}@-webkit-keyframes kf_el_dJu8iFEKLj_an_rc1PYgB_8{0%{-webkit-transform: translate(510.32093811035156px, 254.03292846679688px) rotate(0deg) translate(-510.32093811035156px, -254.03292846679688px);transform: translate(510.32093811035156px, 254.03292846679688px) rotate(0deg) translate(-510.32093811035156px, -254.03292846679688px);}50%{-webkit-transform: translate(510.32093811035156px, 254.03292846679688px) rotate(3deg) translate(-510.32093811035156px, -254.03292846679688px);transform: translate(510.32093811035156px, 254.03292846679688px) rotate(3deg) translate(-510.32093811035156px, -254.03292846679688px);}100%{-webkit-transform: translate(510.32093811035156px, 254.03292846679688px) rotate(0deg) translate(-510.32093811035156px, -254.03292846679688px);transform: translate(510.32093811035156px, 254.03292846679688px) rotate(0deg) translate(-510.32093811035156px, -254.03292846679688px);}}@keyframes kf_el_dJu8iFEKLj_an_rc1PYgB_8{0%{-webkit-transform: translate(510.32093811035156px, 254.03292846679688px) rotate(0deg) translate(-510.32093811035156px, -254.03292846679688px);transform: translate(510.32093811035156px, 254.03292846679688px) rotate(0deg) translate(-510.32093811035156px, -254.03292846679688px);}50%{-webkit-transform: translate(510.32093811035156px, 254.03292846679688px) rotate(3deg) translate(-510.32093811035156px, -254.03292846679688px);transform: translate(510.32093811035156px, 254.03292846679688px) rotate(3deg) translate(-510.32093811035156px, -254.03292846679688px);}100%{-webkit-transform: translate(510.32093811035156px, 254.03292846679688px) rotate(0deg) translate(-510.32093811035156px, -254.03292846679688px);transform: translate(510.32093811035156px, 254.03292846679688px) rotate(0deg) translate(-510.32093811035156px, -254.03292846679688px);}}@-webkit-keyframes kf_el_on71SQix16_an_wYmkFNTim{0%{-webkit-transform: translate(357.7494659423828px, 271.39546966552734px) rotate(0deg) translate(-357.7494659423828px, -271.39546966552734px);transform: translate(357.7494659423828px, 271.39546966552734px) rotate(0deg) translate(-357.7494659423828px, -271.39546966552734px);}50%{-webkit-transform: translate(357.7494659423828px, 271.39546966552734px) rotate(-3deg) translate(-357.7494659423828px, -271.39546966552734px);transform: translate(357.7494659423828px, 271.39546966552734px) rotate(-3deg) translate(-357.7494659423828px, -271.39546966552734px);}100%{-webkit-transform: translate(357.7494659423828px, 271.39546966552734px) rotate(0deg) translate(-357.7494659423828px, -271.39546966552734px);transform: translate(357.7494659423828px, 271.39546966552734px) rotate(0deg) translate(-357.7494659423828px, -271.39546966552734px);}}@keyframes kf_el_on71SQix16_an_wYmkFNTim{0%{-webkit-transform: translate(357.7494659423828px, 271.39546966552734px) rotate(0deg) translate(-357.7494659423828px, -271.39546966552734px);transform: translate(357.7494659423828px, 271.39546966552734px) rotate(0deg) translate(-357.7494659423828px, -271.39546966552734px);}50%{-webkit-transform: translate(357.7494659423828px, 271.39546966552734px) rotate(-3deg) translate(-357.7494659423828px, -271.39546966552734px);transform: translate(357.7494659423828px, 271.39546966552734px) rotate(-3deg) translate(-357.7494659423828px, -271.39546966552734px);}100%{-webkit-transform: translate(357.7494659423828px, 271.39546966552734px) rotate(0deg) translate(-357.7494659423828px, -271.39546966552734px);transform: translate(357.7494659423828px, 271.39546966552734px) rotate(0deg) translate(-357.7494659423828px, -271.39546966552734px);}}@-webkit-keyframes kf_el_uZ4Nau8iR0_an_L1q_lhEL-{0%{-webkit-transform: translate(402.60906982421875px, 400.10182666778564px) rotate(0deg) translate(-402.60906982421875px, -400.10182666778564px);transform: translate(402.60906982421875px, 400.10182666778564px) rotate(0deg) translate(-402.60906982421875px, -400.10182666778564px);}50%{-webkit-transform: translate(402.60906982421875px, 400.10182666778564px) rotate(3deg) translate(-402.60906982421875px, -400.10182666778564px);transform: translate(402.60906982421875px, 400.10182666778564px) rotate(3deg) translate(-402.60906982421875px, -400.10182666778564px);}100%{-webkit-transform: translate(402.60906982421875px, 400.10182666778564px) rotate(0deg) translate(-402.60906982421875px, -400.10182666778564px);transform: translate(402.60906982421875px, 400.10182666778564px) rotate(0deg) translate(-402.60906982421875px, -400.10182666778564px);}}@keyframes kf_el_uZ4Nau8iR0_an_L1q_lhEL-{0%{-webkit-transform: translate(402.60906982421875px, 400.10182666778564px) rotate(0deg) translate(-402.60906982421875px, -400.10182666778564px);transform: translate(402.60906982421875px, 400.10182666778564px) rotate(0deg) translate(-402.60906982421875px, -400.10182666778564px);}50%{-webkit-transform: translate(402.60906982421875px, 400.10182666778564px) rotate(3deg) translate(-402.60906982421875px, -400.10182666778564px);transform: translate(402.60906982421875px, 400.10182666778564px) rotate(3deg) translate(-402.60906982421875px, -400.10182666778564px);}100%{-webkit-transform: translate(402.60906982421875px, 400.10182666778564px) rotate(0deg) translate(-402.60906982421875px, -400.10182666778564px);transform: translate(402.60906982421875px, 400.10182666778564px) rotate(0deg) translate(-402.60906982421875px, -400.10182666778564px);}}#el_8adXTsch8 *{-webkit-animation-duration: 1s;animation-duration: 1s;-webkit-animation-iteration-count: 1;animation-iteration-count: 1;-webkit-animation-play-state: running;animation-play-state: running;-webkit-animation-timing-function: cubic-bezier(0, 0, 1, 1);animation-timing-function: cubic-bezier(0, 0, 1, 1);}#el_VDzwXbdv0u{fill: #69BAE8;}#el_C16zVJ-J8J{fill: #0e8195;}#el_Y5IWBGMjPd{fill: #0e8195;}#el_MMrlxk5tf9{fill: #FFFFFF;}#el_2NIfI2ige6{fill: #37436B;}#el_KHoSlSZdv-{fill: #37436B;}#el_yJOTz4r5mh{fill: #FFFFFF;}#el_dm3yUoI38Ao{fill: #37436B;}#el_X3AejmJUBF6{fill: #37436B;}#el_PXCiFTxlL6M{fill: #37436B;}#el_ZOw8UdOTrxO{fill: #37436B;}#el_S1CeyPnHBxc{fill: #37436B;}#el_Th5rCNkjoUH{fill: #37436B;}#el_Y6wfJ0rIptd{fill: #37436B;}#el_J1SBSp8T1ix{fill: #37436B;}#el_9Pdot5JeP2k{fill: #37436B;}#el_WX2qhw3yr6g{fill: #37436B;}#el_3TnywfATbPT{fill: #37436B;}#el_RWnco2h1W82{fill: #37436B;}#el_gOXvSbOIG05{fill: #37436B;}#el_7mWalaNKaZ2{fill: #37436B;}#el_jwFopKsqpz7{fill: #37436B;}#el_qNOtA8mQSFD{fill: #37436B;}#el_nMy73_l7lMW{fill: #37436B;}#el_ANC_M_XlU4H{fill: #37436B;}#el_S5roUaqIaqG{fill: #37436B;}#el_O3dzYjg2Dxv{fill: #37436B;}#el_NJq23i6HUBs{fill: #37436B;}#el_BwL6_iiwNT5{fill: #37436B;}#el_ASmf9TJZJol{fill: #37436B;}#el_KA7pfAwqwbE{fill: #37436B;}#el_GfwmeTEgD5W{fill: #37436B;}#el_7mgW56A1QA5{fill: #37436B;}#el_1GrWE0H4lN_{fill: #37436B;}#el_hJjMmTBV-Tg{fill: #37436B;}#el_NhDdQcvXmbA{fill: #37436B;}#el_uJUfDcm2E7T{fill: #37436B;}#el_JetoKxMFqOc{fill: #37436B;}#el_H4eRlmETYnP{fill: #0e8195;}#el_RBCteA7-fDP{fill: #37436B;}#el_9gX0Y7D77h_{fill: #37436B;}#el_gKXsSfXMC-7{fill: #37436B;}#el_vkRczbgWvqL{fill: #37436B;}#el__FD2M5xUcXp{fill: #FFFFFF;}#el_T0dQXcnmCGk{fill: #37436B;}#el_6GZqCHslbjx{fill: #FFFFFF;}#el_W8sK-InQJOY{fill: #37436B;}#el_uZ4Nau8iR0_an_L1q_lhEL-{-webkit-animation-fill-mode: backwards;animation-fill-mode: backwards;-webkit-transform: translate(402.60906982421875px, 400.10182666778564px) rotate(0deg) translate(-402.60906982421875px, -400.10182666778564px);transform: translate(402.60906982421875px, 400.10182666778564px) rotate(0deg) translate(-402.60906982421875px, -400.10182666778564px);-webkit-animation-timing-function: cubic-bezier(0.42, 0, 0.58, 1);animation-timing-function: cubic-bezier(0.42, 0, 0.58, 1);}#el_8adXTsch8:hover #el_uZ4Nau8iR0_an_L1q_lhEL-{-webkit-animation-name: kf_el_uZ4Nau8iR0_an_L1q_lhEL-;animation-name: kf_el_uZ4Nau8iR0_an_L1q_lhEL-;}#el_on71SQix16_an_wYmkFNTim{-webkit-animation-fill-mode: backwards;animation-fill-mode: backwards;-webkit-transform: translate(357.7494659423828px, 271.39546966552734px) rotate(0deg) translate(-357.7494659423828px, -271.39546966552734px);transform: translate(357.7494659423828px, 271.39546966552734px) rotate(0deg) translate(-357.7494659423828px, -271.39546966552734px);-webkit-animation-timing-function: cubic-bezier(0, 0, 0.58, 1);animation-timing-function: cubic-bezier(0, 0, 0.58, 1);}#el_8adXTsch8:hover #el_on71SQix16_an_wYmkFNTim{-webkit-animation-name: kf_el_on71SQix16_an_wYmkFNTim;animation-name: kf_el_on71SQix16_an_wYmkFNTim;}#el_dJu8iFEKLj_an_rc1PYgB_8{-webkit-animation-fill-mode: backwards;animation-fill-mode: backwards;-webkit-transform: translate(510.32093811035156px, 254.03292846679688px) rotate(0deg) translate(-510.32093811035156px, -254.03292846679688px);transform: translate(510.32093811035156px, 254.03292846679688px) rotate(0deg) translate(-510.32093811035156px, -254.03292846679688px);-webkit-animation-timing-function: cubic-bezier(0, 0, 1, 1);animation-timing-function: cubic-bezier(0, 0, 1, 1);}#el_8adXTsch8:hover #el_dJu8iFEKLj_an_rc1PYgB_8{-webkit-animation-name: kf_el_dJu8iFEKLj_an_rc1PYgB_8;animation-name: kf_el_dJu8iFEKLj_an_rc1PYgB_8;}#el_8qNW2n3g3tW_an_dN3ufW9NJ{-webkit-animation-fill-mode: backwards;animation-fill-mode: backwards;-webkit-transform: translate(298.080078125px, 223.60885620117188px) translate(-298.080078125px, -223.60885620117188px) translate(0px, 0px);transform: translate(298.080078125px, 223.60885620117188px) translate(-298.080078125px, -223.60885620117188px) translate(0px, 0px);-webkit-animation-timing-function: cubic-bezier(0, 0, 1, 1);animation-timing-function: cubic-bezier(0, 0, 1, 1);}#el_8adXTsch8:hover #el_8qNW2n3g3tW_an_dN3ufW9NJ{-webkit-animation-name: kf_el_8qNW2n3g3tW_an_dN3ufW9NJ;animation-name: kf_el_8qNW2n3g3tW_an_dN3ufW9NJ;}#el_xJOogqmqp5i_an_JYPyJzE2L{-webkit-animation-fill-mode: backwards;animation-fill-mode: backwards;-webkit-transform: translate(527.598876953125px, 201.7470245361328px) translate(-527.598876953125px, -201.7470245361328px) translate(0px, 0px);transform: translate(527.598876953125px, 201.7470245361328px) translate(-527.598876953125px, -201.7470245361328px) translate(0px, 0px);-webkit-animation-timing-function: cubic-bezier(0, 0, 1, 1);animation-timing-function: cubic-bezier(0, 0, 1, 1);}#el_8adXTsch8:hover #el_xJOogqmqp5i_an_JYPyJzE2L{-webkit-animation-name: kf_el_xJOogqmqp5i_an_JYPyJzE2L;animation-name: kf_el_xJOogqmqp5i_an_JYPyJzE2L;}#el_JXMYdVBaWwj_an_wIdBP9F-I{-webkit-animation-fill-mode: backwards;animation-fill-mode: backwards;-webkit-transform: translate(415.8638610839844px, 224.73899841308594px) rotate(0deg) translate(-415.8638610839844px, -224.73899841308594px);transform: translate(415.8638610839844px, 224.73899841308594px) rotate(0deg) translate(-415.8638610839844px, -224.73899841308594px);-webkit-animation-timing-function: cubic-bezier(0, 0, 0.58, 1);animation-timing-function: cubic-bezier(0, 0, 0.58, 1);}#el_8adXTsch8:hover #el_JXMYdVBaWwj_an_wIdBP9F-I{-webkit-animation-name: kf_el_JXMYdVBaWwj_an_wIdBP9F-I;animation-name: kf_el_JXMYdVBaWwj_an_wIdBP9F-I;}#el_9kTCkIqACLM_an_A0HECvbs1{-webkit-animation-fill-mode: backwards;animation-fill-mode: backwards;-webkit-transform: translate(663.082763671875px, 284.5471496582031px) translate(-663.082763671875px, -284.5471496582031px) translate(0px, 0px);transform: translate(663.082763671875px, 284.5471496582031px) translate(-663.082763671875px, -284.5471496582031px) translate(0px, 0px);-webkit-animation-timing-function: cubic-bezier(0, 0, 0.58, 1);animation-timing-function: cubic-bezier(0, 0, 0.58, 1);}#el_8adXTsch8:hover #el_9kTCkIqACLM_an_A0HECvbs1{-webkit-animation-name: kf_el_9kTCkIqACLM_an_A0HECvbs1;animation-name: kf_el_9kTCkIqACLM_an_A0HECvbs1;}#el_sYE2rFE-v0i_an_Wa_Enx7Ko{-webkit-animation-fill-mode: backwards;animation-fill-mode: backwards;-webkit-transform: translate(628.9503173828125px, 275.9301528930664px) translate(-628.9503173828125px, -275.9301528930664px) translate(0px, 0px);transform: translate(628.9503173828125px, 275.9301528930664px) translate(-628.9503173828125px, -275.9301528930664px) translate(0px, 0px);-webkit-animation-timing-function: cubic-bezier(0, 0, 0.58, 1);animation-timing-function: cubic-bezier(0, 0, 0.58, 1);}#el_8adXTsch8:hover #el_sYE2rFE-v0i_an_Wa_Enx7Ko{-webkit-animation-name: kf_el_sYE2rFE-v0i_an_Wa_Enx7Ko;animation-name: kf_el_sYE2rFE-v0i_an_Wa_Enx7Ko;}#el_GMU0V88fGwU_an_66SoHNRGl{-webkit-animation-fill-mode: backwards;animation-fill-mode: backwards;-webkit-transform: translate(480.789306640625px, 416.7713317871094px) rotate(0deg) translate(-480.789306640625px, -416.7713317871094px);transform: translate(480.789306640625px, 416.7713317871094px) rotate(0deg) translate(-480.789306640625px, -416.7713317871094px);-webkit-animation-timing-function: cubic-bezier(0.42, 0, 0.58, 1);animation-timing-function: cubic-bezier(0.42, 0, 0.58, 1);}#el_8adXTsch8:hover #el_GMU0V88fGwU_an_66SoHNRGl{-webkit-animation-name: kf_el_GMU0V88fGwU_an_66SoHNRGl;animation-name: kf_el_GMU0V88fGwU_an_66SoHNRGl;}</style>

<g id="el_uZ4Nau8iR0_an_L1q_lhEL-" data-animator-group="true" data-animator-type="1"><g id="el_uZ4Nau8iR0">
	<path d="M246.8,362.9c0,0,14.3,49.3,22.1,73.9c7.7,24.5,39.5,67.9,39.5,67.9l1.9,7.8c2.6,2,4.6,5.2,5.2,9.8&#10;&#9;&#9;c1,7-3.6,22.7,3.1,38.4c21.7,50.8,75.7,126.7,100.4,119.7c7.5-2.1,27-42.1,39-83.6c6.4-22.1,3.4-46.7,11.7-61.9&#10;&#9;&#9;c6.7-12.4,22-6.7,28.4-9.8c1.4-0.7,7.8-6,9.2-6.3c5.4-14.6,21.2-49.6,35.8-95.4c13.2-41.6,13.7-147,13.7-147s-32-193-33.1-196.1&#10;&#9;&#9;c-3-9-21.2-19.4-34.4-24.8c-17.8-7.2-49.2-5.2-64.5-12.4c-18.5-8.6-23,0.9-24.8,0.7c-23.7-2-47.2,1.7-70.4,5.3&#10;&#9;&#9;C319.1,50.8,308,43,298,51.2c-18.9,15.5-28.9,48.6-52.3,56.5c-68.9,23.3-37,172.7-37,172.7s-17.4,10.6-22.4,39.5&#10;&#9;&#9;C176.1,378.9,246.8,362.9,246.8,362.9z" id="el_VDzwXbdv0u"/>
	<g id="el_z0z3VDhOpa">
		<path d="M522.9,560.6c0,0,0-27.7-13.4-33c-11.9-4.7-37.2,13.2-39.8,7.2c-5.6,3.8-3.7,33.9-11.7,61.9&#10;&#9;&#9;&#9;c-11,38.3-31.9,77.7-36.9,87c-7.9,14.7-26.7-21.4-53.8-58.6c-16.2-22.3-41.6-40.3-52-61.1c-10.7-21.4-3.5-45.1-3.5-45.3&#10;&#9;&#9;&#9;c-3.1,1-35.8,12.1-38.4,12.9c-33.2,10.8-24.9,37-24.9,37L104,635.7C162.1,748,305.7,781,432.3,782.3&#10;&#9;&#9;&#9;C558.8,783.5,673.8,637,673.8,637L522.9,560.6z" id="el_C16zVJ-J8J"/>
	</g>
	<g id="el_32XtUJMsH6">
		<path d="M506.8,92.4l23.3,36c0,0,25.5-74.6-44.1-76c-69.6-1.3-61.1-9.4-61.1-9.4l-21.5-25c0,0-38,9.1-57.8,19&#10;&#9;&#9;&#9;S298,51.3,298,51.3s-10.2,14.5-18.8,24c-8.6,9.4-13.1,1.4-19.7,12.1c-6.6,10.6-9.3,21.3-22.5,25.6s-19,5.8-21.2,13.6&#10;&#9;&#9;&#9;c-9.9,34.6-7.1,154-7.1,154l35,6c0,0,1,41.8,21.1,28.6s7-62.1,7-62.1s13.2-46,16.5-53s2.5-16.2,5.3-29.4s-13.5-29.6-3.2-41.6&#10;&#9;&#9;&#9;s19.1-26.2,42.4-29.5s41.2-7.2,41.2-7.2s0.8,12.6,18.9,8.5" id="el_Y5IWBGMjPd"/>
	</g>
	<g id="el_on71SQix16_an_wYmkFNTim" data-animator-group="true" data-animator-type="1"><g id="el_on71SQix16">
		<g id="el_KlAeOn0uWH">
			<path d="M310.4,277.1c0,0,8.2-31.2,41.7-31.3c42.7-0.1,53.2,22.1,53.2,22.1s-4.2,28.2-47.3,28.5&#10;&#9;&#9;&#9;&#9;C314.9,296.8,310.4,277.1,310.4,277.1z" id="el_MMrlxk5tf9"/>
			<g id="el_GAPDSnAGh8">
				<path d="M315.2,278.5c5.5-19.6,23.7-28.3,43-27.5c11.6,0.5,24.3,3.2,33.9,10.2c2.4,1.7,8.9,10.3,8.5,7.4&#10;&#9;&#9;&#9;&#9;&#9;c-0.5-2.8-3.5,6.5-5.5,9c-7.5,9.3-19.8,12.7-31.2,13.7c-11.8,1-44.3,0.9-48.7-15.4c-1.7-6.3-11.4-3.6-9.7,2.7&#10;&#9;&#9;&#9;&#9;&#9;c5.9,21.9,41.1,24.1,58.4,22.8c15.5-1.2,47.2-11.5,46.3-32.7c-0.8-19-35.9-26.4-49.1-27.4c-24.7-1.9-48.5,9.4-55.6,34.6&#10;&#9;&#9;&#9;&#9;&#9;C303.7,282,313.5,284.7,315.2,278.5z" id="el_2NIfI2ige6"/>
			</g>
		</g>
		<path d="M366.2,246c0,0-15.4,12.5-11.7,30.2c3,13.9,18.7,18.8,18.7,18.8s15-3.1,21.5-9.9c9.4-9.9,10.5-17.1,10.5-17.1&#10;&#9;&#9;&#9;s-3-8.2-16.2-15.5C376.6,245.5,366.2,246,366.2,246z" id="el_KHoSlSZdv-"/>
	</g></g>
	<g id="el_dJu8iFEKLj_an_rc1PYgB_8" data-animator-group="true" data-animator-type="1"><g id="el_dJu8iFEKLj">
		<g id="el_dfKDt6zNcK">
			<path d="M465.5,260.2c0,0,7.3-29.7,39.2-30.2c40.5-0.7,50.7,20.3,50.7,20.3s-3.6,26.8-44.5,27.7&#10;&#9;&#9;&#9;&#9;S465.5,260.2,465.5,260.2z" id="el_yJOTz4r5mh"/>
			<g id="el_Oz1KLeTVcbA">
				<path d="M470.2,261.1c6-22.4,28.9-28.7,49.8-25.5c9.3,1.4,19,4.4,26.1,10.9c4.2,3.8,4.1,7.8,4.6,3&#10;&#9;&#9;&#9;&#9;&#9;c-1.7,15.7-21.6,22.1-34.5,23.4c-11.2,1.1-41.7,1.4-46.2-14.3c-1.7-5.9-10.7-2.7-9,3.2c5.8,20.6,39.5,22.1,55.8,20.6&#10;&#9;&#9;&#9;&#9;&#9;c14.4-1.3,44.2-11.5,43.2-31.2c-0.9-18.9-35.4-25.3-48.6-25.9c-23.2-1-44.4,10.5-50.6,33.9C459.2,265.2,468.6,267,470.2,261.1z" id="el_dm3yUoI38Ao"/>
			</g>
		</g>
		<path d="M518.1,229.9c0,0-14.5,12.1-10.7,28.8c3,13.2,18,17.6,18,17.6s14.2-3.1,20.3-9.7c8.8-9.5,9.7-16.4,9.7-16.4&#10;&#9;&#9;&#9;s-3-7.7-15.5-14.5C527.9,229.3,518.1,229.9,518.1,229.9z" id="el_X3AejmJUBF6"/>
	</g></g>
	<g id="el_9dWHwszNTgR">
		<g id="el_I77oNkwTMeW">
			<path d="M544.2,292.3c-0.5,28.6-1.4,57.2-2.9,85.8c-0.9,17.3-1.7,35-4,52.1c-0.4,2.7-0.8,5.4-1.4,8&#10;&#9;&#9;&#9;&#9;c-0.2,0.9-0.5,1.7-0.7,2.6c0,0.2-0.5,1.4-0.2,0.5c0.3-0.7-1.7,3.2-1.9,3.5c-6.7,12.8-13.3,25.7-19.3,38.8&#10;&#9;&#9;&#9;&#9;c-2.8,6.2-6,12.6-8.1,19.1c-1.8,5.6-2.6,11.7-3.9,17.4c0.8-1,1.6-2,2.3-3c-0.9,0.4,1.1-0.3,0.3-0.1c-0.9,0.2-1.8,0.8-2.7,1.1&#10;&#9;&#9;&#9;&#9;c-2.9,1.2-5.7,2.3-8.6,3.4c-8.4,3.2-16.8,6.1-25.5,8.6c-7.7,2.2-15.9,4.5-24,4.4c-8-0.1-13.6-7.4-17.8-13.6&#10;&#9;&#9;&#9;&#9;c-2.9-4.3-5.4-8.9-7.7-13.6c-0.8-1.6-1.5-3.1-2.2-4.7c-0.2-0.4-0.2-0.4-0.5-1.3c-2.3-6-12.1-3.4-9.8,2.7&#10;&#9;&#9;&#9;&#9;c4.7,12.2,11.5,25.5,21.5,34.1c11.4,9.7,25.6,6.5,38.9,3c13.2-3.5,26.1-8.2,38.8-13.3c3.9-1.6,6.2-2.6,7.2-7.1&#10;&#9;&#9;&#9;&#9;c1-4.8,1.7-9.8,3.1-14.5c2.6-8.6,7.1-17,10.9-25.1c5-10.5,10.2-20.8,15.6-31c2.1-3.9,3.5-7.3,4.3-11.7c4.9-25.8,5-52.9,6.1-79.1&#10;&#9;&#9;&#9;&#9;c0.9-22.3,1.6-44.6,2-66.9C554.4,285.8,544.3,285.8,544.2,292.3L544.2,292.3z" id="el_PXCiFTxlL6M"/>
		</g>
	</g>
	<g id="el_mRtfWIsVwJE">
		<g id="el_H9tYjGyqGF0">
			<path d="M232.1,244.2c1.7,11.3,3.4,22.6,5.1,33.9c1.1,7.1,2.2,14.2,3.2,21.3c0.3,1.9,0.6,3.9,0.9,5.8&#10;&#9;&#9;&#9;&#9;c0.1,0.3,0.1,0.6,0.1,0.9c-0.4-2.6,0,0.4,0.2,1.4c1.4,7,5.5,14.5,12.7,16.8c8.5,2.7,20-1.7,25.9-8.1c2.8-3.1,2.1-5.9,1.8-9.7&#10;&#9;&#9;&#9;&#9;c-0.7-6.8-1.3-13.5-2-20.3c-1.3-13.4-2.6-26.8-3.9-40.2c-0.5,1.2-1,2.4-1.5,3.6c8.5-9.9,9.3-26.6,9.5-38.8&#10;&#9;&#9;&#9;&#9;c0.2-8.7,1.4-15.8,7.1-22.5c4.1-4.7,7.6-9.3,7.5-15.9c0-5-1.9-9.8-2.9-14.6c-1.3-6-2-12-2.3-18.1c-0.1-1.6,0.7-6.4-0.1-7.6&#10;&#9;&#9;&#9;&#9;c0.1,0.2-1.3,2.5-0.5,2c0.5-0.3,1-1.5,1.3-2c8.5-12.6,21.5-23.1,36.4-26.9c11.5-3,23.8-3.3,35.5-5.6c3-0.6,6.2-1.1,9.1-2.3&#10;&#9;&#9;&#9;&#9;c-1.6-0.4-3.3-0.9-4.9-1.3c7.4,9.5,19.2,13,29.9,7.2c9-4.9,17-12.2,24.2-19.4c4.6-4.6-2.5-11.8-7.2-7.2&#10;&#9;&#9;&#9;&#9;c-5.6,5.6-11.7,11.1-18.3,15.4c-4.1,2.7-8.4,5.4-13.4,3.3c-3.2-1.3-6-3.9-8.1-6.6c-1-1.2-3.5-1.9-4.9-1.3c-2.4,1-5,1.4-7.5,2&#10;&#9;&#9;&#9;&#9;c-9.9,2.1-20,3.2-30,4.6c-18.4,2.6-34.4,13.5-45.7,27.9c-2.3,2.9-5.4,6.2-5.9,9.9c-1,7.5,0.5,16,1.8,23.4&#10;&#9;&#9;&#9;&#9;c1.2,7.2,6.3,16.5,1.3,23.1c-4.3,5.7-8.6,10.1-10.7,17.1c-3.2,10.7-1.2,22.3-3.5,33.3c-1,5-2.5,9.8-5.2,14.1&#10;&#9;&#9;&#9;&#9;c0.7-1.2,0-0.6-0.4,0.5c-0.3,1-0.6,1.8-0.7,2.9c-0.1,1.4,0.3,2.9,0.4,4.3c0.6,6,1.2,12,1.7,17.9c1.3,13.3,2.6,26.7,3.9,40&#10;&#9;&#9;&#9;&#9;c0,0.4,0,2.8,0.3,3c-0.8-0.5,1.1-2.6,0.9-2.8c-0.3-0.3,0.7-0.3-0.2,0.2c-1.3,0.7-2.4,2.2-3.8,3c-3.1,1.8-8.8,4-12.3,2.5&#10;&#9;&#9;&#9;&#9;c-2.7-1.2-4.1-4.5-4.9-7.1c-0.3-1.2-0.6-2.3-0.8-3.5c0.1,0.3,0.3,1.7-0.1-0.6c-0.2-1.5-0.5-3-0.7-4.5c-1.1-7-2.1-14-3.2-21&#10;&#9;&#9;&#9;&#9;c-1.8-12.1-3.7-24.2-5.5-36.4C240.9,235,231.1,237.8,232.1,244.2L232.1,244.2z" id="el_ZOw8UdOTrxO"/>
		</g>
	</g>
	<g id="el_KAWNPQTOirb">
		<g id="el_nbS4LvwQkaw">
			<path d="M410.7,94.6c30,2.2,60.1,4.3,90.1,6.5c4.8,0.3,9.5,0.7,14.3,1c-1.5-0.8-2.9-1.7-4.4-2.5&#10;&#9;&#9;&#9;&#9;c8.1,13.8,16.2,27.7,24.3,41.5c2.1,3.7,8.3,3.1,9.3-1.2c3.8-16.2,4-34.2,0.3-50.4c-2.2-9.8-6-19.6-13.6-26.4&#10;&#9;&#9;&#9;&#9;c-6.5-5.8-14.5-9.5-22.8-12c-8.5-2.6-17.3-4-26.1-5.4c-7.2-1.2-14.4-3.7-21.7-4.6c-4.8-0.5-9.4-0.1-14.2,0.5&#10;&#9;&#9;&#9;&#9;c-4.4,0.5-9.6,1.5-14,0.1c-6.8-2.1-8.8-10.4-11-16.4c-1.8-5.2-4.2-9.8-9.9-11.5c-9.1-2.7-20.4,0.5-29.3,2.1&#10;&#9;&#9;&#9;&#9;c-6.4,1.2-3.7,10.9,2.7,9.8c6.9-1.3,16.5-4,23.4-2.2c1.4,0.4,1.4,0.4,1.9,1.2c0.9,1.6,1.2,2.8,2,5.1c2.3,6.7,5,13.9,10.8,18.3&#10;&#9;&#9;&#9;&#9;c7.2,5.5,16.2,4.4,24.6,3.5c4.4-0.5,9.1-1,13.5-0.2c3.4,0.6,6.6,1.9,10,2.6c7.2,1.5,14.5,2.4,21.7,3.8c15.9,3.1,33.1,8.4,39.3,25&#10;&#9;&#9;&#9;&#9;c6.2,16.8,6.5,37,2.4,54.5c3.1-0.4,6.2-0.8,9.3-1.2c-5.6-9.6-11.2-19.1-16.8-28.7c-2.4-4.1-4.6-8.6-7.3-12.5&#10;&#9;&#9;&#9;&#9;c-2-2.8-4.5-2.9-7.5-3.1c-25.3-1.8-50.6-3.6-75.9-5.5c-8.5-0.6-17-1.2-25.5-1.8C404.2,84,404.2,94.2,410.7,94.6L410.7,94.6z" id="el_S1CeyPnHBxc"/>
		</g>
	</g>
	<g id="el_CB1x8i2D_vx">
		<g id="el_PBoy1zR33Mx">
			<path d="M212,282.8c-1.9-17.5-3-35.1-3.5-52.6c-0.4-14.3-0.5-28.6,0.6-42.8s4.4-27.9,7.1-41.8&#10;&#9;&#9;&#9;&#9;c1.4-7.2,2.3-18.3,8.3-22.8c3.5-2.7,8.1-3.2,12.2-4.4c6.4-1.9,12-5.5,16.1-10.8c6.2-8,8.4-18.6,18.9-22.1&#10;&#9;&#9;&#9;&#9;c3.4-1.2,6.4-2.2,9.2-4.6c5.7-5,9.4-12.1,13.8-18.2c3-4.2,6.5-8.8,11.9-9.8c6.5-1.3,13.4,0.1,20-0.7c12.1-1.6,24.1-8.6,32.3-17.5&#10;&#9;&#9;&#9;&#9;c4.4-4.8-2.7-12-7.2-7.2c-7.2,7.8-18,14.3-28.7,14.9c-11.1,0.6-21.5-1.4-30.3,7c-5.7,5.5-9.5,12.7-14.2,19c-2.7,3.6-5,6-8.4,7&#10;&#9;&#9;&#9;&#9;c-4.5,1.4-8.8,3.4-12.3,6.6c-4.1,3.7-6.5,8.7-9.1,13.4c-3,5.5-6.6,10.3-12.6,12.6c-5,1.9-10.3,2.4-15,5.1&#10;&#9;&#9;&#9;&#9;c-7.8,4.4-10.8,12.6-12.8,20.9c-3.2,13.7-6.2,27.8-8.1,41.7c-1.9,14-2.2,28.1-2.1,42.2c0.2,21.7,1.4,43.5,3.7,65&#10;&#9;&#9;&#9;&#9;C202.5,289.2,212.7,289.3,212,282.8L212,282.8z" id="el_Th5rCNkjoUH"/>
		</g>
	</g>
	<g id="el_8qNW2n3g3tW_an_dN3ufW9NJ" data-animator-group="true" data-animator-type="0"><g id="el_8qNW2n3g3tW">
		<g id="el_dnakMtCZA6d">
			<path d="M305.8,223.1c1.5-0.7,3.5-1.5,6.1-2.4c5.8-2.1,11.7-3.9,17.6-5.3c17.2-4.1,35.3-5.3,52.6-0.9&#10;&#9;&#9;&#9;&#9;c6.3,1.6,9-8.2,2.7-9.8c-27.4-6.9-58.6-2.1-84.1,9.7C294.8,217,299.9,225.8,305.8,223.1L305.8,223.1z" id="el_Y6wfJ0rIptd"/>
		</g>
	</g></g>
	<g id="el_xJOogqmqp5i_an_JYPyJzE2L" data-animator-group="true" data-animator-type="0"><g id="el_xJOogqmqp5i">
		<g id="el_pCYn_A_MVwu">
			<path d="M459.9,201.4c19.3-4.5,42.7-7.2,61.6,0c6.1,2.3,8.7-7.5,2.7-9.8c-20.5-7.9-46-4.8-67,0&#10;&#9;&#9;&#9;&#9;C450.8,193.1,453.5,202.8,459.9,201.4L459.9,201.4z" id="el_J1SBSp8T1ix"/>
		</g>
	</g></g>
	<g id="el_ckuLGFGk2Ri">
		<g id="el_JSbiX0NaRRv">
			<path d="M286.7,360.9c0.8,8.3,1.7,16.6,2.5,24.9c0.6,6.4,10.8,6.5,10.1,0c-0.8-8.3-1.7-16.6-2.5-24.9&#10;&#9;&#9;&#9;&#9;C296.2,354.4,286.1,354.4,286.7,360.9L286.7,360.9z" id="el_9Pdot5JeP2k"/>
		</g>
	</g>
	<g id="el_uyIRX9scWWP">
		<g id="el_wXrlpapMbXk">
			<path d="M324.6,381.1c0.7,6.9,1.4,13.7,2.1,20.6c0.6,6.4,10.8,6.5,10.1,0c-0.7-6.9-1.4-13.7-2.1-20.6&#10;&#9;&#9;&#9;&#9;C334.1,374.7,323.9,374.6,324.6,381.1L324.6,381.1z" id="el_WX2qhw3yr6g"/>
		</g>
	</g>
	<g id="el_X9taPqzC0j0">
		<g id="el_uuR8Wh03xLG">
			<path d="M335.3,429.4c0.6,6.1,1.2,12.2,1.8,18.2c0.6,6.4,10.8,6.5,10.1,0c-0.6-6.1-1.2-12.2-1.8-18.2&#10;&#9;&#9;&#9;&#9;C344.8,423,334.6,422.9,335.3,429.4L335.3,429.4z" id="el_3TnywfATbPT"/>
		</g>
	</g>
	<g id="el_4YxV3RW2mIY">
		<g id="el_y2EjOIf4Peu">
			<path d="M366.5,463.9c0.6,6.1,1.2,12.2,1.8,18.2c0.6,6.4,10.8,6.5,10.1,0c-0.6-6.1-1.2-12.2-1.8-18.2&#10;&#9;&#9;&#9;&#9;C376,457.5,365.9,457.4,366.5,463.9L366.5,463.9z" id="el_RWnco2h1W82"/>
		</g>
	</g>
	<g id="el_W-5UFH3DI_I">
		<g id="el_laC9mj2ZwM6">
			<path d="M464.7,491.4c0.6,6.1,1.2,12.2,1.8,18.2c0.6,6.4,10.8,6.5,10.1,0c-0.6-6.1-1.2-12.2-1.8-18.2&#10;&#9;&#9;&#9;&#9;C474.2,485,464,484.9,464.7,491.4L464.7,491.4z" id="el_gOXvSbOIG05"/>
		</g>
	</g>
	<g id="el_rj5jGN4CIvc">
		<g id="el_yYgKsQC59qW">
			<path d="M392.8,429.4c0.6,6.1,1.2,12.2,1.8,18.2c0.6,6.4,10.8,6.5,10.1,0c-0.6-6.1-1.2-12.2-1.8-18.2&#10;&#9;&#9;&#9;&#9;C402.3,423,392.2,422.9,392.8,429.4L392.8,429.4z" id="el_7mWalaNKaZ2"/>
		</g>
	</g>
	<g id="el_HYCMZyeNnnv">
		<g id="el_WX5gvJPbpRA">
			<path d="M447.9,372c0.6,6.1,1.2,12.2,1.8,18.2c0.6,6.4,10.8,6.5,10.1,0c-0.6-6.1-1.2-12.2-1.8-18.2&#10;&#9;&#9;&#9;&#9;C457.4,365.6,447.2,365.5,447.9,372L447.9,372z" id="el_jwFopKsqpz7"/>
		</g>
	</g>
	<g id="el_cyhMsqyoTRl">
		<g id="el_sdvJ9v4gj_P">
			<path d="M484.3,358.7c0.5,4.5,0.9,9,1.4,13.5c0.3,2.7,2.1,5.1,5.1,5.1c2.5,0,5.3-2.3,5.1-5.1&#10;&#9;&#9;&#9;&#9;c-0.5-4.5-0.9-9-1.4-13.5c-0.3-2.7-2.1-5.1-5.1-5.1C486.8,353.6,484,355.9,484.3,358.7L484.3,358.7z" id="el_qNOtA8mQSFD"/>
		</g>
	</g>
	<g id="el_UJ65aT_Uj7h">
		<g id="el_5W0bNfK8suf">
			<path d="M504.4,411.8c0.6,6.1,1.2,12.2,1.8,18.2c0.6,6.4,10.8,6.5,10.1,0c-0.6-6.1-1.2-12.2-1.8-18.2&#10;&#9;&#9;&#9;&#9;C513.9,405.4,503.8,405.3,504.4,411.8L504.4,411.8z" id="el_nMy73_l7lMW"/>
		</g>
	</g>
	<g id="el_LavQMvdKldt">
		<g id="el_On8VhdgABJf">
			<path d="M409.4,362.9c0.6,6.1,1.2,12.2,1.8,18.2c0.6,6.4,10.8,6.5,10.1,0c-0.6-6.1-1.2-12.2-1.8-18.2&#10;&#9;&#9;&#9;&#9;C418.9,356.4,408.7,356.4,409.4,362.9L409.4,362.9z" id="el_ANC_M_XlU4H"/>
		</g>
	</g>
	<g id="el_sgzyvDUv68F">
		<g id="el_ZvvSCcGy5qY">
			<path d="M473.1,438.6c0.6,6.1,1.2,12.2,1.8,18.2c0.6,6.4,10.8,6.5,10.1,0c-0.6-6.1-1.2-12.2-1.8-18.2&#10;&#9;&#9;&#9;&#9;C482.6,432.1,472.5,432.1,473.1,438.6L473.1,438.6z" id="el_S5roUaqIaqG"/>
		</g>
	</g>
	<g id="el_ebhdu62UM6x">
		<g id="el_3wegEHd-M6E">
			<path d="M431.8,454.8c0.6,6.1,1.2,12.2,1.8,18.2c0.6,6.4,10.8,6.5,10.1,0c-0.6-6.1-1.2-12.2-1.8-18.2&#10;&#9;&#9;&#9;&#9;C441.3,448.4,431.1,448.3,431.8,454.8L431.8,454.8z" id="el_O3dzYjg2Dxv"/>
		</g>
	</g>
	<g id="el_gBHOv34uXW5">
		<g id="el_TnrHTtyfUlr">
			<path d="M357.4,375.5c0.7,7.2,1.4,14.4,2.2,21.6c0.6,6.4,10.8,6.5,10.1,0c-0.7-7.2-1.4-14.4-2.2-21.6&#10;&#9;&#9;&#9;&#9;C366.9,369.1,356.8,369,357.4,375.5L357.4,375.5z" id="el_NJq23i6HUBs"/>
		</g>
	</g>
	<g id="el_pS-hohRIVT5">
		<g id="el_qkmFwo3qbpC">
			<path d="M298.2,419c-0.5,5.9-1,11.8-1.5,17.7c-0.5,6.5,9.6,6.5,10.1,0c0.5-5.9,1-11.8,1.5-17.7&#10;&#9;&#9;&#9;&#9;C308.8,412.5,298.7,412.5,298.2,419L298.2,419z" id="el_BwL6_iiwNT5"/>
		</g>
	</g>
	<g id="el_b36vbljidTT">
		<g id="el_v7u65v7UQAf">
			<path d="M310.3,491.4c0,16.8,0,33.6,0,50.4c0,7.1-0.6,14.5,0,21.6c0.3,3.3,2.7,5.7,4.7,8.2&#10;&#9;&#9;&#9;&#9;c23.9,30.4,47.8,60.9,71.7,91.3c8.1,10.2,16.1,20.5,24.2,30.7c1.9,2.4,6.7,1.7,8-1c9.4-20.2,18.8-40.4,28.3-60.6&#10;&#9;&#9;&#9;&#9;c4.7-10,9.4-20.1,14.1-30.1c3-6.3,3.1-13.4,4.1-20.4c1.7-12.5,3.5-25,5.2-37.5c0.9-6.4-8.9-9.1-9.8-2.7&#10;&#9;&#9;&#9;&#9;c-1.5,10.6-2.9,21.2-4.4,31.9c-0.8,6.1-1.7,12.3-2.5,18.4c-0.2,1.2-0.4,2.4-0.5,3.5c0.1-1.6,0.5-1-0.1,0.2&#10;&#9;&#9;&#9;&#9;c-10.8,22.4-21,45.1-31.6,67.6c-3.8,8.2-7.6,16.3-11.4,24.5c2.7-0.3,5.3-0.7,8-1c-28.9-36.8-57.9-73.7-86.8-110.5&#10;&#9;&#9;&#9;&#9;c-4.1-5.2-8.2-10.4-12.3-15.6c0.5,1.2,1,2.4,1.5,3.6c0-24.2,0-48.4,0-72.6C320.4,484.9,310.3,484.9,310.3,491.4L310.3,491.4z" id="el_ASmf9TJZJol"/>
		</g>
	</g>
	<g id="el_tbQNUGTLHf8">
		<g id="el_4IPXke1Gm5Z">
			<path d="M309.3,514.3c-8.4,3.9-16.5,8.6-24.2,13.7c-11.4,7.6-24.9,17.4-29.3,31c-2.3,7.1-0.4,13.1,2.6,19.6&#10;&#9;&#9;&#9;&#9;c4.1,9.3,9.2,18.1,14.5,26.8c4.5,7.4,9.3,14.7,14.2,21.8c2.3,3.3,4.9,9,9.3,9.5c5.4,0.7,11.2,0,16.6,0c5.5,0,11.1,0,16.6,0&#10;&#9;&#9;&#9;&#9;c-1.6-2.1-3.3-4.3-4.9-6.4c-3.8,21.2-7.6,42.4-11.5,63.6c-0.6,3.4,2.3,7.7,6.2,6.2c25.8-9.7,51.7-19.4,77.5-29.1&#10;&#9;&#9;&#9;&#9;c6.1-2.3,3.4-12.1-2.7-9.8c-25.8,9.7-51.7,19.4-77.5,29.1c2.1,2.1,4.2,4.2,6.2,6.2c3.8-21.2,7.6-42.4,11.5-63.6&#10;&#9;&#9;&#9;&#9;c0.6-3.2-1.4-6.4-4.9-6.4c-11.1,0-22.2,0-33.3,0c1.5,0.8,2.9,1.7,4.4,2.5c-12.8-17.7-25.5-36.6-34.1-56.8&#10;&#9;&#9;&#9;&#9;c-3.6-8.5,0.2-15.1,6.2-21.5c7.1-7.5,15.9-13.4,24.7-18.7c5.5-3.3,11.1-6.4,16.8-9C320.3,520.3,315.2,511.6,309.3,514.3&#10;&#9;&#9;&#9;&#9;L309.3,514.3z" id="el_KA7pfAwqwbE"/>
		</g>
	</g>
	<g id="el_P5u1gUmUESD">
		<g id="el_bRdhko4irSu">
			<path d="M430.9,665.2c17.2,3.2,34.3,6.5,51.5,9.7c3,0.6,6.7-1.4,6.4-4.9c-1.5-22.4-3.1-44.7-4.6-67.1&#10;&#9;&#9;&#9;&#9;c-1.2,1.6-2.5,3.3-3.7,4.9c11.5-3.1,23-6.1,34.6-9.2c1.6-0.4,3.2-1.9,3.5-3.5c2.3-12.2,4.2-24.5,5.3-36.8&#10;&#9;&#9;&#9;&#9;c0.5-6.2,1.4-13.4-0.5-19.4c-2.3-7.3-8.3-14.1-14.6-18.3c-5.5-3.6-10.6,5.2-5.1,8.8c4.5,3,9.5,8.6,10.4,14.1&#10;&#9;&#9;&#9;&#9;c0.9,5.6,0,12.3-0.6,18c-1.1,10.4-2.7,20.7-4.6,30.9c1.2-1.2,2.4-2.4,3.5-3.5c-11.5,3.1-23,6.1-34.6,9.2c-2,0.5-3.9,2.7-3.7,4.9&#10;&#9;&#9;&#9;&#9;c1.5,22.4,3.1,44.7,4.6,67.1c2.1-1.6,4.3-3.3,6.4-4.9c-17.2-3.2-34.3-6.5-51.5-9.7C427.2,654.2,424.5,664,430.9,665.2&#10;&#9;&#9;&#9;&#9;L430.9,665.2z" id="el_GfwmeTEgD5W"/>
		</g>
	</g>
	<g id="el_5JyInLNAr-l">
		<g id="el_DaCj1dkjjNR">
			<path d="M259.8,570.7c-19.4,9.4-39,18.5-58.7,27.4c-15.3,6.9-30.6,13.7-46.1,20c-11.8,4.8-23.7,9.9-36.1,12.9&#10;&#9;&#9;&#9;&#9;c-0.9,0.2-1.9,0.4-2.8,0.6c-0.4,0.1-0.8,0.1-1.2,0.2c1.4-0.2,0.2,0-0.1,0c-1.6,0.2-3,0.2-4.4,1c-2.6,1.4-3.9,4-4.1,6.8&#10;&#9;&#9;&#9;&#9;c-0.4,5.4,2.4,11,4.9,15.7c10.5,19.5,27.1,36.3,43.7,50.7c59.1,51.5,136.4,79.3,214.5,81.3c85.7,2.2,174.9-20,246.3-68.3&#10;&#9;&#9;&#9;&#9;c21.8-14.8,42.1-31.9,59.8-51.5c8.7-9.6,17.5-19.9,24.1-31.1c0.3-0.5,0.6-1,0.9-1.5c1.8-3.1,0-6.2-3-7.4&#10;&#9;&#9;&#9;&#9;c-19.9-8.1-39.7-16.1-59.6-24.2c-31.7-12.9-63.4-25.7-95.1-38.6c-7.3-3-14.6-5.9-21.9-8.9c-6-2.5-8.7,7.4-2.7,9.8&#10;&#9;&#9;&#9;&#9;c19.9,8.1,39.7,16.1,59.6,24.2c31.7,12.9,63.4,25.7,95.1,38.6c7.3,3,14.6,5.9,21.9,8.9c-1-2.5-2-5-3-7.4&#10;&#9;&#9;&#9;&#9;c-4.4,7.6-9.5,14.1-14.5,20.2c-14.3,17.4-30.7,33.1-48.4,46.9c-62.2,48.7-140,73.5-218.1,79.1c-45.5,3.3-91.1-0.6-134.7-14.2&#10;&#9;&#9;&#9;&#9;c-34.4-10.7-66.9-27.1-95.9-48.5c-19.7-14.5-38.6-31.7-52.8-51.6c-2.4-3.4-4.7-6.8-6.7-10.5c-0.8-1.4-1.5-2.7-2.1-4.1&#10;&#9;&#9;&#9;&#9;c-1-2-0.5-0.8-1.2-3c-0.3-1.1-0.6-2.1-0.9-3.2c-0.1-0.4,0.5,1.2,0-0.1c-0.5-1.5-0.1,0-0.1-0.1c-0.3-0.3,1.3-2-0.2,0.2&#10;&#9;&#9;&#9;&#9;c0.7-1-0.7,0.8-0.3,0.3c-1,1,0.1-0.1-1.3,0.7c1.1-0.6-1.5,0.2,0,0c9.9-1.2,19.3-4.7,28.6-8.2c14.7-5.6,29.2-11.8,43.7-18.1&#10;&#9;&#9;&#9;&#9;c24.9-10.9,49.5-22.3,74-34.1c1.4-0.7,2.8-1.3,4.2-2C270.8,576.6,265.6,567.9,259.8,570.7L259.8,570.7z" id="el_7mgW56A1QA5"/>
		</g>
	</g>
	<g id="el_zKt3dYOYRwN">
		<g id="el_fooGnKyBOHe">
			<path d="M410.6,695.3c0,27.9,0,55.8,0,83.7c0,6.5,10.1,6.5,10.1,0c0-27.9,0-55.8,0-83.7&#10;&#9;&#9;&#9;&#9;C420.7,688.8,410.6,688.8,410.6,695.3L410.6,695.3z" id="el_1GrWE0H4lN_"/>
		</g>
	</g>
	<g id="el_cWgm6gskqle">
		<g id="el_miEgH1dVW46">
			<path d="M445,728.3c-0.3,4.9-7.6,4.9-7.6,0C437.3,723.3,444.7,723.4,445,728.3c0.3,6.5,10.5,6.5,10.1,0&#10;&#9;&#9;&#9;&#9;c-0.4-7.6-6.1-14-14-14c-7.6,0-13.9,6.4-14,14c-0.1,7.4,6.1,13.6,13.5,13.9c8.1,0.3,14-6.2,14.4-13.9&#10;&#9;&#9;&#9;&#9;C455.5,721.8,445.3,721.8,445,728.3z" id="el_hJjMmTBV-Tg"/>
		</g>
	</g>
	<g id="el_522WJqW3CkI">
		<g id="el_iSk03H3c7o2">
			<path d="M204.5,309.6c11.7,11.3,23.3,22.6,35,33.8c4.7,4.5,11.9-2.6,7.2-7.2c-11.7-11.3-23.3-22.6-35-33.8&#10;&#9;&#9;&#9;&#9;C207,297.9,199.8,305,204.5,309.6L204.5,309.6z" id="el_NhDdQcvXmbA"/>
		</g>
	</g>
	<g id="el_sKsThdWmQqi">
		<g id="el_k-kv-UBdMAq">
			<path d="M225,304.6c-1.5,4-3.1,7.9-4.7,11.8c-2.3,5.3-4.6,11.9-8.3,16.3c-4.2,5,2.9,12.2,7.2,7.2&#10;&#9;&#9;&#9;&#9;c7.6-9,11.6-21.8,15.7-32.6C237,301.2,227.2,298.6,225,304.6L225,304.6z" id="el_uJUfDcm2E7T"/>
		</g>
	</g>
	<g id="el_tbXsIbwM5Eq">
		<g id="el_IexNP2GnReG">
			<path d="M210.4,287.9c10.1,1.3,20.2,2.7,30.3,4c5.8,0.8,6.7-8.5,1.3-10c-12-3.3-28.2-4.2-39.4,2.1&#10;&#9;&#9;&#9;&#9;c-10.9,6.1-17.1,18.9-18.4,31c-1.8,16.7,6.2,35.5,18.8,46.5c10.5,9.1,24.5,10.9,37.8,9.2c9.3-1.2,18.6-3.7,27.1-7.7&#10;&#9;&#9;&#9;&#9;c-2.5-1-5-2-7.4-3c6.3,34,14.1,68.8,26.6,101.1c3.2,8.3,6.5,16.7,12.6,23.3c5.8,6.4,13.3,11.2,20.9,15.2&#10;&#9;&#9;&#9;&#9;c17,8.9,35.8,14.2,54.5,18.3c11.7,2.6,23.6,4.7,35.6,6.1c6.5,0.7,6.4-9.4,0-10.1c-3.3-0.4-3.4-0.4-6.9-0.9&#10;&#9;&#9;&#9;&#9;c-6.5-1-13-2.1-19.5-3.4c-17.8-3.6-35.9-8.2-52.5-15.7c-7.5-3.4-15-7.4-21.2-12.9c-6-5.4-9.3-11.9-12.4-19.3&#10;&#9;&#9;&#9;&#9;c-8.3-20.1-13.8-41.4-18.9-62.4c-3.3-13.8-6.4-27.8-9-41.8c-0.6-3.5-4.7-4.3-7.4-3c-0.4,0.2-0.7,0.3-1.1,0.5&#10;&#9;&#9;&#9;&#9;c1.1-0.4-0.2,0.1-0.6,0.2c-0.7,0.3-1.5,0.6-2.2,0.8c-3.9,1.4-7.8,2.6-11.8,3.5c-10,2.3-21.5,3.3-31.1-1.2&#10;&#9;&#9;&#9;&#9;c-12.4-5.9-21-22-21.9-35.4c-0.7-10.2,2.8-21.7,11.1-28.2c8.8-6.9,23.9-5.5,34.1-2.7c0.4-3.3,0.9-6.6,1.3-10&#10;&#9;&#9;&#9;&#9;c-10.1-1.3-20.2-2.7-30.3-4C203.9,276.9,204,287,210.4,287.9L210.4,287.9z" id="el_JetoKxMFqOc"/>
		</g>
	</g>
	<g id="el_JXMYdVBaWwj_an_wIdBP9F-I" data-animator-group="true" data-animator-type="1"><g id="el_JXMYdVBaWwj">
		<path d="M433.6,235.6c0,11.5-12.6,115-12.6,115s71.2,7.6,74.9-13.1C499.7,316.8,433.6,203.1,433.6,235.6z" id="el_H4eRlmETYnP"/>
		<g id="el_2j7OyCkQSxF">
			<path d="M428.5,235.6c-0.1,14.5-2.6,29.2-4.2,43.6c-2.2,19.4-4.5,38.8-6.8,58.1c-0.5,4.4-1.1,8.8-1.6,13.3&#10;&#9;&#9;&#9;&#9;c-0.4,2.9,2.6,4.8,5.1,5.1c14.5,1.5,29.4,2,43.9,0.7c13.3-1.1,37.8-4.3,36.2-22.7c-0.6-7-3.1-13.8-5.7-20.2&#10;&#9;&#9;&#9;&#9;c-3.6-9-7.7-17.8-12.1-26.5c-8.8-17.1-18.5-34.1-30.4-49.3c-3.6-4.6-8.2-10.9-14.1-12.6C431.7,223.1,428.6,229.8,428.5,235.6&#10;&#9;&#9;&#9;&#9;c-0.1,6.5,10.1,6.5,10.1,0c0-0.5,0-1.1,0.1-1.6c0-0.1,0.1,0.7,0.1-0.3c0-0.8,0.1,0.1-0.6,0.5c-1.1,0.6-2.3,0.5-2.4,0.6&#10;&#9;&#9;&#9;&#9;c0.4-0.3,0.3,0.2-0.1-0.1c0.4,0.2,0.8,0.4,1.1,0.7c0.9,0.7-0.4-0.3,0.4,0.3c0.4,0.3,0.8,0.7,1.2,1c0.9,0.9,1.9,1.8,2.7,2.8&#10;&#9;&#9;&#9;&#9;c1.9,2.1,3.7,4.3,5.4,6.6c10.3,13.8,19,29,26.9,44.2c6.8,13.1,14.1,27.1,17.1,41.8c0.3,1.6,0.2,0.8,0.3,2.2&#10;&#9;&#9;&#9;&#9;c0,0.6-0.2,3.3,0.1,1.8c-0.4,2.2-1.5,3.3-3.8,4.7c-6.4,3.9-15,4.8-22.3,5.4c-14.5,1.2-29.4,0.8-43.9-0.7c1.7,1.7,3.4,3.4,5.1,5.1&#10;&#9;&#9;&#9;&#9;c3.9-31.9,7.7-63.8,11-95.7c0.6-6.4,1.6-12.8,1.6-19.2C438.7,229.1,428.6,229.1,428.5,235.6z" id="el_RBCteA7-fDP"/>
		</g>
	</g></g>
	<g id="el_ehTcl_RBNmq">
		<g id="el_fz-DoOkWgIN">
			<path d="M389.2,392.9c12.8,15,31.9,28,51.6,30.7c13.8,1.8,29.7-1.6,42.2-7.5c4.3-2,9.5-5,12-9.3&#10;&#9;&#9;&#9;&#9;c3.2-5.7-5.5-10.8-8.8-5.1c-0.5,0.9,0.3-0.3,0.2-0.2c-0.5,0.6-1,1.1-1.6,1.7c-1.8,1.6-5,3.4-7.8,4.6c-11.1,4.9-25.5,7.9-37.5,5.5&#10;&#9;&#9;&#9;&#9;c-16.6-3.3-32.3-14.6-43.2-27.4C392.2,380.8,385,388,389.2,392.9L389.2,392.9z" id="el_9gX0Y7D77h_"/>
		</g>
	</g>
	<g id="el_9kTCkIqACLM_an_A0HECvbs1" data-animator-group="true" data-animator-type="0"><g id="el_9kTCkIqACLM">
		<g id="el_mV7ciGFaAFj">
			<path d="M660.2,274.5c-1.1-0.4,0.5,0.2-0.2-0.1c-1.2-0.6-2.4-1.2-3.5-1.8c-3.2-1.9-6.2-4.4-8.5-7.3&#10;&#9;&#9;&#9;&#9;c-6.8-8.8-6-21-0.9-30.4c5-9.3,12.9-16.4,19.3-24.6c7.1-9,12.1-19.1,12.5-30.8c0.5-12.7-3.7-25.8-11.4-35.9&#10;&#9;&#9;&#9;&#9;c-5.7-7.5-13.9-12.9-19.1-20.7c-10.1-14.9-3.8-48.7,18.5-47.8c10.4,0.5,20.2,11.4,15.5,21.8c-1,2.1-3.1,5.1-5.4,5.9&#10;&#9;&#9;&#9;&#9;c-2.2,0.7-4.4-0.7-6.2-2.1c-2.9-2.2-5.6-5.2-7.7-8.3c-3.6-5.4-12.4-0.3-8.8,5.1c5.2,7.8,15,18.5,25.4,15&#10;&#9;&#9;&#9;&#9;c12.7-4.2,16.6-20.5,11.5-31.5c-5.1-11.2-18-17.6-30-15.6c-11.9,2-20.6,11.3-24.6,22.3c-4.7,12.8-4.8,29.1,3.1,40.7&#10;&#9;&#9;&#9;&#9;c6.5,9.5,16.7,15.7,22.6,25.7c7.4,12.5,8.8,28.8,1.6,41.6c-6.1,11-16.1,19.2-23.1,29.6c-8.3,12.3-11.2,28.8-3.6,42.1&#10;&#9;&#9;&#9;&#9;c4.3,7.6,11.9,13.8,20.1,16.8C663.6,286.5,666.3,276.7,660.2,274.5L660.2,274.5z" id="el_gKXsSfXMC-7"/>
		</g>
	</g></g>
	<g id="el_sYE2rFE-v0i_an_Wa_Enx7Ko" data-animator-group="true" data-animator-type="0"><g id="el_sYE2rFE-v0i">
		<g id="el_946S7XbTmTf">
			<path d="M625.1,360.3c25-2,29.7-34.4,24.7-53.7c-3.5-13.8-13.3-21.3-23.4-30.3c-4.3-3.8-7.7-8-9-13.7&#10;&#9;&#9;&#9;&#9;c-1.8-7.8-0.4-17.7,2.9-25c2.8-6.1,7.7-10.4,11.9-15.4c5.9-7.1,9.5-15.2,11.3-24.3c1.3-6.4-8.5-9.1-9.8-2.7&#10;&#9;&#9;&#9;&#9;c-1.5,7.3-3.9,14-8.7,19.8c-3.8,4.6-8.2,8.5-11.4,13.6c-7.5,11.9-10,30.3-3.7,43.2c5.1,10.6,16.1,15.7,23.4,24.5&#10;&#9;&#9;&#9;&#9;c9.1,10.8,10.8,29.4,5.2,42.2c-1.9,4.4-5,7.9-9.2,10.1c-1.5,0.8-1.7,0.7-3.7,1.3c-0.4,0.1-0.9,0.2-1.3,0.3&#10;&#9;&#9;&#9;&#9;c-0.8,0.2,1.5-0.2,0.6-0.1C618.6,350.7,618.6,360.8,625.1,360.3L625.1,360.3z" id="el_vkRczbgWvqL"/>
		</g>
	</g></g>
	<g id="el_GMU0V88fGwU_an_66SoHNRGl" data-animator-group="true" data-animator-type="1"><g id="el_GMU0V88fGwU">
		<g id="el_WcVUcCpEdWJ">
			<polygon points="584.2,385.5 486.5,411.8 485.6,405.8 579.4,367.9 &#9;&#9;&#9;" id="el__FD2M5xUcXp"/>
			<g id="el_TZd4wNKtprO">
				<path d="M582.8,380.6c-28.5,7.7-57,15.4-85.5,23c-4,1.1-8.1,2.2-12.1,3.3c2.1,1.2,4.2,2.4,6.2,3.5&#10;&#9;&#9;&#9;&#9;&#9;c-0.3-2-0.6-4-0.9-6c-1.2,2.1-2.4,4.2-3.5,6.2c27.4-11.1,54.7-22.1,82.1-33.2c3.9-1.6,7.8-3.1,11.7-4.7&#10;&#9;&#9;&#9;&#9;&#9;c-2.1-1.2-4.2-2.4-6.2-3.5c1.6,5.9,3.2,11.8,4.8,17.6c1.7,6.3,11.5,3.6,9.8-2.7c-1.6-5.9-3.2-11.8-4.8-17.6&#10;&#9;&#9;&#9;&#9;&#9;c-0.7-2.4-3.7-4.6-6.2-3.5c-27.4,11.1-54.7,22.1-82.1,33.2c-3.9,1.6-7.8,3.1-11.7,4.7c-2.8,1.1-4,3.2-3.5,6.2c0.3,2,0.6,4,0.9,6&#10;&#9;&#9;&#9;&#9;&#9;c0.4,2.7,3.8,4.2,6.2,3.5c28.5-7.7,57-15.4,85.5-23c4-1.1,8.1-2.2,12.1-3.3C591.8,388.7,589.2,378.9,582.8,380.6z" id="el_T0dQXcnmCGk"/>
			</g>
		</g>
		<g id="el_rmjaZ4ECb-P">
			<path d="M558.8,378.6c2.8,2.7,4.4,6.5,4.6,10.4" id="el_6GZqCHslbjx"/>
			<g id="el_EbF3TlWYJqf">
				<path d="M555.3,382.2c1.9,1.9,2.9,4.3,3.1,6.8c0.1,2.7,2.2,5.1,5.1,5.1c2.6,0,5.2-2.3,5.1-5.1&#10;&#9;&#9;&#9;&#9;&#9;c-0.3-5.3-2.3-10.1-6-13.9C557.9,370.4,550.7,377.5,555.3,382.2L555.3,382.2z" id="el_W8sK-InQJOY"/>
			</g>
		</g>
	</g></g>
</g></g>
</svg>