<?xml version="1.0" encoding="utf-8"?>
<!-- Generator: Adobe Illustrator 22.1.0, SVG Export Plug-In . SVG Version: 6.00 Build 0)  -->
<svg version="1.1" id="Capa_1" xmlns="http://www.w3.org/2000/svg" xmlns:xlink="http://www.w3.org/1999/xlink" x="0px" y="0px"
	 viewBox="0 0 80 80" style="enable-background:new 0 0 80 80;" xml:space="preserve">
<style type="text/css">
	.st0{fill:#5ABFED;}
	.st1{fill:#FFD16A;}
	.st2{fill:#222221;}
</style>
<polygon class="st0" points="3.3,15 3.3,30.9 26.3,76.5 72.6,73.1 75,63 52.5,19.6 52.7,5 "/>
<polygon class="st1" points="15.9,9.8 18.4,19.4 48.9,15 48.9,6.2 "/>
<g>
	<g>
		<path class="st2" d="M10.6,8.6c0.5,5.5,0.6,11.1,1.5,16.5c0.5,3,2.3,5.8,3.6,8.6c5,10.4,9.9,20.9,14.9,31.3
			c0.1,0.3,0.5,0.5,0.9,0.5c14.6-1.1,29.6-1.5,44-4c1.5-0.3,2.5-0.2,2.6-1.8c0-1-1.5-3-2-3.9c-1.1-2.1-2.2-4.2-3.3-6.3
			C67.9,40.3,63,31.2,58.1,22c-0.7-1.2-1.5-2.5-2-3.7c-0.3-0.8-0.2-0.2-0.3-1.8c-0.1-4.3-0.4-8.6-0.6-12.9c0-0.5-0.4-1.1-1-1
			C40,4.2,25.8,5.9,11.6,7.6c-1.3,0.2-1.3,2.2,0,2C25.8,7.9,40,6.2,54.2,4.5c-0.3-0.3-0.7-0.7-1-1c0.2,4.6-0.5,10.5,0.7,14.9
			c1,3.8,4.2,7.9,6.1,11.3c3.9,7.2,7.7,14.4,11.5,21.6c1.1,2.1,2.3,6.3,4.1,7.8c1.3,1.1-0.8,0.9,1.1,0.1c-0.2,0.1-0.5,0.2-0.7,0.2
			c-0.9,0-1.9,0.3-2.9,0.4c-13,1.6-26.1,2.5-39.1,3.5c-0.7,0.1-1.3,0.1-2,0.2c-1,0,0.1,0.2,0.3,0.4c-1-1.1-1.6-3.3-2.2-4.6
			c-3-6.3-6-12.6-9-18.9c-2.2-4.7-5.5-9.7-7-14.7c0.3,0.9-0.1-2-0.1-2.5c-0.2-2-0.4-3.9-0.5-5.9c-0.3-2.9-0.5-5.9-0.8-8.8
			C12.4,7.4,10.4,7.4,10.6,8.6z"/>
	</g>
</g>
<g>
	<g>
		<path class="st2" d="M11.1,7.8C9,8.7,7,9.5,5,10.4c-0.3,0.1-0.5,0.5-0.5,0.9c0.3,5.1-0.4,11.4,1,16.4c1.1,4,3.9,8.1,5.8,11.8
			C16.9,50.9,22.4,62.3,28,73.7c0.1,0.3,0.5,0.5,0.9,0.5c10.5-0.6,21-1.4,31.5-2.3c4.4-0.4,10.7,0.1,14.9-1.7
			c3.1-1.3,2.7-7.1,2.9-10.1c0.1-1.3-1.9-1.3-2,0c-0.2,2.1-0.1,4.5-0.7,6.4c-0.7,2.4-2.1,2-4.6,2.3c-5.4,0.7-10.9,1.1-16.4,1.5
			c-5.9,0.5-11.8,0.9-17.7,1.3c-1.8,0.1-3.7,0.2-5.5,0.4c-1.4,0.1-2.6-0.4-1.6,0.6c-1.4-1.4-2.2-4.6-3.1-6.3
			c-2.3-4.6-4.5-9.3-6.8-13.9c-4-8.2-8.4-16.2-12-24.6c-0.7-1.5-0.3-0.2-0.4-1.5c-0.3-2.6-0.3-5.4-0.4-8c-0.1-1.6-1-5.4-0.4-6.9
			c-0.6,1.4,1.7-0.2,2.5-0.5c1-0.4,2-0.9,3-1.3C13.2,9,12.2,7.3,11.1,7.8L11.1,7.8z"/>
	</g>
</g>
<g>
	<g>
		<path class="st2" d="M14.3,12.6c0.5,3.3,1,6.5,1.5,9.8c0.1,0.6,0.7,0.8,1.2,0.7c11.4-1.6,22.7-3.1,34.1-4.7c0.4-0.1,0.7-0.6,0.7-1
			c0-3.2,0.1-6.3,0.1-9.5c0-0.5-0.5-1.1-1-1C39,8.3,27.1,9.8,15.2,11.2c-1.3,0.2-1.3,2.2,0,2c12-1.3,23.9-2.8,35.8-4.2
			c-0.3-0.3-0.7-0.7-1-1c0,1.7,0,3.5-0.1,5.2c0,1.1-0.2,2.4,0,3.5c0.2,1.2,0.6-0.2,0.5-0.2c-3.3,0.7-6.8,0.9-10.1,1.4
			c-7.9,1.1-15.9,2.2-23.8,3.3c0.4,0.2,0.8,0.5,1.2,0.7c-0.5-3.3-1-6.5-1.5-9.8C16,10.8,14.1,11.3,14.3,12.6z"/>
	</g>
</g>
<g>
	<g>
		<path class="st2" d="M34.1,61.9c12.3-1.2,24.7-2.3,37-3.5c0.7-0.1,1.3-0.8,0.9-1.5C66.5,47,61,37,55.6,27
			c-0.2-0.4-0.7-0.5-1.1-0.5c-11,1.7-22,3.5-33,5.2c-0.7,0.1-0.8,0.9-0.6,1.5C25,42.6,29.2,52,33.3,61.4c0.5,1.2,2.2,0.2,1.7-1
			c-4.1-9.4-8.3-18.8-12.4-28.2c-0.2,0.5-0.4,1-0.6,1.5c5.5-0.9,11-1.7,16.5-2.6c3.7-0.6,7.4-1.2,11.2-1.8c1.2-0.2,2.7-0.2,3.9-0.6
			c1.8-0.6,1.1,0.5,0.4-0.7c6.1,9.5,11,20,16.4,29.9c0.3-0.5,0.6-1,0.9-1.5c-12.3,1.2-24.7,2.3-37,3.5
			C32.8,60.1,32.8,62.1,34.1,61.9z"/>
	</g>
</g>
<g>
	<g>
		<path class="st2" d="M29.6,31.9c4.6,9.3,9.3,18.7,13.9,28c0.6,1.2,2.3,0.1,1.7-1c-4.6-9.3-9.3-18.7-13.9-28
			C30.7,29.7,29,30.7,29.6,31.9L29.6,31.9z"/>
	</g>
</g>
<g>
	<g>
		<path class="st2" d="M39.3,30.3c4.6,9.6,9.1,19.2,13.7,28.9c0.6,1.2,2.3,0.1,1.7-1C50.1,48.6,45.6,39,41,29.3
			C40.5,28.2,38.8,29.2,39.3,30.3L39.3,30.3z"/>
	</g>
</g>
<g>
	<g>
		<path class="st2" d="M48.3,29.3c4.3,9.4,8.6,18.8,12.9,28.2c0.5,1.2,2.3,0.2,1.7-1c-4.3-9.4-8.6-18.8-12.9-28.2
			C49.5,27.1,47.8,28.1,48.3,29.3L48.3,29.3z"/>
	</g>
</g>
<g>
	<g>
		<path class="st2" d="M26.7,40.5c10.7-1.6,21.5-3.2,32.2-4.8c1.3-0.2,0.7-2.1-0.5-1.9c-10.7,1.6-21.5,3.2-32.2,4.8
			C24.9,38.8,25.5,40.7,26.7,40.5L26.7,40.5z"/>
	</g>
</g>
<g>
	<g>
		<path class="st2" d="M29.6,47.2c10.3-1.3,20.7-2.6,31-4c1.3-0.2,1.3-2.2,0-2c-10.3,1.3-20.7,2.6-31,4
			C28.3,45.4,28.3,47.4,29.6,47.2L29.6,47.2z"/>
	</g>
</g>
<g>
	<g>
		<path class="st2" d="M32.8,54.7c10.8-1,21.6-2,32.4-2.9c1.3-0.1,1.3-2.1,0-2c-10.8,1-21.6,2-32.4,2.9
			C31.5,52.9,31.5,54.9,32.8,54.7L32.8,54.7z"/>
	</g>
</g>
<g>
	<g>
		<path class="st2" d="M47,23.4c0.9,0.1,1.8,0.5,2.6,0.9c1.1,0.7,2.1-1.1,1-1.7c-1.1-0.7-2.3-1-3.6-1.2c-0.5-0.1-1,0.5-1,1
			C46,23,46.4,23.4,47,23.4L47,23.4z"/>
	</g>
</g>
</svg>
