<?xml version="1.0" encoding="utf-8"?>
<!-- Generator: Adobe Illustrator 22.1.0, SVG Export Plug-In . SVG Version: 6.00 Build 0)  -->
<svg version="1.1" id="Capa_1" xmlns="http://www.w3.org/2000/svg" xmlns:xlink="http://www.w3.org/1999/xlink" x="0px" y="0px"
	 viewBox="0 0 80 80" style="enable-background:new 0 0 80 80;" xml:space="preserve">
<style type="text/css">
	.st0{fill:#5ABFED;}
	.st1{fill:#FFD16A;}
	.st2{fill:none;stroke:#222221;stroke-width:2;stroke-miterlimit:10;}
	.st3{fill:#222221;}
</style>
<path class="st0" d="M12.2,68.9c0.7,4.3,9.3,4.4,16.9,5.5s23.4,1.9,26.3,1.9s3.4-5.1,3.4-5.1s8.6,1,9.2-2.4
	c0.6-3.5-1.9-37.6-4.2-38.4c-13.6-5.4-29.5-5.1-40.6-6.6C17.3,23,9.3,22.2,8.6,26.2C6.6,39.3,10.5,58.2,12.2,68.9z"/>
<path class="st1" d="M30.8,33.5c0.3,0,0.1,1.9,0.5,2.5c0,0,3,0.4,3.4,0.4c0-0.1,0-2.8,0-2.9C33.9,33.6,31.4,33.5,30.8,33.5z"/>
<path class="st2" d="M62.9,70.6c0,0,7.9-1,7.9-2.9s-4-37.8-4-37.8s2.1-1.8-23.8-5.8c-1.7-0.3-3.5-0.5-5-0.7"/>
<path class="st1" d="M28.4,23.9c0.6,0,1.1-0.1,1.7-0.1c0,0.6,0,1.1,0.1,1.6c0.6,0,1.2-0.1,1.8-0.1c0,0.6,0.1,1.1,0.1,1.7
	c1.8-0.1,3.6-0.2,5.3-0.2c0,0.6,0.1,1.2,0.1,1.8c0.6,0,1.1,0,1.6-0.1c0.1,2.7,0.2,5.4,0.4,8.1c1.2,0.2,2.5,0.3,3.7,0.5
	c-0.1-2.3-0.2-4.6-0.3-7c1.1-0.1,2.4-0.1,3.6-0.2c0,0.6,0.1,1.2,0.1,1.7c0.5,0,1.1,0,1.6-0.1c0.1,2.1,0.2,4.1,0.3,6.3
	c1.8,0.3,3.7,0.6,5.4,1c-0.1-2.5-0.2-5-0.3-7.5c-0.6,0-1.1,0.1-1.7,0.1c-0.1-1.2-0.1-2.3-0.2-3.5c-0.6,0-1.1,0.1-1.7,0.1
	c0-0.6-0.1-1.2-0.1-1.8c-1.2,0.1-2.4,0.1-3.5,0.2c0-0.6-0.1-1.2-0.1-1.8c-1.2,0.1-2.4,0.1-3.5,0.2c-0.2-4.1-0.4-8-0.5-12
	c1.2-0.1,2.4-0.1,3.6-0.2c0,0.5,0,1.1,0.1,1.6c0.6,0,1.1-0.1,1.7-0.1c0.1,1.2,0.1,2.3,0.2,3.4c1.8-0.1,3.6-0.2,5.3-0.2
	c-0.4-1.6-0.4-3.3-0.5-5c-0.6,0-1.1,0.1-1.8,0.1c0-0.6-0.1-1.1-0.1-1.8c-0.6,0-1.2,0.1-1.8,0.1c0-0.6-0.1-1.2-0.1-1.8
	C48.5,9,48,9,47.3,9c0-0.6-0.1-1.1-0.1-1.7c-1.7,0.1-3.5,0.2-5.3,0.2c-0.1-1.7-0.2-3.4-0.2-5.1c-1.2,0.1-2.4,0.1-3.6,0.2
	c0.1,1.7,0.2,3.4,0.2,5.2C36.5,7.9,34.9,8,33,8c0,0.6,0.1,1.1,0.1,1.8c-0.6,0-1.2,0.1-1.8,0.1c0,0.6,0.1,1.2,0.1,1.7
	c-0.6,0-1.1,0.1-1.7,0.1c0,0.6,0.1,1.1,0.1,1.7c-0.6,0-1.1,0.1-1.7,0.1C28.1,17,28.3,20.4,28.4,23.9z M32.7,13.2
	c1.1-0.1,2.2-0.1,3.5-0.2c0.2,3.4,0.3,6.9,0.5,10.3c-1.1,0.1-2.2,0.1-3.4,0.2c0-0.6-0.1-1.1-0.1-1.7c-0.6,0-1.2,0.1-1.8,0.1
	c-0.1-2.4-0.2-4.7-0.3-7c0.6,0,1.1-0.1,1.7-0.1C32.8,14.2,32.8,13.7,32.7,13.2z"/>
<g>
	<g>
		<path class="st3" d="M26.9,21.6C21.7,21.9,15.2,22,11.3,26c-2.2,2.4-1.8,5.5-1.7,8.6c0.2,6.8,1.1,13.5,2.1,20.2
			c0.5,3.6,0.5,9.7,2.9,12.7c2.5,3.1,8.5,4.2,12.1,5.1c6.5,1.6,13.2,2.7,19.8,3.6c4.1,0.5,10,2,14.1,0.9c2.9-0.8,2.9-4.1,3.1-6.7
			c0.5-10.7-1.3-21.7-3-32.2c-0.1-0.4-0.6-0.7-1-0.7c-8.7,0.2-17.5-0.9-26.1-2c-1.9-0.2-24.4-3.2-20.2-8.5c0.8-1-0.6-2.4-1.4-1.4
			c-6.9,8.8,18.7,11.6,21.7,11.9c5.5,0.7,11,1.2,16.6,1.6c2.2,0.2,8.4,0.5,8.9,0.7c-0.1,2.9,0.8,6.5,1.2,9.3
			c0.9,7,1.8,14.2,1.5,21.3c-0.1,2.2,0.1,4.1-2,4.8c-2.4,0.7-6.1-0.2-8.6-0.5c-8.3-0.8-16.6-2.1-24.6-4.3c-2.9-0.7-6.2-1.5-8.7-3.2
			c-2.2-1.5-2.2-3.9-2.7-6.4c-1.6-8.9-2.9-18.1-3.2-27.2c-0.1-2.5-0.4-4.8,1.4-6.6c3.4-3.4,9.5-3.3,13.9-3.5
			C28.2,23.5,28.2,21.5,26.9,21.6L26.9,21.6z"/>
	</g>
</g>
<g>
	<g>
		<path class="st3" d="M26.9,23.3c0.9,0,0.9-1.4,0-1.4S26,23.3,26.9,23.3L26.9,23.3z"/>
	</g>
</g>
<g>
	<g>
		<path class="st3" d="M33,23.6c0.9,0,0.9-1.4,0-1.4C32,22.1,32,23.6,33,23.6L33,23.6z"/>
	</g>
</g>
<g>
	<g>
		<path class="st3" d="M37.1,22.6c-1.3-0.2-2.8-0.3-4.1-0.4c-0.9-0.1-0.9,1.4,0,1.4c1.3,0.1,2.8,0.3,4.1,0.4
			C38,24.1,38,22.7,37.1,22.6L37.1,22.6z"/>
	</g>
</g>
<g>
	<g>
		<path class="st3" d="M48.7,51.4c4.2,0.3,8.3,0.6,12.5,0.9c-0.3-0.3-0.7-0.7-1-1c0.2,4.2,0.5,8.4,0.7,12.6c0.3-0.3,0.7-0.7,1-1
			c-4.1-0.3-8.2-0.6-12.3-0.9c0.3,0.3,0.7,0.7,1,1c-0.3-4.2-0.6-8.4-0.9-12.5c-0.1-1.3-2.1-1.3-2,0c0.3,4.2,0.6,8.4,0.9,12.5
			c0,0.6,0.4,1,1,1c4.1,0.3,8.2,0.6,12.3,0.9c0.5,0,1-0.5,1-1c-0.2-4.2-0.5-8.4-0.7-12.6c0-0.6-0.4-1-1-1c-4.2-0.3-8.3-0.6-12.5-0.9
			C47.3,49.3,47.3,51.3,48.7,51.4z"/>
	</g>
</g>
<path class="st2" d="M26.8,23.9c0.6,0,1.1-0.1,1.7-0.1c0,0.6,0,1.1,0.1,1.6c0.6,0,1.2-0.1,1.8-0.1c0,0.6,0.1,1.1,0.1,1.7
	c1.8-0.1,3.6-0.2,5.3-0.2c0,0.6,0.1,1.2,0.1,1.8c0.6,0,1.1,0,1.6-0.1c0.1,2.7,0.2,5.4,0.4,8.1c1.2,0.2,2.5,0.3,3.7,0.5
	c-0.1-2.3-0.2-4.6-0.3-7c1.1-0.1,2.4-0.1,3.6-0.2c0,0.6,0.1,1.2,0.1,1.7c0.5,0,1.1,0,1.6-0.1c0.1,2.1,0.2,4.1,0.3,6.3
	c1.8,0.3,3,0,5.2,0c-0.1-2.5,0-4.1-0.1-6.6c-0.6,0-1.1,0.1-1.7,0.1c-0.1-1.2-0.1-2.3-0.2-3.5c-0.6,0-1.1,0.1-1.7,0.1
	c0-0.6-0.1-1.2-0.1-1.8c-1.2,0.1-2.4,0.1-3.5,0.2c0-0.6-0.1-1.2-0.1-1.8c-1.2,0.1-2.4,0.1-3.5,0.2c-0.2-4.1-0.4-8-0.5-12
	c1.2-0.1,2.4-0.1,3.6-0.2c0,0.5,0,1.1,0.1,1.6c0.6,0,1.1-0.1,1.7-0.1c0.1,1.2,0.1,2.3,0.2,3.4c1.8-0.1,3.6-0.2,5.3-0.2
	c-0.1-1.7-0.2-3.4-0.2-5.1c-0.6,0-1.1,0.1-1.8,0.1c0-0.6-0.1-1.1-0.1-1.8c-0.6,0-1.2,0.1-1.8,0.1c0-0.6-0.1-1.2-0.1-1.8
	C46.8,9,46.2,9,45.6,9c0-0.6-0.1-1.1-0.1-1.7c-1.7,0.1-3.5,0.2-5.3,0.2C40.1,5.8,40,4.1,40,2.4c-1.2,0.1-2.4,0.1-3.6,0.2
	c0.1,1.7,0.2,3.4,0.2,5.1c-1.8,0.1-3.5,0.2-5.3,0.2c0,0.6,0.1,1.1,0.1,1.8c-0.6,0-1.2,0.1-1.8,0.1c0,0.6,0.1,1.2,0.1,1.7
	c-0.6,0-1.1,0.1-1.7,0.1c0,0.6,0.1,1.1,0.1,1.7c-0.6,0-1.1,0.1-1.7,0.1C26.5,17,26.7,20.4,26.8,23.9z M33.4,13.2
	c1.1-0.1,2.2-0.1,3.5-0.2c0.2,3.4,0.3,6.9,0.5,10.3c-1.1,0.1-2.2,0.1-3.4,0.2c0-0.6-0.1-1.1-0.1-1.7c-0.6,0-1.2,0.1-1.8,0.1
	c-0.1-2.4-0.2-4.7-0.3-7c0.6,0,1.1-0.1,1.7-0.1C33.4,14.2,33.4,13.7,33.4,13.2z"/>
<g>
	<g>
		<path class="st3" d="M29.6,34.5c-0.6-0.3-0.3-0.4-0.3,0c0,0.2,0,0.3,0,0.5c0,0.4,0,0.7,0.1,1.1c0.1,0.6,0.4,0.8,1,0.9
			c1,0.1,2.1,0.3,3.2,0.4c0.4,0,0.7-0.4,0.7-0.7c0-1,0-1.9,0-2.9c0-0.4-0.3-0.7-0.7-0.7c-1.2,0-2.6-0.1-3.8,0c-0.9,0-0.9,1.5,0,1.4
			c1.2,0,2.6,0.1,3.8,0c-0.2-0.2-0.5-0.5-0.7-0.7c0,1,0,1.9,0,2.9c0.2-0.2,0.5-0.5,0.7-0.7c-1.1-0.1-2.2-0.3-3.4-0.4
			c0.2,0.1,0.4,0.2,0.6,0.4c-0.4-0.9,0.2-2.3-0.9-2.8C29.1,32.8,28.6,34.2,29.6,34.5z"/>
	</g>
</g>
<g>
	<g>
		<path class="st3" d="M18.2,60.7c1,2,2.7,3.6,4.6,4.7c1.1,0.6,2.1-1.1,1-1.7c-1.7-0.9-3.1-2.3-3.9-4C19.3,58.6,17.6,59.6,18.2,60.7
			L18.2,60.7z"/>
	</g>
</g>
</svg>
