<?xml version="1.0" encoding="utf-8"?>
<!-- Generator: Adobe Illustrator 22.1.0, SVG Export Plug-In . SVG Version: 6.00 Build 0)  -->
<svg version="1.1" id="Capa_1" xmlns="http://www.w3.org/2000/svg" xmlns:xlink="http://www.w3.org/1999/xlink" x="0px" y="0px"
	 viewBox="0 0 140 140" style="enable-background:new 0 0 140 140;" xml:space="preserve">
<style type="text/css">
	.st0{opacity:0.5;fill:#DAE6EA;}
	.st1{fill-rule:evenodd;clip-rule:evenodd;fill:#5ABEEC;}
	.st2{fill:#5ABFED;}
	.st3{fill:#FFD16A;}
	.st4{fill:#0B1C30;}
</style>
<path class="st0" d="M38.5,134.8C7.6,130.9,22.3,107.7,10,80.7c-14.2-31,17.5-71.3,67.5-67.8C99.4,14.4,121,34.3,129,58
	c5.5,16.4,3.4,39.3-5.4,39.7c-14.7,0.7-21.1,14.7-31.4,22.7C71.8,136.3,59.9,137.4,38.5,134.8z"/>
<g>
	<g>
		<g>
			<path class="st1" d="M24,127.5l9.3-55c0,0-5.2-13.3-4.8-20.8C28.7,48.3,8.3,35.4,18,27s19.7,12.3,19.7,12.3L67.1,25
				C86,17.5,90.4-1.2,99.7,5.7c6.6,5-8.4,24.9-8.4,24.9s4.3-2.3,9.7-5.2c5.5-3,11.1-7.4,13.6-4.6c9,9.9-16.2,22.5-16.2,22.5
				s7.5-1.9,13.3-3.5c7.1-2,8.3-3.2,11.1,1.8c7.2,13.2-34.2,29.2-34.2,29.2l2.9,62.7c0,0-24,5.5-39.7,2.8
				C36.8,133.8,24,127.5,24,127.5z"/>
		</g>
		<g>
			<path class="st2" d="M24,127.5l9.3-55c0,0-5.2-13.3-4.8-20.8C28.7,48.3,8.3,35.4,18,27s19.7,12.3,19.7,12.3L67.1,25
				C86,17.5,90.4-1.2,99.7,5.7c6.6,5-8.4,24.9-8.4,24.9s4.3-2.3,9.7-5.2c5.5-3,11.1-7.4,13.6-4.6c9,9.9-16.2,22.5-16.2,22.5
				s7.5-1.9,13.3-3.5c7.1-2,8.3-3.2,11.1,1.8c7.2,13.2-34.2,29.2-34.2,29.2l2.9,62.7c0,0-24,5.5-39.7,2.8
				C36.8,133.8,24,127.5,24,127.5z"/>
		</g>
	</g>
	<path class="st3" d="M40.3,22.3v16.1l18.3,6L86.3,40l-1.9-16l-13.9-4.8c0,0-4.7-1.3-8.9-1.7c-6.5-0.6-6,2.7-6,2.7L40.3,22.3z"/>
	<g>
		<path class="st4" d="M121.8,36c-3-0.9-6.8,0.9-9.6,1.6c-0.9,0.3-1.8,0.5-2.7,0.7c4.5-2.8,8.7-6.6,9.1-11.2c0.4-4-2.7-8-6.8-7.8
			c-4.9,0.3-9.9,3.5-14.5,6.3c4.1-5.8,8.9-14.4,5.1-19.5c-2.6-3.4-7-3.5-10.3-1.3c-2.5,1.7-4.5,4-6.6,6.1c-3.6,3.6-7.6,6.9-12.1,9.5
			c-1.5-0.5-3.2-1.1-4.7-1.3c0,0,0-0.1,0-0.1c0.1-0.2,0.1-0.3,0-0.6c0-0.1,0-0.1-0.1-0.2c0-0.1,0-0.1-0.1-0.2
			c-1.2-2.4-6.4-2.1-8.5-2.1c-1.6,0-7.6-0.1-7.6,2.7c0,0.2,0,0.4,0.1,0.5c0,0.8,0,1.5,0,2.3c-4,0.6-8.1,1.3-12.1,1.9c0,0,0,0,0,0
			c-0.4-0.1-0.7,0-0.9,0.2c0,0-0.1,0.1-0.1,0.1c0,0,0,0-0.1,0.1c-0.1,0.2-0.2,0.4-0.2,0.6c0,0.1,0,0.1,0,0.2c0,3.1,0,6.2,0,9.3
			c-0.1,0-0.1,0-0.2,0.1c-0.5,0.3-1.1,0.5-1.6,0.8C34,28.8,27,21.1,19.6,25c-10.8,5.4-2.4,16.7,2.5,23c1.5,2,2.8,3.3,3,5.7
			c0.2,2.8,0.2,5.4,0.9,8.2c0.7,3.1,1.8,6.1,2.9,9c0.3,0.7,0.6,1.4,0.9,2.2c0.2,0.6,0.3,0.8,0.3,0.6c0,2.4-1,5.3-1.4,7.7
			c-0.9,5.1-1.8,10.2-2.7,15.2c-1.5,8.5-3,16.9-4.5,25.4c-0.3,1.2,1.6,1.8,1.9,0.5c2.6-14.7,5.2-29.3,7.9-44c0.3-1.5,1-3.4,0.9-4.9
			c-0.2-3.3-2.8-7.2-3.7-10.4c-1-3.4-1-6.5-1.2-10c-0.1-1-0.2-1.6-0.7-2.5c-2-4-5.8-7.1-8-11c-1.5-2.5-3-5.7-2.1-8.6
			c1.3-4.4,6.4-6.4,10.4-4.5c4.1,1.8,7.2,6.1,9.3,10c0.3,0.5,0.9,0.6,1.4,0.4c0.5-0.3,1.1-0.6,1.7-0.9c0,1,0,2,0,3
			c0,0.5,0.3,0.8,0.7,1c6.2,1.9,12.4,3.9,18.5,5.8c0.2,0.1,0.4,0,0.6,0c8.8-1.7,17.5-3.3,26.3-5c0.4-0.1,0.8-0.6,0.7-1
			c-0.3-5.2-0.7-10.3-1-15.5c0-0.6-0.5-1-1.1-1c-2.8-0.8-5.4-1.5-8.2-2.3c4.7-2.9,8.6-6.5,12.5-10.4c2.9-2.9,10-9.3,12.7-2.4
			c2.2,5.9-4.7,15.1-8.2,19.8c-1.7,0.7-3.4,1.5-5.2,2.1c-1.2,0.5-0.2,2.2,1,1.7c1.6-0.6,3.2-1.4,4.9-2c0.2,0,0.3,0,0.4-0.1
			c4.3-2.2,8.5-4.8,12.8-6.8c3.6-1.7,8.8-2.3,9.6,2.7c0.4,2.3-0.9,4.3-2.3,5.9c-3.6,4.2-9,7.1-14,9.2c0,0,0,0,0,0
			c-0.1,0-0.2,0-0.3,0.1c-2.3,1-4.6,2-6.9,3.1c-1.2,0.5-0.2,2.2,1,1.7c2.3-1,4.6-2,6.9-3.1c0,0,0.1,0,0.1,0c0.1,0,0.3-0.1,0.4-0.1
			c0,0,0,0,0,0c4.1-1,8.1-2,12.2-3.2c4.8-1.3,9.7-2.9,11.3,3.4c1.6,6.4-5.2,12.2-9.6,15.7c-8.4,6.8-18.4,12.1-28.4,16.4
			c-0.3,0.1-0.5,0.6-0.5,0.9c1.3,17.9,2.7,35.7,4,53.6c0.1,1.3,2.1,1.3,2,0c-0.6-7.9-1.2-15.9-1.8-23.8C89.7,96,89.7,86,88.3,76.6
			c0-0.1,0-0.1,0-0.2c1.1-0.6,2.4-1.1,3.5-1.6c4.4-2.1,8.8-4.4,13.1-7c7.7-4.6,20.2-11.7,21.9-21.6C127.4,42.6,125.6,37.1,121.8,36z
			 M66.6,18.6c-1.7,1.5-11.8,0.4-11.8,0C54.8,18.2,64.9,17.1,66.6,18.6z M54.5,22.7c0-0.1,0-0.2,0-0.4c0-0.5,0-1,0-1.6
			c1.7,0.6,4.1,0.6,5,0.7c1.6,0.1,5,0.3,7.2-0.6c0,0.4,0,0.9,0,1.3c0,0.2,0,0.5-0.1,0.7c-0.3,0.1-0.6,0.3-0.7,0.3
			C62.3,24.2,58.1,24,54.5,22.7C54.5,22.7,54.5,22.7,54.5,22.7z M57.8,36.2c0,2.4,0.1,4.9,0.1,7.4c-2.2-0.7-4.3-1.3-6.4-2
			c-2.9-0.9-10-3.2-10-3.3c0-1.3,0-3.3,0-4.4c0-2.7,0-5.5,0-8.2c2.1,0.6,4.1,1.1,6.2,1.8c2,0.6,10,2.7,10,2.9
			C57.8,30.4,57.7,34.5,57.8,36.2z M84.2,39.2c-0.8,0.2-1.7,0.2-2.5,0.4c-7.3,1.4-14.6,2.7-21.9,4.2c-0.1-4.4-0.1-8.9-0.2-13.3
			c7.9-1.6,15.7-3.2,23.6-4.8C83.4,29,84.2,39.1,84.2,39.2z M58.6,28.5c-4.5-1.3-9.1-2.5-13.6-3.8c2.5-0.4,5.1-0.8,7.6-1.2
			c0,0,0,0,0,0c0,0.5,0.3,0.8,0.7,1c4.3,1.8,10.7,2.1,14.9-0.1c0.3-0.2,0.5-0.5,0.5-0.9c0-0.8,0-1.6,0-2.4c2.1,0.2,5,1.5,6.9,2
			c1.3,0.4,2.6,0.8,4,1.2C72.6,25.6,65.6,27.1,58.6,28.5z"/>
		<path class="st4" d="M57.7,30.4C57.7,30.4,57.7,30.5,57.7,30.4C57.7,30.5,57.7,30.4,57.7,30.4C57.7,30.4,57.7,30.4,57.7,30.4z"/>
	</g>
</g>
</svg>
