<?xml version="1.0" encoding="utf-8"?>
<!-- Generator: Adobe Illustrator 22.1.0, SVG Export Plug-In . SVG Version: 6.00 Build 0)  -->
<svg version="1.1" id="Capa_1" xmlns="http://www.w3.org/2000/svg" xmlns:xlink="http://www.w3.org/1999/xlink" x="0px" y="0px"
	 viewBox="0 0 140 140" style="enable-background:new 0 0 140 140;" xml:space="preserve">
<style type="text/css">
	.st0{opacity:0.5;fill:#DAE6EA;}
	.st1{fill-rule:evenodd;clip-rule:evenodd;fill:#5ABEEC;}
	.st2{fill:#FFD16A;}
	.st3{fill:#0B1C30;}
</style>
<path class="st0" d="M65.6,16.3C88.3-9.2,147.6,31,130,77.9c-9,24.1-28.5,9.7-45.7,27.8c-12.8,13.4-43,29.2-60.1,9.3
	c-9-10.5-18.5-28.3-17.9-42.1C9,17.3,34.1,51.8,65.6,16.3z"/>
<g>
	<path class="st1" d="M30.5,6.6l4.6,50.1c0,0-15.4,6.4-9.6,18.9s18.8,8.5,18.8,8.5s5.3,53.4,17.1,53.4c11.8,0.1,11.8-13.8,11.8-13.8
		l1.2-12.9c0,0,4.3,25.3,10.5,25c6.1-0.2,11.7,4.4,12.8-13.7C98.8,104,98,80.5,98,80.5s16.1,1.8,19-10.1s-2.4-18-6.8-19.7l3.4-45.6
		c0,0-16.2-4.1-40.4-2.2C62.4,3.9,30.5,6.6,30.5,6.6z"/>
</g>
<path class="st2" d="M91.3,52.7L77.5,48c0,0-0.8-4.6-11.2-3.5c-4.2,0.4-3.7,4.5-3.7,4.5l-15.1,2v12.2c0.4-0.3,0.9-0.5,1.5-0.5
	c4.2,0,8.8-0.3,12.3,2.4c2.1,1.6,3.7,4.8,3.1,7.4l1.3,0.4l9.9-1.5c-1.3-2.2-2-3.8-1.6-6.4c0.3-2.2,1.6-4,3.4-5.2
	c3.9-2.4,10.1-2.8,14.5-1.8L91.3,52.7z"/>
<g>
	<path class="st3" d="M66.3,57.8C66.3,57.8,66.3,57.8,66.3,57.8C66.3,57.8,66.3,57.9,66.3,57.8C66.3,57.9,66.3,57.8,66.3,57.8z"/>
	<path class="st3" d="M106.8,48.4C106.8,48.4,106.8,48.4,106.8,48.4c0-0.4,0.1-0.9,0.1-1.2c0.4-2.2,0.4-4.6,0.6-6.9
		c1.1-11.9,2.1-23.8,3.2-35.6c0.1-1.3-1.9-1.3-2,0c-1.3,14.8-2.7,29.5-4,44.3c0,0.3,0.2,0.7,0.5,0.9c4.2,2.5,8.9,6.4,10.1,11.3
		c1.6,6.8-1.8,15.8-8.9,17.9C100.3,80.9,93,78.9,87,77c-3.7-1.1-9.1-2.9-11.4-6.4c0-0.2-0.2-0.3-0.3-0.5c0-0.1-0.1-0.1-0.1-0.2
		c-2.3-4.6,1-9.4,5.5-10.6c3.7-1,7.9-0.7,11.9,0.1c0.2,0.1,0.4,0.1,0.6,0.1c1.4,0.3,2.8,0.7,4.1,1c1.4,0.4,1.9-1.5,0.7-1.9
		c-1.2-0.4-2.5-0.7-4-1c-0.1-1.8-0.3-3.7-0.4-5.6c0-0.2,0-0.4-0.1-0.5c-0.2-0.5-0.7-0.7-1.2-0.7c0,0,0,0,0,0
		c-2.9-0.9-5.8-1.8-8.7-2.7c-2.2-0.7-4.1-1.5-6.2-1.6c0-0.1,0-0.2,0-0.3c0.1-0.2,0.1-0.3,0-0.6c-0.8-2.7-6.4-2.4-8.5-2.4
		c-1.7,0-7.6-0.2-7.5,2.8c0,0.1,0,0.1,0,0.2c0,0.1,0,0.1,0,0.2c0,0.8,0,1.6,0,2.4c-4,0.6-8.1,1.3-12.1,1.9c-0.2,0-0.4,0-0.5,0.1
		c-0.2,0.1-0.4,0.3-0.5,0.5c-0.1,0.1-0.1,0.3-0.1,0.4c0,3.4,0,6.9,0,10.3c-1.8,0.3-3.6,0.6-5.1,1.1c-1.2,0.3-0.7,2.3,0.5,1.9
		c1.7-0.5,3.5-0.9,5.3-1.2c0.3,0.1,0.5,0,0.8-0.1c3-0.3,6-0.3,8.7,0.7c2.9,1,4.9,3.7,5.3,6.6c0,0,0,0.1,0,0.1
		c0.2,1.8-0.2,3.7-1.4,5.3c-2.5,3.2-7.4,4.8-11,6c-6.8,2.2-14,3.4-20.7-0.3c-6.6-3.7-9.2-11.5-5.4-18.2c1.6-2.7,6.4-8.1,9.2-9.1
		c0.4-0.1,0.8-0.5,0.7-1c-1.9-14.6-3.8-29.1-5.6-43.7c-0.2-1.3-2.2-1.3-2,0c1.3,9.8,2.5,19.7,3.8,29.5c0.4,2.7,0.7,5.5,1.1,8.2
		c0.2,1.5,0.1,3.9,0.7,5.2c0,0.1,0,0.1,0.1,0.1c-0.1,0-0.2,0.1-0.4,0.2c-2.9,1.5-6,4.9-7.9,7.4c-4.3,5.5-4.7,13.5-0.1,19
		c4.4,5.4,11.9,7.3,18.7,6.5c1,13.5,2.6,27.8,7.2,40.5c1.6,4.5,4,10.7,9.5,11.2c11.5,1.1,12.7-11.8,13.5-20.4c0.1-0.5,0.1-1,0.1-1.6
		c0.8,5.7,1.5,16.2,7.2,19.4c7.7,4.4,13.6-1.7,15-8.8c1.4-7.4,1.6-15.2,2.3-22.7c0.6-7.4,1.3-14.9,1.8-22.3c2,0.1,3.9,0,5.8-0.4
		c7.4-1.6,11.7-8.9,11.9-16.2C118,56.8,112.5,53.3,106.8,48.4z M91.9,57.2c-6.4-1.1-14-1.1-17.5,4c-2.4,3.4-2.5,6.4-1.2,8.8
		c-1.6,0.3-3.1,0.6-4.6,0.8c-0.1-4.4-0.2-8.7-0.3-13.1c7.8-1.6,15.5-3.1,23.3-4.7C91.7,54.4,91.8,55.8,91.9,57.2z M64.3,45.7
		c0.7-0.2,1.4-0.3,2.1-0.3c1-0.1,2-0.1,3-0.1c0.8,0,4.8-0.1,5.8,0.6c-1.6,1-11,1.2-11.4,0.2C63.2,45.9,63.4,45.8,64.3,45.7z
		 M63.2,48.1c1.7,0.6,4,0.5,5.1,0.5c1.5,0,4.8,0.2,6.9-0.6c0,0,0,0.1,0.1,0.1c0,0.5,0,0.9,0,1.4c0,0.2,0,0.5-0.1,0.7
		c-0.3,0.1-0.6,0.3-0.7,0.3c-3.4,1-7.7,0.9-11.2-0.3c0.1-0.2,0-0.5-0.1-0.8C63.2,49,63.2,48.6,63.2,48.1z M61.3,50.9
		c0,0.4,0.3,0.7,0.7,0.9c4.3,1.8,10.6,2.1,14.8-0.1c0.3-0.2,0.5-0.5,0.5-0.9c0-0.8,0-1.6,0-2.5c0.4,0,0.6,0,1.5,0.4
		c1.7,0.5,3.4,1,5.1,1.6c1.4,0.5,2.8,0.9,4.3,1.3c-7,1.4-14,2.8-21,4.3c-4.5-1.3-8.9-2.5-13.4-3.8C56.3,51.7,58.8,51.3,61.3,50.9z
		 M50.1,62c0-2.9,0-5.8,0-8.7c2.1,0.6,4.2,1.2,6.3,1.7c2,0.6,9.9,2.8,9.9,2.8s0.1,10.5,0.1,12.9c-0.3-0.1-0.7-0.2-1-0.3
		C64.3,63,57,61.4,50.1,62z M96.3,101.9c-0.7,8.2-0.8,16.9-2.5,24.9c-0.6,2.6-1.5,5.7-4,7c-2.5,1.4-7,1-9-1.1
		c-3-3.1-3.7-9.4-4.5-13.5c-1.3-7.3-1.9-14.9-2.2-22.3c0-0.2-0.1-0.3-0.1-0.4c-0.2-3-0.4-5.9-0.7-8.9c0-1.3-2-1.3-1.9,0
		c0.9,9.3,1.1,18.8,0.4,28.1c-0.5,6-0.8,18.5-7.9,20.2c-4.6,1.1-7.1-0.9-9.2-4.8c-4.4-8.1-5.8-18.1-7.2-27.1
		c-0.9-5.9-1.6-12-2.1-17.9c7.5-1.4,19.9-4.7,20.2-13.6c0.6,0.2,1.1,0.3,1.7,0.5c0.2,0.1,0.4,0,0.6,0c2.2-0.4,4.4-0.8,6.5-1.2
		c3.9,4.7,12.7,7.4,17.6,8.6c2,0.5,4,0.9,6,1.1C97.5,88.3,96.9,95.1,96.3,101.9z"/>
</g>
</svg>
