<?xml version="1.0" encoding="utf-8"?>
<!-- Generator: Adobe Illustrator 22.1.0, SVG Export Plug-In . SVG Version: 6.00 Build 0)  -->
<svg version="1.1" id="Capa_1" xmlns="http://www.w3.org/2000/svg" xmlns:xlink="http://www.w3.org/1999/xlink" x="0px" y="0px"
	 viewBox="0 0 555 440" style="enable-background:new 0 0 555 440;" xml:space="preserve">
<style type="text/css">
	.st0{opacity:0.5;fill:#DAE6EA;enable-background:new    ;}
	.st1{clip-path:url(#SVGID_2_);}
	.st2{fill:#FFFFFF;}
	.st3{clip-path:url(#SVGID_4_);}
	.st4{clip-path:url(#SVGID_6_);}
	.st5{clip-path:url(#SVGID_8_);}
	.st6{clip-path:url(#SVGID_10_);}
	.st7{clip-path:url(#SVGID_12_);}
	.st8{clip-path:url(#SVGID_14_);}
	.st9{clip-path:url(#SVGID_16_);}
	.st10{clip-path:url(#SVGID_18_);}
	.st11{clip-path:url(#SVGID_20_);}
	.st12{clip-path:url(#SVGID_22_);}
	.st13{clip-path:url(#SVGID_24_);}
	.st14{clip-path:url(#SVGID_26_);}
	.st15{clip-path:url(#SVGID_28_);}
	.st16{clip-path:url(#SVGID_30_);}
	.st17{clip-path:url(#SVGID_32_);}
	.st18{clip-path:url(#SVGID_34_);}
	.st19{clip-path:url(#SVGID_36_);}
	.st20{clip-path:url(#SVGID_38_);}
	.st21{clip-path:url(#SVGID_40_);}
	.st22{clip-path:url(#SVGID_42_);}
	.st23{clip-path:url(#SVGID_44_);}
	.st24{clip-path:url(#SVGID_46_);}
	.st25{clip-path:url(#SVGID_48_);}
	.st26{clip-path:url(#SVGID_50_);}
	.st27{clip-path:url(#SVGID_52_);}
	.st28{clip-path:url(#SVGID_54_);}
	.st29{clip-path:url(#SVGID_56_);}
	.st30{clip-path:url(#SVGID_58_);}
	.st31{clip-path:url(#SVGID_60_);}
	.st32{clip-path:url(#SVGID_62_);}
	.st33{clip-path:url(#SVGID_64_);}
	.st34{clip-path:url(#SVGID_66_);}
	.st35{clip-path:url(#SVGID_68_);}
	.st36{clip-path:url(#SVGID_70_);}
	.st37{clip-path:url(#SVGID_72_);}
	.st38{clip-path:url(#SVGID_74_);}
	.st39{clip-path:url(#SVGID_76_);}
	.st40{clip-path:url(#SVGID_78_);}
	.st41{clip-path:url(#SVGID_80_);}
	.st42{clip-path:url(#SVGID_82_);}
	.st43{clip-path:url(#SVGID_84_);}
	.st44{clip-path:url(#SVGID_86_);}
	.st45{clip-path:url(#SVGID_88_);}
	.st46{clip-path:url(#SVGID_90_);}
	.st47{clip-path:url(#SVGID_92_);}
	.st48{clip-path:url(#SVGID_94_);}
	.st49{clip-path:url(#SVGID_96_);}
	.st50{clip-path:url(#SVGID_98_);}
	.st51{clip-path:url(#SVGID_100_);}
	.st52{clip-path:url(#SVGID_102_);}
	.st53{clip-path:url(#SVGID_104_);}
	.st54{clip-path:url(#SVGID_106_);}
	.st55{clip-path:url(#SVGID_108_);}
	.st56{clip-path:url(#SVGID_110_);}
	.st57{clip-path:url(#SVGID_112_);}
	.st58{clip-path:url(#SVGID_114_);}
	.st59{clip-path:url(#SVGID_116_);}
	.st60{clip-path:url(#SVGID_118_);}
	.st61{clip-path:url(#SVGID_120_);}
	.st62{clip-path:url(#SVGID_122_);}
	.st63{clip-path:url(#SVGID_124_);}
	.st64{clip-path:url(#SVGID_126_);}
	.st65{clip-path:url(#SVGID_128_);}
	.st66{clip-path:url(#SVGID_130_);}
	.st67{clip-path:url(#SVGID_132_);}
	.st68{clip-path:url(#SVGID_134_);}
	.st69{clip-path:url(#SVGID_136_);}
	.st70{clip-path:url(#SVGID_138_);}
	.st71{clip-path:url(#SVGID_140_);}
	.st72{clip-path:url(#SVGID_142_);}
	.st73{clip-path:url(#SVGID_144_);}
	.st74{clip-path:url(#SVGID_146_);}
	.st75{clip-path:url(#SVGID_148_);}
	.st76{clip-path:url(#SVGID_150_);}
	.st77{clip-path:url(#SVGID_152_);}
	.st78{clip-path:url(#SVGID_154_);}
	.st79{clip-path:url(#SVGID_156_);}
	.st80{clip-path:url(#SVGID_158_);}
	.st81{clip-path:url(#SVGID_160_);}
	.st82{clip-path:url(#SVGID_162_);}
	.st83{clip-path:url(#SVGID_164_);}
	.st84{clip-path:url(#SVGID_166_);}
	.st85{clip-path:url(#SVGID_168_);}
	.st86{clip-path:url(#SVGID_170_);}
	.st87{clip-path:url(#SVGID_172_);}
	.st88{clip-path:url(#SVGID_174_);}
	.st89{clip-path:url(#SVGID_176_);}
	.st90{clip-path:url(#SVGID_178_);}
</style>
<path class="st0" d="M535,145.1c-3.7,71.2-118,41.6-118,98.2c0,146.1-104.4,185.3-183.5,185.3c-41.7,0-199.2,8.1-211.8-53
	c-4.3-20.9-2-43.4,10.5-61.3c9.9-14.3,24.9-24.4,39.1-34c26.1-17.6,56.2-36.5,54-72.2c-0.1-1.1-0.2-2.2-0.3-3.3
	C112.4,91.5,175,15.6,289,11.6C405,7.6,541.3,25.1,535,145.1z"/>
<g>
	<g>
		<defs>
			<path id="SVGID_1_" d="M535,145.1c-3.7,71.2-118,41.6-118,98.2c0,146.1-104.4,185.3-183.5,185.3c-41.7,0-199.2,8.1-211.8-53
				c-4.3-20.9-2-43.4,10.5-61.3c9.9-14.3,24.9-24.4,39.1-34c26.1-17.6,56.2-36.5,54-72.2c-0.1-1.1-0.2-2.2-0.3-3.3
				C112.4,91.5,175,15.6,289,11.6C405,7.6,541.3,25.1,535,145.1z"/>
		</defs>
		<clipPath id="SVGID_2_">
			<use xlink:href="#SVGID_1_"  style="overflow:visible;"/>
		</clipPath>
		<g class="st1">
			<g>
				<path class="st2" d="M12.5,316.5c59.9,0,119.9,0,179.8,0c23.3,0,46.7,0,70,0c1.6,0,1.6-2.5,0-2.5c-59.9,0-119.9,0-179.8,0
					c-23.3,0-46.7,0-70,0C10.9,314,10.9,316.5,12.5,316.5L12.5,316.5z"/>
			</g>
		</g>
	</g>
	<g>
		<defs>
			<path id="SVGID_3_" d="M535,145.1c-3.7,71.2-118,41.6-118,98.2c0,146.1-104.4,185.3-183.5,185.3c-41.7,0-199.2,8.1-211.8-53
				c-4.3-20.9-2-43.4,10.5-61.3c9.9-14.3,24.9-24.4,39.1-34c26.1-17.6,56.2-36.5,54-72.2c-0.1-1.1-0.2-2.2-0.3-3.3
				C112.4,91.5,175,15.6,289,11.6C405,7.6,541.3,25.1,535,145.1z"/>
		</defs>
		<clipPath id="SVGID_4_">
			<use xlink:href="#SVGID_3_"  style="overflow:visible;"/>
		</clipPath>
		<g class="st3">
			<g>
				<path class="st2" d="M184.6,29.9c0,56,0,112,0,168c0,1.6,2.5,1.6,2.5,0c0-56,0-112,0-168C187.1,28.3,184.6,28.3,184.6,29.9
					L184.6,29.9z"/>
			</g>
		</g>
	</g>
	<g>
		<defs>
			<path id="SVGID_5_" d="M535,145.1c-3.7,71.2-118,41.6-118,98.2c0,146.1-104.4,185.3-183.5,185.3c-41.7,0-199.2,8.1-211.8-53
				c-4.3-20.9-2-43.4,10.5-61.3c9.9-14.3,24.9-24.4,39.1-34c26.1-17.6,56.2-36.5,54-72.2c-0.1-1.1-0.2-2.2-0.3-3.3
				C112.4,91.5,175,15.6,289,11.6C405,7.6,541.3,25.1,535,145.1z"/>
		</defs>
		<clipPath id="SVGID_6_">
			<use xlink:href="#SVGID_5_"  style="overflow:visible;"/>
		</clipPath>
		<g class="st4">
			<g>
				<path class="st2" d="M188.5,199.2c73.6,0,147.1,0,220.7,0c1.6,0,1.6-2.5,0-2.5c-73.6,0-147.1,0-220.7,0
					C186.9,196.7,186.9,199.2,188.5,199.2L188.5,199.2z"/>
			</g>
		</g>
	</g>
	<g>
		<defs>
			<path id="SVGID_7_" d="M535,145.1c-3.7,71.2-118,41.6-118,98.2c0,146.1-104.4,185.3-183.5,185.3c-41.7,0-199.2,8.1-211.8-53
				c-4.3-20.9-2-43.4,10.5-61.3c9.9-14.3,24.9-24.4,39.1-34c26.1-17.6,56.2-36.5,54-72.2c-0.1-1.1-0.2-2.2-0.3-3.3
				C112.4,91.5,175,15.6,289,11.6C405,7.6,541.3,25.1,535,145.1z"/>
		</defs>
		<clipPath id="SVGID_8_">
			<use xlink:href="#SVGID_7_"  style="overflow:visible;"/>
		</clipPath>
		<g class="st5">
			<g>
				<path class="st2" d="M415.7,196.6c0-62.2,0-124.4,0-186.7c0-1.6-2.5-1.6-2.5,0c0,62.2,0,124.4,0,186.7
					C413.2,198.2,415.7,198.2,415.7,196.6L415.7,196.6z"/>
			</g>
		</g>
	</g>
	<g>
		<defs>
			<path id="SVGID_9_" d="M535,145.1c-3.7,71.2-118,41.6-118,98.2c0,146.1-104.4,185.3-183.5,185.3c-41.7,0-199.2,8.1-211.8-53
				c-4.3-20.9-2-43.4,10.5-61.3c9.9-14.3,24.9-24.4,39.1-34c26.1-17.6,56.2-36.5,54-72.2c-0.1-1.1-0.2-2.2-0.3-3.3
				C112.4,91.5,175,15.6,289,11.6C405,7.6,541.3,25.1,535,145.1z"/>
		</defs>
		<clipPath id="SVGID_10_">
			<use xlink:href="#SVGID_9_"  style="overflow:visible;"/>
		</clipPath>
		<g class="st6">
			<g>
				<path class="st2" d="M167.2,50.6c0,54.9,0,109.8,0,164.7c0,1.6,2.5,1.6,2.5,0c0-54.9,0-109.8,0-164.7
					C169.7,49,167.2,49,167.2,50.6L167.2,50.6z"/>
			</g>
		</g>
	</g>
	<g>
		<defs>
			<path id="SVGID_11_" d="M535,145.1c-3.7,71.2-118,41.6-118,98.2c0,146.1-104.4,185.3-183.5,185.3c-41.7,0-199.2,8.1-211.8-53
				c-4.3-20.9-2-43.4,10.5-61.3c9.9-14.3,24.9-24.4,39.1-34c26.1-17.6,56.2-36.5,54-72.2c-0.1-1.1-0.2-2.2-0.3-3.3
				C112.4,91.5,175,15.6,289,11.6C405,7.6,541.3,25.1,535,145.1z"/>
		</defs>
		<clipPath id="SVGID_12_">
			<use xlink:href="#SVGID_11_"  style="overflow:visible;"/>
		</clipPath>
		<g class="st7">
			<g>
				<path class="st2" d="M170.5,218.5c67.5,0,135,0,202.4,0c19.2,0,38.4,0,57.6,0c1.6,0,1.6-2.5,0-2.5c-67.5,0-135,0-202.4,0
					c-19.2,0-38.4,0-57.6,0C168.9,216,168.9,218.5,170.5,218.5L170.5,218.5z"/>
			</g>
		</g>
	</g>
	<g>
		<defs>
			<path id="SVGID_13_" d="M535,145.1c-3.7,71.2-118,41.6-118,98.2c0,146.1-104.4,185.3-183.5,185.3c-41.7,0-199.2,8.1-211.8-53
				c-4.3-20.9-2-43.4,10.5-61.3c9.9-14.3,24.9-24.4,39.1-34c26.1-17.6,56.2-36.5,54-72.2c-0.1-1.1-0.2-2.2-0.3-3.3
				C112.4,91.5,175,15.6,289,11.6C405,7.6,541.3,25.1,535,145.1z"/>
		</defs>
		<clipPath id="SVGID_14_">
			<use xlink:href="#SVGID_13_"  style="overflow:visible;"/>
		</clipPath>
		<g class="st8">
			<g>
				<path class="st2" d="M430.6,15.9c0,68.2,0,136.4,0,204.7c0,1.6,2.5,1.6,2.5,0c0-68.2,0-136.4,0-204.7
					C433.1,14.3,430.6,14.3,430.6,15.9L430.6,15.9z"/>
			</g>
		</g>
	</g>
	<g>
		<defs>
			<path id="SVGID_15_" d="M535,145.1c-3.7,71.2-118,41.6-118,98.2c0,146.1-104.4,185.3-183.5,185.3c-41.7,0-199.2,8.1-211.8-53
				c-4.3-20.9-2-43.4,10.5-61.3c9.9-14.3,24.9-24.4,39.1-34c26.1-17.6,56.2-36.5,54-72.2c-0.1-1.1-0.2-2.2-0.3-3.3
				C112.4,91.5,175,15.6,289,11.6C405,7.6,541.3,25.1,535,145.1z"/>
		</defs>
		<clipPath id="SVGID_16_">
			<use xlink:href="#SVGID_15_"  style="overflow:visible;"/>
		</clipPath>
		<g class="st9">
			<g>
				<path class="st2" d="M251.2,8.2c-8.7,6.1-15.9,13.6-21.7,22.5c-0.9,1.4,1.3,2.6,2.2,1.3c5.5-8.5,12.5-15.8,20.8-21.6
					C253.8,9.5,252.5,7.3,251.2,8.2L251.2,8.2z"/>
			</g>
		</g>
	</g>
	<g>
		<defs>
			<path id="SVGID_17_" d="M535,145.1c-3.7,71.2-118,41.6-118,98.2c0,146.1-104.4,185.3-183.5,185.3c-41.7,0-199.2,8.1-211.8-53
				c-4.3-20.9-2-43.4,10.5-61.3c9.9-14.3,24.9-24.4,39.1-34c26.1-17.6,56.2-36.5,54-72.2c-0.1-1.1-0.2-2.2-0.3-3.3
				C112.4,91.5,175,15.6,289,11.6C405,7.6,541.3,25.1,535,145.1z"/>
		</defs>
		<clipPath id="SVGID_18_">
			<use xlink:href="#SVGID_17_"  style="overflow:visible;"/>
		</clipPath>
		<g class="st10">
			<g>
				<path class="st2" d="M222.4,47.1c-3.6,4.4-7.2,8.9-10.7,13.3c-1,1.2,0.8,3,1.8,1.8c3.6-4.4,7.2-8.9,10.7-13.3
					C225.1,47.7,223.4,45.9,222.4,47.1L222.4,47.1z"/>
			</g>
		</g>
	</g>
	<g>
		<defs>
			<path id="SVGID_19_" d="M535,145.1c-3.7,71.2-118,41.6-118,98.2c0,146.1-104.4,185.3-183.5,185.3c-41.7,0-199.2,8.1-211.8-53
				c-4.3-20.9-2-43.4,10.5-61.3c9.9-14.3,24.9-24.4,39.1-34c26.1-17.6,56.2-36.5,54-72.2c-0.1-1.1-0.2-2.2-0.3-3.3
				C112.4,91.5,175,15.6,289,11.6C405,7.6,541.3,25.1,535,145.1z"/>
		</defs>
		<clipPath id="SVGID_20_">
			<use xlink:href="#SVGID_19_"  style="overflow:visible;"/>
		</clipPath>
		<g class="st11">
			<g>
				<path class="st2" d="M259.9,37.9c-2.7,4-5.7,7.9-8.9,11.6c-1.1,1.2,0.7,3,1.8,1.8c3.3-3.8,6.4-7.9,9.3-12.1
					C262.9,37.9,260.8,36.6,259.9,37.9L259.9,37.9z"/>
			</g>
		</g>
	</g>
	<g>
		<defs>
			<path id="SVGID_21_" d="M535,145.1c-3.7,71.2-118,41.6-118,98.2c0,146.1-104.4,185.3-183.5,185.3c-41.7,0-199.2,8.1-211.8-53
				c-4.3-20.9-2-43.4,10.5-61.3c9.9-14.3,24.9-24.4,39.1-34c26.1-17.6,56.2-36.5,54-72.2c-0.1-1.1-0.2-2.2-0.3-3.3
				C112.4,91.5,175,15.6,289,11.6C405,7.6,541.3,25.1,535,145.1z"/>
		</defs>
		<clipPath id="SVGID_22_">
			<use xlink:href="#SVGID_21_"  style="overflow:visible;"/>
		</clipPath>
		<g class="st12">
			<g>
				<path class="st2" d="M291,29.5c-4.1,5.3-8.3,10.5-12.8,15.5c-1.1,1.2,0.7,3,1.8,1.8c4.6-5.2,9-10.5,13.2-16
					C294.1,29.5,291.9,28.2,291,29.5L291,29.5z"/>
			</g>
		</g>
	</g>
	<g>
		<defs>
			<path id="SVGID_23_" d="M535,145.1c-3.7,71.2-118,41.6-118,98.2c0,146.1-104.4,185.3-183.5,185.3c-41.7,0-199.2,8.1-211.8-53
				c-4.3-20.9-2-43.4,10.5-61.3c9.9-14.3,24.9-24.4,39.1-34c26.1-17.6,56.2-36.5,54-72.2c-0.1-1.1-0.2-2.2-0.3-3.3
				C112.4,91.5,175,15.6,289,11.6C405,7.6,541.3,25.1,535,145.1z"/>
		</defs>
		<clipPath id="SVGID_24_">
			<use xlink:href="#SVGID_23_"  style="overflow:visible;"/>
		</clipPath>
		<g class="st13">
			<g>
				<path class="st2" d="M322.9,42.1c-3,4.9-6.6,9.5-10.6,13.6c-1.1,1.2,0.6,2.9,1.8,1.8c4.2-4.3,7.9-9,11-14.1
					C325.9,41.9,323.7,40.7,322.9,42.1L322.9,42.1z"/>
			</g>
		</g>
	</g>
	<g>
		<defs>
			<path id="SVGID_25_" d="M535,145.1c-3.7,71.2-118,41.6-118,98.2c0,146.1-104.4,185.3-183.5,185.3c-41.7,0-199.2,8.1-211.8-53
				c-4.3-20.9-2-43.4,10.5-61.3c9.9-14.3,24.9-24.4,39.1-34c26.1-17.6,56.2-36.5,54-72.2c-0.1-1.1-0.2-2.2-0.3-3.3
				C112.4,91.5,175,15.6,289,11.6C405,7.6,541.3,25.1,535,145.1z"/>
		</defs>
		<clipPath id="SVGID_26_">
			<use xlink:href="#SVGID_25_"  style="overflow:visible;"/>
		</clipPath>
		<g class="st14">
			<g>
				<path class="st2" d="M271.4,79.1c-3.7,4.1-6.6,8.6-8.9,13.5c-0.7,1.5,1.5,2.7,2.2,1.3c2.2-4.8,5-9.1,8.5-13
					C274.2,79.7,272.5,77.9,271.4,79.1L271.4,79.1z"/>
			</g>
		</g>
	</g>
	<g>
		<defs>
			<path id="SVGID_27_" d="M535,145.1c-3.7,71.2-118,41.6-118,98.2c0,146.1-104.4,185.3-183.5,185.3c-41.7,0-199.2,8.1-211.8-53
				c-4.3-20.9-2-43.4,10.5-61.3c9.9-14.3,24.9-24.4,39.1-34c26.1-17.6,56.2-36.5,54-72.2c-0.1-1.1-0.2-2.2-0.3-3.3
				C112.4,91.5,175,15.6,289,11.6C405,7.6,541.3,25.1,535,145.1z"/>
		</defs>
		<clipPath id="SVGID_28_">
			<use xlink:href="#SVGID_27_"  style="overflow:visible;"/>
		</clipPath>
		<g class="st15">
			<g>
				<path class="st2" d="M246.6,104.6c-4.4,5.5-9.3,10.4-14.7,14.9c-1.2,1,0.5,2.8,1.8,1.8c5.4-4.5,10.3-9.5,14.7-14.9
					C249.4,105.1,247.6,103.3,246.6,104.6L246.6,104.6z"/>
			</g>
		</g>
	</g>
	<g>
		<defs>
			<path id="SVGID_29_" d="M535,145.1c-3.7,71.2-118,41.6-118,98.2c0,146.1-104.4,185.3-183.5,185.3c-41.7,0-199.2,8.1-211.8-53
				c-4.3-20.9-2-43.4,10.5-61.3c9.9-14.3,24.9-24.4,39.1-34c26.1-17.6,56.2-36.5,54-72.2c-0.1-1.1-0.2-2.2-0.3-3.3
				C112.4,91.5,175,15.6,289,11.6C405,7.6,541.3,25.1,535,145.1z"/>
		</defs>
		<clipPath id="SVGID_30_">
			<use xlink:href="#SVGID_29_"  style="overflow:visible;"/>
		</clipPath>
		<g class="st16">
			<g>
				<path class="st2" d="M267,125.8c-4.9,5.3-9.8,10.6-14.8,15.9c-1.1,1.2,0.7,3,1.8,1.8c4.9-5.3,9.8-10.6,14.8-15.9
					C269.9,126.4,268.1,124.6,267,125.8L267,125.8z"/>
			</g>
		</g>
	</g>
	<g>
		<defs>
			<path id="SVGID_31_" d="M535,145.1c-3.7,71.2-118,41.6-118,98.2c0,146.1-104.4,185.3-183.5,185.3c-41.7,0-199.2,8.1-211.8-53
				c-4.3-20.9-2-43.4,10.5-61.3c9.9-14.3,24.9-24.4,39.1-34c26.1-17.6,56.2-36.5,54-72.2c-0.1-1.1-0.2-2.2-0.3-3.3
				C112.4,91.5,175,15.6,289,11.6C405,7.6,541.3,25.1,535,145.1z"/>
		</defs>
		<clipPath id="SVGID_32_">
			<use xlink:href="#SVGID_31_"  style="overflow:visible;"/>
		</clipPath>
		<g class="st17">
			<g>
				<path class="st2" d="M224.9,150.1c-2.5,3.5-5.4,6.7-8.6,9.7c-1.2,1.1,0.6,2.8,1.8,1.8c3.4-3.1,6.3-6.5,9-10.2
					C228,150,225.8,148.8,224.9,150.1L224.9,150.1z"/>
			</g>
		</g>
	</g>
	<g>
		<defs>
			<path id="SVGID_33_" d="M535,145.1c-3.7,71.2-118,41.6-118,98.2c0,146.1-104.4,185.3-183.5,185.3c-41.7,0-199.2,8.1-211.8-53
				c-4.3-20.9-2-43.4,10.5-61.3c9.9-14.3,24.9-24.4,39.1-34c26.1-17.6,56.2-36.5,54-72.2c-0.1-1.1-0.2-2.2-0.3-3.3
				C112.4,91.5,175,15.6,289,11.6C405,7.6,541.3,25.1,535,145.1z"/>
		</defs>
		<clipPath id="SVGID_34_">
			<use xlink:href="#SVGID_33_"  style="overflow:visible;"/>
		</clipPath>
		<g class="st18">
			<g>
				<path class="st2" d="M329.9,134.5c-5.1,7.7-11,14.7-17.6,21.2c-1.2,1.1,0.6,2.9,1.8,1.8c6.8-6.6,12.8-13.9,18-21.7
					C333,134.5,330.8,133.2,329.9,134.5L329.9,134.5z"/>
			</g>
		</g>
	</g>
	<g>
		<defs>
			<path id="SVGID_35_" d="M535,145.1c-3.7,71.2-118,41.6-118,98.2c0,146.1-104.4,185.3-183.5,185.3c-41.7,0-199.2,8.1-211.8-53
				c-4.3-20.9-2-43.4,10.5-61.3c9.9-14.3,24.9-24.4,39.1-34c26.1-17.6,56.2-36.5,54-72.2c-0.1-1.1-0.2-2.2-0.3-3.3
				C112.4,91.5,175,15.6,289,11.6C405,7.6,541.3,25.1,535,145.1z"/>
		</defs>
		<clipPath id="SVGID_36_">
			<use xlink:href="#SVGID_35_"  style="overflow:visible;"/>
		</clipPath>
		<g class="st19">
			<g>
				<path class="st2" d="M320.9,103.7c-3.7,4.3-7.5,8.5-11.2,12.8c-1.1,1.2,0.7,3,1.8,1.8c3.7-4.3,7.5-8.5,11.2-12.8
					C323.8,104.3,322,102.5,320.9,103.7L320.9,103.7z"/>
			</g>
		</g>
	</g>
	<g>
		<defs>
			<path id="SVGID_37_" d="M535,145.1c-3.7,71.2-118,41.6-118,98.2c0,146.1-104.4,185.3-183.5,185.3c-41.7,0-199.2,8.1-211.8-53
				c-4.3-20.9-2-43.4,10.5-61.3c9.9-14.3,24.9-24.4,39.1-34c26.1-17.6,56.2-36.5,54-72.2c-0.1-1.1-0.2-2.2-0.3-3.3
				C112.4,91.5,175,15.6,289,11.6C405,7.6,541.3,25.1,535,145.1z"/>
		</defs>
		<clipPath id="SVGID_38_">
			<use xlink:href="#SVGID_37_"  style="overflow:visible;"/>
		</clipPath>
		<g class="st20">
			<g>
				<path class="st2" d="M358.7,78.8c-4,5.8-8,11.6-12,17.4c-0.9,1.3,1.3,2.6,2.2,1.3c4-5.8,8-11.6,12-17.4
					C361.8,78.7,359.6,77.4,358.7,78.8L358.7,78.8z"/>
			</g>
		</g>
	</g>
	<g>
		<defs>
			<path id="SVGID_39_" d="M535,145.1c-3.7,71.2-118,41.6-118,98.2c0,146.1-104.4,185.3-183.5,185.3c-41.7,0-199.2,8.1-211.8-53
				c-4.3-20.9-2-43.4,10.5-61.3c9.9-14.3,24.9-24.4,39.1-34c26.1-17.6,56.2-36.5,54-72.2c-0.1-1.1-0.2-2.2-0.3-3.3
				C112.4,91.5,175,15.6,289,11.6C405,7.6,541.3,25.1,535,145.1z"/>
		</defs>
		<clipPath id="SVGID_40_">
			<use xlink:href="#SVGID_39_"  style="overflow:visible;"/>
		</clipPath>
		<g class="st21">
			<g>
				<path class="st2" d="M357.3,41.9c-3.6,4.7-7.1,9.3-10.7,14c-1,1.3,1.2,2.5,2.2,1.3c3.6-4.7,7.1-9.3,10.7-14
					C360.4,41.9,358.2,40.6,357.3,41.9L357.3,41.9z"/>
			</g>
		</g>
	</g>
	<g>
		<defs>
			<path id="SVGID_41_" d="M535,145.1c-3.7,71.2-118,41.6-118,98.2c0,146.1-104.4,185.3-183.5,185.3c-41.7,0-199.2,8.1-211.8-53
				c-4.3-20.9-2-43.4,10.5-61.3c9.9-14.3,24.9-24.4,39.1-34c26.1-17.6,56.2-36.5,54-72.2c-0.1-1.1-0.2-2.2-0.3-3.3
				C112.4,91.5,175,15.6,289,11.6C405,7.6,541.3,25.1,535,145.1z"/>
		</defs>
		<clipPath id="SVGID_42_">
			<use xlink:href="#SVGID_41_"  style="overflow:visible;"/>
		</clipPath>
		<g class="st22">
			<g>
				<path class="st2" d="M367.2,8.3c-4.1,5.6-8.5,10.8-13.3,15.7c-1.1,1.2,0.6,2.9,1.8,1.8c5-5.1,9.5-10.5,13.7-16.2
					C370.3,8.3,368.1,7.1,367.2,8.3L367.2,8.3z"/>
			</g>
		</g>
	</g>
	<g>
		<defs>
			<path id="SVGID_43_" d="M535,145.1c-3.7,71.2-118,41.6-118,98.2c0,146.1-104.4,185.3-183.5,185.3c-41.7,0-199.2,8.1-211.8-53
				c-4.3-20.9-2-43.4,10.5-61.3c9.9-14.3,24.9-24.4,39.1-34c26.1-17.6,56.2-36.5,54-72.2c-0.1-1.1-0.2-2.2-0.3-3.3
				C112.4,91.5,175,15.6,289,11.6C405,7.6,541.3,25.1,535,145.1z"/>
		</defs>
		<clipPath id="SVGID_44_">
			<use xlink:href="#SVGID_43_"  style="overflow:visible;"/>
		</clipPath>
		<g class="st23">
			<g>
				<path class="st2" d="M333.3,6.1c-4.1,4.9-8,10-11.7,15.3c-0.9,1.3,1.2,2.6,2.2,1.3c3.5-5.1,7.3-10.1,11.3-14.8
					C336.1,6.7,334.3,4.9,333.3,6.1L333.3,6.1z"/>
			</g>
		</g>
	</g>
	<g>
		<defs>
			<path id="SVGID_45_" d="M535,145.1c-3.7,71.2-118,41.6-118,98.2c0,146.1-104.4,185.3-183.5,185.3c-41.7,0-199.2,8.1-211.8-53
				c-4.3-20.9-2-43.4,10.5-61.3c9.9-14.3,24.9-24.4,39.1-34c26.1-17.6,56.2-36.5,54-72.2c-0.1-1.1-0.2-2.2-0.3-3.3
				C112.4,91.5,175,15.6,289,11.6C405,7.6,541.3,25.1,535,145.1z"/>
		</defs>
		<clipPath id="SVGID_46_">
			<use xlink:href="#SVGID_45_"  style="overflow:visible;"/>
		</clipPath>
		<g class="st24">
			<g>
				<path class="st2" d="M405.5,41.1c-4.1,6.8-8.1,13.7-12.2,20.5c-0.8,1.4,1.3,2.6,2.2,1.3c4.1-6.8,8.1-13.7,12.2-20.5
					C408.5,41,406.4,39.8,405.5,41.1L405.5,41.1z"/>
			</g>
		</g>
	</g>
	<g>
		<defs>
			<path id="SVGID_47_" d="M535,145.1c-3.7,71.2-118,41.6-118,98.2c0,146.1-104.4,185.3-183.5,185.3c-41.7,0-199.2,8.1-211.8-53
				c-4.3-20.9-2-43.4,10.5-61.3c9.9-14.3,24.9-24.4,39.1-34c26.1-17.6,56.2-36.5,54-72.2c-0.1-1.1-0.2-2.2-0.3-3.3
				C112.4,91.5,175,15.6,289,11.6C405,7.6,541.3,25.1,535,145.1z"/>
		</defs>
		<clipPath id="SVGID_48_">
			<use xlink:href="#SVGID_47_"  style="overflow:visible;"/>
		</clipPath>
		<g class="st25">
			<g>
				<path class="st2" d="M390.1,105.5c-4.5,5.4-9.4,10.5-14.7,15.3c-1.2,1.1,0.6,2.8,1.8,1.8c5.3-4.7,10.2-9.8,14.7-15.3
					C392.9,106,391.1,104.3,390.1,105.5L390.1,105.5z"/>
			</g>
		</g>
	</g>
	<g>
		<defs>
			<path id="SVGID_49_" d="M535,145.1c-3.7,71.2-118,41.6-118,98.2c0,146.1-104.4,185.3-183.5,185.3c-41.7,0-199.2,8.1-211.8-53
				c-4.3-20.9-2-43.4,10.5-61.3c9.9-14.3,24.9-24.4,39.1-34c26.1-17.6,56.2-36.5,54-72.2c-0.1-1.1-0.2-2.2-0.3-3.3
				C112.4,91.5,175,15.6,289,11.6C405,7.6,541.3,25.1,535,145.1z"/>
		</defs>
		<clipPath id="SVGID_50_">
			<use xlink:href="#SVGID_49_"  style="overflow:visible;"/>
		</clipPath>
		<g class="st26">
			<g>
				<path class="st2" d="M366.6,107.1c-5.5,5.9-10.5,12.1-15.2,18.6c-0.9,1.3,1.2,2.6,2.2,1.3c4.6-6.3,9.5-12.3,14.8-18.1
					C369.5,107.7,367.7,106,366.6,107.1L366.6,107.1z"/>
			</g>
		</g>
	</g>
	<g>
		<defs>
			<path id="SVGID_51_" d="M535,145.1c-3.7,71.2-118,41.6-118,98.2c0,146.1-104.4,185.3-183.5,185.3c-41.7,0-199.2,8.1-211.8-53
				c-4.3-20.9-2-43.4,10.5-61.3c9.9-14.3,24.9-24.4,39.1-34c26.1-17.6,56.2-36.5,54-72.2c-0.1-1.1-0.2-2.2-0.3-3.3
				C112.4,91.5,175,15.6,289,11.6C405,7.6,541.3,25.1,535,145.1z"/>
		</defs>
		<clipPath id="SVGID_52_">
			<use xlink:href="#SVGID_51_"  style="overflow:visible;"/>
		</clipPath>
		<g class="st27">
			<g>
				<path class="st2" d="M377.4,147.3c-3.6,6.2-7.8,11.9-12.9,17.1c-1.1,1.2,0.6,2.9,1.8,1.8c5.2-5.3,9.6-11.2,13.3-17.6
					C380.3,147.2,378.2,145.9,377.4,147.3L377.4,147.3z"/>
			</g>
		</g>
	</g>
	<g>
		<defs>
			<path id="SVGID_53_" d="M535,145.1c-3.7,71.2-118,41.6-118,98.2c0,146.1-104.4,185.3-183.5,185.3c-41.7,0-199.2,8.1-211.8-53
				c-4.3-20.9-2-43.4,10.5-61.3c9.9-14.3,24.9-24.4,39.1-34c26.1-17.6,56.2-36.5,54-72.2c-0.1-1.1-0.2-2.2-0.3-3.3
				C112.4,91.5,175,15.6,289,11.6C405,7.6,541.3,25.1,535,145.1z"/>
		</defs>
		<clipPath id="SVGID_54_">
			<use xlink:href="#SVGID_53_"  style="overflow:visible;"/>
		</clipPath>
		<g class="st28">
			<g>
				<path class="st2" d="M341.8,169.2c-4.3,4.2-8.5,8.4-12.8,12.5c-1.2,1.1,0.6,2.9,1.8,1.8c4.3-4.2,8.5-8.4,12.8-12.5
					C344.7,169.9,342.9,168.1,341.8,169.2L341.8,169.2z"/>
			</g>
		</g>
	</g>
	<g>
		<defs>
			<path id="SVGID_55_" d="M535,145.1c-3.7,71.2-118,41.6-118,98.2c0,146.1-104.4,185.3-183.5,185.3c-41.7,0-199.2,8.1-211.8-53
				c-4.3-20.9-2-43.4,10.5-61.3c9.9-14.3,24.9-24.4,39.1-34c26.1-17.6,56.2-36.5,54-72.2c-0.1-1.1-0.2-2.2-0.3-3.3
				C112.4,91.5,175,15.6,289,11.6C405,7.6,541.3,25.1,535,145.1z"/>
		</defs>
		<clipPath id="SVGID_56_">
			<use xlink:href="#SVGID_55_"  style="overflow:visible;"/>
		</clipPath>
		<g class="st29">
			<g>
				<path class="st2" d="M289,161.8c-3.8,3.1-7.6,6.1-11.5,9.2c-1.3,1,0.5,2.8,1.8,1.8c3.8-3.1,7.6-6.1,11.5-9.2
					C292,162.6,290.3,160.8,289,161.8L289,161.8z"/>
			</g>
		</g>
	</g>
	<g>
		<defs>
			<path id="SVGID_57_" d="M535,145.1c-3.7,71.2-118,41.6-118,98.2c0,146.1-104.4,185.3-183.5,185.3c-41.7,0-199.2,8.1-211.8-53
				c-4.3-20.9-2-43.4,10.5-61.3c9.9-14.3,24.9-24.4,39.1-34c26.1-17.6,56.2-36.5,54-72.2c-0.1-1.1-0.2-2.2-0.3-3.3
				C112.4,91.5,175,15.6,289,11.6C405,7.6,541.3,25.1,535,145.1z"/>
		</defs>
		<clipPath id="SVGID_58_">
			<use xlink:href="#SVGID_57_"  style="overflow:visible;"/>
		</clipPath>
		<g class="st30">
			<g>
				<path class="st2" d="M283.6,139.1c-4,3.6-7.7,7.4-11.3,11.3c-1.1,1.2,0.7,3,1.8,1.8c3.6-4,7.4-7.7,11.3-11.3
					C286.6,139.8,284.8,138,283.6,139.1L283.6,139.1z"/>
			</g>
		</g>
	</g>
	<g>
		<defs>
			<path id="SVGID_59_" d="M535,145.1c-3.7,71.2-118,41.6-118,98.2c0,146.1-104.4,185.3-183.5,185.3c-41.7,0-199.2,8.1-211.8-53
				c-4.3-20.9-2-43.4,10.5-61.3c9.9-14.3,24.9-24.4,39.1-34c26.1-17.6,56.2-36.5,54-72.2c-0.1-1.1-0.2-2.2-0.3-3.3
				C112.4,91.5,175,15.6,289,11.6C405,7.6,541.3,25.1,535,145.1z"/>
		</defs>
		<clipPath id="SVGID_60_">
			<use xlink:href="#SVGID_59_"  style="overflow:visible;"/>
		</clipPath>
		<g class="st31">
			<g>
				<path class="st2" d="M245.3,170.8c-4.4,6.6-8.6,12.9-15.1,17.6c-1.3,0.9-0.1,3.1,1.3,2.2c7-5,11.4-11.4,16-18.5
					C248.4,170.7,246.2,169.5,245.3,170.8L245.3,170.8z"/>
			</g>
		</g>
	</g>
	<g>
		<defs>
			<path id="SVGID_61_" d="M535,145.1c-3.7,71.2-118,41.6-118,98.2c0,146.1-104.4,185.3-183.5,185.3c-41.7,0-199.2,8.1-211.8-53
				c-4.3-20.9-2-43.4,10.5-61.3c9.9-14.3,24.9-24.4,39.1-34c26.1-17.6,56.2-36.5,54-72.2c-0.1-1.1-0.2-2.2-0.3-3.3
				C112.4,91.5,175,15.6,289,11.6C405,7.6,541.3,25.1,535,145.1z"/>
		</defs>
		<clipPath id="SVGID_62_">
			<use xlink:href="#SVGID_61_"  style="overflow:visible;"/>
		</clipPath>
		<g class="st32">
			<g>
				<path class="st2" d="M211.7,95.2c-2.3,2.3-4.6,4.7-7,7c-1.1,1.1,0.6,2.9,1.8,1.8c2.3-2.3,4.6-4.7,7-7
					C214.6,95.8,212.8,94,211.7,95.2L211.7,95.2z"/>
			</g>
		</g>
	</g>
	<g>
		<defs>
			<path id="SVGID_63_" d="M535,145.1c-3.7,71.2-118,41.6-118,98.2c0,146.1-104.4,185.3-183.5,185.3c-41.7,0-199.2,8.1-211.8-53
				c-4.3-20.9-2-43.4,10.5-61.3c9.9-14.3,24.9-24.4,39.1-34c26.1-17.6,56.2-36.5,54-72.2c-0.1-1.1-0.2-2.2-0.3-3.3
				C112.4,91.5,175,15.6,289,11.6C405,7.6,541.3,25.1,535,145.1z"/>
		</defs>
		<clipPath id="SVGID_64_">
			<use xlink:href="#SVGID_63_"  style="overflow:visible;"/>
		</clipPath>
		<g class="st33">
			<g>
				<path class="st2" d="M209.3,123.8c-5.1,3.1-9.6,7.1-13.3,11.8c-1,1.3,0.8,3,1.8,1.8c3.6-4.6,7.8-8.4,12.8-11.4
					C212,125.1,210.7,122.9,209.3,123.8L209.3,123.8z"/>
			</g>
		</g>
	</g>
	<g>
		<defs>
			<path id="SVGID_65_" d="M535,145.1c-3.7,71.2-118,41.6-118,98.2c0,146.1-104.4,185.3-183.5,185.3c-41.7,0-199.2,8.1-211.8-53
				c-4.3-20.9-2-43.4,10.5-61.3c9.9-14.3,24.9-24.4,39.1-34c26.1-17.6,56.2-36.5,54-72.2c-0.1-1.1-0.2-2.2-0.3-3.3
				C112.4,91.5,175,15.6,289,11.6C405,7.6,541.3,25.1,535,145.1z"/>
		</defs>
		<clipPath id="SVGID_66_">
			<use xlink:href="#SVGID_65_"  style="overflow:visible;"/>
		</clipPath>
		<g class="st34">
			<g>
				<path class="st2" d="M412.2,114.7c-3.7,5.2-7.9,10-12.5,14.4c-1.2,1.1,0.6,2.9,1.8,1.8c4.8-4.5,9.1-9.5,12.9-14.9
					C415.3,114.7,413.1,113.4,412.2,114.7L412.2,114.7z"/>
			</g>
		</g>
	</g>
	<g>
		<defs>
			<path id="SVGID_67_" d="M535,145.1c-3.7,71.2-118,41.6-118,98.2c0,146.1-104.4,185.3-183.5,185.3c-41.7,0-199.2,8.1-211.8-53
				c-4.3-20.9-2-43.4,10.5-61.3c9.9-14.3,24.9-24.4,39.1-34c26.1-17.6,56.2-36.5,54-72.2c-0.1-1.1-0.2-2.2-0.3-3.3
				C112.4,91.5,175,15.6,289,11.6C405,7.6,541.3,25.1,535,145.1z"/>
		</defs>
		<clipPath id="SVGID_68_">
			<use xlink:href="#SVGID_67_"  style="overflow:visible;"/>
		</clipPath>
		<g class="st35">
			<g>
				<path class="st2" d="M403.7,168.5c-3,3.3-5.9,6.5-8.9,9.8c-1.1,1.2,0.7,3,1.8,1.8c3-3.3,5.9-6.5,8.9-9.8
					C406.6,169.1,404.8,167.3,403.7,168.5L403.7,168.5z"/>
			</g>
		</g>
	</g>
	<g>
		<defs>
			<path id="SVGID_69_" d="M535,145.1c-3.7,71.2-118,41.6-118,98.2c0,146.1-104.4,185.3-183.5,185.3c-41.7,0-199.2,8.1-211.8-53
				c-4.3-20.9-2-43.4,10.5-61.3c9.9-14.3,24.9-24.4,39.1-34c26.1-17.6,56.2-36.5,54-72.2c-0.1-1.1-0.2-2.2-0.3-3.3
				C112.4,91.5,175,15.6,289,11.6C405,7.6,541.3,25.1,535,145.1z"/>
		</defs>
		<clipPath id="SVGID_70_">
			<use xlink:href="#SVGID_69_"  style="overflow:visible;"/>
		</clipPath>
		<g class="st36">
			<g>
				<path class="st2" d="M364.5,196.4c3.6-2.7,7.1-5.3,10.7-8c1.3-1,0-3.1-1.3-2.2c-3.6,2.7-7.1,5.3-10.7,8
					C361.9,195.1,363.2,197.3,364.5,196.4L364.5,196.4z"/>
			</g>
		</g>
	</g>
	<g>
		<defs>
			<path id="SVGID_71_" d="M535,145.1c-3.7,71.2-118,41.6-118,98.2c0,146.1-104.4,185.3-183.5,185.3c-41.7,0-199.2,8.1-211.8-53
				c-4.3-20.9-2-43.4,10.5-61.3c9.9-14.3,24.9-24.4,39.1-34c26.1-17.6,56.2-36.5,54-72.2c-0.1-1.1-0.2-2.2-0.3-3.3
				C112.4,91.5,175,15.6,289,11.6C405,7.6,541.3,25.1,535,145.1z"/>
		</defs>
		<clipPath id="SVGID_72_">
			<use xlink:href="#SVGID_71_"  style="overflow:visible;"/>
		</clipPath>
		<g class="st37">
			<g>
				<path class="st2" d="M318.1,89c2.4-3.1,5-6.1,7.9-8.8c1.2-1.1-0.6-2.9-1.8-1.8c-2.8,2.8-5.4,5.7-7.9,8.8
					C315.3,88.4,317.1,90.2,318.1,89L318.1,89z"/>
			</g>
		</g>
	</g>
	<g>
		<defs>
			<path id="SVGID_73_" d="M535,145.1c-3.7,71.2-118,41.6-118,98.2c0,146.1-104.4,185.3-183.5,185.3c-41.7,0-199.2,8.1-211.8-53
				c-4.3-20.9-2-43.4,10.5-61.3c9.9-14.3,24.9-24.4,39.1-34c26.1-17.6,56.2-36.5,54-72.2c-0.1-1.1-0.2-2.2-0.3-3.3
				C112.4,91.5,175,15.6,289,11.6C405,7.6,541.3,25.1,535,145.1z"/>
		</defs>
		<clipPath id="SVGID_74_">
			<use xlink:href="#SVGID_73_"  style="overflow:visible;"/>
		</clipPath>
		<g class="st38">
			<g>
				<path class="st2" d="M412.3,196.2c6.2,6.2,12.4,12.4,18.7,18.7c1.1,1.1,2.9-0.6,1.8-1.8c-6.2-6.2-12.4-12.4-18.7-18.7
					C412.9,193.3,411.1,195,412.3,196.2L412.3,196.2z"/>
			</g>
		</g>
	</g>
	<g>
		<defs>
			<path id="SVGID_75_" d="M535,145.1c-3.7,71.2-118,41.6-118,98.2c0,146.1-104.4,185.3-183.5,185.3c-41.7,0-199.2,8.1-211.8-53
				c-4.3-20.9-2-43.4,10.5-61.3c9.9-14.3,24.9-24.4,39.1-34c26.1-17.6,56.2-36.5,54-72.2c-0.1-1.1-0.2-2.2-0.3-3.3
				C112.4,91.5,175,15.6,289,11.6C405,7.6,541.3,25.1,535,145.1z"/>
		</defs>
		<clipPath id="SVGID_76_">
			<use xlink:href="#SVGID_75_"  style="overflow:visible;"/>
		</clipPath>
		<g class="st39">
			<g>
				<path class="st2" d="M185.6,196.4c-4.6,4.5-9.3,9-13.9,13.4c-1.2,1.1,0.6,2.9,1.8,1.8c4.6-4.5,9.3-9,13.9-13.4
					C188.6,197.1,186.8,195.3,185.6,196.4L185.6,196.4z"/>
			</g>
		</g>
	</g>
	<g>
		<defs>
			<path id="SVGID_77_" d="M535,145.1c-3.7,71.2-118,41.6-118,98.2c0,146.1-104.4,185.3-183.5,185.3c-41.7,0-199.2,8.1-211.8-53
				c-4.3-20.9-2-43.4,10.5-61.3c9.9-14.3,24.9-24.4,39.1-34c26.1-17.6,56.2-36.5,54-72.2c-0.1-1.1-0.2-2.2-0.3-3.3
				C112.4,91.5,175,15.6,289,11.6C405,7.6,541.3,25.1,535,145.1z"/>
		</defs>
		<clipPath id="SVGID_78_">
			<use xlink:href="#SVGID_77_"  style="overflow:visible;"/>
		</clipPath>
		<g class="st40">
			<g>
				<path class="st2" d="M436.5,95.2c8.9,0,17.8,0,26.7,0c1.6,0,1.6-2.5,0-2.5c-8.9,0-17.8,0-26.7,0
					C434.9,92.7,434.9,95.2,436.5,95.2L436.5,95.2z"/>
			</g>
		</g>
	</g>
	<g>
		<defs>
			<path id="SVGID_79_" d="M535,145.1c-3.7,71.2-118,41.6-118,98.2c0,146.1-104.4,185.3-183.5,185.3c-41.7,0-199.2,8.1-211.8-53
				c-4.3-20.9-2-43.4,10.5-61.3c9.9-14.3,24.9-24.4,39.1-34c26.1-17.6,56.2-36.5,54-72.2c-0.1-1.1-0.2-2.2-0.3-3.3
				C112.4,91.5,175,15.6,289,11.6C405,7.6,541.3,25.1,535,145.1z"/>
		</defs>
		<clipPath id="SVGID_80_">
			<use xlink:href="#SVGID_79_"  style="overflow:visible;"/>
		</clipPath>
		<g class="st41">
			<g>
				<path class="st2" d="M451.8,107.2c13.3,0,26.7,0,40,0c1.6,0,1.6-2.5,0-2.5c-13.3,0-26.7,0-40,0
					C450.2,104.7,450.2,107.2,451.8,107.2L451.8,107.2z"/>
			</g>
		</g>
	</g>
	<g>
		<defs>
			<path id="SVGID_81_" d="M535,145.1c-3.7,71.2-118,41.6-118,98.2c0,146.1-104.4,185.3-183.5,185.3c-41.7,0-199.2,8.1-211.8-53
				c-4.3-20.9-2-43.4,10.5-61.3c9.9-14.3,24.9-24.4,39.1-34c26.1-17.6,56.2-36.5,54-72.2c-0.1-1.1-0.2-2.2-0.3-3.3
				C112.4,91.5,175,15.6,289,11.6C405,7.6,541.3,25.1,535,145.1z"/>
		</defs>
		<clipPath id="SVGID_82_">
			<use xlink:href="#SVGID_81_"  style="overflow:visible;"/>
		</clipPath>
		<g class="st42">
			<g>
				<path class="st2" d="M491.2,127.2c15.6,0,31.1,0,46.7,0c1.6,0,1.6-2.5,0-2.5c-15.6,0-31.1,0-46.7,0
					C489.6,124.7,489.5,127.2,491.2,127.2L491.2,127.2z"/>
			</g>
		</g>
	</g>
	<g>
		<defs>
			<path id="SVGID_83_" d="M535,145.1c-3.7,71.2-118,41.6-118,98.2c0,146.1-104.4,185.3-183.5,185.3c-41.7,0-199.2,8.1-211.8-53
				c-4.3-20.9-2-43.4,10.5-61.3c9.9-14.3,24.9-24.4,39.1-34c26.1-17.6,56.2-36.5,54-72.2c-0.1-1.1-0.2-2.2-0.3-3.3
				C112.4,91.5,175,15.6,289,11.6C405,7.6,541.3,25.1,535,145.1z"/>
		</defs>
		<clipPath id="SVGID_84_">
			<use xlink:href="#SVGID_83_"  style="overflow:visible;"/>
		</clipPath>
		<g class="st43">
			<g>
				<path class="st2" d="M437.2,169.2c12.4,0,24.9,0,37.3,0c1.6,0,1.6-2.5,0-2.5c-12.4,0-24.9,0-37.3,0
					C435.6,166.7,435.5,169.2,437.2,169.2L437.2,169.2z"/>
			</g>
		</g>
	</g>
	<g>
		<defs>
			<path id="SVGID_85_" d="M535,145.1c-3.7,71.2-118,41.6-118,98.2c0,146.1-104.4,185.3-183.5,185.3c-41.7,0-199.2,8.1-211.8-53
				c-4.3-20.9-2-43.4,10.5-61.3c9.9-14.3,24.9-24.4,39.1-34c26.1-17.6,56.2-36.5,54-72.2c-0.1-1.1-0.2-2.2-0.3-3.3
				C112.4,91.5,175,15.6,289,11.6C405,7.6,541.3,25.1,535,145.1z"/>
		</defs>
		<clipPath id="SVGID_86_">
			<use xlink:href="#SVGID_85_"  style="overflow:visible;"/>
		</clipPath>
		<g class="st44">
			<g>
				<path class="st2" d="M123.2,151.2c8,0,16,0,24,0c1.6,0,1.6-2.5,0-2.5c-8,0-16,0-24,0C121.6,148.7,121.5,151.2,123.2,151.2
					L123.2,151.2z"/>
			</g>
		</g>
	</g>
	<g>
		<defs>
			<path id="SVGID_87_" d="M535,145.1c-3.7,71.2-118,41.6-118,98.2c0,146.1-104.4,185.3-183.5,185.3c-41.7,0-199.2,8.1-211.8-53
				c-4.3-20.9-2-43.4,10.5-61.3c9.9-14.3,24.9-24.4,39.1-34c26.1-17.6,56.2-36.5,54-72.2c-0.1-1.1-0.2-2.2-0.3-3.3
				C112.4,91.5,175,15.6,289,11.6C405,7.6,541.3,25.1,535,145.1z"/>
		</defs>
		<clipPath id="SVGID_88_">
			<use xlink:href="#SVGID_87_"  style="overflow:visible;"/>
		</clipPath>
		<g class="st45">
			<g>
				<path class="st2" d="M143.8,137.2c6.7,0,13.3,0,20,0c1.6,0,1.6-2.5,0-2.5c-6.7,0-13.3,0-20,0
					C142.2,134.7,142.2,137.2,143.8,137.2L143.8,137.2z"/>
			</g>
		</g>
	</g>
	<g>
		<defs>
			<path id="SVGID_89_" d="M535,145.1c-3.7,71.2-118,41.6-118,98.2c0,146.1-104.4,185.3-183.5,185.3c-41.7,0-199.2,8.1-211.8-53
				c-4.3-20.9-2-43.4,10.5-61.3c9.9-14.3,24.9-24.4,39.1-34c26.1-17.6,56.2-36.5,54-72.2c-0.1-1.1-0.2-2.2-0.3-3.3
				C112.4,91.5,175,15.6,289,11.6C405,7.6,541.3,25.1,535,145.1z"/>
		</defs>
		<clipPath id="SVGID_90_">
			<use xlink:href="#SVGID_89_"  style="overflow:visible;"/>
		</clipPath>
		<g class="st46">
			<g>
				<path class="st2" d="M290.6,11.3c0,60.9,0,121.8,0,182.7c0,1.6,2.5,1.6,2.5,0c0-60.9,0-121.8,0-182.7
					C293.1,9.7,290.6,9.7,290.6,11.3L290.6,11.3z"/>
			</g>
		</g>
	</g>
	<g>
		<defs>
			<path id="SVGID_91_" d="M535,145.1c-3.7,71.2-118,41.6-118,98.2c0,146.1-104.4,185.3-183.5,185.3c-41.7,0-199.2,8.1-211.8-53
				c-4.3-20.9-2-43.4,10.5-61.3c9.9-14.3,24.9-24.4,39.1-34c26.1-17.6,56.2-36.5,54-72.2c-0.1-1.1-0.2-2.2-0.3-3.3
				C112.4,91.5,175,15.6,289,11.6C405,7.6,541.3,25.1,535,145.1z"/>
		</defs>
		<clipPath id="SVGID_92_">
			<use xlink:href="#SVGID_91_"  style="overflow:visible;"/>
		</clipPath>
		<g class="st47">
			<g>
				<path class="st2" d="M301.9,10.6c0,60.7,0,121.3,0,182c0,1.6,2.5,1.6,2.5,0c0-60.7,0-121.3,0-182C304.4,9,301.9,9,301.9,10.6
					L301.9,10.6z"/>
			</g>
		</g>
	</g>
	<g>
		<defs>
			<path id="SVGID_93_" d="M535,145.1c-3.7,71.2-118,41.6-118,98.2c0,146.1-104.4,185.3-183.5,185.3c-41.7,0-199.2,8.1-211.8-53
				c-4.3-20.9-2-43.4,10.5-61.3c9.9-14.3,24.9-24.4,39.1-34c26.1-17.6,56.2-36.5,54-72.2c-0.1-1.1-0.2-2.2-0.3-3.3
				C112.4,91.5,175,15.6,289,11.6C405,7.6,541.3,25.1,535,145.1z"/>
		</defs>
		<clipPath id="SVGID_94_">
			<use xlink:href="#SVGID_93_"  style="overflow:visible;"/>
		</clipPath>
		<g class="st48">
			<g>
				<path class="st2" d="M303.8,77.9c35.3,0,70.7,0,106,0c1.6,0,1.6-2.5,0-2.5c-35.3,0-70.7,0-106,0
					C302.2,75.4,302.2,77.9,303.8,77.9L303.8,77.9z"/>
			</g>
		</g>
	</g>
	<g>
		<defs>
			<path id="SVGID_95_" d="M535,145.1c-3.7,71.2-118,41.6-118,98.2c0,146.1-104.4,185.3-183.5,185.3c-41.7,0-199.2,8.1-211.8-53
				c-4.3-20.9-2-43.4,10.5-61.3c9.9-14.3,24.9-24.4,39.1-34c26.1-17.6,56.2-36.5,54-72.2c-0.1-1.1-0.2-2.2-0.3-3.3
				C112.4,91.5,175,15.6,289,11.6C405,7.6,541.3,25.1,535,145.1z"/>
		</defs>
		<clipPath id="SVGID_96_">
			<use xlink:href="#SVGID_95_"  style="overflow:visible;"/>
		</clipPath>
		<g class="st49">
			<g>
				<path class="st2" d="M185.8,77.9c35,0,70,0,105,0c1.6,0,1.6-2.5,0-2.5c-35,0-70,0-105,0C184.2,75.4,184.2,77.9,185.8,77.9
					L185.8,77.9z"/>
			</g>
		</g>
	</g>
	<g>
		<defs>
			<path id="SVGID_97_" d="M535,145.1c-3.7,71.2-118,41.6-118,98.2c0,146.1-104.4,185.3-183.5,185.3c-41.7,0-199.2,8.1-211.8-53
				c-4.3-20.9-2-43.4,10.5-61.3c9.9-14.3,24.9-24.4,39.1-34c26.1-17.6,56.2-36.5,54-72.2c-0.1-1.1-0.2-2.2-0.3-3.3
				C112.4,91.5,175,15.6,289,11.6C405,7.6,541.3,25.1,535,145.1z"/>
		</defs>
		<clipPath id="SVGID_98_">
			<use xlink:href="#SVGID_97_"  style="overflow:visible;"/>
		</clipPath>
		<g class="st50">
			<g>
				<path class="st2" d="M304.5,65.9c36.4,0,72.9,0,109.3,0c1.6,0,1.6-2.5,0-2.5c-36.4,0-72.9,0-109.3,0
					C302.9,63.4,302.9,65.9,304.5,65.9L304.5,65.9z"/>
			</g>
		</g>
	</g>
	<g>
		<defs>
			<path id="SVGID_99_" d="M535,145.1c-3.7,71.2-118,41.6-118,98.2c0,146.1-104.4,185.3-183.5,185.3c-41.7,0-199.2,8.1-211.8-53
				c-4.3-20.9-2-43.4,10.5-61.3c9.9-14.3,24.9-24.4,39.1-34c26.1-17.6,56.2-36.5,54-72.2c-0.1-1.1-0.2-2.2-0.3-3.3
				C112.4,91.5,175,15.6,289,11.6C405,7.6,541.3,25.1,535,145.1z"/>
		</defs>
		<clipPath id="SVGID_100_">
			<use xlink:href="#SVGID_99_"  style="overflow:visible;"/>
		</clipPath>
		<g class="st51">
			<g>
				<path class="st2" d="M188.5,65.9c34.1,0,68.2,0,102.3,0c1.6,0,1.6-2.5,0-2.5c-34.1,0-68.2,0-102.3,0
					C186.9,63.4,186.9,65.9,188.5,65.9L188.5,65.9z"/>
			</g>
		</g>
	</g>
	<g>
		<defs>
			<path id="SVGID_101_" d="M535,145.1c-3.7,71.2-118,41.6-118,98.2c0,146.1-104.4,185.3-183.5,185.3c-41.7,0-199.2,8.1-211.8-53
				c-4.3-20.9-2-43.4,10.5-61.3c9.9-14.3,24.9-24.4,39.1-34c26.1-17.6,56.2-36.5,54-72.2c-0.1-1.1-0.2-2.2-0.3-3.3
				C112.4,91.5,175,15.6,289,11.6C405,7.6,541.3,25.1,535,145.1z"/>
		</defs>
		<clipPath id="SVGID_102_">
			<use xlink:href="#SVGID_101_"  style="overflow:visible;"/>
		</clipPath>
		<g class="st52">
			<g>
				<path class="st2" d="M201.7,190.3c0.9-2.2,3.2-3.5,5-4.9c2.1-1.7,4.3-3.3,6.4-5c1.3-1-0.5-2.7-1.8-1.8c-2.4,1.8-4.7,3.7-7.1,5.5
					c-1.8,1.4-3.7,2.7-4.7,4.9C198.9,190.5,201.1,191.7,201.7,190.3L201.7,190.3z"/>
			</g>
		</g>
	</g>
	<g>
		<defs>
			<path id="SVGID_103_" d="M535,145.1c-3.7,71.2-118,41.6-118,98.2c0,146.1-104.4,185.3-183.5,185.3c-41.7,0-199.2,8.1-211.8-53
				c-4.3-20.9-2-43.4,10.5-61.3c9.9-14.3,24.9-24.4,39.1-34c26.1-17.6,56.2-36.5,54-72.2c-0.1-1.1-0.2-2.2-0.3-3.3
				C112.4,91.5,175,15.6,289,11.6C405,7.6,541.3,25.1,535,145.1z"/>
		</defs>
		<clipPath id="SVGID_104_">
			<use xlink:href="#SVGID_103_"  style="overflow:visible;"/>
		</clipPath>
		<g class="st53">
			<g>
				<path class="st2" d="M19.8,347.2c47.3,0,94.7,0,142,0c1.6,0,1.6-2.5,0-2.5c-47.3,0-94.7,0-142,0
					C18.2,344.7,18.2,347.2,19.8,347.2L19.8,347.2z"/>
			</g>
		</g>
	</g>
	<g>
		<defs>
			<path id="SVGID_105_" d="M535,145.1c-3.7,71.2-118,41.6-118,98.2c0,146.1-104.4,185.3-183.5,185.3c-41.7,0-199.2,8.1-211.8-53
				c-4.3-20.9-2-43.4,10.5-61.3c9.9-14.3,24.9-24.4,39.1-34c26.1-17.6,56.2-36.5,54-72.2c-0.1-1.1-0.2-2.2-0.3-3.3
				C112.4,91.5,175,15.6,289,11.6C405,7.6,541.3,25.1,535,145.1z"/>
		</defs>
		<clipPath id="SVGID_106_">
			<use xlink:href="#SVGID_105_"  style="overflow:visible;"/>
		</clipPath>
		<g class="st54">
			<g>
				<path class="st2" d="M239.5,437.5c-3.3-13.6-0.8-28,6.1-40c7.6-13.2,20.7-22,34.9-27c23-8,46.9-2.1,66.4,11.4
					c6.3,4.4,12.1,9.4,17.3,15c1.1,1.2,2.9-0.6,1.8-1.8c-12.5-13.4-28.6-24.4-46.5-28.8c-26.8-6.7-59.1,3.9-74.5,27.5
					c-8.4,13-11.5,29.2-7.9,44.4C237.5,439.7,239.9,439,239.5,437.5L239.5,437.5z"/>
			</g>
		</g>
	</g>
	<g>
		<defs>
			<path id="SVGID_107_" d="M535,145.1c-3.7,71.2-118,41.6-118,98.2c0,146.1-104.4,185.3-183.5,185.3c-41.7,0-199.2,8.1-211.8-53
				c-4.3-20.9-2-43.4,10.5-61.3c9.9-14.3,24.9-24.4,39.1-34c26.1-17.6,56.2-36.5,54-72.2c-0.1-1.1-0.2-2.2-0.3-3.3
				C112.4,91.5,175,15.6,289,11.6C405,7.6,541.3,25.1,535,145.1z"/>
		</defs>
		<clipPath id="SVGID_108_">
			<use xlink:href="#SVGID_107_"  style="overflow:visible;"/>
		</clipPath>
		<g class="st55">
			<g>
				<path class="st2" d="M322.4,366.1c1.9-17.7,20.4-24.9,36-25.6c16-0.7,31.8,3.6,45.4,12.1c1.4,0.9,2.6-1.3,1.3-2.2
					c-15.6-9.7-34.3-14.3-52.6-11.9c-15.3,2-30.7,11-32.5,27.6C319.7,367.7,322.2,367.7,322.4,366.1L322.4,366.1z"/>
			</g>
		</g>
	</g>
	<g>
		<defs>
			<path id="SVGID_109_" d="M535,145.1c-3.7,71.2-118,41.6-118,98.2c0,146.1-104.4,185.3-183.5,185.3c-41.7,0-199.2,8.1-211.8-53
				c-4.3-20.9-2-43.4,10.5-61.3c9.9-14.3,24.9-24.4,39.1-34c26.1-17.6,56.2-36.5,54-72.2c-0.1-1.1-0.2-2.2-0.3-3.3
				C112.4,91.5,175,15.6,289,11.6C405,7.6,541.3,25.1,535,145.1z"/>
		</defs>
		<clipPath id="SVGID_110_">
			<use xlink:href="#SVGID_109_"  style="overflow:visible;"/>
		</clipPath>
		<g class="st56">
			<g>
				<path class="st2" d="M317.6,317.8c43-6.2,86.7,1.5,129.6-6c1.6-0.3,0.9-2.7-0.7-2.4c-42.9,7.5-86.6-0.1-129.6,6
					C315.3,315.7,316,318.1,317.6,317.8L317.6,317.8z"/>
			</g>
		</g>
	</g>
	<g>
		<defs>
			<path id="SVGID_111_" d="M535,145.1c-3.7,71.2-118,41.6-118,98.2c0,146.1-104.4,185.3-183.5,185.3c-41.7,0-199.2,8.1-211.8-53
				c-4.3-20.9-2-43.4,10.5-61.3c9.9-14.3,24.9-24.4,39.1-34c26.1-17.6,56.2-36.5,54-72.2c-0.1-1.1-0.2-2.2-0.3-3.3
				C112.4,91.5,175,15.6,289,11.6C405,7.6,541.3,25.1,535,145.1z"/>
		</defs>
		<clipPath id="SVGID_112_">
			<use xlink:href="#SVGID_111_"  style="overflow:visible;"/>
		</clipPath>
		<g class="st57">
			<g>
				<path class="st2" d="M220.1,274.8c5.6,11.9,10.5,25,14.1,37.6c0.5,1.5,2.9,0.9,2.4-0.7c-3.8-12.8-8.7-26.1-14.4-38.2
					C221.5,272.1,219.4,273.4,220.1,274.8L220.1,274.8z"/>
			</g>
		</g>
	</g>
	<g>
		<defs>
			<path id="SVGID_113_" d="M535,145.1c-3.7,71.2-118,41.6-118,98.2c0,146.1-104.4,185.3-183.5,185.3c-41.7,0-199.2,8.1-211.8-53
				c-4.3-20.9-2-43.4,10.5-61.3c9.9-14.3,24.9-24.4,39.1-34c26.1-17.6,56.2-36.5,54-72.2c-0.1-1.1-0.2-2.2-0.3-3.3
				C112.4,91.5,175,15.6,289,11.6C405,7.6,541.3,25.1,535,145.1z"/>
		</defs>
		<clipPath id="SVGID_114_">
			<use xlink:href="#SVGID_113_"  style="overflow:visible;"/>
		</clipPath>
		<g class="st58">
			<g>
				<path class="st2" d="M224.3,272.9c66.5,0,133,0,199.5,0c1.6,0,1.6-2.5,0-2.5c-66.5,0-133,0-199.5,0
					C222.7,270.4,222.7,272.9,224.3,272.9L224.3,272.9z"/>
			</g>
		</g>
	</g>
	<g>
		<defs>
			<path id="SVGID_115_" d="M535,145.1c-3.7,71.2-118,41.6-118,98.2c0,146.1-104.4,185.3-183.5,185.3c-41.7,0-199.2,8.1-211.8-53
				c-4.3-20.9-2-43.4,10.5-61.3c9.9-14.3,24.9-24.4,39.1-34c26.1-17.6,56.2-36.5,54-72.2c-0.1-1.1-0.2-2.2-0.3-3.3
				C112.4,91.5,175,15.6,289,11.6C405,7.6,541.3,25.1,535,145.1z"/>
		</defs>
		<clipPath id="SVGID_116_">
			<use xlink:href="#SVGID_115_"  style="overflow:visible;"/>
		</clipPath>
		<g class="st59">
			<g>
				<path class="st2" d="M237.7,270.3c-1.4-6.8,1.6-13.6,7.4-17.4c2.1-1.4,4.6-2.4,7.1-3c5.5-1.2,8.1,2.2,9.6,6.8
					c0.4,1.3,2.6,1.1,2.5-0.3c-0.3-4,1.7-7.4,5.1-9.5c3.1-2,10.3-3.9,11.9,1.4c0.4,1.2,2,1.2,2.4,0c2.2-6.6,9.4-6.7,15.1-6.7
					c1.6,0,1.6-2.5,0-2.5c-7-0.1-15,0.8-17.5,8.5c0.8,0,1.6,0,2.4,0c-1.6-5.5-8.1-6-12.8-4.3c-5.5,2.1-9.6,7-9.2,13.1
					c0.8-0.1,1.6-0.2,2.5-0.3c-1-3.3-2.4-7.1-5.8-8.6c-3.6-1.6-8.7,0.2-12,1.8c-8.3,4-13,12.6-11.1,21.7
					C235.6,272.5,238,271.9,237.7,270.3L237.7,270.3z"/>
			</g>
		</g>
	</g>
	<g>
		<defs>
			<path id="SVGID_117_" d="M535,145.1c-3.7,71.2-118,41.6-118,98.2c0,146.1-104.4,185.3-183.5,185.3c-41.7,0-199.2,8.1-211.8-53
				c-4.3-20.9-2-43.4,10.5-61.3c9.9-14.3,24.9-24.4,39.1-34c26.1-17.6,56.2-36.5,54-72.2c-0.1-1.1-0.2-2.2-0.3-3.3
				C112.4,91.5,175,15.6,289,11.6C405,7.6,541.3,25.1,535,145.1z"/>
		</defs>
		<clipPath id="SVGID_118_">
			<use xlink:href="#SVGID_117_"  style="overflow:visible;"/>
		</clipPath>
		<g class="st60">
			<g>
				<path class="st2" d="M289.5,271.4c0.5-3.5,1.5-6.9,3.9-9.6c4-4.5,10.7-5.4,14.7-0.2c0.7,0.9,2.3,0.7,2.3-0.6
					c-0.1-6.3,4.7-11.2,10.9-11.3c1.6,0,1.6-2.5,0-2.5c-7.6,0.2-13.5,6.2-13.4,13.8c0.8-0.2,1.6-0.4,2.3-0.6
					c-3.3-4.3-8.2-6.2-13.4-4.2c-6.1,2.3-8.9,8.5-9.8,14.6C286.8,272.3,289.2,273,289.5,271.4L289.5,271.4z"/>
			</g>
		</g>
	</g>
	<g>
		<defs>
			<path id="SVGID_119_" d="M535,145.1c-3.7,71.2-118,41.6-118,98.2c0,146.1-104.4,185.3-183.5,185.3c-41.7,0-199.2,8.1-211.8-53
				c-4.3-20.9-2-43.4,10.5-61.3c9.9-14.3,24.9-24.4,39.1-34c26.1-17.6,56.2-36.5,54-72.2c-0.1-1.1-0.2-2.2-0.3-3.3
				C112.4,91.5,175,15.6,289,11.6C405,7.6,541.3,25.1,535,145.1z"/>
		</defs>
		<clipPath id="SVGID_120_">
			<use xlink:href="#SVGID_119_"  style="overflow:visible;"/>
		</clipPath>
		<g class="st61">
			<g>
				<path class="st2" d="M301.4,240c3.6-8.3,13.3-10.6,20.1-4.5c0.5,0.4,1,0.4,1.5,0.2c6.1-2.7,18-5.4,20.8,3.2
					c0.5,1.5,2.9,0.9,2.4-0.7c-1.3-4.2-4.6-6.7-9-7.5c-2.3-0.4-4.8-0.3-7.1,0.1c-2.5,0.4-5.7,2.2-8.1,1.7c-2.2-0.5-4-2.5-6.5-3
					c-2.2-0.4-4.4-0.4-6.5,0.2c-4.5,1.2-8,4.6-9.8,8.8C298.6,240.2,300.7,241.5,301.4,240L301.4,240z"/>
			</g>
		</g>
	</g>
	<g>
		<defs>
			<path id="SVGID_121_" d="M535,145.1c-3.7,71.2-118,41.6-118,98.2c0,146.1-104.4,185.3-183.5,185.3c-41.7,0-199.2,8.1-211.8-53
				c-4.3-20.9-2-43.4,10.5-61.3c9.9-14.3,24.9-24.4,39.1-34c26.1-17.6,56.2-36.5,54-72.2c-0.1-1.1-0.2-2.2-0.3-3.3
				C112.4,91.5,175,15.6,289,11.6C405,7.6,541.3,25.1,535,145.1z"/>
		</defs>
		<clipPath id="SVGID_122_">
			<use xlink:href="#SVGID_121_"  style="overflow:visible;"/>
		</clipPath>
		<g class="st62">
			<g>
				<path class="st2" d="M343.6,253.5c-0.6-6.6,6.2-10.6,11.5-6.2c0.7,0.6,1.5,0.4,2-0.3c3.8-5,9.9-6.9,15.8-5.3
					c0.4,0.1,0.9,0,1.2-0.3c4.4-4.9,10.8-4.5,16.7-3.8c1.6,0.2,1.6-2.3,0-2.5c-4.1-0.5-8.4-0.9-12.4,0.4c-3,1-4.6,3.3-7.7,3.1
					c-6.4-0.3-11.9,1.9-15.8,7.1c0.7-0.1,1.3-0.2,2-0.3c-6.7-5.7-16.6-1.1-15.8,7.9C341.3,255.1,343.8,255.1,343.6,253.5
					L343.6,253.5z"/>
			</g>
		</g>
	</g>
	<g>
		<defs>
			<path id="SVGID_123_" d="M535,145.1c-3.7,71.2-118,41.6-118,98.2c0,146.1-104.4,185.3-183.5,185.3c-41.7,0-199.2,8.1-211.8-53
				c-4.3-20.9-2-43.4,10.5-61.3c9.9-14.3,24.9-24.4,39.1-34c26.1-17.6,56.2-36.5,54-72.2c-0.1-1.1-0.2-2.2-0.3-3.3
				C112.4,91.5,175,15.6,289,11.6C405,7.6,541.3,25.1,535,145.1z"/>
		</defs>
		<clipPath id="SVGID_124_">
			<use xlink:href="#SVGID_123_"  style="overflow:visible;"/>
		</clipPath>
		<g class="st63">
			<g>
				<path class="st2" d="M375.1,259.1c0.1-4.9,5.4-7,9.6-5.8c3.2,0.9,6,3,8.6,5.1c0.5,0.4,1.3,0.6,1.8,0c2.1-2.5,4.6-4.3,7.8-5.1
					c3.4-0.9,5.9,0,9.1,0.6c1.7,0.3,2.8-0.1,4.5-0.5c4.9-1.2,9-1.4,13.7,0.8c1.5,0.7,2.7-1.5,1.3-2.2c-3.3-1.5-6.7-2.4-10.4-2.2
					c-1.8,0.1-3.5,0.7-5.2,1.1c-2.5,0.6-3.8,0.1-6.3-0.4c-6.2-1.2-12.3,1.3-16.3,6.1c0.6,0,1.2,0,1.8,0c-4.1-3.3-9.1-7-14.7-6
					c-4.4,0.8-7.6,4.1-7.7,8.5C372.6,260.7,375.1,260.7,375.1,259.1L375.1,259.1z"/>
			</g>
		</g>
	</g>
	<g>
		<defs>
			<path id="SVGID_125_" d="M535,145.1c-3.7,71.2-118,41.6-118,98.2c0,146.1-104.4,185.3-183.5,185.3c-41.7,0-199.2,8.1-211.8-53
				c-4.3-20.9-2-43.4,10.5-61.3c9.9-14.3,24.9-24.4,39.1-34c26.1-17.6,56.2-36.5,54-72.2c-0.1-1.1-0.2-2.2-0.3-3.3
				C112.4,91.5,175,15.6,289,11.6C405,7.6,541.3,25.1,535,145.1z"/>
		</defs>
		<clipPath id="SVGID_126_">
			<use xlink:href="#SVGID_125_"  style="overflow:visible;"/>
		</clipPath>
		<g class="st64">
			<g>
				<path class="st2" d="M395.5,240.1c0.6-5.7,10.1-4.3,14.1-5.8c1.4-0.5,2.7-1.4,4.2-1.7c4-0.8,6.8,1.6,9.5,4c1.2,1,3-0.7,1.8-1.8
					c-2.4-2.1-5.1-4.4-8.4-4.8c-3.5-0.5-6,1.5-9.2,2.5c-3.8,1.1-8.1-0.6-11.5,1.8c-2,1.4-2.7,3.5-3,5.8
					C392.9,241.7,395.4,241.7,395.5,240.1L395.5,240.1z"/>
			</g>
		</g>
	</g>
	<g>
		<defs>
			<path id="SVGID_127_" d="M535,145.1c-3.7,71.2-118,41.6-118,98.2c0,146.1-104.4,185.3-183.5,185.3c-41.7,0-199.2,8.1-211.8-53
				c-4.3-20.9-2-43.4,10.5-61.3c9.9-14.3,24.9-24.4,39.1-34c26.1-17.6,56.2-36.5,54-72.2c-0.1-1.1-0.2-2.2-0.3-3.3
				C112.4,91.5,175,15.6,289,11.6C405,7.6,541.3,25.1,535,145.1z"/>
		</defs>
		<clipPath id="SVGID_128_">
			<use xlink:href="#SVGID_127_"  style="overflow:visible;"/>
		</clipPath>
		<g class="st65">
			<g>
				<path class="st2" d="M281.3,316.9c5.3,0,10.7,0,16,0c1.6,0,1.6-2.5,0-2.5c-5.3,0-10.7,0-16,0
					C279.7,314.4,279.7,316.9,281.3,316.9L281.3,316.9z"/>
			</g>
		</g>
	</g>
	<g>
		<defs>
			<path id="SVGID_129_" d="M535,145.1c-3.7,71.2-118,41.6-118,98.2c0,146.1-104.4,185.3-183.5,185.3c-41.7,0-199.2,8.1-211.8-53
				c-4.3-20.9-2-43.4,10.5-61.3c9.9-14.3,24.9-24.4,39.1-34c26.1-17.6,56.2-36.5,54-72.2c-0.1-1.1-0.2-2.2-0.3-3.3
				C112.4,91.5,175,15.6,289,11.6C405,7.6,541.3,25.1,535,145.1z"/>
		</defs>
		<clipPath id="SVGID_130_">
			<use xlink:href="#SVGID_129_"  style="overflow:visible;"/>
		</clipPath>
		<g class="st66">
			<g>
				<path class="st2" d="M27.9,386.4c42.4,0,84.7,0,127.1,0c1.6,0,1.6-2.5,0-2.5c-42.4,0-84.7,0-127.1,0
					C26.3,383.9,26.3,386.4,27.9,386.4L27.9,386.4z"/>
			</g>
		</g>
	</g>
	<g>
		<defs>
			<path id="SVGID_131_" d="M535,145.1c-3.7,71.2-118,41.6-118,98.2c0,146.1-104.4,185.3-183.5,185.3c-41.7,0-199.2,8.1-211.8-53
				c-4.3-20.9-2-43.4,10.5-61.3c9.9-14.3,24.9-24.4,39.1-34c26.1-17.6,56.2-36.5,54-72.2c-0.1-1.1-0.2-2.2-0.3-3.3
				C112.4,91.5,175,15.6,289,11.6C405,7.6,541.3,25.1,535,145.1z"/>
		</defs>
		<clipPath id="SVGID_132_">
			<use xlink:href="#SVGID_131_"  style="overflow:visible;"/>
		</clipPath>
		<g class="st67">
			<g>
				<path class="st2" d="M132,398.5c10.2,0,20.5,0,30.7,0c1.6,0,1.6-2.5,0-2.5c-10.2,0-20.5,0-30.7,0
					C130.4,396,130.4,398.5,132,398.5L132,398.5z"/>
			</g>
		</g>
	</g>
	<g>
		<defs>
			<path id="SVGID_133_" d="M535,145.1c-3.7,71.2-118,41.6-118,98.2c0,146.1-104.4,185.3-183.5,185.3c-41.7,0-199.2,8.1-211.8-53
				c-4.3-20.9-2-43.4,10.5-61.3c9.9-14.3,24.9-24.4,39.1-34c26.1-17.6,56.2-36.5,54-72.2c-0.1-1.1-0.2-2.2-0.3-3.3
				C112.4,91.5,175,15.6,289,11.6C405,7.6,541.3,25.1,535,145.1z"/>
		</defs>
		<clipPath id="SVGID_134_">
			<use xlink:href="#SVGID_133_"  style="overflow:visible;"/>
		</clipPath>
		<g class="st68">
			<g>
				<path class="st2" d="M186.8,370.6c7.3,0,14.6,0,21.9,0c1.6,0,1.6-2.5,0-2.5c-7.3,0-14.6,0-21.9,0
					C185.2,368.1,185.2,370.6,186.8,370.6L186.8,370.6z"/>
			</g>
		</g>
	</g>
	<g>
		<defs>
			<path id="SVGID_135_" d="M535,145.1c-3.7,71.2-118,41.6-118,98.2c0,146.1-104.4,185.3-183.5,185.3c-41.7,0-199.2,8.1-211.8-53
				c-4.3-20.9-2-43.4,10.5-61.3c9.9-14.3,24.9-24.4,39.1-34c26.1-17.6,56.2-36.5,54-72.2c-0.1-1.1-0.2-2.2-0.3-3.3
				C112.4,91.5,175,15.6,289,11.6C405,7.6,541.3,25.1,535,145.1z"/>
		</defs>
		<clipPath id="SVGID_136_">
			<use xlink:href="#SVGID_135_"  style="overflow:visible;"/>
		</clipPath>
		<g class="st69">
			<g>
				<path class="st2" d="M77.8,276.9c32.1,0,64.3,0,96.4,0c1.6,0,1.6-2.5,0-2.5c-32.1,0-64.3,0-96.4,0
					C76.2,274.4,76.2,276.9,77.8,276.9L77.8,276.9z"/>
			</g>
		</g>
	</g>
	<g>
		<defs>
			<path id="SVGID_137_" d="M535,145.1c-3.7,71.2-118,41.6-118,98.2c0,146.1-104.4,185.3-183.5,185.3c-41.7,0-199.2,8.1-211.8-53
				c-4.3-20.9-2-43.4,10.5-61.3c9.9-14.3,24.9-24.4,39.1-34c26.1-17.6,56.2-36.5,54-72.2c-0.1-1.1-0.2-2.2-0.3-3.3
				C112.4,91.5,175,15.6,289,11.6C405,7.6,541.3,25.1,535,145.1z"/>
		</defs>
		<clipPath id="SVGID_138_">
			<use xlink:href="#SVGID_137_"  style="overflow:visible;"/>
		</clipPath>
		<g class="st70">
			<g>
				<path class="st2" d="M169.8,295.5c1.6,0,1.6-2.5,0-2.5S168.2,295.5,169.8,295.5L169.8,295.5z"/>
			</g>
		</g>
	</g>
	<g>
		<defs>
			<path id="SVGID_139_" d="M535,145.1c-3.7,71.2-118,41.6-118,98.2c0,146.1-104.4,185.3-183.5,185.3c-41.7,0-199.2,8.1-211.8-53
				c-4.3-20.9-2-43.4,10.5-61.3c9.9-14.3,24.9-24.4,39.1-34c26.1-17.6,56.2-36.5,54-72.2c-0.1-1.1-0.2-2.2-0.3-3.3
				C112.4,91.5,175,15.6,289,11.6C405,7.6,541.3,25.1,535,145.1z"/>
		</defs>
		<clipPath id="SVGID_140_">
			<use xlink:href="#SVGID_139_"  style="overflow:visible;"/>
		</clipPath>
		<g class="st71">
			<g>
				<path class="st2" d="M190.6,292.2c1.6,0,1.6-2.5,0-2.5S189,292.2,190.6,292.2L190.6,292.2z"/>
			</g>
		</g>
	</g>
	<g>
		<defs>
			<path id="SVGID_141_" d="M535,145.1c-3.7,71.2-118,41.6-118,98.2c0,146.1-104.4,185.3-183.5,185.3c-41.7,0-199.2,8.1-211.8-53
				c-4.3-20.9-2-43.4,10.5-61.3c9.9-14.3,24.9-24.4,39.1-34c26.1-17.6,56.2-36.5,54-72.2c-0.1-1.1-0.2-2.2-0.3-3.3
				C112.4,91.5,175,15.6,289,11.6C405,7.6,541.3,25.1,535,145.1z"/>
		</defs>
		<clipPath id="SVGID_142_">
			<use xlink:href="#SVGID_141_"  style="overflow:visible;"/>
		</clipPath>
		<g class="st72">
			<g>
				<path class="st2" d="M470.3,130.4c1.6,0,1.6-2.5,0-2.5C468.7,127.9,468.7,130.4,470.3,130.4L470.3,130.4z"/>
			</g>
		</g>
	</g>
	<g>
		<defs>
			<path id="SVGID_143_" d="M535,145.1c-3.7,71.2-118,41.6-118,98.2c0,146.1-104.4,185.3-183.5,185.3c-41.7,0-199.2,8.1-211.8-53
				c-4.3-20.9-2-43.4,10.5-61.3c9.9-14.3,24.9-24.4,39.1-34c26.1-17.6,56.2-36.5,54-72.2c-0.1-1.1-0.2-2.2-0.3-3.3
				C112.4,91.5,175,15.6,289,11.6C405,7.6,541.3,25.1,535,145.1z"/>
		</defs>
		<clipPath id="SVGID_144_">
			<use xlink:href="#SVGID_143_"  style="overflow:visible;"/>
		</clipPath>
		<g class="st73">
			<g>
				<path class="st2" d="M489.3,82.9c1.6,0,1.6-2.5,0-2.5C487.7,80.4,487.7,82.9,489.3,82.9L489.3,82.9z"/>
			</g>
		</g>
	</g>
	<g>
		<defs>
			<path id="SVGID_145_" d="M535,145.1c-3.7,71.2-118,41.6-118,98.2c0,146.1-104.4,185.3-183.5,185.3c-41.7,0-199.2,8.1-211.8-53
				c-4.3-20.9-2-43.4,10.5-61.3c9.9-14.3,24.9-24.4,39.1-34c26.1-17.6,56.2-36.5,54-72.2c-0.1-1.1-0.2-2.2-0.3-3.3
				C112.4,91.5,175,15.6,289,11.6C405,7.6,541.3,25.1,535,145.1z"/>
		</defs>
		<clipPath id="SVGID_146_">
			<use xlink:href="#SVGID_145_"  style="overflow:visible;"/>
		</clipPath>
		<g class="st74">
			<g>
				<path class="st2" d="M492.8,89.4c1.6,0,1.6-2.5,0-2.5C491.2,86.9,491.2,89.4,492.8,89.4L492.8,89.4z"/>
			</g>
		</g>
	</g>
	<g>
		<defs>
			<path id="SVGID_147_" d="M535,145.1c-3.7,71.2-118,41.6-118,98.2c0,146.1-104.4,185.3-183.5,185.3c-41.7,0-199.2,8.1-211.8-53
				c-4.3-20.9-2-43.4,10.5-61.3c9.9-14.3,24.9-24.4,39.1-34c26.1-17.6,56.2-36.5,54-72.2c-0.1-1.1-0.2-2.2-0.3-3.3
				C112.4,91.5,175,15.6,289,11.6C405,7.6,541.3,25.1,535,145.1z"/>
		</defs>
		<clipPath id="SVGID_148_">
			<use xlink:href="#SVGID_147_"  style="overflow:visible;"/>
		</clipPath>
		<g class="st75">
			<g>
				<path class="st2" d="M143.8,123.4c1.6,0,1.6-2.5,0-2.5S142.2,123.4,143.8,123.4L143.8,123.4z"/>
			</g>
		</g>
	</g>
	<g>
		<defs>
			<path id="SVGID_149_" d="M535,145.1c-3.7,71.2-118,41.6-118,98.2c0,146.1-104.4,185.3-183.5,185.3c-41.7,0-199.2,8.1-211.8-53
				c-4.3-20.9-2-43.4,10.5-61.3c9.9-14.3,24.9-24.4,39.1-34c26.1-17.6,56.2-36.5,54-72.2c-0.1-1.1-0.2-2.2-0.3-3.3
				C112.4,91.5,175,15.6,289,11.6C405,7.6,541.3,25.1,535,145.1z"/>
		</defs>
		<clipPath id="SVGID_150_">
			<use xlink:href="#SVGID_149_"  style="overflow:visible;"/>
		</clipPath>
		<g class="st76">
			<g>
				<path class="st2" d="M147.3,113.9c1.6,0,1.6-2.5,0-2.5S145.7,113.9,147.3,113.9L147.3,113.9z"/>
			</g>
		</g>
	</g>
	<g>
		<defs>
			<path id="SVGID_151_" d="M535,145.1c-3.7,71.2-118,41.6-118,98.2c0,146.1-104.4,185.3-183.5,185.3c-41.7,0-199.2,8.1-211.8-53
				c-4.3-20.9-2-43.4,10.5-61.3c9.9-14.3,24.9-24.4,39.1-34c26.1-17.6,56.2-36.5,54-72.2c-0.1-1.1-0.2-2.2-0.3-3.3
				C112.4,91.5,175,15.6,289,11.6C405,7.6,541.3,25.1,535,145.1z"/>
		</defs>
		<clipPath id="SVGID_152_">
			<use xlink:href="#SVGID_151_"  style="overflow:visible;"/>
		</clipPath>
		<g class="st77">
			<g>
				<path class="st2" d="M149.8,241.9c1.6,0,1.6-2.5,0-2.5S148.2,241.9,149.8,241.9L149.8,241.9z"/>
			</g>
		</g>
	</g>
	<g>
		<defs>
			<path id="SVGID_153_" d="M535,145.1c-3.7,71.2-118,41.6-118,98.2c0,146.1-104.4,185.3-183.5,185.3c-41.7,0-199.2,8.1-211.8-53
				c-4.3-20.9-2-43.4,10.5-61.3c9.9-14.3,24.9-24.4,39.1-34c26.1-17.6,56.2-36.5,54-72.2c-0.1-1.1-0.2-2.2-0.3-3.3
				C112.4,91.5,175,15.6,289,11.6C405,7.6,541.3,25.1,535,145.1z"/>
		</defs>
		<clipPath id="SVGID_154_">
			<use xlink:href="#SVGID_153_"  style="overflow:visible;"/>
		</clipPath>
		<g class="st78">
			<g>
				<path class="st2" d="M301.3,391.9c1.6,0,1.6-2.5,0-2.5C299.7,389.4,299.7,391.9,301.3,391.9L301.3,391.9z"/>
			</g>
		</g>
	</g>
	<g>
		<defs>
			<path id="SVGID_155_" d="M535,145.1c-3.7,71.2-118,41.6-118,98.2c0,146.1-104.4,185.3-183.5,185.3c-41.7,0-199.2,8.1-211.8-53
				c-4.3-20.9-2-43.4,10.5-61.3c9.9-14.3,24.9-24.4,39.1-34c26.1-17.6,56.2-36.5,54-72.2c-0.1-1.1-0.2-2.2-0.3-3.3
				C112.4,91.5,175,15.6,289,11.6C405,7.6,541.3,25.1,535,145.1z"/>
		</defs>
		<clipPath id="SVGID_156_">
			<use xlink:href="#SVGID_155_"  style="overflow:visible;"/>
		</clipPath>
		<g class="st79">
			<g>
				<path class="st2" d="M360.8,364.9c1.6,0,1.6-2.5,0-2.5C359.2,362.4,359.2,364.9,360.8,364.9L360.8,364.9z"/>
			</g>
		</g>
	</g>
	<g>
		<defs>
			<path id="SVGID_157_" d="M535,145.1c-3.7,71.2-118,41.6-118,98.2c0,146.1-104.4,185.3-183.5,185.3c-41.7,0-199.2,8.1-211.8-53
				c-4.3-20.9-2-43.4,10.5-61.3c9.9-14.3,24.9-24.4,39.1-34c26.1-17.6,56.2-36.5,54-72.2c-0.1-1.1-0.2-2.2-0.3-3.3
				C112.4,91.5,175,15.6,289,11.6C405,7.6,541.3,25.1,535,145.1z"/>
		</defs>
		<clipPath id="SVGID_158_">
			<use xlink:href="#SVGID_157_"  style="overflow:visible;"/>
		</clipPath>
		<g class="st80">
			<g>
				<path class="st2" d="M327.8,389.9c1.6,0,1.6-2.5,0-2.5C326.2,387.4,326.2,389.9,327.8,389.9L327.8,389.9z"/>
			</g>
		</g>
	</g>
	<g>
		<defs>
			<path id="SVGID_159_" d="M535,145.1c-3.7,71.2-118,41.6-118,98.2c0,146.1-104.4,185.3-183.5,185.3c-41.7,0-199.2,8.1-211.8-53
				c-4.3-20.9-2-43.4,10.5-61.3c9.9-14.3,24.9-24.4,39.1-34c26.1-17.6,56.2-36.5,54-72.2c-0.1-1.1-0.2-2.2-0.3-3.3
				C112.4,91.5,175,15.6,289,11.6C405,7.6,541.3,25.1,535,145.1z"/>
		</defs>
		<clipPath id="SVGID_160_">
			<use xlink:href="#SVGID_159_"  style="overflow:visible;"/>
		</clipPath>
		<g class="st81">
			<g>
				<path class="st2" d="M217.8,406.5c6.2,0,12.4,0,18.7,0c1.6,0,1.6-2.5,0-2.5c-6.2,0-12.4,0-18.7,0
					C216.2,404,216.2,406.5,217.8,406.5L217.8,406.5z"/>
			</g>
		</g>
	</g>
	<g>
		<defs>
			<path id="SVGID_161_" d="M535,145.1c-3.7,71.2-118,41.6-118,98.2c0,146.1-104.4,185.3-183.5,185.3c-41.7,0-199.2,8.1-211.8-53
				c-4.3-20.9-2-43.4,10.5-61.3c9.9-14.3,24.9-24.4,39.1-34c26.1-17.6,56.2-36.5,54-72.2c-0.1-1.1-0.2-2.2-0.3-3.3
				C112.4,91.5,175,15.6,289,11.6C405,7.6,541.3,25.1,535,145.1z"/>
		</defs>
		<clipPath id="SVGID_162_">
			<use xlink:href="#SVGID_161_"  style="overflow:visible;"/>
		</clipPath>
		<g class="st82">
			<g>
				<path class="st2" d="M249.2,350.5c9.3,0,18.7,0,28,0c1.6,0,1.6-2.5,0-2.5c-9.3,0-18.7,0-28,0C247.6,348,247.5,350.5,249.2,350.5
					L249.2,350.5z"/>
			</g>
		</g>
	</g>
	<g>
		<defs>
			<path id="SVGID_163_" d="M535,145.1c-3.7,71.2-118,41.6-118,98.2c0,146.1-104.4,185.3-183.5,185.3c-41.7,0-199.2,8.1-211.8-53
				c-4.3-20.9-2-43.4,10.5-61.3c9.9-14.3,24.9-24.4,39.1-34c26.1-17.6,56.2-36.5,54-72.2c-0.1-1.1-0.2-2.2-0.3-3.3
				C112.4,91.5,175,15.6,289,11.6C405,7.6,541.3,25.1,535,145.1z"/>
		</defs>
		<clipPath id="SVGID_164_">
			<use xlink:href="#SVGID_163_"  style="overflow:visible;"/>
		</clipPath>
		<g class="st83">
			<g>
				<path class="st2" d="M288.5,348.5c1.6,0,1.6-2.5,0-2.5S286.9,348.5,288.5,348.5L288.5,348.5z"/>
			</g>
		</g>
	</g>
	<g>
		<defs>
			<path id="SVGID_165_" d="M535,145.1c-3.7,71.2-118,41.6-118,98.2c0,146.1-104.4,185.3-183.5,185.3c-41.7,0-199.2,8.1-211.8-53
				c-4.3-20.9-2-43.4,10.5-61.3c9.9-14.3,24.9-24.4,39.1-34c26.1-17.6,56.2-36.5,54-72.2c-0.1-1.1-0.2-2.2-0.3-3.3
				C112.4,91.5,175,15.6,289,11.6C405,7.6,541.3,25.1,535,145.1z"/>
		</defs>
		<clipPath id="SVGID_166_">
			<use xlink:href="#SVGID_165_"  style="overflow:visible;"/>
		</clipPath>
		<g class="st84">
			<g>
				<path class="st2" d="M228.3,282.9c64,0,128,0,192,0c1.6,0,1.6-2.5,0-2.5c-64,0-128,0-192,0C226.7,280.4,226.7,282.9,228.3,282.9
					L228.3,282.9z"/>
			</g>
		</g>
	</g>
	<g>
		<defs>
			<path id="SVGID_167_" d="M535,145.1c-3.7,71.2-118,41.6-118,98.2c0,146.1-104.4,185.3-183.5,185.3c-41.7,0-199.2,8.1-211.8-53
				c-4.3-20.9-2-43.4,10.5-61.3c9.9-14.3,24.9-24.4,39.1-34c26.1-17.6,56.2-36.5,54-72.2c-0.1-1.1-0.2-2.2-0.3-3.3
				C112.4,91.5,175,15.6,289,11.6C405,7.6,541.3,25.1,535,145.1z"/>
		</defs>
		<clipPath id="SVGID_168_">
			<use xlink:href="#SVGID_167_"  style="overflow:visible;"/>
		</clipPath>
		<g class="st85">
			<g>
				<path class="st2" d="M435.8,35.8c11.6,1.1,23.3,1.4,35,1.1c1.6,0,1.6-2.5,0-2.5c-11.7,0.4-23.3,0-35-1.1
					C434.2,33.1,434.2,35.6,435.8,35.8L435.8,35.8z"/>
			</g>
		</g>
	</g>
	<g>
		<defs>
			<path id="SVGID_169_" d="M535,145.1c-3.7,71.2-118,41.6-118,98.2c0,146.1-104.4,185.3-183.5,185.3c-41.7,0-199.2,8.1-211.8-53
				c-4.3-20.9-2-43.4,10.5-61.3c9.9-14.3,24.9-24.4,39.1-34c26.1-17.6,56.2-36.5,54-72.2c-0.1-1.1-0.2-2.2-0.3-3.3
				C112.4,91.5,175,15.6,289,11.6C405,7.6,541.3,25.1,535,145.1z"/>
		</defs>
		<clipPath id="SVGID_170_">
			<use xlink:href="#SVGID_169_"  style="overflow:visible;"/>
		</clipPath>
		<g class="st86">
			<g>
				<path class="st2" d="M55.8,412.9c19.7,0,39.3,0,59,0c1.6,0,1.6-2.5,0-2.5c-19.7,0-39.3,0-59,0C54.2,410.4,54.2,412.9,55.8,412.9
					L55.8,412.9z"/>
			</g>
		</g>
	</g>
	<g>
		<defs>
			<path id="SVGID_171_" d="M535,145.1c-3.7,71.2-118,41.6-118,98.2c0,146.1-104.4,185.3-183.5,185.3c-41.7,0-199.2,8.1-211.8-53
				c-4.3-20.9-2-43.4,10.5-61.3c9.9-14.3,24.9-24.4,39.1-34c26.1-17.6,56.2-36.5,54-72.2c-0.1-1.1-0.2-2.2-0.3-3.3
				C112.4,91.5,175,15.6,289,11.6C405,7.6,541.3,25.1,535,145.1z"/>
		</defs>
		<clipPath id="SVGID_172_">
			<use xlink:href="#SVGID_171_"  style="overflow:visible;"/>
		</clipPath>
		<g class="st87">
			<g>
				<path class="st2" d="M158.8,411.9c4.7,0,9.3,0,14,0c1.6,0,1.6-2.5,0-2.5c-4.7,0-9.3,0-14,0C157.2,409.4,157.2,411.9,158.8,411.9
					L158.8,411.9z"/>
			</g>
		</g>
	</g>
	<g>
		<defs>
			<path id="SVGID_173_" d="M535,145.1c-3.7,71.2-118,41.6-118,98.2c0,146.1-104.4,185.3-183.5,185.3c-41.7,0-199.2,8.1-211.8-53
				c-4.3-20.9-2-43.4,10.5-61.3c9.9-14.3,24.9-24.4,39.1-34c26.1-17.6,56.2-36.5,54-72.2c-0.1-1.1-0.2-2.2-0.3-3.3
				C112.4,91.5,175,15.6,289,11.6C405,7.6,541.3,25.1,535,145.1z"/>
		</defs>
		<clipPath id="SVGID_174_">
			<use xlink:href="#SVGID_173_"  style="overflow:visible;"/>
		</clipPath>
		<g class="st88">
			<g>
				<path class="st2" d="M72.8,364.9c8.3,0,16.7,0,25,0c1.6,0,1.6-2.5,0-2.5c-8.3,0-16.7,0-25,0C71.2,362.4,71.2,364.9,72.8,364.9
					L72.8,364.9z"/>
			</g>
		</g>
	</g>
	<g>
		<defs>
			<path id="SVGID_175_" d="M535,145.1c-3.7,71.2-118,41.6-118,98.2c0,146.1-104.4,185.3-183.5,185.3c-41.7,0-199.2,8.1-211.8-53
				c-4.3-20.9-2-43.4,10.5-61.3c9.9-14.3,24.9-24.4,39.1-34c26.1-17.6,56.2-36.5,54-72.2c-0.1-1.1-0.2-2.2-0.3-3.3
				C112.4,91.5,175,15.6,289,11.6C405,7.6,541.3,25.1,535,145.1z"/>
		</defs>
		<clipPath id="SVGID_176_">
			<use xlink:href="#SVGID_175_"  style="overflow:visible;"/>
		</clipPath>
		<g class="st89">
			<g>
				<path class="st2" d="M114.8,332.9c1.6,0,1.6-2.5,0-2.5C113.2,330.4,113.2,332.9,114.8,332.9L114.8,332.9z"/>
			</g>
		</g>
	</g>
	<g>
		<defs>
			<path id="SVGID_177_" d="M535,145.1c-3.7,71.2-118,41.6-118,98.2c0,146.1-104.4,185.3-183.5,185.3c-41.7,0-199.2,8.1-211.8-53
				c-4.3-20.9-2-43.4,10.5-61.3c9.9-14.3,24.9-24.4,39.1-34c26.1-17.6,56.2-36.5,54-72.2c-0.1-1.1-0.2-2.2-0.3-3.3
				C112.4,91.5,175,15.6,289,11.6C405,7.6,541.3,25.1,535,145.1z"/>
		</defs>
		<clipPath id="SVGID_178_">
			<use xlink:href="#SVGID_177_"  style="overflow:visible;"/>
		</clipPath>
		<g class="st90">
			<g>
				<path class="st2" d="M175.8,334.9c7.3,0,14.7,0,22,0c1.6,0,1.6-2.5,0-2.5c-7.3,0-14.7,0-22,0
					C174.2,332.4,174.2,334.9,175.8,334.9L175.8,334.9z"/>
			</g>
		</g>
	</g>
</g>
</svg>
