<svg version="1.1" id="el_LffnV6BIh" xmlns="http://www.w3.org/2000/svg" xmlns:xlink="http://www.w3.org/1999/xlink" x="0px" y="0px" viewBox="0 0 555 440" style="enable-background:new 0 0 555 440;" xml:space="preserve"><style>@-webkit-keyframes el_9hTKba91q3T_WQ2-m-xZP_Animation{0%{-webkit-transform: translate(171.10350036621094px, 248.39279174804688px) rotate(0deg) translate(-171.10350036621094px, -248.39279174804688px);transform: translate(171.10350036621094px, 248.39279174804688px) rotate(0deg) translate(-171.10350036621094px, -248.39279174804688px);}52.38%{-webkit-transform: translate(171.10350036621094px, 248.39279174804688px) rotate(6deg) translate(-171.10350036621094px, -248.39279174804688px);transform: translate(171.10350036621094px, 248.39279174804688px) rotate(6deg) translate(-171.10350036621094px, -248.39279174804688px);}98.41%{-webkit-transform: translate(171.10350036621094px, 248.39279174804688px) rotate(0deg) translate(-171.10350036621094px, -248.39279174804688px);transform: translate(171.10350036621094px, 248.39279174804688px) rotate(0deg) translate(-171.10350036621094px, -248.39279174804688px);}100%{-webkit-transform: translate(171.10350036621094px, 248.39279174804688px) rotate(0deg) translate(-171.10350036621094px, -248.39279174804688px);transform: translate(171.10350036621094px, 248.39279174804688px) rotate(0deg) translate(-171.10350036621094px, -248.39279174804688px);}}@keyframes el_9hTKba91q3T_WQ2-m-xZP_Animation{0%{-webkit-transform: translate(171.10350036621094px, 248.39279174804688px) rotate(0deg) translate(-171.10350036621094px, -248.39279174804688px);transform: translate(171.10350036621094px, 248.39279174804688px) rotate(0deg) translate(-171.10350036621094px, -248.39279174804688px);}52.38%{-webkit-transform: translate(171.10350036621094px, 248.39279174804688px) rotate(6deg) translate(-171.10350036621094px, -248.39279174804688px);transform: translate(171.10350036621094px, 248.39279174804688px) rotate(6deg) translate(-171.10350036621094px, -248.39279174804688px);}98.41%{-webkit-transform: translate(171.10350036621094px, 248.39279174804688px) rotate(0deg) translate(-171.10350036621094px, -248.39279174804688px);transform: translate(171.10350036621094px, 248.39279174804688px) rotate(0deg) translate(-171.10350036621094px, -248.39279174804688px);}100%{-webkit-transform: translate(171.10350036621094px, 248.39279174804688px) rotate(0deg) translate(-171.10350036621094px, -248.39279174804688px);transform: translate(171.10350036621094px, 248.39279174804688px) rotate(0deg) translate(-171.10350036621094px, -248.39279174804688px);}}@-webkit-keyframes el_2cSQkJP_Xg7_NeEN45zoA_Animation{0%{-webkit-transform: translate(204.02650451660156px, 210.630859375px) rotate(0deg) translate(-204.02650451660156px, -210.630859375px);transform: translate(204.02650451660156px, 210.630859375px) rotate(0deg) translate(-204.02650451660156px, -210.630859375px);}52.38%{-webkit-transform: translate(204.02650451660156px, 210.630859375px) rotate(-6deg) translate(-204.02650451660156px, -210.630859375px);transform: translate(204.02650451660156px, 210.630859375px) rotate(-6deg) translate(-204.02650451660156px, -210.630859375px);}98.41%{-webkit-transform: translate(204.02650451660156px, 210.630859375px) rotate(0deg) translate(-204.02650451660156px, -210.630859375px);transform: translate(204.02650451660156px, 210.630859375px) rotate(0deg) translate(-204.02650451660156px, -210.630859375px);}100%{-webkit-transform: translate(204.02650451660156px, 210.630859375px) rotate(0deg) translate(-204.02650451660156px, -210.630859375px);transform: translate(204.02650451660156px, 210.630859375px) rotate(0deg) translate(-204.02650451660156px, -210.630859375px);}}@keyframes el_2cSQkJP_Xg7_NeEN45zoA_Animation{0%{-webkit-transform: translate(204.02650451660156px, 210.630859375px) rotate(0deg) translate(-204.02650451660156px, -210.630859375px);transform: translate(204.02650451660156px, 210.630859375px) rotate(0deg) translate(-204.02650451660156px, -210.630859375px);}52.38%{-webkit-transform: translate(204.02650451660156px, 210.630859375px) rotate(-6deg) translate(-204.02650451660156px, -210.630859375px);transform: translate(204.02650451660156px, 210.630859375px) rotate(-6deg) translate(-204.02650451660156px, -210.630859375px);}98.41%{-webkit-transform: translate(204.02650451660156px, 210.630859375px) rotate(0deg) translate(-204.02650451660156px, -210.630859375px);transform: translate(204.02650451660156px, 210.630859375px) rotate(0deg) translate(-204.02650451660156px, -210.630859375px);}100%{-webkit-transform: translate(204.02650451660156px, 210.630859375px) rotate(0deg) translate(-204.02650451660156px, -210.630859375px);transform: translate(204.02650451660156px, 210.630859375px) rotate(0deg) translate(-204.02650451660156px, -210.630859375px);}}@-webkit-keyframes el_2AF87fbPZa_oVdezvh91_Animation{0%{-webkit-transform: translate(297.6999816894531px, 388.0999937057495px) scale(1, 1) translate(-297.6999816894531px, -388.0999937057495px);transform: translate(297.6999816894531px, 388.0999937057495px) scale(1, 1) translate(-297.6999816894531px, -388.0999937057495px);}52.38%{-webkit-transform: translate(297.6999816894531px, 388.0999937057495px) scale(1.05, 1.05) translate(-297.6999816894531px, -388.0999937057495px);transform: translate(297.6999816894531px, 388.0999937057495px) scale(1.05, 1.05) translate(-297.6999816894531px, -388.0999937057495px);}98.41%{-webkit-transform: translate(297.6999816894531px, 388.0999937057495px) scale(1, 1) translate(-297.6999816894531px, -388.0999937057495px);transform: translate(297.6999816894531px, 388.0999937057495px) scale(1, 1) translate(-297.6999816894531px, -388.0999937057495px);}100%{-webkit-transform: translate(297.6999816894531px, 388.0999937057495px) scale(1, 1) translate(-297.6999816894531px, -388.0999937057495px);transform: translate(297.6999816894531px, 388.0999937057495px) scale(1, 1) translate(-297.6999816894531px, -388.0999937057495px);}}@keyframes el_2AF87fbPZa_oVdezvh91_Animation{0%{-webkit-transform: translate(297.6999816894531px, 388.0999937057495px) scale(1, 1) translate(-297.6999816894531px, -388.0999937057495px);transform: translate(297.6999816894531px, 388.0999937057495px) scale(1, 1) translate(-297.6999816894531px, -388.0999937057495px);}52.38%{-webkit-transform: translate(297.6999816894531px, 388.0999937057495px) scale(1.05, 1.05) translate(-297.6999816894531px, -388.0999937057495px);transform: translate(297.6999816894531px, 388.0999937057495px) scale(1.05, 1.05) translate(-297.6999816894531px, -388.0999937057495px);}98.41%{-webkit-transform: translate(297.6999816894531px, 388.0999937057495px) scale(1, 1) translate(-297.6999816894531px, -388.0999937057495px);transform: translate(297.6999816894531px, 388.0999937057495px) scale(1, 1) translate(-297.6999816894531px, -388.0999937057495px);}100%{-webkit-transform: translate(297.6999816894531px, 388.0999937057495px) scale(1, 1) translate(-297.6999816894531px, -388.0999937057495px);transform: translate(297.6999816894531px, 388.0999937057495px) scale(1, 1) translate(-297.6999816894531px, -388.0999937057495px);}}@-webkit-keyframes el_x6ddydWYLv0_mhhc0rQTr_Animation{0%{-webkit-transform: translate(89.4320068359375px, 245.7541046142578px) rotate(0deg) translate(-89.4320068359375px, -245.7541046142578px);transform: translate(89.4320068359375px, 245.7541046142578px) rotate(0deg) translate(-89.4320068359375px, -245.7541046142578px);}52.38%{-webkit-transform: translate(89.4320068359375px, 245.7541046142578px) rotate(-15deg) translate(-89.4320068359375px, -245.7541046142578px);transform: translate(89.4320068359375px, 245.7541046142578px) rotate(-15deg) translate(-89.4320068359375px, -245.7541046142578px);}98.41%{-webkit-transform: translate(89.4320068359375px, 245.7541046142578px) rotate(0deg) translate(-89.4320068359375px, -245.7541046142578px);transform: translate(89.4320068359375px, 245.7541046142578px) rotate(0deg) translate(-89.4320068359375px, -245.7541046142578px);}100%{-webkit-transform: translate(89.4320068359375px, 245.7541046142578px) rotate(0deg) translate(-89.4320068359375px, -245.7541046142578px);transform: translate(89.4320068359375px, 245.7541046142578px) rotate(0deg) translate(-89.4320068359375px, -245.7541046142578px);}}@keyframes el_x6ddydWYLv0_mhhc0rQTr_Animation{0%{-webkit-transform: translate(89.4320068359375px, 245.7541046142578px) rotate(0deg) translate(-89.4320068359375px, -245.7541046142578px);transform: translate(89.4320068359375px, 245.7541046142578px) rotate(0deg) translate(-89.4320068359375px, -245.7541046142578px);}52.38%{-webkit-transform: translate(89.4320068359375px, 245.7541046142578px) rotate(-15deg) translate(-89.4320068359375px, -245.7541046142578px);transform: translate(89.4320068359375px, 245.7541046142578px) rotate(-15deg) translate(-89.4320068359375px, -245.7541046142578px);}98.41%{-webkit-transform: translate(89.4320068359375px, 245.7541046142578px) rotate(0deg) translate(-89.4320068359375px, -245.7541046142578px);transform: translate(89.4320068359375px, 245.7541046142578px) rotate(0deg) translate(-89.4320068359375px, -245.7541046142578px);}100%{-webkit-transform: translate(89.4320068359375px, 245.7541046142578px) rotate(0deg) translate(-89.4320068359375px, -245.7541046142578px);transform: translate(89.4320068359375px, 245.7541046142578px) rotate(0deg) translate(-89.4320068359375px, -245.7541046142578px);}}@-webkit-keyframes el_ijBFF3qWMak_Lb0Jj-bDw_Animation{0%{-webkit-transform: translate(261.3556909561157px, 219.86518096923828px) rotate(0deg) translate(-261.3556909561157px, -219.86518096923828px);transform: translate(261.3556909561157px, 219.86518096923828px) rotate(0deg) translate(-261.3556909561157px, -219.86518096923828px);}52.38%{-webkit-transform: translate(261.3556909561157px, 219.86518096923828px) rotate(-2deg) translate(-261.3556909561157px, -219.86518096923828px);transform: translate(261.3556909561157px, 219.86518096923828px) rotate(-2deg) translate(-261.3556909561157px, -219.86518096923828px);}98.41%{-webkit-transform: translate(261.3556909561157px, 219.86518096923828px) rotate(0deg) translate(-261.3556909561157px, -219.86518096923828px);transform: translate(261.3556909561157px, 219.86518096923828px) rotate(0deg) translate(-261.3556909561157px, -219.86518096923828px);}100%{-webkit-transform: translate(261.3556909561157px, 219.86518096923828px) rotate(0deg) translate(-261.3556909561157px, -219.86518096923828px);transform: translate(261.3556909561157px, 219.86518096923828px) rotate(0deg) translate(-261.3556909561157px, -219.86518096923828px);}}@keyframes el_ijBFF3qWMak_Lb0Jj-bDw_Animation{0%{-webkit-transform: translate(261.3556909561157px, 219.86518096923828px) rotate(0deg) translate(-261.3556909561157px, -219.86518096923828px);transform: translate(261.3556909561157px, 219.86518096923828px) rotate(0deg) translate(-261.3556909561157px, -219.86518096923828px);}52.38%{-webkit-transform: translate(261.3556909561157px, 219.86518096923828px) rotate(-2deg) translate(-261.3556909561157px, -219.86518096923828px);transform: translate(261.3556909561157px, 219.86518096923828px) rotate(-2deg) translate(-261.3556909561157px, -219.86518096923828px);}98.41%{-webkit-transform: translate(261.3556909561157px, 219.86518096923828px) rotate(0deg) translate(-261.3556909561157px, -219.86518096923828px);transform: translate(261.3556909561157px, 219.86518096923828px) rotate(0deg) translate(-261.3556909561157px, -219.86518096923828px);}100%{-webkit-transform: translate(261.3556909561157px, 219.86518096923828px) rotate(0deg) translate(-261.3556909561157px, -219.86518096923828px);transform: translate(261.3556909561157px, 219.86518096923828px) rotate(0deg) translate(-261.3556909561157px, -219.86518096923828px);}}@-webkit-keyframes el_ywi44PLvJB_8dWpSJTnd_Animation{0%{-webkit-transform: translate(287.15584564208984px, 221.59605407714844px) scale(1, 1) translate(-287.15584564208984px, -221.59605407714844px);transform: translate(287.15584564208984px, 221.59605407714844px) scale(1, 1) translate(-287.15584564208984px, -221.59605407714844px);}52.38%{-webkit-transform: translate(287.15584564208984px, 221.59605407714844px) scale(0.97, 0.97) translate(-287.15584564208984px, -221.59605407714844px);transform: translate(287.15584564208984px, 221.59605407714844px) scale(0.97, 0.97) translate(-287.15584564208984px, -221.59605407714844px);}98.41%{-webkit-transform: translate(287.15584564208984px, 221.59605407714844px) scale(1, 1) translate(-287.15584564208984px, -221.59605407714844px);transform: translate(287.15584564208984px, 221.59605407714844px) scale(1, 1) translate(-287.15584564208984px, -221.59605407714844px);}100%{-webkit-transform: translate(287.15584564208984px, 221.59605407714844px) scale(1, 1) translate(-287.15584564208984px, -221.59605407714844px);transform: translate(287.15584564208984px, 221.59605407714844px) scale(1, 1) translate(-287.15584564208984px, -221.59605407714844px);}}@keyframes el_ywi44PLvJB_8dWpSJTnd_Animation{0%{-webkit-transform: translate(287.15584564208984px, 221.59605407714844px) scale(1, 1) translate(-287.15584564208984px, -221.59605407714844px);transform: translate(287.15584564208984px, 221.59605407714844px) scale(1, 1) translate(-287.15584564208984px, -221.59605407714844px);}52.38%{-webkit-transform: translate(287.15584564208984px, 221.59605407714844px) scale(0.97, 0.97) translate(-287.15584564208984px, -221.59605407714844px);transform: translate(287.15584564208984px, 221.59605407714844px) scale(0.97, 0.97) translate(-287.15584564208984px, -221.59605407714844px);}98.41%{-webkit-transform: translate(287.15584564208984px, 221.59605407714844px) scale(1, 1) translate(-287.15584564208984px, -221.59605407714844px);transform: translate(287.15584564208984px, 221.59605407714844px) scale(1, 1) translate(-287.15584564208984px, -221.59605407714844px);}100%{-webkit-transform: translate(287.15584564208984px, 221.59605407714844px) scale(1, 1) translate(-287.15584564208984px, -221.59605407714844px);transform: translate(287.15584564208984px, 221.59605407714844px) scale(1, 1) translate(-287.15584564208984px, -221.59605407714844px);}}@-webkit-keyframes el_ywi44PLvJB_baTCfm-hl_Animation{0%{-webkit-transform: translate(287.15584564208984px, 221.59605407714844px) rotate(0deg) translate(-287.15584564208984px, -221.59605407714844px);transform: translate(287.15584564208984px, 221.59605407714844px) rotate(0deg) translate(-287.15584564208984px, -221.59605407714844px);}52.38%{-webkit-transform: translate(287.15584564208984px, 221.59605407714844px) rotate(4deg) translate(-287.15584564208984px, -221.59605407714844px);transform: translate(287.15584564208984px, 221.59605407714844px) rotate(4deg) translate(-287.15584564208984px, -221.59605407714844px);}98.41%{-webkit-transform: translate(287.15584564208984px, 221.59605407714844px) rotate(0deg) translate(-287.15584564208984px, -221.59605407714844px);transform: translate(287.15584564208984px, 221.59605407714844px) rotate(0deg) translate(-287.15584564208984px, -221.59605407714844px);}100%{-webkit-transform: translate(287.15584564208984px, 221.59605407714844px) rotate(0deg) translate(-287.15584564208984px, -221.59605407714844px);transform: translate(287.15584564208984px, 221.59605407714844px) rotate(0deg) translate(-287.15584564208984px, -221.59605407714844px);}}@keyframes el_ywi44PLvJB_baTCfm-hl_Animation{0%{-webkit-transform: translate(287.15584564208984px, 221.59605407714844px) rotate(0deg) translate(-287.15584564208984px, -221.59605407714844px);transform: translate(287.15584564208984px, 221.59605407714844px) rotate(0deg) translate(-287.15584564208984px, -221.59605407714844px);}52.38%{-webkit-transform: translate(287.15584564208984px, 221.59605407714844px) rotate(4deg) translate(-287.15584564208984px, -221.59605407714844px);transform: translate(287.15584564208984px, 221.59605407714844px) rotate(4deg) translate(-287.15584564208984px, -221.59605407714844px);}98.41%{-webkit-transform: translate(287.15584564208984px, 221.59605407714844px) rotate(0deg) translate(-287.15584564208984px, -221.59605407714844px);transform: translate(287.15584564208984px, 221.59605407714844px) rotate(0deg) translate(-287.15584564208984px, -221.59605407714844px);}100%{-webkit-transform: translate(287.15584564208984px, 221.59605407714844px) rotate(0deg) translate(-287.15584564208984px, -221.59605407714844px);transform: translate(287.15584564208984px, 221.59605407714844px) rotate(0deg) translate(-287.15584564208984px, -221.59605407714844px);}}#el_LffnV6BIh *{-webkit-animation-duration: 2.1s;animation-duration: 2.1s;-webkit-animation-iteration-count: infinite;animation-iteration-count: infinite;-webkit-animation-timing-function: cubic-bezier(0, 0, 1, 1);animation-timing-function: cubic-bezier(0, 0, 1, 1);}#el_2AF87fbPZa{opacity: 0.25;fill: #406470;enable-background: new;}#el_Myx8GNxzUb{opacity: 0.6;}#el_D5iqI0CaYi{fill: #8692B2;}#el_p_eoxFV15l{opacity: 0.6;}#el_EqaWrD7TWn{fill: #8692B2;}#el_p06ycZ-YK_{opacity: 0.6;}#el_9vIvzPm2CI{fill: #8692B2;}#el_9W2qYlUXnd{opacity: 0.6;}#el_PFCr2T13jt{fill: #8692B2;}#el_6-q5tWqi0W{opacity: 0.42;}#el_sJhnRxTH3tn{fill: #8692B2;}#el_Z3OGY3NpzOl{opacity: 0.6;}#el_IYqhRlrpKqt{fill: #8692B2;}#el_MopOD6a42iZ{fill: #5ABDEB;}#el_-7wl1nSjMEu{fill: #4A8093;}#el_xv6U3a5gCBO{fill: #4A8093;}#el_mHxVrMDZm26{fill: #FFD06A;}#el__DP15AqPG_U{fill: #FFD06A;}#el_60vJ1MLgqvy{fill: #FFD06A;}#el_-0zeKqTW39v{fill: #FFFFFF;}#el_n1v-YcwTh0j{fill: #FFFFFF;}#el_GAm6YE629SA{fill: #0B1C30;}#el_tixLcsM9g5T{fill: #0B1C30;}#el_hvB0pyCxbIw{fill: #0B1C30;}#el_e3SXvwVe9sl{fill: #0B1C30;}#el_YnqfmdDaFo9{fill: #4A8093;-webkit-transform: matrix(0.262, -0.9651, 0.9651, 0.262, -100.0433, 347.5756);transform: matrix(0.262, -0.9651, 0.9651, 0.262, -100.0433, 347.5756);}#el_4fXLNsGeEeu{fill: #0B1C30;}#el_83wJzhI2kqb{fill: #4A8093;-webkit-transform: matrix(0.924, -0.3823, 0.3823, 0.924, -68.3938, 91.002);transform: matrix(0.924, -0.3823, 0.3823, 0.924, -68.3938, 91.002);}#el_fqqXds4-FWb{fill: #0B1C30;}#el_7zU11ZzD_QD{fill: #0B1C30;}#el_Nj7H4CmChJR{fill: #0B1C30;}#el_GpdaCr3cmml{fill: #0B1C30;}#el_Wr9t-vuXs5r{fill: #0B1C30;}#el_gwrxfjHIMrt{fill: #0B1C30;}#el_iSflK0K1qCY{fill: #0B1C30;}#el_cFpAgeh-xWp{fill: #0B1C30;}#el_85BFHSNZvBv{fill: #0B1C30;}#el_iv_Sx3DDi67{fill: #0B1C30;}#el_uTanjVJ4AC_{fill: #0B1C30;}#el_5EvM4uwFqsf{fill: #0B1C30;}#el_PuG2i0sbzw7{fill: #0B1C30;}#el_qQ5l_11Wl9u{fill: #0B1C30;}#el_0xsEQtRMWq5{fill: #0B1C30;}#el_yXvzBArkXdP{fill: #0B1C30;}#el_JvBi4jWa-nX{fill: #0B1C30;}#el_XIPMsW2NZLB{fill: #0B1C30;}#el_p-SA0PXQE45{fill: #0B1C30;}#el_M4FzQVzI_FU{fill: #4C5D8D;}#el_mOJFHtMC6lC{fill: #4C5D8D;}#el_liifTRcUFe5{fill: #4C5D8D;}#el_7-IR4sQQeAc{fill: #4C5D8D;}#el_Jfv9IXggauO{fill: #4C5D8D;}#el_sNx09LXA-Rh{fill: #4C5D8D;}#el_QXr3j0ir19G{fill: #4C5D8D;}#el_HolYX8is39R{fill: #4C5D8D;}#el_pp-mePEU__s{fill: #4C5D8D;}#el_To1gY_8OEAG{fill: #4C5D8D;}#el_3_iFupod2og{fill: #4C5D8D;}#el_EHd7pxX-5OW{fill: #4C5D8D;}#el_ia7vkKnlJ0g{fill: #4C5D8D;}#el_ZpwdAlmnm2C{fill: #4C5D8D;}#el_c6ZtiOnX27I{fill: #4C5D8D;}#el_us-vZ4qaDz_{fill: #4C5D8D;}#el_6SY7Jr7y639{fill: #5AC0EE;}#el_fs54_y001Et{fill: #0B1C30;}#el_ywi44PLvJB_baTCfm-hl{-webkit-animation-name: el_ywi44PLvJB_baTCfm-hl_Animation;animation-name: el_ywi44PLvJB_baTCfm-hl_Animation;-webkit-transform: translate(287.15584564208984px, 221.59605407714844px) rotate(0deg) translate(-287.15584564208984px, -221.59605407714844px);transform: translate(287.15584564208984px, 221.59605407714844px) rotate(0deg) translate(-287.15584564208984px, -221.59605407714844px);}#el_ywi44PLvJB_8dWpSJTnd{-webkit-animation-name: el_ywi44PLvJB_8dWpSJTnd_Animation;animation-name: el_ywi44PLvJB_8dWpSJTnd_Animation;-webkit-transform: translate(287.15584564208984px, 221.59605407714844px) scale(1, 1) translate(-287.15584564208984px, -221.59605407714844px);transform: translate(287.15584564208984px, 221.59605407714844px) scale(1, 1) translate(-287.15584564208984px, -221.59605407714844px);}#el_ijBFF3qWMak_Lb0Jj-bDw{-webkit-animation-name: el_ijBFF3qWMak_Lb0Jj-bDw_Animation;animation-name: el_ijBFF3qWMak_Lb0Jj-bDw_Animation;-webkit-transform: translate(261.3556909561157px, 219.86518096923828px) rotate(0deg) translate(-261.3556909561157px, -219.86518096923828px);transform: translate(261.3556909561157px, 219.86518096923828px) rotate(0deg) translate(-261.3556909561157px, -219.86518096923828px);}#el_x6ddydWYLv0_mhhc0rQTr{-webkit-animation-name: el_x6ddydWYLv0_mhhc0rQTr_Animation;animation-name: el_x6ddydWYLv0_mhhc0rQTr_Animation;-webkit-transform: translate(89.4320068359375px, 245.7541046142578px) rotate(0deg) translate(-89.4320068359375px, -245.7541046142578px);transform: translate(89.4320068359375px, 245.7541046142578px) rotate(0deg) translate(-89.4320068359375px, -245.7541046142578px);}#el_2AF87fbPZa_oVdezvh91{-webkit-animation-name: el_2AF87fbPZa_oVdezvh91_Animation;animation-name: el_2AF87fbPZa_oVdezvh91_Animation;-webkit-transform: translate(297.6999816894531px, 388.0999937057495px) scale(1, 1) translate(-297.6999816894531px, -388.0999937057495px);transform: translate(297.6999816894531px, 388.0999937057495px) scale(1, 1) translate(-297.6999816894531px, -388.0999937057495px);}#el_2cSQkJP_Xg7_NeEN45zoA{-webkit-animation-name: el_2cSQkJP_Xg7_NeEN45zoA_Animation;animation-name: el_2cSQkJP_Xg7_NeEN45zoA_Animation;}#el_9hTKba91q3T_WQ2-m-xZP{-webkit-animation-name: el_9hTKba91q3T_WQ2-m-xZP_Animation;animation-name: el_9hTKba91q3T_WQ2-m-xZP_Animation;}</style>

<g id="el_2AF87fbPZa_oVdezvh91" data-animator-group="true" data-animator-type="2"><ellipse cx="297.7" cy="388.1" rx="211.2" ry="9.7" id="el_2AF87fbPZa"/></g>
<g id="el_ywi44PLvJB_baTCfm-hl" data-animator-group="true" data-animator-type="1"><g id="el_ywi44PLvJB_8dWpSJTnd" data-animator-group="true" data-animator-type="2"><g id="el_ywi44PLvJB">
	<g id="el_Myx8GNxzUb">
		<g id="el_joPKMEE-HZ">
			<path d="M296,171.1c3.5-14.3,13.7-25.9,27.5-31c7.8-2.9,16-4.1,24.1-6.1c3.2-0.8,6.2-2.2,8.6-4.3&#10;&#9;&#9;&#9;&#9;c10-8.8,9.4-26,4.1-37.2c-2-4.2-5.3-8.9-10.2-9.6c-5.4-0.7-10,3.9-11.9,8.5c-6,14.8,7.4,30.9,20.8,35.4c5.3,1.8,11,2.2,16.6,1.5&#10;&#9;&#9;&#9;&#9;c8-1,15.5-5.6,23.6-5.8c9.6-0.2,17.6,6.9,19.3,16.1c1.2,7,1.9,17.3-4.8,21.6c-1.3,0.9-0.1,3,1.3,2.2c7.8-5.1,7.4-16.3,5.9-24.5&#10;&#9;&#9;&#9;&#9;c-1.8-9.7-10.1-17.6-20.1-18c-6.1-0.2-11.9,2.2-17.7,4c-6.6,2-13.3,2.8-20.1,1.3c-8.9-2-16.7-7.8-20.9-16&#10;&#9;&#9;&#9;&#9;c-3.3-6.6-4.5-16,1.5-21.5c4.7-4.4,9.7-2,12.8,2.9c6.8,10.5,8,30.3-3.3,38.3c-4.6,3.2-10.6,3.5-15.9,4.7&#10;&#9;&#9;&#9;&#9;c-7.4,1.7-15.1,3.6-21.7,7.5c-11,6.3-18.9,17.1-21.9,29.4C293.2,172,295.6,172.7,296,171.1L296,171.1z" id="el_D5iqI0CaYi"/>
		</g>
	</g>
	<g id="el_p_eoxFV15l">
		<g id="el_Eaxy9M8lrG">
			<path d="M67.9,286.8c-18.7,16.7-41,44.5-33.2,71.6c2.3,8.1,7.4,15.4,16.5,14.9c10-0.6,19.9-6.6,28.5-11.2&#10;&#9;&#9;&#9;&#9;c15.2-8.2,30-17.1,46.1-23.4c1.5-0.6,0.8-3-0.7-2.4c-15.2,5.8-29.2,14-43.5,21.8c-6.2,3.4-12.5,6.9-19.1,9.6&#10;&#9;&#9;&#9;&#9;c-4.6,1.8-10.1,3.9-15,2.9c-6.5-1.3-9.7-9.3-10.9-15c-1.7-8-0.5-16.4,2-24.1c5.6-16.7,18.1-31.4,31.1-43&#10;&#9;&#9;&#9;&#9;C70.8,287.5,69.1,285.7,67.9,286.8L67.9,286.8z" id="el_EqaWrD7TWn"/>
		</g>
	</g>
	<g id="el_p06ycZ-YK_">
		<g id="el_tVDfvKDB7H">
			<path d="M458.7,246.9c5.9-14.1,18.2-18.9,32.3-21.3c12.8-2.1,25.2-6.2,36.1-13.3c7.8-5.1,15.1-13.1,14-23.1&#10;&#9;&#9;&#9;&#9;c-0.8-7.1-7.9-12.3-13.9-15.2c-7.2-3.4-15-3.2-21,2.4c-3.4,3.1-5.5,7.9-3.5,12.4c1.6,3.7,5.7,6,9.7,5.1&#10;&#9;&#9;&#9;&#9;c6.5-1.5,9.2-9.5,10.3-15.2c1.8-9.3-1-15.9-8.9-21.1c-5.1-3.3-20.6-8-31.3-11.6c-12.2-4.1-23.8-10.6-29.3-14.9&#10;&#9;&#9;&#9;&#9;c-1.2-1-3,0.8-1.8,1.8c5.4,4.3,16.1,10.6,27.8,14.4c14.5,4.7,34.3,9.8,39.3,17.7c4.2,6.6,2.3,18.2-2.8,23.9&#10;&#9;&#9;&#9;&#9;c-2.9,3.3-7.9,3.9-10.5-0.2c-3-5,1.6-10.3,5.8-12.7c7.6-4.3,16.8,0.3,22.6,5.6c7.6,6.9,5.2,16.8-1.7,23.7&#10;&#9;&#9;&#9;&#9;c-7.4,7.4-18.3,12.1-28.2,15c-9.8,3-20.7,2.9-30,7.3c-8.1,3.8-14.1,10.6-17.5,18.8C455.7,247.7,458.1,248.4,458.7,246.9&#10;&#9;&#9;&#9;&#9;L458.7,246.9z" id="el_9vIvzPm2CI"/>
		</g>
	</g>
	<g id="el_9W2qYlUXnd">
		<g id="el_udUMKyKnRi">
			<path d="M176,203.6c-9-4.4-16-12.2-19.3-21.7c-3.6-10.1-1.7-19.8,1.6-29.7c5-15,10.3-36.2-8.6-43.8&#10;&#9;&#9;&#9;&#9;c-5.8-2.3-12.7-2.4-18.2,0.6c-4.3,2.4-8.2,7.4-4.5,12c3.3,4.1,7.6,2.1,9.2-2.4c2.4-6.8-1.2-14.3-6.7-18.4&#10;&#9;&#9;&#9;&#9;c-8.3-6.2-19.2-5-28.8-4.7c-6.4,0.2-13.7-0.2-18.4-5.1c-7.3-7.6-0.6-19.4,9.6-18c1.6,0.2,2.3-2.2,0.7-2.4&#10;&#9;&#9;&#9;&#9;c-12.8-1.7-21.5,13.4-11.5,22.7c13.4,12.6,35.6-2.3,48.8,11.1c3.3,3.4,5.8,8.8,4.2,13.5c-0.9,2.7-3.7,4.8-5.5,1.4&#10;&#9;&#9;&#9;&#9;c-1.7-3.2,1.5-6.1,4.2-7.6c7-3.9,16.6-1.9,22.3,3.5c14.9,14.2-1.8,36.5-2.9,52.8c-1,15.9,8.4,31.3,22.6,38.3&#10;&#9;&#9;&#9;&#9;C176.1,206.5,177.4,204.3,176,203.6L176,203.6z" id="el_PFCr2T13jt"/>
		</g>
	</g>
	<g id="el_6-q5tWqi0W">
		<g id="el_ckWxfzPXdfq">
			<path d="M262,185.9c-10.1-6-21.7-13.9-27.7-24.2c-1.7-2.9-2.9-6.4-1.5-9.7c1.7-3.9,8.5-8.7,12.9-8.4&#10;&#9;&#9;&#9;&#9;c7.3,0.4,2.2,10.8-2.9,11.7c-12.5,2.2-23.7-5.5-25.4-18.2c-2.6-19.3,7-43.1,27.9-46.5c11.3-1.8,24.2,1,34.4,6&#10;&#9;&#9;&#9;&#9;c1.4,0.7,2.7-1.5,1.3-2.2c-11.2-5.5-25.2-8.5-37.6-6c-9.8,2-17.8,8.1-22.4,16.9c-5.4,10.2-8.4,24.5-5.3,35.9&#10;&#9;&#9;&#9;&#9;c3.2,12,17.4,20.3,29.6,16c5-1.8,8.9-9.7,4.9-14.2c-5.4-6.2-18,2.9-20,8.8c-3,8.9,6.5,17.8,12.4,23c5.6,4.9,11.8,9.4,18.2,13.3&#10;&#9;&#9;&#9;&#9;C262.1,188.8,263.4,186.7,262,185.9L262,185.9z" id="el_sJhnRxTH3tn"/>
		</g>
	</g>
	<g id="el_Z3OGY3NpzOl">
		<g id="el_bj2AbDHyK6a">
			<path d="M77.9,251.1c5.1-3.1,6.5-11.3,20.1-17.8c5.5-2.6,10-3.1,17.5-3.1c9.3,0,26.3,5.8,33.6,7.4&#10;&#9;&#9;&#9;&#9;c1.6,0.4,2.2-2.1,0.7-2.4c-8-1.8-23.8-6.9-34.4-6.9c-29.2,0.1-33.2,16.4-38.7,20.5C75.5,251.1,77.9,251.1,77.9,251.1z" id="el_IYqhRlrpKqt"/>
		</g>
	</g>
</g></g></g>
<g id="el_ijBFF3qWMak_Lb0Jj-bDw" data-animator-group="true" data-animator-type="1"><g id="el_ijBFF3qWMak">
	<g id="el_64revWxmaQg">
		<path d="M210.8,224.5l-7.4-8.2c0,0-1.2-2.7-3.9-4.5s-10.1-21-22.4-17.5s-10.9,9.9-10.9,9.9L156,210&#10;&#9;&#9;&#9;c0,0-20.3,3.5-18.5,15.3s5.2,15.9,5.2,15.9s-6.5,6.1-5.3,11c1.2,4.9,1.9,8.4,7.8,12c5.9,3.6,11.7,6.2,11.7,6.2s-6.7,7-1.5,12.2&#10;&#9;&#9;&#9;c5.1,5.2,14.8,3.5,20.7-1.8c1.1-1,16.2,20,16.2,20l2.3,5.7c0,0-58-13.7-75.4-36.1s-46.8-73.5-53.3-70.8s0,24.4,0,24.4&#10;&#9;&#9;&#9;s-6.8-18.1-16-16.1s4.2,24.1,4.2,24.1s-7.8-20.9-14.5-17.7c-1.8,0.8-3.8,2.5-2.7,8c3.2,15.4,17.4,47.1,30.4,63.3&#10;&#9;&#9;&#9;c18.6,23.2,49.2,56.7,98.6,66.8c49.5,10.1,43.8,6.2,43.8,6.2l26,13.1c0,0,24.5,10.6,56.1,12.9c29.8,2.2,64.1-4.7,81.4-25.5&#10;&#9;&#9;&#9;c15.2-18.3,10.8-33.5,20-42.8c6.6-6.7,16.5-15.7,23.7-18.3c7.2-2.6,11.7,1.3,11.7,1.3s23.6,4.3-13.5,56.4c0,0,11.5,12,29.8,21.7&#10;&#9;&#9;&#9;c20,10.6,47.2,18.8,55,10.2c8-8.8-22.1-29.4-22.1-29.4s34.4-82.7-17.1-109.9c-36.6-19.3-68.3,1.1-68.3,1.1s4.7-11,25.5-23.4&#10;&#9;&#9;&#9;c15-8.9,49.3-22,52.9-29c0,0,21-64.6-7.1-80.8c-3.9-2.3-7.5-0.4-16.7,7.2c-8.7,7.1-20.8,40-20.8,40s-13.7-4.4-29.2-2.2&#10;&#9;&#9;&#9;c-14.6,2.1-30.7,10.3-43.4,23.9c-26.2,28.2-27.2,60.1-27.2,60.1s-0.4-64.6-34.1-75.6c-11.7-3.8-26.9,1.2-36.6,11.8&#10;&#9;&#9;&#9;c-18.3,20-27.1,55.1-27.1,55.1l-5-4.1c0,0,3.3-13.1-0.5-15.3S210.8,224.5,210.8,224.5z" id="el_MopOD6a42iZ"/>
		<path d="M180.5,268c0-9.2-11.3-14.1-17.4-18.2c4.6-3.9,7.8-9.3,4.1-15.3c5-0.3,7.5-5.1,5-9.5c4.8,2.5,6.5-1.6,5.4-6&#10;&#9;&#9;&#9;c4.1,1.7,9.4-0.5,11.1-4.6c3.6-1.8,8,0.4,11.5,0.1c-0.9-2.4-11.4-21.7-23.8-19.9c-13.4,1.9-13,11.2-13,11.2s-22,1.3-25.3,15.4&#10;&#9;&#9;&#9;c-3.3,14.1,5.3,21.8,5.3,21.8s-11.1,2.8-2.1,16.6c5,7.7,16.7,9.6,16.7,9.6s-0.1,0.2-0.4,0.5c3-2.2,6-4.7,8.6-6.9&#10;&#9;&#9;&#9;C169.5,268.1,180.8,274.4,180.5,268z" id="el_-7wl1nSjMEu"/>
		<path d="M252.6,291.8c9-8.8,12-28.1,12-28.1s-4.9-28.7-28-23.6l0,0c-2.3,0.6-2.7,3.1-2.9,6.1&#10;&#9;&#9;&#9;c-13.4-3.2-27.2,9.7-33.1,20c-2.7,6.3-1.1,14.6,4.3,19.4c-2.3,0.4-8.6,2.2-11.1,7.3c-1.7,3.4,1.7,20.8,15.5,22.9&#10;&#9;&#9;&#9;C226,318.4,246.1,297.9,252.6,291.8z" id="el_xv6U3a5gCBO"/>
		<path d="M211,315.2l17.3-4.1c0,0,23.8,12.2,27.4,35.7c3.7,23.6,1.1,33.7-9.2,33.5s-9.6-10.5-9.6-10.5s6.6-18.9-1-29.1&#10;&#9;&#9;&#9;C228.3,330.5,211,315.2,211,315.2z" id="el_mHxVrMDZm26"/>
		<path d="M257,246.6l20.4,4l0.2,14l-13.8-2.9c0,0-0.1-3.2-2.6-8.3C258.8,248.2,257,246.6,257,246.6z" id="el__DP15AqPG_U"/>
		<path d="M146.2,346.9c0,0-7.3,24.5,7.5,24.8s11.2,0.3,11.2,0.3s-7.2,5.1,2.7,11.3c9.9,6.2,64.6,3.9,64.6,3.9l49.5-3.2&#10;&#9;&#9;&#9;l-70.4-24.6L146.2,346.9z" id="el_60vJ1MLgqvy"/>
		<path d="M182.7,256.2c0,0-3.5-5.5,0.8-9.4c4.2-3.9,8.1-4.3,8.1-4.3l3,7.3c0,0-3,4.3-5.9,5.8&#10;&#9;&#9;&#9;C185.8,257.1,182.7,256.2,182.7,256.2z" id="el_-0zeKqTW39v"/>
		<path d="M200,233.9c0,0-1.9-5.8,1.8-8.9s10.6,1.9,10.6,1.9s-4.2,5.9-6.8,7.8S200,233.9,200,233.9z" id="el_n1v-YcwTh0j"/>
		<g id="el_178VfC_mZlN">
			<g id="el_NLAfFqMQYZu">
				<path d="M183.8,255.9c-2.6-4.5,0.1-9.1,4-11.7c1.6-1.1,3.4-2,5.3-2c0.4,0,0.8,0,1.2,0.1c0.6,0-0.4-0.5-0.3-0.3&#10;&#9;&#9;&#9;&#9;&#9;c2,3.8-0.3,7.6-3.2,10.3c-1.4,1.4-5.1,4.6-7.4,3.3c-1.1-0.6-2.1,1.1-1,1.7c3.7,2,8.4-2,10.7-4.4c2.4-2.6,5.9-8.7,2.6-12&#10;&#9;&#9;&#9;&#9;&#9;c-2.3-2.4-7.7,0.7-9.7,2.1c-4.4,3.3-7,8.7-4,13.9C182.7,258,184.5,257,183.8,255.9z" id="el_GAm6YE629SA"/>
			</g>
		</g>
		<path d="M186.2,243.9c0,0-0.3,4,2.8,5.9c2.4,1.5,5.3-0.1,5.3-0.1s1.6-2.6,1.6-4.5c-0.1-2.8-1-3.9-1-3.9&#10;&#9;&#9;&#9;s-1.6-0.7-4.5,0.2C187.6,242.3,186.2,243.9,186.2,243.9z" id="el_tixLcsM9g5T"/>
		<g id="el_UxZw0mA85jt">
			<g id="el_OD2AoeWoDKZ">
				<path d="M201.9,234.9c-2.8-4.2-0.8-8.6,2.7-11.7c1.5-1.3,3.3-2.4,5.2-2.7c0.4-0.1,1.1-0.2,1.6-0.1&#10;&#9;&#9;&#9;&#9;&#9;c0.4,0.1-0.1-0.1-0.2-0.2c4.7,4.3-5.2,16.3-9.6,14.2c-1.2-0.5-2.2,1.2-1,1.7c3.7,1.7,7.8-2.1,10-4.6c2.3-2.7,6-9.5,2.2-12.7&#10;&#9;&#9;&#9;&#9;&#9;c-2.3-1.9-7,0.9-8.8,2.3c-4.5,3.5-7.3,9.5-3.7,14.7C200.9,236.9,202.7,235.9,201.9,234.9z" id="el_hvB0pyCxbIw"/>
			</g>
		</g>
		<path d="M203.5,222.7c0,0-0.1,4,3.2,5.7c2.5,1.3,5.3-0.5,5.3-0.5s1.5-2.7,1.2-4.6c-0.3-2.7-1.3-3.8-1.3-3.8&#10;&#9;&#9;&#9;s-1.7-0.6-4.5,0.5C204.7,221.1,203.5,222.7,203.5,222.7z" id="el_e3SXvwVe9sl"/>
		<g id="el_9hTKba91q3T_WQ2-m-xZP" data-animator-group="true" data-animator-type="1"><g id="el_9hTKba91q3T">
			
				<ellipse cx="177.2" cy="239.2" rx="8.3" ry="4.1" id="el_YnqfmdDaFo9"/>
			<g id="el_nnBAAhSgZbD">
				<path d="M178.9,232.1c4.2,1.8,1.2,13.8-3.1,14s-1.7-14.6,3.3-13.9c1.3,0.2,1.8-1.7,0.5-1.9c-7-1-11.7,15.8-5,17.9&#10;&#9;&#9;&#9;&#9;&#9;c6.8,2.2,11.6-15.1,5.2-17.8C178.8,229.9,177.7,231.6,178.9,232.1z" id="el_4fXLNsGeEeu"/>
			</g>
		</g></g>
		<g id="el_2cSQkJP_Xg7_NeEN45zoA" data-animator-group="true" data-animator-type="1"><g id="el_2cSQkJP_Xg7">
			<ellipse cx="194.8" cy="217.6" rx="8.3" ry="4.1" id="el_83wJzhI2kqb"/>
			<g id="el_QTQi9g24z2r">
				<path d="M201.6,214.6c1.2,4.4-10.8,9.3-12.9,5.7c-0.9-1.5,0-2.3,1.2-3.4c0.9-0.8,1.9-1.4,3-1.9&#10;&#9;&#9;&#9;&#9;&#9;c2.1-1,7.3-2.9,8.8-0.2c0.6,1.1,2.4,0.1,1.7-1c-3.5-6-19.9,0.7-17.2,7.2c2.8,6.5,19.1-0.2,17.3-7&#10;&#9;&#9;&#9;&#9;&#9;C203.2,212.9,201.2,213.4,201.6,214.6z" id="el_fqqXds4-FWb"/>
			</g>
		</g></g>
		<g id="el_ZL__DLkbSg8">
			<g id="el_nH-SAck9c_M">
				<path d="M160.2,258.3c3.2,4.2,11.9,16.9,18.4,14.2c12.8-5.2-10.3-20.8-14.6-23.6c0,0.6,0,1.2,0,1.7&#10;&#9;&#9;&#9;&#9;&#9;c10.3-5.5,5.5-18.6-1.6-24.5c-1-0.8-2.4,0.6-1.4,1.4c6.1,5.1,11.1,16.6,2,21.4c-0.7,0.4-0.6,1.3,0,1.7c3.2,2,6.3,4.2,9.2,6.7&#10;&#9;&#9;&#9;&#9;&#9;c1.9,1.6,3.6,3.3,5.1,5.2c1.6,1.9,4.3,4.2,1.8,7.1c-1.5,1.8-2.3,1.2-3.9,0.7c-5.2-1.8-10-8.8-13.3-13&#10;&#9;&#9;&#9;&#9;&#9;C161.2,256.3,159.5,257.3,160.2,258.3L160.2,258.3z" id="el_7zU11ZzD_QD"/>
			</g>
		</g>
		<g id="el_GWO7EEiSftG">
			<g id="el_6GLmWnW7wIm">
				<path d="M174,232.7c2.3-5.9-0.2-12-5.3-15.4c-1.1-0.7-2.1,1-1,1.7c4.4,2.9,6.4,8.1,4.4,13.1&#10;&#9;&#9;&#9;&#9;&#9;C171.6,233.3,173.5,233.9,174,232.7L174,232.7z" id="el_Nj7H4CmChJR"/>
			</g>
		</g>
		<g id="el_I9NSJ1u6hVe">
			<g id="el_tmmm-SJs8JW">
				<path d="M179.9,224.8c2.2-6.3-0.8-12.7-6.3-16c-1.1-0.7-2.1,1.1-1,1.7c4.7,2.9,7.3,8.3,5.4,13.8&#10;&#9;&#9;&#9;&#9;&#9;C177.6,225.4,179.5,226,179.9,224.8L179.9,224.8z" id="el_GpdaCr3cmml"/>
			</g>
		</g>
		<g id="el_gAMtSPihIX2">
			<g id="el_oevUZIi8wh8">
				<path d="M184.9,204.7c2.9,1,6.1,6.7,4.9,9.8c-0.5,1.2,1.5,1.7,1.9,0.5c1.6-4.1-2.2-10.9-6.3-12.3&#10;&#9;&#9;&#9;&#9;&#9;C184.2,202.4,183.7,204.3,184.9,204.7L184.9,204.7z" id="el_Wr9t-vuXs5r"/>
			</g>
		</g>
		<g id="el_ckevyfMBx5c">
			<g id="el_2vH_h25x-Gr">
				<path d="M167.2,204.5c1.5-9.7,12-11.1,19.4-6.5c4.6,2.9,8.1,8,9.5,13.3c0.3,1.2,2.3,0.7,1.9-0.5&#10;&#9;&#9;&#9;&#9;&#9;c-1.8-6.8-6.9-13.4-13.5-16c-8.3-3.3-17.8-0.4-19.2,9.2C165.1,205.2,167.1,205.8,167.2,204.5L167.2,204.5z" id="el_gwrxfjHIMrt"/>
			</g>
		</g>
		<g id="el_E8B8ECZMT8v">
			<g id="el_gzkjIiRtDRj">
				<path d="M238.9,259.8c-3.2-3.2-9.2-6.9-13.4-3.3c-5.1,4.3-3.8,13.8-2.5,19.5c0.3,1.3,2.2,0.7,1.9-0.5&#10;&#9;&#9;&#9;&#9;&#9;c-1-4.8-2-11.8,0.8-16.1c3-4.8,8.9-1.1,11.8,1.8C238.4,262.1,239.8,260.7,238.9,259.8L238.9,259.8z" id="el_iSflK0K1qCY"/>
			</g>
		</g>
		<g id="el_NkRmedGhBZs">
			<g id="el_D029igqhGtm">
				<path d="M445.3,354.9c8.3,4.3,23.4,10.7,32,3.4c1-0.8-0.4-2.2-1.4-1.4c-7.7,6.4-22.3,0-29.6-3.7&#10;&#9;&#9;&#9;&#9;&#9;C445.2,352.6,444.2,354.3,445.3,354.9L445.3,354.9z" id="el_cFpAgeh-xWp"/>
			</g>
		</g>
		<g id="el_xmOcE35-JJj">
			<path d="M138.1,258.3c3.3,6.1,10.9,10.1,17.3,12.6c-2.4,2.9-3.5,6.3-1.9,10.3c4.2,10.2,16.6,5.5,23.1,0.6&#10;&#9;&#9;&#9;&#9;c1-0.8,0-2.5-1-1.7c-5.5,4.1-16.6,9.4-20.3,0.4c-2.9-7.1,5.6-12.6,11.2-14.8c1.3-0.6,0.8-2.5-0.4-2c-3,1.2-6.5,3.1-9.2,5.6&#10;&#9;&#9;&#9;&#9;c-5-1.9-10.2-4.7-14-8.3c-4.2-4-6.9-15.5,0.6-18c0.6-0.2,1-0.9,0.6-1.5c-3.5-5.5-6.8-13.1-5.2-19.7c1.7-7.1,9.6-12.4,16.9-10.9&#10;&#9;&#9;&#9;&#9;c1.3,0.2,1.8-1.7,0.5-1.9c-7.6-1.5-15.3,3-18.5,9.9c-3.3,7.1,0,16.2,3.9,22.7C136.4,244.6,135.6,253.4,138.1,258.3z" id="el_85BFHSNZvBv"/>
			<path d="M165.7,270.9c-0.2,1.1-0.5,2.2-0.9,3.3c-1.3-0.3-2.6-0.5-3.9-0.5c-1.3,0-1.3,2,0,2c1.1,0,2.2,0.1,3.3,0.4&#10;&#9;&#9;&#9;&#9;c-0.6,1.6-1.3,3.2-2,4.7c-0.5,1,1.2,2,1.7,0.9c0.8-1.7,1.5-3.4,2.2-5.1c1.6,0.5,3.1,1.3,4.4,2.2c1.1,0.7,2.1-1,1-1.7&#10;&#9;&#9;&#9;&#9;c-1.5-0.9-3.1-1.7-4.8-2.3c0.4-1.1,0.7-2.3,0.9-3.4C167.8,270.1,165.9,269.6,165.7,270.9z" id="el_iv_Sx3DDi67"/>
			<path d="M493.9,370.9c-4.9-5-10.3-9.4-16-13.3c10.1-21.8,15.5-49,9.8-72.5c-4.1-17-16-32.3-31.7-40.2&#10;&#9;&#9;&#9;&#9;c-12.6-6.3-27-7.2-40.6-4.5c-7,1.4-14.3,3.6-20.8,6.9c4.6-6.6,11.2-12.1,17.7-16.4c10-6.6,21.1-11.6,32-16.5&#10;&#9;&#9;&#9;&#9;c5.6-2.5,11.1-5.1,16.6-7.7c4-1.9,7.3-3.3,9.7-7.2c5.3-8.5,5.8-20.4,6.9-30.1c1.3-11.5,1.6-23.3-0.8-34.7&#10;&#9;&#9;&#9;&#9;c-1.6-7.3-4.1-16.1-12-18.8c-1.7-0.6-3.4-0.8-4.9-0.6c-0.1,0-0.2,0-0.2,0c-6.2,0.7-11,6.7-14.8,11.6c-6.3,8.2-11,17.4-15.2,26.7&#10;&#9;&#9;&#9;&#9;c-1,2.1-1.8,4.6-3,6.7c-1.9,3.1-3.9,1.8-7.3,1.3c-5.5-0.8-11-1.4-16.5-1.2c-21,0.5-40.9,12.7-53.8,28.9&#10;&#9;&#9;&#9;&#9;c-11.7,14.6-18.7,32.4-22.6,50.7c-1.4-21.8-4.2-50.3-21.8-65.2c-8-6.8-19.1-9-29.2-6.6c-10.4,2.5-18.8,9.7-25.2,18&#10;&#9;&#9;&#9;&#9;c-10.9,14-18.3,31.8-22.3,49.2c-1.3-1.3-2.7-2.5-4-3.8c2.2-8,2.8-15.7-2.6-16.2c-5.2-0.5-8.8,10.7-10.3,14.1&#10;&#9;&#9;&#9;&#9;c-2.7,6.2-5.1,12.6-7.2,19c-0.3,1.2,1.6,1.7,2,0.5c1.5-4.5,3.1-8.9,4.8-13.2c1.5-3.7,3-7.4,4.8-11c0.9-1.7,2.8-6.6,4.9-7.2&#10;&#9;&#9;&#9;&#9;c5.8-1.7,1.1,14.7,0.4,17c-1.4,4.6-3,9-4.8,13.4c-6.7,3.6-12.8,10.5-16,16.4c-3.5,6.7-2.4,15,2.1,20.8c-3,0.6-6,2.2-7.9,4.5&#10;&#9;&#9;&#9;&#9;c-4.1,4.8-2.8,10.6,0.1,15.6c-10.8-2.4-21.4-5.2-31.8-8.9c-5.2-1.9-10.7-4.2-15.8-6.6c-4.6-2.2-8.5-5.5-12.9-8.1&#10;&#9;&#9;&#9;&#9;c-11.7-7.2-19.6-19.4-27.3-30.6c-7.8-11.3-15-22.8-22.8-34.1c-2.9-4.2-5.8-8.3-9-12.2c-1.7-2-3.8-4.9-6.4-5.9&#10;&#9;&#9;&#9;&#9;c-3-1.1-5.5,1.4-6.4,4.2c-1.3,3.9-0.3,8.2,0.8,12.3c-3.6-6.6-8.7-13.5-14.2-8.1c-2.4,2.3-1.4,6.8-0.8,9.9c-2.5-3.2-5.5-5.1-9-3.3&#10;&#9;&#9;&#9;&#9;c-3.4,1.8-3.5,6.9-3,10.2c0.9,6.1,4.8,11.6,7.2,17.1c5.5,13,11.5,25.8,18.7,38c2.7,4.6,6.2,9.1,9.4,13.5&#10;&#9;&#9;&#9;&#9;c3.6,4.9,7.9,9.5,12.1,13.8c17.4,18.1,38.8,30.8,62.2,39.8c11,4.2,22.7,8.8,34.3,11.2c8.3,1.7,17.1,1.9,25.5,2.1&#10;&#9;&#9;&#9;&#9;c1.4,0,2.9-0.1,4.3,0.1c0.1,0,0.1,0,0.1,0c0,0,0.2,0.1,0.5,0.2c2.8,1,5.6,2.9,8.2,4.2c5.6,2.9,11.4,6.6,17.4,8.6&#10;&#9;&#9;&#9;&#9;c1.2,0.4,1.7-1.5,0.5-1.9c-4.6-1.6-9-4.4-13.3-6.6c-3.8-2-8.2-5.2-12.4-6.3c-4-1.1-9.2-0.3-13.3-0.5c-9.2-0.5-17.6-1.7-26.4-4.4&#10;&#9;&#9;&#9;&#9;c-22.2-6.9-44.5-15-63.7-28.4c-9.2-6.4-17.6-14-25.2-22.3c-3.8-4.1-7.1-8.2-10.1-12.8c-2.9-4.4-6.6-8.4-9.3-12.9&#10;&#9;&#9;&#9;&#9;c-0.5-0.7-0.9-1.5-1.3-2.2c9.8,4.2,23.5-2.5,30.1-9.4c4.9-5.1,8.6-12.7,8.6-20c3.4,5,6.8,10,10.4,14.9c7,9.6,13.9,18.1,24,24.5&#10;&#9;&#9;&#9;&#9;c4.4,2.8,8.2,5.8,13,8c4.5,2,9.1,4.1,13.7,5.8c10.9,3.9,22.1,7,33.5,9.4c0.5,0,0.8-0.2,1-0.4c6,8.9,15.7,10.5,25.9,7.7&#10;&#9;&#9;&#9;&#9;c15.9-4.3,31.4-17.8,39.2-32.2c5.6-10.2,6.3-21.9,0.7-32.3c-3.2-6-8.8-9.1-15.3-10.5c-3.7-0.7-8.7-1.1-12.4,0.7&#10;&#9;&#9;&#9;&#9;c0,0-0.1-0.1-0.1-0.1c-1.3-1.2-2.6-2.5-3.9-3.7c2.2-9.7,5.6-19.1,9.8-28.1c6.8-15,17.1-31.7,33.4-37.3c18.7-6.5,34.7,5,42.1,21.8&#10;&#9;&#9;&#9;&#9;c7.9,17.8,9.3,38.2,10.1,57.4c0.2,5.2,0.4,10.4,0.5,15.7c-13.6-7.4-36.4-1.9-46.5,10.2c0.2-14.6,0.3-29.1-0.5-43.7&#10;&#9;&#9;&#9;&#9;c-0.2-4.6-0.5-9.2-1.3-13.7c-0.4-2.2-0.8-5.2-2.6-6.8c-1-0.8-2.4,0.6-1.4,1.4c2.1,1.8,2.2,6.5,2.5,9c0.7,5.3,0.9,10.6,1.1,16&#10;&#9;&#9;&#9;&#9;c0.5,13.5,0.3,27,0.2,40.4c0,0,0,0.1,0,0.1c-0.2,0.4-0.2,0.7,0,1c-0.2,9.7-1,19.7,0.2,29.3c0.9,6.7,4.1,12.9,8.9,17.6&#10;&#9;&#9;&#9;&#9;c3,2.9,8.1,7,12.6,6.3c4.6-0.8,3.8-6.2,1.7-11.4c3.7,4.2,8.1,7.7,12.1,6.2c6-2.2,3.2-11.8,0.6-18.2c2.4,2.1,5.3,4.3,8.2,5.9&#10;&#9;&#9;&#9;&#9;c-1.9,25-15.8,49.9-33.1,67.2c-0.1,0.1-0.1,0.1-0.1,0.2c-11.3-1.2-22.4-3.7-33.8-6c-1.1-0.5-1.6,1.4-0.4,1.7&#10;&#9;&#9;&#9;&#9;c11.8,2.3,23.6,5.3,35.6,6.5c11.5,1.1,23.2-0.1,34.6-2.2c10.8-2,22.2-4.4,32.2-9.1c9.9-4.6,16.7-11.8,22.7-20.7&#10;&#9;&#9;&#9;&#9;c5.9-8.8,8.8-19.2,10.4-29.5c0.1-0.6,0.2-1.1,0.2-1.7c7.5-8.9,17.6-21.6,29.9-23.7c7.9-1.4,15.1,5.4,15,13.3&#10;&#9;&#9;&#9;&#9;c-0.1,9.9-5.9,20-10.6,28.4c-2,3.6-4.2,7.1-6.4,10.5c-0.7,1.1-1.5,2.1-2.2,3.2c-0.2,0.3-1,1.8-0.7,1.2c0.3-0.6-0.7,0.5-0.6,1.1&#10;&#9;&#9;&#9;&#9;c0.2,1.2,1.5,2.3,2.3,3.1c7.9,7.6,17.8,14,27.6,18.9c10.9,5.5,22.7,9.9,34.8,12.3c6.1,1.2,16.7,3.3,21.7-1.8&#10;&#9;&#9;&#9;&#9;C505.5,383.2,497.7,374.8,493.9,370.9z M97.5,243.4c0.4,6.4-2.3,13.2-6.2,18.2c-6.4,8-22.1,16.4-31.9,9.7&#10;&#9;&#9;&#9;&#9;c-0.1-0.1-0.2-0.1-0.3-0.1c-6-11-10.6-22.6-15.9-33.9c-2.4-5.2-8.4-13.3-5.4-19.2c3.8-7.6,9.1,2,11,5.4c0.1,0.2,0.3,0.5,0.4,0.8&#10;&#9;&#9;&#9;&#9;c0.9,3.1,2.2,6.2,4,8.5c0,0,0.1,0,0.1,0.1c0,0,0.1,0.1,0.1,0.1c0.1,0,0.1,0.1,0.2,0.1c0,0,0,0,0.1,0c0.1,0,0.2,0,0.3,0&#10;&#9;&#9;&#9;&#9;c0,0,0,0,0,0c0.1,0,0.2,0,0.2-0.1c0.5-0.2,0.8-0.8,0.6-1.4c0,0,0.1,0,0.1-0.1c-0.3-0.7-0.7-1.5-1-2.2c0,0,0,0,0,0&#10;&#9;&#9;&#9;&#9;c-0.7-1.7-1.6-3.9-2.7-6.2c-0.3-1-0.5-2-0.7-2.9c-0.7-2.9-2.7-8.8-0.6-11.4c4.8-5.8,10.8,6.6,13.8,12.8c0,0.1,0,0.2,0.1,0.3&#10;&#9;&#9;&#9;&#9;c0.2,0.3,0.3,0.6,0.5,0.9c0.2,0.5,0.5,1.1,0.6,1.4c0,0,0,0,0,0c0,0.1,0.1,0.1,0.1,0.2c0.3,0.5,0.7,0.6,1.1,0.5&#10;&#9;&#9;&#9;&#9;c0.6-0.1,1.1-0.6,0.8-1.3c-0.1-0.1-0.1-0.3-0.2-0.4c-0.9-6-5.3-13.8-3-19.8c1.9-5.2,5-2.2,7.4,0.3c7,7.4,12.4,16.4,17.9,24.8&#10;&#9;&#9;&#9;&#9;c3,4.6,6.1,9.2,9.1,13.8C97.7,242.7,97.5,243,97.5,243.4z M232.6,243.7c4.2-4.3,12.8-2.2,17.6-0.3c6.7,2.7,9.9,8.4,11.7,15.1&#10;&#9;&#9;&#9;&#9;c3.8,13.9-4.1,27-13.6,36.6c-10.1,10.3-26.4,22.6-42,18.4c-6.2-1.7-10.7-7.4-12.4-13.5c-1.9-6.7,3.2-12.9,10-13&#10;&#9;&#9;&#9;&#9;c0.9,0,1.3-1.1,0.7-1.7c-6.1-6.5-6.3-15.7-1.3-22.8c3.2-4.4,7.8-9.7,13-12.6c0.4,0.1,0.8,0,1-0.5c0,0,0,0,0,0&#10;&#9;&#9;&#9;&#9;c1.1-0.5,2.2-1,3.3-1.3c1.2-0.3,0.7-2.3-0.5-1.9c-0.6,0.2-1.1,0.4-1.7,0.6c1.3-3.1,3.2-8,4.8-13c2.8,2.7,5.7,5.3,8.5,8.1&#10;&#9;&#9;&#9;&#9;c-0.2,0.1-0.3,0.3-0.5,0.4C230.2,243.2,231.7,244.6,232.6,243.7z M470.7,123.5c3.9,6,4.9,14.8,5.4,21.7c0.6,8,0.2,16.1-0.7,24.1&#10;&#9;&#9;&#9;&#9;c-1,8.3-1.7,17.6-4.8,25.4c-1.2,3.1-2.7,5.3-5,7c-16.3,0.6-22.7-17.8-23.1-31.1c-0.4-14,2-29.1,8.5-41.6&#10;&#9;&#9;&#9;&#9;c2.2-4.2,5.3-9.1,8.9-11.8C464.4,116.9,468.3,119.7,470.7,123.5z M310.9,305.6c0,0-0.1,0.1-0.1,0.1c0,0-0.1-0.1-0.1-0.1&#10;&#9;&#9;&#9;&#9;c-0.9-0.8-2,0.2-1.6,1.2c1.6,3.4,8.6,20.7,0.6,19.7c-3.6-0.5-7.2-5.2-9.4-7.7c-1.7-2-3.3-3.9-4.7-6c-0.1-0.2-0.2-0.4-0.3-0.6&#10;&#9;&#9;&#9;&#9;c0,0,0,0-0.1,0c-0.7-0.9-2.3,0-1.6,1.1c1.8,3.1,3.4,6.4,4.6,9.8c0.6,1.7,2.3,5.3,1.4,7.2c-1.3,2.7-5.4,0.5-7.2-0.5&#10;&#9;&#9;&#9;&#9;c-11.4-6.4-13.8-18.6-13.9-30.5c0-6.5,0.1-12.9,0.2-19.4c3.4-5,9.4-8.6,14.7-10.9c9.7-4,22.5-6.1,31.8-0.4&#10;&#9;&#9;&#9;&#9;c0.1,4.9,0.1,9.9-0.1,14.8c-0.2,4.4,0.5,12.4-2.2,16.2c-0.2,0.3-0.2,0.9,0.2,1.2c1.9,1.7,3.8,3.5,5.4,5.5&#10;&#9;&#9;&#9;&#9;c1.3,1.5,3.3,3.8,3.7,5.9c0.6,3.6-2.6,4.3-5.4,3.7c-1.3-0.3-2.6-0.7-3.9-1.3c-0.2-0.2-0.4-0.3-0.7-0.3c-4.1-2-8-5.3-11.1-8.3&#10;&#9;&#9;&#9;&#9;C311,305.8,310.9,305.7,310.9,305.6z M324.9,300C324.9,300.3,324.7,300.4,324.9,300L324.9,300z M363.3,367.8&#10;&#9;&#9;&#9;&#9;c-7.4,5.1-15.7,7.8-24.3,10.1c-9.5,2.5-19.2,4.6-28.9,5.6c-6.7,0.7-13.3,0.6-19.8,0c17.1-17.5,30.6-42,32.7-66.7&#10;&#9;&#9;&#9;&#9;c2.7,1.2,5.5,1.6,7.9,0.8c9.3-3.2-1.8-14.3-5.8-17.9c0.5-0.7,0.6-2,0.8-2.8c1.1-4.9,1.3-10.1,1.4-15.1c0.4-11.7,0-23.5-0.6-35.1&#10;&#9;&#9;&#9;&#9;c0.2-0.1,0.4-0.3,0.4-0.7c3.9-21.8,12.1-43.7,27.3-60.2c8-8.6,17.3-14.5,28.1-19c14.1-6,28.5-4.8,43.2-2.1c0.4,0.1,0.9,0,1.1-0.5&#10;&#9;&#9;&#9;&#9;c5.8-13.2,11.6-26.6,20.8-37.9c2.3-2.9,5-6.3,8.4-8.1c-8.1,8.1-11.9,21.5-13.8,31.9c-2.9,16.4-4.4,42.3,13.5,51.2&#10;&#9;&#9;&#9;&#9;c2.1,1,4.5,1.8,6.9,2.2c-3.5,1.9-7.2,3.5-10.8,5.1c-7.6,3.5-15.2,6.9-22.7,10.5c-12.2,6-24.6,12.7-33.4,23.3&#10;&#9;&#9;&#9;&#9;c-8.9,10.6-11.2,23.4-10.7,37c0.6,15.8,4.5,31,1.5,46.8C383.6,341.6,376.6,358.5,363.3,367.8z M496.4,388.7&#10;&#9;&#9;&#9;&#9;c-8.7,3.5-21.3-0.8-29.7-3.4c-11.6-3.6-23.2-8.6-33.3-15.5c-5-3.4-10-7-14.6-10.9c-0.6-0.5-2.3-2.8-3.1-2.7&#10;&#9;&#9;&#9;&#9;c0.5-0.5,1.2-1.3,1.2-1.4c1.7-2.5,3.4-5.1,5-7.8c4.7-7.7,9.1-15.7,12-24.2c2.2-6.5,3.7-13.6-0.5-19.6&#10;&#9;&#9;&#9;&#9;c-12.8-18-33.8,4.1-43.7,15.7c0.7-9.1-0.5-18-1.5-27.1c-1.3-11.9-2.3-24.8,2-36.2c0.7-1.8,1.5-3.6,2.5-5.3c0,0,0.1,0,0.1,0&#10;&#9;&#9;&#9;&#9;c16.3-9.4,38.1-12.8,55.9-6.6c17,5.9,30.8,20.7,36.1,37.8c4.8,15.6,3.6,32.6,0,48.4c-2.1,9.2-4.9,18.6-9,27.2&#10;&#9;&#9;&#9;&#9;c-0.2,0.5-0.1,1,0.4,1.4C481.4,362,509.8,383.3,496.4,388.7z" id="el_uTanjVJ4AC_"/>
		</g>
		<g id="el_KfDtei-8nGG">
			<g id="el_uWf5K-vPlou">
				<path d="M256.7,247.6c6.8,1.3,13.6,2.6,20.4,4c1.3,0.2,1.8-1.7,0.5-1.9c-6.8-1.3-13.6-2.6-20.4-4&#10;&#9;&#9;&#9;&#9;&#9;C256,245.4,255.5,247.3,256.7,247.6L256.7,247.6z" id="el_5EvM4uwFqsf"/>
			</g>
		</g>
		<g id="el_DbRcWmyNnXo">
			<g id="el_QTPj1tWXEYx">
				<path d="M263.4,262.6c4.6,0.9,9.2,1.7,13.8,2.6c1.3,0.2,1.8-1.7,0.5-1.9c-4.6-0.9-9.2-1.7-13.8-2.6&#10;&#9;&#9;&#9;&#9;&#9;C262.7,260.4,262.1,262.3,263.4,262.6L263.4,262.6z" id="el_PuG2i0sbzw7"/>
			</g>
		</g>
		<g id="el_2O4AxmOeyVg">
			<g id="el_zqBPW2fr3ws">
				<path d="M227.8,312c19.3,8.6,30.5,33.9,29.5,53.9c-0.2,4.5-1.3,10.1-5.7,12.5c-5.3,2.9-13.7-1.4-13.9-7.5&#10;&#9;&#9;&#9;&#9;&#9;c-0.1-4.8,2.9-9.6,3.2-14.5c0.4-6.9-2.3-13.7-6.1-19.4c-6.1-9.2-15.3-17-24.7-22.7c-1.1-0.7-2.1,1.1-1,1.7&#10;&#9;&#9;&#9;&#9;&#9;c10.9,6.6,22.2,16.3,27.4,28.2c3.7,8.5,1.8,15-0.3,23.4c-1.2,5,0.5,8.8,4.9,11.6c7.7,5,15.4,0.3,17.4-7.9&#10;&#9;&#9;&#9;&#9;&#9;c3.5-14.3-2.6-32.3-10.7-44c-4.7-6.8-11.3-13.6-19-17C227.6,309.8,226.6,311.5,227.8,312L227.8,312z" id="el_qQ5l_11Wl9u"/>
			</g>
		</g>
		<g id="el_voF2lslwAjb">
			<g id="el_FIKw3ReSplG">
				<path d="M145.4,346.4c-2.1,4.5-3.1,10.3-1.6,15.1c3.7,12.2,20,12,30.1,11.2c1.3-0.1,1.3-2.1,0-2&#10;&#9;&#9;&#9;&#9;&#9;c-9.4,0.8-25.7,1.3-28.4-10.8c-0.9-4.1-0.1-8.8,1.7-12.5C147.6,346.2,145.9,345.2,145.4,346.4L145.4,346.4z" id="el_0xsEQtRMWq5"/>
			</g>
		</g>
		<g id="el_e7jEkvaD0Pg">
			<g id="el_yzVOVWWwIlF">
				<path d="M163.9,371.8c-7.2,18.3,23.1,16,32.3,16.1c29.3,0.5,58.4,0,87.6-3.1c1.3-0.1,1.3-2.1,0-2&#10;&#9;&#9;&#9;&#9;&#9;c-26.4,2.8-52.8,3.7-79.3,3.2c-5.3-0.1-10.7-0.2-16-0.2c-5.6-0.1-11.7,0.6-17.1-1.5c-5.1-1.9-7.7-6.9-5.6-12&#10;&#9;&#9;&#9;&#9;&#9;C166.3,371.1,164.4,370.6,163.9,371.8L163.9,371.8z" id="el_yXvzBArkXdP"/>
			</g>
		</g>
		<g id="el_V133ECJH56R">
			<g id="el_3gbSPik2ek_">
				<path d="M465.2,147.8c-3.9,5.9-7.9,11.8-11.8,17.7c-0.7,1.1,1,2.1,1.7,1c3.9-5.9,7.9-11.8,11.8-17.7&#10;&#9;&#9;&#9;&#9;&#9;C467.6,147.7,465.9,146.7,465.2,147.8L465.2,147.8z" id="el_JvBi4jWa-nX"/>
			</g>
		</g>
		<g id="el_UU5umUrciQV">
			<g id="el_CDi7nyXeFjd">
				<path d="M465.2,156.6c-3.9,5.9-7.9,11.8-11.8,17.7c-0.7,1.1,1,2.1,1.7,1c3.9-5.9,7.9-11.8,11.8-17.7&#10;&#9;&#9;&#9;&#9;&#9;C467.6,156.5,465.9,155.5,465.2,156.6L465.2,156.6z" id="el_XIPMsW2NZLB"/>
			</g>
		</g>
		<g id="el_v_EQrpXiVkO">
			<g id="el_qry2P_wcYd4">
				<path d="M465.2,168.1c-2,2.6-3.9,5.3-5.9,7.9c-0.8,1,1,2,1.7,1c2-2.6,3.9-5.3,5.9-7.9&#10;&#9;&#9;&#9;&#9;&#9;C467.7,168,465.9,167,465.2,168.1L465.2,168.1z" id="el_p-SA0PXQE45"/>
			</g>
		</g>
		<g id="el_fauvZew58gg">
			<g id="el_NIsT_L8HeBo">
				<path d="M187.7,306c11.8,20.4,23.5,40.9,35.3,61.3c0.5,0.9,1.7,0.8,2.2,0c15.6-23.4,31.1-46.9,46.7-70.3&#10;&#9;&#9;&#9;&#9;&#9;c1.8-2.8,5.6-6.6,6.6-9.9c0.6-2-1.2-4.7-2-6.5c-6-15-12-30-18.1-44.9c-5-12.5-10-25-15.1-37.4c-0.3-0.7-0.8-1-1.5-0.9&#10;&#9;&#9;&#9;&#9;&#9;c-13.9,2.2-27.8-4.9-35.6-16.4s-9.4-26.7-5.6-39.9c5.1-17.5,21.8-34.4,40.4-23.1c14.6,8.9,16.7,29.2,0.7,38.2&#10;&#9;&#9;&#9;&#9;&#9;c-9,5.1-20.3,4.7-30.3,3.7c-10.9-1.1-21.7-3.5-32.5-5.3c-21.5-3.5-52-11.7-67.4,9.3c-6,8.2-8.2,19.3-4.9,29&#10;&#9;&#9;&#9;&#9;&#9;c3.3,9.7,12.8,14.7,22.3,9.9c9.4-4.7,13-16.5,12.6-26.4c-0.4-10.5-5-20.7-12.5-28c-7.9-7.7-19-11.6-30-11.4&#10;&#9;&#9;&#9;&#9;&#9;c-10.5,0.2-22.9,4.2-29.5,12.9c-7.8,10.3-0.9,24.3,2.8,35c4.1,12,9,24.8,8.5,37.8c-0.6,14.9-11.3,23.7-25,27.2&#10;&#9;&#9;&#9;&#9;&#9;c-13,3.3-27.5,0.4-40.4-1.9c-1.6-0.3-2.2,2.1-0.7,2.4c19.6,3.5,44.8,7.9,60.6-7.9c15.4-15.5,5.3-40.8-0.6-58.2&#10;&#9;&#9;&#9;&#9;&#9;c-1.9-5.5-3.9-10.9-5.2-16.5c-2.3-9.3,0.1-16.6,8.2-21.9c12.1-7.9,28.8-8.5,41.5-1.7c11.6,6.3,19.3,19,19.8,32.1&#10;&#9;&#9;&#9;&#9;&#9;c0.3,6.9-1.4,14.4-5.9,19.8c-5.6,6.7-16.3,8.5-21.8,0.7c-7.9-11.3-3-28.4,6.9-36.7c12.3-10.2,29.7-8,44.2-5.7&#10;&#9;&#9;&#9;&#9;&#9;c11.6,1.9,23.2,3.8,34.7,5.8c10.1,1.7,20.5,3.3,30.8,2.3c14.5-1.4,30.2-11.5,27.6-28c-1.9-12.2-13.5-22-25.6-22.8&#10;&#9;&#9;&#9;&#9;&#9;c-21.9-1.4-33.6,24.8-33.7,43.1c-0.1,24.9,19.7,49.1,46.3,45c-0.5-0.3-1-0.6-1.5-0.9c10.4,25.8,20.7,51.6,31.1,77.4&#10;&#9;&#9;&#9;&#9;&#9;c1.3,3.2,3.6,6.9,4.2,10.3c0,0.1,0.4-1.3,0-0.6c-0.3,0.5-0.6,1-0.9,1.4c-1.2,1.8-2.4,3.6-3.6,5.4c-9.1,13.6-18.1,27.3-27.2,40.9&#10;&#9;&#9;&#9;&#9;&#9;c-7.2,10.8-14.3,21.5-21.5,32.3c0.7,0,1.4,0,2.2,0c-11.8-20.4-23.5-40.9-35.3-61.3C189.1,303.3,186.9,304.6,187.7,306L187.7,306&#10;&#9;&#9;&#9;&#9;&#9;z" id="el_M4FzQVzI_FU"/>
			</g>
		</g>
		<g id="el_pR9s_9ra7Pj">
			<g id="el_5mia-j3nMqo">
				<path d="M129,337.6c18.4-6.8,36.7-8.6,52.2,6.1c6.2,5.9,4.7,14.8,2.2,22.2c-2.4,7-6.6,16-13.2,19.9&#10;&#9;&#9;&#9;&#9;&#9;c-6.7,3.9-16.4,3.4-22-2.3c-8.4-8.5-0.9-20.7,6.9-26.3c13.4-9.5,31.1-10.7,46.8-7.7c15.3,2.9,29.8,9.3,44,15.6&#10;&#9;&#9;&#9;&#9;&#9;c12.1,5.4,24.3,11.5,37.3,14.4c13.9,3.1,28.4-0.1,41-6.5c7.3-3.7,14.1-8.8,19.7-14.7c4.2-4.5,11.2-11.4,8.2-18.2&#10;&#9;&#9;&#9;&#9;&#9;c-2.2-4.8-8.2-7.9-13.2-5.9c-4.9,1.8-7.3,7.4-6.8,12.3c0.6,6.3,6.1,10.4,12.3,10.7c7.1,0.3,12.4-4.4,15.2-10.6&#10;&#9;&#9;&#9;&#9;&#9;c5.9-13.2-3.2-26.3-8.8-37.8c-3.4-7-6.4-14.8-4.1-22.6c1.9-6.6,5.7-13.1,11.6-16.8c10.2-6.4,23.3-3.2,33.2,2.2&#10;&#9;&#9;&#9;&#9;&#9;c10.7,5.8,20.1,15,23.4,26.9c2.9,10.6,2.1,22,0.5,32.7c-1.6,10.1-4.1,20.2-8.9,29.3c-4.6,8.7-11.3,16.2-20.1,20.8&#10;&#9;&#9;&#9;&#9;&#9;c-8.2,4.4-19.8,6.5-28.1,1.2c-9.5-6.1-6.5-18.1,0.3-24.9c7.9-7.9,19.7-7.9,30.1-7s20.7,2.3,31.2,2.1c10.3-0.2,20.6-1.5,30.7-3.7&#10;&#9;&#9;&#9;&#9;&#9;c17.4-3.9,36.9-10.5,48.7-24.6c10.1-12,13.8-30.1,3.2-43c-4-4.8-9.4-8.1-15.5-9c-2.4-0.3-3.9-0.1-3.9-0.1l1.1,2.3&#10;&#9;&#9;&#9;&#9;&#9;c0,0,1.3,0.1,1.6,0.1c10.1,1,18.1,9.3,20.3,19.2c2.4,11.2-2.8,23-10.6,31c-15.1,15.6-39.8,21.7-60.7,24.2&#10;&#9;&#9;&#9;&#9;&#9;c-11.1,1.3-22.3,1.4-33.4,0.3c-10.2-1-20.6-3-30.7-0.8c-12.2,2.6-26,16.3-19.4,29.6c7.4,14.9,29.3,10.2,40.3,2.9&#10;&#9;&#9;&#9;&#9;&#9;c15.5-10.3,22.6-28.3,25.7-46c2.8-15.8,4.5-34.7-5-48.7c-6.2-9.1-15.8-16.2-26-20.2c-9.7-3.7-21.3-4.6-30.2,1.6&#10;&#9;&#9;&#9;&#9;&#9;c-10.1,7-14.7,20.7-11.2,32.4c4.1,13.8,18.7,28.6,13.2,43.8c-2,5.4-6.1,10.2-12.2,10.6c-6.6,0.4-12.4-4.9-10.9-11.8&#10;&#9;&#9;&#9;&#9;&#9;c1.3-6.1,8.1-8.8,13-4.5c6,5.3-0.2,12.1-4.1,16.5c-12.3,14-31.3,23.7-50.1,23.5c-13.6-0.1-27.1-6.8-39.3-12.2&#10;&#9;&#9;&#9;&#9;&#9;c-26.6-11.8-57.5-27.5-87.2-17.5c-12.3,4.2-30.2,16.1-24,31.7c4.6,11.3,20.5,13.3,29.7,6.7c5.3-3.8,8.8-10.5,11.4-16.3&#10;&#9;&#9;&#9;&#9;&#9;c2.6-6,4.6-13,3.7-19.6c-1-7.1-7-11.7-12.9-15.1c-7.1-4.1-15.3-5.8-23.4-5.6c-7.9,0.3-14.6,1.7-21.8,4.2&#10;&#9;&#9;&#9;&#9;&#9;c-1.1,0.4-5.9,2.1-5.9,2.1l3.2,1.5L129,337.6z" id="el_mOJFHtMC6lC"/>
			</g>
		</g>
		<g id="el_s7gW2_jQbfc">
			<g id="el_F471YKKtIeD">
				<path d="M370,170.6c-7.2-2.8-17.3-6-24.2-9.5c-5.7-3-11-6.8-15.8-11.2c-9.2-8.6-16.5-19.4-20.4-31.5&#10;&#9;&#9;&#9;&#9;&#9;c-4.1-12.6-4.4-26.2-0.3-38.8c3.2-9.9,9.1-21.5,18.4-27c15.2-9.1,27.2,7.6,29.7,21c3.8,20.3-8,46.5-28.4,53.3&#10;&#9;&#9;&#9;&#9;&#9;c-6.6,2.2-13.6,2.9-20.4,4.6c-6.8,1.7-13.3,4.7-19.2,8.5c-10.3,6.5-20.1,15.9-23.9,27.7c-0.7,2.1-1.1,5.2-1.1,5.2l2.7-1.5&#10;&#9;&#9;&#9;&#9;&#9;c0,0,0.6-2.8,1.1-4.1c4.7-14.4,18.8-24.4,32.5-30.2c12.3-5.2,27.5-4,38.4-12.3c16.4-12.5,25.5-35.2,19.9-55.4&#10;&#9;&#9;&#9;&#9;&#9;c-3.6-12.9-15.4-26.5-29.9-20.1c-9.5,4.1-15.8,14.4-19.7,23.5c-5.2,12-6.7,25.3-4.2,38.1c2.7,14.3,10.2,27.6,20.3,38&#10;&#9;&#9;&#9;&#9;&#9;c4.7,4.9,10.1,9.2,15.9,12.7c8,4.7,17.2,7.6,25.8,10.9C368.8,171.3,370,170.6,370,170.6L370,170.6z" id="el_liifTRcUFe5"/>
			</g>
		</g>
		<g id="el_86QboAN1RC4">
			<g id="el_BPuyTt-SUbG">
				<path d="M249.6,294.7c2.3,4.1,2.1,11.2,2.7,15.7c1.3,9.7,2.3,19.5,3.3,29.3c1.4,13.4,2.7,26.8,3.9,40.2&#10;&#9;&#9;&#9;&#9;&#9;c0.1,1.2,1.6,1.7,2.3,0.6c10.4-15.7,20.7-31.5,31.1-47.2c0.9-1.3-1.3-2.6-2.2-1.3c-10.4,15.7-20.7,31.5-31.1,47.2&#10;&#9;&#9;&#9;&#9;&#9;c0.8,0.2,1.6,0.4,2.3,0.6c-1.3-14.1-2.6-28.2-4.1-42.2c-1-9.8-2.1-19.5-3.3-29.2c-0.6-4.5-0.5-10.9-2.8-14.9&#10;&#9;&#9;&#9;&#9;&#9;C251,292,248.8,293.3,249.6,294.7L249.6,294.7z" id="el_7-IR4sQQeAc"/>
			</g>
		</g>
		<g id="el_780e3rjU_8M">
			<g id="el_aOtV9iFe6nE">
				<path d="M186,292c16.9-16.6,33.8-33.3,50.7-49.9c0.9-0.8,0-2.5-1.2-2.1c-24,8.1-47.9,16.2-71.9,24.3&#10;&#9;&#9;&#9;&#9;&#9;c-3.4,1.2-6.9,2.3-10.3,3.5c0.5,0.4,1.1,0.8,1.6,1.2c2.5-20.6,4.9-41.3,7.4-61.9c0.2-1.3-1.8-1.7-2.3-0.6&#10;&#9;&#9;&#9;&#9;&#9;c-6.1,11.4-12.3,22.7-18.4,34.1c-0.8,1.4,1.4,2.7,2.2,1.3c6.1-11.4,12.3-22.7,18.4-34.1c-0.8-0.2-1.6-0.4-2.3-0.6&#10;&#9;&#9;&#9;&#9;&#9;c-2.5,20.6-4.9,41.3-7.4,61.9c-0.1,0.8,0.9,1.4,1.6,1.2c24-8.1,47.9-16.2,71.9-24.3c3.4-1.2,6.9-2.3,10.3-3.5&#10;&#9;&#9;&#9;&#9;&#9;c-0.4-0.7-0.8-1.4-1.2-2.1c-16.9,16.6-33.8,33.3-50.7,49.9C183.1,291.4,184.9,293.2,186,292L186,292z" id="el_Jfv9IXggauO"/>
			</g>
		</g>
		<g id="el_l6hDqBrPRfD">
			<g id="el__sgZhvPOobH">
				<path d="M332.1,225.6c4.8-11.6,51.8,22.4,58.3,27.2c0.8,0.6,2.2-0.4,1.8-1.4c-10-24.6-20-49.2-30-73.8&#10;&#9;&#9;&#9;&#9;&#9;c-0.7,0.4-1.4,0.8-2.1,1.2c17.3,17.2,34.6,34.5,51.9,51.7c0.4-0.7,0.8-1.4,1.2-2.1c-25.9-5.4-51.8-10.9-77.7-16.3&#10;&#9;&#9;&#9;&#9;&#9;c-0.1,0.8-0.2,1.6-0.3,2.5c29.6,0.8,59.1,1.7,88.7,2.5c4.3,0.1,8.5,0.2,12.8,0.4c1.2,0,1.5-1.3,0.9-2.1&#10;&#9;&#9;&#9;&#9;&#9;c-14.8-17.9-29.6-35.8-44.3-53.7c-1-1.2-2.8,0.5-1.8,1.8c14.8,17.9,29.6,35.8,44.3,53.7c0.3-0.7,0.6-1.4,0.9-2.1&#10;&#9;&#9;&#9;&#9;&#9;c-29.6-0.8-59.1-1.7-88.7-2.5c-4.3-0.1-8.5-0.2-12.8-0.4c-1.4,0-1.7,2.2-0.3,2.5c25.9,5.4,51.8,10.9,77.7,16.3&#10;&#9;&#9;&#9;&#9;&#9;c1.2,0.2,2.1-1.2,1.2-2.1c-17.3-17.2-34.6-34.5-51.9-51.7c-0.8-0.8-2.6,0-2.1,1.2c10,24.6,20,49.2,30,73.8&#10;&#9;&#9;&#9;&#9;&#9;c0.6-0.5,1.2-0.9,1.8-1.4c-9.9-7.3-20.3-14.2-31.1-20.3c-5.7-3.2-26.4-16.3-30.9-5.5C329,226.4,331.5,227.1,332.1,225.6&#10;&#9;&#9;&#9;&#9;&#9;L332.1,225.6z" id="el_sNx09LXA-Rh"/>
			</g>
		</g>
		<g id="el_RgLMLjtL8q9">
			<g id="el_JswoJoW-xLq">
				<path d="M325.4,260.6c-15.9,0.9-31.9,1.8-47.8,2.7c-1.4,0.1-1.7,2-0.3,2.5c16.2,6,32.3,12,48.5,18.1&#10;&#9;&#9;&#9;&#9;&#9;c1.5,0.6,2.2-1.9,0.7-2.4c-16.2-6-32.3-12-48.5-18.1c-0.1,0.8-0.2,1.6-0.3,2.5c15.9-0.9,31.9-1.8,47.8-2.7&#10;&#9;&#9;&#9;&#9;&#9;C327,263,327,260.5,325.4,260.6L325.4,260.6z" id="el_QXr3j0ir19G"/>
			</g>
		</g>
		<g id="el_eRO0nIkN_0O">
			<g id="el_9rCAlUKjXio">
				<path d="M277.2,233.2c16,4.6,31.9,9.1,47.9,13.7c1.5,0.4,2.2-2,0.7-2.4c-16-4.6-31.9-9.1-47.9-13.7&#10;&#9;&#9;&#9;&#9;&#9;C276.3,230.4,275.6,232.8,277.2,233.2L277.2,233.2z" id="el_HolYX8is39R"/>
			</g>
		</g>
		<g id="el_RsW1W2lK0PX">
			<g id="el_iOM4bHquzAO">
				<path d="M322.2,218.4c-15.1,8-30.3,16-45.4,23.9c-1.4,0.8-0.2,2.9,1.3,2.2c15.1-8,30.3-16,45.4-23.9&#10;&#9;&#9;&#9;&#9;&#9;C324.9,219.8,323.6,217.6,322.2,218.4L322.2,218.4z" id="el_pp-mePEU__s"/>
			</g>
		</g>
		<g id="el_UqhbN2YXXtb">
			<g id="el_Ofx4OvivQdY">
				<path d="M277.8,225.2c14.4-4.9,28.9-9.8,43.3-14.7c1.5-0.5,0.9-2.9-0.7-2.4c-14.4,4.9-28.9,9.8-43.3,14.7&#10;&#9;&#9;&#9;&#9;&#9;C275.7,223.3,276.3,225.7,277.8,225.2L277.8,225.2z" id="el_To1gY_8OEAG"/>
			</g>
		</g>
		<g id="el_2bo4KIhOxXr">
			<g id="el_3M_bmBbDUyR">
				<path d="M158.8,294.8c-24.1,4.3-48.2,8.6-72.2,12.8c0.5,0.6,0.9,1.2,1.4,1.8c8.1-15.8,16.2-31.5,24.4-47.3&#10;&#9;&#9;&#9;&#9;&#9;c0.7-1.4-1.4-2.7-2.2-1.3c-8.1,15.8-16.2,31.5-24.4,47.3c-0.5,1,0.3,2,1.4,1.8c24.1-4.3,48.2-8.6,72.2-12.8&#10;&#9;&#9;&#9;&#9;&#9;C161.1,297,160.4,294.5,158.8,294.8L158.8,294.8z" id="el_3_iFupod2og"/>
			</g>
		</g>
		<g id="el_1oayyIwePKu">
			<g id="el_t7FkMP7gVB0">
				<path d="M99.2,320.2c16.8-9.2,33.7-18.4,50.5-27.6c-0.6-0.5-1.2-0.9-1.8-1.4c-3.3,16.9-6.6,33.8-9.9,50.7&#10;&#9;&#9;&#9;&#9;&#9;c-0.2,1.1,1.2,2.3,2.1,1.2c11.6-13.6,23.1-27.3,34.7-40.9c1-1.2-0.7-3-1.8-1.8c-11.6,13.6-23.1,27.3-34.7,40.9&#10;&#9;&#9;&#9;&#9;&#9;c0.7,0.4,1.4,0.8,2.1,1.2c3.3-16.9,6.6-33.8,9.9-50.7c0.2-1.1-0.8-2-1.8-1.4c-16.8,9.2-33.7,18.4-50.5,27.6&#10;&#9;&#9;&#9;&#9;&#9;C96.5,318.8,97.8,320.9,99.2,320.2L99.2,320.2z" id="el_EHd7pxX-5OW"/>
			</g>
		</g>
		<g id="el_9s-36Fx5Sir">
			<g id="el_SYt4y-7LBvY">
				<path d="M73.7,295c16.9-6.1,33.9-12.2,50.8-18.3c-0.5-0.5-1-1-1.5-1.5c-4,17.8-7.9,35.6-11.9,53.3&#10;&#9;&#9;&#9;&#9;&#9;c-0.3,1.6,2.1,2.2,2.4,0.7c4-17.8,7.9-35.6,11.9-53.3c0.2-0.9-0.6-1.9-1.5-1.5c-16.9,6.1-33.9,12.2-50.8,18.3&#10;&#9;&#9;&#9;&#9;&#9;C71.6,293.1,72.2,295.6,73.7,295L73.7,295z" id="el_ia7vkKnlJ0g"/>
			</g>
		</g>
		<g id="el_rmBadj0_O7f">
			<g id="el_kn8nuTQkf9A">
				<path d="M487.2,314.6c0.5-0.8-1.7,0.2-2.5,0.4c-2.2,0.5-4.5,0.9-6.7,1.4c-6.4,1.2-12.8,2.4-19.2,3.5&#10;&#9;&#9;&#9;&#9;&#9;c-9.1,1.6-18.1,3.1-27.2,4.6c-1.6,0.3-0.9,2.7,0.7,2.4c9.9-1.6,19.8-3.3,29.6-5.1c6.5-1.1,12.9-2.3,19.3-3.6&#10;&#9;&#9;&#9;&#9;&#9;c1.9-0.4,7-0.5,8.2-2.4C490.2,314.5,488.1,313.2,487.2,314.6L487.2,314.6z" id="el_ZpwdAlmnm2C"/>
			</g>
		</g>
		<g id="el_lUe8xUKTIq9">
			<g id="el_cT3JjX5w0ib">
				<path d="M435.6,316.2c16.5-12.5,33.1-24.9,49.6-37.4c1-0.8,0.5-2.8-1-2.3c-19.7,6.7-39.4,13.3-59.2,20&#10;&#9;&#9;&#9;&#9;&#9;c0.5,0.6,0.9,1.2,1.4,1.8c8.5-17.9,16.9-35.8,25.4-53.7c0.7-1.4-1.5-2.7-2.2-1.3c-8.5,17.9-16.9,35.8-25.4,53.7&#10;&#9;&#9;&#9;&#9;&#9;c-0.4,0.9,0.3,2.2,1.4,1.8c19.7-6.7,39.4-13.3,59.2-20c-0.3-0.8-0.6-1.5-1-2.3c-16.5,12.5-33.1,24.9-49.6,37.4&#10;&#9;&#9;&#9;&#9;&#9;C433,315,434.3,317.2,435.6,316.2L435.6,316.2z" id="el_c6ZtiOnX27I"/>
			</g>
		</g>
		<g id="el_dFBfjv4jreB">
			<g id="el_QgoZr4U52Qj">
				<path d="M405.8,303.7c2.8-20.6,5.6-41.1,8.5-61.7c-0.8,0-1.6,0-2.4,0c7.3,21.9,14.6,43.9,21.8,65.8&#10;&#9;&#9;&#9;&#9;&#9;c0.5,1.5,2.9,0.9,2.4-0.7c-7.3-21.9-14.6-43.9-21.8-65.8c-0.3-1-2.2-1.3-2.4,0c-2.8,20.6-5.6,41.1-8.5,61.7&#10;&#9;&#9;&#9;&#9;&#9;C403.1,304.6,405.5,305.3,405.8,303.7L405.8,303.7z" id="el_us-vZ4qaDz_"/>
			</g>
		</g>
		<g id="el_x6ddydWYLv0_mhhc0rQTr" data-animator-group="true" data-animator-type="1"><g id="el_x6ddydWYLv0">
			<path d="M76.9,244.8c0,0-5.3-16.8,0-18.1s9.3,2.8,11.6,14" id="el_6SY7Jr7y639"/>
			<g id="el_S_nKxBywkVN">
				<path d="M77.9,244.5c-1.3-4.3-2.7-9.2-2.3-13.7c0.4-3.7,3.9-4.2,6.6-2c3.4,2.8,4.5,8.2,5.3,12.2&#10;&#9;&#9;&#9;&#9;&#9;c0.3,1.3,2.2,0.7,1.9-0.5c-1-4.6-2.4-10.6-6.4-13.5c-2.1-1.5-6-2.3-8-0.2c-2.1,2.3-1.5,6.6-1.1,9.4c0.4,3,1.1,6,2,8.9&#10;&#9;&#9;&#9;&#9;&#9;C76.3,246.3,78.3,245.7,77.9,244.5L77.9,244.5z" id="el_fs54_y001Et"/>
			</g>
		</g></g>
	</g>
</g></g>
</svg>