<svg version="1.1" id="el_lSMFCexLX" xmlns="http://www.w3.org/2000/svg" xmlns:xlink="http://www.w3.org/1999/xlink" x="0px" y="0px" viewBox="0 0 555 440" style="enable-background:new 0 0 555 440;" xml:space="preserve"><style>@-webkit-keyframes el_artWZ8IrUJQ_Animation{0%{opacity: 0;}71.43%{opacity: 0;}79.37%{opacity: 0.8;}90.48%{opacity: 1;}98.41%{opacity: 0;}100%{opacity: 0;}}@keyframes el_artWZ8IrUJQ_Animation{0%{opacity: 0;}71.43%{opacity: 0;}79.37%{opacity: 0.8;}90.48%{opacity: 1;}98.41%{opacity: 0;}100%{opacity: 0;}}@-webkit-keyframes el_FB0OtGdBYuS_Animation{65.08%{opacity: 0;}74.60%{opacity: 0.8;}85.71%{opacity: 1;}93.65%{opacity: 0;}0%{opacity: 0;}100%{opacity: 0;}}@keyframes el_FB0OtGdBYuS_Animation{65.08%{opacity: 0;}74.60%{opacity: 0.8;}85.71%{opacity: 1;}93.65%{opacity: 0;}0%{opacity: 0;}100%{opacity: 0;}}@-webkit-keyframes el_jvYG6vJsbml_Animation{0%{opacity: 0;}58.73%{opacity: 0;}68.25%{opacity: 0.8;}82.54%{opacity: 1;}88.89%{opacity: 0;}100%{opacity: 0;}}@keyframes el_jvYG6vJsbml_Animation{0%{opacity: 0;}58.73%{opacity: 0;}68.25%{opacity: 0.8;}82.54%{opacity: 1;}88.89%{opacity: 0;}100%{opacity: 0;}}@-webkit-keyframes el_a6FpoCQE1rw_Animation{52.38%{opacity: 0;}60.32%{opacity: 0.8;}77.78%{opacity: 1;}84.13%{opacity: 0;}0%{opacity: 0;}100%{opacity: 0;}}@keyframes el_a6FpoCQE1rw_Animation{52.38%{opacity: 0;}60.32%{opacity: 0.8;}77.78%{opacity: 1;}84.13%{opacity: 0;}0%{opacity: 0;}100%{opacity: 0;}}@-webkit-keyframes el_LIcU7n397oU_Animation{47.62%{opacity: 0;}55.56%{opacity: 0.8;}73.02%{opacity: 1;}79.37%{opacity: 0;}0%{opacity: 0;}100%{opacity: 0;}}@keyframes el_LIcU7n397oU_Animation{47.62%{opacity: 0;}55.56%{opacity: 0.8;}73.02%{opacity: 1;}79.37%{opacity: 0;}0%{opacity: 0;}100%{opacity: 0;}}@-webkit-keyframes el_Cn2KjyM8OAO_Animation{41.27%{opacity: 0;}49.21%{opacity: 0.8;}69.84%{opacity: 1;}76.19%{opacity: 0;}0%{opacity: 0;}100%{opacity: 0;}}@keyframes el_Cn2KjyM8OAO_Animation{41.27%{opacity: 0;}49.21%{opacity: 0.8;}69.84%{opacity: 1;}76.19%{opacity: 0;}0%{opacity: 0;}100%{opacity: 0;}}@-webkit-keyframes el_aCWEW7B1m3f_Animation{34.92%{opacity: 0;}39.68%{opacity: 0.8;}65.08%{opacity: 1;}71.43%{opacity: 0;}0%{opacity: 0;}100%{opacity: 0;}}@keyframes el_aCWEW7B1m3f_Animation{34.92%{opacity: 0;}39.68%{opacity: 0.8;}65.08%{opacity: 1;}71.43%{opacity: 0;}0%{opacity: 0;}100%{opacity: 0;}}@-webkit-keyframes el_1hygJ8i2RGY_Animation{31.75%{opacity: 0;}36.51%{opacity: 0.8;}60.32%{opacity: 1;}68.25%{opacity: 0;}0%{opacity: 0;}100%{opacity: 0;}}@keyframes el_1hygJ8i2RGY_Animation{31.75%{opacity: 0;}36.51%{opacity: 0.8;}60.32%{opacity: 1;}68.25%{opacity: 0;}0%{opacity: 0;}100%{opacity: 0;}}@-webkit-keyframes el_1ImA9YuiBGa_Animation{22.22%{opacity: 0;}31.75%{opacity: 0.8;}55.56%{opacity: 1;}63.49%{opacity: 0;}0%{opacity: 0;}100%{opacity: 0;}}@keyframes el_1ImA9YuiBGa_Animation{22.22%{opacity: 0;}31.75%{opacity: 0.8;}55.56%{opacity: 1;}63.49%{opacity: 0;}0%{opacity: 0;}100%{opacity: 0;}}@-webkit-keyframes el_08dNhvbNEcV_Animation{17.46%{opacity: 0;}26.98%{opacity: 0.8;}50.79%{opacity: 1;}60.32%{opacity: 0;}0%{opacity: 0;}100%{opacity: 0;}}@keyframes el_08dNhvbNEcV_Animation{17.46%{opacity: 0;}26.98%{opacity: 0.8;}50.79%{opacity: 1;}60.32%{opacity: 0;}0%{opacity: 0;}100%{opacity: 0;}}@-webkit-keyframes el_mb68L330kYp_Animation{0%{opacity: 0;}12.70%{opacity: 0;}22.22%{opacity: 0.8;}46.03%{opacity: 1;}53.97%{opacity: 0;}100%{opacity: 0;}}@keyframes el_mb68L330kYp_Animation{0%{opacity: 0;}12.70%{opacity: 0;}22.22%{opacity: 0.8;}46.03%{opacity: 1;}53.97%{opacity: 0;}100%{opacity: 0;}}@-webkit-keyframes el_vsPoCIIa2a1_Animation{6.35%{opacity: 0;}15.87%{opacity: 0.8;}41.27%{opacity: 1;}49.21%{opacity: 0;}0%{opacity: 0;}100%{opacity: 0;}}@keyframes el_vsPoCIIa2a1_Animation{6.35%{opacity: 0;}15.87%{opacity: 0.8;}41.27%{opacity: 1;}49.21%{opacity: 0;}0%{opacity: 0;}100%{opacity: 0;}}@-webkit-keyframes el_mdbkLrKT8qd_Animation{3.17%{opacity: 0;}9.52%{opacity: 0.8;}38.10%{opacity: 1;}46.03%{opacity: 0;}0%{opacity: 0;}100%{opacity: 0;}}@keyframes el_mdbkLrKT8qd_Animation{3.17%{opacity: 0;}9.52%{opacity: 0.8;}38.10%{opacity: 1;}46.03%{opacity: 0;}0%{opacity: 0;}100%{opacity: 0;}}@-webkit-keyframes el_5xJh6i7WZny_Animation{1.59%{opacity: 0;}6.35%{opacity: 0.8;}34.92%{opacity: 1;}42.86%{opacity: 0;}0%{opacity: 0;}100%{opacity: 0;}}@keyframes el_5xJh6i7WZny_Animation{1.59%{opacity: 0;}6.35%{opacity: 0.8;}34.92%{opacity: 1;}42.86%{opacity: 0;}0%{opacity: 0;}100%{opacity: 0;}}@-webkit-keyframes el_f_C737WDW5-_ZYzmrZmZM_Animation{0%{-webkit-transform: translate(74.97896575927734px, 47.37432861328125px) translate(-74.97896575927734px, -47.37432861328125px) translate(0px, 0px);transform: translate(74.97896575927734px, 47.37432861328125px) translate(-74.97896575927734px, -47.37432861328125px) translate(0px, 0px);}49.21%{-webkit-transform: translate(74.97896575927734px, 47.37432861328125px) translate(-74.97896575927734px, -47.37432861328125px) translate(0px, -4px);transform: translate(74.97896575927734px, 47.37432861328125px) translate(-74.97896575927734px, -47.37432861328125px) translate(0px, -4px);}98.41%{-webkit-transform: translate(74.97896575927734px, 47.37432861328125px) translate(-74.97896575927734px, -47.37432861328125px) translate(0px, 0px);transform: translate(74.97896575927734px, 47.37432861328125px) translate(-74.97896575927734px, -47.37432861328125px) translate(0px, 0px);}100%{-webkit-transform: translate(74.97896575927734px, 47.37432861328125px) translate(-74.97896575927734px, -47.37432861328125px) translate(0px, 0px);transform: translate(74.97896575927734px, 47.37432861328125px) translate(-74.97896575927734px, -47.37432861328125px) translate(0px, 0px);}}@keyframes el_f_C737WDW5-_ZYzmrZmZM_Animation{0%{-webkit-transform: translate(74.97896575927734px, 47.37432861328125px) translate(-74.97896575927734px, -47.37432861328125px) translate(0px, 0px);transform: translate(74.97896575927734px, 47.37432861328125px) translate(-74.97896575927734px, -47.37432861328125px) translate(0px, 0px);}49.21%{-webkit-transform: translate(74.97896575927734px, 47.37432861328125px) translate(-74.97896575927734px, -47.37432861328125px) translate(0px, -4px);transform: translate(74.97896575927734px, 47.37432861328125px) translate(-74.97896575927734px, -47.37432861328125px) translate(0px, -4px);}98.41%{-webkit-transform: translate(74.97896575927734px, 47.37432861328125px) translate(-74.97896575927734px, -47.37432861328125px) translate(0px, 0px);transform: translate(74.97896575927734px, 47.37432861328125px) translate(-74.97896575927734px, -47.37432861328125px) translate(0px, 0px);}100%{-webkit-transform: translate(74.97896575927734px, 47.37432861328125px) translate(-74.97896575927734px, -47.37432861328125px) translate(0px, 0px);transform: translate(74.97896575927734px, 47.37432861328125px) translate(-74.97896575927734px, -47.37432861328125px) translate(0px, 0px);}}@-webkit-keyframes el_lVtCpOuqxk_f_agia4jq_Animation{0%{-webkit-transform: translate(279.5px, 407.9999876022339px) scale(1, 1) translate(-279.5px, -407.9999876022339px);transform: translate(279.5px, 407.9999876022339px) scale(1, 1) translate(-279.5px, -407.9999876022339px);}49.21%{-webkit-transform: translate(279.5px, 407.9999876022339px) scale(1.1, 1.1) translate(-279.5px, -407.9999876022339px);transform: translate(279.5px, 407.9999876022339px) scale(1.1, 1.1) translate(-279.5px, -407.9999876022339px);}98.41%{-webkit-transform: translate(279.5px, 407.9999876022339px) scale(1, 1) translate(-279.5px, -407.9999876022339px);transform: translate(279.5px, 407.9999876022339px) scale(1, 1) translate(-279.5px, -407.9999876022339px);}100%{-webkit-transform: translate(279.5px, 407.9999876022339px) scale(1, 1) translate(-279.5px, -407.9999876022339px);transform: translate(279.5px, 407.9999876022339px) scale(1, 1) translate(-279.5px, -407.9999876022339px);}}@keyframes el_lVtCpOuqxk_f_agia4jq_Animation{0%{-webkit-transform: translate(279.5px, 407.9999876022339px) scale(1, 1) translate(-279.5px, -407.9999876022339px);transform: translate(279.5px, 407.9999876022339px) scale(1, 1) translate(-279.5px, -407.9999876022339px);}49.21%{-webkit-transform: translate(279.5px, 407.9999876022339px) scale(1.1, 1.1) translate(-279.5px, -407.9999876022339px);transform: translate(279.5px, 407.9999876022339px) scale(1.1, 1.1) translate(-279.5px, -407.9999876022339px);}98.41%{-webkit-transform: translate(279.5px, 407.9999876022339px) scale(1, 1) translate(-279.5px, -407.9999876022339px);transform: translate(279.5px, 407.9999876022339px) scale(1, 1) translate(-279.5px, -407.9999876022339px);}100%{-webkit-transform: translate(279.5px, 407.9999876022339px) scale(1, 1) translate(-279.5px, -407.9999876022339px);transform: translate(279.5px, 407.9999876022339px) scale(1, 1) translate(-279.5px, -407.9999876022339px);}}@-webkit-keyframes el_tuMBhBsMga_87EhZoSXA_Animation{0%{-webkit-transform: translate(281.9164581298828px, 253.9302749633789px) translate(-281.9164581298828px, -253.9302749633789px) translate(0px, 0px);transform: translate(281.9164581298828px, 253.9302749633789px) translate(-281.9164581298828px, -253.9302749633789px) translate(0px, 0px);}49.21%{-webkit-transform: translate(281.9164581298828px, 253.9302749633789px) translate(-281.9164581298828px, -253.9302749633789px) translate(0px, -8px);transform: translate(281.9164581298828px, 253.9302749633789px) translate(-281.9164581298828px, -253.9302749633789px) translate(0px, -8px);}98.41%{-webkit-transform: translate(281.9164581298828px, 253.9302749633789px) translate(-281.9164581298828px, -253.9302749633789px) translate(0px, 0px);transform: translate(281.9164581298828px, 253.9302749633789px) translate(-281.9164581298828px, -253.9302749633789px) translate(0px, 0px);}100%{-webkit-transform: translate(281.9164581298828px, 253.9302749633789px) translate(-281.9164581298828px, -253.9302749633789px) translate(0px, 0px);transform: translate(281.9164581298828px, 253.9302749633789px) translate(-281.9164581298828px, -253.9302749633789px) translate(0px, 0px);}}@keyframes el_tuMBhBsMga_87EhZoSXA_Animation{0%{-webkit-transform: translate(281.9164581298828px, 253.9302749633789px) translate(-281.9164581298828px, -253.9302749633789px) translate(0px, 0px);transform: translate(281.9164581298828px, 253.9302749633789px) translate(-281.9164581298828px, -253.9302749633789px) translate(0px, 0px);}49.21%{-webkit-transform: translate(281.9164581298828px, 253.9302749633789px) translate(-281.9164581298828px, -253.9302749633789px) translate(0px, -8px);transform: translate(281.9164581298828px, 253.9302749633789px) translate(-281.9164581298828px, -253.9302749633789px) translate(0px, -8px);}98.41%{-webkit-transform: translate(281.9164581298828px, 253.9302749633789px) translate(-281.9164581298828px, -253.9302749633789px) translate(0px, 0px);transform: translate(281.9164581298828px, 253.9302749633789px) translate(-281.9164581298828px, -253.9302749633789px) translate(0px, 0px);}100%{-webkit-transform: translate(281.9164581298828px, 253.9302749633789px) translate(-281.9164581298828px, -253.9302749633789px) translate(0px, 0px);transform: translate(281.9164581298828px, 253.9302749633789px) translate(-281.9164581298828px, -253.9302749633789px) translate(0px, 0px);}}#el_lSMFCexLX *{-webkit-animation-duration: 2.1s;animation-duration: 2.1s;-webkit-animation-iteration-count: infinite;animation-iteration-count: infinite;-webkit-animation-timing-function: cubic-bezier(0, 0, 1, 1);animation-timing-function: cubic-bezier(0, 0, 1, 1);}#el_lVtCpOuqxk{opacity: 0.25;fill: #406470;enable-background: new;}#el_EzB9yWoQsu{fill: #5ABDEB;}#el_qD0zgIwo3m{fill: #FFD06A;}#el_ciiincIW-B{fill: #FFD06A;}#el_ydRMuCFBq2{fill: #4A8093;}#el_I2-SWbIhEM{fill: #5ABDEB;}#el__YBMlWIHue{fill: #4A8093;}#el_YrLk1yEiT_{fill: #FFFFFF;}#el_rn0qQAfVSK{fill: #FFFFFF;}#el_Muh7LJAg1M{fill: none;}#el_nyKc431Jad{fill: #0B1C30;}#el_f5wzq7pDQb{fill: #0B1C30;}#el_G_8oXqncD57{fill: none;}#el_GK-Wrpaabsk{fill: #0B1C30;}#el_oeW6Dka2ITo{fill: #0B1C30;}#el_mqqVBq14Mav{fill: #4A8093;-webkit-transform: matrix(0.4051, -0.9143, 0.9143, 0.4051, -119.4393, 260.2573);transform: matrix(0.4051, -0.9143, 0.9143, 0.4051, -119.4393, 260.2573);}#el_SHu7gYlzfpr{fill: #0B1C30;}#el_u9UZWWLWm92{fill: #4A8093;-webkit-transform: matrix(0.9713, -0.238, 0.238, 0.9713, -43.6912, 44.1264);transform: matrix(0.9713, -0.238, 0.238, 0.9713, -43.6912, 44.1264);}#el_ULW7_PB-r27{fill: #0B1C30;}#el_jHpby8zbO3f{fill: none;}#el_EfJBZcnu2lu{fill: #0B1C30;}#el_w7fU7cFPqCD{fill: none;}#el_9V5GaENh8Ld{fill: #0B1C30;}#el_4q160TFRKBT{fill: none;}#el_aKSOFS7EJe-{fill: #0B1C30;}#el_uMdy34jdbGq{fill: none;}#el_chvcxyoy800{fill: #0B1C30;}#el_DTmE75jPLSR{fill: none;}#el_oe76QaTc8GM{fill: #0B1C30;}#el_wdwr4HJXMLv{fill: none;}#el_aHyOb9Ja5eY{fill: #0B1C30;}#el_kqkRgSxoBXL{fill: none;}#el_tAk4TgN_m5e{fill: #0B1C30;}#el_4O7Jd8EM-Q8{fill: none;}#el_GIwhAiWX5cD{fill: #0B1C30;}#el_NZUqXz2fryb{fill: none;}#el_j0AznpKWuYi{fill: #0B1C30;}#el_w30i8sMZEXw{fill: none;}#el_rvi0M_kuoll{fill: #0B1C30;}#el_b46JrpfEcgA{fill: none;}#el_2k5ntbjRqEj{fill: #0B1C30;}#el_7hP98DRQLL0{fill: none;}#el_z1wlqsL04yx{fill: #0B1C30;}#el_s7gOk7zz3nT{fill: none;}#el_rzMBpdH0QcW{fill: #0B1C30;}#el_tlbFkwgDdvu{fill: none;stroke: #0B1C30;stroke-width: 0.4;stroke-miterlimit: 10;}#el_iD-JKIZYwct{fill: none;}#el_DOVQABQRRJw{fill: #0B1C30;}#el_AOebm5fuPbc{fill: none;}#el_DYDqpP9yp6D{fill: #0B1C30;}#el_UugYhcilmvB{fill: none;}#el_Oqrqu-tJPnp{fill: #0B1C30;}#el_W_oEiqQEPqe{fill: #0B1C30;}#el_B70q17mtk29{fill: none;}#el_RzDjAGc9qH8{fill: #FFFFFF;}#el_KQ1VGsTOPoX{fill: none;}#el_L6cMLo3e9XN{fill: none;}#el_2IyDyywapH8{fill: #0B1C30;}#el_aCpXqpJztgl{fill: none;}#el_alC-qtIJuqG{fill: #0B1C30;}#el_tPUaqkdRtGj{fill: none;}#el_PU8MJUUIS4z{fill: #0B1C30;}#el_Pr7V6y75nHv{fill: none;}#el_iNipPTE1Js-{fill: #0B1C30;}#el_f5tCl8hFYQn{fill: none;}#el_Nrq-3SXbte_{fill: #0B1C30;}#el_gv6Qnol6bRL{fill: none;}#el_9d_P_n3UC3a{fill: #0B1C30;}#el_HV87XVyIzKV{fill: none;}#el_GbGcJZIQS_s{fill: #0B1C30;}#el_svh1cwlW76-{fill: none;}#el_-3I-x9mp3Dx{fill: #0B1C30;}#el_9gCNsj-CmoN{fill: none;}#el_Fr3fAQuoAXd{fill: #0B1C30;}#el_zOdPDB1mmzD{fill: none;}#el_oD4rVfDPt9w{fill: #0B1C30;}#el_94zbbqZdPJZ{fill: none;}#el_aQrVFsbwolq{fill: #0B1C30;}#el_zngcCkVNqyI{fill: none;}#el_5lk05GPIv3o{fill: #0B1C30;}#el_mUm8_DgHkR-{fill: none;}#el_SY-F93anXfa{fill: #0B1C30;}#el_fdgiYBXgjBG{fill: none;}#el_VOhFC9Jbooh{fill: #0B1C30;}#el_8oINS2Clgto{fill: none;}#el_PxoljK-0QfM{fill: #0B1C30;}#el_ewLLJw6VD6H{fill: none;}#el_s6R2WVQijog{fill: #0B1C30;}#el_54EDWIw73cc{fill: none;}#el_27Tq-NgMyoK{fill: #0B1C30;}#el_w_p4A78cSsX{fill: none;}#el_jqSOYgO4thY{fill: #0B1C30;}#el_rKh0_g--3U5{fill: none;}#el_jHNoRad6JqD{fill: #0B1C30;}#el_ey9Ux73I3GJ{fill: none;}#el_Qqgsy9d3zq7{fill: #0B1C30;}#el_7TJbTdHAGTW{fill: #4C5D8D;}#el_BAWJFq3K1ns{fill: #4C5D8D;}#el_twphULeSwiR{fill: #4C5D8D;}#el_kY_tVbggrxS{fill: #4C5D8D;}#el_oBXDAbXp2Wb{fill: #4C5D8D;}#el_lios0M0s3Bm{fill: #4C5D8D;}#el_4oBjGNZWnMn{fill: #4C5D8D;}#el_0Gl5pV_0JCE{fill: #4C5D8D;}#el_xb313DN1ZKR{fill: #4C5D8D;}#el_el3hAxewPLB{fill: #4C5D8D;}#el_mUdNXQe7KWc{fill: #4C5D8D;}#el_bZLeafxx2zY{fill: #4C5D8D;}#el_j1G-2TTNuNG{fill: #4C5D8D;}#el_46Rms2-8Idy{fill: #4C5D8D;}#el_tuMBhBsMga_87EhZoSXA{-webkit-animation-name: el_tuMBhBsMga_87EhZoSXA_Animation;animation-name: el_tuMBhBsMga_87EhZoSXA_Animation;-webkit-transform: translate(281.9164581298828px, 253.9302749633789px) translate(-281.9164581298828px, -253.9302749633789px) translate(0px, 0px);transform: translate(281.9164581298828px, 253.9302749633789px) translate(-281.9164581298828px, -253.9302749633789px) translate(0px, 0px);}#el_lVtCpOuqxk_f_agia4jq{-webkit-animation-name: el_lVtCpOuqxk_f_agia4jq_Animation;animation-name: el_lVtCpOuqxk_f_agia4jq_Animation;}#el_f_C737WDW5-_ZYzmrZmZM{-webkit-animation-name: el_f_C737WDW5-_ZYzmrZmZM_Animation;animation-name: el_f_C737WDW5-_ZYzmrZmZM_Animation;}#el_5xJh6i7WZny{-webkit-animation-name: el_5xJh6i7WZny_Animation;animation-name: el_5xJh6i7WZny_Animation;-webkit-animation-timing-function: cubic-bezier(0, 0, 0.58, 1);animation-timing-function: cubic-bezier(0, 0, 0.58, 1);}#el_mdbkLrKT8qd{-webkit-animation-name: el_mdbkLrKT8qd_Animation;animation-name: el_mdbkLrKT8qd_Animation;-webkit-animation-timing-function: cubic-bezier(0, 0, 0.58, 1);animation-timing-function: cubic-bezier(0, 0, 0.58, 1);}#el_vsPoCIIa2a1{-webkit-animation-name: el_vsPoCIIa2a1_Animation;animation-name: el_vsPoCIIa2a1_Animation;-webkit-animation-timing-function: cubic-bezier(0, 0, 0.58, 1);animation-timing-function: cubic-bezier(0, 0, 0.58, 1);}#el_mb68L330kYp{-webkit-animation-name: el_mb68L330kYp_Animation;animation-name: el_mb68L330kYp_Animation;-webkit-animation-timing-function: cubic-bezier(0, 0, 0.58, 1);animation-timing-function: cubic-bezier(0, 0, 0.58, 1);}#el_08dNhvbNEcV{-webkit-animation-name: el_08dNhvbNEcV_Animation;animation-name: el_08dNhvbNEcV_Animation;-webkit-animation-timing-function: cubic-bezier(0, 0, 0.58, 1);animation-timing-function: cubic-bezier(0, 0, 0.58, 1);}#el_1ImA9YuiBGa{-webkit-animation-name: el_1ImA9YuiBGa_Animation;animation-name: el_1ImA9YuiBGa_Animation;-webkit-animation-timing-function: cubic-bezier(0, 0, 0.58, 1);animation-timing-function: cubic-bezier(0, 0, 0.58, 1);}#el_1hygJ8i2RGY{-webkit-animation-name: el_1hygJ8i2RGY_Animation;animation-name: el_1hygJ8i2RGY_Animation;-webkit-animation-timing-function: cubic-bezier(0, 0, 0.58, 1);animation-timing-function: cubic-bezier(0, 0, 0.58, 1);}#el_aCWEW7B1m3f{-webkit-animation-name: el_aCWEW7B1m3f_Animation;animation-name: el_aCWEW7B1m3f_Animation;-webkit-animation-timing-function: cubic-bezier(0, 0, 0.58, 1);animation-timing-function: cubic-bezier(0, 0, 0.58, 1);}#el_Cn2KjyM8OAO{-webkit-animation-name: el_Cn2KjyM8OAO_Animation;animation-name: el_Cn2KjyM8OAO_Animation;-webkit-animation-timing-function: cubic-bezier(0, 0, 0.58, 1);animation-timing-function: cubic-bezier(0, 0, 0.58, 1);}#el_LIcU7n397oU{-webkit-animation-name: el_LIcU7n397oU_Animation;animation-name: el_LIcU7n397oU_Animation;-webkit-animation-timing-function: cubic-bezier(0, 0, 0.58, 1);animation-timing-function: cubic-bezier(0, 0, 0.58, 1);}#el_a6FpoCQE1rw{-webkit-animation-name: el_a6FpoCQE1rw_Animation;animation-name: el_a6FpoCQE1rw_Animation;-webkit-animation-timing-function: cubic-bezier(0, 0, 0.58, 1);animation-timing-function: cubic-bezier(0, 0, 0.58, 1);}#el_jvYG6vJsbml{-webkit-animation-name: el_jvYG6vJsbml_Animation;animation-name: el_jvYG6vJsbml_Animation;-webkit-animation-timing-function: cubic-bezier(0, 0, 0.58, 1);animation-timing-function: cubic-bezier(0, 0, 0.58, 1);}#el_FB0OtGdBYuS{-webkit-animation-name: el_FB0OtGdBYuS_Animation;animation-name: el_FB0OtGdBYuS_Animation;-webkit-animation-timing-function: cubic-bezier(0, 0, 0.58, 1);animation-timing-function: cubic-bezier(0, 0, 0.58, 1);}#el_artWZ8IrUJQ{-webkit-animation-name: el_artWZ8IrUJQ_Animation;animation-name: el_artWZ8IrUJQ_Animation;-webkit-animation-timing-function: cubic-bezier(0, 0, 0.58, 1);animation-timing-function: cubic-bezier(0, 0, 0.58, 1);}</style>

<g id="el_lVtCpOuqxk_f_agia4jq" data-animator-group="true" data-animator-type="2"><ellipse cx="279.5" cy="408" rx="195.2" ry="9.7" id="el_lVtCpOuqxk"/></g>
<g id="el_tuMBhBsMga_87EhZoSXA" data-animator-group="true" data-animator-type="0"><g id="el_tuMBhBsMga">
	<path d="M111.1,249.5c0,0-7.8,4.8-4.8,9.1c0,0-13,11.3-6.7,18s13.8,9.4,13.8,9.4s-50.8,88.7-16.6,99.6&#10;&#9;&#9;c34.3,10.9,46.6,4.5,58.3-0.6c11.7-5.2,42-27.3,42-27.3s43.7,27.1,107.2,25.7s114,1.9,125.5-10.4c5.6-6,5.6-12.8,5.6-12.8&#10;&#9;&#9;s34.1,6.5,39.6-8.5s6.5-27.2-6.2-29.5c-12.7-2.2-51.5-3.1-51.5-3.1s-11-80-35.9-88.6c-44.6-15.3-74.6,30.5-74.6,30.5l-28.2-2.5&#10;&#9;&#9;c0,0,21.5-23.5,16.6-55.6s-4.8-38.4-4.8-38.4s3.3-32.7-6.5-33.2c-9.7-0.5-24.3-5.7-24.3-5.7s-3.1-11.4-10.8-9.4&#10;&#9;&#9;c-7.8,2-2.3,36.4-2.3,36.4s-7.3,13.2,2.5,17.9c9.8,4.7,3.5,57-13.5,64.4c-11.7,5.1-20.9,2.1-20.9,2.1l-18.9-5.7l-7.5-10.1&#10;&#9;&#9;c0,0,5.8-9.8,0.6-13.9c-5.1-4.1-9.9,5.5-9.9,5.5l-12.3-12l-19.3-10.3l-28.8,37.1l-1.9,20.9L111.1,249.5z" id="el_EzB9yWoQsu"/>
	<path d="M152.3,299.1l-1.5,8.3c0,0,45.2,71.3,64,49.7c7.9-9-2.7-16.6-14.2-26.3c-16-13.5-36.4-28-36.4-28l-11.3-3.7&#10;&#9;&#9;H152.3z" id="el_qD0zgIwo3m"/>
	<path d="M216.9,239.8c0,0,10-5.9,26.7,0.3s24.8,18.5,24.8,18.5s-9.9-7.6-25.7-11.9s-23.9-2.8-23.9-2.8L216.9,239.8z" id="el_ciiincIW-B"/>
	<path d="M206.8,285.1c10.2-7.4,16.1-26,16.1-26s-0.5-29.1-24.1-27.6l0,0c-2.3,0.3-3.1,2.7-3.8,5.5&#10;&#9;&#9;c-12.8-5.2-28.3,5.5-35.7,14.8c-3.6,5.8-3.3,14.3,1.3,19.8c-2.4,0-8.9,0.9-12.1,5.6c-2.1,3.1-1.4,20.8,11.8,25&#10;&#9;&#9;C176.4,307.4,199.5,290.2,206.8,285.1z" id="el_ydRMuCFBq2"/>
	<path d="M140.3,278.1c0,0,2-1.3,6.3,1.8s5.9,10.5,5.8,13.9c0,3.4-0.8,6.5-0.8,6.5L140.3,278.1z" id="el_I2-SWbIhEM"/>
	<path d="M139.1,250.7c1.4-9.1-9.1-15.7-14.5-20.6c5.1-3.2,9.2-8,6.3-14.5c5,0.4,8.2-3.9,6.4-8.7&#10;&#9;&#9;c4.3,3.2,6.7-0.6,6.3-5.1c3.8,2.3,9.3,1,11.7-2.9c3.9-1.2,7.8,1.6,11.4,1.8c-0.5-2.5-7.9-23.2-20.5-23.3&#10;&#9;&#9;c-13.5-0.1-14.5,9.1-14.5,9.1s-21.9-2.1-27.3,11.4c-5.4,13.4,1.9,22.4,1.9,22.4s-11.4,1.1-4.6,16.1c3.8,8.4,15,12.1,15,12.1&#10;&#9;&#9;s-0.2,0.2-0.4,0.5c3.3-1.7,6.7-3.7,9.6-5.5C128.2,249.1,138.4,257.1,139.1,250.7z" id="el__YBMlWIHue"/>
	<path d="M143.1,239.3c0,0-2.6-5.9,2.2-9.2s8.7-3,8.7-3l1.8,7.7c0,0-3.7,3.8-6.7,4.9S143.1,239.3,143.1,239.3z" id="el_YrLk1yEiT_"/>
	<path d="M163.5,220c0,0-1-6.1,3.2-8.5c4.2-2.5,10.2,3.5,10.2,3.5s-5.1,5.2-7.9,6.7S163.5,220,163.5,220z" id="el_rn0qQAfVSK"/>
	<g id="el_iUnOANAtIl">
		<path d="M143.3,239.6c0,0-2.5-6,2.8-10.1c6.8-5.3,11.2-3,11.2-3s2.8,5-4.1,10.4S143.3,239.6,143.3,239.6z" id="el_Muh7LJAg1M"/>
		<g id="el_LUbUvXTVE7">
			<path d="M144.2,239.3c-1.5-3.7,0.1-7.4,3.2-9.6c2-1.4,4.3-2.6,6.8-2.7c0.7,0,1.3,0.2,2,0.2c0.3,0,0.8,0.4,0.4,0&#10;&#9;&#9;&#9;&#9;c-0.3-0.4,0.1,0.2,0.1,0.4c0,0.6,0.2,1.2,0.2,1.8c-0.2,2.8-2.2,5-4.2,6.6c-1.9,1.5-6.7,4.4-8.6,2.8c-1-0.8-2.4,0.6-1.4,1.4&#10;&#9;&#9;&#9;&#9;c3.4,2.6,8.5-0.5,11.2-2.6c2.4-1.9,4.6-4.4,5-7.5c0.2-1.2,0.2-3.1-0.6-4.2c-2.3-2.9-8.8,0.1-10.9,1.4c-4.2,2.7-6.9,7.4-4.9,12.4&#10;&#9;&#9;&#9;&#9;C142.8,241,144.7,240.5,144.2,239.3z" id="el_nyKc431Jad"/>
		</g>
	</g>
	<path d="M148.4,227.8c0,0-0.9,3.9,1.8,6.3c2.2,1.9,5.3,0.7,5.3,0.7s2-2.3,2.2-4.2c0.3-2.7-0.4-4-0.4-4&#10;&#9;&#9;s-1.5-0.9-4.5-0.5C150,226.4,148.4,227.8,148.4,227.8z" id="el_f5wzq7pDQb"/>
	<g id="el_pC0nbZXY7O5">
		<path d="M164.4,221.6c0,0-2.9-5.8,2.1-10.3c6.4-5.7,11-3.7,11-3.7s3.1,4.8-3.3,10.6&#10;&#9;&#9;&#9;C167.7,223.9,164.4,221.6,164.4,221.6z" id="el_G_8oXqncD57"/>
		<g id="el_aF9lqiecsfP">
			<path d="M165.2,221.1c-2.1-4.3,0.6-8.4,4.2-10.8c1.8-1.2,3.9-2.1,6.1-2.1c0.4,0,0.9,0.2,1.3,0.2&#10;&#9;&#9;&#9;&#9;c0.6,0-0.2-0.1-0.2-0.3c1.2,3.9-0.5,7-3.6,9.6c-1.6,1.4-5.7,4.6-8.2,2.9c-1.1-0.7-2.1,1-1,1.7c3.5,2.3,8.6-1.4,11-3.6&#10;&#9;&#9;&#9;&#9;c2.2-2,4.2-4.6,4.4-7.7c0.1-1.2,0-3.1-0.9-4.1c-2.4-2.8-8.7,0.6-10.7,2c-4.2,3-6.5,8-4.1,13C164.1,223.2,165.8,222.2,165.2,221.1&#10;&#9;&#9;&#9;&#9;z" id="el_GK-Wrpaabsk"/>
		</g>
	</g>
	<path d="M168.6,209.4c0,0-0.7,3.9,2.3,6.1c2.3,1.7,5.3,0.3,5.3,0.3s1.9-2.5,1.9-4.4c0.1-2.8-0.7-4-0.7-4&#10;&#9;&#9;s-1.5-0.8-4.5-0.2C170.1,208,168.6,209.4,168.6,209.4z" id="el_oeW6Dka2ITo"/>
	<g id="el_-tTlJUeWl6H">
		
			<ellipse cx="140.3" cy="221.9" rx="8.3" ry="4.1" id="el_mqqVBq14Mav"/>
		<g id="el_wcqukv_0IEL">
			<path d="M143.1,215.1c2.6,1.6,0.7,6.7-0.4,8.8c-0.9,1.8-3.4,5.8-5.6,4.1c-3.2-2.5,1.9-14.1,6.2-12.8&#10;&#9;&#9;&#9;&#9;c1.2,0.4,1.8-1.5,0.5-1.9c-6.7-2.1-13.9,14.2-7.4,17.1c3.4,1.5,6.7-3,8-5.5c1.6-3.1,3.5-9.2-0.3-11.5&#10;&#9;&#9;&#9;&#9;C143,212.7,142,214.4,143.1,215.1z" id="el_SHu7gYlzfpr"/>
		</g>
	</g>
	<g id="el_8fDAOHGZ3T-">
		<ellipse cx="160.9" cy="203" rx="8.3" ry="4.1" id="el_u9UZWWLWm92"/>
		<g id="el_boA0JatHoz3">
			<path d="M168,201c0.5,4.6-11,7.2-13.4,4.2c-0.9-0.4-1.1-1.1-0.4-1.9c0.5-0.7,1.1-1.2,1.8-1.7c1-0.7,2.1-1.1,3.2-1.5&#10;&#9;&#9;&#9;&#9;c2.1-0.7,7.7-1.8,8.8,1c0.5,1.2,2.4,0.7,1.9-0.5c-2.6-6.5-19.6-2.6-18.1,4.4s18.9,2.9,18.1-4.1C169.8,199.8,167.8,199.8,168,201z&#10;&#9;&#9;&#9;&#9;" id="el_ULW7_PB-r27"/>
		</g>
	</g>
	<g id="el_D-oRdsy2Kpf">
		<path d="M166,235.3c0,0,15.7-31.1,20.9-29.6c8.8,2.5-9.4,31.4-9.4,31.4" id="el_jHpby8zbO3f"/>
		<g id="el_yJj5RxH7Aku">
			<path d="M166.8,235.8c2.1-4.2,4.4-8.3,6.7-12.3c2-3.4,4-6.8,6.3-10c1.1-1.6,3.8-6.2,6.1-6.6c6-1.1-1.4,15.4-2.3,17.1&#10;&#9;&#9;&#9;&#9;c-2.1,4.3-4.4,8.6-7,12.6c-0.7,1.1,1,2.1,1.7,1c2.7-4.3,19-30,9-32.8c-5-1.4-10.3,9-12.2,12.1c-3.7,5.8-7,11.8-10.1,17.9&#10;&#9;&#9;&#9;&#9;C164.5,236,166.3,237,166.8,235.8L166.8,235.8z" id="el_EfJBZcnu2lu"/>
		</g>
	</g>
	<g id="el_8ZpgB_9D7eB">
		<path d="M125.6,245.2c0,0-18.8,4.1-13.6,15.9c4.6,10.4,20.8,1.6,20.8,1.6" id="el_w7fU7cFPqCD"/>
		<g id="el_-ooOxtDMhXk">
			<path d="M125.3,244.3c-7.1,1.6-17.2,6.6-14.9,15.4c2.8,10.7,15.7,7.8,22.9,3.9c1.1-0.6,0.1-2.3-1-1.7&#10;&#9;&#9;&#9;&#9;c-6.2,3.3-19.4,6.7-20.2-4c-0.5-6.9,8.3-10.4,13.8-11.6C127.1,245.9,126.6,244,125.3,244.3L125.3,244.3z" id="el_9V5GaENh8Ld"/>
		</g>
	</g>
	<g id="el_F7xlnw4oSXy">
		<path d="M121.5,237.7c0,0,10.2,18.8,15.2,16.1c5.9-3.2,3.1-5.8,0.1-10.9c-3-5.1-11.7-12.8-11.7-12.8s6.7-2.2,7-9.4&#10;&#9;&#9;&#9;c0.3-7.3-5.4-13.5-5.4-13.5" id="el_4q160TFRKBT"/>
		<g id="el_SevFLQk1J6k">
			<path d="M120.6,238.2c2.5,4.5,9.5,18.9,16.3,16.5c12.4-4.3-7-21.6-11.2-25.3c-0.1,0.6-0.3,1.1-0.4,1.7&#10;&#9;&#9;&#9;&#9;c11.1-3.9,8.3-17.6,2.1-24.6c-0.9-1-2.3,0.5-1.4,1.4c5.1,5.8,8.3,18-1.2,21.3c-0.7,0.2-1,1.1-0.4,1.7c2.7,2.4,5.4,5,7.8,7.7&#10;&#9;&#9;&#9;&#9;c2,2.3,3.7,4.6,5.2,7.2c1.8,3,1.2,8.9-3.3,6.8c-5.2-2.4-9-10.4-11.7-15.3C121.7,236,120,237.1,120.6,238.2L120.6,238.2z" id="el_aKSOFS7EJe-"/>
		</g>
	</g>
	<g id="el_wkPX6YtqQjZ">
		<path d="M137.1,214.4c0,0,5-8.4-2.6-14.8" id="el_uMdy34jdbGq"/>
		<g id="el_7Bl93JQDu2I">
			<path d="M138,214.9c3.2-5.4,1.8-11.9-2.8-16c-1-0.9-2.4,0.6-1.4,1.4c3.9,3.5,5.2,8.9,2.5,13.6&#10;&#9;&#9;&#9;&#9;C135.6,215,137.3,216,138,214.9L138,214.9z" id="el_chvcxyoy800"/>
		</g>
	</g>
	<g id="el_N0Uv5l4j77v">
		<path d="M144.2,207.5c0,0,4.9-8.9-3.5-15.6" id="el_DTmE75jPLSR"/>
		<g id="el_R0eq1-eVFn6">
			<path d="M145,208c3.1-5.9,1.3-12.6-3.7-16.8c-1-0.8-2.4,0.6-1.4,1.4c4.2,3.6,6,9.3,3.3,14.4&#10;&#9;&#9;&#9;&#9;C142.7,208.1,144.4,209.1,145,208L145,208z" id="el_oe76QaTc8GM"/>
		</g>
	</g>
	<g id="el_AxnWRQ14dx8">
		<path d="M153.4,187.9c0,0,2.4,1.2,4,6.1c1.1,3.6-0.2,5.6-0.2,5.6" id="el_wdwr4HJXMLv"/>
		<g id="el_-JApFxmPdMV">
			<path d="M152.9,188.8c2.9,1.5,5.1,7.5,3.5,10.4c-0.6,1.1,1.1,2.1,1.7,1c2.2-3.8-0.3-11.1-4.2-13.2&#10;&#9;&#9;&#9;&#9;C152.8,186.4,151.8,188.2,152.9,188.8L152.9,188.8z" id="el_aHyOb9Ja5eY"/>
		</g>
	</g>
	<g id="el_nj2rv_TLTZe">
		<path d="M115.4,249.5c0,0-16.6-9.3-16.3-18.4c0.3-10.7,7-11.7,7-11.7s-6.8-15.3-0.7-23.6c7.6-10.2,18.2-6.2,18.2-6.2" id="el_kqkRgSxoBXL"/>
		<g id="el_ShARA6WuRfh">
			<path d="M115.9,248.6c-5.1-2.9-10.4-6.7-13.7-11.5c-3.2-4.6-2.9-15.5,4.2-16.7c0.7-0.1,0.8-0.9,0.6-1.5&#10;&#9;&#9;&#9;&#9;c-2.5-5.8-4.5-13.6-2.2-19.7c2.6-7.2,11.5-11.2,18.6-8.6c1.2,0.4,1.7-1.5,0.5-1.9c-7.4-2.7-16.1,0.9-20,7.6&#10;&#9;&#9;&#9;&#9;c-4,7-1.7,16.7,1.3,23.6c0.2-0.5,0.4-1,0.6-1.5c-6.4,1.1-8.9,10.4-7.3,15.8c2.2,7.2,10.2,12.6,16.4,16.2&#10;&#9;&#9;&#9;&#9;C116,251,117,249.3,115.9,248.6L115.9,248.6z" id="el_tAk4TgN_m5e"/>
		</g>
	</g>
	<g id="el_HVIdWI4JQWG">
		<path d="M134.7,185.5c0,0,2.9-9.7,12.3-8.1c15.5,2.6,17.2,19.5,17.2,19.5" id="el_4O7Jd8EM-Q8"/>
		<g id="el_hLnrYJ2W6Lk">
			<path d="M135.7,185.8c3-9.5,14-8.8,20.4-3c3.9,3.5,6.5,8.9,7.1,14.2c0.1,1.3,2.1,1.3,2,0&#10;&#9;&#9;&#9;&#9;c-0.8-7.2-4.9-14.6-11.4-18.2c-7.8-4.3-17.2-2.5-20.1,6.6C133.3,186.5,135.3,187,135.7,185.8L135.7,185.8z" id="el_GIwhAiWX5cD"/>
		</g>
	</g>
	<g id="el_62tl0zxU1pG">
		<path d="M119.9,261.1c0,0,4-6.1,5.1-9.4" id="el_NZUqXz2fryb"/>
		<g id="el_pbtFxWjdKHz">
			<path d="M120.7,261.6c2-3,4-6.2,5.2-9.7c0.4-1.2-1.5-1.7-1.9-0.5c-1.2,3.3-3.1,6.3-5,9.2&#10;&#9;&#9;&#9;&#9;C118.3,261.7,120,262.7,120.7,261.6L120.7,261.6z" id="el_j0AznpKWuYi"/>
		</g>
	</g>
	<g id="el_SV1lUKB1h_X">
		<path d="M118.7,254.4c4.7,0.6,9.5,4.7,9.5,4.7" id="el_w30i8sMZEXw"/>
		<g id="el_bfsPX-xTWsa">
			<path d="M118.4,255.4c3.3,0.5,6.5,2.3,9.1,4.5c1,0.8,2.4-0.6,1.4-1.4c-2.8-2.4-6.3-4.4-9.9-5&#10;&#9;&#9;&#9;&#9;C117.7,253.2,117.1,255.2,118.4,255.4L118.4,255.4z" id="el_rvi0M_kuoll"/>
		</g>
	</g>
	<g id="el_c4JjuCKHBJo">
		<line x1="186.4" y1="221.6" x2="194.6" y2="232.1" id="el_b46JrpfEcgA"/>
		<g id="el_DR4iGRFuXOQ">
			<path d="M185.7,222.3c2.7,3.5,5.5,7,8.2,10.6c0.8,1,2.2-0.4,1.4-1.4c-2.7-3.5-5.5-7-8.2-10.6&#10;&#9;&#9;&#9;&#9;C186.3,219.8,184.9,221.3,185.7,222.3L185.7,222.3z" id="el_2k5ntbjRqEj"/>
		</g>
	</g>
	<g id="el_zJ3BEaT4bUz">
		<path d="M146.6,279.9c0.2-0.7,0.4-1.3,0.7-1.9c4.3-7.1,12.2-5.9,12.2-5.9s-9.1-12.8,2.2-24c11.3-11.1,19.9-12,19.9-12&#10;&#9;&#9;&#9;" id="el_7hP98DRQLL0"/>
		<g id="el_JZ9az_b7qNR">
			<path d="M147.5,280.2c1.4-4.7,6.9-7.7,11.7-7.1c0.8,0.1,1.7-0.7,1.1-1.5c-5-7.3-3.9-16.4,2.1-22.8&#10;&#9;&#9;&#9;&#9;c4.6-4.9,12.5-10.9,19.2-11.7c1.3-0.1,1.3-2.1,0-2c-8.5,1-18,8.3-22.9,14.9c-4.9,6.6-4.8,15.8-0.1,22.6c0.4-0.5,0.8-1,1.1-1.5&#10;&#9;&#9;&#9;&#9;c-5.9-0.8-12.4,2.6-14.2,8.5C145.2,280.9,147.2,281.4,147.5,280.2L147.5,280.2z" id="el_z1wlqsL04yx"/>
		</g>
	</g>
	<g id="el__Fi_Gvlrr5Y">
		<path d="M193.7,233.8c0,0,4.4-3.5,13.7,0c10.7,4.1,13.7,10.1,14.8,21c1.1,11.4-5.4,25.9-27.9,39.3&#10;&#9;&#9;&#9;c-21.8,12.9-36.2,9.1-41.3,3.6" id="el_s7gOk7zz3nT"/>
		<g id="el_MXOQ1pBLB17">
			<path d="M194.2,234.6c4.2-3.1,11.2-0.8,15.3,1.2c5.2,2.4,8.7,6.2,10.4,11.7c2.9,9.6,1.1,19.1-4.6,27.2&#10;&#9;&#9;&#9;&#9;c-8.2,11.6-22.1,20.7-35.5,25c-8.1,2.6-19.6,4.1-26.2-2.7c-0.9-0.9-2.3,0.5-1.4,1.4c5,5.1,13,6,19.8,5.1&#10;&#9;&#9;&#9;&#9;c12.6-1.6,24.7-8.6,34.4-16.6c7.5-6.1,14.3-14.2,16.3-23.9c1.6-7.6,0.4-17.6-4.9-23.6c-4.9-5.7-17.7-11.6-24.7-6.5&#10;&#9;&#9;&#9;&#9;C192.1,233.7,193.1,235.4,194.2,234.6L194.2,234.6z" id="el_rzMBpdH0QcW"/>
		</g>
	</g>
	<path d="M106.3,227.7" id="el_tlbFkwgDdvu"/>
	<g id="el_-DwzVWv0G_3">
		<path d="M111.4,270.1c0,0,11.3-6.5,16.8-1.3c5.6,5.2,8.4,12.5,8.4,12.5" id="el_iD-JKIZYwct"/>
		<g id="el_JIInMz3oAQ4">
			<path d="M111.9,271c3.5-2,8.3-3.8,12.3-3c5.5,1.1,9.5,8.7,11.5,13.6c0.5,1.2,2.4,0.7,1.9-0.5&#10;&#9;&#9;&#9;&#9;c-2-5.1-6-12.6-11.4-14.7c-4.9-1.8-11,0.4-15.3,2.9C109.7,269.9,110.7,271.6,111.9,271L111.9,271z" id="el_DOVQABQRRJw"/>
		</g>
	</g>
	<g id="el_llyk2bFG0bU">
		<path d="M112,261.2c0,0-15.4,8.9-8.2,16.9s9.5,7.9,9.5,7.9S88,325.2,86.4,362.4c-1.1,24.7,16.8,27.5,33.4,28.4&#10;&#9;&#9;&#9;c44.3,2.3,77.3-33,77.3-33" id="el_AOebm5fuPbc"/>
		<g id="el_n6uxB2FgAsK">
			<path d="M111.5,260.3c-4.7,2.8-11.4,8-10.5,14.2c0.6,4.2,5,7.6,8.1,10.1c1.2,0.9,2.7,2.3,4.3,2.4&#10;&#9;&#9;&#9;&#9;c-0.3-0.5-0.6-1-0.9-1.5c-6.3,9.9-11.5,20.7-16,31.5c-4,9.7-7.2,19.8-9.2,30.2c-1.7,8.8-3.3,18.9-0.4,27.6&#10;&#9;&#9;&#9;&#9;c4.7,14.1,20.1,16.3,33,17c18.4,0.9,36.4-4.6,52.2-13.7c9.2-5.3,18.4-11.8,25.7-19.6c0.9-0.9-0.5-2.4-1.4-1.4&#10;&#9;&#9;&#9;&#9;c-16.5,17.5-41.2,30.4-65.1,32.5c-13,1.2-34.4,1.3-41.3-12.4c-4.3-8.5-2.6-19.6-0.9-28.6c1.8-9.7,4.7-19.1,8.3-28.2&#10;&#9;&#9;&#9;&#9;c4.5-11.6,10.1-23.2,16.8-33.8c0.4-0.7-0.1-1.5-0.9-1.5c-0.9,0-2.5-1.5-3.3-2.1c-3-2.5-7.9-6.4-7-10.8c0.9-4.3,5.8-8,9.5-10.1&#10;&#9;&#9;&#9;&#9;C113.6,261.4,112.6,259.6,111.5,260.3L111.5,260.3z" id="el_DYDqpP9yp6D"/>
		</g>
	</g>
	<g id="el_unTJPWv9WmL">
		<path d="M134.5,277c0,0,10.7-3.4,16,8.6c7.5,17.1-5.3,44.6-17.1,75.6" id="el_UugYhcilmvB"/>
		<g id="el_aj23ogtdUT-">
			<path d="M134.7,277.9c15.6-4.7,17.9,17.6,16.3,27.7c-3,19.1-11.8,37.4-18.7,55.3c-0.5,1.2,1.5,1.7,1.9,0.5&#10;&#9;&#9;&#9;&#9;c4.6-12,9.6-23.9,13.6-36.1c3.1-9.1,6-18.9,5.8-28.6c-0.2-10.4-6.7-24.6-19.5-20.8C133,276.4,133.5,278.3,134.7,277.9&#10;&#9;&#9;&#9;&#9;L134.7,277.9z" id="el_Oqrqu-tJPnp"/>
		</g>
	</g>
	<g id="el_oPpkaAm_0V6">
		<path d="M183.4,249c0,0-10.2,0.2-10.6,4.3c-0.8,9.7,13.6,3.7,16.7,1.2s7.1-12.6,2.5-14.1&#10;&#9;&#9;&#9;C187.6,238.9,183.4,249,183.4,249z" id="el_W_oEiqQEPqe"/>
		<path d="M183.4,249c0,0-10.2,0.2-10.6,4.3c-0.8,9.7,13.6,3.7,16.7,1.2s7.1-12.6,2.5-14.1&#10;&#9;&#9;&#9;C187.6,238.9,183.4,249,183.4,249z" id="el_B70q17mtk29"/>
	</g>
	<g id="el_Xy95v_XCKzx">
		<path d="M172.8,254.4c0,0,4.6-2.9,8.3-2.3c4.4,0.7,5.3,4.5,5.3,4.5s-4.4,3.2-8.9,2.6c-4.5-0.5-4.7-4.3-4.7-4.3" id="el_RzDjAGc9qH8"/>
		<path d="M172.8,254.4c0,0,4.6-2.9,8.3-2.3c4.4,0.7,5.3,4.5,5.3,4.5s-4.4,3.2-8.9,2.6c-4.5-0.5-4.7-4.3-4.7-4.3" id="el_KQ1VGsTOPoX"/>
	</g>
	<g id="el_Yvs_EVLZqlW">
		<path d="M183.4,249c0,0-10.2,0.2-10.6,4.3c-0.8,9.7,13.6,3.7,16.7,1.2s7.1-12.6,2.5-14.1&#10;&#9;&#9;&#9;C187.6,238.9,183.4,249,183.4,249z" id="el_L6cMLo3e9XN"/>
		<g id="el_v2Y8OpjBVyC">
			<path d="M183.4,248c-3.5,0.1-9.8,0.5-11.3,4.3c-2,4.9,2.8,7.7,6.9,7.3c4.5-0.4,10.3-2.5,12.9-6.3&#10;&#9;&#9;&#9;&#9;c2.1-3,6-11.9,0.5-13.8c-4.9-1.7-8.6,5.8-10.1,9.2c-0.5,1.2,1.4,1.7,1.9,0.5c1-2.3,7.4-12.4,8.7-5.9c1,4.7-2.9,10-6.9,12&#10;&#9;&#9;&#9;&#9;c-2.8,1.3-11,4.8-12.3,0c-1.2-4.7,6.3-5.2,9.5-5.3C184.7,249.9,184.7,247.9,183.4,248z" id="el_2IyDyywapH8"/>
		</g>
	</g>
	<g id="el_8RmyUDLmEHM">
		<path d="M111.4,291.3c0,0,17.8,20.8,40,18" id="el_aCpXqpJztgl"/>
		<g id="el_YMTCqR1bBqK">
			<path d="M110.7,292c9.9,11.4,25.4,19.9,40.7,18.3c1.3-0.1,1.3-2.1,0-2c-14.8,1.5-29.7-6.7-39.3-17.7&#10;&#9;&#9;&#9;&#9;C111.2,289.7,109.8,291.1,110.7,292L110.7,292z" id="el_alC-qtIJuqG"/>
		</g>
	</g>
	<g id="el_-VeD4Rw8gYv">
		<path d="M219,242.8c0,0,18.3,1,31.3,6.7c13,5.7,19,11.7,19,11.7s12.4-4.1,32.6-2.5c0,0,33.4,12.2,25,60.1&#10;&#9;&#9;&#9;c-7.1,40.7-28.8,64.8-28.8,64.8c-7.1,1.3-9.9,1.1-19,1.2c-18.5,0.2-44.6-7.6-75.6-25.2" id="el_tPUaqkdRtGj"/>
		<g id="el_cMIJ9NtIr3Y">
			<path d="M219,243.8c17.1,1,37,5.6,49.6,18.1c0.2,0.2,0.6,0.4,1,0.3c6.4-2.1,13.5-2.6,20.2-2.8&#10;&#9;&#9;&#9;&#9;c5.6-0.1,10.7-0.7,15.5,2.1c11.4,6.6,18.6,18.5,21,31.3c4.3,23.4-4.7,49.7-15.7,70.2c-3.3,6.1-6.9,12-11.2,17.4&#10;&#9;&#9;&#9;&#9;c-0.5,0.7-1.2,2-2,2.4c-1.6,0.9-5,0.6-6.9,0.7c-2.6,0.2-5.2,0.2-7.9,0.2c-28.1,0.2-54.5-11.5-78.6-25.1c-1.1-0.6-2.1,1.1-1,1.7&#10;&#9;&#9;&#9;&#9;c27,15.2,56.1,27.2,87.5,25.2c2.9-0.2,6.6,0,8.8-1.9c1.9-1.6,3.3-4.2,4.7-6.2c6.6-9.4,11.9-19.7,16.1-30.4&#10;&#9;&#9;&#9;&#9;c9.1-23.5,15.6-54.4-1.2-76.1c-3.7-4.8-8.4-9-13.8-11.8c-0.9-0.5-1.9-1.1-2.9-1.4c-6.7-1.7-15.7-0.5-22.5,0.4&#10;&#9;&#9;&#9;&#9;c-3.3,0.4-7.4,2.2-10.6,2.1c1.3,0,0.8,0.4,0.2-0.4c-0.6-0.7-1.6-1.3-2.3-1.9c-2.6-2-5.4-3.8-8.3-5.4&#10;&#9;&#9;&#9;&#9;c-12.1-6.8-25.9-9.9-39.6-10.7C217.7,241.7,217.7,243.7,219,243.8L219,243.8z" id="el_PU8MJUUIS4z"/>
		</g>
	</g>
	<g id="el_tq3Ae-9mWrL">
		<path d="M267.3,276.7c0,0-20.2,21.3-16.7,42.6" id="el_Pr7V6y75nHv"/>
		<g id="el_zm8un0fFnJC">
			<path d="M266.6,275.9c-10.7,11.3-19.2,27.7-17,43.6c0.2,1.3,2.1,0.7,1.9-0.5c-2.1-15.1,6.4-30.9,16.5-41.6&#10;&#9;&#9;&#9;&#9;C268.9,276.4,267.5,275,266.6,275.9L266.6,275.9z" id="el_iNipPTE1Js-"/>
		</g>
	</g>
	<g id="el_hwpddVF5nOs">
		<path d="M233.5,238.1c3.1-1.6,6.6-4.7,9.8-10.4c9.2-16.4,7.3-58.2,7.3-58.2" id="el_f5tCl8hFYQn"/>
		<g id="el_YCAVHbSaWjW">
			<path d="M234,238.9c13.1-7.4,15.5-24.6,16.8-38.2c1-10.3,1.3-20.9,0.8-31.2c-0.1-1.3-2.1-1.3-2,0&#10;&#9;&#9;&#9;&#9;c0.4,8.8,0.2,17.7-0.4,26.5c-1,14-2.5,33.5-16.2,41.2C231.8,237.8,232.8,239.6,234,238.9L234,238.9z" id="el_Nrq-3SXbte_"/>
		</g>
	</g>
	<g id="el_B-1f_m36KIh">
		<path d="M259.5,170.6c0,0-15.2,1.6-12.7-10.9s8.7-15.5,12.7-13.2c3.1,1.7,4.6,9,3.2,13.6" id="el_gv6Qnol6bRL"/>
		<g id="el_PxQ6UtTKicG">
			<path d="M259.5,169.6c-5.9,0.6-12.6-1.6-11.8-8.6c0.5-4.5,2.7-12.5,7.8-14c6.7-1.9,7.3,8.8,6.3,12.8&#10;&#9;&#9;&#9;&#9;c-0.3,1.3,1.6,1.8,1.9,0.5c1.2-4.8,0.7-13.6-5.1-15.3c-5.4-1.6-9.3,4.2-11,8.4c-2.1,5.1-3.8,12.3,1.6,16c2.9,2,6.9,2.5,10.3,2.1&#10;&#9;&#9;&#9;&#9;C260.8,171.5,260.8,169.5,259.5,169.6L259.5,169.6z" id="el_9d_P_n3UC3a"/>
		</g>
	</g>
	<g id="el_Vj_f8bIXgcq">
		<path d="M259.1,128.7c0,0,12.5-4.7,15,4.2s3.3,16.3-3.4,15.5c-6.7-0.8-9.3-10.8-9.3-10.8s-3.9-22.5-13.1-20&#10;&#9;&#9;&#9;s-0.1,35.1-0.1,35.1" id="el_HV87XVyIzKV"/>
		<g id="el_PwqN82vTGTx">
			<path d="M259.4,129.7c2.9-1,6.5-1.8,9.5-0.8c5.3,1.7,9.8,18.3,2.1,18.5c-7.4,0.2-8.6-11.5-10.2-16.7&#10;&#9;&#9;&#9;&#9;c-1.5-5.1-4.8-15-11.7-14.2c-6.4,0.7-6,10.1-5.7,14.7c0.5,7.4,2,14.8,4,21.8c0.3,1.2,2.3,0.7,1.9-0.5c-2-7.1-3.5-14.5-3.9-21.8&#10;&#9;&#9;&#9;&#9;c-0.2-3.3-0.8-10.7,3.3-12.1c5.2-1.7,8.4,7.1,9.6,10.5c1.9,5.6,2.2,11.6,6,16.4c2.2,2.7,6.4,5.3,9.9,3.5c3.7-1.8,2.9-7,2.4-10.3&#10;&#9;&#9;&#9;&#9;c-0.9-5.2-2.1-10.7-8-11.9c-3.1-0.7-6.7-0.1-9.7,1C257.7,128.2,258.2,130.1,259.4,129.7L259.4,129.7z" id="el_GbGcJZIQS_s"/>
		</g>
	</g>
	<g id="el_t5AK0Py7cqw">
		<path d="M274.2,130.9c0,0,10.1-3.5,12,4.2c2.1,8.7,6.4,15.5-3.6,16.8c-6.1,0.8-8.4-4.7-8.4-4.7" id="el_svh1cwlW76-"/>
		<g id="el_0lTtWHaHdxB">
			<path d="M274.4,131.9c1.7-0.6,3.6-0.9,5.4-0.8c5.3,0.4,5.8,5.6,7,9.8c1.1,3.9,2.3,8.3-2.8,9.6&#10;&#9;&#9;&#9;&#9;c-3.7,0.9-7.4-0.4-9-3.9c-0.5-1.2-2.2-0.2-1.7,1c3.5,7.9,17.9,6.7,16.5-3.1c-0.4-3-1.5-5.8-2.3-8.7c-0.7-2.3-1.4-4.4-3.6-5.7&#10;&#9;&#9;&#9;&#9;c-2.9-1.7-6.9-1.3-10-0.3C272.7,130.4,273.2,132.3,274.4,131.9L274.4,131.9z" id="el_-3I-x9mp3Dx"/>
		</g>
	</g>
	<g id="el_ABPvVgwN6hw">
		<path d="M288.6,164.6c0,0,21.8,69.3-14.1,94.9" id="el_9gCNsj-CmoN"/>
		<g id="el_5p8FrUVStqx">
			<path d="M287.6,164.9c3.6,11.6,5.6,23.9,6.3,36c1.2,20.7-2,44.6-20,57.7c-1,0.8,0,2.5,1,1.7&#10;&#9;&#9;&#9;&#9;c17.7-12.9,21.8-35.7,21.1-56.3c-0.5-13.3-2.5-27-6.5-39.7C289.2,163.2,287.3,163.7,287.6,164.9L287.6,164.9z" id="el_Fr3fAQuoAXd"/>
		</g>
	</g>
	<g id="el_-wiHTQfSGFv">
		<path d="M288.6,148.4c0,0,5.5,12.7-3,19.9" id="el_zOdPDB1mmzD"/>
		<g id="el_0Z4XCfH0mL_">
			<path d="M287.6,148.7c2.7,6.3,2.5,14.1-2.8,18.9c-0.9,0.9,0.5,2.3,1.4,1.4c5.8-5.3,6.2-13.9,3.3-20.9&#10;&#9;&#9;&#9;&#9;C289.1,147,287.2,147.5,287.6,148.7L287.6,148.7z" id="el_oD4rVfDPt9w"/>
		</g>
	</g>
	<g id="el_3Z_OxQA1x1b">
		<path d="M263.2,155.1c0,0,5.2-1,8.1,3.3" id="el_94zbbqZdPJZ"/>
		<g id="el_fKY0r68KCYk">
			<path d="M263.5,156.1c2.5-0.5,5.4,0.6,7,2.8c0.7,1,2.5,0,1.7-1c-2.1-2.9-5.7-4.4-9.2-3.8&#10;&#9;&#9;&#9;&#9;C261.7,154.4,262.2,156.3,263.5,156.1L263.5,156.1z" id="el_aQrVFsbwolq"/>
		</g>
	</g>
	<g id="el_KEJvGVxoQvs">
		<path d="M250.6,172.6c0,0,27,10.8,39.8,4" id="el_zngcCkVNqyI"/>
		<g id="el_5XwLOxl6ajg">
			<path d="M250.3,173.6c11.7,4.7,28.5,9.8,40.5,3.9c1.2-0.6,0.1-2.3-1-1.7c-11.4,5.6-27.8,0.3-39-4.1&#10;&#9;&#9;&#9;&#9;C249.7,171.2,249.1,173.1,250.3,173.6L250.3,173.6z" id="el_5lk05GPIv3o"/>
		</g>
	</g>
	<g id="el_UOvBeiLToW_">
		<path d="M151.7,307.8c0,0,32.1,53.9,55.6,51.5c15-1.5,8-15.4,4.5-18.8c-11-10.7-46.8-37.4-46.8-37.4" id="el_mUm8_DgHkR-"/>
		<g id="el_pKSqknYf1U_">
			<path d="M150.8,308.3c4.3,7.2,9.2,14.2,14.3,20.8c8.1,10.5,17.3,21.7,29.2,28c7.3,3.9,24.3,5.9,23.1-6.9&#10;&#9;&#9;&#9;&#9;c-1-11-14-18.4-21.7-24.6c-9.9-8-20.1-15.7-30.3-23.3c-1-0.8-2,1-1,1.7c7.2,5.4,14.3,10.8,21.4,16.3c5.4,4.2,10.8,8.5,16,12.8&#10;&#9;&#9;&#9;&#9;c3.7,3.1,8.2,6.2,10.9,10.2c3.4,5.2,4.3,12.5-3.1,14.5c-5.9,1.5-11.8-0.9-16.7-3.9c-10.7-6.6-19.2-16.8-26.7-26.7&#10;&#9;&#9;&#9;&#9;c-4.9-6.4-9.6-13.1-13.7-20C151.9,306.2,150.1,307.2,150.8,308.3L150.8,308.3z" id="el_SY-F93anXfa"/>
		</g>
	</g>
	<g id="el_PRU_nEffF2e">
		<path d="M216.1,239c0,0,18.2-3.9,34.6,3.7c16.2,7.6,18.5,18.4,18.5,18.4" id="el_fdgiYBXgjBG"/>
		<g id="el_ZiuFNxq0P8w">
			<path d="M216.4,240c11-2.3,23.7-1.1,33.9,3.6c7.1,3.3,16.2,9.5,18.1,17.8c0.3,1.3,2.2,0.7,1.9-0.5&#10;&#9;&#9;&#9;&#9;c-2-8.8-11.4-15.5-19-19c-10.7-5-23.9-6.3-35.4-3.8C214.6,238.3,215.1,240.3,216.4,240L216.4,240z" id="el_VOhFC9Jbooh"/>
		</g>
	</g>
	<g id="el_U98U8Ue900I">
		<path d="M298.1,383.5c0,0,69.1-1.3,94.2-1.9c60.2-1.5,39.8-50.8,39.8-50.8" id="el_8oINS2Clgto"/>
		<g id="el_2OqS66lNAaa">
			<path d="M298.1,384.5c27-0.5,53.9-1,80.9-1.6c14.8-0.3,31.3,0.4,44.2-8.2c8.6-5.7,12.9-15,13.2-25.1&#10;&#9;&#9;&#9;&#9;c0.2-6.3-1-13.2-3.4-19.1c-0.5-1.2-2.4-0.7-1.9,0.5c5.8,14,4.9,32.5-8.5,41.7c-12.6,8.7-28.9,7.8-43.5,8.1&#10;&#9;&#9;&#9;&#9;c-16.3,0.4-32.7,0.7-49,1c-10.6,0.2-21.3,0.4-31.9,0.6C296.8,382.5,296.8,384.5,298.1,384.5L298.1,384.5z" id="el_PxoljK-0QfM"/>
		</g>
	</g>
	<g id="el_kGu21b4zlSX">
		<path d="M342.8,318.2c0,0,49.1-5.2,87,5.7" id="el_ewLLJw6VD6H"/>
		<g id="el_23cqLtiDOVb">
			<path d="M342.8,319.2c28.5-3,59.1-2.1,86.7,5.7c1.2,0.3,1.8-1.6,0.5-1.9c-27.8-7.8-58.6-8.7-87.3-5.8&#10;&#9;&#9;&#9;&#9;C341.5,317.3,341.5,319.3,342.8,319.2L342.8,319.2z" id="el_s6R2WVQijog"/>
		</g>
	</g>
	<g id="el_e_2cupSUqg9">
		<path d="M306.2,258.6c0,0,33.3-43.1,66.9-31.8c44.7,15.1,37.6,92.4,37.6,92.4" id="el_54EDWIw73cc"/>
		<g id="el_1bm9PUR-lGh">
			<path d="M306.9,259.3c15.3-19.7,43.6-41.7,69.5-30.1c25.3,11.3,31.9,43.4,33.3,68.3c0.4,7.2,0.5,14.5-0.1,21.7&#10;&#9;&#9;&#9;&#9;c-0.1,1.3,1.9,1.3,2,0c1.8-19.7-0.2-41.3-7.2-59.8c-4.8-12.7-12.8-24.7-25.2-31c-15.1-7.7-31.5-4.1-45.5,4.3&#10;&#9;&#9;&#9;&#9;c-10.7,6.5-20.6,15.3-28.3,25.2C304.7,258.9,306.2,260.4,306.9,259.3L306.9,259.3z" id="el_27Tq-NgMyoK"/>
		</g>
	</g>
	<g id="el_syeO5vMmbNX">
		<path d="M356.8,268.8c0,0-1.5,33.3,6,48" id="el_w_p4A78cSsX"/>
		<g id="el_IOZMr0GBUwR">
			<path d="M355.8,268.8c-0.7,15.6-0.9,34.2,6.1,48.5c0.6,1.2,2.3,0.1,1.7-1c-6.8-13.9-6.5-32.3-5.8-47.5&#10;&#9;&#9;&#9;&#9;C357.8,267.5,355.8,267.5,355.8,268.8L355.8,268.8z" id="el_jqSOYgO4thY"/>
		</g>
	</g>
	<g id="el_Us29GeShblH">
		<path d="M346.8,268.8c0,0,1.2,5.6,9.9,8.9" id="el_rKh0_g--3U5"/>
		<g id="el_pya2PHBhO2X">
			<path d="M345.8,269c1.1,4.8,6.4,7.9,10.6,9.6c1.2,0.5,1.7-1.5,0.5-1.9c-3.5-1.4-8.2-4.1-9.2-8.2&#10;&#9;&#9;&#9;&#9;C347.5,267.2,345.5,267.8,345.8,269L345.8,269z" id="el_jHNoRad6JqD"/>
		</g>
	</g>
	<g id="el_wlZuD2xiBKY">
		<path d="M435.4,358.6c0,0,25.1,4,34.7-7.5c12-14.3,5.4-23.3-6.7-28.3c-19.5-8.2-34.5-5.8-44.5-2.3" id="el_ey9Ux73I3GJ"/>
		<g id="el_FUEKv4v8gDT">
			<path d="M435.1,359.6c6.8,1.1,14.1,1.1,20.9-0.2c10.3-1.9,20.3-9.5,21.4-20.6c1.2-11.8-12.5-17-21.6-19.7&#10;&#9;&#9;&#9;&#9;c-12.2-3.6-25-3.6-37.1,0.5c-1.2,0.4-0.7,2.3,0.5,1.9c9.8-3.3,20-4,30.2-2c9.3,1.9,27.8,6.8,25.9,19.7&#10;&#9;&#9;&#9;&#9;c-2.8,18.4-24.8,20.8-39.6,18.5C434.4,357.4,433.9,359.4,435.1,359.6L435.1,359.6z" id="el_Qqgsy9d3zq7"/>
		</g>
	</g>
</g></g>
<g id="el_f_C737WDW5-_ZYzmrZmZM" data-animator-group="true" data-animator-type="0"><g id="el_f_C737WDW5-">
	<g id="el_artWZ8IrUJQ">
		<g id="el_1Y09FUZVsCi">
			<path d="M430.5,60.2c-4.8-10.9-22.5-17.6-31.9-8.7c-4.7,4.4-7.1,13-2.8,18.5c3.4,4.4,10.2,6,15.5,4.7&#10;&#9;&#9;&#9;&#9;c1.3-0.3,0.7-2.2-0.5-1.9c-4.9,1.2-11.8-0.6-14.3-5.4c-2.9-5.7,1-13.7,6.3-16.4c9-4.6,22.1,1.3,26,10.2&#10;&#9;&#9;&#9;&#9;C429.3,62.4,431,61.4,430.5,60.2L430.5,60.2z" id="el_7TJbTdHAGTW"/>
		</g>
	</g>
	<g id="el_FB0OtGdBYuS">
		<g id="el_pkiX1zTZKjh">
			<path d="M420.8,100.6c9.5-11.3,15.2-25.7,9.9-40.2c-0.4-1.2-2.4-0.7-1.9,0.5c5.1,13.8-0.3,27.5-9.3,38.2&#10;&#9;&#9;&#9;&#9;C418.5,100.2,419.9,101.6,420.8,100.6L420.8,100.6z" id="el_BAWJFq3K1ns"/>
		</g>
	</g>
	<g id="el_jvYG6vJsbml">
		<g id="el_tOLs_Lpo7qD">
			<path d="M385.7,123.7c13.3-5,25.6-12.4,35.1-23.1c0.8-1-0.6-2.4-1.4-1.4c-9.2,10.5-21.2,17.8-34.2,22.6&#10;&#9;&#9;&#9;&#9;C383.9,122.2,384.5,124.2,385.7,123.7L385.7,123.7z" id="el_twphULeSwiR"/>
		</g>
	</g>
	<g id="el_a6FpoCQE1rw">
		<g id="el_-iQOuu9VL_C">
			<path d="M337.2,129.9c16.5,1.2,32.9-0.7,48.5-6.2c1.2-0.4,0.7-2.4-0.5-1.9c-15.4,5.5-31.6,7.3-47.9,6.1&#10;&#9;&#9;&#9;&#9;C335.9,127.8,335.9,129.8,337.2,129.9L337.2,129.9z" id="el_kY_tVbggrxS"/>
		</g>
	</g>
	<g id="el_LIcU7n397oU">
		<g id="el_YkK8KWQY3RQ">
			<path d="M288.7,118.1c15.9,5.4,31.7,10.4,48.5,11.8c1.3,0.1,1.3-1.9,0-2c-16.7-1.4-32.2-6.4-48-11.7&#10;&#9;&#9;&#9;&#9;C288,115.8,287.5,117.7,288.7,118.1L288.7,118.1z" id="el_oBXDAbXp2Wb"/>
		</g>
	</g>
	<g id="el_Cn2KjyM8OAO">
		<g id="el_Q0sF214sJg2">
			<path d="M248.5,109.5c13.9,0.1,27.1,4.3,40.2,8.7c1.2,0.4,1.7-1.5,0.5-1.9c-13.2-4.4-26.6-8.6-40.7-8.7&#10;&#9;&#9;&#9;&#9;C247.2,107.5,247.2,109.5,248.5,109.5L248.5,109.5z" id="el_lios0M0s3Bm"/>
		</g>
	</g>
	<g id="el_aCWEW7B1m3f">
		<g id="el_hqYkaMJ494U">
			<path d="M225.2,123.1c-2.6-6,4.7-10.4,9.5-11.9c4.5-1.4,9.2-1.7,13.8-1.8c1.3,0,1.3-2,0-2c-8,0.1-30.8,3.3-25,16.7&#10;&#9;&#9;&#9;&#9;C224,125.3,225.7,124.3,225.2,123.1L225.2,123.1z" id="el_4oBjGNZWnMn"/>
		</g>
	</g>
	<g id="el_1hygJ8i2RGY">
		<g id="el_xhr5H5leQSe">
			<path d="M259.2,124.9c-9.5,3.5-27.4,9.1-34-1.8c-0.7-1.1-2.4-0.1-1.7,1c7.3,11.9,25.8,6.5,36.3,2.7&#10;&#9;&#9;&#9;&#9;C261,126.4,260.4,124.5,259.2,124.9L259.2,124.9z" id="el_0Gl5pV_0JCE"/>
		</g>
	</g>
	<g id="el_1ImA9YuiBGa">
		<g id="el_q29WGiHHRPO">
			<path d="M265.5,93.4c5.4,4.5,9.2,11.2,7.1,18.5c-1.9,6.3-7.5,10.6-13.3,13c-1.2,0.5-0.7,2.4,0.5,1.9&#10;&#9;&#9;&#9;&#9;c6.6-2.6,12.6-7.4,14.7-14.4c2.4-7.9-1.6-15.4-7.6-20.4C265.9,91.2,264.5,92.6,265.5,93.4L265.5,93.4z" id="el_xb313DN1ZKR"/>
		</g>
	</g>
	<g id="el_08dNhvbNEcV">
		<g id="el_4o98deB3SWI">
			<path d="M211.5,93.7c16.3-4.8,39.1-11.2,54.2-0.1c1,0.8,2-1,1-1.7c-15.5-11.4-39-5-55.7-0.1&#10;&#9;&#9;&#9;&#9;C209.8,92.1,210.3,94.1,211.5,93.7L211.5,93.7z" id="el_el3hAxewPLB"/>
		</g>
	</g>
	<g id="el_mb68L330kYp">
		<g id="el_qweR1ZYJZPC">
			<path d="M177.5,104.9c11.4-3.6,22.6-7.7,34-11.2c1.2-0.4,0.7-2.3-0.5-1.9c-11.4,3.4-22.6,7.6-34,11.2&#10;&#9;&#9;&#9;&#9;C175.8,103.3,176.3,105.3,177.5,104.9L177.5,104.9z" id="el_mUdNXQe7KWc"/>
		</g>
	</g>
	<g id="el_vsPoCIIa2a1">
		<g id="el_Q6ZVAYbnTe5">
			<path d="M140.8,111.6c12.6-0.6,24.6-3,36.7-6.7c1.2-0.4,0.7-2.3-0.5-1.9c-11.9,3.7-23.7,6-36.1,6.7&#10;&#9;&#9;&#9;&#9;C139.6,109.7,139.6,111.7,140.8,111.6L140.8,111.6z" id="el_bZLeafxx2zY"/>
		</g>
	</g>
	<g id="el_mdbkLrKT8qd">
		<g id="el_rkWasCkq99F">
			<path d="M102.6,107.5c12.4,3.6,25.3,4.6,38.2,4.1c1.3,0,1.3-2,0-2c-12.7,0.5-25.4-0.4-37.7-4&#10;&#9;&#9;&#9;&#9;C101.9,105.2,101.4,107.2,102.6,107.5L102.6,107.5z" id="el_j1G-2TTNuNG"/>
		</g>
	</g>
	<g id="el_5xJh6i7WZny">
		<g id="el_akW9UgvQ-Et">
			<path d="M75.1,87c5.6,10.9,16.2,16.9,27.5,20.5c1.2,0.4,1.8-1.5,0.5-1.9c-10.8-3.4-20.9-9.1-26.3-19.6&#10;&#9;&#9;&#9;&#9;C76.3,84.9,74.5,85.9,75.1,87L75.1,87z" id="el_46Rms2-8Idy"/>
		</g>
	</g>
</g></g>
</svg>